<?xml version="1.0" encoding="utf-8"?>
<!-- Generator: Adobe Illustrator 25.2.1, SVG Export Plug-In . SVG Version: 6.00 Build 0)  -->
<svg version="1.1" id="Layer_1" xmlns="http://www.w3.org/2000/svg" xmlns:xlink="http://www.w3.org/1999/xlink" x="0px" y="0px"
	 viewBox="0 0 256 256" style="enable-background:new 0 0 256 256;" xml:space="preserve">
<style type="text/css">
	.st0{fill:#618B8C;}
</style>
<path class="st0" d="M255.88,85.46c-1.14,24.97-18.55,59.16-52.21,102.55C168.86,233.34,139.41,256,115.32,256
	c-14.92,0-27.55-13.8-37.86-41.41c-6.89-25.3-13.77-50.61-20.67-75.91c-7.66-27.59-15.87-41.41-24.66-41.41
	c-1.91,0-8.61,4.04-20.09,12.08L0,93.81c12.63-11.12,25.1-22.24,37.36-33.38c16.85-14.59,29.5-22.26,37.93-23.04
	c19.93-1.92,32.19,11.73,36.79,40.94c4.97,31.52,8.42,51.12,10.35,58.79c5.74,26.15,12.06,39.2,18.97,39.2
	c5.36,0,13.41-8.48,24.14-25.44c10.72-16.96,16.46-29.87,17.24-38.73c1.53-14.64-4.22-21.98-17.24-21.98
	c-6.13,0-12.45,1.41-18.95,4.21c12.58-41.29,36.62-61.34,72.1-60.2C244.99,34.95,257.39,52.05,255.88,85.46z"/>
</svg>
