<svg height="256" viewBox="0 0 256 256" width="256" xmlns="http://www.w3.org/2000/svg"><path d="m163.1 167.8s9 2.7 16 0c19.4-7.5 6.5-28.2 6.5-37.9s37.1-35.9 8.9-64.1c-35.7-35.6-51.8 0-51.8 0 17 4.6 19.8 27.7 20.3 32.9.9 9.2-4.6 16.8-13.6 15-10.7-2.2-6.8-14.9-.6-10.9a6.9 6.9 0 0 1 2.7 3.6c8 26.8-10.5 61.4-10.5 61.4a199.2 199.2 0 0 0 -.1-37.9c-9.4 31.6-31 65.7-36.7 74.4a3.7 3.7 0 0 1 -6.5-.5c-1-2.2-1.6-4.3-2.9-5.6s-5-2.2-7-2.6a3.8 3.8 0 0 1 -2.1-5.8c27.5-39.4 22.8-59.9 22.8-59.9-7 7-13.7 22.1-13.7 22.1s4.8-55.9 14-49.4a4.3 4.3 0 0 1 1.8 4.1c-1.8 15.1-18.6 3.5-12.7-10.2s-.7-66.3-36.4-30.7c-28.2 28.2 8.9 54.3 8.9 64.1s-8.6 43.6 11.8 37.9" fill="none" stroke="#00567d" stroke-miterlimit="10" stroke-width="5.34"/></svg>