<svg id="Layer_1" data-name="Layer 1" xmlns="http://www.w3.org/2000/svg" viewBox="0 0 256 221.87"><defs><style>.cls-1{fill:#e55d45;}</style></defs><path class="cls-1" d="M255.88,85.46Q254.17,122.92,203.67,188q-52.21,68-88.35,68Q93,256,77.46,214.59q-10.33-38-20.66-75.91Q45.31,97.3,32.14,97.27q-2.88,0-20.09,12.08L0,93.81Q18.95,77.13,37.36,60.43q25.28-21.88,37.93-23,29.89-2.88,36.79,40.94,7.45,47.27,10.35,58.78,8.61,39.22,19,39.21,8,0,24.13-25.44t17.24-38.73q2.29-22-17.24-22a47.9,47.9,0,0,0-18.94,4.21q18.87-61.93,72.1-60.2Q258.14,35.34,255.88,85.46Z" transform="translate(0 -34.13)"/></svg>