<svg height="256" viewBox="0 0 256 256" width="256" xmlns="http://www.w3.org/2000/svg"><g fill="none" stroke="#00567d" stroke-miterlimit="10" stroke-width="5.34"><path d="m50 84.5v92.7a8.4 8.4 0 0 0 8.3 8.4h10.6v-87.3z"/><path d="m206 84.5v92.7a8.4 8.4 0 0 1 -8.3 8.4h-10.6v-87.3z"/><path d="m58.5 70.4h-.2a8.4 8.4 0 0 0 -8.3 8.4v.2a8.6 8.6 0 0 1 8.5-8.6z"/><path d="m197.7 70.4h-.2a8.6 8.6 0 0 1 8.5 8.6v-.2a8.4 8.4 0 0 0 -8.3-8.4z"/><path d="m197.5 70.4a8.4 8.4 0 0 0 -5 1.7l-5.4 3.9-59.1 42.8-59.1-42.8-5.4-3.9a8.4 8.4 0 0 0 -5-1.7 8.6 8.6 0 0 0 -8.5 8.6 11.2 11.2 0 0 0 4.5 8.9l14.4 10.4 59.1 43.2 59.1-43.2 14.4-10.4a11.2 11.2 0 0 0 4.5-8.9 8.6 8.6 0 0 0 -8.5-8.6z"/><rect height="115.1" rx="8.4" width="156" x="50" y="70.4"/></g></svg>