<svg height="256" viewBox="0 0 256 256" width="256" xmlns="http://www.w3.org/2000/svg"><rect fill="#042c35" height="231.17" rx="35.6" width="231.2" x="12.4" y="12.4"/><g fill="#fff"><path d="m186.9 69.3a67.5 67.5 0 0 0 -7-8.2q-21.2-21.7-53.7-21.7h-71.3v10.8l19.8 1.6v152.5l-19.8 1.6v10.7h71.3q32.6 0 53.7-21.5a81.7 81.7 0 0 0 8.1-9.7c8.7-12.8 13.1-28.1 13.1-46v-22.7c0-18.6-4.8-34.4-14.2-47.4zm-11.9 103.9a17 17 0 0 1 -4.1 11.2l-1.4 1.5q-17 18.4-43.3 18.4h-13.3a32.7 32.7 0 0 1 -12-2.2h-.1a18.2 18.2 0 0 1 -11.6-17v-66.2c9.5 5.7 21.9 10.5 37.3 14.3 17.9 4.7 30.5 10.2 37.7 16.3s10.8 14 10.8 23.7zm11.5-33.8a78.5 78.5 0 0 1 -1.2 14 39.2 39.2 0 0 0 -10.6-13.2q-14.8-12.4-43.5-19.7c-18.1-4.6-30.8-9.8-38.1-15.8a10.2 10.2 0 0 1 -3.9-8.1v-27.5a13.2 13.2 0 0 1 5.1-10.4l.8-.6a33.9 33.9 0 0 1 19.9-6.3h11.2q26.2 0 43.2 18.4a45.4 45.4 0 0 1 4.1 4.8 60.6 60.6 0 0 1 9.1 17 72.9 72.9 0 0 1 3.9 24.3z"/><path d="m216.6 0h-177.2a39.3 39.3 0 0 0 -39.4 39.4v177.2a39.3 39.3 0 0 0 39.4 39.4h177.2a39.3 39.3 0 0 0 39.4-39.4v-177.2a39.3 39.3 0 0 0 -39.4-39.4zm27 208a35.6 35.6 0 0 1 -35.6 35.6h-160a35.6 35.6 0 0 1 -35.6-35.6v-160a35.6 35.6 0 0 1 35.6-35.6h160a35.6 35.6 0 0 1 35.6 35.6z"/></g></svg>