<svg id="Layer_1" data-name="Layer 1" xmlns="http://www.w3.org/2000/svg" viewBox="0 0 255.36 256"><defs><style>.cls-1{fill:#fff;}.cls-2{fill:#e55d45;}</style></defs><path class="cls-1" d="M158.67,29.64a102.7,102.7,0,0,0-17-1.55s-49.76-.75-55.17-.75a84.27,84.27,0,0,0-19.27,2.07A48.77,48.77,0,0,0,48,38.25Q34.1,49.16,34.11,68.51q0,15.54,13.15,26.27c4.8,3.91,11.51,7.64,20,11.19A216.45,216.45,0,0,0,92,114.4c3.33.94,6.5,1.9,9.6,2.86Q126.41,125,141.47,134q17.85,10.71,26.47,25t8.62,33.61c0,14-3.81,26.07-11.26,36.28a70.84,70.84,0,0,0,34.28-21.16q22.11-24.72,22.1-70.39V122.12q0-44.41-20.84-69Q184.88,34.22,158.67,29.64Z" transform="translate(-0.32)"/><path class="cls-2" d="M241.28,57.8Q227,30.07,200.92,15T140.8,0H86.53A128.77,128.77,0,0,0,67.26,1.41q-25.37,3.81-43,18.18Q.32,39.18.32,69.14q0,26.48,19.59,44.49c10.61,9.76,26.45,18.25,47.35,25.52,4.84,1.68,9.87,3.32,15.26,4.87,7.07,2,13.38,4.1,19.09,6.17,12.78,4.61,22.26,9.26,28.28,13.95Q143,174.33,143,193t-14.1,29.43q-10.3,7.89-27.24,10c-1.06.14.89,2.05,4.39,4.81,26.89,21.29,64.32,25.08,94.31,8.43l.53-.3a100,100,0,0,0,40.61-42.58q14.24-27.74,14.23-64.6V121.5Q255.5,85.53,241.28,57.8Zm-19.6,79.54q0,45.67-22.1,70.39a70.84,70.84,0,0,1-34.28,21.16c7.45-10.21,11.26-22.27,11.26-36.28q0-19.32-8.62-33.61t-26.47-25q-15-9-39.86-16.75c-3.1-1-6.27-1.92-9.6-2.86A216.45,216.45,0,0,1,67.26,106c-8.49-3.55-15.2-7.28-20-11.19Q34.11,84,34.11,68.51q0-19.35,13.84-30.26a48.77,48.77,0,0,1,19.31-8.84,84.27,84.27,0,0,1,19.27-2.07c5.41,0,55.17.75,55.17.75a102.7,102.7,0,0,1,17,1.55q26.18,4.63,42.17,23.44,20.83,24.61,20.84,69Z" transform="translate(-0.32)"/></svg>