<svg height="256" viewBox="0 0 771.5 256" width="771.5" xmlns="http://www.w3.org/2000/svg"><path d="m679.8 167.8s9 2.7 16 0c19.3-7.5 6.4-28.2 6.4-37.9s37.1-35.9 8.9-64.1c-35.6-35.6-51.8 0-51.8 0 17 4.6 19.9 27.7 20.4 32.9.8 9.2-4.6 16.8-13.6 15-10.7-2.2-6.8-14.9-.6-10.9a6.9 6.9 0 0 1 2.7 3.6c7.9 26.8-10.6 61.4-10.6 61.4a194.6 194.6 0 0 0 0-37.9c-9.5 31.6-31 65.7-36.7 74.4a3.7 3.7 0 0 1 -6.5-.5c-1-2.2-1.7-4.3-2.9-5.6s-5.1-2.2-7.1-2.6a3.8 3.8 0 0 1 -2.1-5.8c27.5-39.4 22.9-59.9 22.9-59.9-7 7-13.7 22.1-13.7 22.1s4.8-55.9 14-49.4a4.3 4.3 0 0 1 1.8 4.1c-1.8 15.1-18.6 3.5-12.7-10.2s-.8-66.3-36.4-30.7c-28.2 28.2 8.9 54.3 8.9 64.1s-8.6 43.6 11.7 37.9" fill="none" stroke="#00567d" stroke-miterlimit="10" stroke-width="5.34"/><g fill="#f32735"><path d="m54.6 126.9a15.6 15.6 0 0 1 9.9-3.1 16.5 16.5 0 0 1 9.8 2.7 8.5 8.5 0 0 1 3.8 7 11.2 11.2 0 0 1 -1.8 6.6 6.5 6.5 0 0 1 -5.7 2.6c-2.7 0-4.6-.9-5.8-2.6a10.5 10.5 0 0 1 -1.8-6.2h4.8c0 2.8 1 4.2 2.8 4.2s2.6-1.4 2.6-4.2a4.7 4.7 0 0 0 -2.3-4.1 11.3 11.3 0 0 0 -6.1-1.5 11.5 11.5 0 0 0 -6.5 1.8 5.6 5.6 0 0 0 -2.6 4.7 6.3 6.3 0 0 0 2.4 5 29.9 29.9 0 0 0 5.9 3.7l4.1 2.1 2.4 1.2 2.4 1.4 1.9 1.5a5.9 5.9 0 0 1 1.8 1.7l1.2 1.8a9.3 9.3 0 0 1 1.1 4.7 8.2 8.2 0 0 1 -4.2 7.6c-2.9 1.7-6.8 2.6-11.8 2.6a26.2 26.2 0 0 1 -12.9-3.1v-8.3h4.3v5a21.8 21.8 0 0 0 8.9 1.8 15 15 0 0 0 7.6-1.7c1.9-1.2 2.9-2.6 2.9-4.4s-1-3.2-2.9-4.6a90.9 90.9 0 0 0 -8.3-4.5 37.9 37.9 0 0 1 -9-5.8 9.1 9.1 0 0 1 -2.9-7.1 10.1 10.1 0 0 1 4-8.5z"/><path d="m86.5 163.7a18.6 18.6 0 0 1 0-22.8q3.9-4.5 10.8-4.5t10.8 4.5a18.6 18.6 0 0 1 0 22.8q-3.7 4.5-10.8 4.5t-10.8-4.5zm3.8-19.5a14.4 14.4 0 0 0 0 16.2 9.3 9.3 0 0 0 14 0 14.4 14.4 0 0 0 0-16.2 9.3 9.3 0 0 0 -14 0z"/><path d="m133.2 167.6v-4h4.7v-15.4a12.5 12.5 0 0 0 -.9-5.4q-.9-1.8-4.2-1.8c-2.2 0-5.2 1-9 3.1v19.5h4.7v4h-14.6v-4h4.7v-22.6h-4.7v-4h8.7l.7 2.8c4.1-2.3 7.8-3.4 11-3.4s5.7 1.2 7.1 3.6c4.2-2.4 8-3.6 11.3-3.6s5.6 1.1 6.9 3.1a16.5 16.5 0 0 1 2 8.7v15.7h5v2.6a10.1 10.1 0 0 1 -5.2 1.4c-2 0-3.3-.3-4-1a4.5 4.5 0 0 1 -1-3.3v-15.4a12.5 12.5 0 0 0 -.9-5.4c-.6-1.2-2-1.8-4.1-1.8s-5 .9-8.6 2.8a29.4 29.4 0 0 1 .3 4.4v15.4h5.3v4z"/><path d="m190.6 167.6v-4h4.7v-15.4a12.5 12.5 0 0 0 -.9-5.4q-.9-1.8-4.2-1.8c-2.1 0-5.1 1-9 3.1v19.5h4.7v4h-14.6v-4h4.7v-22.6h-4.7v-4h8.8l.6 2.8c4.1-2.3 7.8-3.4 11.1-3.4s5.6 1.2 7 3.6c4.2-2.4 8-3.6 11.3-3.6s5.6 1.1 6.9 3.1a16.5 16.5 0 0 1 2 8.7v15.7h5v2.6a9.9 9.9 0 0 1 -5.2 1.4c-2 0-3.3-.3-4-1a4.5 4.5 0 0 1 -1-3.3v-15.4a12.5 12.5 0 0 0 -.9-5.4c-.6-1.2-2-1.8-4.1-1.8s-5 .9-8.6 2.8a29.4 29.4 0 0 1 .3 4.4v15.4h5.4v4z"/><path d="m252.1 150.2v3.3h-21.6a13.1 13.1 0 0 0 2.6 7.3 7.8 7.8 0 0 0 6.3 2.8 21.6 21.6 0 0 0 4.6-.5 13.5 13.5 0 0 0 2.8-1l2.2-1.4 2.3 3.4a17.1 17.1 0 0 1 -11.6 4.1c-4.7 0-8.2-1.5-10.7-4.5s-3.7-6.8-3.7-11.4 1.2-8.4 3.7-11.4a12.4 12.4 0 0 1 10.1-4.5c4.3 0 7.5 1.3 9.7 3.9a14.6 14.6 0 0 1 3.3 9.9zm-7.4-7a6.7 6.7 0 0 0 -5.4-2.2 7.5 7.5 0 0 0 -5.6 2.2 10.7 10.7 0 0 0 -2.9 5.9h16.1a10.5 10.5 0 0 0 -2.2-5.9z"/><path d="m265.1 163.6h5.3v4h-15.3v-4h4.8v-22.6h-4.8v-4h8.8l.7 3.3 3.4-1.8a18.1 18.1 0 0 1 3.7-1.4 19.8 19.8 0 0 1 4.7-.7l3.4.9-1.4 5-2.8-.7a24.6 24.6 0 0 0 -10.5 2.6z"/><path d="m298.8 121.3a43.4 43.4 0 0 1 5.8.4v8.2h-4.2v-4h-1.6c-2.6 0-4.3.7-5.2 2s-1.3 3.4-1.3 6.4v2.7h9.7v4h-9.7v22.6h5.3v4h-15.3v-4h4.8v-22.6h-4.7v-3.4l4.7-.6v-2.8c0-4.3.9-7.5 2.6-9.7s4.8-3.2 9.1-3.2z"/><path d="m330.4 150.2v3.3h-21.6a13.1 13.1 0 0 0 2.6 7.3 7.8 7.8 0 0 0 6.3 2.8 21.6 21.6 0 0 0 4.6-.5 13.5 13.5 0 0 0 2.8-1l2.2-1.4 2.3 3.4a17.1 17.1 0 0 1 -11.6 4.1c-4.7 0-8.2-1.5-10.7-4.5a19.4 19.4 0 0 1 0-22.8 12.4 12.4 0 0 1 10.1-4.5c4.3 0 7.5 1.3 9.7 3.9a14.6 14.6 0 0 1 3.3 9.9zm-7.4-7a6.5 6.5 0 0 0 -5.3-2.2 7.5 7.5 0 0 0 -5.7 2.2 11.4 11.4 0 0 0 -2.9 5.9h16.1a10.5 10.5 0 0 0 -2.2-5.9z"/><path d="m333.5 125.7v-4h9.9v41.9h5.3v4h-15.2v-4h4.7v-37.9z"/><path d="m377.2 121.7v42.2h5.1v2.6a10.4 10.4 0 0 1 -5.2 1.4 7.1 7.1 0 0 1 -3.9-.8 3.9 3.9 0 0 1 -1.2-2.9 11.6 11.6 0 0 1 -9.2 4 10.2 10.2 0 0 1 -8.7-4.4c-2.1-3-3.1-6.8-3.1-11.4a18.2 18.2 0 0 1 3.6-11.5q3.8-4.5 10.5-4.5a19.5 19.5 0 0 1 6.9 1.3v-12h-4.7v-4zm-21 30.4a15 15 0 0 0 2 8.3 6.3 6.3 0 0 0 5.6 3.2 7.3 7.3 0 0 0 6-2.9 10.8 10.8 0 0 0 2.2-6.9v-10.8a13 13 0 0 0 -7-2 8 8 0 0 0 -6.3 3c-1.7 2-2.5 4.7-2.5 8.1z"/><path d="m410.3 150.2v3.3h-21.5a12.4 12.4 0 0 0 2.6 7.3 7.5 7.5 0 0 0 6.2 2.8 20.9 20.9 0 0 0 4.6-.5l2.9-1 2.2-1.4 2.2 3.4a16.9 16.9 0 0 1 -11.6 4.1c-4.6 0-8.2-1.5-10.6-4.5s-3.7-6.8-3.7-11.4 1.2-8.4 3.7-11.4a12.2 12.2 0 0 1 10-4.5c4.3 0 7.5 1.3 9.7 3.9a14.6 14.6 0 0 1 3.3 9.9zm-7.4-7a6.4 6.4 0 0 0 -5.3-2.2 7.7 7.7 0 0 0 -5.7 2.2 12.2 12.2 0 0 0 -2.9 5.9h16.1a10.5 10.5 0 0 0 -2.2-5.9z"/><path d="m414.6 158.8h4.3v3.8a13.4 13.4 0 0 0 5.6 1 9.7 9.7 0 0 0 5.1-1.1 3.1 3.1 0 0 0 1.8-2.7 3.3 3.3 0 0 0 -1.4-2.6 51.9 51.9 0 0 0 -6.2-3.6 38 38 0 0 1 -6.9-4.4 6.2 6.2 0 0 1 -1.9-4.8 7 7 0 0 1 2.9-5.9 13.9 13.9 0 0 1 8.1-2.1 21 21 0 0 1 9.8 2.5v7.3h-4.3v-4.1a15.6 15.6 0 0 0 -5.7-1.1c-2.1 0-3.5.4-4.3 1.1a3.3 3.3 0 0 0 -1.3 2.5 2.6 2.6 0 0 0 .9 2.1 32.7 32.7 0 0 0 6 3.5 37 37 0 0 1 7.4 4.9 5.9 5.9 0 0 1 2.1 4.7 7.2 7.2 0 0 1 -3.3 6.1c-2.1 1.5-5.2 2.2-9 2.2a18.1 18.1 0 0 1 -9.7-2.3z"/><path d="m440.1 141v-4h9.9v26.6h5.3v4h-15.3v-4h4.8v-22.6zm7.1-9.4a2.7 2.7 0 0 1 -2.2-1 3.1 3.1 0 0 1 -.8-2.3 3.7 3.7 0 0 1 .9-2.5 3.3 3.3 0 0 1 2.3-1 2.7 2.7 0 0 1 2.2 1 3.1 3.1 0 0 1 .8 2.3 3.2 3.2 0 0 1 -.9 2.4 3 3 0 0 1 -2.3 1.1z"/><path d="m484.2 165.7a7.9 7.9 0 0 1 2.6 6.1c0 2.6-1.4 4.9-4.2 6.7s-6.6 2.8-11.7 2.8-6.6-.9-8.6-2.6a8.7 8.7 0 0 1 -3.1-6.9c0-2.8 1.5-5 4.5-6.7q-4.2-1.3-4.2-4.8c0-2.3 1.3-3.9 3.8-4.7a10.2 10.2 0 0 1 -3.4-8 10.6 10.6 0 0 1 3.2-8.1c2.1-2 5.1-3.1 9-3.1a14.7 14.7 0 0 1 6.4 1.4h10.3v4.4h-5.8a10.3 10.3 0 0 1 1.3 5.2 10.7 10.7 0 0 1 -3.2 7.9c-2.1 2.1-5.1 3.1-9 3.1h-5.3c-1.4 0-2.1.6-2.1 1.7s.7 1.4 2.1 1.6l10.2 1.2a13.2 13.2 0 0 1 7.2 2.8zm-18.3 3.1a4.8 4.8 0 0 0 -1.5 3.4 3.8 3.8 0 0 0 1.8 3.2 7.3 7.3 0 0 0 4.7 1.3 17.5 17.5 0 0 0 7.8-1.5c1.9-1 2.9-2.2 2.9-3.7s-1.6-3.6-4.6-4l-7.5-.8a6 6 0 0 0 -3.6 2.1zm6.2-27.8a7.3 7.3 0 0 0 -5.2 1.8 6.6 6.6 0 0 0 -1.8 4.7 6.1 6.1 0 0 0 1.8 4.5 8.4 8.4 0 0 0 10.4 0 6.1 6.1 0 0 0 1.8-4.5 6.6 6.6 0 0 0 -1.8-4.7 7.3 7.3 0 0 0 -5.2-1.8z"/><path d="m503.4 163.6h5.3v4h-15.2v-4h4.7v-22.6h-4.7v-4h8.7l.8 3.3 3.3-1.8a20.8 20.8 0 0 1 3.7-1.4 19.8 19.8 0 0 1 4.7-.7c3.5 0 5.9 1.1 7.2 3.1s2 5 2 8.7v15.7h5v2.6a9.9 9.9 0 0 1 -5.2 1.4c-2 0-3.3-.3-4-1a5 5 0 0 1 -1-3.3v-15.4a12.5 12.5 0 0 0 -.9-5.4q-.9-1.8-4.2-1.8c-2.2 0-5.6 1.2-10.2 3.7z"/><path d="m533.4 158.8h4.3v3.8a14.2 14.2 0 0 0 5.7 1 10.2 10.2 0 0 0 5.1-1.1 3.1 3.1 0 0 0 .4-5.3 69 69 0 0 0 -6.3-3.6 40.2 40.2 0 0 1 -6.8-4.4 6.3 6.3 0 0 1 -2-4.8 6.8 6.8 0 0 1 3-5.9 13.9 13.9 0 0 1 8.1-2.1 20.9 20.9 0 0 1 9.7 2.5v7.3h-4.3v-4.1a15.6 15.6 0 0 0 -5.7-1.1 6.7 6.7 0 0 0 -4.3 1.1 3.3 3.3 0 0 0 -1.3 2.5 2.4 2.4 0 0 0 1 2.1 34.7 34.7 0 0 0 5.9 3.5 42 42 0 0 1 7.5 4.9 6.2 6.2 0 0 1 2 4.7 7.4 7.4 0 0 1 -3.2 6.1c-2.2 1.5-5.2 2.2-9.1 2.2a18.6 18.6 0 0 1 -9.7-2.3z"/></g></svg>