<?xml version="1.0" encoding="utf-8"?>
<!-- Generator: Adobe Illustrator 25.2.1, SVG Export Plug-In . SVG Version: 6.00 Build 0)  -->
<svg version="1.1" id="Layer_1" xmlns="http://www.w3.org/2000/svg" xmlns:xlink="http://www.w3.org/1999/xlink" x="0px" y="0px"
	 viewBox="0 0 256 256" style="enable-background:new 0 0 256 256;" xml:space="preserve">
<style type="text/css">
	.st0{fill:#FFFFFF;}
	.st1{fill:#618B8C;}
</style>
<g>
	<g>
		<path class="st0" d="M158.67,29.64c-5.35-0.95-10.99-1.49-16.97-1.55c0,0-49.75-0.75-55.17-0.75c-7.11,0-13.51,0.72-19.27,2.07
			c-7.59,1.78-14.06,4.7-19.31,8.83c-9.23,7.27-13.84,17.36-13.84,30.27c0,10.36,4.38,19.11,13.15,26.26
			c4.8,3.92,11.51,7.64,20,11.19c7.01,2.93,15.22,5.75,24.75,8.43c3.33,0.94,6.5,1.9,9.6,2.86c16.52,5.16,29.83,10.73,39.86,16.75
			c11.9,7.14,20.72,15.47,26.47,24.99c5.75,9.52,8.62,20.72,8.62,33.61c0,14.01-3.82,26.07-11.26,36.27
			c13.69-3.88,25.12-10.92,34.28-21.16c14.73-16.48,22.1-39.94,22.1-70.39v-15.22c0-29.61-6.95-52.62-20.85-69.04
			C190.2,40.51,176.12,32.73,158.67,29.64z"/>
	</g>
	<g>
		<path class="st1" d="M241.28,57.8c-9.48-18.49-22.93-32.75-40.35-42.77C183.51,5.01,163.46,0,140.8,0H86.53
			c-6.77,0-13.17,0.49-19.27,1.41C50.35,3.95,36,9.99,24.27,19.59C8.3,32.65,0.32,49.17,0.32,69.14c0,17.65,6.53,32.48,19.59,44.5
			c10.6,9.76,26.45,18.25,47.35,25.52c4.84,1.68,9.87,3.32,15.26,4.87c7.07,2.05,13.38,4.1,19.09,6.16
			c12.78,4.61,22.26,9.26,28.28,13.95c8.71,6.79,13.06,16.4,13.06,28.82c0,12.43-4.7,22.23-14.11,29.43
			c-6.87,5.26-15.96,8.57-27.23,9.99c-1.06,0.13,0.89,2.04,4.38,4.81c26.9,21.28,64.32,25.08,94.31,8.43c0.18-0.1,0.35-0.2,0.53-0.3
			c17.6-9.9,31.14-24.09,40.62-42.59c9.48-18.49,14.23-40.02,14.23-64.6V121.5C255.56,97.52,250.76,76.29,241.28,57.8z
			 M221.68,137.34c0,30.45-7.37,53.91-22.1,70.39c-9.16,10.24-20.59,17.29-34.28,21.16c7.45-10.21,11.26-22.27,11.26-36.27
			c0-12.89-2.87-24.09-8.62-33.61c-5.75-9.52-14.57-17.85-26.47-24.99c-10.02-6.01-23.34-11.59-39.86-16.75
			c-3.1-0.97-6.27-1.93-9.6-2.86c-9.53-2.68-17.74-5.5-24.75-8.43c-8.49-3.55-15.2-7.28-20-11.19
			c-8.77-7.15-13.15-15.91-13.15-26.26c0-12.91,4.61-23,13.84-30.27c5.25-4.13,11.71-7.05,19.31-8.83
			c5.76-1.35,12.16-2.07,19.27-2.07c5.42,0,55.17,0.75,55.17,0.75c5.99,0.06,11.63,0.6,16.97,1.55
			c17.45,3.09,31.53,10.87,42.16,23.44c13.89,16.42,20.85,39.43,20.85,69.04V137.34z"/>
	</g>
</g>
</svg>
