<?xml version="1.0" encoding="utf-8"?>
<!-- Generator: Adobe Illustrator 25.2.1, SVG Export Plug-In . SVG Version: 6.00 Build 0)  -->
<svg version="1.1" id="Layer_1" xmlns="http://www.w3.org/2000/svg" xmlns:xlink="http://www.w3.org/1999/xlink" x="0px" y="0px"
	 viewBox="0 0 256 256" style="enable-background:new 0 0 256 256;" xml:space="preserve">
<style type="text/css">
	.st0{fill:#618B8C;}
</style>
<g>
	<g>
		<path class="st0" d="M251.59,210.57c-1.36-1.35-2.94-2.43-4.75-3.22c-1.81-0.79-3.75-1.19-5.82-1.19c-2.07,0-4.01,0.4-5.82,1.19
			c-1.81,0.79-3.4,1.87-4.75,3.22c-1.36,1.36-2.43,2.94-3.22,4.75c-0.79,1.81-1.19,3.75-1.19,5.82c0,2.07,0.4,4.01,1.19,5.82
			c0.79,1.81,1.86,3.4,3.22,4.75c1.36,1.36,2.94,2.43,4.75,3.22c1.81,0.79,3.75,1.19,5.82,1.19c2.07,0,4.01-0.4,5.82-1.19
			c1.81-0.79,3.39-1.86,4.75-3.22c1.36-1.35,2.43-2.94,3.22-4.75c0.79-1.81,1.19-3.75,1.19-5.82c0-2.07-0.4-4.01-1.19-5.82
			S252.95,211.92,251.59,210.57z M252.82,226.12c-0.67,1.56-1.58,2.91-2.74,4.07c-1.15,1.15-2.51,2.07-4.07,2.74
			c-1.56,0.67-3.22,1.01-4.99,1.01s-3.44-0.34-4.99-1.01c-1.56-0.67-2.91-1.58-4.07-2.74c-1.15-1.15-2.07-2.51-2.74-4.07
			c-0.67-1.56-1.01-3.22-1.01-4.99c0-1.77,0.34-3.43,1.01-4.99c0.67-1.56,1.58-2.91,2.74-4.07c1.15-1.15,2.51-2.07,4.07-2.74
			c1.56-0.67,3.22-1.01,4.99-1.01s3.44,0.34,4.99,1.01c1.56,0.67,2.91,1.58,4.07,2.74c1.15,1.15,2.07,2.51,2.74,4.07
			c0.67,1.56,1.01,3.22,1.01,4.99C253.83,222.9,253.49,224.57,252.82,226.12z"/>
		<path class="st0" d="M244.99,221.64c0.52-0.23,0.99-0.54,1.39-0.93c0.4-0.39,0.72-0.87,0.95-1.43c0.23-0.56,0.34-1.25,0.34-2.05
			c0-1.56-0.42-2.74-1.25-3.56c-0.83-0.82-2.23-1.23-4.19-1.23h-6.64v17.27h2.17v-7.57h3.1l5.15,7.57h2.45l-5.15-7.57
			C243.91,222.03,244.47,221.86,244.99,221.64z M240.54,220.21h-2.78v-5.84h3.87c0.46,0,0.92,0.05,1.39,0.14
			c0.47,0.09,0.89,0.25,1.25,0.46c0.36,0.21,0.66,0.5,0.89,0.87c0.23,0.36,0.34,0.82,0.34,1.39c0,0.72-0.15,1.28-0.44,1.67
			c-0.3,0.39-0.68,0.68-1.15,0.89c-0.47,0.2-1,0.32-1.59,0.36C241.72,220.19,241.13,220.21,240.54,220.21z"/>
	</g>
	<path class="st0" d="M216.38,35.31c0-0.8-0.07-1.61-0.19-2.41c-1.09-7.2-7.71-13.06-15.9-13.02c-30.71,0.15-61.42,0.06-92.13,0.06
		c-23.49,0-46.98,0-70.47,0c-7.42,0-14.85-0.07-22.27,0.02C6.61,20.08,0,26.84,0,35.61C0,97.22,0,158.83,0.03,220.44
		c0,1.53,0.23,3.1,0.65,4.57c2.02,6.97,7.84,11.1,15.53,11.1c61.29,0.01,122.58,0,183.87,0c0.54,0,1.08,0,1.62-0.02
		c8.17-0.35,14.69-7.14,14.69-15.34C216.39,158.94,216.38,97.13,216.38,35.31z M64.36,152.51c0,16.46,0,32.91,0,49.37
		c0,2.68-0.01,2.7-2.71,2.7c-9.18,0.01-18.35-0.03-27.53,0.03c-1.75,0.01-2.47-0.4-2.46-2.37c0.06-33.05,0.06-66.1,0-99.15
		c0-1.89,0.57-2.38,2.4-2.37c9.31,0.08,18.62,0.09,27.93,0c1.89-0.02,2.4,0.59,2.39,2.42C64.34,119.59,64.36,136.05,64.36,152.51z
		 M48.06,86.89c-10.45,0.01-18.78-8.25-18.8-18.63C29.25,57.7,37.53,49.34,48,49.34c10.46,0,18.83,8.39,18.83,18.87
		C66.82,78.58,58.47,86.89,48.06,86.89z M182.22,204.62c-9.18-0.08-18.36-0.09-27.54,0c-2.1,0.02-2.62-0.74-2.61-2.72
		c0.06-17,0.12-34.01-0.03-51.01c-0.04-4.34-0.42-8.77-1.39-12.99c-1.67-7.25-6.56-10.86-14.02-10.95c-2.4-0.03-4.89,0.08-7.2,0.65
		c-7.49,1.86-10.68,7.53-11.92,14.52c-0.6,3.36-0.82,6.82-0.84,10.24c-0.08,16.53-0.07,33.06,0.01,49.59
		c0.01,2.06-0.56,2.67-2.61,2.65c-9.18-0.09-18.36-0.09-27.54,0c-2.08,0.02-2.61-0.68-2.6-2.69c0.06-32.86,0.06-65.72,0-98.58
		c0-2,0.48-2.68,2.58-2.65c8.84,0.12,17.68,0.1,26.52,0.01c1.93-0.02,2.43,0.64,2.37,2.44c-0.11,3.7-0.03,7.4-0.03,11.72
		c5.05-7.94,11.53-13.16,20.04-15.38c10.36-2.71,20.62-1.84,30.38,2.53c9.84,4.4,14.45,12.93,16.8,22.93
		c1.72,7.32,2.11,14.77,2.09,22.27c-0.05,18.28-0.05,36.57,0.01,54.85C184.73,204,184.18,204.63,182.22,204.62z"/>
</g>
</svg>
