<svg id="Layer_1" data-name="Layer 1" xmlns="http://www.w3.org/2000/svg" viewBox="0 0 256 216.22"><defs><style>.cls-1{fill:#e55d45;}</style></defs><path class="cls-1" d="M251.59,210.57a15.17,15.17,0,0,0-4.75-3.22,14.8,14.8,0,0,0-11.63,0,15.22,15.22,0,0,0-8,8,14.8,14.8,0,0,0,0,11.63,15.22,15.22,0,0,0,8,8,14.8,14.8,0,0,0,11.63,0,15.22,15.22,0,0,0,8-8,14.8,14.8,0,0,0,0-11.63A15.06,15.06,0,0,0,251.59,210.57Zm1.23,15.56a12.85,12.85,0,0,1-6.8,6.8,13,13,0,0,1-10,0,12.85,12.85,0,0,1-6.8-6.8,12.86,12.86,0,0,1,0-10,12.85,12.85,0,0,1,6.8-6.8,12.86,12.86,0,0,1,10,0,12.85,12.85,0,0,1,6.8,6.8,12.86,12.86,0,0,1,0,10Z" transform="translate(0 -19.89)"/><path class="cls-1" d="M245,221.64a4.71,4.71,0,0,0,1.39-.93,4,4,0,0,0,.94-1.43,5.42,5.42,0,0,0,.35-2.05,4.76,4.76,0,0,0-1.25-3.56c-.83-.82-2.23-1.23-4.19-1.23h-6.64v17.27h2.17v-7.57h3.1l5.16,7.57h2.45l-5.15-7.57A8.1,8.1,0,0,0,245,221.64Zm-4.45-1.43h-2.78v-5.84h3.87a7.45,7.45,0,0,1,1.39.14,4.31,4.31,0,0,1,1.25.46,2.71,2.71,0,0,1,.88.87,2.53,2.53,0,0,1,.34,1.39,2.77,2.77,0,0,1-.44,1.67,2.8,2.8,0,0,1-1.15.88,4.64,4.64,0,0,1-1.59.37Q241.43,220.21,240.54,220.21Z" transform="translate(0 -19.89)"/><path class="cls-1" d="M216.38,35.31a16.08,16.08,0,0,0-.2-2.4c-1.09-7.2-7.71-13.06-15.9-13-30.71.15-61.42.06-92.13.06H37.68c-7.43,0-14.85-.07-22.27,0A15.33,15.33,0,0,0,0,35.61Q0,128,0,220.44A16.44,16.44,0,0,0,.68,225c2,7,7.84,11.09,15.53,11.1H200.07c.54,0,1.08,0,1.62,0a15.4,15.4,0,0,0,14.69-15.34Q216.4,128,216.38,35.31Zm-152,117.2v49.37c0,2.68,0,2.69-2.71,2.7-9.17,0-18.35,0-27.52,0-1.75,0-2.47-.4-2.47-2.36q.09-49.58,0-99.15c0-1.89.57-2.39,2.4-2.37q14,.12,27.93,0c1.89,0,2.4.58,2.4,2.41C64.34,119.59,64.36,136.05,64.36,152.51ZM48.06,86.89A18.78,18.78,0,1,1,66.82,68.2,18.61,18.61,0,0,1,48.06,86.89ZM182.22,204.62q-13.77-.13-27.53,0c-2.11,0-2.62-.74-2.62-2.72.06-17,.13-34,0-51a60.26,60.26,0,0,0-1.4-13c-1.67-7.24-6.56-10.86-14-10.94a28.41,28.41,0,0,0-7.2.65c-7.49,1.86-10.68,7.53-11.92,14.52a59.56,59.56,0,0,0-.83,10.25q-.14,24.8,0,49.59c0,2.05-.57,2.67-2.61,2.65q-13.77-.13-27.53,0c-2.09,0-2.61-.68-2.61-2.69q.09-49.29,0-98.57c0-2,.48-2.68,2.59-2.65q13.26.17,26.52,0c1.93,0,2.43.64,2.37,2.45-.11,3.69,0,7.4,0,11.71,5.06-7.93,11.53-13.16,20-15.38A45,45,0,0,1,165.82,102c9.83,4.4,14.44,12.93,16.8,22.93a95.59,95.59,0,0,1,2.09,22.26q-.08,27.43,0,54.86C184.73,204,184.18,204.63,182.22,204.62Z" transform="translate(0 -19.89)"/></svg>