<svg height="3290" viewBox="0 0 7750 3290" width="7750" xmlns="http://www.w3.org/2000/svg"><path d="m5825 2205h1920v1080h-1920z" fill="#fff"/><path d="m5 5h1920v1080h-1920z" fill="#ed1c24"/><path d="m602.2 606.3h-34.5v-132.6h34.5z" fill="#fff200" transform="translate(5 5)"/><path d="m685 473.7h34.4l63.1 81.1h.4v-81.1h34.4v132.6h-34.4l-63.1-81.2h-.4v81.2h-34.4z" fill="#ed1c24" transform="translate(5 5)"/><path d="m874.3 502.9v22.2h38.9v29.1h-38.9v22.9h41v29.2h-75.5v-132.6h75.5v29.2z" fill="#ed1c24" transform="translate(5 5)"/><path d="m971 502.9v22.2h38.8v29.1h-38.8v22.9h41v29.2h-75.5v-132.6h75.5v29.2z" fill="#ed1c24" transform="translate(5 5)"/><path d="m1033.2 473.7h48.9c36.9 0 67.3 29 67.3 66.3s-30.6 66.3-67.3 66.3h-48.9zm34.5 103.4h7.7c20.6 0 38.2-11.3 38.2-37.1 0-23.7-15.7-37.1-37.8-37.1h-8.1z" fill="#ed1c24" transform="translate(5 5)"/><path d="m1259.5 583.2-9.2 23.1h-36.5l51-132.6h37.6l49.9 132.6h-36.7l-8.6-23.1zm24.1-68.5h-.4l-14.2 42.2h28.6z" fill="#ed1c24" transform="translate(5 5)"/><path d="m1945 5h1920v1080h-1920z" fill="#ed1c24"/><path d="m2072.9 76.9h1664.3v936.15h-1664.3z" fill="#fff200"/><path d="m2542.2 606.3h-34.5v-132.6h34.5z" fill="#fff" transform="translate(5 5)"/><path d="m2625 473.7h34.4l63.1 81.1h.4v-81.1h34.4v132.6h-34.4l-63.1-81.2h-.4v81.2h-34.4z" fill="#fff" transform="translate(5 5)"/><path d="m2814.3 502.9v22.2h38.9v29.1h-38.9v22.9h41v29.2h-75.5v-132.6h75.5v29.2z" fill="#fff" transform="translate(5 5)"/><path d="m2911 502.9v22.2h38.8v29.1h-38.8v22.9h41v29.2h-75.5v-132.6h75.5v29.2z" fill="#fff" transform="translate(5 5)"/><path d="m2973.2 473.7h48.9c36.9 0 67.3 29 67.3 66.3s-30.6 66.3-67.3 66.3h-48.9zm34.5 103.4h7.7c20.6 0 38.2-11.3 38.2-37.1 0-23.7-15.7-37.1-37.8-37.1h-8.1z" fill="#fff" transform="translate(5 5)"/><path d="m3199.5 583.2-9.2 23.1h-36.5l51-132.6h37.6l49.9 132.6h-36.7l-8.6-23.1zm24.1-68.5h-.4l-14.2 42.2h28.6z" fill="#fff200" transform="translate(5 5)"/><path d="m3885 5h1920v1080h-1920z" fill="#ed1c24"/><path d="m4012.9 76.9h1664.3v936.15h-1664.3z" fill="#fff200"/><path d="m4142.9 150.1h1404.1v789.82h-1404.1z" fill="#fff"/><path d="m4482.2 606.3h-34.5v-132.6h34.5z" fill="#ed1c24" transform="translate(5 5)"/><path d="m4565 473.7h34.4l63.1 81.1h.4v-81.1h34.4v132.6h-34.4l-63.1-81.2h-.4v81.2h-34.4z" fill="#ed1c24" transform="translate(5 5)"/><path d="m4754.3 502.9v22.2h38.9v29.1h-38.9v22.9h41v29.2h-75.5v-132.6h75.5v29.2z" fill="#ed1c24" transform="translate(5 5)"/><path d="m4851 502.9v22.2h38.8v29.1h-38.8v22.9h41v29.2h-75.5v-132.6h75.5v29.2z" fill="#ed1c24" transform="translate(5 5)"/><path d="m4913.2 473.7h48.9c36.9 0 67.3 29 67.3 66.3s-30.6 66.3-67.3 66.3h-48.9zm34.5 103.4h7.7c20.6 0 38.2-11.3 38.2-37.1 0-23.7-15.7-37.1-37.8-37.1h-8.1z" fill="#ed1c24" transform="translate(5 5)"/><path d="m5139.5 583.2-9.2 23.1h-36.5l51-132.6h37.6l49.9 132.6h-36.7l-8.6-23.1zm24.1-68.5h-.4l-14.2 42.2h28.6z" fill="#ed1c24" transform="translate(5 5)"/><path d="m5825 5h1920v1080h-1920z" fill="#fff"/><path d="m5952.9 76.9h1664.3v936.15h-1664.3z" fill="#00aeef"/><path d="m6643.1 507.8c-6.3-5.2-14.4-8.8-22.8-8.8-6.4 0-14.8 3.7-14.8 11.1s9.3 10.7 15.3 12.7l8.8 2.6c18.4 5.5 32.7 14.8 32.7 36.2 0 13.2-3.2 26.7-13.7 35.7s-24.3 12.5-37.7 12.5a81.4 81.4 0 0 1 -46.5-15.1l14.7-27.8c8.6 7.6 18.8 13.7 30.6 13.7 8.1 0 16.7-4 16.7-13.3s-13.5-13.1-20.9-15.2c-21.6-6.1-35.9-11.7-35.9-37.4s19.2-44.5 45.7-44.5c13.4 0 29.8 4.2 41.5 10.9z" fill="#ed1c24" transform="translate(5 5)"/><path d="m6731.4 606.3h-34.5v-103.4h-28.5v-29.2h91.5v29.2h-28.5z" fill="#ed1c24" transform="translate(5 5)"/><path d="m6795.6 583.2-9.2 23.1h-36.5l50.9-132.6h37.7l49.9 132.6h-36.7l-8.7-23.1zm24.1-68.5h-.4l-14.2 42.2h28.6z" fill="#ed1c24" transform="translate(5 5)"/><path d="m6863.5 473.7h41.3l24.8 36.1 24.7-36.1h41.4l-48.9 68.9v63.7h-34.5v-63.7z" fill="#ed1c24" transform="translate(5 5)"/><path d="m5 1105h1920v1080h-1920z" fill="#fff"/><path d="m132.9 1176.9h1664.3v936.15h-1664.3z" fill="#00aeef"/><path d="m262.9 1250.1h1404.1v789.82h-1404.1z" fill="#fff"/><path d="m956.5 1572v74.5c0 17.1-.7 33.9-13.9 46.8-11.1 10.9-28.5 14.7-44 14.7s-32.8-3.8-43.9-14.7c-13.2-12.9-13.9-29.7-13.9-46.8v-74.5h34.5v69.8c0 17.2 1.2 36 23.3 36s23.4-18.8 23.4-36v-69.8z" fill="#ed1c24" transform="translate(5 5)"/><path d="m978.3 1572h52.7c28.5 0 48.2 13.1 48.2 43.6s-16.9 45-46.9 45h-19.6v43.9h-34.4zm34.4 60.8h5.8c12.5 0 24.8 0 24.8-16.2s-11.4-16.9-24.8-16.9h-5.8z" fill="#ed1c24" transform="translate(5 5)"/><path d="m1945 1105h1920v1080h-1920z" fill="#fff"/><path d="m2072.9 1176.9h1664.3v936.15h-1664.3z" fill="#00aeef"/><path d="m2202.9 1250.1h1404.1v789.82h-1404.1z" fill="#fff"/><path d="m2325 1318.8h1159.9v652.45h-1159.9z" fill="#00aeef"/><path d="m2481.8 1706.3v-132.6h49.3c23.5 0 39.4 9.2 39.4 34.5 0 11.9-3.9 21.6-14.6 27.1v.3c19 2.5 27 15.3 27 33.8 0 27.7-23.7 36.9-48 36.9zm34.5-80.5h3.9c9.1 0 18.6-1.6 18.6-12.9s-10.7-12.8-20-12.8h-2.5zm0 54.1h4.4c10.2 0 27.4.5 27.4-14.1s-17-14.4-28.3-14.4h-3.5z" fill="#ed1c24" transform="translate(5 5)"/><path d="m2711.1 1706.3h-42.9l-32.5-51h-.4v51h-34.4v-132.6h51.5c26.2 0 46 12.5 46 40.8 0 18.3-10.2 34.1-29 37.5zm-75.8-73.2h3.4c11.2 0 23.9-2.1 23.9-16.5s-12.7-16.5-23.9-16.5h-3.4z" fill="#ed1c24" transform="translate(5 5)"/><path d="m2860.4 1637.5c0 42.9-30.8 73.2-73.4 73.2s-73.3-30.3-73.3-73.2c0-40 35.2-68.2 73.3-68.2s73.4 28.2 73.4 68.2zm-110.8.2c0 22.9 16.9 39.6 37.4 39.6s37.5-16.7 37.5-39.6c0-18.3-16.9-35-37.5-35s-37.4 16.7-37.4 35z" fill="#ed1c24" transform="translate(5 5)"/><path d="m2929.1 1706.3h-34.5v-103.4h-28.4v-29.2h91.4v29.2h-28.5z" fill="#ed1c24" transform="translate(5 5)"/><path d="m3054.3 1624.9v-51.2h34.4v132.6h-34.4v-54.3h-49.8v54.3h-34.4v-132.6h34.4v51.2z" fill="#ed1c24" transform="translate(5 5)"/><path d="m3145.7 1602.9v22.2h38.8v29.1h-38.8v22.9h40.9v29.2h-75.4v-132.6h75.4v29.2z" fill="#00aeef" transform="translate(5 5)"/><path d="m3318.2 1706.3h-42.9l-32.6-51h-.3v51h-34.5v-132.6h51.5c26.2 0 46.1 12.5 46.1 40.8 0 18.3-10.2 34.1-29 37.5zm-75.8-73.2h3.3c11.3 0 23.9-2.1 23.9-16.5s-12.6-16.5-23.9-16.5h-3.3z" fill="#00aeef" transform="translate(5 5)"/><path d="m3885 1105h1920v1080h-1920z" fill="#fff"/><path d="m4012.9 1176.9h1664.3v936.15h-1664.3z" fill="#00aeef"/><path d="m4142.9 1250.1h1404.1v789.82h-1404.1z" fill="#fff"/><path d="m4265 1318.8h1159.9v652.45h-1159.9z" fill="#00aeef"/><path d="m4421.8 1706.3v-132.6h49.3c23.5 0 39.4 9.2 39.4 34.5 0 11.9-3.9 21.6-14.6 27.1v.3c19 2.5 27 15.3 27 33.8 0 27.7-23.7 36.9-48 36.9zm34.5-80.5h3.9c9.1 0 18.6-1.6 18.6-12.9s-10.7-12.8-20-12.8h-2.5zm0 54.1h4.4c10.2 0 27.4.5 27.4-14.1s-17-14.4-28.3-14.4h-3.5z" fill="#ed1c24" transform="translate(5 5)"/><path d="m4651.1 1706.3h-42.9l-32.5-51h-.4v51h-34.4v-132.6h51.5c26.2 0 46 12.5 46 40.8 0 18.3-10.2 34.1-29 37.5zm-75.8-73.2h3.4c11.2 0 23.9-2.1 23.9-16.5s-12.7-16.5-23.9-16.5h-3.4z" fill="#ed1c24" transform="translate(5 5)"/><path d="m4800.4 1637.5c0 42.9-30.8 73.2-73.4 73.2s-73.3-30.3-73.3-73.2c0-40 35.2-68.2 73.3-68.2s73.4 28.2 73.4 68.2zm-110.8.2c0 22.9 16.9 39.6 37.4 39.6s37.5-16.7 37.5-39.6c0-18.3-16.9-35-37.5-35s-37.4 16.7-37.4 35z" fill="#ed1c24" transform="translate(5 5)"/><path d="m4869.1 1706.3h-34.5v-103.4h-28.4v-29.2h91.4v29.2h-28.5z" fill="#ed1c24" transform="translate(5 5)"/><path d="m4994.3 1624.9v-51.2h34.4v132.6h-34.4v-54.3h-49.8v54.3h-34.4v-132.6h34.4v51.2z" fill="#ed1c24" transform="translate(5 5)"/><path d="m5085.7 1602.9v22.2h38.8v29.1h-38.8v22.9h40.9v29.2h-75.4v-132.6h75.4v29.2z" fill="#ed1c24" transform="translate(5 5)"/><path d="m5258.2 1706.3h-42.9l-32.6-51h-.3v51h-34.5v-132.6h51.5c26.2 0 46.1 12.5 46.1 40.8 0 18.3-10.2 34.1-29 37.5zm-75.8-73.2h3.3c11.3 0 23.9-2.1 23.9-16.5s-12.6-16.5-23.9-16.5h-3.3z" fill="#ed1c24" transform="translate(5 5)"/><path d="m5825 1105h1920v1080h-1920z" fill="#fff"/><path d="m5952.9 1176.9h1664.3v936.15h-1664.3z" fill="#00aeef"/><path d="m6494.4 1659.3h.4l27.7-85.6h27.5l26 85.6h.3l25-85.6h35.9l-42.4 132.6h-35.2l-23.2-76.8h-.3l-26 76.8h-35l-39.6-132.6h35.9z" fill="#ed1c24" transform="translate(5 5)"/><path d="m6680.2 1706.3h-34.4v-132.6h34.4z" fill="#ed1c24" transform="translate(5 5)"/><path d="m6755.5 1706.3h-34.5v-103.4h-28.5v-29.2h91.5v29.2h-28.5z" fill="#ed1c24" transform="translate(5 5)"/><path d="m6880.6 1624.9v-51.2h34.5v132.6h-34.5v-54.3h-49.7v54.3h-34.5v-132.6h34.5v51.2z" fill="#ed1c24" transform="translate(5 5)"/><path d="m7031.7 1683.2-9.2 23.1h-36.5l50.9-132.6h37.7l49.9 132.6h-36.8l-8.6-23.1zm24-68.5h-.3l-14.2 42.2h28.6z" fill="#00aeef" transform="translate(5 5)"/><path d="m5 2205h1920v1080h-1920z" fill="#fff"/><path d="m132.9 2276.9h1664.3v936.15h-1664.3z" fill="#00aeef"/><path d="m674.4 2759.3h.4l27.7-85.6h27.5l26 85.6h.3l25-85.6h35.9l-42.4 132.6h-35.2l-23.2-76.8h-.3l-26 76.8h-35l-39.6-132.6h35.9z" fill="#ed1c24" transform="translate(5 5)"/><path d="m860.2 2806.3h-34.4v-132.6h34.4z" fill="#ed1c24" transform="translate(5 5)"/><path d="m935.5 2806.3h-34.5v-103.4h-28.5v-29.2h91.5v29.2h-28.5z" fill="#ed1c24" transform="translate(5 5)"/><path d="m1060.6 2724.9v-51.2h34.5v132.6h-34.5v-54.3h-49.7v54.3h-34.5v-132.6h34.5v51.2z" fill="#ed1c24" transform="translate(5 5)"/><path d="m1211.7 2783.2-9.2 23.1h-36.6l51-132.6h37.7l49.9 132.6h-36.8l-8.6-23.1zm24-68.5h-.3l-14.2 42.2h28.6z" fill="#ed1c24" transform="translate(5 5)"/><path d="m1945 2205h1920v1080h-1920z" fill="#fff"/><path d="m2072.9 2276.9h1664.3v936.15h-1664.3z" fill="#00aeef"/><path d="m2202.9 2350.1h1404.1v789.82h-1404.1z" fill="#fff"/><path d="m3885 2205h1920v1080h-1920z" fill="#fff"/><path d="m4012.9 2276.9h1664.3v936.15h-1664.3z" fill="#00aeef"/><path d="m4142.9 2350.1h1404.1v789.82h-1404.1z" fill="#fff"/><g transform="translate(5 5)"><path d="m2278.8 2673.7v89.5c0 28-14.6 46.6-44 46.6-14.7 0-26.1-7.4-34.1-19.5l19.9-20.9c3.9 5.2 9.3 11.2 13.9 11.2 10.2 0 9.8-12.1 9.8-19.5v-87.4z" fill="#ec2027"/><path d="m2334.4 2783.2-9.2 23.1h-36.6l51-132.6h37.7l49.9 132.6h-36.8l-8.6-23.1zm24-68.5h-.3l-14.3 42.2h28.7z" fill="#ec2027"/><path d="m2452.5 2673.7h33.9l26.9 70.9 28.5-70.9h34.3l20 132.6h-34.4l-9.7-76.3h-.4l-31.8 76.3h-13.7l-30.4-76.3h-.4l-11 76.3h-34.3z" fill="#ec2027"/><path d="m2645.2 2702.9v22.2h38.8v29.1h-38.8v22.9h40.9v29.2h-75.4v-132.6h75.4v29.2z" fill="#ec2027"/><path d="m2780.2 2707.8c-6.3-5.2-14.4-8.8-22.9-8.8-6.3 0-14.7 3.7-14.7 11.1s9.3 10.7 15.3 12.7l8.8 2.6c18.4 5.5 32.7 14.8 32.7 36.2 0 13.2-3.2 26.7-13.8 35.7s-24.2 12.5-37.6 12.5a81.9 81.9 0 0 1 -46.6-15.1l14.8-27.8c8.6 7.6 18.8 13.7 30.6 13.7 8.1 0 16.7-4 16.7-13.3s-13.5-13.1-20.9-15.2c-21.7-6.1-35.9-11.7-35.9-37.4s19.2-44.5 45.7-44.5a90.4 90.4 0 0 1 41.5 10.9z" fill="#ec2027"/><path d="m2876 2806.3v-132.6h49.2c23.6 0 39.4 9.2 39.4 34.5 0 11.9-3.9 21.6-14.6 27.1v.3c19 2.5 27.1 15.3 27.1 33.8 0 27.7-23.7 36.9-48 36.9zm34.5-80.5h3.8c9.2 0 18.7-1.6 18.7-12.9s-10.8-12.8-20.1-12.8h-2.4zm0 54.1h4.4c10.2 0 27.4.5 27.4-14.1s-17.1-14.4-28.3-14.4h-3.5z" fill="#fff"/><path d="m3105.3 2806.3h-42.9l-32.6-51h-.3v51h-34.5v-132.6h51.5c26.2 0 46.1 12.5 46.1 40.8 0 18.3-10.2 34.1-29 37.5zm-75.8-73.2h3.3c11.3 0 23.9-2.1 23.9-16.5s-12.6-16.5-23.9-16.5h-3.3z" fill="#fff"/><path d="m3254.5 2737.5c0 42.9-30.8 73.2-73.3 73.2s-73.3-30.3-73.3-73.2c0-40 35.1-68.2 73.3-68.2s73.3 28.2 73.3 68.2zm-110.8.2c0 22.9 16.9 39.6 37.5 39.6s37.4-16.7 37.4-39.6c0-18.3-16.8-35-37.4-35s-37.5 16.7-37.5 35z" fill="#fff"/><path d="m3315.5 2759.3h.4l27.7-85.6h27.5l26 85.6h.3l25-85.6h35.9l-42.4 132.6h-35.2l-23.2-76.8h-.3l-26 76.8h-35l-39.6-132.6h35.9z" fill="#fff"/><path d="m3466.9 2673.7h34.4l63.2 81.1h.3v-81.1h34.5v132.6h-34.5l-63.1-81.2h-.4v81.2h-34.4z" fill="#fff"/><path d="m4218.8 2673.7v89.5c0 28-14.6 46.6-44 46.6-14.7 0-26.1-7.4-34.1-19.5l19.9-20.9c3.9 5.2 9.3 11.2 13.9 11.2 10.2 0 9.8-12.1 9.8-19.5v-87.4z" fill="#ed1c24"/><path d="m4274.4 2783.2-9.2 23.1h-36.6l51-132.6h37.7l49.9 132.6h-36.8l-8.6-23.1zm24-68.5h-.3l-14.3 42.2h28.7z" fill="#ed1c24"/><path d="m4392.5 2673.7h33.9l26.9 70.9 28.5-70.9h34.3l20 132.6h-34.4l-9.7-76.3h-.4l-31.8 76.3h-13.7l-30.4-76.3h-.4l-11 76.3h-34.3z" fill="#ed1c24"/><path d="m4585.2 2702.9v22.2h38.8v29.1h-38.8v22.9h40.9v29.2h-75.4v-132.6h75.4v29.2z" fill="#ed1c24"/><path d="m4720.2 2707.8c-6.3-5.2-14.4-8.8-22.9-8.8-6.3 0-14.7 3.7-14.7 11.1s9.3 10.7 15.3 12.7l8.8 2.6c18.4 5.5 32.7 14.8 32.7 36.2 0 13.2-3.2 26.7-13.8 35.7s-24.2 12.5-37.6 12.5a81.9 81.9 0 0 1 -46.6-15.1l14.8-27.8c8.6 7.6 18.8 13.7 30.6 13.7 8.1 0 16.7-4 16.7-13.3s-13.5-13.1-20.9-15.2c-21.7-6.1-35.9-11.7-35.9-37.4s19.2-44.5 45.7-44.5a90.4 90.4 0 0 1 41.5 10.9z" fill="#ed1c24"/><path d="m4816 2806.3v-132.6h49.2c23.6 0 39.4 9.2 39.4 34.5 0 11.9-3.9 21.6-14.6 27.1v.3c19 2.5 27.1 15.3 27.1 33.8 0 27.7-23.7 36.9-48 36.9zm34.5-80.5h3.8c9.2 0 18.7-1.6 18.7-12.9s-10.8-12.8-20.1-12.8h-2.4zm0 54.1h4.4c10.2 0 27.4.5 27.4-14.1s-17.1-14.4-28.3-14.4h-3.5z" fill="#ed1c24"/><path d="m5045.3 2806.3h-42.9l-32.6-51h-.3v51h-34.5v-132.6h51.5c26.2 0 46.1 12.5 46.1 40.8 0 18.3-10.2 34.1-29 37.5zm-75.8-73.2h3.3c11.3 0 23.9-2.1 23.9-16.5s-12.6-16.5-23.9-16.5h-3.3z" fill="#ed1c24"/><path d="m5194.5 2737.5c0 42.9-30.8 73.2-73.3 73.2s-73.3-30.3-73.3-73.2c0-40 35.1-68.2 73.3-68.2s73.3 28.2 73.3 68.2zm-110.8.2c0 22.9 16.9 39.6 37.5 39.6s37.4-16.7 37.4-39.6c0-18.3-16.8-35-37.4-35s-37.5 16.7-37.5 35z" fill="#ed1c24"/><path d="m5255.5 2759.3h.4l27.7-85.6h27.5l26 85.6h.3l25-85.6h35.9l-42.4 132.6h-35.2l-23.2-76.8h-.3l-26 76.8h-35l-39.6-132.6h35.9z" fill="#ed1c24"/><path d="m5406.9 2673.7h34.4l63.2 81.1h.3v-81.1h34.5v132.6h-34.5l-63.1-81.2h-.4v81.2h-34.4z" fill="#ed1c24"/><path d="m6621.3 2492.5c-6.3-5.3-14.4-8.8-22.8-8.8-6.3 0-14.8 3.7-14.8 11s9.3 10.8 15.3 12.7l8.8 2.6c18.5 5.5 32.7 14.8 32.7 36.3 0 13.1-3.2 26.7-13.7 35.7s-24.3 12.4-37.6 12.4a81.7 81.7 0 0 1 -46.6-15.1l14.7-27.8c8.7 7.6 18.9 13.8 30.6 13.8 8.1 0 16.7-4.1 16.7-13.4s-13.5-13-20.9-15.1c-21.6-6.2-35.9-11.8-35.9-37.5s19.2-44.5 45.8-44.5c13.3 0 29.7 4.3 41.5 10.9z" fill="#ed1c24" opacity=".5"/><path d="m6796.8 2522.2c0 42.9-30.8 73.1-73.3 73.1s-73.3-30.2-73.3-73.1c0-40.1 35.1-68.2 73.3-68.2s73.3 28.1 73.3 68.2zm-110.8.2c0 22.8 16.9 39.5 37.5 39.5s37.4-16.7 37.4-39.5c0-18.3-16.8-35-37.4-35s-37.5 16.7-37.5 35z" fill="#ed1c24" opacity=".5"/><path d="m6927.8 2458.4v74.5c0 17.1-.7 33.9-13.9 46.8-11.1 10.9-28.5 14.7-44 14.7s-32.9-3.8-43.9-14.7c-13.2-12.9-13.9-29.7-13.9-46.8v-74.5h34.4v69.8c0 17.2 1.3 36 23.4 36s23.4-18.8 23.4-36v-69.8z" fill="#ed1c24" opacity=".5"/><path d="m6984 2561.7h41.3v29.2h-75.7v-132.5h34.4z" fill="#ed1c24" opacity=".5"/><path d="m6153.2 2669.3v89.5c0 28-14.6 46.6-44 46.6-14.7 0-26.2-7.4-34.1-19.5l19.9-20.9c3.8 5.2 9.3 11.2 13.9 11.2 10.2 0 9.8-12.1 9.8-19.5v-87.4z" fill="#ed1c24"/><path d="m6208.7 2778.9-9.1 23h-36.6l51-132.6h37.6l50 132.6h-36.8l-8.6-23zm24.1-68.6h-.3l-14.3 42.2h28.7z" fill="#ed1c24"/><path d="m6326.9 2669.3h33.9l26.9 70.9 28.5-70.9h34.3l20 132.6h-34.5l-9.6-76.3h-.4l-31.8 76.3h-13.7l-30.4-76.3h-.4l-11.1 76.3h-34.2z" fill="#ed1c24"/><path d="m6519.5 2698.5v22.2h38.9v29.1h-38.9v22.9h41v29.2h-75.4v-132.6h75.4v29.2z" fill="#ed1c24"/><path d="m6654.6 2703.4c-6.4-5.2-14.4-8.8-22.9-8.8-6.3 0-14.8 3.7-14.8 11.1s9.4 10.7 15.3 12.7l8.8 2.6c18.5 5.5 32.7 14.8 32.7 36.2 0 13.2-3.1 26.8-13.7 35.7s-24.2 12.5-37.6 12.5a81.7 81.7 0 0 1 -46.6-15.1l14.8-27.8c8.6 7.6 18.8 13.7 30.6 13.7 8.1 0 16.7-4 16.7-13.3s-13.6-13.1-21-15.2c-21.6-6.1-35.8-11.7-35.8-37.4s19.1-44.5 45.7-44.5a90.4 90.4 0 0 1 41.5 10.9z" fill="#ed1c24"/><path d="m6750.4 2801.9v-132.6h49.2c23.6 0 39.4 9.2 39.4 34.5 0 11.9-3.9 21.6-14.6 27.1v.3c19 2.5 27.1 15.3 27.1 33.8 0 27.7-23.8 36.9-48 36.9zm34.4-80.5h3.9c9.1 0 18.6-1.6 18.6-12.9s-10.7-12.8-20-12.8h-2.5zm0 54.1h4.4c10.2 0 27.5.5 27.5-14.1s-17.1-14.4-28.3-14.4h-3.6z" fill="#ed1c24"/><path d="m6979.6 2801.9h-42.9l-32.5-51h-.3v51h-34.5v-132.6h51.5c26.2 0 46.1 12.5 46.1 40.8 0 18.3-10.2 34.1-29 37.5zm-75.7-73.2h3.3c11.2 0 23.9-2.1 23.9-16.5s-12.7-16.5-23.9-16.5h-3.3z" fill="#ed1c24"/><path d="m7128.9 2733.1c0 42.9-30.8 73.2-73.3 73.2s-73.3-30.3-73.3-73.2c0-40 35.1-68.2 73.3-68.2s73.3 28.2 73.3 68.2zm-110.8.2c0 22.9 16.9 39.6 37.5 39.6s37.4-16.7 37.4-39.6c0-18.3-16.9-35-37.4-35s-37.5 16.7-37.5 35z" fill="#ed1c24"/><path d="m7189.9 2754.9h.3l27.8-85.6h27.4l26.1 85.6h.3l25-85.6h35.8l-42.3 132.6h-35.2l-23.2-76.8h-.3l-26.1 76.8h-35l-39.5-132.6h35.9z" fill="#ed1c24"/><path d="m7341.3 2669.3h34.4l63.1 81.1h.4v-81.1h34.4v132.6h-34.4l-63.1-81.2h-.4v81.2h-34.4z" fill="#ed1c24"/></g><path d="m5 5h1920v1080h-1920z" fill="none" stroke="#000" stroke-miterlimit="10" stroke-width="10"/><path d="m1945 5h1920v1080h-1920z" fill="none" stroke="#000" stroke-miterlimit="10" stroke-width="10"/><path d="m3885 5h1920v1080h-1920z" fill="none" stroke="#000" stroke-miterlimit="10" stroke-width="10"/><path d="m5825 5h1920v1080h-1920z" fill="none" stroke="#000" stroke-miterlimit="10" stroke-width="10"/><path d="m5 1105h1920v1080h-1920z" fill="none" stroke="#000" stroke-miterlimit="10" stroke-width="10"/><path d="m1945 1105h1920v1080h-1920z" fill="none" stroke="#000" stroke-miterlimit="10" stroke-width="10"/><path d="m3885 1105h1920v1080h-1920z" fill="none" stroke="#000" stroke-miterlimit="10" stroke-width="10"/><path d="m5825 1105h1920v1080h-1920z" fill="none" stroke="#000" stroke-miterlimit="10" stroke-width="10"/><path d="m5 2205h1920v1080h-1920z" fill="none" stroke="#000" stroke-miterlimit="10" stroke-width="10"/><path d="m1945 2205h1920v1080h-1920z" fill="none" stroke="#000" stroke-miterlimit="10" stroke-width="10"/><path d="m3885 2205h1920v1080h-1920z" fill="none" stroke="#000" stroke-miterlimit="10" stroke-width="10"/><path d="m5825 2205h1920v1080h-1920z" fill="none" stroke="#000" stroke-miterlimit="10" stroke-width="10"/></svg>