<svg height="3290" viewBox="0 0 7750 3290" width="7750" xmlns="http://www.w3.org/2000/svg"><path d="m5825 2205h1920v1080h-1920z" fill="#fff" stroke="#000" stroke-miterlimit="10" stroke-width="10"/><path d="m5 5h1920v1080h-1920z" fill="#fff" stroke="#000" stroke-miterlimit="10" stroke-width="10"/><path d="m1945 5h1920v1080h-1920z" fill="#fff" stroke="#000" stroke-miterlimit="10" stroke-width="10"/><path d="m3885 5h1920v1080h-1920z" fill="#fff" stroke="#000" stroke-miterlimit="10" stroke-width="10"/><path d="m5825 5h1920v1080h-1920z" fill="#fff" stroke="#000" stroke-miterlimit="10" stroke-width="10"/><path d="m5 1105h1920v1080h-1920z" fill="#fff" stroke="#000" stroke-miterlimit="10" stroke-width="10"/><path d="m1945 1105h1920v1080h-1920z" fill="#fff" stroke="#000" stroke-miterlimit="10" stroke-width="10"/><path d="m3885 1105h1920v1080h-1920z" fill="#fff" stroke="#000" stroke-miterlimit="10" stroke-width="10"/><path d="m5825 1105h1920v1080h-1920z" fill="#fff" stroke="#000" stroke-miterlimit="10" stroke-width="10"/><path d="m5 2205h1920v1080h-1920z" fill="#fff" stroke="#000" stroke-miterlimit="10" stroke-width="10"/><path d="m1945 2205h1920v1080h-1920z" fill="#fff" stroke="#000" stroke-miterlimit="10" stroke-width="10"/><path d="m3885 2205h1920v1080h-1920z" fill="#fff" stroke="#000" stroke-miterlimit="10" stroke-width="10"/><g transform="translate(5 5)"><path d="m669 480.7v118.5h-15.2v-118.5z"/><path d="m733 599.2v-118.5h16.7l38 59.9a334 334 0 0 1 21.3 38.5l.3-.2c-1.4-15.8-1.7-30.2-1.7-48.7v-49.5h14.4v118.5h-15.5l-37.6-60.2c-8.3-13.2-16.2-26.7-22.1-39.5l-.6.2c.9 14.9 1.3 29.1 1.3 48.8v50.7z" fill="#fff"/><path d="m910.1 543.6h-46.1v42.7h51.4v12.9h-66.7v-118.5h64v12.8h-48.7v37.4h46.1z" fill="#fff"/><path d="m996.6 543.6h-46.1v42.7h51.4v12.9h-66.7v-118.5h64v12.8h-48.7v37.4h46.1z" fill="#fff"/><path d="m1021.7 482.2a220.4 220.4 0 0 1 32.5-2.4c22 0 37.7 5.1 48 14.8s16.7 23.3 16.7 42.5-5.9 35.2-17 46.1-29.4 17-52.4 17a243.4 243.4 0 0 1 -27.8-1.4zm15.3 104.8a97.1 97.1 0 0 0 15.5.9c32.7 0 50.4-18.3 50.4-50.3.2-27.9-15.6-45.7-48-45.7a85.3 85.3 0 0 0 -17.9 1.6z" fill="#fff"/><path d="m1195.2 561.9-12.3 37.3h-15.8l40.3-118.5h18.4l40.5 118.5h-16.4l-12.6-37.3zm38.9-12-11.6-34.1c-2.7-7.7-4.4-14.7-6.2-21.6h-.3c-1.8 7-3.7 14.2-6 21.4l-11.6 34.3z" fill="#fff"/><path d="m2609 480.7v118.5h-15.2v-118.5z"/><path d="m2673 599.2v-118.5h16.7l38 59.9a334 334 0 0 1 21.3 38.5l.3-.2c-1.4-15.8-1.7-30.2-1.7-48.7v-49.5h14.4v118.5h-15.5l-37.6-60.2c-8.3-13.2-16.2-26.7-22.1-39.5l-.6.2c.9 14.9 1.3 29.1 1.3 48.8v50.7z"/><path d="m2850.1 543.6h-46.1v42.7h51.4v12.9h-66.7v-118.5h64v12.8h-48.7v37.4h46.1z"/><path d="m2936.6 543.6h-46.1v42.7h51.4v12.9h-66.7v-118.5h64v12.8h-48.7v37.4h46.1z"/><path d="m2961.7 482.2a220.4 220.4 0 0 1 32.5-2.4c22 0 37.7 5.1 48 14.8s16.7 23.3 16.7 42.5-5.9 35.2-17 46.1-29.4 17-52.4 17a243.4 243.4 0 0 1 -27.8-1.4zm15.3 104.8a97.1 97.1 0 0 0 15.5.9c32.7 0 50.4-18.3 50.4-50.3.2-27.9-15.6-45.7-48-45.7a85.3 85.3 0 0 0 -17.9 1.6z"/><path d="m3135.2 561.9-12.3 37.3h-15.8l40.3-118.5h18.4l40.5 118.5h-16.4l-12.6-37.3zm38.9-12-11.6-34.1c-2.7-7.7-4.4-14.7-6.2-21.6h-.3c-1.8 7-3.7 14.2-6 21.4l-11.6 34.3z" fill="#fff"/><path d="m4549 480.7v118.5h-15.2v-118.5z"/><path d="m4613 599.2v-118.5h16.7l38 59.9a334 334 0 0 1 21.3 38.5l.3-.2c-1.4-15.8-1.7-30.2-1.7-48.7v-49.5h14.4v118.5h-15.5l-37.6-60.2c-8.3-13.2-16.2-26.7-22.1-39.5l-.6.2c.9 14.9 1.3 29.1 1.3 48.8v50.7z"/><path d="m4790.1 543.6h-46.1v42.7h51.4v12.9h-66.7v-118.5h64v12.8h-48.7v37.4h46.1z"/><path d="m4876.6 543.6h-46.1v42.7h51.4v12.9h-66.7v-118.5h64v12.8h-48.7v37.4h46.1z"/><path d="m4901.7 482.2a220.4 220.4 0 0 1 32.5-2.4c22 0 37.7 5.1 48 14.8s16.7 23.3 16.7 42.5-5.9 35.2-17 46.1-29.4 17-52.4 17a243.4 243.4 0 0 1 -27.8-1.4zm15.3 104.8a97.1 97.1 0 0 0 15.5.9c32.7 0 50.4-18.3 50.4-50.3.2-27.9-15.6-45.7-48-45.7a85.3 85.3 0 0 0 -17.9 1.6z"/><path d="m5075.2 561.9-12.3 37.3h-15.8l40.3-118.5h18.4l40.5 118.5h-16.4l-12.6-37.3zm38.9-12-11.6-34.1c-2.7-7.7-4.4-14.7-6.2-21.6h-.3c-1.8 7-3.7 14.2-6 21.4l-11.6 34.3z"/><path d="m6612.8 580.7a54.6 54.6 0 0 0 27.4 7.7c15.7 0 24.8-8.2 24.8-20.2s-6.3-17.4-22.3-23.5c-19.3-6.9-31.3-16.9-31.3-33.6 0-18.5 15.3-32.2 38.3-32.2 12.2 0 21 2.8 26.2 5.8l-4.2 12.5a47.5 47.5 0 0 0 -22.5-5.6c-16.2 0-22.3 9.6-22.3 17.7 0 11.1 7.2 16.5 23.5 22.9 20.1 7.7 30.3 17.4 30.3 34.8s-13.6 34.1-41.5 34.1c-11.4 0-23.9-3.3-30.3-7.6z"/><path d="m6724.1 493.8h-36v-13h87.7v13h-36.2v105.5h-15.5z"/><path d="m6795 562.1-12.4 37.2h-15.8l40.3-118.5h18.4l40.5 118.5h-16.4l-12.6-37.2zm38.8-12-11.6-34.1c-2.6-7.7-4.4-14.8-6.2-21.6h-.3c-1.8 7-3.7 14.2-6 21.4l-11.6 34.3z"/><path d="m6895.9 599.3v-50.2l-37.5-68.3h17.4l16.7 32.7c4.6 9 8.1 16.2 11.8 24.5h.4c3.3-7.8 7.3-15.5 11.9-24.5l17.1-32.7h17.4l-39.8 68.1v50.4z"/><path d="m882 1580.2v70.2c0 26.5 11.8 37.8 27.6 37.8 17.6 0 28.9-11.6 28.9-37.8v-70.2h15.4v69.1c0 36.4-19.1 51.4-44.8 51.4s-42.5-13.9-42.5-50.7v-69.8z"/><path d="m980.5 1581.6a179.8 179.8 0 0 1 29.3-2.3c15.2 0 26.2 3.6 33.3 9.9s10.3 14.2 10.3 24.8-3.1 19.1-9.1 25.3c-8.1 8.6-21.3 13-36.2 13a57.2 57.2 0 0 1 -12.3-1v47.4h-15.3zm15.3 57.2a54.8 54.8 0 0 0 12.6 1.2c18.5 0 29.7-9 29.7-25.3s-11-23.2-27.9-23.2c-6.7 0-11.8.5-14.4 1.2z"/><path d="m2563.6 1582.3a149.1 149.1 0 0 1 27.9-2.4c15.3 0 25.2 2.6 32.6 8.6s9.8 11.6 9.8 20.9c0 11.4-7.5 21.5-20 26v.4c11.2 2.8 24.4 12.1 24.4 29.7a31.8 31.8 0 0 1 -10 23.7c-8.3 7.6-21.6 11.1-41 11.1a179.6 179.6 0 0 1 -23.7-1.4zm15.3 48.6h13.9c16.2 0 25.6-8.5 25.6-19.9 0-13.9-10.5-19.3-26-19.3a68.4 68.4 0 0 0 -13.5 1zm0 56.7c3 .6 7.4.7 12.8.7 15.8 0 30.4-5.8 30.4-23s-13.9-22.8-30.6-22.8h-12.6z"/><path d="m2658.9 1582.3a166.7 166.7 0 0 1 29.3-2.4c16.4 0 26.9 3 34.3 9.6s9.3 13.4 9.3 22.5c0 15.7-9.8 26.1-22.3 30.3v.5c9.2 3.2 14.6 11.6 17.4 23.9 3.9 16.5 6.7 28 9.2 32.5h-15.9c-1.9-3.3-4.5-13.5-7.9-28.3-3.5-16.3-9.8-22.5-23.7-23h-14.4v51.3h-15.3zm15.3 54h15.6c16.4 0 26.7-9 26.7-22.5 0-15.3-11-22-27.2-22.1-7.4 0-12.7.7-15.1 1.4z"/><path d="m2855.3 1638.8c0 40.8-24.8 62.4-55.1 62.4s-53.2-24.3-53.2-60.1c0-37.7 23.3-62.3 55-62.3s53.3 24.8 53.3 60zm-92 1.9c0 25.3 13.7 48 37.8 48s38-22.3 38-49.2c0-23.6-12.3-48.2-37.8-48.2s-38 23.4-38 49.4z"/><path d="m2893.2 1593.8h-36v-13h87.7v13h-36.2v105.4h-15.5z"/><path d="m2973.4 1580.8v49.5h57.3v-49.5h15.5v118.4h-15.5v-55.5h-57.3v55.5h-15.3v-118.4z"/><path d="m3134.1 1643.7h-46.1v42.7h51.4v12.8h-66.7v-118.4h64v12.8h-48.7v37.4h46.1z" fill="#fff"/><path d="m3159.2 1582.3a167.9 167.9 0 0 1 29.4-2.4c16.3 0 26.9 3 34.3 9.6s9.3 13.4 9.3 22.5c0 15.7-9.9 26.1-22.3 30.3v.5c9.1 3.2 14.6 11.6 17.4 23.9 3.8 16.5 6.6 28 9.1 32.5h-15.8c-1.9-3.3-4.6-13.5-7.9-28.3-3.5-16.3-9.9-22.5-23.8-23h-14.4v51.3h-15.3zm15.3 54h15.7c16.3 0 26.7-9 26.7-22.5 0-15.3-11.1-22-27.3-22.1-7.3 0-12.6.7-15.1 1.4z" fill="#fff"/><path d="m4503.6 1582.3a149.1 149.1 0 0 1 27.9-2.4c15.3 0 25.2 2.6 32.6 8.6s9.8 11.6 9.8 20.9c0 11.4-7.5 21.5-20 26v.4c11.2 2.8 24.4 12.1 24.4 29.7a31.8 31.8 0 0 1 -10 23.7c-8.3 7.6-21.6 11.1-41 11.1a179.6 179.6 0 0 1 -23.7-1.4zm15.3 48.6h13.9c16.2 0 25.6-8.5 25.6-19.9 0-13.9-10.5-19.3-26-19.3a68.4 68.4 0 0 0 -13.5 1zm0 56.7c3 .6 7.4.7 12.8.7 15.8 0 30.4-5.8 30.4-23s-13.9-22.8-30.6-22.8h-12.6z"/><path d="m4598.9 1582.3a166.7 166.7 0 0 1 29.3-2.4c16.4 0 26.9 3 34.3 9.6s9.3 13.4 9.3 22.5c0 15.7-9.8 26.1-22.3 30.3v.5c9.2 3.2 14.6 11.6 17.4 23.9 3.9 16.5 6.7 28 9.2 32.5h-15.9c-1.9-3.3-4.5-13.5-7.9-28.3-3.5-16.3-9.8-22.5-23.7-23h-14.4v51.3h-15.3zm15.3 54h15.6c16.4 0 26.7-9 26.7-22.5 0-15.3-11-22-27.2-22.1-7.4 0-12.7.7-15.1 1.4z"/><path d="m4795.3 1638.8c0 40.8-24.8 62.4-55.1 62.4s-53.2-24.3-53.2-60.1c0-37.7 23.3-62.3 55-62.3s53.3 24.8 53.3 60zm-92 1.9c0 25.3 13.7 48 37.8 48s38-22.3 38-49.2c0-23.6-12.3-48.2-37.8-48.2s-38 23.4-38 49.4z"/><path d="m4833.2 1593.8h-36v-13h87.7v13h-36.2v105.4h-15.5z"/><path d="m4913.4 1580.8v49.5h57.3v-49.5h15.5v118.4h-15.5v-55.5h-57.3v55.5h-15.3v-118.4z"/><path d="m5074.1 1643.7h-46.1v42.7h51.4v12.8h-66.7v-118.4h64v12.8h-48.7v37.4h46.1z"/><path d="m5099.2 1582.3a167.9 167.9 0 0 1 29.4-2.4c16.3 0 26.9 3 34.3 9.6s9.3 13.4 9.3 22.5c0 15.7-9.9 26.1-22.3 30.3v.5c9.1 3.2 14.6 11.6 17.4 23.9 3.8 16.5 6.6 28 9.1 32.5h-15.8c-1.9-3.3-4.6-13.5-7.9-28.3-3.5-16.3-9.9-22.5-23.8-23h-14.4v51.3h-15.3zm15.3 54h15.7c16.3 0 26.7-9 26.7-22.5 0-15.3-11.1-22-27.3-22.1-7.3 0-12.6.7-15.1 1.4z"/><path d="m6544.6 1699.2-30.1-118.4h16.2l14.1 59.9c3.5 14.8 6.6 29.5 8.8 41h.3c1.9-11.8 5.6-25.9 9.7-41.2l15.8-59.7h16l14.4 60.1c3.4 14 6.5 28.1 8.3 40.6h.3c2.5-13 5.8-26.2 9.5-41l15.7-59.7h15.6l-33.6 118.4h-16l-14.9-61.7c-3.7-15.1-6.2-26.7-7.7-38.6h-.4a369.2 369.2 0 0 1 -9.1 38.6l-16.9 61.7z"/><path d="m6689.3 1580.8v118.4h-15.3v-118.4z"/><path d="m6738.5 1593.8h-36v-13h87.7v13h-36.2v105.4h-15.5z"/><path d="m6818.7 1580.8v49.5h57.3v-49.5h15.5v118.4h-15.5v-55.5h-57.3v55.5h-15.3v-118.4z"/><path d="m6974.4 1662-12.3 37.2h-15.8l40.3-118.4h18.4l40.5 118.4h-16.4l-12.6-37.2zm38.9-12-11.6-34.1c-2.6-7.7-4.4-14.8-6.2-21.6h-.3c-1.8 7-3.7 14.2-6 21.4l-11.6 34.3z" fill="#fff"/><path d="m724.6 2799.2-30.1-118.4h16.2l14.1 59.9c3.5 14.8 6.6 29.5 8.8 41h.3c1.9-11.8 5.6-25.9 9.7-41.2l15.8-59.7h16l14.4 60.1c3.4 14 6.5 28.1 8.3 40.6h.3c2.5-13 5.8-26.2 9.5-41l15.7-59.7h15.6l-33.6 118.4h-16l-14.9-61.7c-3.7-15.1-6.2-26.7-7.7-38.6h-.4a369.2 369.2 0 0 1 -9.1 38.6l-16.9 61.7z"/><path d="m869.3 2680.8v118.4h-15.3v-118.4z"/><path d="m918.5 2693.8h-36v-13h87.7v13h-36.2v105.4h-15.5z"/><path d="m998.7 2680.8v49.5h57.3v-49.5h15.5v118.4h-15.5v-55.5h-57.3v55.5h-15.3v-118.4z"/><path d="m1154.4 2762-12.3 37.2h-15.8l40.3-118.4h18.4l40.5 118.4h-16.4l-12.6-37.2zm38.9-12-11.6-34.1c-2.6-7.7-4.4-14.8-6.2-21.6h-.3c-1.8 7-3.7 14.2-6 21.4l-11.6 34.3z"/><path d="m2394.1 2680.8h15.3v79.2c0 31.5-15.5 41.2-35.9 41.2a49 49 0 0 1 -16.3-2.8l2.3-12.5a36.6 36.6 0 0 0 12.8 2.3c13.7 0 21.8-6.2 21.8-29.4z"/><path d="m2454.1 2762-12.3 37.2h-15.9l40.3-118.4h18.5l40.4 118.4h-16.4l-12.6-37.2zm38.8-12-11.6-34.1c-2.6-7.7-4.4-14.8-6.1-21.6h-.4c-1.7 7-3.7 14.2-6 21.4l-11.6 34.3z"/><path d="m2641.7 2747.2c-.9-16.5-2-36.4-1.8-51.2h-.5c-4.1 13.9-9 28.7-15 45.1l-20.9 57.4h-11.6l-19.2-56.4c-5.6-16.7-10.3-32-13.7-46.1h-.3c-.4 14.8-1.3 34.7-2.3 52.4l-3.2 50.8h-14.6l8.3-118.4h19.5l20.2 57.3c4.9 14.6 9 27.6 12 39.9h.5c3-12 7.2-25 12.5-39.9l21.1-57.3h19.5l7.4 118.4h-15z"/><path d="m2744.5 2743.7h-46.1v42.7h51.4v12.8h-66.7v-118.4h64v12.8h-48.7v37.4h46.1z"/><path d="m2767.5 2780.6a54.6 54.6 0 0 0 27.5 7.7c15.6 0 24.7-8.2 24.7-20.2s-6.3-17.4-22.3-23.5c-19.3-6.9-31.3-16.9-31.3-33.6 0-18.5 15.3-32.2 38.3-32.2 12.2 0 21 2.8 26.2 5.8l-4.2 12.5a47.2 47.2 0 0 0 -22.5-5.6c-16.2 0-22.3 9.6-22.3 17.7 0 11.1 7.2 16.6 23.6 22.9 20 7.7 30.2 17.4 30.2 34.8s-13.5 34.1-41.5 34.1c-11.4 0-23.9-3.3-30.2-7.6z"/><path d="m2893.6 2682.3a149.1 149.1 0 0 1 27.9-2.4c15.3 0 25.2 2.6 32.6 8.6s9.8 11.6 9.8 20.9c0 11.4-7.6 21.5-20 26v.4c11.2 2.8 24.4 12.1 24.4 29.7a31.8 31.8 0 0 1 -10 23.7c-8.3 7.6-21.6 11.1-41 11.1a179.6 179.6 0 0 1 -23.7-1.4zm15.3 48.6h13.9c16.1 0 25.6-8.5 25.6-19.9 0-13.9-10.5-19.3-26-19.3a68.4 68.4 0 0 0 -13.5 1zm0 56.7c3 .6 7.4.7 12.8.7 15.8 0 30.4-5.8 30.4-23s-13.9-22.8-30.6-22.8h-12.6z" fill="#fff"/><path d="m2988.9 2682.3a166.7 166.7 0 0 1 29.3-2.4c16.4 0 26.9 3 34.3 9.6s9.3 13.4 9.3 22.5c0 15.7-9.8 26.1-22.3 30.3v.5c9.1 3.2 14.6 11.6 17.4 23.9 3.9 16.5 6.7 28 9.2 32.5h-15.9c-1.9-3.3-4.5-13.5-7.9-28.3-3.5-16.3-9.8-22.5-23.7-23h-14.4v51.3h-15.3zm15.3 54h15.6c16.4 0 26.7-9 26.7-22.5 0-15.3-11-22-27.2-22.1-7.4 0-12.7.7-15.1 1.4z" fill="#fff"/><path d="m3185.2 2738.8c0 40.8-24.7 62.4-55 62.4s-53.3-24.3-53.3-60.1c0-37.7 23.4-62.3 55.1-62.3s53.2 24.8 53.2 60zm-91.9 1.9c0 25.3 13.7 48 37.8 48s38-22.3 38-49.2c0-23.6-12.3-48.2-37.8-48.2s-38 23.4-38 49.4z" fill="#fff"/><path d="m3224.5 2799.2-30.1-118.4h16.2l14 59.9c3.5 14.8 6.7 29.5 8.8 41h.4c1.9-11.8 5.6-25.9 9.6-41.2l15.9-59.7h16l14.4 60.1c3.3 14 6.5 28.1 8.2 40.6h.4c2.5-13 5.8-26.2 9.5-41l15.6-59.7h15.7l-33.6 118.4h-16l-14.9-61.7c-3.7-15.1-6.2-26.7-7.8-38.6h-.3a372.3 372.3 0 0 1 -9.2 38.6l-16.8 61.7z" fill="#fff"/><path d="m3353.8 2799.2v-118.4h16.7l38 59.9a334 334 0 0 1 21.3 38.5l.3-.2c-1.4-15.8-1.7-30.2-1.7-48.7v-49.5h14.4v118.4h-15.5l-37.6-60.1c-8.3-13.2-16.2-26.7-22.1-39.5h-.6c.9 15 1.3 29.2 1.3 48.9v50.6z" fill="#fff"/><path d="m4334.1 2680.8h15.3v79.2c0 31.5-15.5 41.2-35.9 41.2a49 49 0 0 1 -16.3-2.8l2.3-12.5a36.6 36.6 0 0 0 12.8 2.3c13.7 0 21.8-6.2 21.8-29.4z"/><path d="m4394.1 2762-12.3 37.2h-15.9l40.3-118.4h18.5l40.4 118.4h-16.4l-12.6-37.2zm38.8-12-11.6-34.1c-2.6-7.7-4.4-14.8-6.1-21.6h-.4c-1.7 7-3.7 14.2-6 21.4l-11.6 34.3z"/><path d="m4581.7 2747.2c-.9-16.5-2-36.4-1.8-51.2h-.5c-4.1 13.9-9 28.7-15 45.1l-20.9 57.4h-11.6l-19.2-56.4c-5.6-16.7-10.3-32-13.7-46.1h-.3c-.4 14.8-1.3 34.7-2.3 52.4l-3.2 50.8h-14.6l8.3-118.4h19.5l20.2 57.3c4.9 14.6 9 27.6 12 39.9h.5c3-12 7.2-25 12.5-39.9l21.1-57.3h19.5l7.4 118.4h-15z"/><path d="m4684.5 2743.7h-46.1v42.7h51.4v12.8h-66.7v-118.4h64v12.8h-48.7v37.4h46.1z"/><path d="m4707.5 2780.6a54.6 54.6 0 0 0 27.5 7.7c15.6 0 24.7-8.2 24.7-20.2s-6.3-17.4-22.3-23.5c-19.3-6.9-31.3-16.9-31.3-33.6 0-18.5 15.3-32.2 38.3-32.2 12.2 0 21 2.8 26.2 5.8l-4.2 12.5a47.2 47.2 0 0 0 -22.5-5.6c-16.2 0-22.3 9.6-22.3 17.7 0 11.1 7.2 16.6 23.6 22.9 20 7.7 30.2 17.4 30.2 34.8s-13.5 34.1-41.5 34.1c-11.4 0-23.9-3.3-30.2-7.6z"/><path d="m4833.6 2682.3a149.1 149.1 0 0 1 27.9-2.4c15.3 0 25.2 2.6 32.6 8.6s9.8 11.6 9.8 20.9c0 11.4-7.6 21.5-20 26v.4c11.2 2.8 24.4 12.1 24.4 29.7a31.8 31.8 0 0 1 -10 23.7c-8.3 7.6-21.6 11.1-41 11.1a179.6 179.6 0 0 1 -23.7-1.4zm15.3 48.6h13.9c16.1 0 25.6-8.5 25.6-19.9 0-13.9-10.5-19.3-26-19.3a68.4 68.4 0 0 0 -13.5 1zm0 56.7c3 .6 7.4.7 12.8.7 15.8 0 30.4-5.8 30.4-23s-13.9-22.8-30.6-22.8h-12.6z"/><path d="m4928.9 2682.3a166.7 166.7 0 0 1 29.3-2.4c16.4 0 26.9 3 34.3 9.6s9.3 13.4 9.3 22.5c0 15.7-9.8 26.1-22.3 30.3v.5c9.1 3.2 14.6 11.6 17.4 23.9 3.9 16.5 6.7 28 9.2 32.5h-15.9c-1.9-3.3-4.5-13.5-7.9-28.3-3.5-16.3-9.8-22.5-23.7-23h-14.4v51.3h-15.3zm15.3 54h15.6c16.4 0 26.7-9 26.7-22.5 0-15.3-11-22-27.2-22.1-7.4 0-12.7.7-15.1 1.4z"/><path d="m5125.2 2738.8c0 40.8-24.7 62.4-55 62.4s-53.3-24.3-53.3-60.1c0-37.7 23.4-62.3 55.1-62.3s53.2 24.8 53.2 60zm-91.9 1.9c0 25.3 13.7 48 37.8 48s38-22.3 38-49.2c0-23.6-12.3-48.2-37.8-48.2s-38 23.4-38 49.4z"/><path d="m5164.5 2799.2-30.1-118.4h16.2l14 59.9c3.5 14.8 6.7 29.5 8.8 41h.4c1.9-11.8 5.6-25.9 9.6-41.2l15.9-59.7h16l14.4 60.1c3.3 14 6.5 28.1 8.2 40.6h.4c2.5-13 5.8-26.2 9.5-41l15.6-59.7h15.7l-33.6 118.4h-16l-14.9-61.7c-3.7-15.1-6.2-26.7-7.8-38.6h-.3a372.3 372.3 0 0 1 -9.2 38.6l-16.8 61.7z"/><path d="m5293.8 2799.2v-118.4h16.7l38 59.9a334 334 0 0 1 21.3 38.5l.3-.2c-1.4-15.8-1.7-30.2-1.7-48.7v-49.5h14.4v118.4h-15.5l-37.6-60.1c-8.3-13.2-16.2-26.7-22.1-39.5h-.6c.9 15 1.3 29.2 1.3 48.9v50.6z"/><path d="m6274.1 2680.8h15.3v79.2c0 31.5-15.5 41.2-35.9 41.2a49 49 0 0 1 -16.3-2.8l2.3-12.5a36.6 36.6 0 0 0 12.8 2.3c13.7 0 21.8-6.2 21.8-29.4z"/><path d="m6334.1 2762-12.3 37.2h-15.9l40.3-118.4h18.5l40.4 118.4h-16.4l-12.6-37.2zm38.8-12-11.6-34.1c-2.6-7.7-4.4-14.8-6.1-21.6h-.4c-1.7 7-3.7 14.2-6 21.4l-11.6 34.3z"/><path d="m6521.7 2747.2c-.9-16.5-2-36.4-1.8-51.2h-.5c-4.1 13.9-9 28.7-15 45.1l-20.9 57.4h-11.6l-19.2-56.4c-5.6-16.7-10.3-32-13.7-46.1h-.3c-.4 14.8-1.3 34.7-2.3 52.4l-3.2 50.8h-14.6l8.3-118.4h19.5l20.2 57.3c4.9 14.6 9 27.6 12 39.9h.5c3-12 7.2-25 12.5-39.9l21.1-57.3h19.5l7.4 118.4h-15z"/><path d="m6624.5 2743.7h-46.1v42.7h51.4v12.8h-66.7v-118.4h64v12.8h-48.7v37.4h46.1z"/><path d="m6647.5 2780.6a54.6 54.6 0 0 0 27.5 7.7c15.6 0 24.7-8.2 24.7-20.2s-6.3-17.4-22.3-23.5c-19.3-6.9-31.3-16.9-31.3-33.6 0-18.5 15.3-32.2 38.3-32.2 12.2 0 21 2.8 26.2 5.8l-4.2 12.5a47.2 47.2 0 0 0 -22.5-5.6c-16.2 0-22.3 9.6-22.3 17.7 0 11.1 7.2 16.6 23.6 22.9 20 7.7 30.2 17.4 30.2 34.8s-13.5 34.1-41.5 34.1c-11.4 0-23.9-3.3-30.2-7.6z"/><path d="m6773.6 2682.3a149.1 149.1 0 0 1 27.9-2.4c15.3 0 25.2 2.6 32.6 8.6s9.8 11.6 9.8 20.9c0 11.4-7.6 21.5-20 26v.4c11.2 2.8 24.4 12.1 24.4 29.7a31.8 31.8 0 0 1 -10 23.7c-8.3 7.6-21.6 11.1-41 11.1a179.6 179.6 0 0 1 -23.7-1.4zm15.3 48.6h13.9c16.1 0 25.6-8.5 25.6-19.9 0-13.9-10.5-19.3-26-19.3a68.4 68.4 0 0 0 -13.5 1zm0 56.7c3 .6 7.4.7 12.8.7 15.8 0 30.4-5.8 30.4-23s-13.9-22.8-30.6-22.8h-12.6z"/><path d="m6868.9 2682.3a166.7 166.7 0 0 1 29.3-2.4c16.4 0 26.9 3 34.3 9.6s9.3 13.4 9.3 22.5c0 15.7-9.8 26.1-22.3 30.3v.5c9.1 3.2 14.6 11.6 17.4 23.9 3.9 16.5 6.7 28 9.2 32.5h-15.9c-1.9-3.3-4.5-13.5-7.9-28.3-3.5-16.3-9.8-22.5-23.7-23h-14.4v51.3h-15.3zm15.3 54h15.6c16.4 0 26.7-9 26.7-22.5 0-15.3-11-22-27.2-22.1-7.4 0-12.7.7-15.1 1.4z"/><path d="m7065.2 2738.8c0 40.8-24.7 62.4-55 62.4s-53.3-24.3-53.3-60.1c0-37.7 23.4-62.3 55.1-62.3s53.2 24.8 53.2 60zm-91.9 1.9c0 25.3 13.7 48 37.8 48s38-22.3 38-49.2c0-23.6-12.3-48.2-37.8-48.2s-38 23.4-38 49.4z"/><path d="m7104.5 2799.2-30.1-118.4h16.2l14 59.9c3.5 14.8 6.7 29.5 8.8 41h.4c1.9-11.8 5.6-25.9 9.6-41.2l15.9-59.7h16l14.4 60.1c3.3 14 6.5 28.1 8.2 40.6h.4c2.5-13 5.8-26.2 9.5-41l15.6-59.7h15.7l-33.6 118.4h-16l-14.9-61.7c-3.7-15.1-6.2-26.7-7.8-38.6h-.3a372.3 372.3 0 0 1 -9.2 38.6l-16.8 61.7z"/><path d="m7233.8 2799.2v-118.4h16.7l38 59.9a334 334 0 0 1 21.3 38.5l.3-.2c-1.4-15.8-1.7-30.2-1.7-48.7v-49.5h14.4v118.4h-15.5l-37.6-60.1c-8.3-13.2-16.2-26.7-22.1-39.5h-.6c.9 15 1.3 29.2 1.3 48.9v50.6z"/><path d="m6587.1 2541.2a54.6 54.6 0 0 0 27.5 7.7c15.6 0 24.8-8.2 24.8-20.2s-6.4-17.4-22.4-23.5c-19.3-6.9-31.3-16.9-31.3-33.6 0-18.5 15.3-32.2 38.4-32.2 12.1 0 20.9 2.8 26.2 5.8l-4.3 12.5a46.8 46.8 0 0 0 -22.5-5.6c-16.1 0-22.3 9.6-22.3 17.7 0 11.1 7.2 16.6 23.6 22.9 20 7.7 30.2 17.4 30.2 34.8s-13.5 34.1-41.5 34.1c-11.4 0-23.9-3.3-30.2-7.6z"/><path d="m6777.2 2499.4c0 40.7-24.8 62.4-55 62.4s-53.3-24.3-53.3-60.2c0-37.6 23.4-62.2 55-62.2s53.3 24.8 53.3 60zm-92 1.9c0 25.3 13.8 48 37.8 48s38-22.3 38-49.2c0-23.6-12.3-48.2-37.8-48.2s-38 23.4-38 49.4z"/><path d="m6812.3 2441.3v70.2c0 26.5 11.8 37.8 27.7 37.8 17.5 0 28.8-11.6 28.8-37.8v-70.2h15.5v69.1c0 36.4-19.2 51.4-44.9 51.4-24.2 0-42.5-13.9-42.5-50.7v-69.8z"/><path d="m6910.8 2441.3h15.3v105.7h50.6v12.8h-65.9z"/></g></svg>