<svg height="1080" viewBox="0 0 1920 1080" width="1920" xmlns="http://www.w3.org/2000/svg"><path d="m0 0h1920v1080h-1920z" fill="#fff"/><g fill="#ed1c24"><path d="m498.8 100.6v81h-17.5v-81z"/><path d="m538.8 100.6 18.3 38.7h.3v-38.7h15.2v81h-11.8l-19.3-40.9h-.2v40.9h-15.2v-81z"/><path d="m620.3 100.6v16h-20.7v16.3h15.2v14h-15.2v19h21.4v15.7h-38.9v-81z"/><path d="m666 100.6v16h-20.8v16.3h15.2v14h-15.2v19h21.4v15.7h-38.8v-81z"/><path d="m697.2 100.6c15.2 0 23.8 9.9 23.8 26.5v27.8c0 16.7-8.6 26.7-23.8 26.7h-23.8v-81zm0 15.7h-6.3v50.1h6.3c4.5 0 6.4-2.2 6.4-11.9v-26.7c0-9.3-1.9-11.5-6.4-11.5z"/><path d="m759.1 181.6h-17.4l17-81h20.6l17.2 81h-17.8l-2.6-16.2h-14.5zm4.6-29.7h10.3l-5-32.2h-.2z"/><path d="m554.9 271.8-20.8 8.7c-2.7-11.2-7.7-14.5-13.1-14.5s-9.2 3.9-9.2 10.8c0 20.4 43.3 24.5 43.3 65.1 0 24.9-14 39.1-36.4 39.1-18.1 0-34.1-12.5-37.5-34.1l22.7-6.9c2.7 12.5 8.3 16.4 13.9 16.4s9.6-3.9 9.6-10.6c0-24.9-44.5-28.7-44.5-67.4 0-20.8 13.1-37.4 34.7-37.4s31.4 11.8 37.3 30.8z"/><path d="m632.4 242.9v27h-21.8v109.2h-29.5v-109.2h-21.9v-27z"/><path d="m655.5 379.1h-29.3l28.7-136.2h34.5l29 136.2h-30l-4.4-27.2h-24.3zm7.7-49.9h17.3l-8.3-54.3h-.4z"/><path d="m766 341.3v37.8h-29.1v-38.1l-31-98.1h32l13.5 61.3h.4l13.3-61.3h32.1z"/><path d="m628.8 441.3v173.3c0 52.9-26.8 81.2-73.2 81.2s-74.4-27.6-74.4-78.6v-175.9h54.1v175.9c0 20 6.9 28 20.3 28s19.6-7.3 19.6-28v-175.9z"/><path d="m796.4 525.2c0 52.9-23.4 82.5-64.1 82.5h-22.2v84.7h-54v-251.1h73.2c42.5 0 67.1 30.3 67.1 83.9zm-86.3 38.8h17.6c10.4 0 15-9.2 15-38s-4.6-37.2-15-37.2h-17.6z"/><path d="m512.7 790.9v.2c6.5 2.1 9.5 8 9.5 16.4 0 12.7-4 21.2-19.5 21.2h-21.5v-72.6h19.2c14.1 0 19.7 8.2 19.7 19.6 0 7.9-2.1 12.8-7.4 15.2zm-16.3-5h4.6c3.8 0 4.8-2.2 4.8-8.2s-1.2-7.6-4.8-7.6h-4.6zm0 29.1h5.6c3.7 0 4.8-1.7 4.8-8.5s-1.1-8.6-4.8-8.6h-5.6z"/><path d="m547.2 800.5h-3v28.2h-15.6v-72.6h20.5c13.7 0 19.5 7.9 19.5 21.5 0 9.5-2.6 15.7-7.7 18.6l10.3 32.5h-16.3zm-3-12.4h4.2c3.7 0 4.8-2.2 4.8-9s-1.5-9.2-5-9.2h-4z"/><path d="m616.8 778.7v27.4c0 14.8-7.2 23.5-21.2 23.5s-21.3-8.7-21.3-23.5v-27.4c0-14.8 7.2-23.6 21.3-23.6s21.2 8.8 21.2 23.6zm-15.6 0c0-7.6-1.5-9.7-5.6-9.7s-5.8 2.1-5.8 9.7v27.4c0 7.8 1.7 10.2 5.8 10.2s5.6-2.4 5.6-10.2z"/><path d="m658.5 756.1v14.4h-11.7v58.2h-15.7v-58.2h-11.6v-14.4z"/><path d="m679.3 756.1v28h10.3v-28h15.7v72.6h-15.7v-30.2h-10.3v30.2h-15.6v-72.6z"/><path d="m748.1 756.1v14.3h-18.6v14.6h13.6v12.5h-13.6v17.1h19.2v14.1h-34.8v-72.6z"/><path d="m773.4 800.5h-3v28.2h-15.6v-72.6h20.4c13.8 0 19.5 7.9 19.5 21.5 0 9.5-2.5 15.7-7.6 18.6l10.3 32.5h-16.3zm-3-12.4h4.2c3.6 0 4.7-2.2 4.7-9s-1.4-9.2-4.9-9.2h-4z"/><path d="m557.4 977.5h-21.1l-8.4-52.2h-.3l-8.6 52.2h-21l-16.6-89.2h19.1l8.4 61.8h.3l9.5-61.8h18l9.4 62.5h.3l8.6-62.5h19.1z"/><path d="m599.7 888.3v89.2h-19.2v-89.2z"/><path d="m654.6 888.3v17.7h-14.3v71.5h-19.3v-71.5h-14.4v-17.7z"/><path d="m680.2 888.3v34.4h12.7v-34.4h19.4v89.2h-19.4v-37h-12.7v37h-19.2v-89.2z"/><path d="m756.3 977.5h-19.2l18.8-89.2h22.6l18.9 89.2h-19.6l-2.8-17.8h-16zm5-32.7h11.3l-5.4-35.5h-.3z"/><path d="m847.6 888.9v59.3c0 19.7-9.6 30.2-27.5 30.8l-1.6-15.8c6.6 0 9.8-3.7 9.8-14.5v-59.8z"/><path d="m872.3 978.2h-19.2l18.8-89.3h22.6l19 89.3h-19.7l-2.8-17.9h-16zm5-32.7h11.4l-5.5-35.6h-.3z"/><path d="m988.6 888.9v89.3h-17.4v-44.6h-.2l-13 32.2h-8.7l-12.7-32.1h-.2v44.5h-17.4v-89.3h18.2l16.5 49.1h.2l16.7-49.1z"/><path d="m1041.2 888.9v17.6h-22.9v18h16.7v15.4h-16.7v21h23.5v17.3h-42.8v-89.3z"/><path d="m1093.5 907.8-13.6 5.8c-1.8-7.4-5.1-9.6-8.6-9.6s-6 2.6-6 7.1c0 13.4 28.3 16.1 28.3 42.7 0 16.3-9.1 25.6-23.8 25.6-11.9 0-22.4-8.2-24.6-22.4l14.9-4.5c1.8 8.2 5.4 10.8 9.1 10.8s6.3-2.6 6.3-6.9c0-16.4-29.2-18.8-29.2-44.2 0-13.6 8.6-24.5 22.8-24.5s20.6 7.7 24.4 20.1z"/><path d="m1158.6 931.7v.3c8 2.6 11.7 9.8 11.7 20.1 0 15.7-4.9 26.1-24 26.1h-26.4v-89.3h23.6c17.4 0 24.2 10.1 24.2 24.1 0 9.7-2.6 15.7-9.1 18.7zm-20-6.1h5.7c4.6 0 5.8-2.8 5.8-10.1s-1.5-9.4-5.8-9.4h-5.7zm0 35.8h6.9c4.5 0 5.9-2.2 5.9-10.5s-1.4-10.6-5.9-10.6h-6.9z"/><path d="m1201.1 943.6h-3.7v34.6h-19.2v-89.3h25.2c16.9 0 24 9.7 24 26.4 0 11.8-3.1 19.4-9.4 22.9l12.7 40h-20zm-3.7-15.3h5.2c4.5 0 5.9-2.7 5.9-11.2s-1.8-11.3-6.2-11.3h-4.9z"/><path d="m1286.8 916.7v33.7c0 18.2-8.8 29-26.1 29s-26.2-10.8-26.2-29v-33.7c0-18.3 8.9-29 26.2-29s26.1 10.7 26.1 29zm-19.2 0c0-9.4-1.9-12-6.9-12s-7.1 2.6-7.1 12v33.7c0 9.6 2 12.5 7.1 12.5s6.9-2.9 6.9-12.5z"/><path d="m1365.2 978.2h-21.1l-8.5-52.2h-.2l-8.6 52.2h-21l-16.7-89.3h19.1l8.5 61.9h.3l9.5-61.9h18l9.4 62.6h.3l8.5-62.6h19.1z"/><path d="m1401.6 888.9 20.2 42.7h.2v-42.7h16.8v89.3h-13l-21.2-45.1h-.3v45.1h-16.8v-89.3z"/><path d="m1068.3 786.5-13.7 5.8c-1.7-7.4-5-9.6-8.5-9.6s-6 2.6-6 7.1c0 13.4 28.3 16.1 28.3 42.7 0 16.3-9.1 25.6-23.8 25.6-11.9 0-22.4-8.2-24.6-22.4l14.9-4.5c1.7 8.2 5.4 10.8 9.1 10.8s6.3-2.6 6.3-6.9c0-16.4-29.2-18.8-29.2-44.2 0-13.6 8.6-24.5 22.8-24.5s20.5 7.7 24.4 20.1z"/><path d="m1125.9 795.4v33.7c0 18.2-8.8 29-26.2 29s-26.1-10.8-26.1-29v-33.7c0-18.3 8.8-29 26.1-29s26.2 10.7 26.2 29zm-19.2 0c0-9.4-1.9-12-7-12s-7 2.6-7 12v33.7c0 9.6 2 12.5 7 12.5s7-2.9 7-12.5z"/><path d="m1186.3 767.6v61.6c0 18.8-9.6 28.9-26 28.9s-26.5-9.8-26.5-27.9v-62.6h19.2v62.6c0 7 2.5 9.9 7.3 9.9s6.9-2.6 6.9-9.9v-62.6z"/><path d="m1214.6 767.6v71.4h21.8v17.9h-40.4v-89.3z"/></g></svg>