<svg height="1080" viewBox="0 0 1920 1080" width="1920" xmlns="http://www.w3.org/2000/svg"><path d="m893.3 860.5-2.1 65.4h36.4s.1-36.3 1.4-64a17.9 17.9 0 0 0 -17.9-18.7 17.9 17.9 0 0 0 -17.8 17.3z" fill="#ffd2b3"/><path d="m892.1 860.5-2.1 65.4a1.3 1.3 0 0 0 1.2 1.2h36.4a1.2 1.2 0 0 0 1.2-1.2c.1-21.6 1.5-43.2 1.4-64.7a19.3 19.3 0 0 0 -19.1-19.2c-10.4 0-18.3 8.3-19 18.5-.1 1.6 2.3 1.6 2.4 0 .9-12.7 15.1-20.6 26-13.2s6.9 21.9 6.6 32.7c-.5 15.3-.7 30.6-.8 45.9l1.3-1.2h-36.4l1.2 1.2 2.1-65.4c.1-1.6-2.4-1.6-2.4 0z" fill="#231f20"/><path d="m908.1 1009.1-16.9-36.1v-47.1h36.4s5.3 69.2 12.6 91.4z" fill="#fff"/><path d="m909.2 1008.4-15.8-33.6-1-2c-.2-.9.1.8 0-.2s0-4.3 0-6.4v-40.3l-1.2 1.2h36.4l-1.3-1.2c1 12.7 2.2 25.3 3.7 38 2 17.8 3.5 36.6 9.1 53.7l1.5-1.5-32.1-8.2a1.2 1.2 0 0 0 -.7 2.3l32.1 8.3a1.3 1.3 0 0 0 1.5-1.6c-5.6-17.2-7.1-36.2-9.1-54.2-1.4-12.2-2.6-24.5-3.5-36.8a1.2 1.2 0 0 0 -1.2-1.2h-36.4a1.2 1.2 0 0 0 -1.2 1.2v38.8c0 3.1-.6 6.6.4 9.5 2.1 6.1 5.7 12.1 8.4 17.9l8.3 17.6c.6 1.4 2.8.2 2.1-1.3z" fill="#231f20"/><path d="m751.8 1029.5v14.9s84.1 32.4 200.6-7.5l-3.9-11.9z" fill="#fff"/><path d="m750.6 1029.5v14.9a1.3 1.3 0 0 0 .9 1.2c11.5 4.4 24 6.8 36.1 8.7a327.5 327.5 0 0 0 94.3.6 375.1 375.1 0 0 0 70.9-16.8 1.1 1.1 0 0 0 .8-1.5l-4-11.9a1 1 0 0 0 -1.1-.9l-66.5 1.5-105.9 2.4-24.3.5a1.3 1.3 0 0 0 0 2.5l73.2-1.7 107.9-2.4c4.5-.1 9.2.2 13.7-.3 2.6-.3.8.5.7-.8.3 3.8 2.8 8.2 4 11.8l.8-1.6c-41.7 14.2-85.7 21.5-129.7 19.6-22.4-1-45.1-3.9-66.5-10.8a24.3 24.3 0 0 0 -3.8-1.3c2.9.5.4 1.7.9.7a6.7 6.7 0 0 0 0-2v-12.4a1.2 1.2 0 0 0 -2.4 0z" fill="#231f20"/><path d="m878.3 1005.1s-14-23.9-7-30.9 36.8 1 36.8 11v23.9h23.9s13-9 13 3.4l3.5 12.5s-124 34.3-196.7 4.5c0 0 6.5-32.9 126.5-24.4z" fill="#363636"/><path d="m879.3 1004.4a74 74 0 0 1 -7.3-16.5c-1.1-3.4-2.6-8.7-.5-12s7.5-3.2 10.9-3c7.4.3 19 2.8 23.4 9.4 2.6 3.8 1.1 11.3 1.1 15.7v11.1a1.3 1.3 0 0 0 1.2 1.2h13.5c3.3 0 7.9.8 11.1-.2 1.6-.5 3-1.8 4.7-2.4 4.8-1.5 5.5 1 6.4 5.2s2.3 8.3 3.5 12.4l.8-1.5c-14.9 4.1-30.1 7.1-45.3 9.7-31.8 5.4-64.4 8.5-96.7 6.2-18.4-1.3-36.8-4.5-54-11.4l.9 1.5c.8-4 5.7-7.9 9.1-10.1 15.4-10.1 35.8-12.5 53.7-13.9 20.8-1.6 41.7-.9 62.5.5 1.5.1 1.5-2.4 0-2.5-31.6-2.1-65.2-3.5-96.1 4.8-10.4 2.8-22.8 7.2-29.4 16.3a11.3 11.3 0 0 0 -2.2 4.2 1.4 1.4 0 0 0 .9 1.6c30.7 12.4 65.3 13.5 98 11.5a514.8 514.8 0 0 0 82.8-12c5.5-1.2 11-2.5 16.5-4a1.2 1.2 0 0 0 .8-1.5c-1.3-5-2.6-9.9-3.6-14.9s-6.4-5.8-10.9-3.8c-1 .4-1.9 1-2.9 1.5s-.1.3-.5.3c-2.3.4-5 0-7.2 0h-16.4l1.3 1.3v-16.4c0-4.4.8-9-2.1-12.6-5.9-7-18.1-9.8-26.8-9.8s-13.4 4.2-12.1 12.9 4.9 15.7 8.8 22.5c.8 1.4 2.9.1 2.1-1.3z" fill="#231f20"/><path d="m844.4 1022.6-20-19.4c-1.2-1.1-2.9.7-1.8 1.8l20.1 19.4c1.1 1.1 2.9-.7 1.7-1.8z" fill="#231f20"/><path d="m862.9 1015.9-7.7-12.4c-.8-1.4-3-.1-2.1 1.2l7.7 12.4a1.2 1.2 0 0 0 2.1-1.2z" fill="#231f20"/><path d="m891.2 946.5h38.1a1.2 1.2 0 0 0 0-2.4h-38.1a1.2 1.2 0 0 0 0 2.4z" fill="#df6352"/><path d="m979.3 863v71.8h42.4s-2.1-40-2.9-72.3a19.7 19.7 0 0 0 -19.7-19.3 19.8 19.8 0 0 0 -19.8 19.8z" fill="#ffd2b3"/><path d="m978.1 863v71.8a1.3 1.3 0 0 0 1.2 1.3h42.4a1.3 1.3 0 0 0 1.2-1.3c-1.3-23.8-2-47.6-2.8-71.5-.4-11.5-9-21.3-21-21.3s-20.6 9.6-21 21c-.1 1.6 2.4 1.6 2.5 0 .4-13.5 14.5-22.9 26.9-16.5s10.3 24.1 10.7 36.4c.6 17.3 1.3 34.6 2.2 51.9l1.3-1.2h-42.4l1.3 1.2v-71.8a1.3 1.3 0 0 0 -2.5 0z" fill="#231f20"/><path d="m979.3 934.8s-.3 33.4 13.8 86.2l19.1 4 36.8 3.4s-25-56.2-27.3-93.6z" fill="#fff"/><path d="m978.1 934.8c-.2 29 6.5 58.8 13.8 86.5a1.4 1.4 0 0 0 .9.9c8 1.6 15.9 3.7 24.1 4.4l32.1 3.1c1.1.1 1.4-1.1 1.1-1.9-4.7-10.6-8.9-21.5-12.7-32.5-6.8-19.4-13.1-39.8-14.5-60.5a1.3 1.3 0 0 0 -1.2-1.2h-42.4a1.3 1.3 0 0 0 0 2.5h42.4l-1.3-1.3c1.5 21 7.7 41.5 14.6 61.2 3.9 11.2 8.2 22.3 13 33.1l1-1.9c-13.5-1.3-28.4-1.7-41-4.4l-6.9-1.4c-1.9-.4-4.9-.4-6.5-1.4s-1 0-1.1-.2-.2-2.9-.2-3-.7-2.5-1-3.7c-1.2-5.1-2.4-10.1-3.5-15.2a371.3 371.3 0 0 1 -7.1-44.5 164.4 164.4 0 0 1 -1.1-18.6 1.3 1.3 0 0 0 -2.5 0z" fill="#231f20"/><path d="m1024.2 952.1h-43.8a1.3 1.3 0 0 0 0 2.5h43.8a1.3 1.3 0 0 0 0-2.5z" fill="#df6352"/><path d="m855.9 1045.4v14.9s84.1 32.4 200.6-7.5l-4-11.9z" fill="#fff"/><path d="m854.6 1045.4v14.9a1.3 1.3 0 0 0 .9 1.2c11.5 4.4 24 6.8 36.2 8.7a327.4 327.4 0 0 0 94.3.6 374.1 374.1 0 0 0 70.8-16.8 1.3 1.3 0 0 0 .9-1.5l-4-11.9c-.2-.5-.6-1-1.2-.9l-66.5 1.5-105.9 2.4-24.2.5a1.3 1.3 0 0 0 0 2.5l73.1-1.7 108-2.4c4.5-.1 9.2.2 13.6-.3 2.7-.3.9.5.8-.7.3 3.7 2.7 8.1 3.9 11.7l.9-1.5c-41.7 14.1-85.7 21.4-129.8 19.5-22.3-1-45.1-3.9-66.4-10.8a28.4 28.4 0 0 0 -3.8-1.3c2.8.5.4 1.7.9.7a6.7 6.7 0 0 0 0-2v-12.4a1.3 1.3 0 0 0 -2.5 0z" fill="#231f20"/><path d="m982.3 1021s-13.9-23.9-7-30.9 36.9 1 36.9 11v23.9h23.9s12.9-9 12.9 3.4l3.5 12.5s-124 34.3-196.6 4.5c0 0 6.4-32.9 126.4-24.4z" fill="#363636"/><path d="m983.4 1020.4a84.1 84.1 0 0 1 -7.4-16.5c-1-3.5-2.6-8.7-.4-12.1s7.4-3.2 10.9-3c7.3.3 19 2.8 23.4 9.4 2.6 3.8 1.1 11.3 1.1 15.7v11.1a1.2 1.2 0 0 0 1.2 1.2h13.4c3.4 0 7.9.8 11.2-.2 1.6-.5 3-1.8 4.7-2.4 4.8-1.5 5.5 1 6.3 5.2s2.4 8.3 3.5 12.4l.9-1.5c-14.9 4.1-30.2 7.1-45.4 9.7-31.8 5.4-64.4 8.5-96.7 6.2-18.4-1.3-36.8-4.5-53.9-11.4l.8 1.5c.9-4 5.7-7.9 9.2-10.1 15.3-10.1 35.8-12.5 53.7-13.9 20.7-1.6 41.6-.9 62.4.5 1.6.1 1.6-2.3 0-2.5-31.6-2.1-65.2-3.5-96.1 4.9-10.3 2.7-22.8 7.1-29.3 16.2a11.3 11.3 0 0 0 -2.2 4.2 1.3 1.3 0 0 0 .8 1.6c30.7 12.4 65.4 13.5 98 11.5a513.2 513.2 0 0 0 82.8-12c5.5-1.2 11.1-2.5 16.5-4a1.2 1.2 0 0 0 .9-1.5c-1.4-5-2.6-9.9-3.7-14.9s-6.4-5.8-10.8-3.8a28 28 0 0 0 -3 1.5c-1.1.5-.1.3-.5.3-2.2.4-4.9 0-7.2 0h-16.3l1.2 1.3v-16.4c0-4.4.9-9-2.1-12.6-5.8-7-18.1-9.8-26.8-9.8s-13.3 4.2-12.1 12.9 4.9 15.7 8.9 22.5c.7 1.4 2.9.1 2.1-1.2z" fill="#231f20"/><path d="m948.5 1038.5-20.1-19.4c-1.1-1.1-2.9.7-1.7 1.8l20.1 19.4c1.1 1.1 2.8-.7 1.7-1.8z" fill="#231f20"/><path d="m967 1031.8-7.7-12.4c-.9-1.4-3-.1-2.2 1.2l7.7 12.5c.9 1.3 3 .1 2.2-1.3z" fill="#231f20"/><path d="m855.7 640.6s-9.5-101 23.9-105 24.8 105 24.8 105z" fill="#df6352"/><path d="m856.9 640.6a303.4 303.4 0 0 1 -1.2-34.4c.2-18.6.7-39.9 9.3-56.9 3.1-6.2 8.2-12.3 15.7-12.6s11.2 4.9 14 10.4c8.3 15.9 8.8 36.3 9.3 53.9a373.3 373.3 0 0 1 -.8 39.6l1.2-1.2h-48.7a1.3 1.3 0 0 0 0 2.5h48.7a1.3 1.3 0 0 0 1.3-1.3c.9-12.1 1.1-24.3.9-36.5-.4-18.5-1-39.3-8.9-56.4-2.5-5.6-6.6-11.4-12.9-13s-12.7 1.3-16.9 5.9c-5.6 6.1-8.4 14.6-10.3 22.5a168.7 168.7 0 0 0 -4 30.8 330.7 330.7 0 0 0 .8 46.7c.2 1.6 2.6 1.6 2.5 0z" fill="#231f20"/><path d="m855.7 640.6s-14.8 131.9-8.3 193.2 19.4 64.7 25.4 58.7c0 0 9.8 4.5 7.1-12.9 0 0 11.3 8.9 11.3-20.4s13.2-218.6 13.2-218.6z" fill="#ffd2b3"/><path d="m854.4 640.6q-6.4 57.6-9 115.5c-1.1 25.5-1.9 51.3.7 76.8 1.5 14.9 3.4 30.3 8.1 44.7 1.9 5.7 4.4 13.1 9.7 16.7a7.4 7.4 0 0 0 5.4 1.4 5.7 5.7 0 0 0 2.2-.7c.5-.3 2.6-1.9 1.3-1.4s.5.5 1.5.6a6.8 6.8 0 0 0 3.7-.5c4.7-2.5 3.7-9.9 3.1-14.1l-2.1.9a6.7 6.7 0 0 0 8.7-.1c6-5.6 4.6-17.5 4.8-24.9.3-15.9 1.4-31.9 2.3-47.8 2.6-44.7 5.6-89.4 8.6-134.1.8-11 1.5-22 2.3-33a1.3 1.3 0 0 0 -1.3-1.2h-48.7a1.3 1.3 0 0 0 0 2.5h48.7l-1.2-1.3q-2.9 40.6-5.5 81.3c-2.7 40.6-5.5 81.2-7.3 121.8-.3 6.9-.2 13.7-.6 20.5-.2 4.2-2.3 19.7-9 14.5-.7-.5-2.3-.3-2.1.9.5 4 .9 14.6-5.3 11.9a1.1 1.1 0 0 0 -1.5.2c-7.7 7.4-14-10.8-15.4-15.2-7.2-22.3-8.9-46.5-9.4-69.7-.9-44.6 2.5-89.3 6.6-133.7 1-10.8 2-21.7 3.2-32.5.2-1.5-2.3-1.5-2.5 0z" fill="#231f20"/><path d="m861.9 814.8a126.7 126.7 0 0 1 12.3 15.1c.8 1.2 4.8 6.4 3.6 8s-12.9-4.4-14.4-5.2-2.6 1.4-1.2 2.1c3.4 1.9 12.1 7.8 16.6 5.4 2.9-1.6 1.1-5.5-.1-7.6-3.8-7.2-9.6-13.6-15.1-19.6-1-1.1-2.8.6-1.7 1.8z" fill="#231f20"/><path d="m873.8 893.1c5.9-10.9-.8-25.4-6.9-34.6-.9-1.3-3 0-2.2 1.3 5.6 8.2 12.4 22 7 32.1-.7 1.4 1.4 2.6 2.1 1.2z" fill="#231f20"/><path d="m881.1 879.6-.7-10.2c-.2-1.6-2.6-1.6-2.5 0l.8 10.2c.1 1.6 2.6 1.6 2.4 0z" fill="#231f20"/><path d="m1090.8 55.7s5.5-19 24-12.1 45.8 9.7 34.8 44.2z" fill="#407ba5"/><path d="m1092 56c1.4-4.6 4.8-9.3 9.2-11.4 7.8-3.6 17.6 1.7 25.1 4.2s14.5 5 19.5 10.7c7 7.8 5.5 18.7 2.6 28l1.8-.8-58.8-32.1a1.3 1.3 0 0 0 -1.2 2.2l58.8 32.1a1.2 1.2 0 0 0 1.8-.8c2.9-9.5 4.4-20.6-2.1-29.1-5.3-6.8-13.9-9.9-21.8-12.6s-18.3-8.1-26.9-3.9c-5 2.4-8.8 7.6-10.4 12.9-.5 1.5 1.9 2.2 2.4.6z" fill="#231f20"/><path d="m902.2 793.4-11 65.8a120.5 120.5 0 0 0 49.8 10.9v-26.9h38.3v26.9s29.4 3 56.8-9.4l-9.5-46.8-33.5-6.2z" fill="#6c7174"/><path d="m901 793.1-11 65.7a1.2 1.2 0 0 0 .6 1.4c15.3 7.8 33.4 11 50.4 11.2a1.2 1.2 0 0 0 1.2-1.3v-26.9l-1.2 1.3h38.3l-1.2-1.3v26.9a1.4 1.4 0 0 0 1.2 1.3 117.7 117.7 0 0 0 57.4-9.7 1.3 1.3 0 0 0 .6-1.4l-9.5-46.7a1.4 1.4 0 0 0 -.8-.9c-34.8-6.4-69.7-11.8-104.6-17.3l-19.9-3.1c-1.6-.3-2.2 2.1-.7 2.3l86.3 13.6c11.4 1.8 22.7 4 34 6.1a15.3 15.3 0 0 0 3.6.7c1-.1-.2-1.2-.2-.2.2 2.6 1.1 5.3 1.6 7.9l5.6 27.4c.5 2.6 2.5 7.4 2 10 0 .1.3.7.2.8a22.5 22.5 0 0 1 -2.6 0c-1.3.3-2.9 1.2-4.3 1.7a130.8 130.8 0 0 1 -14.3 4 116.7 116.7 0 0 1 -34.4 2.3l1.3 1.2v-26.9a1.3 1.3 0 0 0 -1.3-1.2h-38.3a1.2 1.2 0 0 0 -1.2 1.2v26.9l1.2-1.2a121.7 121.7 0 0 1 -41.4-7.5c-2-.8-5.6-3.3-7.7-3.2 1.1-.1-.3 1.8.6.7a7.8 7.8 0 0 0 .4-2.2l7.9-47.5 2.5-15.4c.3-1.6-2.1-2.2-2.3-.7z" fill="#231f20"/><path d="m890 598.9v-73l86 3.2v69.8z" fill="#ffd2b3"/><path d="m891.2 598.9v-73l-1.2 1.2 75 2.8 11 .4-1.3-1.2v69.8l1.3-1.2h-86a1.2 1.2 0 0 0 0 2.4h86a1.2 1.2 0 0 0 1.2-1.2v-69.8a1.2 1.2 0 0 0 -1.2-1.2l-75.1-2.8-10.9-.4a1.1 1.1 0 0 0 -1.2 1.2v73a1.2 1.2 0 1 0 2.4 0z" fill="#231f20"/><path d="m1074.9 269.5-30.7 71.4 29.7 134.8s118.5 58.8 136-72.6c0 0 17.9 42.8 34.3 0s-31.9-86.1-31.9-86.1a47.5 47.5 0 0 0 35.3 8.4c20.5-3.5-17-51.9-56.5-40.1l-69.9-29.6z" fill="#7d452a"/><path d="m1073.9 268.9-15.6 36.1-10.6 24.6c-1.4 3.2-4.3 7.5-4.7 10.9s.9 5.1 1.4 7.1l4.1 18.4 11.9 54.3 10.3 46.7c.6 2.5.7 6.6 2 8.9s1.8 1.5 3 2c19.6 8.7 42.1 13.9 63.6 11.7 14.6-1.4 28.5-6.6 39.7-16 15.1-12.8 23.6-31.5 28.3-50.3a169.8 169.8 0 0 0 3.7-19.9l-2.2.3c2.5 5.9 6.1 12 10.9 16.1 7.7 6.5 15.3 2.6 20.3-5.1 16.9-26.4 6.5-57.4-10.8-80.5a124.9 124.9 0 0 0 -16-18.1l-1.7 1.7c7.3 5.9 17.2 9 26.4 9.5 6.9.3 17.6-.1 16.7-9.5s-8.2-16-14.2-21.1c-9-7.7-20.2-13.1-32-14.3a47.1 47.1 0 0 0 -9.2 0l-4 .6c-.7.1-3.1 1.2-3.5 1.2s-3.6-1.5-4.9-2.1l-24.5-10.3-28.5-12.1-9-3.8c-1.1-.5-2.5-1.4-3.7-1.4s-4.9 1.5-6.9 2l-16 4.8-23.6 7c-1.5.5-.9 2.9.7 2.4l41.8-12.5c1-.3 2.3-.5 3.3-.9s1.9-.2.3-.5a27.1 27.1 0 0 1 3.9 1.7l21 8.8c14.5 6.2 28.9 12.9 43.6 18.5 2.3.9 3.4.2 6-.3a46.5 46.5 0 0 1 20 .6 59.5 59.5 0 0 1 28.9 17.6c3.7 4 13.7 17.2 4.1 20.3s-26.3-1-35-7.9c-1.2-1-2.9.7-1.7 1.7a120.8 120.8 0 0 1 29.1 40.6c5.3 12.5 7.6 26.5 3.9 39.8-2.4 8.7-10.7 29.7-22.8 20.1-4.9-3.9-8.4-10.1-10.8-15.8a1.2 1.2 0 0 0 -2.2.3c-3 21.8-9.1 44.6-23.8 61.5a67.3 67.3 0 0 1 -38.7 21.9c-22.3 4.2-46.2-.8-66.9-9.4-1.4-.6-3.4-1.1-4.7-2.1 1 .7.3.6.2-.6a35.8 35.8 0 0 0 -.9-4.5l-9.2-41.5-11.8-53.3-4.7-21.2c-.8-3.9-1.3-8.1-2.6-11.9-.4-1.1-.1-1.3-.3-.4a30 30 0 0 1 1.8-4.1l8.6-20.1 19.1-44.1 1.2-2.8c.6-1.5-1.5-2.7-2.1-1.3z" fill="#231f20"/><path d="m1062.1 40.7s117.6 60.4 134.3 77.1 46.5 47.5-5.3 167.5l-69.9-29.6z" fill="#407ba5"/><path d="m1061.5 41.8c36.6 18.8 73.2 38 108.5 59.3 12.4 7.5 24.5 15.1 33.7 26.5s14.5 27.8 15.2 43.6c1.5 38.9-13.8 78.3-28.9 113.4l1.7-.4-60.6-25.6c-2.9-1.2-6.2-2.2-8.9-3.8-.9-.5.5 1.1.1.3a6.6 6.6 0 0 1 -.4-1.5c-1.2-5.9-3.2-11.8-4.8-17.6l-41.6-151.2-12.2-44.4a1.2 1.2 0 0 0 -2.4.6l32.1 116.7 20.4 74.1 5.6 20.6c1.1 3.7 1.2 4.2 4.9 5.8l66.6 28.1a1.2 1.2 0 0 0 1.7-.4c14.1-33 27.7-68.6 29.1-104.9.7-17.3-2-35.1-11.7-49.7-7.2-10.7-16.8-18.6-27.5-25.6-22.4-14.4-45.9-27-69.3-39.6q-24.9-13.5-50.1-26.5c-1.4-.7-2.7 1.4-1.2 2.2z" fill="#231f20"/><path d="m837.9 121.1v-42.6s-.8-26.1 39-38.9c25.7-8.4 53.9-19.5 70.4-26.3a81.7 81.7 0 0 1 30.9-6 82.8 82.8 0 0 1 31.8 6.4c11.2 4.8 28 12.9 52.1 27 14.3 8.4 28.8 16.4 43.5 24.2 17.5 9.4 43.9 27.6 46.5 52.9 4 38.4-11 118-30.9 137.9z" fill="#fff"/><path d="m839.2 121.1v-33.6c0-6.1-.4-11.8 1.8-17.6 6.8-18.3 25.9-25.7 43-31.4 12.5-4.2 25-8.8 37.4-13.6 10.5-4 20.9-8.8 31.5-12.3a80 80 0 0 1 41.2-2.5c10.4 2.1 20 6.6 29.5 11.2 23.2 11.3 45.2 25 67.9 37.4 18.9 10.4 39.3 20.4 51.6 38.9 10.6 15.8 9 35.8 7.5 53.9a320.2 320.2 0 0 1 -10.5 59.8 189.7 189.7 0 0 1 -9 26.3c-2.6 5.8-5.7 12.1-10.3 16.8-.3.3 1.8.3.6 0a4.1 4.1 0 0 1 -1.5-.7l-5.3-2.5-19.8-9.4-144.6-68.7c-36.6-17.4-73.2-34.9-109.8-52.2l-1.8-.8c-1.5-.7-2.7 1.4-1.3 2.1l95.9 45.6 152.7 72.5 34.7 16.5a1.4 1.4 0 0 0 1.5-.2c10.4-10.7 15.3-27 19.4-41a333.9 333.9 0 0 0 11.3-60.3c1.6-17.3 3.8-37.7-4.4-53.6-9.5-18.4-28-30.2-45.6-39.7-24.2-13-47.6-27.5-72.2-40-8.2-4.1-16.6-8.4-25.4-11.4a83.5 83.5 0 0 0 -38.1-3.8c-12.2 1.7-23.2 6.7-34.5 11.1s-24.8 9.7-37.4 14.1c-18.8 6.7-40.6 11.4-52.5 29.2a35.4 35.4 0 0 0 -6 20.6v39.3a1.3 1.3 0 0 0 2.5 0z" fill="#231f20"/><path d="m895.5 114.6c29.6-19.7 36-36.1 36-36.1h-23.9a319.5 319.5 0 0 0 45.3-45.3s7 27.9 27.4 57.2l-24.4-9.9s1.5 20.4 24.4 51l-32.1-12.7v32.9l-25.6-8.5 10.4-27.4z" fill="#407ba5"/><path d="m902.2 793.4s40.9 46.1 90.9 14.3l-29.6-227.5s-27.8 35.9-60-3.1z" fill="#df6352"/><path d="m901.3 794.3c7.6 8.6 18 15.4 28.4 19.9 21.5 9.3 44.3 6.9 64-5.4a1 1 0 0 0 .6-1.1l-10-77.2-15.9-122-3.7-28.3c-.1-.9-1.4-1.8-2.1-.8a42.2 42.2 0 0 1 -16.5 12.4c-16.5 6.7-31.3-3.2-41.8-15.6a1.3 1.3 0 0 0 -2.1.9l-.4 73.3-.7 116.2-.2 26.8a1.3 1.3 0 0 0 2.5 0l.4-73.2.7-116.3.2-26.8-2.1.9c10.5 12.5 25.6 22.6 42.4 16.8a42.1 42.1 0 0 0 19.3-13.7l-2.1-.9 14.8 113.3 10.2 78.1 3.3 26 1 7.5c.1.5.6 2.2.4 2.6s-3.6 1.5-3.8 1.6l-4.3 2.2a62.1 62.1 0 0 1 -26.6 6.2 67.4 67.4 0 0 1 -28.6-6.7 82 82 0 0 1 -25.6-18.4c-1-1.2-2.8.5-1.7 1.7z" fill="#231f20"/><path d="m831.4 493.7s-62.2 7 45.4 79.7c0 0 1 83.1-8 130.4s-13.9 89.6 33.4 89.6c0 0 28.8-149.8-12.2-267.5z" fill="#253447"/><path d="m831.4 492.5c-6.1.7-13.1 3.3-16.7 8.5-9.9 14.3 11.1 33.5 20.1 41.7 7 6.4 14.4 12.4 22 18.1 4.8 3.5 9.6 7 14.5 10.3.6.4 4.2 2.3 4.2 2.4s0 .8 0 1.1c1 3.5.1 8.6.1 12.1l-.3 20.8c-.4 18.7-1.2 37.4-2.7 56s-4.9 37.7-7.9 56.6c-2.8 17.1-6 36.9.6 53.5s21.1 20.9 36.9 21.1a1.2 1.2 0 0 0 1.1-.9c7-36.3 9.5-73.9 9.9-110.7.4-33.5-1.7-67-7.4-100a364.9 364.9 0 0 0 -12.6-51.5c-1-3.3-1.2-6-4.2-7.7l-8-4.4-49-26.8a1.2 1.2 0 0 0 -1.2 2.1l47.2 25.9 9.6 5.3c.4.2 1.4.5 1.7.9s1 3.7 1.3 4.6l2.7 8.4a389.2 389.2 0 0 1 12.1 56.5c8.8 60.3 6.8 122.8-2.2 183-.4 3-.9 6-1.4 9-.1.9-.1 3.7-.8 4.4v.3c1.1-.9-2.5-1-2.9-1a48.6 48.6 0 0 1 -11.9-2 28 28 0 0 1 -15.3-11c-7.4-10.8-7.3-25.4-6.4-37.9 1.2-16.1 4.9-31.8 7.3-47.7 4.5-30.6 5.6-61.8 6.1-92.7.1-8.6.6-17.4.1-26-.2-4-4.8-5.3-7.8-7.4-8.4-5.9-16.6-11.9-24.5-18.4-9.5-7.9-19.3-16.5-26.1-27-2.9-4.6-6-10.6-4.5-16.2s9-9.4 15.1-10.6l1.2-.2c1.5-.2 1.6-2.7 0-2.5z" fill="#231f20"/><path d="m837.9 259.4v-116.2l237 126.3s-23.4 73.4-14.9 107.2 23.9 25.4 23.9-11.5c0 0 2.5 28.2 16.9 32.8s28.9-16.3 14.5-47.7c0 0 30.3-27.4 57.7 0s9.5 86.2-27.4 95.6-41.8-10.4-41.8-10.4-27.7 66.8-127.8 93.6-244.3-64-144.6-200.1z" fill="#ffd2b3"/><path d="m839.2 259.4v-116.2l-1.9 1.1 47.3 25.2 96.6 51.5 80.2 42.7 9.6 5.2a19.6 19.6 0 0 0 2.5 1.3c.2 0 .4.3.6.3s-.7-.8-.4-1.3c-.6 1-.8 2.8-1.2 3.9-.9 3.1-1.8 6.2-2.6 9.3-2.7 9.7-5.1 19.6-7.2 29.5-4.2 20.4-8.8 43.5-4.1 64.3 1.5 6.6 4.8 21.1 13.1 22.9s10.1-8.2 11.3-13.1a85.4 85.4 0 0 0 2.1-20.8h-2.4c1.1 12.6 7.5 38.2 25 34.4 9.7-2.1 14-12.9 14.6-21.7s-1.1-16.1-4-23.5c-.1-.2-2.1-3.8-2.2-3.2s.5-.4.6-.5 2.7-2 3.4-2.5c10-6.9 22.6-10.9 34.6-7.6 14.4 3.9 25 16.6 28.6 30.7 6.1 23.5-3.7 52.5-23.7 66.7-11.4 8.1-29.1 12.1-42.6 7.7-4.9-1.5-10.6-5.2-12-10.6-.3-1.3-2-1-2.4 0-1.9 4.6-6.2 11.5-9.5 16.3a172.2 172.2 0 0 1 -34.3 36c-20.4 16.2-44 28.1-68.8 36.2-20.9 6.9-42.1 10.3-64.1 8.4-39.9-3.3-80.8-21.3-105.7-53.4a100 100 0 0 1 -21-55c-1.5-24 5.8-47.6 17.1-68.6a196.1 196.1 0 0 1 11.3-18.6c1.9-2.7 4.5-5.2 5.1-8.3 1.1-5.6 1.1-11.6 1.6-17.2l4.5-48.1.4-3.4c.1-1.6-2.4-1.6-2.5 0l-3.8 40.2-2.3 24.2c-.1 1.4.1 3.7-.4 5s-3.4 4.4-4.7 6.3-4.4 6.7-6.4 10.1c-12.7 21-21.9 44.8-22.5 69.6a101.3 101.3 0 0 0 15.5 56.4c21.5 34.3 60.8 55.1 100 61.6 47.3 7.8 95.7-7.6 135-33.8a182.7 182.7 0 0 0 42.3-38.6 147.8 147.8 0 0 0 10.3-14.6c1.5-2.5 4-5.8 4.7-8.6a5.9 5.9 0 0 1 .6-1.4h-2.4c2.1 7.9 11 12.2 18.3 13.4a55.4 55.4 0 0 0 49.8-18.1c22.3-25.9 25.6-77.5-12-91.8-15-5.7-32.7-.2-44.3 10.2-.5.3-.4 1-.2 1.5 4.7 10.6 8.1 23.4 4.1 34.8-2.5 7.1-9.1 13.6-17.2 11-11.4-3.7-15-21.1-16-31.6a1.2 1.2 0 0 0 -2.4 0c-.1 3.9-1.5 37.6-12.1 30.7-5.4-3.4-7.5-12.2-9-17.9a66.5 66.5 0 0 1 -2.2-16.7c-.6-24.8 5.3-49.8 11.6-73.6 1.6-6 3.2-12 5.1-17.8a1.2 1.2 0 0 0 -.6-1.4l-80.3-42.8-127.4-68-29.2-15.6a1.3 1.3 0 0 0 -1.9 1.1v116.2a1.3 1.3 0 0 0 2.5 0z" fill="#231f20"/><path d="m1041.6 475.3s171.2-12 30.3 102.6c0 0 62 138.9 55.7 177.2s-153.6 108.5-161.5 4.5c-4-93.6-30.3-271.5 75.5-284.3z" fill="#253447"/><path d="m1041.6 476.5a190.6 190.6 0 0 1 47.7 2.5c10.3 1.9 21.6 4.8 29.6 11.9s8.7 18.4 4.5 28.4-10.4 17.4-17 24.8c-10.7 12.1-22.9 22.7-35.3 32.9a1.2 1.2 0 0 0 -.2 1.5c16.9 38 32.5 77.1 44.8 116.9a321.5 321.5 0 0 1 9.2 36.3c1.5 8 3.3 17.6.8 25.6s-7.7 13.1-13 18a125.7 125.7 0 0 1 -25.4 18c-33.1 18.6-95.7 36.3-114.8-10.3-5-12.3-5.1-25.4-5.9-38.5s-1.8-27-2.6-40.5c-1.8-30-3.2-60.1-2-90.1 1.9-46.9 9.7-114 61.1-133a83.1 83.1 0 0 1 18.5-4.4c1.5-.2 1.5-2.6 0-2.4-16.6 2.1-32.1 8.5-44.2 20s-20.2 26.8-25.6 42.6c-13.4 39.2-13.6 82.6-12.4 123.6.7 21.1 2 42.2 3.4 63.3.6 9.4 1.2 18.7 1.7 28.1s1.1 18.3 3.9 27.2c4.4 13.9 13.7 25.6 27.3 31.4s28.6 5.7 42.7 3.4a153.5 153.5 0 0 0 46.4-16.2c12.5-6.5 24.8-14.7 34.3-25.2 7.4-8.2 10.7-16.3 10-27.3-1-16.5-5.8-33-10.6-48.8-10.8-35.4-24.6-70-39.1-104.1-1.7-4.1-3.5-8.3-5.3-12.4-.2-.4-1.2-2-1-2.3s-1.9 3.3.5 0c-.3.4 1.8-.8 1.9-.9a17.1 17.1 0 0 0 2.6-2.1l8.6-7.4c14.5-12.9 30.4-27.7 38.5-45.8 4-8.9 5.5-19.2-.5-27.6s-14.7-11.7-23.4-14.3c-17.9-5.4-37.4-6.1-56-5.4l-3.7.2c-1.6.1-1.6 2.5 0 2.4z" fill="#231f20"/><path d="m723.4 83-20.4-1.7a34.2 34.2 0 0 0 -30.5 13.9c-9.4 13.2-11.7 36.2 25.7 73.2a240.5 240.5 0 0 0 41.4 32.4c71.9 44.6 98.3 44.6 98.3 44.6v-102.2l-72.9-50.8z" fill="#26465f"/><path d="m723.4 81.7-20.2-1.6c-12.4-.8-24.6 4.3-31.8 14.5-9.8 13.7-6 30.7 1.7 44.4 15.9 28.2 43.8 49.5 70.9 66 22.2 13.5 45.4 26.5 69.9 35.5 7.4 2.7 16 6.1 24 6.1a1.2 1.2 0 0 0 1.3-1.2v-99.6c0-3.4-.8-3.7-3.5-5.7l-20.8-14.4-47.2-32.9c-4.6-3.1-10.7-3.5-16-4.7l-28-6.3a1.2 1.2 0 0 0 -.6 2.4l22.7 5.1c5.5 1.3 14.7 2.3 18.9 4.4s10.1 7.1 14.9 10.4l26.5 18.5 24 16.7c2 1.3 4.1 3.4 6.3 4.3a2.8 2.8 0 0 1 .9.7c-1.3-1.3-.3-1.2-.6-.1s0 4.7 0 6.8v94.4l1.2-1.2c-5.4-.1-11.2-2.1-16.4-3.7-19.6-6.3-38.3-15.9-56.2-25.9-28.6-16.1-56.1-34-77.5-59.2-11.8-13.9-25.7-34.6-17.6-53.6 5.4-13 19.1-20.1 32.8-19.2 6.8.4 13.6 1.1 20.4 1.6 1.6.1 1.6-2.3 0-2.5z" fill="#231f20"/><path d="m806.5 122.5 78 52.6s-24.2 27.2-46.6 38.2-54.7-8.9-27.4-54.7c0 0-27.3 28.6-42.8 4.4s38.8-40.5 38.8-40.5z" fill="#7d452a"/><path d="m805.8 123.5 68.3 46 9.8 6.6-.3-1.9c-11.9 13.4-25.8 26.4-41.4 35.4-7.5 4.4-15.5 6.9-24.1 4.5a22.5 22.5 0 0 1 -15.7-15.8c-3.8-13.4 2.6-27.7 9.2-39a1.2 1.2 0 0 0 -1.9-1.5c-10.7 11-30.3 21.3-40.9 4.6s12.2-28.1 24.1-33.4a97.1 97.1 0 0 1 13.9-5.3c1.5-.5.9-2.9-.7-2.4-13 3.9-28.1 10.2-37.2 20.7-5.2 6.1-6.8 13.6-2.7 20.8 5.4 9.5 15.2 13.2 25.5 9.8 7.3-2.5 14.3-7.5 19.7-13.1l-1.9-1.5c-9.5 16.2-18.8 43.9 2 56 19 10.9 39-5.7 52.8-17.6a214.8 214.8 0 0 0 21.1-20.5 1.3 1.3 0 0 0 -.3-1.9l-68.2-46-9.8-6.6c-1.3-.9-2.6 1.3-1.3 2.1z" fill="#231f20"/><path d="m950 624.9c-14.9 1-31.3-4.1-40.7-16-1-1.3-2.7.5-1.8 1.7 9.8 12.4 27 17.8 42.5 16.8 1.5-.1 1.5-2.6 0-2.5z" fill="#231f20"/><path d="m952.4 786.2c-17.6 1.1-34.4-13.3-44.6-26-1-1.2-2.8.6-1.8 1.8 10.7 13.1 28.2 27.8 46.4 26.7 1.6-.1 1.6-2.6 0-2.5z" fill="#231f20"/><path d="m837.9 121.1s-56.2-28.2-114.5-38.1c0 0 40.3 8.4 114.5 60.2s199 135.5 254.9 125.5c.9-.1 18.9-3.4 28.4-13z" fill="#407ba5"/><path d="m838.6 120.1c-35.9-18-75.4-31.5-114.9-38.3-1.5-.3-2.2 2-.6 2.4 13.6 2.8 26.9 9.2 39.2 15.2 34.1 16.5 65 38.1 96.1 59.5s61.4 41.3 93.3 60c29.4 17.1 59.9 33.8 92.3 44.4 24.9 8.2 57 13.4 78.1-6.7a1.2 1.2 0 0 0 -.2-1.9l-96-45.6-152.6-72.6-34.7-16.4c-1.5-.7-2.7 1.4-1.3 2.1l95.9 45.6 152.7 72.5 34.7 16.5-.2-1.9c-19.4 18.4-48.9 14.3-72 7.2-32.2-9.9-62.5-26.3-91.6-43.2-31.6-18.2-62.1-38.2-92.3-58.8s-61.3-42.8-94.8-59.8c-14.4-7.3-30-15.1-46-18.5l-.6 2.4a417.1 417.1 0 0 1 114.2 38c1.4.7 2.7-1.4 1.3-2.1z" fill="#231f20"/><ellipse cx="876.9" cy="299.4" fill="#fff" rx="52.3" ry="59.9"/><path d="m927.9 299.4c-.2 22.8-12 46.3-33.9 55.3s-44.4-.5-57.1-18.8-14.7-46-3.8-66.8 31.5-32.4 53.7-27.3c26 5.9 40.8 32.3 41.1 57.6a1.3 1.3 0 0 0 2.5 0c-.3-23.5-12.3-47.6-34.6-57.2s-46.1-.9-59.9 17.8-16.5 48.7-4.9 70.8c10.6 20.3 32.7 33.6 55.8 28.7 27.5-5.9 43.3-33.6 43.6-60.1a1.3 1.3 0 0 0 -2.5 0z" fill="#231f20"/><circle cx="970.1" cy="305.3" fill="#fff" r="59.9"/><path d="m1028.8 305.3c-.2 24.4-15.4 46.7-38.4 55.1a59.3 59.3 0 0 1 -65.3-17.4c-15.8-18.8-18-46.5-5.4-67.7a59.3 59.3 0 0 1 61.7-27.6c27.5 5.4 47.1 29.8 47.4 57.6a1.3 1.3 0 0 0 2.5 0 61.2 61.2 0 1 0 -49.9 60.1c28.8-5.3 49.6-31 49.9-60.1a1.3 1.3 0 0 0 -2.5 0z" fill="#231f20"/><path d="m912.7 343s-23.5-17.3-42.7 5.3c-5.7 6.7-7.2 16.2-3.1 23.9 10.7 20.5 45.8 5.5 45.8 5.5" fill="#ffb495"/><path d="m913.3 341.9a32.4 32.4 0 0 0 -45.2 6.8c-6.5 8.7-6.5 21.8 1.7 29.5 6.5 6.1 16.1 6.7 24.5 5.6a73 73 0 0 0 19-5c1.5-.6.2-2.8-1.2-2.2-13 5.5-38.8 10.9-45.2-7.5-5.6-16 11.2-31.3 26.4-31.2a33.4 33.4 0 0 1 18.8 6.1c1.3 1 2.5-1.2 1.2-2.1z" fill="#231f20"/><path d="m986.3 377.9c22.2-.7 41.3-16.9 49.5-36.7.6-1.5-1.8-2.1-2.4-.7-7.8 18.8-26.1 34.3-47.1 35-1.6 0-1.6 2.5 0 2.4z" fill="#c38a6f"/><path d="m847.3 222.8a37.8 37.8 0 0 1 36.9-7c1.5.5 2.1-1.9.6-2.4a40.2 40.2 0 0 0 -39.3 7.7c-1.1 1 .6 2.8 1.8 1.7z" fill="#231f20"/><path d="m846.3 436.1a9.9 9.9 0 0 1 -6.4-16c10.5-12.7 30.5-28.7 61.7-23.7s47.1 23.7 56.2 38.1a9.9 9.9 0 0 1 -9.6 15.1z" fill="#fff"/><path d="m846.6 435c-3.9-.8-6.9-3.3-7.6-7.4s1.6-6.5 4-9.2a71.8 71.8 0 0 1 11.6-10.4 62 62 0 0 1 36-11.3c26.3.2 51 14.8 65.1 36.7 2 3.1 3.2 6.1 1.7 9.7s-5.2 5.5-9.2 5.2a16 16 0 0 1 -2.3-.3l-15.3-2-49.9-6.5-34.4-4.6c-1.6-.2-1.6 2.3 0 2.5l91.9 12.1c3.9.5 8 1.5 11.9 1.4a11.4 11.4 0 0 0 10.1-8c1.6-5.5-1.7-9.9-4.7-14.1-16.5-22.7-44.2-37.3-72.6-34.1a64.9 64.9 0 0 0 -37.3 17.5c-3.7 3.5-8.8 7.9-9.2 13.3s3.9 10.7 9.6 11.8c1.5.3 2.2-2 .6-2.3z" fill="#231f20"/><path d="m901.6 396.4-10 45.7" fill="#fff"/><path d="m900.4 396.1-10 45.7c-.3 1.5 2 2.2 2.4.6l10-45.6a1.3 1.3 0 0 0 -2.4-.7z" fill="#231f20"/><path d="m939.8 413.7-8 33.7" fill="#fff"/><path d="m938.6 413.4-8 33.7c-.3 1.5 2 2.2 2.4.6l8-33.7c.3-1.5-2-2.2-2.4-.6z" fill="#231f20"/><path d="m861.9 401.6v36.8a1.3 1.3 0 0 0 2.5 0v-36.8a1.3 1.3 0 0 0 -2.5 0z" fill="#231f20"/><path d="m1009.7 655.5s-9.5-101 23.9-105 24.9 105 24.9 105z" fill="#df6352"/><path d="m1010.9 655.5c-1-11.4-1.3-23-1.2-34.4.2-18.6.8-39.9 9.3-56.9 3.2-6.2 8.3-12.3 15.7-12.6s11.2 4.9 14.1 10.4c8.2 15.9 8.8 36.3 9.3 53.9.3 13.2.2 26.5-.8 39.6l1.2-1.2h-48.8a1.3 1.3 0 0 0 0 2.5h48.8a1.2 1.2 0 0 0 1.2-1.3 341.5 341.5 0 0 0 .9-36.5c-.4-18.5-1-39.3-8.8-56.4-2.6-5.6-6.6-11.4-13-13s-12.7 1.3-16.9 5.9c-5.6 6.1-8.3 14.6-10.2 22.5-2.5 10.1-3.5 20.5-4.1 30.8a316.4 316.4 0 0 0 .9 46.7c.1 1.6 2.6 1.6 2.4 0z" fill="#231f20"/><path d="m1009.7 655.5s16.4 281.4 56.8 245.3c0 0 19.9 16.8 11.4-6.2 0 0 25.9 15.5 14.5-14-14.9-38.8-24.9-79.3-28.7-120.7-4.9-53.5-5.2-104.4-5.2-104.4z" fill="#ffd2b3"/><g fill="#231f20"><path d="m1008.5 655.5c1.8 32.1 4.7 64.1 8.3 96 2.8 25.8 6.1 51.5 10.7 77 3.6 20 7.5 40.8 15.7 59.5 4.2 9.5 12.9 23.5 24.1 13.6h-1.7c3 2.5 6.9 5.8 10.9 6.2 7.6.9 3.9-10 2.6-13.5l-1.8 1.4c4.2 2.5 11.9 6.4 16.6 3.1s2.8-8.2 1.8-12c-2.8-11.7-8.3-23.1-11.9-34.6a447.4 447.4 0 0 1 -17.3-77.5c-3.2-25.6-4.5-51.5-5.6-77.2-.6-14-1.1-28-1.2-42a1.2 1.2 0 0 0 -1.2-1.2h-48.8a1.3 1.3 0 0 0 0 2.5h48.8l-1.2-1.3c.2 32.9 1.9 65.7 4.6 98.4a452 452 0 0 0 11.2 69.4c2.9 11.8 6.2 23.4 10 34.8s8.4 20.1 10.5 30.5c1.3 6.3-.7 10-7.3 8.3a28.4 28.4 0 0 1 -7.8-3.4 1.3 1.3 0 0 0 -1.8 1.4c.7 2 3.4 7.7 1.9 9.8s-3.4.3-4.7-.4a29.2 29.2 0 0 1 -6.6-4.4 1.2 1.2 0 0 0 -1.7 0c-20.3 17.8-33.8-61.7-35.4-70.3-8.5-46.5-13.2-93.8-16.9-140.9-.9-11-1.7-22.1-2.4-33.2-.1-1.5-2.5-1.6-2.4 0z"/><path d="m1055.3 882.9c1.1 7.1 5.4 13.7 10.3 18.7 1.1 1.2 2.8-.6 1.7-1.7-4.6-4.8-8.6-11-9.6-17.7-.2-1.5-2.6-.9-2.4.7z"/><path d="m1067.1 881.5a1.3 1.3 0 0 0 -1.9.7c-.2.8.3 1.3.7 1.8 3.3 4.1 7.4 7.7 11.1 11.5 1.2 1.1 2.9-.7 1.8-1.8-3.3-3.3-6.7-6.6-9.9-10a7.3 7.3 0 0 0 -1.4-1.6c.1 0-.7 2.1-1.7 1.5 1.4.8 2.7-1.3 1.3-2.1z"/><circle cx="884.5" cy="301.4" r="11"/><circle cx="959.2" cy="308.3" r="11"/></g></svg>