<svg height="1080" viewBox="0 0 1920 1080" width="1920" xmlns="http://www.w3.org/2000/svg"><path d="m826.7 885.5v99.7h35v-99.7a17.5 17.5 0 0 0 -17.5-17.5 17.6 17.6 0 0 0 -17.5 17.5z" fill="#ffd2b3"/><path d="m825.5 885.5v99.7a1.2 1.2 0 0 0 1.2 1.2h35a1.2 1.2 0 0 0 1.2-1.2v-89.3c0-7.1.9-14.8-3.2-20.9-10.4-15.3-33.5-7.2-34.2 10.5-.1 1.6 2.4 1.6 2.5 0 .4-10.2 9.6-18.2 19.9-15.8 7.6 1.8 12.3 8.5 12.5 16.1.2 5.6 0 11.2 0 16.8v82.6l1.3-1.2h-35l1.3 1.2v-99.7a1.3 1.3 0 0 0 -2.5 0z" fill="#231f20"/><path d="m863.7 1022.2-2-41.5a69 69 0 0 1 -35 0v22.9s-65.5-9-96.3 0c0 0-12.3 58.1 133.3 18.6z" fill="#fff"/><path d="m865 1022.2-2.1-41.5a1.3 1.3 0 0 0 -1.6-1.2c-10.9 3.4-23.3 2.7-34.2 0a1.3 1.3 0 0 0 -1.6 1.2v22.9l1.6-1.2c-12.3-1.7-24.6-2.7-37-3.4-19.7-1.1-40.8-2-60 3.4a1.4 1.4 0 0 0 -.9.9c-1.3 6.2.9 13.2 4.6 18.2 11.7 15.7 36.3 16.3 53.8 15.6 25.9-1.1 51.5-7 76.5-13.7 1.5-.4.8-2.8-.7-2.4-28.2 7.6-57.8 14.6-87.2 13.7-12.6-.4-27.5-2.2-37.2-11.2a22.5 22.5 0 0 1 -7.6-15.8c0-1-.1-3.3.2-3.7s.9.2 1.5.2c2.9-.3 6-1.3 8.9-1.7a143.7 143.7 0 0 1 19.6-1.5 408.8 408.8 0 0 1 64.8 3.8 1.3 1.3 0 0 0 1.6-1.2v-22.9l-1.6 1.2c11.4 2.8 24.3 3.5 35.6 0l-1.6-1.2 2.1 41.5a1.3 1.3 0 0 0 2.5 0z" fill="#231f20"/><path d="m730.4 1050.3c38.4 6.8 90.4-1.7 117-7.1a20.3 20.3 0 0 0 16.3-21c-145.6 39.5-133.3-18.6-133.3-18.6-30.8 9-53.7 37.3 0 46.7z" fill="#231f20"/><path d="m730.1 1051.5c27.3 4.7 55.5 2.5 82.8-1.2 11.5-1.5 23-3.2 34.3-5.8a22.2 22.2 0 0 0 17.8-22.3 1.3 1.3 0 0 0 -1.6-1.2c-22.3 6-45 11.2-68.1 13.1-12.9 1.1-26.4 1.3-39-2s-22.8-9.6-24.7-22a21.4 21.4 0 0 1 0-6.2 1.2 1.2 0 0 0 -1.5-1.5c-11.9 3.6-29.3 11.2-32.8 24.7-4.2 16.8 21.6 22.4 32.8 24.4 1.5.3 2.2-2.1.6-2.4-9.8-1.8-36.1-7-30.6-22.6 4.2-11.8 19.7-18.4 30.6-21.7l-1.5-1.5c-1.3 6.2.9 13.2 4.6 18.2 11.7 15.7 36.3 16.3 53.8 15.6 25.9-1.1 51.5-7 76.5-13.7l-1.6-1.2c.1 6.7-2.7 13.1-8.4 16.9s-9.6 3.5-14.6 4.4c-10.9 2.1-21.9 3.8-32.9 5.2-25 3-50.9 4.7-75.9.4-1.5-.2-2.2 2.2-.6 2.4z" fill="#231f20"/><path d="m943.4 990.2c-3.6-26.3-6.3-76.1-6.6-103.3a19.1 19.1 0 0 0 -19.1-18.9 19.2 19.2 0 0 0 -19.1 18.9c-.4 31.5 4.3 103.3 4.3 103.3z" fill="#ffd2b3"/><path d="m944.6 990.2c-2.9-22.1-4.2-44.4-5.3-66.5-.5-10.8-1-21.5-1.2-32.3-.2-9.2-2-17.6-10.9-22.3a20.6 20.6 0 0 0 -22.3 2.3c-7.4 6-7.6 14.4-7.5 23.1.2 19 1.1 38.1 2.1 57.1.6 12.8 1.4 25.7 2.2 38.6a1.2 1.2 0 0 0 1.2 1.2h40.5a1.3 1.3 0 0 0 0-2.5h-40.5l1.3 1.3c-1.7-26.2-3.2-52.5-4-78.8-.2-7.5-.4-15.1-.3-22.7.1-11.6 9.2-21.6 21.5-19.1a18.3 18.3 0 0 1 12.1 9.1c2.5 4.7 2.1 10 2.2 15.1.2 9.7.6 19.4 1.1 29.1 1.1 22.4 2.4 45 5.3 67.3.2 1.5 2.7 1.6 2.5 0z" fill="#231f20"/><path d="m955.6 1040.4c-3.7-13.2-8.8-40.7-13-56.5 0 0-20.3 5.9-40.2 0l2.5 32.9s-71.1-4.7-100.9 7.2c0 0-26.9 49.8 151.6 16.4z" fill="#fff"/><path d="m956.8 1040.1c-5.2-18.6-8.1-37.8-13-56.6a1.3 1.3 0 0 0 -1.6-.8 74.2 74.2 0 0 1 -39.4 0 1.3 1.3 0 0 0 -1.6 1.2l2.5 32.9 1.2-1.3a436.5 436.5 0 0 0 -68.6.7 170.1 170.1 0 0 0 -21.4 3.3c-3.1.6-9.9 1.4-12 3.9-.7.8-.9 2.4-1.2 3.3-4.7 20.6 26.4 24.9 39.8 26 38 2.9 77.2-4.1 114.5-11.1 1.5-.2.9-2.6-.7-2.3-34 6.3-68.9 12.1-103.6 11.4-13.3-.3-30.1-.8-41.4-9-4.4-3.1-7.2-7.9-6.4-13.3a15.1 15.1 0 0 1 1-3.5c.8-.8 4.1-1.4 5.7-1.8a125.3 125.3 0 0 1 20.3-3.8c24.4-3 49.5-2.9 74-1.3a1.2 1.2 0 0 0 1.3-1.2l-2.5-32.9-1.6 1.2a77.4 77.4 0 0 0 40.8 0l-1.5-.9c4.9 18.7 7.8 37.9 13 56.6a1.3 1.3 0 0 0 2.4-.7z" fill="#231f20"/><path d="m804 1071.7c40 9 113.3-7.9 142.6-15.5a12.6 12.6 0 0 0 9-15.8c-178.5 33.4-151.6-16.4-151.6-16.4-29.9 11.8-50.7 36.3 0 47.7z" fill="#231f20"/><path d="m803.7 1072.9c22.1 4.9 45.7 2.6 68-.4a616.9 616.9 0 0 0 67.4-13.1c4.4-1.1 9.5-1.7 13.1-4.7s5.8-9.1 4.6-14.6a1.1 1.1 0 0 0 -1.5-.8c-26.9 5-54 9.3-81.4 10.9-15.2.9-31 1.2-46.1-1.8-9.4-1.9-24.5-6.5-24-18.6a13.3 13.3 0 0 1 1.3-5.2c.4-.8-.4-2.2-1.4-1.8-11.2 4.5-28.2 12.4-31.3 25.5-3.8 16 20.5 22.1 31.3 24.6a1.2 1.2 0 0 0 .6-2.4c-9.5-2.2-34.1-8-29.1-22.8 3.9-11.4 18.8-18.4 29.1-22.5l-1.4-1.8a15.2 15.2 0 0 0 1.5 16c4.1 5.5 10.9 8.3 17.3 10.1 13.6 3.8 28.2 4 42.3 3.6 30.8-.9 61.6-5.8 92-11.5l-1.6-.8c1.2 5.3-.8 10.8-5.9 13.4-2.2 1.1-4.9 1.5-7.3 2.1l-15.4 3.7q-19.3 4.5-39 7.8c-26.6 4.4-55.8 8.6-82.5 2.7-1.5-.3-2.2 2.1-.6 2.4z" fill="#231f20"/><path d="m789.6 835s20 35.8-6.7 35.8c-55.8 0-73.4-16.4-81.3-35.8s22.3-37.3 22.3-37.3-19.9-36.3 0-72.6c18.4-33.4 53-85 58.3-157.1a20.2 20.2 0 0 1 20.1-18.8h.2a20.1 20.1 0 0 1 20.1 21.5l-16.6 231.5z" fill="#ed2351"/><path d="m788.5 835.7c3.7 6.6 7 14.7 7.1 22.4 0 6.2-3.3 10.4-9.6 11.3-9.4 1.3-20.2-.1-29.6-1.3-14.2-1.8-29.2-5.5-40.3-14.8-7.4-6.1-15.9-17.3-14.4-27.4 1.7-11.7 13.3-21.4 22.9-27.1a1.4 1.4 0 0 0 .4-1.7c-12.1-22.4-11.2-51 .9-73s24.5-42.5 34.3-65a306.3 306.3 0 0 0 15-42.5c2.1-7.9 3.9-16 5.3-24.1s1.8-17.2 3.1-25.7c2.8-18 27.7-22.4 35.9-5.8 2 4.1 2 8.4 1.6 12.9l-6 84.5-8.1 111.8-2.1 29.6a16.2 16.2 0 0 1 -.1 2.2c-.2.6.2-.8 0-.2a14.7 14.7 0 0 1 -1.4 2.8l-12 24-2.9 5.8c-.7 1.4 1.4 2.7 2.1 1.3l10-19.9c2.1-4.3 5.6-9.1 6.6-13.8.6-2.3.4-5 .6-7.4l1.2-16.6 8.2-114.3 6.4-89.8c.3-4.4.4-8.5-1.3-12.7a21.6 21.6 0 0 0 -28.4-11.5c-15.2 6.5-13 24.4-15.1 37.9a277.7 277.7 0 0 1 -12.7 50c-9.5 26.7-23.1 51.4-37.1 76-7.3 12.8-13.7 25.2-14.9 40.2a84.8 84.8 0 0 0 6.1 38.6 52.8 52.8 0 0 0 2.7 6l.4-1.7c-9.4 5.6-19.4 14.2-23.1 24.7s3.6 23.5 11.5 31.2c10.6 10.5 25.7 15.1 40.1 17.3 10.8 1.7 22.5 3 33.4 2.1 5.4-.5 10.4-3 12.1-8.5 2.9-9.3-2.2-21-6.7-29.1-.7-1.4-2.9-.1-2.1 1.3z" fill="#231f20"/><path d="m723.1 798.6c4.4 5.1 9.1 10.1 13.9 14.9a1.2 1.2 0 1 0 1.7-1.7c-4.8-4.8-9.4-9.8-13.9-14.9-1-1.2-2.8.5-1.7 1.7z" fill="#231f20"/><path d="m735.9 180.8s-60.2-99.1 44-158.3a116.7 116.7 0 0 1 27.7-10.8 187.9 187.9 0 0 1 46.6-6c43.2-.2 150.3 4 215.8 45.7 67.9 43.2 81.6 146.3 82.2 150.9 2.1 13.9 4 67-20 262.8 0 0-5.5 46.7-2.5 63.6 1 5.8 4.1 11.5 7.8 16.4a67.5 67.5 0 0 0 23.5 19.6c14.7 7.6 46.9 26.7 60.7 54.5 20.1 40.7 5.5 97.6-62.7 111.4 0 0 34.3 111.4-102.9 108.9z" fill="#7d452a"/><path d="m737 180.1c-11.7-19.2-17.7-43.6-17.2-65.9a96 96 0 0 1 21.5-58.5c19.9-24.6 48.7-40 79.5-45.7 24.1-4.5 49.1-3.4 73.5-2a564.6 564.6 0 0 1 78.9 9.5c27.5 5.4 55 13.1 80.2 25.8a151.3 151.3 0 0 1 57.3 50.4c20.8 30.6 33.4 67.2 39.5 103.6 1.9 11.3 2 22.9 1.9 34.4-.5 33-3.4 66-6.4 98.8-2.7 29.1-5.8 58.1-9.1 87.1-2.7 23.2-5.9 46.3-7.8 69.5-.8 11.3-1.6 22.6-1.1 33.9.6 12.8 6.2 23.3 15.3 32.3s19.8 13.4 30.1 19.7a160.5 160.5 0 0 1 31.5 24.7c16.4 17 25.9 39.4 23.9 63.2-1.9 22.1-14.2 41.7-32.7 53.9-11.2 7.4-24 11.9-37.1 14.6a1.3 1.3 0 0 0 -.9 1.5c5.4 17.6 5.4 38.3-.3 55.7a67.3 67.3 0 0 1 -31.4 37.9c-10 5.6-21.2 9-32.5 11.1a160.9 160.9 0 0 1 -22 2.4q-5.8.3-11.7.3a21.2 21.2 0 0 0 -2.8.5c-1.6-.9-3.2-6.6-4-8.2l-10.1-20.9-35-71.9-49-100.9-56.5-116.1-57-117.5-51-104.8-38.1-78.3c-6.2-12.8-12.2-25.7-18.6-38.4a13 13 0 0 1 -.8-1.7c-.7-1.4-2.9-.1-2.2 1.3l8.6 17.7 23.3 47.8 34.5 71 41.9 86.3 46.1 94.9 46.4 95.4 43.4 89.3 36.6 75.2 26.4 54.3c4.1 8.5 7.6 17.7 12.5 25.7l.5 1.1a1.3 1.3 0 0 0 1.1.6c34 .6 74.3-5.3 95.1-35.5 12-17.6 14.6-39.9 11.9-60.6a86.3 86.3 0 0 0 -2.9-14.3l-.8 1.5c23.6-4.9 46.5-16.3 60.1-37 10.9-16.7 14.1-37.4 10-56.8-5.3-25.2-22.8-44.5-43.2-59.2s-54.1-25.3-56-56.3c-1.2-18.9.9-38.3 3.1-57.1 3.8-32.5 7.7-65 11.1-97.6 4.3-40.9 8.2-81.9 9.7-123 .5-14.2 1.2-28.8-.8-42.8a276.3 276.3 0 0 0 -28.1-88.6c-11.2-21.5-25.9-41.5-45.2-56.4-21.6-16.8-48.3-27-74.4-34.4-48.1-13.5-98.9-18.1-148.8-18.1-33.8-.1-66.6 7.3-94.1 27.6-18.8 13.9-34.2 32.4-41.1 55-9 29.4-3.3 62 10.3 89.1.9 1.8 1.8 3.5 2.8 5.2s3 .1 2.2-1.3z" fill="#231f20"/><path d="m784.1 882.3c-4.5-9.2 5.5-47.3 5.5-47.3l139.9 4.6 20.2 48.1s-110.4 33.4-165.6-5.4z" fill="#703366"/><path d="m785.2 881.6c-1.9-4.3-1-10.1-.6-14.6.7-6.3 1.9-12.5 3.1-18.6.8-3.8 2.5-8 2.7-11.8.2-2.2.6.1-.8-.3.4.1.8-.1 1.1 0s4 .1 5.7.2l9.7.3 27 .9 64.9 2.1 23.2.8c2.1.1 4.3.3 6.4.2a7.6 7.6 0 0 0 1.5.1c.8-.4-.6-1.3-.7-.7-.2 2.2 2.9 6.9 3.7 8.9l6.9 16.3 9.5 22.7.9-1.6a315.3 315.3 0 0 1 -39.4 8.8c-27.1 4.5-55.4 6.7-82.5 2.1-15.2-2.6-30.1-7.4-42.8-16.2-1.3-.9-2.5 1.2-1.2 2.1 23 15.9 52.5 19.4 79.7 19 24.3-.4 48.5-4 72-9.5 5-1.2 9.9-2.4 14.8-3.9a1.3 1.3 0 0 0 .9-1.5l-20.2-48.1c-.3-.5-.6-.9-1.2-.9l-122.7-4-17.2-.6a1.2 1.2 0 0 0 -1.2.9c-1.9 7.2-3.5 14.5-4.7 21.8s-4.1 18.7-.7 26.4c.7 1.4 2.8.2 2.2-1.3z" fill="#231f20"/><path d="m796 642.6s1 51.2-5.4 66.6-28.9 56.2-32.9 68.6-4.4 41.3 31.9 57.2 100.1 20.1 139.9 4.6l-8.9-273.9h-124.6z" fill="#ed2351"/><path d="m794.8 642.6c.3 18.2.3 37-2.6 55-1.6 10.2-6.2 18.9-10.8 28.1-5.9 11.9-12.1 23.7-17.9 35.7-3.4 7.2-7.3 14.6-8.4 22.7a45 45 0 0 0 4.2 25.8c12.2 25 44 33.1 69.1 37.3 33 5.5 69.7 5.7 101.4-6.4a1.3 1.3 0 0 0 .9-1.2l-3-92.8-4.8-147.2-1-33.9a1.4 1.4 0 0 0 -1.3-1.2h-124.6a1.3 1.3 0 0 0 -1.2 1.2v76.9a1.3 1.3 0 0 0 2.5 0v-76.9l-1.3 1.3h124.6l-1.2-1.3 2.4 74.3 4.3 134.6 1.6 49.3.4 12.8c0 .6.4 2.2.1 2.7a6 6 0 0 0 -1.5 0c-3.7.2-8 2.6-11.6 3.5-34.2 8.6-72.5 6.8-106.3-2.5-16-4.4-33-11-43.2-24.8a42.8 42.8 0 0 1 -7.9-31.9c1.5-10.3 7.4-20 12-29.2 6.3-12.8 13.1-25.5 19.1-38.5 9.6-20.3 8.6-44.7 8.5-66.7v-6.7a1.3 1.3 0 0 0 -2.5 0z" fill="#231f20"/><path d="m774.5 489.3s-23.4 26.9 0 50.4 28 55.2 100.8 55.2c62.5 0 103.9-70.5 114.5-90.7a42.2 42.2 0 0 0 4.9-17c.7-11.7-3.3-27.2-31.6-21.3-43.7 9.1-188.6 23.4-188.6 23.4z" fill="#ed2351"/><g fill="#231f20"><path d="m773.7 488.4a46.2 46.2 0 0 0 -9.4 18.1c-3.5 12.7.4 24.6 9.4 34 11.1 11.7 19.3 26.1 31.8 36.4 18 14.9 41.9 18.6 64.5 19.1 25.4.6 48.1-8.4 67.8-24.2 17-13.7 31.1-31 42.8-49.3 8.7-13.6 20.7-31.9 13.3-48.4s-33.4-8.7-48-6.4c-21.2 3.4-42.5 6.1-63.9 8.6-35.1 4.3-70.3 8-105.5 11.6l-2 .2c-1.5.1-1.5 2.6 0 2.4q40.5-3.9 80.8-8.6c21.1-2.4 42.1-4.9 63.2-7.7 8.9-1.2 17.9-2.5 26.8-3.9s16.6-3.5 25-4.2c10.1-1 20.3 1.9 22.6 12.9s-1.8 20.4-6.7 29.3a235.5 235.5 0 0 1 -31.4 44.1c-15.7 17.1-35 32.1-57.7 38.3-13.3 3.6-27.2 3.4-40.9 2.1-11.8-1.1-23.7-3.5-34.4-8.5-15.1-7.1-24.9-19.2-34.9-32-5.7-7.4-13.9-14.2-18.2-22.5-5.8-11.1-3.2-23.9 3-34.3a38.7 38.7 0 0 1 3.7-5.3c1.1-1.2-.7-3-1.7-1.8z"/><path d="m805.1 517.2c6.3 5.5 14.9 9 22.8 11.4 21.4 6.6 44.5 4.7 65.8-1.7 19.8-5.9 38.3-15.6 55.6-26.9 1.3-.9.1-3-1.2-2.2-37.6 24.5-91.1 46.3-134.2 22.3a37.3 37.3 0 0 1 -7-4.7c-1.2-1-3 .7-1.8 1.8z"/><path d="m885.1 576.6c8.2-14.1 8.3-33.8 7.1-49.4-.1-1.5-2.5-1.6-2.4 0 1.1 15.3 1.1 34.4-6.8 48.1-.8 1.4 1.3 2.7 2.1 1.3z"/><path d="m946.4 548c5-13.9 6.8-34-6.2-44.1-1.3-.9-3 .8-1.8 1.8 12.3 9.5 10.3 28.5 5.6 41.6-.5 1.5 1.9 2.1 2.4.7z"/><path d="m809.7 555.7a76.3 76.3 0 0 1 -1.4-13.5c-.2-6.3-.3-16.3 6.2-19.7 1.4-.7.1-2.9-1.3-2.1-11 5.8-7.8 26.1-5.9 36 .3 1.6 2.7.9 2.4-.7z"/></g><path d="m846.3 498.9v32.3s34.8 1.5 58.1-9.4v-30.6z" fill="#ffd2b3"/><path d="m845 498.9v32.3a1.4 1.4 0 0 0 1.3 1.3c19.5.7 40.9-1.5 58.8-9.7a1.2 1.2 0 0 0 .6-1v-30.6a1.2 1.2 0 0 0 -1.3-1.2l-58.1 7.7c-1.6.2-1.6 2.6 0 2.4l58.1-7.7-1.2-1.2v27.5c0 .6.3 2.2 0 2.7l-5.7 1.9c-16.1 5.6-34.2 7.4-51.2 6.7l1.2 1.2v-32.3a1.3 1.3 0 0 0 -2.5 0z" fill="#231f20"/><path d="m1070 51.4s50.8-19.4 79.4-6.6c7.6 3.5 12.5 11.2 11.4 19.5-1.6 12.5-14.7 13.9-14.7 13.9s10.2 26.7-29.2 22.8z" fill="#7d452a"/><path d="m1070.4 52.6a159.3 159.3 0 0 1 50-10.8c11.8-.6 29.3-.1 36.5 11s.9 22.8-10.8 24.2c-.7.1-1.5.7-1.2 1.5a18.1 18.1 0 0 1 .4 11.5c-1.3 4-4.5 6.7-8.3 8.2a29.3 29.3 0 0 1 -8.7 1.8 36.2 36.2 0 0 1 -4.6.2c-1.3 0-4.9.4-6-.1s-2.6-2.8-3.5-3.8l-8.1-8.5-21.4-22.7-13.8-14.6c-1.1-1.2-2.8.6-1.8 1.7l36.7 38.9 8.2 8.6c2.2 2.3 2.4 2.6 6.1 2.8 9.2.6 22.1-.2 26.8-9.8 2.2-4.4 2.1-10.2.4-14.8l-1.2 1.6c19.1-2.3 20.9-27.2 4.6-35.4-18.8-9.4-43.8-4.5-63.2.6a159.1 159.1 0 0 0 -17.8 5.5c-1.5.5-.8 2.9.7 2.4z" fill="#231f20"/><path d="m1146.4 77a28.3 28.3 0 0 1 -11.9-7c-1.1-1.1-2.9.7-1.7 1.8a31.1 31.1 0 0 0 13 7.6c1.5.5 2.2-1.9.6-2.4z" fill="#231f20"/><path d="m1027.4 30.9s43.8 89.6 11.9 286.5l36.1 10.3s33.9-154-5.4-276.3c0 0-23.2-14.2-42.6-20.5z" fill="#ed2351"/><path d="m1026.4 31.5c6.2 12.9 9.6 27.7 12.7 41.5 9.3 42.3 11.6 86.2 10.3 129.3a883.7 883.7 0 0 1 -11.3 114.8 1.3 1.3 0 0 0 .9 1.5l36 10.3a1.3 1.3 0 0 0 1.6-.8c5.8-26.5 8.9-53.8 11.2-80.8 4.6-55.9 3.7-113.3-8.9-168.2-1.9-8.1-4-16.2-6.5-24.2-1.4-4.6-1.9-4.7-5.9-7-12.3-7.1-25.2-13.7-38.7-18.2-1.6-.5-2.2 1.9-.7 2.4 12.6 4.2 24.6 10.2 36.2 16.8a50.6 50.6 0 0 1 4.4 2.6c1.6 1 1.3.7 1.9 2.5 2.1 7 4.1 14 5.8 21.1 6.9 28.3 10.4 57.4 11.7 86.5 2.1 46.3-1 93-8.1 138.8-1.4 9-2.9 18.1-4.8 27l1.5-.8-36.1-10.4.9 1.5c9.7-60.4 14.7-122 9.9-183.1-2.4-30.6-6.9-61.7-16.7-90.9a109.1 109.1 0 0 0 -5.2-13.4c-.7-1.5-2.8-.2-2.1 1.2z" fill="#231f20"/><path d="m734.2 244.2c-14.4-145.9 63.3-166 63.3-166s-2.4 185.5 203.4 271.2c0 0 17.6-32 38.4-32 17.6 0 53.1 7.9 56.6 46.2a65.8 65.8 0 0 1 -13.5 45.8c-26.4 34.8-65.7 20.3-75 10.9 0 0-72.9 115.1-232.9 69s-43.8-183.7-43.8-183.7z" fill="#ffd2b3"/><path d="m735.4 244.2c-3.8-39.6-3.1-82.8 15.1-119.2 8.5-17 21.3-32.7 38.3-41.8a42.7 42.7 0 0 1 9.1-3.8l-1.6-1.2c-.3 23.1 5.1 47 11.7 69a306.1 306.1 0 0 0 85.1 135.9c31.4 29 68.2 51.1 107.5 67.5a1.3 1.3 0 0 0 1.4-.5c6-10.8 14.7-22 25.6-28.1s29.7-2.5 41.6 3.5c42.7 21.5 27.8 89.9-14.7 102.6-14.4 4.4-34.9 2.3-46.3-8.6a1.2 1.2 0 0 0 -1.9.2c-11.9 18.7-30.3 34.5-48.5 46.6-45.2 30.1-100.2 38.2-153.2 28.8-47-8.4-109.1-30.2-113.2-86.2-2.3-32.4 13.3-64.5 31.3-90.5 2.3-3.3 4.7-6.7 7.3-9.9 1.2-1.6 1.8-2.2 2-4.2 1-8.2 1-16.7 1.4-25l1.7-29.7.3-5.4c.1-1.6-2.4-1.6-2.5 0l-2.9 52c-.1 3-.2 5.9-.5 8.9 0 .8.9-.9-.2.3s-4.1 5.2-6 7.9c-18.3 25.3-33.9 56-34.5 87.8a75.8 75.8 0 0 0 18.2 51.5c18.4 21.3 46.3 32.4 72.9 39.5 55.3 14.8 114.9 12.7 165.7-15.5a194 194 0 0 0 43.6-32.8 180.9 180.9 0 0 0 12.5-13.8c1.9-2.3 4.9-5.2 6-8l.7-1-1.9.2c14.2 13.8 40.2 14.5 57 6 27.5-13.9 41.8-51.7 29.6-80.2-8.5-20-29.9-29.7-50.6-30.7-11.3-.6-20.3 5.1-28 13a87 87 0 0 0 -10.5 12.9c-.4.5-3.6 6.6-4.1 6.6 1.3 0-2.8-2.3-2.8-2.3l-2.9-1.3-5.7-2.5c-4-1.8-7.9-3.7-11.8-5.7-7.3-3.6-14.5-7.4-21.6-11.5a362.9 362.9 0 0 1 -37.7-25.1 317.5 317.5 0 0 1 -56.7-56.2 302.3 302.3 0 0 1 -53.2-108 284.1 284.1 0 0 1 -7.4-38.5c-.7-6.1-.3-12.7-1.3-18.7-.1-.2 0-.5 0-.8a1.3 1.3 0 0 0 -1.6-1.2c-9.7 2.6-18.8 9.3-26.1 15.9-20.1 18.4-30.9 44.9-36 71.3s-4.7 53.4-2.2 80c.2 1.5 2.7 1.5 2.5 0z" fill="#231f20"/><ellipse cx="779.1" cy="277.4" fill="#fff" rx="56.1" ry="55.6"/><path d="m834 277.4a55 55 0 0 1 -36.4 51.3c-21.6 7.5-46.2.9-60.8-16.7a54.1 54.1 0 0 1 -4.7-62.5 54.9 54.9 0 0 1 101.9 27.9 1.3 1.3 0 0 0 2.5 0 57.6 57.6 0 0 0 -37-53.1 58.3 58.3 0 0 0 -64.9 17.3 57 57 0 0 0 -4.7 65.1 58.3 58.3 0 0 0 59.9 26.6 57.6 57.6 0 0 0 46.7-55.9 1.3 1.3 0 0 0 -2.5 0z" fill="#231f20"/><circle cx="872.3" cy="282.4" fill="#fff" r="55.8"/><path d="m926.9 282.4c-.3 22.9-14.5 43.7-36.3 51.4a54.6 54.6 0 1 1 -7.7-105c25.5 5.1 43.7 27.8 44 53.6a1.3 1.3 0 0 0 2.5 0 57.8 57.8 0 0 0 -36.9-53.4c-22.7-8.7-49.2-1.4-64.5 17.4a57.1 57.1 0 0 0 54.9 92.1c26.9-5 46.1-29 46.5-56.1a1.3 1.3 0 0 0 -2.5 0z" fill="#231f20"/><path d="m935.4 248.4c-3.2 2.6-11.7 2.6-16.1 2.6a1.3 1.3 0 0 0 0 2.5c5.2 0 13.5.3 17.8-3.4 1.3-1-.5-2.7-1.7-1.7z" fill="#231f20"/><path d="m926.1 268.7c5.3.1 12-.4 16-4.1 1.2-1.1-.6-2.9-1.7-1.8-3.5 3.2-9.7 3.5-14.3 3.5-1.6-.1-1.6 2.4 0 2.4z" fill="#231f20"/><path d="m717.6 243.2a41.7 41.7 0 0 0 12.8 7.3c1.5.5 2.1-1.9.7-2.4a36.4 36.4 0 0 1 -11.8-6.7c-1.2-1-2.9.7-1.7 1.8z" fill="#231f20"/><path d="m710.4 258.8a28.5 28.5 0 0 0 14.2 4.1c1.6.1 1.6-2.4 0-2.4a27.2 27.2 0 0 1 -13-3.8c-1.3-.9-2.6 1.3-1.2 2.1z" fill="#231f20"/><path d="m806 354.2s-39.8 8.4-39.8-22.7 57.9-20.8 57.9-20.8" fill="#ffd2b3"/><path d="m805.7 353c-13.3 2.7-33.1 1.3-37.4-14.2-6.7-24.1 20.5-28.8 38-28.5a113.9 113.9 0 0 1 17.5 1.6c1.6.2 2.2-2.2.7-2.4-15.1-2.6-33.7-3.7-47.7 3.4-9.1 4.6-13 13.4-11.5 23.4s9 16.9 18.9 19.1a53.1 53.1 0 0 0 22.1 0c1.6-.3.9-2.7-.6-2.4z" fill="#231f20"/><ellipse cx="923.7" cy="362.6" fill="#ffb495" rx="26.4" ry="24.9"/><ellipse cx="734.2" cy="349.4" fill="#ffb495" rx="20.4" ry="16.8" transform="matrix(.70710678 -.70710678 .70710678 .70710678 -32.1 621.5)"/><path d="m901.6 678.8a47.4 47.4 0 1 0 -74.2 39.1l-7.3 58.9c14.4 7.7 37.7 5.7 37.7 5.7l10.1-58.4a47.3 47.3 0 0 0 33.7-45.3z" fill="#f0ff63"/><path d="m902.9 678.8c-.4-26.5-21.9-48.7-48.7-48.7s-48.6 22.2-48.6 48.7c-.1 16.1 8.1 30.9 21.2 40.1l1-2.2h-.1c-.8-.2-1.4.3-1.5 1.2l-7.3 58.9c-.1.4.3.9.6 1.1 11.4 5.8 25.6 6.9 38.3 5.9a1.4 1.4 0 0 0 1.2-1l10.1-58.3a1.4 1.4 0 0 0 -.8-1.6h-.1v2.4a49.5 49.5 0 0 0 34.7-46.5 1.3 1.3 0 0 0 -2.5 0 46.8 46.8 0 0 1 -32.8 44.1c-1.1.4-1.3 2.2 0 2.4l-.9-1.5-4.5 26.3-3.4 19.2-1.2 7.3c-.2 1.2-1.2 3.7-.9 4.8s-.1.6-.1.8c-.1-2.1 2.2-.3 0-.8s-6.2.1-8.7.1a81.9 81.9 0 0 1 -13.1-1.3c-2.3-.4-4.5-.9-6.8-1.5l-6.6-2c-.3-.5.3-2.2.3-2.7l.8-6.8 2.3-17.9 3.8-31.4-1.5 1.1a1.3 1.3 0 0 0 1-2.3c-14.7-10.4-22.5-28.2-19.4-45.9a46.8 46.8 0 0 1 25.9-34c30.4-14.3 65.3 8.8 65.8 41.9a1.3 1.3 0 0 0 2.5.1z" fill="#f79428"/><circle cx="862.9" cy="665.7" fill="#f79428" r="5.1"/><circle cx="840.8" cy="663.5" fill="#f79428" r="5.1"/><path d="m834.5 684.5c1.8 4.4 4.8 9 9 11.5 8.5 5.2 16-3 20.4-9.6.9-1.3-1.2-2.5-2.1-1.2-4.5 6.6-11.7 14-19.2 7a26.1 26.1 0 0 1 -5.7-8.4c-.6-1.5-3-.8-2.4.7z" fill="#f79428"/><circle cx="835.7" cy="805.6" fill="#b2a8ba" r="5.9"/><path d="m840.3 805.6c-.3 5.9-9.2 6-9.2 0s8.9-5.9 9.2 0c.1 1.6 2.6 1.6 2.5 0a7.1 7.1 0 1 0 -14.2 0 7.1 7.1 0 1 0 14.2 0c.1-1.6-2.4-1.6-2.5 0z" fill="#595959"/><path d="m820.1 776.8s-3.7 26.1 15.6 28.8 22.1-23.1 22.1-23.1z" fill="#b2a8ba"/><path d="m818.9 776.5c-1.7 12.4 2.2 28.3 16.6 30.3s22.1-11.9 23.5-24.3a1.2 1.2 0 0 0 -.9-1.2l-37.6-5.7c-1.6-.2-2.3 2.2-.7 2.4l17.4 2.6 12.9 2c1.5.2 5.7 1.7 7.2 1.1-.7.2.1-1.5-.8-.4s-.5 2.5-.7 3.3a34.3 34.3 0 0 1 -4.4 10.4c-6.1 9.3-19.9 10.4-26.4.7-3.8-5.7-4.5-14.6-3.7-20.5.2-1.6-2.1-2.3-2.4-.7z" fill="#595959"/><path d="m819.8 789.7a83.2 83.2 0 0 0 36.1 2.8c1.6-.2.9-2.6-.6-2.4a80.2 80.2 0 0 1 -34.8-2.7 1.2 1.2 0 1 0 -.7 2.3z" fill="#595959"/><path d="m822.8 798.1c9.7 2.6 20.9 3.4 30.4 0 1.5-.5.9-2.9-.6-2.4-9.2 3.2-19.9 2.5-29.2 0a1.2 1.2 0 0 0 -.6 2.4z" fill="#595959"/><path d="m1159.8 730.3c-5.3-10.8-15.8-21.6-28.4-22.3-5.1-.3-15.2 1-15.6 7.8s7.3 10.8 11.9 13.1c9.6 4.9 21 6.4 31.4 3.2 1.5-.5.8-2.9-.7-2.4-10.2 3.2-21.6 1.5-30.9-3.7-6-3.3-14.5-11.6-3.5-14.7 14.6-4.2 27.7 8.1 33.7 20.2.7 1.5 2.8.2 2.1-1.2z" fill="#231f20"/><path d="m754.5 200.5a28.7 28.7 0 0 1 31.4-7.4c1.5.6 2.2-1.8.7-2.3a31 31 0 0 0 -33.9 8 1.2 1.2 0 0 0 1.8 1.7z" fill="#231f20"/><path d="m829 388.2.3-1.8h-49.1a17.3 17.3 0 0 0 -1.1 6c0 6.5 3.8 12.4 10 16.9 0 0 9.4-15.6 39.9-21.1z" fill="#74414c"/><path d="m830.3 388.2.2-1.8a1.2 1.2 0 0 0 -1.2-1.3h-49.1a1.4 1.4 0 0 0 -1.2.9c-3.2 9.9 1.6 18.4 9.5 24.3a1.3 1.3 0 0 0 1.7-.4c7.7-12.5 25.9-18 39.2-20.5 1.5-.3.9-2.7-.7-2.4-14 2.7-32.6 8.6-40.6 21.6l1.7-.4a27.1 27.1 0 0 1 -7.3-7.8c-2-3.8-1.7-6.7-1.9-10.8-.1-2.3-.6-2 1.9-2h46.8l-1.3-1.2-.2 1.8c-.2 1.6 2.3 1.6 2.5 0z" fill="#231f20"/><path d="m832.6 370.5a50.2 50.2 0 0 0 -16.8-2.8c-17.2 0-31.6 8-35.6 18.7h49.1a118.7 118.7 0 0 1 3.3-15.9z" fill="#fff"/><path d="m832.9 369.3c-17.7-5.8-45.8-3.1-53.9 16.7a1.3 1.3 0 0 0 1.2 1.6h49.1a1.3 1.3 0 0 0 1.2-.9 140.1 140.1 0 0 1 3.3-15.9c.4-1.5-2-2.2-2.4-.7s-1.3 4.9-1.8 7.4a29.5 29.5 0 0 0 -1 5c0-.2-.3 3.8.6 2.6s-3 0-3.4 0h-45.6l1.2 1.6c7.6-18.5 34.6-20.3 50.8-15 1.6.5 2.2-1.9.7-2.4z" fill="#231f20"/><path d="m829 388.2c-30.5 5.5-39.9 21.1-39.9 21.1 6.7 4.7 16.2 7.7 26.7 7.7a50.2 50.2 0 0 0 16.3-2.6c-3.9-6.9-4.2-16.8-3.1-26.2z" fill="#ea8676"/><path d="m828.7 387c-14 2.7-32.6 8.6-40.6 21.6a1.3 1.3 0 0 0 .4 1.7c12.7 8.7 29.5 9.9 43.9 5.3a1.2 1.2 0 0 0 .7-1.8c-4-7.9-3.8-17-2.8-25.6.1-1.5-2.3-1.5-2.5 0-1 9.1-1.1 18.6 3.2 26.9l.7-1.8c-13.8 4.3-29.7 3.2-41.9-5.1l.4 1.7c7.7-12.5 25.9-18 39.2-20.5 1.5-.3.9-2.7-.7-2.4z" fill="#231f20"/><path d="m831.1 415.1c2.3 4.2 6.4 9.4 11.6 9.6a1.3 1.3 0 0 0 0-2.5c-4.2-.2-7.6-5-9.5-8.4-.8-1.4-2.9-.1-2.1 1.3z" fill="#231f20"/><path d="m833.8 370.8 2.7-8.7a1.3 1.3 0 0 0 -2.4-.7l-2.7 8.7c-.5 1.6 1.9 2.2 2.4.7z" fill="#231f20"/><path d="m949.6 527.2a28.5 28.5 0 0 1 28.2 24.5c1.7 12.8 5.1 28.8 11.7 43.2 13.9 30.3 62.6 125.3 62.6 125.3s46 69.7-3.1 104.7l10.6 22.6s5 58.1-104.4 40.2c0 0-20.9-4.9-24.9-17.4v-25.8l-14.4-34.3 5.3-255.1a28.4 28.4 0 0 1 28.4-27.9z" fill="#ed2351"/><path d="m949.6 528.5a27.5 27.5 0 0 1 22.5 11.8c4.9 7.2 4.9 16.1 6.6 24.3 2.8 14 7.8 27 13.9 39.8 10.2 21.3 20.9 42.5 31.6 63.6q12.6 24.9 25.3 49.8c4.8 9.3 10.2 18.1 13.9 28 4.6 12.1 7.7 25.2 6.9 38.2a51.9 51.9 0 0 1 -21.9 39.8 1.3 1.3 0 0 0 -.5 1.7l5.1 10.9c1.7 3.7 4.4 7.7 5.5 11.6-.4-1.3-.1.6-.1 1.1s-.2 2.8-.4 4.2c-1.9 12.2-10.2 22-20.9 27.7s-22.3 7.8-33.9 8.6a182.3 182.3 0 0 1 -24.5-.2c-8-.6-16.5-1.1-24.3-3.1a49.9 49.9 0 0 1 -14.7-6.6c-2.9-2-6.1-4.7-7.5-8s-.7-3.5-.7-5.6v-16.6c0-2.4.2-4.4-.6-6.6-3.3-9.6-7.9-19-11.9-28.4-1.5-3.6-1.9-3.9-1.8-7.4l.8-38.9 2.9-138.6 1.1-55.5c.2-10.9-1.3-24.2 5-33.6a27.3 27.3 0 0 1 22.6-12 1.3 1.3 0 0 0 0-2.5 30 30 0 0 0 -29.6 27.7c-.2 2.8-.1 5.6-.2 8.4l-1 48.2-3 146.4-1 47.1c-.1 2.2-.5 4.7-.1 6.8.8 3.6 3.1 7.4 4.5 10.8l7.2 17c1 2.5 2.5 5.3 2.7 7.2.4 5.4 0 10.9 0 16.2s-.7 8 1.2 11.6c3 5.7 9 9.4 14.7 12 12.5 5.7 27.3 6.3 40.9 6.9s28.1-.2 41.4-4.5 26.8-13.6 31.6-28a30.7 30.7 0 0 0 1.9-10.8c0-4.7-3.5-9.4-5.4-13.4l-5.3-11.3-.5 1.7c10.9-7.9 18.8-18.7 21.8-31.9s1.5-24-1.4-35.5c-3.5-14.1-9.9-26.7-16.9-39.3-8.1-14.5-15.2-29.6-22.7-44.4-11.5-22.7-23-45.4-34-68.3-7.6-15.8-13.6-31.6-16.5-49.1-1.4-8.4-2.7-15.9-8.8-22.3a30.6 30.6 0 0 0 -21.5-9.2 1.3 1.3 0 0 0 0 2.5z" fill="#231f20"/><path d="m1048.4 823.8c-16.4 9.1-35.8 16.7-54.6 17-1.6 0-1.6 2.5 0 2.4 19.3-.2 39.1-7.9 55.8-17.2a1.3 1.3 0 0 0 -1.2-2.2z" fill="#231f20"/><circle cx="783.3" cy="278.4" fill="#231f20" r="10.9"/><circle cx="868.3" cy="282.4" fill="#231f20" r="10.9"/></svg>