<svg height="1081.2" viewBox="0 0 804 1081.2" width="804" xmlns="http://www.w3.org/2000/svg" xmlns:xlink="http://www.w3.org/1999/xlink"><linearGradient id="a" gradientUnits="userSpaceOnUse" x1="402.87" x2="439.52" y1="801.44" y2="801.44"><stop offset="0" stop-color="#a8933d" stop-opacity="0"/><stop offset="1" stop-color="#a8933d"/></linearGradient><linearGradient id="b" x1="913.97" x2="949.82" xlink:href="#a" y1="719.65" y2="719.65"/><linearGradient id="c" x1="931.9" x2="953.15" xlink:href="#a" y1="685.21" y2="685.21"/><linearGradient id="d" x1="938.03" x2="968.67" xlink:href="#a" y1="741.73" y2="741.73"/><linearGradient id="e" x1="971.53" x2="997.53" xlink:href="#a" y1="760.48" y2="760.48"/><linearGradient id="f" x1="889.02" x2="896" xlink:href="#a" y1="579.36" y2="579.36"/><linearGradient id="g" x1="349.21" x2="349.21" xlink:href="#a" y1="655.85" y2="655.85"/><linearGradient id="h" x1="877.53" x2="886.85" xlink:href="#a" y1="659.12" y2="659.12"/><linearGradient id="i" x1="869.85" x2="881.1" xlink:href="#a" y1="763.53" y2="763.53"/><linearGradient id="j" x1="349.21" x2="349.21" xlink:href="#a" y1="553.59" y2="553.59"/><linearGradient id="k" x1="363.36" x2="394.18" xlink:href="#a" y1="607.86" y2="607.86"/><linearGradient id="l" x1="896.16" x2="901.64" xlink:href="#a" y1="627.38" y2="627.38"/><linearGradient id="m" x1="378.77" x2="388.03" xlink:href="#a" y1="497.71" y2="497.71"/><linearGradient id="n" x1="919.18" x2="950.96" xlink:href="#a" y1="585.31" y2="585.31"/><linearGradient id="o" x1="338.15" x2="358" xlink:href="#a" y1="448.89" y2="448.89"/><linearGradient id="p" x1="908.95" x2="923.95" xlink:href="#a" y1="424.36" y2="424.36"/><linearGradient id="q" x1="916.45" x2="923.95" xlink:href="#a" y1="482.19" y2="482.19"/><linearGradient id="r" x1="928.44" x2="936.78" xlink:href="#a" y1="402" y2="402"/><linearGradient id="s" x1="892.51" x2="897.68" xlink:href="#a" y1="393.42" y2="393.42"/><linearGradient id="t" x1="338.15" x2="343.63" xlink:href="#a" y1="306.28" y2="306.28"/><linearGradient id="u" x1="915.99" x2="927.95" xlink:href="#a" y1="310" y2="310"/><linearGradient id="v" x1="943.84" x2="947.67" xlink:href="#a" y1="696.16" y2="696.16"/><linearGradient id="w" x1="892.51" x2="903.84" xlink:href="#a" y1="702.2" y2="702.2"/><linearGradient id="x" x1="293.96" x2="300.96" xlink:href="#a" y1="778.24" y2="778.24"/><linearGradient id="y" x1="331.01" x2="331.01" xlink:href="#a" y1="437.61" y2="437.61"/><linearGradient id="z" x1="878.73" x2="889.02" xlink:href="#a" y1="322.21" y2="322.21"/><linearGradient id="A" x1="896" x2="901.64" xlink:href="#a" y1="249.32" y2="249.32"/><linearGradient id="B" x1="906.09" x2="927.95" xlink:href="#a" y1="218.05" y2="218.05"/><path d="m943.8 391.8v20.3s40-1.1 47.7-41.7l-20.8-7.1v17.5h-12.6v12.1z" fill="#c38251" transform="translate(-558 .6)"/><path d="m943.2 391.8v20.3a.6.6 0 0 0 .6.6c24.2-.8 43.7-18.9 48.3-42.1a.6.6 0 0 0 -.4-.8l-20.8-7.1a.6.6 0 0 0 -.8.6c0 5.1-1 11.2 0 16.2.3 1.5-.1.8.2.7a17.8 17.8 0 0 1 -4 0h-8.2a.6.6 0 0 0 -.6.6v6.5a19.7 19.7 0 0 0 0 4.2v1.1c-.2.4 1-.5.3-.4s-5.2-.4-7.3-.5l-6.7-.5c-.8-.1-.8 1.1 0 1.2l14.3 1.1a.6.6 0 0 0 .6-.6v-5.6c0-1.4.1-2.9 0-4.4s.2-2.2-.3-1.7 1.4.2 1.8.2h10.5a.6.6 0 0 0 .6-.6v-17.1c0-.7-1 .2-.4.3l1.9.7 14.2 4.8c.7.3 3.8.8 4.1 1.4s-2.2 7.2-2.7 8.5c-7.1 19.5-24.2 29.1-43.7 32-1.4.2-.2.5-.2.1-.2-2 0-4.2 0-6.2v-13.5a.7.7 0 0 0 -1.3 0z" fill="#231f20" transform="translate(-558 .6)"/><path d="m798.6 447.1c0-22.1 15.1-28.1 21.8-29.6 5-1.1 57.1-14.2 57.1-14.2v89.8l-78.9-16.9z" fill="#865b37" transform="translate(-558 .6)"/><path d="m799.3 447.1c.2-15.2 8.1-25.8 22.7-29.3 11.2-2.7 22.4-5.6 33.5-8.4l17.2-4.2c1.2-.4 3.1-.5 4.2-1.1s.1-1 0-.3c-.9 7.6 0 16 0 23.7v55.6c0 2.6-.7 6.5 0 9.1s-.6.2.7.2a9.3 9.3 0 0 1 -2.4-.5l-12.1-2.6-37.3-7.9-18.1-3.9c-2.3-.5-6.7-.6-8.8-1.9 0 0 .5 1 .4-.1a13.1 13.1 0 0 1 0-2.8v-25.6a.7.7 0 0 0 -1.3 0v29.1a.7.7 0 0 0 .5.6l78.9 16.9a.6.6 0 0 0 .8-.6v-89.8a.6.6 0 0 0 -.8-.6c-16.1 4-32.2 8.1-48.3 12-5.8 1.5-11.9 2.4-17.1 5.4-9.9 5.7-13.8 16.1-14 27 0 .8 1.2.8 1.3 0z" fill="#231f20" transform="translate(-558 .6)"/><path d="m1029.3 621.9a30.7 30.7 0 0 1 -20.4 29c-16.5 5.9-39.6 13.6-55.2 16.5l-2.7-32.9s6.2-17.3 24.3-23.1c7.1-2.2 25.3 12.2 31.5 7.8z" fill="#865b37" transform="translate(-558 .6)"/><path d="m1028.7 621.9a30.3 30.3 0 0 1 -16.2 26.7c-9.4 4.9-20.7 7.7-30.9 10.8-5.1 1.6-10.3 3.2-15.5 4.5-2.4.7-4.8 1.3-7.3 1.8-.9.2-4.7 1.2-4.5 1.4s-.4-4.5-.4-5.2l-.8-9.5c-.5-5.4-1.4-11.1-1.4-16.6 0-2.8 2.1-5.8 3.8-8.4 4.5-6.6 13.4-15.6 21.9-15.6s14.3 5.7 21 7.8a14.7 14.7 0 0 0 8 .5 26.7 26.7 0 0 1 5.6.3l17.3 2.1c.8.1.8-1.1 0-1.2l-10.2-1.3c-3.7-.4-8.3-1.7-12-1.4-1.5.1-2.7.9-4.4.7-3.2-.2-6.5-1.7-9.4-3-4.7-2-9.5-4.9-14.6-5.6-9.5-1.3-19.8 9.3-24.5 16.4-1.3 2-3.4 4.8-3.8 7.2s.3 4.6.5 6.5l2.2 26.6a.6.6 0 0 0 .8.6c17.9-3.4 35.3-9.4 52.5-15.5 13.5-4.8 23.5-15.6 23.5-30.6a.6.6 0 0 0 -1.2 0z" fill="#231f20" transform="translate(-558 .6)"/><path d="m810.7 739.7c-8.8-46.5 3.8-59.2 3.8-59.2 14.8-22.4 63-27.3 63-27.3v26.1z" fill="#865b37" transform="translate(-558 .6)"/><path d="m811.3 739.6c-2.7-14.5-4.6-29.8-1.9-44.4 1-4.9 2.4-9.8 5.3-13.9 11.7-16.7 34.7-22.7 53.8-26.2 2.7-.5 5.6-.7 8.4-1.2 1.1-.3 0-.7 0-.3a32.3 32.3 0 0 1 0 4.4v14.4c0 1.8-.1 3.6 0 5.3s-.2 1.8.1 1.3c-.6 1.1-2.5 2.2-3.5 3.1l-7.1 6.5-20.9 18.8-35.3 31.9c-.6.5.3 1.4.9.9l34.9-31.6 23.1-20.8 6.9-6.2c.7-.7 1.8-1.4 2.2-2.3s0-3 0-4.1v-22a.7.7 0 0 0 -.7-.7c-16.2 1.7-33.4 6-47.7 14-11.6 6.5-19.2 15.4-21.6 28.3-2.7 14.9-.8 30.4 1.9 45.1.1.8 1.3.4 1.2-.3z" fill="#231f20" transform="translate(-558 .6)"/><path d="m312.9 417.1-2.3 10.9 8.9 1.1v-12z" fill="#c38251"/><path d="m870.4 416.3-2.4 10.9c-.1.4.2.7.6.8l8.9 1.1a.6.6 0 0 0 .7-.6v-12.1a.7.7 0 0 0 -.7-.6h-6.5a.7.7 0 0 0 0 1.3h6.5l-.6-.7v12.1l.6-.6-8.9-1.2.6.8 2.4-10.9c.1-.8-1.1-1.1-1.2-.3z" fill="#231f20" transform="translate(-558 .6)"/><path d="m284.5 424.7v9.4l35 4.5v-9.5z" fill="#c38251"/><path d="m841.9 424.1v9.4c0 .4.3.6.7.6l34.9 4.5a.6.6 0 0 0 .7-.6v-9.5c0-.4-.3-.6-.7-.6l-34.9-4.4c-.8-.1-.8 1.1 0 1.2l17 2.2 11.9 1.5c1.3.1 4.9-.1 6 .7-1.2-.8-.6 1.6-.6 2.7s.1 3.7 0 5.5 1.1.1-.2 0l-3.4-.5-23.5-3c-1.7-.2-5.8.1-7.2-.9 1.2.8.6-2.5.6-3.6v-5.2a.7.7 0 0 0 -1.3 0z" fill="#231f20" transform="translate(-558 .6)"/><path d="m392.9 635.1v-15.9l35.5 10.5z" fill="#c38251"/><path d="m951.6 634.5v-6c0-2.5.7-6.3 0-8.8s.4-.5-.7-.5l1.2.3c1.7 1 4.3 1.3 6.1 1.8l28 8.3v-1.2l-35.4 5.5c-.8.1-.5 1.3.3 1.2l35.5-5.5c.6-.1.5-1 0-1.2l-35.5-10.5a.6.6 0 0 0 -.8.6v16a.7.7 0 0 0 1.3 0z" fill="#231f20" transform="translate(-558 .6)"/><path d="m303.9 660.4-2.9 11.5h16.4l2.1-9.4z" fill="#c38251"/><path d="m861.3 659.6-2.9 11.5a.6.6 0 0 0 .6.8h16.4a.6.6 0 0 0 .6-.5l2.1-9.3a.7.7 0 0 0 -.4-.8l-15.6-2.2c-.8-.1-1.1 1.1-.3 1.2l11.3 1.6c.7.1 4.4.8 4 .3s-.4.7-.6 1.3l-.8 3.6a16.3 16.3 0 0 0 -.7 3c0 1-.5.7.2.5-1.3.4-3.5 0-4.8 0h-11.4l.6.8 2.9-11.5a.6.6 0 0 0 -1.2-.3z" fill="#231f20" transform="translate(-558 .6)"/><path d="m284.5 671.9v12.3l28.9 3.9 4-16.2z" fill="#c38251"/><g transform="translate(-558 .6)"><path d="m841.9 671.2v12.4c0 .4.3.6.7.6l28.8 3.9c.3 0 .5-.3.6-.5l4-16.2a.6.6 0 0 0 -.6-.8h-32.8a.7.7 0 0 0 0 1.3h29c1.1 0 2.2.1 3.2 0s.4-.9-.3.2c-1.6 2.8-1.8 7.5-2.6 10.7-.3 1.1-.4 3-1 4s.7.2-.8-.2c-7.2-1.6-14.9-1.9-22.3-2.9l-4.4-.6c-1.1-.2-.4.8-.2-.6.5-3.6 0-7.6 0-11.3a.7.7 0 0 0 -1.3 0z" fill="#231f20"/><path d="m1041.4 853.7 18.6-1.6 20.8 10.9 6-2.7 36.8 13.7 9.8 16.4v-12.6l11.5 3.8 2.2 12.6 7.1 5c2.8-8.2-2.7-17.6-2.7-17.6l-12.6-8.7h12.1l13.7 8.7-11-14.8-13.2-3.8 3.3-7.7c9.9 0 12.6-7.1 12.6-7.1l-17.5 3.3-3.3 11.5-7.1 7.1a25.7 25.7 0 0 0 -12.6-7.1l-10.4-10.4h-18.7l-13.1-6-17-8.2h-17l-21.3-8.3-8.3-13.7-15.3-16.4c-25.5-35.9 20.3 2.4 20.3 2.4l35 16.2 21.4 4.5c6.3-6.3 16.4-4.5 16.4-4.5a61.3 61.3 0 0 0 20.3 7.2c8.8 0 19.7 2.7 19.7 2.7a25.4 25.4 0 0 1 12.1-6.7l11.5 1.3a30.9 30.9 0 0 0 14.8 13.1l12.6 35-5.5 10.4 3.3 7.7-3.8 17 9.3-21.4a24.2 24.2 0 0 1 6 15.9c0 9.9 11 19.2 11 19.2l9.3-3.3-6.6-8.8c-10.9 0-7.1-13.7-7.1-13.7-2.2-9.3-11-16.9-11-16.9l3.3-6.1-4.4-8.2c0-11.5-6-24.6-6-24.6 26.9-2.7 44.4 10.9 44.4 10.9l2.7-6.1c-14.8-7.8-27.9-4.8-27.9-4.8-5.2-5.2-23-9.9-23-9.9-7.1 0-11-6.7-11-6.7l-22.4-11.9-12.1 8.7-7.7-2.2-10.9 2.2-22.5-9.8c-11-11-35.3-16.7-35.3-16.7l-9.6-9.6c-14.8-3.9-31.3-15.4-31.3-15.4a177.5 177.5 0 0 1 -38.6-43.1c-17.2-27.2-17.8-56.6-17.8-56.6l-15.3-451.5-19.2-45.5-13.1 6-31.2 80.6 2.6 396.2s-9.2 67-23 75.6l-13.8 8.5-30 2.4-37.3 9.3-11.5-3.3-36.7 2.2 25.8 7.7c22.4-7.7 7.1 16.3 7.1 16.3l7.1-13.1 9.9-4.8 7.6 3.3 11.5-5.5-2.7 14.2 13.2-20.3 5.4 3.9c13.7-4.4 21.9.6 21.9.6h15.5l4.5-4.5 8.8-4.7-5.7 20.1-18.5 6.9-21.3 14.5c-8-2.2-16.7 2.2-16.7 2.2l-7.6-1.1-35.7 4.9a38 38 0 0 0 -30.1-1.8l-18.1-11.5c3.3 3.3-3.3 13.3-3.3 13.3 11.5-5.5 11.5 5.5 11.5 5.5 13.2-7.7 32.9 0 32.9 0 0 6.5-9.3 11.5-9.3 11.5-36.7 6-35.1 15.3-51.5 17.6s-42.7 17.4-42.7 17.4c11.5 0 4.9 13.7 4.9 13.7 4.4-4.4 8.8 8.8 8.8 8.8l5.4-9.3c-9.3-19.8 9.4-9.4 9.4-9.4-1.4-15.6 39.4-22.5 39.4-22.5 42.7-2.8 49.3-22.3 49.3-22.3l16.5-5.5h23c21.3 14.2 37.2 0 37.2 0 12.6 0 29.7 11.5 29.7 11.5-4.4 4.3-13.2 7.2-13.2 7.2-16.5-5.9-23.1 6.5-23.1 6.5 15.8 0 10.6 9.3 10.6 9.3 8.3-2.2 11.9-10.4 11.9-10.4a29.4 29.4 0 0 0 20.9-8.8l16.4 12.5-2.2 8.3-2.8 14.2c-6.6-6.6-14.2 10.5-30.6 18.7s-33.4 3.8-33.4 3.8l-7.5 14.2-7.7 7.8v11.8l10.2-10.2c3.8-13.7 14.2-11.5 14.2-11.5 20.7 0 24.7-3.3 24.7-3.3l20.8-12.6 3.6 20.6-3.6 10.1v13.1l9.3-17.5-2.7-29 16.4-12.1 15-30.2s6.3-5.9 26.4 12.1l9.1 36.7 14.1 9.9s21.3 16.5 21.3 23.6c0 0-3.7 2.7-3.7 9.3 0 0-10.4 4.9-10.4 10.4 0 0 6.9-3.6 10.4 0 0 0 2.3-13.3 7.9-7.7 0 0-5.4 2.2 1.3 15.9v26.9s37.1 15.3 33.4 41.1c0 0 28.1 14.8 28.1 47.1 0 0 2.7-34.5-21.1-52.1 0 0 9.8 7.7 21.2 7.7l15.8 7.1 33.4-4.4 14.6 14.6v11.2l9.4 9.4s-4.5 12.2 4.5 21.3 12.1 17.5 12.1 17.5 1.9-12.3-6-20.3-3.1-12.8-3.1-12.8a38.8 38.8 0 0 1 25.5 4.1s-6.4-12.2-19.7-11l-7.9-7.9 19.4-3s-12.9-5.8-23.6-7.2l-15.8-20.8s-34.5-12-52.1-6l-17-6.6s-10.3-10.4-17.7-10.4l-18.5-18.5s-2.7-4 0-14.9c0-8.2-7.1-14.8-7.1-14.8s5.7-11-3.8-18.1c0 0-2.1-28.5-16.4-29.6a86.9 86.9 0 0 0 -14.4-19.9l-4.2-10.9s5.4-1.6-2.3-16.9c0 0 10.9-1.8 16.7 4 0 0 17.3 25.6 57 28.9 0 0 21.9 4.1 33.2 15.3 0 0-44.4-28.3-64.7-39.9z" fill="#6d453e"/><path d="m1041.4 854.3 10.7-.9c2.6-.2 6.5-1 8.3-.4 3.9 1.3 7.8 4.1 11.4 6s6.1 4.3 8.7 4.5a4.8 4.8 0 0 0 2.3-.7 34.3 34.3 0 0 1 4.2-1.8c2.7.2 6.1 2.3 8.7 3.2 8.6 3.2 17.2 6.6 25.9 9.7.7.3 1.8.9 1.6.6s1.9 3.3 2.8 4.7l6.9 11.5a.6.6 0 0 0 1.1-.3v-5.8c0-1.8-.6-5 0-6.7-.4 1.1-.7.3.9 1.1s2.5.8 3.7 1.2 5 .9 6.1 2c-.6-.6-.2.5-.1.9l.6 3.6c.4 2.1.3 5.2 1.2 7.2s5.2 4.2 7.5 5.8c.4.3.8 0 .9-.4 1.5-5.2 1-14-3-18.2s-8.6-6-12.6-8.8l-.3 1.2c3.7 0 9.6-.9 12.5.4 4.5 2 8.8 5.6 12.9 8.3.5.3 1.3-.4.9-.9l-9.7-13c-2.4-3.3-6.2-3.4-10.1-4.5l-4-1.2c-.7-.3-.6.9.1-.3a25.7 25.7 0 0 0 2-4.5c.9-2.2.8-1.7 3.2-2.1 4.3-.5 8.7-3.2 10.3-7.3a.6.6 0 0 0 -.7-.8l-17.6 3.3c-.2 0-.3.2-.4.4-1 3.5-1.4 8.2-3.2 11.3-.4.6-2 2-2.8 2.9l-2.6 2.5c-1.1 1.1-1 1.3-1.8 1s-3-2.6-3.6-3a33 33 0 0 0 -4.1-2.3c-1.2-.5-3.5-1-4.1-1.4-3.3-2.1-6.1-6.1-8.9-8.9s-3-1.4-5.8-1.4c-4.5 0-9.3.5-13.7 0-2.7-.3-6.8-2.8-9.7-4.2s-4.8-2.2-7.2-3.3c-4.2-2-8.3-4.4-12.7-6.1-2.1-.9-4.2-.6-6.5-.6s-8.3.6-11.8 0-6.9-2.7-10.1-4-8.2-2.1-11-4.2a23.5 23.5 0 0 0 -1.5-2.6l-4.2-6.9c-3.7-6.3-9-11.2-14-16.5a63.3 63.3 0 0 1 -7.8-10.1c-1-1.6-5.5-7.9-2.1-8.1s6.3 3.1 8.3 4.3 6.3 4.4 9.3 6.8 6.1 5.4 9.7 7.2c8.4 4 16.9 7.8 25.4 11.7a64.5 64.5 0 0 0 16 5.5c3.9.8 9 2.8 13 2.7 1.4-.1.5.1 2.2-1a20.5 20.5 0 0 1 12.1-3.6c3.4.1 6.1 2.1 9.2 3.4a73.9 73.9 0 0 0 9.4 3.1c5.7 1.4 11.7 1.2 17.5 2.2 1.8.3 4.7 1.6 6.5 1.4s4.6-3.5 6.9-4.7c4.5-2.3 7.3-1.8 12.1-1.2a19.5 19.5 0 0 1 3.4.3c1.6.6.3-.1 1.7 1.2s3.8 5.1 6.4 7.3a38.7 38.7 0 0 0 5.8 3.8l1.6.7c.8.6-.1-.3.2 0 1.7 2.3 2.3 6.6 3.3 9.2l5.2 14.6c1.2 3.3 3.1 6.9 3.7 10.3.2 1.2.5.1-.3 1.6l-3.6 6.8c-1.6 3.1-1 3.4.4 6.8s1.3 4.8.2 9.5l-2.4 10.8c-.2.7.8 1.2 1.1.5l5.1-11.6 3.3-7.5a10.8 10.8 0 0 1 .8-1.9c-.1.1-.8-.8-.2.5 1.4 3.3 3.7 5.8 4.6 9.6s.4 7.8 2 11.7a34.7 34.7 0 0 0 9.7 13c.2.2.4.3.6.2l9.4-3.3c.3-.1.6-.6.3-.9-1.9-2.6-3.9-6.5-6.4-8.6s-2.3-.4-3.6-.9c-3.3-1.3-4.2-4.5-4.2-7.7s.9-5.3-.8-9.3a36.3 36.3 0 0 0 -4.3-7.1c-1.4-1.8-4-3.7-5-5.6s-.2.9 0-.1a10 10 0 0 1 1.5-2.9c.5-.9 1.6-2.1 1.5-3.1-.2-3-3.8-6-4.4-9s-.6-6.9-1.4-10.3a90.4 90.4 0 0 0 -3.1-10.1 7.2 7.2 0 0 1 -1-2.4c-.2-1.4-.8-.4.1-.8s4.4.2 5.6.2 4.7.1 7.1.3c10.4 1.1 21.8 4.4 30.2 10.9a.7.7 0 0 0 .8-.3l2.8-6.1a.8.8 0 0 0 -.2-.9 50.8 50.8 0 0 0 -18.7-5.3 54.8 54.8 0 0 0 -7 .1 8.4 8.4 0 0 1 -2.7.4c-1-.3-3.2-2.6-4.4-3.2a65.8 65.8 0 0 0 -6.6-2.9 74.6 74.6 0 0 0 -11.3-3.7c-2.2-.5-4.3-.6-6.3-1.8s-3-3.1-4.7-4.6a25.9 25.9 0 0 0 -4.6-2.6l-18.1-9.7h-.7l-6.8 5c-1.3.9-2.6 2-4 2.9s-.6.8-2.3.4-4.6-1.7-6.9-1.7-6.5 1.9-9.8 2c-.9 0 .1.1-1.1-.2a33 33 0 0 1 -4.3-1.9l-10.9-4.8a33.9 33.9 0 0 1 -6.7-3.1c-4-2.8-7.4-5.7-11.8-7.9-7.3-3.7-15.1-5.3-22.5-8.3-3.6-1.5-6.5-7.5-10.3-9.8-2-1.2-5.1-1.5-7.4-2.4s-6.8-3-10.1-4.7a130.5 130.5 0 0 1 -12-7.1 65.1 65.1 0 0 1 -10-8.2c-26.5-24.2-46.6-56.6-47.9-93.3-.5-12.5-.9-24.9-1.3-37.4l-2.6-75.8-3.3-96.9-3.3-99-2.9-84-1.7-50.2c-.1-2.2.2-4.9-.2-7.1-.9-4-3.4-8.1-5-11.9l-9.2-21.9-5-11.8a.6.6 0 0 0 -.9-.3l-8.3 3.8c-1.6.7-4 1.3-5.1 2.6s-2.4 6.2-3.4 8.7l-16.8 43.5-7.6 19.6c-1.1 2.8-2.8 5.8-3.4 8.7s0 5.5.1 8l.3 56.9.6 91.2.7 101.8.6 86.9.3 48.3a54.9 54.9 0 0 1 -1.1 10.4c-2.6 16.3-5.7 32.8-10.9 48.6-2.1 6.1-4.5 14.2-9.6 18.5s-8.4 5.4-12.5 7.9a19.4 19.4 0 0 1 -2.4 1.5l-5.1.3-12 1a117.3 117.3 0 0 0 -13.3 1.2c-6.4 1.1-12.8 3.1-19.1 4.7l-11.1 2.8c-1.9.5-4.3 1.5-6.3 1.6s-8.3-3.1-12.4-3.2c-6.7-.3-13.8.8-20.5 1.2l-15.4.9c-.7.1-.9 1-.2 1.2l13.4 4 8.9 2.7c1 .3 2.5 1.1 3.7 1 3.1 0 6.9-3 10-.9s1.6 4.7 1 6.9a34.8 34.8 0 0 1 -4.5 9.3l1.1.7c2.1-3.9 4-8.1 6.4-11.8 1-1.5 1.3-1.5 3.3-2.4s4.7-3.1 6.8-3.4c-.4.1.6.3 1.4.7l3.8 1.6c1 .4 1.8 1 2.8.9s4.1-2 5.7-2.7l5.8-2.8-1-.7-2.7 14.3a.6.6 0 0 0 1.1.4c4-6.1 9.3-12.3 12.3-18.8a4.7 4.7 0 0 1 .7-1.2c.7-.4-1.2-.1-.2.3s3.1 3 4.9 3.4 4.2-.8 5.9-1.1a28.4 28.4 0 0 1 12.3.4c2.3.6 3.6 1.5 5.8 1.5 4.1.1 8.6.6 12.6 0s3.5-2.5 5.6-4.2 6.2-3.4 9.2-5l-.9-.7-4.8 16.9a14 14 0 0 1 -.9 2.9c.3-.4 0 0-1 .3-3.2 1.1-6.4 2.4-9.6 3.6a47 47 0 0 0 -11.1 5.2l-9.2 6.3c-2.3 1.5-5 4.2-7.6 5.2s-6.8-.2-10.2.4-6.1 2.2-8.2 2.2-4.6-1-6.8-.9a30.9 30.9 0 0 0 -5.2.7l-22.1 3c-2.3.3-4.8 1-7.1 1s-.5.2-2.5-.6a42.6 42.6 0 0 0 -10-2.9 39.3 39.3 0 0 0 -14.5.6c-3.1.7-3.4 1.7-5.5.3-5.3-3.6-11-6.9-16.5-10.4-.5-.3-1.2.3-.8.8 2.6 3.5-1.3 9.6-3.3 12.7-.4.6.3 1.1.9.8 5-2.2 10.4-1.4 10.5 5a.7.7 0 0 0 1 .5c6.8-3.7 14.6-3.9 22.1-2.6 1.5.2 9.5 1.1 10.2 2.6s-2.1 4.2-2.7 5a20.6 20.6 0 0 1 -3 2.9 12.3 12.3 0 0 1 -6.4 3 111.3 111.3 0 0 0 -19.7 4.9c-6.8 2.4-12.7 6.3-19.2 9.3a37.6 37.6 0 0 1 -10.9 3 81.8 81.8 0 0 0 -16.8 5.2 205 205 0 0 0 -24.9 12.2.6.6 0 0 0 .3 1.1c7.6.4 6.8 7.6 4.4 12.8-.3.7.4 1.2.9.8 3.6-2.9 6.9 6 7.8 8.5a.6.6 0 0 0 1.1.1c1.6-2.7 3.3-5.3 4.7-8s-1.2-5.3-1.6-8.7c-1.1-7.1 7.3-3.7 10.8-1.7a.7.7 0 0 0 1-.6c-.5-9.9 13.6-14.8 21-17.3s13-4.1 19.6-4.7c15.8-1.4 38.5-5.2 47.2-20.8.3-.4.4-1 .7-1.4s-.6.3.2-.2c3.3-2 8.3-2.7 11.9-4 6.6-2.2 13.7-1.3 20.7-1.3a30.1 30.1 0 0 1 5.2 0c2.5.4 4.8 2.4 7.2 3.5a31.6 31.6 0 0 0 17.4 2.5 29.4 29.4 0 0 0 12.1-4.7c.5-.3 1.3-1.2 1.9-1.4 2.6-.7 7.3 1.1 9.8 2 5.9 1.9 13.1 4.7 18 8.7l.8.5c.5.8 0-.5-.1.2s-5 3-6 3.5c-3 1.5-5.3 2.9-8.5 2-7.8-2.2-17.3-.1-21.4 7.5a.6.6 0 0 0 .5.9c4.6.1 13.6 1.8 10 8.4a.7.7 0 0 0 .7.9 19.9 19.9 0 0 0 7.5-4.2c1.8-1.7 2.8-4.1 4.4-5.7s5.5-.9 7.6-1.5a31.6 31.6 0 0 0 8.4-3.7c1.7-1.1 3-2.5 4.6-3.6s.6-.4-.1-.5 1.3.9 1.6 1.2c3.7 3.3 8.1 6.2 12.1 9.2.7.6 2.6 2.5 2.3 1.5.4 1.7-1.4 5.3-1.8 7-1 3.8-1.6 7.7-2.3 11.5a24.7 24.7 0 0 1 -.6 2.9c-.4 1.6.3.1.2.1s-2.2-1.3-3.9-1c-4.5.8-8.3 5.7-11.3 8.6-13.1 12.3-30.3 19.8-48.4 15.3a.8.8 0 0 0 -.7.3c-3.1 5.9-5.6 12.2-10.3 17-1.7 1.6-4.3 3.4-5 5.7s0 8.1 0 11.4c0 .6.6.9 1 .5 3.1-3.1 6.6-6 9.4-9.4 1.5-1.8 1.8-4 3.1-6.2a11.8 11.8 0 0 1 8-5.9c5.6-1 11.6-.1 17.3-.7 3.5-.4 7.3-.8 10.5-2.3 6.2-3 12.7-7.7 18.8-11.4a23.9 23.9 0 0 0 2.1-1.3c.9-.7.2.1-.3-.7.8 1.2.7 3.8.9 5.2.8 4.6 2.6 9.9 2.6 14.6-.1 3-2.9 7.1-3.5 10.6s0 9 0 13.2a.7.7 0 0 0 1.2.4l5.6-10.5c1.1-2.3 3.4-5.1 3.8-7.6s-.8-8.3-1.2-11.8l-1.4-14.8c0-.7.1-2.6-.4-1.8.7-1.1 3.2-2.3 4.3-3.1 3.7-2.7 8.2-5.2 11.5-8.4a15.1 15.1 0 0 0 2.7-4.6l6.9-13.8c1.8-3.7 3.3-8.4 5.7-11.7.8-1 1.3-1.3 3.2-1.4 5.3-.2 10.7 3.6 14.9 6.5 2.3 1.6 6.4 4.1 7.8 6.6a20.7 20.7 0 0 1 1 4.3l7.1 28.9c.5 2.1.5 2.7 1.9 4 3.5 3.2 8.1 5.6 11.9 8.3 7.5 5.2 16.8 12.5 21.2 20.6 1.6 3 .9 2.9-.6 5.3s-1 5.8-2.1 7.1-4.7 2.8-6.5 4.4a9.6 9.6 0 0 0 -3.7 6.3.6.6 0 0 0 .9.5c3-1.4 6.8-2.3 9.7-.1.3.3 1 .3 1-.2a21.8 21.8 0 0 1 1.8-5.8 6.3 6.3 0 0 1 1.9-2.6 14.7 14.7 0 0 1 3.1.1c0 .2-.8.5-.8.7s-1.3 2.3-1.4 3.9c-.2 3.6 1.4 7 2.6 10.3s.8 9.8.8 14.4v13.9a.7.7 0 0 0 .4.6c15.8 6.5 35.3 21.1 33 40.5a.5.5 0 0 0 .3.5c16.8 9 27.5 27.8 27.8 46.6a.6.6 0 0 0 1.2 0c1.5-19.3-5.7-40.7-21.4-52.6-.6-.5-1.2.6-.6 1.1a37.4 37.4 0 0 0 18.3 7.5c5.9.7 11.2 3.9 16.6 6.3 2.9 1.3 4.6.8 7.8.3l19.4-2.5c2.3-.3 4.6-.5 6.9-.9s1.1-.5 2.3.6c4.3 4 8.6 8.2 12.5 12.5 2.3 2.5-.5 8 .8 11.8s7.2 5.8 9.1 9.4c.7 1.1.2-.8.2.7s-.5 2.1-.7 3.1a22.9 22.9 0 0 0 1.3 11.6c2.5 5.9 8.1 9.9 11.6 15.1a41.2 41.2 0 0 1 4.6 8.5c.2.5 1.1.7 1.2 0a26.8 26.8 0 0 0 -.1-8c-1-6.8-4.6-10.1-8.2-15.5-1.5-2.1-3.7-6.4-1.3-8.9.6-.6 1.3-.6 2.7-.7a38.7 38.7 0 0 1 22.4 4.4c.6.3 1.2-.3.9-.8a23.9 23.9 0 0 0 -7.5-8 19.6 19.6 0 0 0 -8.8-3.3c-1.3-.1-3 .3-4-.3s-2.1-2.1-2.8-2.8l-3-3a13.6 13.6 0 0 0 -1.2-1.2c-1.1-.6.8-.2-.7.6 1.4-.7 3.9-.6 5.4-.9l14-2.1a.7.7 0 0 0 .1-1.2c-2.8-1.2-5.6-2.3-8.5-3.3s-5.6-1.8-8.5-2.6-5.2-.4-6.7-1.4-3.7-5-5.2-6.9l-7.1-9.3c-2.7-3.5-3.2-4.4-7.3-5.7a151.6 151.6 0 0 0 -25.7-5.8 72.2 72.2 0 0 0 -15.4-.5c-3.1.3-6.1 1.7-9 .8-4.8-1.5-12.3-3.7-15.8-6.6s-5.9-5.1-9.3-7-5.9-1.8-8.1-3.1-4.6-4.6-6.6-6.6l-8.2-8.2a20.2 20.2 0 0 1 -3.2-3.4c-2.7-4.8.5-10.7.2-15.7s-2.4-8-4.9-11.1c-.3-.5-2.3-2.8-2.2-2.3s.7-1.4.9-1.9a16 16 0 0 0 -.3-11c-1.3-2.7-3.7-4-4.5-6.5s-.8-5.3-1.3-7.8a60.5 60.5 0 0 0 -3.6-10.9 21.2 21.2 0 0 0 -5.9-7.7c-2-1.5-4.8-1.7-6.1-3.1s-1.8-3.2-2.7-4.6a89.7 89.7 0 0 0 -5.6-8.1c-1.7-2.1-4.1-4-5.5-6.2a23.8 23.8 0 0 1 -1.6-4 42.9 42.9 0 0 0 -1.9-5c-.6-1.2-.6-1.8-.9-1.1.4-.9 1.5-1.3 1.9-2.5.9-3.1-.5-6.8-1.5-9.6a28.8 28.8 0 0 0 -1.3-3.1c-.9-1.3-1.7-1.1-.7-1.7s4.3-.1 5.7 0c7 .7 9.3 4.3 13.5 8.7a71.1 71.1 0 0 0 16.8 13.1 86 86 0 0 0 31.5 10.7 80.6 80.6 0 0 1 22.5 6 49.1 49.1 0 0 1 15.3 9.7l.8-1c-21.3-13.6-42.7-27.4-64.7-39.9l-.4 1.1 40.5 15.3c.8.3 1.1-.9.4-1.2l-40.6-15.3c-.7-.2-1.1.8-.5 1.1 22 12.6 43.3 26.3 64.7 40 .6.4 1.2-.5.7-1-7.2-6.9-16.8-10.9-26.2-13.7s-17.1-2.7-25.5-5.2c-15.3-4.5-27.6-13-38.1-24.8-4.2-4.8-11.6-5.6-17.6-4.7a.6.6 0 0 0 -.4.9c.8 1.7 7.3 14.4 2.7 16a.7.7 0 0 0 -.5.8c1.2 3.1 2.3 6.4 3.7 9.5s6.1 7.5 8.8 11.4c1.5 2.2 3 4.4 4.3 6.7s1 2.6 1.8 3.3 1.9.5 2.9.8a13.2 13.2 0 0 1 5.8 4.4c4.9 6.3 6.4 14.8 7.5 22.5.4 2.9 2.5 3.4 4.1 6.1s2 9.2 0 13.3a.6.6 0 0 0 .1.7 23.4 23.4 0 0 1 6.4 10.4c1.2 5.3-1.4 10.7-.4 16.1s3.6 5.8 6.3 8.5l8.1 8c1.4 1.5 3.2 4.1 5 5.1s5.8 1.5 8.5 3.1 6 5.2 9.3 7.4 10.1 4 14.7 5.8c2.2.8 2.5 1 4.9.4a50.4 50.4 0 0 1 15-.9 140.9 140.9 0 0 1 28.1 5.4c2 .6 4.6 1 6.4 2s-.4-.4.2.2a22.1 22.1 0 0 1 2.2 2.9l7.2 9.5c1.8 2.3 3.6 5.9 6 7.7s7.7 2 11 2.9a119 119 0 0 1 13 4.8v-1.1l-19.4 3c-.5 0-.6.7-.3 1l5.7 5.7c2.4 2.4 2.1 2.2 5.4 2.4 6.8.3 13.3 4.8 16.5 10.7l.8-.9a40.4 40.4 0 0 0 -22.1-4.7c-2.6.2-4.2.1-5.3 2.6-2.1 5.2 2.2 9.3 5.2 12.9s5.8 12.3 4.9 18.7h1.2a49.1 49.1 0 0 0 -10.3-15.8c-5.9-6.5-9.4-14-6.3-22.7a.7.7 0 0 0 -.1-.6c-2.8-2.8-6.2-5.4-8.6-8.5-1-1.3-.7-.7-.7-2.8s.4-5.3 0-7.7-1.8-3.3-3.8-5.2-6.5-7.7-10.3-10.3c-1.5-1.1-2.1-.7-4.1-.5l-14.2 1.9-13.7 1.8c-2.9.4-3.5-.2-6.5-1.6s-7.8-4-11.8-5.2-5.6-.5-8.3-1.3a43.7 43.7 0 0 1 -6.8-2.7 43.2 43.2 0 0 1 -5.8-3.6l-.6 1.1c15.3 11.6 22.2 32.7 20.8 51.5h1.2a53.9 53.9 0 0 0 -16.5-38.5 57 57 0 0 0 -10.1-8.1 8.7 8.7 0 0 1 -1.8-1.1c-.1-.2.6-4.3.5-4.9a21.3 21.3 0 0 0 -.7-4.4c-3-11.9-13.4-20.6-23.5-26.7-2.9-1.7-6.8-2.9-9.4-4.9-.6-.5-.1.1 0 .3a7.5 7.5 0 0 1 0-1.5c.4-2.4 0-5.1 0-7.5 0-5.6.9-11.9 0-17.4-.4-2.8-6.8-13.4-1.6-15.7a.7.7 0 0 0 .2-1c-2-1.8-4-2.2-5.9-.1a13.2 13.2 0 0 0 -2.1 4.3c-.3.9-.4 1.8-.7 2.6l-.2.6c.8-.2-1.7-1.3-1.3-1.1s-2.6-.4-3.6-.3-4 1.6-4.8 1.3 4.9-5.6 6.2-6.5a31.8 31.8 0 0 1 4.4-2.6.5.5 0 0 0 .3-.5 13.5 13.5 0 0 1 1.7-6.8c.4-.6 1.5-1.4 1.7-2a4 4 0 0 0 -.4-3c-1.7-4.4-5.7-8.1-9-11.3a145 145 0 0 0 -17.3-14.1l-6.2-4.3-2.3-1.7c-1.4-2.6-1.7-6.8-2.4-9.7l-3.9-15.9c-.8-3.3-1.1-7.4-2.6-10.5s-9.3-8.2-13.2-10.4-6.9-3.5-10.6-3.4-4.8 3.1-6.6 6.8l-7.1 14.3c-1.6 3.1-2.8 7.2-4.9 10s-5.6 4.2-7.8 5.8l-5.9 4.3c-.7.6-2.4 1.3-2.8 2.1s.4 7.1.6 9.2l1.6 16.8c.4 3.9-.2 4.4-2.2 8.1l-6.7 12.6 1.2.3c0-4-.6-8.5 0-12.5s3.1-6.9 3.5-10.5-1-6.1-1.4-8.8l-2.2-12.2c0-.4-.6-.5-.9-.4l-18.8 11.5c-4.4 2.6-9 3.4-14.4 3.9-7.2.7-16.9-1.6-22.4 4.2a16 16 0 0 0 -3.4 5.4 12.2 12.2 0 0 1 -3.3 5l-7.8 7.8 1.1.4c0-3.2-1.1-8.4 0-11.4.3-.7-.3.5.1-.3a11.4 11.4 0 0 1 1.9-1.9c1.6-1.6 3.4-3.1 4.9-4.9s2.6-4.3 3.8-6.6l3-5.6a15.5 15.5 0 0 1 1.2-2.2c.7-.9-.6-.1-.2-.2s3.2.6 4.3.7a54.9 54.9 0 0 0 8.1.4 50.5 50.5 0 0 0 21.2-5.1c5.9-2.9 11-7.2 15.8-11.7 3.1-3 9.5-11.2 14.1-7a.7.7 0 0 0 1.1-.3c1.4-7.6 2.9-15.1 4.9-22.5a.6.6 0 0 0 -.3-.7l-16.4-12.5a.6.6 0 0 0 -.8.1c-5.1 5.6-13 8.4-20.4 8.6a.5.5 0 0 0 -.5.3 19.6 19.6 0 0 1 -11.6 10.1l.7.9a6.7 6.7 0 0 0 .2-6.3 7.2 7.2 0 0 0 -4.5-3.1 18.2 18.2 0 0 0 -5.2-.8c-.8 0-1.3 1.5-.5.1 3.7-6.7 12.9-7.9 19.5-6.1s12.1-3 16.1-6.7a.7.7 0 0 0 -.1-1 92.2 92.2 0 0 0 -11.9-6.6 74 74 0 0 0 -8.9-3.4c-2.3-.7-6.9-2.3-9.3-1.5s-4.8 3.2-7.3 4.2a30.4 30.4 0 0 1 -24.7-1.4c-1.9-.9-3.6-2.5-5.6-2.9a32.5 32.5 0 0 0 -5.4 0h-14.8c-2.6 0-4.5.7-7.1 1.6l-7.3 2.4c-1.2.4-3.5.7-4.5 1.5a8.4 8.4 0 0 0 -1.3 2.1 26.1 26.1 0 0 1 -5.2 6.3c-9.7 8.5-23.4 11.9-35.8 13.4a116.2 116.2 0 0 0 -23.2 4.6c-7.8 2.5-18.9 6.2-22.8 14.1-.3.8-1.9 5.1-.1 4.5a13.2 13.2 0 0 1 -2.7-1.3c-2.2-.9-5.7-2.4-8.1-1.1s-1.7 7.1-.6 9.8c.5 1 1.1 1.8.9 2.7s-1.2 2.2-1.6 2.9l-3.5 5.9h1.2c-1.2-3.5-4.9-13.1-9.8-9l.9.7c3-6.2 3.2-14.2-5.4-14.6l.3 1.2a198.3 198.3 0 0 1 25.8-12.6 100.7 100.7 0 0 1 18.4-5.1 32.1 32.1 0 0 0 9.6-3.3c8.7-4.4 16.7-8.7 26.2-11.1 5.4-1.4 12-1.3 16.6-4.5s6.9-5.9 7.2-10.5c.1-.3-.2-.5-.4-.6-8.6-3.3-22.4-6.1-30.8-1.2-2.3 1.3-1.1 2.2-1.8 0a10.9 10.9 0 0 0 -1.5-3.5c-2.7-3.6-7.2-2.3-10.8-.7l.9.8c2.2-3.4 6.2-10 3.3-13.9l-.9.9 15.4 9.7c.9.6 2.1 1.7 3.2 1.8a8 8 0 0 0 2-.7 33.7 33.7 0 0 1 7.7-1.4 37.1 37.1 0 0 1 10 .4c3.5.7 6.8 2.9 10.1 3.5a10.6 10.6 0 0 0 3.5-.5l22.3-3c4.9-.7 9.1-1.5 13.6-.9 2.6.4 3.6.7 5.9-.2a30.3 30.3 0 0 1 8.4-2c2.1-.1 4.8 1 6.7.5s3.5-2.4 4.8-3.3l10.3-6.9a45.7 45.7 0 0 1 11.7-6.3c3.8-1.4 7.8-2.6 11.5-4.3 1.5-.7 1.3-.4 2-1.8 1.7-3.1 2.2-7.6 3.2-11l2.3-8.2c.1-.6-.5-1-.9-.7-4 2.1-8 3.8-11.2 7s-1.6 2.1-4.2 2.1h-9.5c-3.9 0-6.2-1.5-10.5-2.1s-8.7.6-13.3.9c-2.2.2-2.1.1-4.1-1.3l-2.7-1.9a.8.8 0 0 0 -.9.2l-13.1 20.4 1.1.5 2.7-14.3c.2-.5-.4-.9-.9-.7l-5.7 2.8c-1.3.6-4.7 2.6-5.5 2.7-2.3.1-5.6-3.8-8.8-2.9s-7.6 3-9.6 5.3-4.6 8.5-6.8 12.4c-.3.7.7 1.3 1.1.7 2.7-4.3 9.9-17.3.8-18.6-3.1-.5-6.1 1.4-9 1.2s-5.5-1.6-8-2.4l-17-5.1-.2 1.3 18.4-1.1c5.8-.4 12.5-1.8 18.3-1.1s8.9 3.9 13.6 2.8l23.3-5.9c4.5-1.1 9.3-2.7 13.5-3.1l23.3-1.8c3.5-.3 5-.3 7.8-2 6.7-4.1 13.3-7.1 17.2-14.1 8.5-15.4 11.6-34.5 14.7-51.6 1.1-6.2 2.7-12.6 2.9-18.9.2-15.9-.3-31.9-.4-47.8l-.6-94.1-.7-109.1-.6-94.3c-.1-16-.9-32.1-.3-48.1.1-4.9 3.7-11.1 5.6-16l18.8-48.4 6-15.6c.7-1.7.5-1.3 1.3-1.8 3.3-2.1 7.6-2.7 10.8-5a4.5 4.5 0 0 1 1.2-.6c.6 0-1-.8-.6-.2s.5 1.4.8 2l3.7 8.8 10.1 23.9c2 4.8 4.4 8.5 4.5 13.5l.6 18 2.5 72.7 3.5 103 3.7 109.3 3.1 91.3 1.8 50.5a122.6 122.6 0 0 0 1 13.5c4.1 28.2 18.1 52.6 37.4 73.3 11.1 11.9 22.6 21.1 37.5 27.9 4.2 2 10 2.7 13.4 5.8s5 6 8 8a14.5 14.5 0 0 0 4.3 1.4 111.7 111.7 0 0 1 14.7 5.2c7.9 3.4 14 9.2 21.9 12.7l12.1 5.3c1.6.7 3.7 2.1 5.5 2.4s6.6-1.6 9.6-2 5.8 2.1 8.7 1.9 3.9-2.5 5.5-3.6l4.8-3.5c.7-.5 2.8-1.6 1.8-1.6 2.2.1 5.9 3.1 7.8 4.1l10.9 5.8c2.1 1.1 3.2 1.6 4.4 3 3.1 3.6 6 4.8 10.5 5.7a65.4 65.4 0 0 1 10.6 3.4 55.8 55.8 0 0 1 7.9 3.5c1.4.7 3.1 2.7 4.5 3s6.4-.6 9.1-.5a46.3 46.3 0 0 1 10.5 1.9c1.8.5 6 1.3 7.1 2.5s.5.6-.2 2.2-2.3 3.7-.9 3.7c-.3 0-1.1-.8-1.4-1-2.5-2-5.8-3.4-8.8-4.7a70.3 70.3 0 0 0 -34.5-5.3.6.6 0 0 0 -.5.9 81.9 81.9 0 0 1 3.7 10.5 56.6 56.6 0 0 1 1.9 9.1c.2 1.7 0 3.6.5 5.3s3.8 5 4.1 7.5.2-1.1-.1.3a8.4 8.4 0 0 1 -1.1 2.1l-1.9 3.4a.8.8 0 0 0 .1.8 39.9 39.9 0 0 1 8.9 11.5c1.2 2.6 1.8 4 1.5 6.6s-.3 2.8-.3 4.2c.2 3 1.2 6.2 4.1 7.7s3.2.5 4.3 1.3 2.8 3.6 3.9 5.2l1.6 2.1c.8 1.1.8-.3.5 0s-4.2 1.4-6 2.1a11.3 11.3 0 0 1 -2.4.8c-1 .1.8.5-.4-.1s-3.4-3.5-4.6-4.9a28.5 28.5 0 0 1 -5.2-9.7c-.8-3.5-.4-7-1.4-10.5a22.4 22.4 0 0 0 -5.3-9.5c-.2-.3-.8-.3-.9.1l-9.4 21.4 1.2.5 2.5-11.3c.6-2.4 1.5-4.6.9-7s-2-3.8-2.5-5.8-.3-.3-.2-.8a9.2 9.2 0 0 1 1.6-3.1c1.1-2.1 3.7-5.2 3.7-7.6s-2.2-6.1-3.1-8.4l-5.2-14.5c-1.3-3.5-2.1-7.8-4-11s-2-1.9-3.9-3a33.5 33.5 0 0 1 -7.5-6c-1.3-1.5-2.6-4.7-4.4-5.6s-4.1-.4-5.6-.6a38.1 38.1 0 0 0 -5.7-.6c-4.4.2-7.8 3.6-11.3 5.6-2 1.2-.3.6-2.3.7a20.5 20.5 0 0 1 -4.3-.9 89.6 89.6 0 0 0 -11.6-1.4c-6.6-.3-13-2.5-18.9-5.4-4.3-2-7.3-2.6-12.1-1.6-3 .7-4.7 2.2-7.4 3.4s0 .5-1.2.7a11.1 11.1 0 0 1 -2.5-.5l-14.3-3c-6-1.2-11.5-4.3-17.2-7s-15-5.8-21.5-9.9c-3.8-2.4-8-6.5-11.9-9.3a92.6 92.6 0 0 0 -9.2-6.2c-1.5-.9-4.3-2.8-6.2-2.4-4.9 1.1 2 10.3 3.1 12 4.7 7.1 11.1 13.1 16.9 19.3 2.1 2.2 3.4 4.8 5 7.4s2.9 6.4 5 8 6.6 2.6 9.3 3.6 7.8 3.7 11.7 4.6c5.6 1.3 13.3-1.2 18.1.5 6.6 2.3 12.8 6.2 19.2 9.2 3.2 1.4 6.9 3.9 10.3 4.6s7.5 0 10.9 0 4.3-.2 6.5 0 .8-.3 2.1 1.1 5.7 6.8 8.9 8.9a10.8 10.8 0 0 0 1.9.8 28.9 28.9 0 0 1 11 6.6.6.6 0 0 0 .8 0c2.3-2.3 5.9-4.7 7.4-7.5s1.3-4.6 1.8-6.6.6-2.5 1.1-3.7-.1-.5.3-.8 4.7-.8 6.4-1.2l8.5-1.6a12 12 0 0 0 2-.3c.3-.1-.3-.9-.7-.5s-.2.6-.5.7-1.9 2.5-3.5 3.5a15.6 15.6 0 0 1 -7.9 2.1.5.5 0 0 0 -.5.3l-3.3 7.7a.6.6 0 0 0 .4.9l8 2.3c2.2.7 4.4 1.1 5.4 2.1 3.9 4 7 9.4 10.3 14l.9-.9-6.1-3.9c-2.2-1.4-4.8-3.8-7.4-4.7s-8.8-.2-12.6-.2a.6.6 0 0 0 -.3 1.1l10 7c4 2.8 5.6 7.7 5.8 12.9a43.6 43.6 0 0 1 -.3 5c-.6.1-2.2-1.5-2.7-1.8s-3.4-2.3-3.8-3c-1.5-3.3-1.4-8.4-2.1-12a.7.7 0 0 0 -.4-.5l-11.5-3.8a.6.6 0 0 0 -.8.6v12.6l1.2-.3-6.2-10.3c-1.2-1.9-2.3-5.1-4.1-6.4s-5.8-2.2-8.1-3.1l-14.4-5.3-12.3-4.6c-2.6-1-3.1-.3-5.8.9a14.3 14.3 0 0 0 -2.2 1.1c.4 0-.3-.3-.5-.3-1.8-.6-3.7-2-5.4-2.9l-12.9-6.7c-2.5-1.4-4.3-.9-7.2-.6l-13.5 1.2c-.8.1-.8 1.3 0 1.2z" fill="#231f20"/><path d="m1224.3 843.6c2.5-2.1 5.8-4.2 7.9-6.7s2.1-5 2.7-7.4a64.5 64.5 0 0 0 1.4-8.8c.1-1.2.2-2.3.2-3.5s-1-1.4-.2-1.1 2.5.6 2.9.6c6.2.9 11.4-1.3 14.8-6.5.4-.7-.7-1.3-1.1-.7-3.7 5.9-10.5 7.4-16.8 5.2a.7.7 0 0 0 -.8.6 63.1 63.1 0 0 1 -1.8 14.4c-.4 1.9-.9 4.5-2 6.1s-5.6 4.8-8.1 6.9c-.6.6.3 1.4.9.9z" fill="#231f20"/><path d="m1247.6 815.5c5.9 5.1 11.4 3.7 17.7 1l5.5-2.3c.5-.2 1.2-.8 1.8-.8s-1-.2 0 .1 4.5 2.9 5.9 4c3.7 3 7.7 7 6.7 12.4-.2.8 1 1.2 1.2.4 1-5.8-2.8-10.2-7-13.7-1.7-1.3-4.8-4.5-7-4.4s-7.1 2.9-9.4 4c-5.1 2.1-9.8 2.5-14.5-1.6-.6-.5-1.5.3-.9.9z" fill="#231f20"/><path d="m1325.4 825.9c-4.3-1.7-9.7-3.1-14.2-1.9-1.3.3-2.9 1.7-3.7 1.8s-3.1-1.2-4.4-1.4a9.6 9.6 0 0 0 -5.3.6 3.8 3.8 0 0 1 -3 .4c-3.2-.3-6.6-1.6-9.8-2.3a.6.6 0 1 0 -.3 1.2c3.5.8 7.2 2.2 10.8 2.6h1.7a6.1 6.1 0 0 1 4.8-1.5 15 15 0 0 1 2.9.6l2.5 1a.9.9 0 0 0 .7-.1c4.7-3.8 11.9-1.9 16.9.1.8.3 1.1-.9.4-1.2z" fill="#231f20"/><path d="m1327.2 836.3-12.5-12.5a.6.6 0 1 0 -.9.9l12.5 12.5a.6.6 0 0 0 .9-.9z" fill="#231f20"/><path d="m1199.2 949.8 1.8-7.8c.6-2.4 2.3-6.1 2.1-8.6s-2.1-3.7-2.9-5.4-.6-5-.4-8c.1-.8-1.2-.8-1.2 0s-1 4.9-.5 6.9 3.6 5.1 3.7 6.3-1.4 6.1-2 8.5l-1.8 7.7c-.2.8 1 1.1 1.2.4z" fill="#231f20"/><path d="m1294.9 999.5c5.7 2 11.9 3.4 17.3 5.9 2 1 1.7.6 2.6 3s3.1 6.6 4.8 9.8 3.6 8.1 6.2 10.6c1.1.9.9.7 2.5.9 4.3.6 8.6.9 12.8 2.2a17.7 17.7 0 0 1 9.4 6.4 22 22 0 0 0 10.7 7.8.6.6 0 0 0 .3-1.2c-5.6-1.9-7.9-5.5-11.6-9.5-2.2-2.4-5.4-3.8-8.5-4.7a52.2 52.2 0 0 0 -11.8-2.1h-2.5c.3.2-1-1.7-1.3-2a143.7 143.7 0 0 1 -7.6-13.9c-1.6-3.2-2-6.6-5.1-8.2-5.4-2.8-12.1-4.1-17.9-6.1-.7-.3-1.1.9-.3 1.2z" fill="#231f20"/><path d="m1359.2 1057.9-9.3-22.4c-.3-.8-1.5-.5-1.2.3l9.3 22.4c.3.8 1.5.5 1.2-.3z" fill="#231f20"/><path d="m1253.1 949a14.5 14.5 0 0 1 -7.1 1.6 17.6 17.6 0 0 1 -8.1-2c-2.3-1.2-4-3.3-6.2-4.5s-3.8-1.1-5.5-1.5-6-1.7-9.1-2.4-1.4.1-2.2-1.9-2.4-5.9-3.6-8.8a34.9 34.9 0 0 1 -2.2-5.3c-.4-2.3 0-5.1 0-7.5l-1 .5 23 27.9c.1.2.5.2.7.1 12.7-6.2 22.9 6.5 30.8 14.5l13 12.9c2.8 2.8 5.9 3.3 9.1 5.5s4.2 8.2 5.7 11.6l3.2 7.4c.9 2.2 1 1.5.3 3.5s-3.6 8.6-3.1 11.9 1.6 3.9 2.2 5.6a71.7 71.7 0 0 1 3 10.3c.9 4.7 1.4 9.2-1.4 13.3-1.4 2.2-2.4 3.7-2.4 6.5s1.1 7.8 1.9 11.6a46.5 46.5 0 0 1 -.2 20c-.2.8 1 1.1 1.2.4a44.7 44.7 0 0 0 .6-18.2c-.7-4.9-3-10.4-2.1-15.4s3.9-5.8 4.3-9.9-.6-8.7-1.7-12.8a85.3 85.3 0 0 0 -3.8-10.7c-.8-2 .1-3.2.9-6.2s2.6-5.8 2.4-8.2-2-4.5-2.7-6.3l-4.9-11.3c-.9-2-1.1-3-2.8-4.1s-5-2-7.1-3.6-4.3-4.3-6.4-6.4l-16.7-16.8c-5.7-5.6-12.7-9.2-20.8-7.3-.5.2-3.3 1-2.7 1.1s-.7-1.2-1-1.5l-7.7-9.3-14-17c-.3-.5-1-.1-1 .4 0 2.4-.5 5.3 0 7.7s1.7 4.3 2.5 6.3c1.6 3.7 2.2 9.5 6.4 10.7l10.4 2.8a22.2 22.2 0 0 1 3.7.9c1.7 1 3.3 2.8 5 3.9 5.2 3.1 12.3 4.1 17.8 1.1.8-.3.1-1.4-.6-1.1z" fill="#231f20"/><path d="m877.5 893.1c-3.9 0-6.7-.7-9.8 2.1-4.6 4.1-2.5 13.6-9.9 13.8a.6.6 0 0 0 -.3 1.1c1.8 1.2 5.5 2.6 6.7 4.3-.3-.5.1 1.5.2 1.9l.8 5a98 98 0 0 1 1.7 9.7c.1 1.9-.6 3.8-1.2 6.2a27.5 27.5 0 0 0 -1.3 4.7c-.1 1.9.2 1.1-.8.7s-4.4-1.9-6.3-1.8c-6.9.4-12.7 7.5-17.2 11.9a.6.6 0 0 0 .9.9c4.2-4.2 8.2-8.6 13.9-10.7 3.6-1.4 5.9.1 9.6 1.3a.6.6 0 0 0 .7-.5c1-3.5 2.7-7.4 3-11.1s-.7-5.3-1.1-7.8l-1.3-7.4c-.1-1-.1-2.8-.6-3.6s-5.1-3.5-7.1-4.8l-.3 1.2a7.4 7.4 0 0 0 7.4-6c.7-3.6 1.5-8.6 5.9-9.9 1.6-.4 4.5 0 6.4 0a.6.6 0 1 0 0-1.2z" fill="#231f20"/><path d="m846.8 977.3c2.2-3.1 6-6.4 5.6-10.2-.6-6.5-2.3-14.1-6.8-19a.6.6 0 1 0 -.8.8c3.8 4.2 6.9 13.2 6.5 19-.2 2.5-3.8 6.3-5.5 8.8-.5.6.6 1.3 1 .6z" fill="#231f20"/><path d="m713.1 919.8c1.6-2.7 3.1-7.1 5.4-9.1s6.2-2.4 8.5-3.2a.8.8 0 0 0 .5-.7c0-1.7.1-3.4 0-5.1s0-1.1-.2-.9 1.2-.3 1.4-.4c4-.7 8-2.2 11.9-3.3a19.7 19.7 0 0 0 6.2-3c1.2-.8 2.9-2.3 4.4-2.7 3.4-1.1 10 .8 13.4 1.5a64.6 64.6 0 0 1 8.6 2.4c.8.2 2.5 1.2 3.3 1.2 2.3 0 5.5-2.4 7.4-3.3 4.2-2 7.6-4.6 12.3-5a35.1 35.1 0 0 1 11.2 1.2.6.6 0 1 0 .3-1.2c-6.6-1.8-14.2-2.2-20.2 1.6a105.6 105.6 0 0 1 -9.5 4.8c-2.1 1.1-4.5-.6-7.6-1.5a72.6 72.6 0 0 0 -10.3-2.2c-2.5-.4-6.7-1.5-9.1-.7s-5.2 3.3-7.7 4.6c-5 2.5-11.2 3.4-16.6 4.9a.6.6 0 0 0 -.5.6v3.7a8.1 8.1 0 0 1 0 2.2c-.4 1.4.8-.5.1.2s-5.8 1.5-8 3-4.5 6.7-6.2 9.7c-.4.7.6 1.4 1 .7z" fill="#231f20"/><path d="m807.3 900.1-6.8 2.9c-.7.3-.1 1.4.6 1l6.8-2.8c.7-.3.1-1.4-.6-1.1z" fill="#231f20"/><path d="m832.2 818.6a56 56 0 0 0 -11.5-1.7c-4.4-.4-9.1.1-13.4-.6-2.4-.4-4.7-1.4-7-2s-6.1-2.4-9.3-1.9-9.3 2-13.9 2.9c-.8.2-.5 1.4.3 1.3l13-2.8c3.5-.7 7 .9 10.9 2.1 2 .5 4 1.3 5.9 1.6 3.7.6 7.7.2 11.4.5a53.2 53.2 0 0 1 13.2 1.8c.8.2 1.1-1 .4-1.2z" fill="#231f20"/><path d="m771.8 838.6 1.7-5c.4-1.2.7-4 1.6-4.8-.7.6 2.1.2 3 .2a18.9 18.9 0 0 1 11.9 4.9.7.7 0 0 0 .9 0l17.1-16.5c.6-.5-.3-1.4-.9-.9l-15 14.4c-.2.3-1.7 2.1-2.1 2.1 1.4 0-2.6-2.9-1.5-1.9a10.9 10.9 0 0 0 -3.7-1.9 20.2 20.2 0 0 0 -10.3-1.3.5.5 0 0 0 -.6.4l-3.3 9.9c-.2.8 1 1.1 1.2.4z" fill="#231f20"/><path d="m765.1 830.5a6.6 6.6 0 0 1 1.9-.9 21 21 0 0 1 7.5-.5c.8.1.8-1.2 0-1.2-2.8-.2-8-.6-10.3 1.8-.5.5.3 1.4.9.8z" fill="#231f20"/><path d="m645.1 767.6a22.2 22.2 0 0 1 6.1-4 20.8 20.8 0 0 1 8.1-2.2c1.6-.1 3.2.4 4.8.3 4.1-.4 8.4-2.1 12.5-3.1a.4.4 0 0 0 .4-.4c.8-5.2 12.8-5.1 16-5a87.6 87.6 0 0 1 12.5.9c2.6.3 5.5 1.4 8.1.6s8.1-4.2 11.9-6.2a.6.6 0 0 0 .3-.6c-.1-3-4.4-4.8-6.7-5.6s-16-2.4-15.7-1.4c-.5-1.6 2.6-7.5 3.2-9.2s-.9-1.1-1.2-.4l-3.3 9.6c-.1.3.3.7.6.7 6.1.1 13.4 0 18.9 3.1a9.4 9.4 0 0 1 2.6 2.3c.4.5.2 1.3.6.4-.3.7-3.1 1.7-3.7 2l-6.5 3.4c-4.4 2.3-11-.3-15.9-.7s-15.6-1.2-20.9 3.1a13 13 0 0 0 -1.8 2.3c-.7.6.4-.2.1 0s-3.7.9-5.2 1.2a50.6 50.6 0 0 1 -6.7 1.7c-2.6.2-5.2-.4-7.9.1a26.4 26.4 0 0 0 -12.1 6.2c-.6.5.3 1.4.9.9z" fill="#231f20"/><path d="m661.6 749.5 1.6 11.8c.1.8 1.3.4 1.2-.4l-1.6-11.8c-.1-.7-1.3-.4-1.2.4z" fill="#231f20"/><path d="m652.1 778.6c4.1-2.1 9.3-3.8 12.7-6.9s8.1-8.9 12.1-13.2c.5-.6-.4-1.5-.9-.9-3.9 4.3-7.5 9-11.8 12.9s-8.6 4.9-12.7 7c-.7.4-.1 1.5.6 1.1z" fill="#231f20"/><path d="m730.2 767.6c1.4 1.3 3.2 4.1 4.9 4.8s3.8.1 5.2.1h17.8a.7.7 0 0 0 0-1.3h-16.1c-1.7 0-4.8.6-6.5 0s-3.2-3.4-4.4-4.5-1.4.3-.9.9z" fill="#231f20"/><path d="m734.5 761.4 5 10.8c.3.7 1.4.1 1-.7l-4.9-10.7c-.3-.7-1.4-.1-1.1.6z" fill="#231f20"/><path d="m640.7 794.6c10-3.8 19.3-7.8 28.9-12.5 2.2-1.1 4.5-2.6 6.8-3.3s4.5-.6 6.4-1.2c5.1-1.7 9.8-7.9 15.1-7 3.3.5 6.5 2.8 8.8 5.1.6.5 1.4-.4.9-.9-4-3.8-10.5-7.7-15.8-4.3-3.1 2.1-5.1 4.4-8.7 5.7-2.1.7-4.2.7-6.3 1.2a29.5 29.5 0 0 0 -3.7 1.6c-10.9 5.3-21.4 10.1-32.8 14.4-.7.2-.4 1.5.4 1.2z" fill="#231f20"/><path d="m606.8 789.1c5.1 0 10.6.7 15.6 0s12.6-3.4 18.8-5c2.6-.8 2.9-1.3 4.7-.2s6.5 2.9 8.7 5c-.6-.6.3-.7-1 .4a24.1 24.1 0 0 0 -3.3 5c-2.9 4.7-5.5 10.2-6 15.7-.3 2.2.2 2.1-1.3 3.4a40.7 40.7 0 0 1 -4.8 3.3l-8.5 5.8c-.7.5 0 1.6.6 1.1l7-4.7c1.9-1.4 6.3-3.3 7.7-5.3s.4-3.3.7-4.7a35 35 0 0 1 3.5-10 49.5 49.5 0 0 1 6.3-10 .5.5 0 0 0 -.1-.9l-5.6-3.3c-1.3-.8-3.4-2.6-5-2.8s-2.3.5-3.3.8l-8.7 2.3c-3.7 1-7.8 2.6-11.5 2.9s-9.7 0-14.5 0a.6.6 0 0 0 0 1.2z" fill="#231f20"/><path d="m626.1 778.5 6.9 7.4c.5.6 1.4-.3.9-.9l-6.9-7.4c-.5-.6-1.4.3-.9.9z" fill="#231f20"/><path d="m644.8 812.5c-8-1.4-20.3-2.9-26.9 3-.6.5.3 1.4.9.9 6.2-5.5 18.1-4 25.7-2.7.8.1 1.1-1.1.3-1.2z" fill="#231f20"/><path d="m655.4 819.7 13.9-8.1c2.4-1.4 8.8-3.6 10-6.2.3-.9 0-3 0-4s-.7-.4.3-1.2c2.7-1.9 7.2-2.7 10.3-3.7s6.8-.9 8.9-2.1 3.8-3.8 5.5-5.5-.3-1.4-.9-.9-2.9 3.5-4.6 4.7-3.9 1.1-6 1.6a101.2 101.2 0 0 0 -14.3 5.1.6.6 0 0 0 -.5.6v4.1c0 1.8.4.4-.3 1.2s-5.6 3.2-7.8 4.5l-15.1 8.8c-.7.4-.1 1.5.6 1.1z" fill="#231f20"/><path d="m667.3 803 11.5-2.4a.6.6 0 0 0 -.3-1.2l-11.5 2.4c-.8.1-.5 1.4.3 1.2z" fill="#231f20"/><path d="m667.7 821.8v-9.7a.7.7 0 0 0 -1.3 0v9.7a.6.6 0 1 0 1.2 0z" fill="#231f20"/><path d="m644.5 839.9c-9.1 1.4-21.6 5-26.1 13.8-1.8 3.5-3.2 6.1-6.5 8.5a48.8 48.8 0 0 1 -10.9 5.6c-5 2.1-11.3 3.6-15.4 7.4-.6.5.3 1.4.9.9 4.4-4.1 11.2-5.5 16.6-7.8s11.7-5.2 14.8-10.5c1.7-2.9 2.4-5.6 5-7.9a33 33 0 0 1 10.2-5.7 61.3 61.3 0 0 1 11.7-3.1c.8-.1.5-1.3-.3-1.2z" fill="#231f20"/><path d="m598.1 900.5-3.8-19a.6.6 0 0 0 -1-.3c-5.3 5.5-7.8 13.4-9.8 20.6-.8 3-1.2 6.3-2.2 9.3a2.9 2.9 0 0 1 -.7 1.7c-1 1.3-3.4 2.3-4.7 3.4-9.3 7.9-15.5 20.3-17.9 32.1-.1.8 1.1 1.1 1.2.4a65.7 65.7 0 0 1 7.5-19.3 45.5 45.5 0 0 1 13-14.6c2.8-1.9 2.5-1.8 3.2-5a122.2 122.2 0 0 1 3.5-13.2 59.8 59.8 0 0 1 3.6-8.6 26.3 26.3 0 0 1 2-3.3c.8-1.1 1.9-2 1.1-2.6s.7 3.2.8 3.8l1.3 6.4 1.7 8.5a.6.6 0 1 0 1.2-.3z" fill="#231f20"/><path d="m602.1 867.5-8.9 13.8c-.5.7.6 1.3 1 .7l9-13.9c.4-.7-.7-1.3-1.1-.6z" fill="#231f20"/><path d="m627.2 863.2 4.9-18.8c.2-.8-1-1.2-1.2-.4l-4.9 18.8c-.2.8 1 1.1 1.2.4z" fill="#231f20"/><path d="m594.3 956.3a97.1 97.1 0 0 0 3.1-14.2c.7-4.4.3-8.2 2.2-12.2a64.7 64.7 0 0 1 9.5-14.3 58.5 58.5 0 0 1 8.3-7.4 4.4 4.4 0 0 0 1.7-1.6c1.6-2.7 2.2-6.9 3.2-9.8l4-12.4c1.6-4.9.9-9.3 5.8-13a23.5 23.5 0 0 1 5.7-2.9c1.1-.4 3.1-.5 3.9-1.2s1.3-1.8 1.8-2.6l6.6-10.2c.5-.6-.6-1.3-1-.6l-6 9.1c-.5.9-1.4 2.9-2.2 3.5s-4 1-5.4 1.6a17.3 17.3 0 0 0 -3.3 1.7 13.8 13.8 0 0 0 -6 7.8 41 41 0 0 0 -.3 4.1c-.5 3.2-2.1 6.5-3.1 9.6l-4.2 12.8c-1.3 4-5.5 5.6-8.5 8.6a63 63 0 0 0 -10.2 13.9c-1.9 3.6-2.9 5.8-3.1 9.7a88.9 88.9 0 0 1 -3.7 19.7.6.6 0 0 0 1.2.3z" fill="#231f20"/><path d="m657.7 863-2 15.2c-.4 2.7-.6 5.5-1.1 8.2s-.6 1.5-2.1 3.4c-2.8 3.5-6.3 7-8.5 10.8s-4 9.6-6 14.3c-.3.7.9 1.1 1.2.3 2-4.6 3.5-9.8 6-14.2s7-8 9.6-12.2c1.8-2.7 1.6-6.5 2-9.7l2.2-16.1c.1-.8-1.2-.8-1.3 0z" fill="#231f20"/><path d="m630.5 911.5c1.8-3.5 4.3-7.3 7.5-9.6 4.9-3.4 9.4 1.2 13.5 3.8.6.5 1.3-.6.6-1-4-2.6-8.4-7.2-13.4-4.7s-7.2 6.9-9.2 10.9c-.4.7.7 1.4 1 .6z" fill="#231f20"/><path d="m581.6 953.5c3-4.7 9.3-6.4 14.5-6.5.8-.1.8-1.3 0-1.3-5.7.1-12.3 2.1-15.5 7.1-.5.7.6 1.3 1 .7z" fill="#231f20"/><path d="m618.8 973.3-3.9-4c-1.1-1.1-4-3.3-4.5-4.3s.7-6.7-.2-9.5-4.4-8.2-6.4-12l-5.7-10.7c-.4-.7-1.5 0-1.1.7l5.5 10.2c2 3.9 5.5 8.3 6.7 12.5.6 2.2-1 6.9.2 9.4s2.8 2.8 3.9 4l4.6 4.5c.6.6 1.5-.3.9-.8z" fill="#231f20"/><path d="m603.3 990.7a39.5 39.5 0 0 1 1-13.7 33.8 33.8 0 0 1 2.3-6.3c.5-.8 3.7-4.7 2.7-5.3.5.3.6 4.5.7 5.1.6 4.3.4 9.9 1.9 14s4.1 4.7 6 6.6a.6.6 0 1 0 .9-.9c-1.6-1.6-4-3.2-5.2-5.1a14.3 14.3 0 0 1 -1-4.6l-2.1-15.5a.7.7 0 0 0 -1.1-.2c-6.3 6.7-8.3 16.9-7.4 25.9.1.8 1.3.8 1.3 0z" fill="#231f20"/><path d="m677.1 887.6a59.9 59.9 0 0 1 -.1-11.2 38.9 38.9 0 0 1 2-10.7 6.6 6.6 0 0 0 .9-3.3c-.2-3.1-2.3-6.9-3.3-9.8l-2.8-8.4c-.3-.8-1.5-.5-1.3.3l2.9 8.4c1 2.9 3.2 6.8 3.3 9.9.1 1.4-1.3 3.7-1.7 5.3a46.3 46.3 0 0 0 -1.3 8.3 59.9 59.9 0 0 0 .1 11.2c.1.8 1.3.8 1.3 0z" fill="#231f20"/><path d="m688.1 865.3-8.5-2.9c-.7-.3-1.1.9-.3 1.2l8.5 3c.7.2 1.1-1 .3-1.3z" fill="#231f20"/></g><path d="m402.9 783.1 10.6 3 26 33.7" fill="url(#a)"/><path d="m960.7 783.1 6.7 1.9a20.6 20.6 0 0 1 3.9 1.2c3.1 2.6 5.5 7.1 7.9 10.3l17.8 23c.5.6 1.6 0 1.1-.6l-18.9-24.5c-2.1-2.7-4.4-7.1-7.1-9.2s-7.8-2.4-11.1-3.3c-.7-.3-1.1.9-.3 1.2z" fill="#231f20" transform="translate(-558 .6)"/><path d="m914 671.2s5.2 20.8 5.2 38.9c0 0 11.8 20.6 30.6 58" fill="url(#b)" transform="translate(-558 .6)"/><path d="m913.4 671.4a198.3 198.3 0 0 1 4.4 25.4c.4 4.2-.3 9.7.9 13.7a14.5 14.5 0 0 0 1.8 3.2c10 18 19.5 36.3 28.8 54.7.3.7 1.4.1 1.1-.7-9.3-18.3-18.7-36.5-28.7-54.4a15.7 15.7 0 0 1 -1.9-3.3c-.5-1.8-.1-4.6-.2-6.5s-.5-6.6-.9-9.9a212 212 0 0 0 -4.1-22.5.6.6 0 1 0 -1.2.3z" fill="#231f20" transform="translate(-558 .6)"/><path d="m931.9 638.9 2.4 23 1.3 25.5 4.4 20.8 7.7 1.9v9.5s5.5 5.3 5.5 11.9" fill="url(#c)" transform="translate(-558 .6)"/><path d="m931.3 638.9c1.2 11.6 2.3 23.1 2.9 34.8.3 5.1.2 10.3 1.1 15.3 1.1 6.5 2.7 12.9 4.1 19.4a.7.7 0 0 0 .5.4c2 .5 5.4.7 7 1.8s.1-.6.1.9 0 2.9 0 4.3a15.4 15.4 0 0 0 .2 4.3 23.2 23.2 0 0 0 2.4 2.8 18 18 0 0 1 2.9 8.6c.1.8 1.3.8 1.3 0a18.3 18.3 0 0 0 -2.5-8.2c-.8-1.2-2.6-2.7-3.1-4s.1-6.7.1-9.2a.7.7 0 0 0 -.5-.6c-1.8-.4-3.7-1.1-5.6-1.4a10.6 10.6 0 0 1 -1.9-.4c.6.5.3-.1.1-.5-1.5-3.3-1.7-7.9-2.4-11.5a104.7 104.7 0 0 1 -2.3-17.6c-.7-13.2-1.8-26.1-3.2-39.2-.1-.8-1.3-.8-1.2 0z" fill="#231f20" transform="translate(-558 .6)"/><path d="m968.7 775.2s-15.5-22.4-15.5-29.5l-13.2-27.3s-4.5-5.7 0-10.2" fill="url(#d)" transform="translate(-558 .6)"/><path d="m969.2 774.9c-3.2-4.7-6.3-9.5-9.2-14.5s-4.7-10.6-6.8-16.1-5.6-11.6-8.4-17.4c-1.2-2.5-2.3-5.1-3.6-7.6s-4.2-6.4-.7-10.6c.5-.7-.4-1.5-.9-.9-4.1 5-.9 9.4 1.5 14.2l9.9 20.7c2.4 5.1 3.6 10.4 6.3 15.4s7 11.8 10.8 17.4c.5.7 1.6.1 1.1-.6z" fill="#231f20" transform="translate(-558 .6)"/><path d="m971.5 745.7s11.6 18.6 26 29.5" fill="url(#e)" transform="translate(-558 .6)"/><path d="m971 746a115.8 115.8 0 0 0 26.1 29.7c.6.5 1.5-.4.9-.9-10.3-8-19-18.4-25.9-29.4-.5-.7-1.5 0-1.1.6z" fill="#231f20" transform="translate(-558 .6)"/><path d="m889.6 514s-2.8 43.3 3.8 76.1c0 0-5.3 6.2 2.6 14.1 0 0-9.3-4.7-3.5 15s0 25.5 0 25.5" fill="url(#f)" transform="translate(-558 .6)"/><path d="m889 514a378.3 378.3 0 0 0 -.1 42.6c.3 5.7.8 11.5 1.4 17.3.3 2.4.6 4.8 1 7.2s1.5 5.7 1.4 8.2-1.3 3.2-1.5 4.9c-.6 4.1 1.7 7.5 4.4 10.4l.7-1c-4.8-2.3-6.5 2.6-6.3 6.6.6 8.3 4.6 16 4.5 24.5 0 3-.2 7.3-2.4 9.6a.6.6 0 0 0 .9.9c3.8-4 2.9-12.2 2.2-17-.3-2-8.3-27.8.5-23.5a.6.6 0 0 0 .7-1c-2.2-2.5-4.4-5.4-4.1-9 .2-1.7 1.1-2.6 1.5-4s-.7-5.8-1.1-8.4a253 253 0 0 1 -2.8-32.6c-.4-11.9-.4-23.8.3-35.7.1-.8-1.2-.8-1.2 0z" fill="#231f20" transform="translate(-558 .6)"/><path d="m349.2 623.6v64.5" fill="url(#g)"/><path d="m906.6 623v64.4a.6.6 0 1 0 1.2 0v-64.4a.6.6 0 1 0 -1.2 0z" fill="#231f20" transform="translate(-558 .6)"/><path d="m886.8 679.3-2.1-40.4s.5 6.6-7.2 14.3" fill="url(#h)" transform="translate(-558 .6)"/><path d="m887.5 679.3-2.2-40.4h-1.3c.3 5.2-3.6 10.3-6.9 13.8a.6.6 0 0 0 .9.9c3.6-3.8 7.6-9.1 7.3-14.7-.1-.8-1.3-.8-1.3 0l2.2 40.4c.1.8 1.3.8 1.3 0z" fill="#231f20" transform="translate(-558 .6)"/><path d="m869.8 771.9s6.6-4.5 11.3-16.7" fill="url(#i)" transform="translate(-558 .6)"/><path d="m870.2 772.4c5.6-3.9 9.1-10.9 11.5-17 .3-.8-.9-1.1-1.2-.4-2.3 5.8-5.7 12.7-11 16.3-.6.5 0 1.6.7 1.1z" fill="#231f20" transform="translate(-558 .6)"/><path d="m349.2 527.2v52.8" fill="url(#j)"/><path d="m906.6 526.6v52.8a.6.6 0 1 0 1.2 0v-52.8a.6.6 0 0 0 -1.2 0z" fill="#231f20" transform="translate(-558 .6)"/><path d="m363.4 588.6 6.5 7.6v16.5l10.1-3.3 2 17.8 3.8-4.7 8.4 1.1" fill="url(#k)"/><path d="m920.9 588.4 4.5 5.2c1.7 2 1.9 1.7 1.9 3.7.1 4.9 0 9.9 0 14.8a.7.7 0 0 0 .8.6l7.3-2.4c.5-.2 3.1-.7 2.3-1.2s-.1 1.2 0 1.9l1.7 15.5c.1.5.7.9 1.1.5s2.8-4.1 4.2-4.3 5.3.7 7.5.9.8-1.1 0-1.2-6.3-1.7-8.3-1.1-3.2 3.4-4.3 4.8l1.1.4-2-17.7c-.1-.4-.4-.8-.8-.6l-5.1 1.6c-1.3.4-3.6 1.8-4.9 1.6 1.1.1.5.9.7-.5v-9c0-2 .5-4.9-.3-6.8s-4.6-5.4-6.5-7.6c-.5-.6-1.4.3-.9.9z" fill="#231f20" transform="translate(-558 .6)"/><path d="m901.6 583.5v35l-5.4 5.5s5.4 10.7 2.7 20.7c0 0 2.2 15.6 0 26.5" fill="url(#l)" transform="translate(-558 .6)"/><path d="m901 583.5v22.9c0 3.5.7 7.8 0 11.3-.2 1.1.2.6-1.2 1.8s-2.7 2.7-4.1 4.1a.6.6 0 0 0 -.1.7 33.7 33.7 0 0 1 3 9.3c.7 4.2-.3 8-.2 12.1.2 8.6 1.5 16.8-.1 25.4-.1.8 1.1 1.1 1.2.3 1.8-10.1-.5-20.1.7-30 .5-5-.4-11.7-2.8-16.2-.9-1.6-.9-.9.6-2.2s3.5-2.7 4-4 .3-2.7.3-4v-31.5a.7.7 0 0 0 -1.3 0z" fill="#231f20" transform="translate(-558 .6)"/><path d="m388 442.8-8 20.1 2 41.2-3.2 19.4 3.2 8.6v20.5" fill="url(#m)"/><path d="m945.4 442-4.1 10.5c-1.2 3-3.4 6.5-3.9 9.7s.2 4.7.3 6.9l.8 15.8c.3 6.4 1.4 13.7.7 19.9s-1.6 9.4-2.4 14.1-.6 4.2.7 7.5a30.1 30.1 0 0 1 1.9 11.9v13.7a.7.7 0 0 0 1.3 0v-11.7c0-2.9.5-6.3-.1-9.1s-3.1-6.5-3-9.6 1.6-9.3 2.3-13.7c1-6 .4-11.7.1-17.7l-.8-16.1c-.1-3.5-.8-7.4-.5-10.9s1.9-5.8 3-8.6l4.9-12.2c.3-.8-.9-1.1-1.2-.4z" fill="#231f20" transform="translate(-558 .6)"/><path d="m919.2 552.3s13.7-3.8 6 18.6c0 0 20.7 3.3 10.4 17l15.4 30.6" fill="url(#n)" transform="translate(-558 .6)"/><path d="m919.3 552.9c10.7-2.8 7 12.8 5.3 17.9-.1.3.1.7.4.7a30.5 30.5 0 0 1 7.4 2.4c6.1 3.2 6.5 8.3 2.6 13.7a.6.6 0 0 0 0 .6l15.4 30.7c.4.7 1.5 0 1.1-.7l-8.6-17-5.3-10.6c-.3-.7-1.3-1.9-1.3-2.6s1.7-2.6 2.1-3.8c2.4-6.4-2.7-10.5-8.1-12.5-1.1-.4-2.6-.6-3.6-1.1l-1.1-.2c.2.2 1.2-2.5 1.4-3.2.9-3.6 2-8.1.5-11.7s-5.1-4.7-8.5-3.8c-.8.2-.4 1.4.3 1.2z" fill="#231f20" transform="translate(-558 .6)"/><path d="m356 412.7 2 50.2-4.5 8.3-4.3 13.9v-22.2l-11 16.4" fill="url(#o)"/><path d="m913.3 412.1 1.8 41.9c0 2.4.5 5.1.3 7.5s-2 4.2-3.1 6.2c-2.7 5.2-4 11-5.7 16.6l1.2.2v-22.3a.6.6 0 0 0 -1.1-.3l-11.1 16.5c-.4.6.7 1.3 1.1.6l11.1-16.4-1.2-.4v22.3a.6.6 0 0 0 1.2.1c2-6.3 3.6-12.5 6.7-18.3.9-1.6 1.9-2.9 2.1-4.7s-.2-4.9-.3-7.2l-1.7-42.3a.7.7 0 0 0 -1.3 0z" fill="#231f20" transform="translate(-558 .6)"/><path d="m910.4 345.2s-3.3 22.5 0 30.7c0 0 1.1-11.5 8.8-8.8l4.8 20.6v115.8" fill="url(#p)" transform="translate(-558 .6)"/><path d="m909.8 345c-1.4 9.7-3.4 21.7 0 31.1a.6.6 0 0 0 1.2-.2c.3-2.3 1-5 2.5-6.7s4.1-2.9 5.2-1.4.5 2.3.7 3.1c1.3 5.5 3.2 11.1 3.9 16.7s0 11.2 0 16.3v99.6a.7.7 0 0 0 1.3 0c0-38 .2-76 0-114-.1-7.5-3.1-15.3-4.8-22.5a.8.8 0 0 0 -.5-.5c-6.1-1.7-9 4.1-9.5 9.4l1.2-.2c-3.3-9.1-1.3-20.9 0-30.3.1-.8-1.1-1.2-1.2-.4z" fill="#231f20" transform="translate(-558 .6)"/><path d="m916.5 489.3a27.3 27.3 0 0 1 7.5-14.2" fill="url(#q)" transform="translate(-558 .6)"/><path d="m917.1 489.5c.7-5.3 3.7-10.2 7.3-14a.6.6 0 1 0 -.9-.9c-3.7 3.9-6.8 9.1-7.7 14.5-.1.8 1.1 1.2 1.3.4z" fill="#231f20" transform="translate(-558 .6)"/><path d="m930.3 352.9s6.7 5.9 0 12.6 6.5 12.6 6.5 12.6l-4.2 17.5s8.7 37.2 0 28.5v27" fill="url(#r)" transform="translate(-558 .6)"/><path d="m929.9 353.3a7.7 7.7 0 0 1 1.9 9.2c-1.1 2.3-3.6 3.6-3.9 6.2s1.7 5.3 3.8 7 3 1.6 4.2 2.6.1-.6.2-.1a6.5 6.5 0 0 1 -.4 1.8l-2.9 12c-1.1 4.7.2 8 1.1 12.8s1.5 8.2 1.8 12.4c.1 1.9.9 9.8-2.6 6.5a.6.6 0 0 0 -1.1.4v27a.6.6 0 0 0 1.2 0v-27l-1 .5c7.6 7.1 3.5-16.6 3.1-18.9s-2.2-8.3-1.9-10.9c.8-5.5 2.7-11.1 4-16.6a1.1 1.1 0 0 0 -.3-.7 19.1 19.1 0 0 1 -4.1-2.4c-1.5-1.1-3.5-2.8-3.8-4.8s2-4.4 3.3-6.5a9 9 0 0 0 -1.7-11.4c-.6-.5-1.5.4-.9.9z" fill="#231f20" transform="translate(-558 .6)"/><path d="m896 352.9.2 22.4s3.5 7.7-.2 36.8c0 0 0 13.7-3.5 21.9" fill="url(#s)" transform="translate(-558 .6)"/><path d="m895.4 352.9c0 8.5-.6 17.5.9 25.6s.7 17.6-.1 26.2-.7 20-4.3 29.1c-.3.8.9 1.1 1.2.3 3.4-8.5 3.1-17.8 4.1-26.8s1.9-18.7.5-27.9c-.4-3.2-.9-4.3-.9-7.2l-.2-19.3a.6.6 0 0 0 -1.2 0z" fill="#231f20" transform="translate(-558 .6)"/><path d="m343.6 291.9-5.4 13.4v15.3" fill="url(#t)"/><path d="m901 291.1c-1.7 4.3-4.6 9.1-5.5 13.6s0 10.4 0 15.3a.7.7 0 0 0 1.3 0c0-4.8-.9-10.4 0-15.2s3.7-9.1 5.4-13.3c.4-.8-.9-1.1-1.2-.4z" fill="#231f20" transform="translate(-558 .6)"/><path d="m924 279.7 3.9 15.1s-7.9 14.2-3.9 21.4c0 0-10.3 6-7.5 16.4s-.5 7.2-.5 7.2" fill="url(#u)" transform="translate(-558 .6)"/><path d="m923.4 279.9 1.7 6.6c.6 2.3 2.2 5.7 2.2 8.2 0 0-.1-.1-.4.8s-1.2 2.4-1.7 3.6a34.3 34.3 0 0 0 -2.9 10.4 16.7 16.7 0 0 0 .3 5c.4 1.3.8.8.5 1.5s-3.9 3.3-5.1 5a14.7 14.7 0 0 0 -2.5 10.2c.2 1.1 1.5 8.7 1 8.2s-1.5.3-.9.9 2.6-.8 2.5-2.4c-.1-5.7-2.8-10 .5-15.4a16.7 16.7 0 0 1 5.7-5.8c.3-.2.3-.5.2-.9-2.3-4.8-.4-10.7 1.5-15.4.7-1.7 2.4-3.9 2.5-5.8s-1.4-5.4-1.9-7.5l-2-7.6c-.2-.8-1.5-.4-1.2.4z" fill="#231f20" transform="translate(-558 .6)"/><path d="m947.7 710.1a110 110 0 0 1 -3.9-27.9" fill="url(#v)" transform="translate(-558 .6)"/><path d="m948.3 710a104.7 104.7 0 0 1 -3.8-27.8.7.7 0 0 0 -1.3 0 107 107 0 0 0 3.9 28.1c.2.8 1.4.4 1.2-.3z" fill="#231f20" transform="translate(-558 .6)"/><path d="m892.5 682.2s3.5 9.2 3.5 23.9 7.8 16.1 7.8 16.1" fill="url(#w)" transform="translate(-558 .6)"/><path d="m891.9 682.4c3.5 9.3 2.4 19 3.8 28.6.7 4.4 2.9 10.8 8 11.8a.6.6 0 1 0 .3-1.2c-7.7-1.6-7.2-13.6-7.4-19.2s-1.1-14-3.5-20.4c-.3-.7-1.5-.4-1.2.4z" fill="#231f20" transform="translate(-558 .6)"/><path d="m301 770.4-7 15.7" fill="url(#x)"/><path d="m858.4 769.4-7 15.8c-.3.7.8 1.3 1.1.6l7-15.7c.3-.7-.7-1.4-1.1-.7z" fill="#231f20" transform="translate(-558 .6)"/><path d="m331 417.1v41.1" fill="url(#y)"/><path d="m888.4 416.4v41.1a.6.6 0 0 0 1.2 0v-41.1a.6.6 0 1 0 -1.2 0z" fill="#231f20" transform="translate(-558 .6)"/><path d="m878.7 247.2 6 14.7v48.1s3.8 6.7 0 16v23.6l4.3 13.7v34" fill="url(#z)" transform="translate(-558 .6)"/><path d="m878.1 247.3c1.9 4.7 4.7 9.6 5.8 14.5.6 2.4.1 6.2.1 9v36.7c0 4.2 2.1 7.7 1.7 12.1-.3 2.9-1.5 5.3-1.7 8.2s0 6 0 9-.6 9.1.2 13.3 3.6 9 4.2 13.3 0 11.8 0 17.4v16.5a.6.6 0 0 0 1.2 0c0-10.8.3-21.5 0-32.3 0-3.9-1.8-7.7-3-11.5s-1.3-7.6-1.3-12.3-.8-11.5.6-16.7a22.6 22.6 0 0 0 .4-12.1c-.4-1.4-.9-2.2-1-3-.6-4.6 0-9.7 0-14.3v-21c0-3.9.6-8.4 0-12.2s-4.1-10.2-6-14.9c-.3-.7-1.5-.4-1.2.3z" fill="#231f20" transform="translate(-558 .6)"/><path d="m896 241.1s.4 11.2 5.6 16.4" fill="url(#A)" transform="translate(-558 .6)"/><path d="m895.4 241.1c.2 5.8 1.7 12.5 5.8 16.9.6.6 1.4-.3.9-.9-3.9-4.1-5.2-10.5-5.5-16 0-.8-1.3-.8-1.2 0z" fill="#231f20" transform="translate(-558 .6)"/><path d="m927.9 229v20.3l-7.7 10.4c5.4-10.4-4.2-26.3-4.2-26.3 1.2-61.3-9.9-57-9.9-57" fill="url(#B)" transform="translate(-558 .6)"/><path d="m927.3 229v18.3c.1 4-5 8.6-7.6 12.1l1 .6c3.7-7.9.8-17.1-2.9-24.6-2.3-4.5-1.1-10.4-1.1-15.4s-.3-12.1-.8-18.1-1.3-13.1-3.5-19.3c-.8-2.1-1.8-4.9-3.9-6.2a3.4 3.4 0 0 0 -2.6-.6c-.7.3-.4 1.5.4 1.2 4.3-1.6 6.7 12.5 7 14.4 2.2 12.2 2.3 24.9 2.1 37.3 0 5 .7 5.7 2.6 10.1 2.7 6.4 4.7 14 1.7 20.6a.6.6 0 1 0 1 .6c2.6-3.4 7.4-7.6 7.9-11.9.7-6.2 0-12.8 0-19.1a.7.7 0 0 0 -1.3 0z" fill="#231f20" transform="translate(-558 .6)"/><path d="m914.8 294.8a65 65 0 0 0 0-24.7c-6.6-6.5-18.6-5.4-18.6-5.4v25.2z" fill="#231f20" transform="translate(-558 .6)"/><path d="m915.4 295a64.6 64.6 0 0 0 .9-18.6c-.1-1.9 0-5-1.1-6.7-3.1-5.2-13.7-6.1-19-5.7-.4.1-.7.3-.7.7v25.2a.7.7 0 0 0 .5.6l18.6 4.9c.8.2 1.1-1 .4-1.2-5.8-1.5-12.2-2.5-17.7-4.7-1.5-.6-.3.5-.5-.1a13.7 13.7 0 0 1 0-3.5v-11.6c0-3-.1-5.9 0-8.9 0-1-1-.2.3-.2s4.2.1 6.3.4c4.1.7 10.4 2.2 11.2 6.8a63.7 63.7 0 0 1 -.4 22.2c-.2.8 1 1.2 1.2.4z" fill="#231f20" transform="translate(-558 .6)"/><path d="m262.5 431.3v10.7l59.2 5.7 2.8-9.1z" fill="#c38251"/><path d="m819.9 430.7v10.7a.6.6 0 0 0 .6.6l59.2 5.7a.5.5 0 0 0 .6-.4l2.8-9.1a.6.6 0 0 0 -.6-.8l-62-7.3c-.7-.1-.7 1.1 0 1.2l59.6 7c.5.1 1.9 0 2.3.3s-.9.3-1.2 1.6a44.8 44.8 0 0 0 -1.6 5.2c-.2 1-.9 1.5 0 1.1s-.7-.1-.9-.1a28.4 28.4 0 0 1 -5.1-.5l-36.8-3.6c-4.8-.4-10.2-1.7-14.9-1.4h-1.3c1.1.6.6-.3.6-1.7v-8.4a.7.7 0 0 0 -1.3-.1z" fill="#231f20" transform="translate(-558 .6)"/><path d="m249.6 454.1v-13.5l77 8.2v14.1z" fill="#c38251"/><path d="m808.2 453.4v-9.5c0-.9-.4-3 0-3.8-.4.8-.8.4.2.6 4.7.8 9.7 1 14.5 1.6l49.2 5.2 8.1.8c1.2.2 3.2 0 4.3.5-.6-.3-.2-.6-.5.6s0 4 0 5.8a33.7 33.7 0 0 0 0 5.5 2.8 2.8 0 0 1 0 1.3c-.1.4 1-.5.5-.4-3.6.6-8.9-1-12.4-1.4l-24-2.8-40.5-4.6c-.8-.1-.8 1.2 0 1.3l77.1 8.8a.7.7 0 0 0 .6-.7v-14a.6.6 0 0 0 -.6-.6l-77.1-8.2c-.4-.1-.6.3-.6.6v13.4a.6.6 0 1 0 1.2 0z" fill="#231f20" transform="translate(-558 .6)"/><path d="m249.6 454.1 88.6 10.1v15.1l-60.3-8.1z" fill="#c38251"/><path d="m807.6 454.1 84 9.6c1.2.1 3.2-.1 4.3.5s-.1-.8-.4.6 0 4.4 0 6.3a56.1 56.1 0 0 0 0 5.8 3.3 3.3 0 0 1 0 1.7c.1-.2 1.3-.6.5-.6s-3.9-.5-5.7-.7l-49.4-6.7c-1.3-.2-3.8-.3-4.7-.6-2.6-.9-5.3-3.1-7.6-4.6l-20.7-12.5c-.7-.4-1.3.7-.6 1.1l16.6 10.1c3.8 2.3 8 5.9 12.2 7.1s11.5 1.6 16.9 2.3l26.6 3.6 16.4 2.2a.6.6 0 0 0 .8-.6v-15.1a.7.7 0 0 0 -.6-.7l-77.6-8.8-11-1.3c-.8-.1-.8 1.2 0 1.3z" fill="#231f20" transform="translate(-558 .6)"/><path d="m277.9 471.2 78.1 10.5-3 14.7-33.5-2.7z" fill="#c38251"/><path d="m835.7 471.2 73.8 9.9c1.2.2 3 .1 4 .6s-.1-1.3-.3-.1-.6 3.2-.9 4.8l-1.2 6c-.1.5-.8 3.3-.4 2.9s-.8-.2-1.2-.3-2.6-.2-3.9-.3l-23.4-1.9c-4.3-.3-4.9-.6-8.7-2.6l-37.3-20.2c-.7-.4-1.3.7-.6 1.1l39.6 21.4c4 2.2 8.8 1.7 13.3 2.1l22.5 1.8a.6.6 0 0 0 .6-.5l3-14.6c0-.3-.1-.8-.5-.8l-78.1-10.5c-.7-.1-1.1 1.1-.3 1.2z" fill="#231f20" transform="translate(-558 .6)"/><path d="m319.5 493.7 41.7 3.4v17.5z" fill="#c38251"/><path d="m877.5 493.7 20.4 1.6 13.8 1.2c1.8.1 5.8-.4 7.4.6-1.1-.7-.5.8-.5 2.3v7.3c0 1.6-.6 4.4 0 6a4.8 4.8 0 0 1 0 1.2c0-.8 1.3 0 .4-.7s-5.4-2.7-7.8-3.9l-12.5-6.3-20.9-10.5c-.7-.3-1.3.7-.6 1.1l41.7 20.9a.6.6 0 0 0 .9-.5v-17.6a.6.6 0 0 0 -.6-.6l-41.7-3.4c-.8 0-.8 1.2 0 1.3z" fill="#231f20" transform="translate(-558 .6)"/><path d="m387.8 604.8-2 12.3 42.6 12.6 20.4-9.9z" fill="#c38251"/><path d="m945.2 604-2 12.3a.6.6 0 0 0 .5.7l37.4 11.1c4.1 1.2 4.8 1.8 8.6 0l17.5-8.4c.5-.2.3-1-.2-1.1l-61-15c-.8-.2-1.1 1-.4 1.2l61.1 15-.2-1.2c-6.4 3.1-12.7 6.7-19.3 9.3-1.3.6-1.3.3-3.7-.4l-10.7-3.2-25.2-7.4a24.6 24.6 0 0 1 -2.9-.9 1 1 0 0 1 -.7-.2c1 .9.3.4.7-.6 1.2-3.2 1.2-7.5 1.7-10.9.1-.8-1.1-1.1-1.2-.3z" fill="#231f20" transform="translate(-558 .6)"/><path d="m377.6 588.6v13.7l71.2 17.5 22.5 2.7-14.2-17z" fill="#c38251"/><path d="m934.9 587.9v13.7a.6.6 0 0 0 .5.6l37.1 9.2c11.4 2.8 22.9 6.4 34.5 8.4 7.3 1.3 14.9 1.8 22.3 2.7.6.1.8-.7.5-1l-6.2-7.4c-2.3-2.8-4.8-7.2-7.7-9.3s-6.8-1.8-9.8-2.4l-54.7-11.7-15.7-3.4c-.8-.1-1.1 1.1-.3 1.2l39.3 8.4 26.9 5.8 9.4 2c1.1.2 2.9.2 3.9.8s4.9 6 6.6 8l7.4 8.9.4-1.1c-7.4-.9-14.9-1.4-22.2-2.7-4.2-.8-9.3-2.3-13.7-3.4l-53.7-13.2a21.4 21.4 0 0 1 -3.2-.8c-1.3-.4-.1.6-.3-.1-.9-3.9 0-9.1 0-13.2a.7.7 0 0 0 -1.3 0z" fill="#231f20" transform="translate(-558 .6)"/><path d="m372.1 571.6-2.2 15.3 87.2 18.6-24.5-21.3z" fill="#c38251"/><path d="m929.5 570.8-2.2 15.3c0 .4.1.7.5.8l76.3 16.3 10.8 2.3c.6.1 1.2-.6.7-1l-14.9-13c-3.1-2.7-6.6-7.1-10.4-8.7s-11.7-2.4-17-3.5l-26.4-5.5-16.6-3.5c-.8-.1-1.1 1.1-.3 1.2l38.4 8 19.9 4.2a5.1 5.1 0 0 1 2.3.7c2.6 1.5 4.8 4.2 7.1 6.1l17 14.9.6-1.1-85.2-18.2a6.5 6.5 0 0 1 -1.9-.4c-.4-.2.5 1.2.4.5a10.7 10.7 0 0 1 .3-2.5l1.8-12.6c.2-.8-1.1-1.1-1.2-.3z" fill="#231f20" transform="translate(-558 .6)"/><path d="m402.9 564.2 29.7 20-65.4-12.6-1.3-17.4z" fill="#c38251"/><path d="m960.6 564.1 29.7 20 .5-1.2-52.5-10.1-10.7-2a8.5 8.5 0 0 1 -2.2-.4c.1 0 .7.9.4-.1a10.1 10.1 0 0 1 -.2-3c-.3-4.2-1.7-9.5-1-13.6-.1.4-1.3.5-.3.7a9.4 9.4 0 0 1 1.6.4l5.9 1.6 28.9 7.7c.8.3 1.1-.9.3-1.2l-36.9-9.9a.7.7 0 0 0 -.8.6l1.3 17.3c0 .3.2.6.4.6l65.5 12.6c.6.2 1-.7.4-1.1l-29.7-20a.6.6 0 0 0 -.6 1.1z" fill="#231f20" transform="translate(-558 .6)"/><path d="m361.2 542.5v10.5l41.7 11.2z" fill="#c38251"/><path d="m918.6 541.9v10.4c0 .3.1.6.4.6l41.7 11.2c.7.2 1.1-.8.5-1.1l-41.7-21.6c-.7-.4-1.4.7-.6 1.1l41.7 21.6.4-1.2-27.9-7.5c-4.2-1.1-8.8-1.9-12.9-3.4-.4-.2-1-.5-.6 0s.2-2 .2-2.5v-7.6a.6.6 0 1 0 -1.2 0z" fill="#231f20" transform="translate(-558 .6)"/><path d="m331.6 690.5v15.2l-57.6-9.3v-13.6z" fill="#c38251"/><path d="m889 689.9c0 4.6 1 10.5 0 15-.1.2 1.3-.5.3-.5l-1.6-.3-5.9-.9-38.3-6.2c-3.1-.5-8.2-.4-11-1.8-.8-.4.4 1 .1.2s0-2.4 0-3.2c0-3-.3-6.2 0-9.3.2-1.2-.5 0-.4-.1l1.1.2c1.7.6 3.8.5 5.6.7l18 2.4 32.7 4.4c.8.1.8-1.2 0-1.3l-57.6-7.6c-.3-.1-.6.3-.6.6v13.5c0 .3.2.6.4.6l57.6 9.4a.6.6 0 0 0 .8-.6v-15.2a.6.6 0 0 0 -1.2 0z" fill="#231f20" transform="translate(-558 .6)"/><path d="m345.8 708v14.8l-83.8-14.8 2.8-13.1z" fill="#c38251"/><path d="m903.2 707.4v10.2a30.9 30.9 0 0 1 0 4.3c0-.1 1.3-.2.2-.4-4.9-1-9.9-1.7-14.8-2.6l-52.7-9.3c-5-.9-10-1.7-15-2.7-.4-.1-.9-.3-.5.2s.9-3 1.1-3.8l1.4-6.3c.3-1.4 1-2.4-.1-2.1.9-.3 2.8.4 3.8.6l8.7 1.4 25.4 4.1 43 7c.8.1 1.1-1.1.3-1.2l-81-13.2a.7.7 0 0 0 -.8.5l-2.8 13.1a.7.7 0 0 0 .4.8l83.9 14.8a.6.6 0 0 0 .8-.6v-14.8a.7.7 0 0 0 -1.3 0z" fill="#231f20" transform="translate(-558 .6)"/><path d="m356 724.6v13.7l-91.2-13.7-7.5-7.5 4.7-9.1z" fill="#c38251"/><path d="m913.3 724c0 3.7-.8 8.5 0 12 .1.3.2 1.3 0 1.5s1.3-.5.6-.5a9.7 9.7 0 0 1 -1.8-.3l-20.4-3-58.1-8.7c-3.7-.6-9.2-.5-11.5-2.6s-3.3-3.7-5.2-5.2c-.3-.2-1.1-1.4-1-.8s.8-1.3 1-1.7c1.1-2 2-4.2 3.2-6.1s-.7-.4.2-.5 4.1.7 5.7 1l10.4 1.8 29.4 5.2 48 8.5c.8.1 1.1-1.1.3-1.2l-82.1-14.5-11.8-2.1a.5.5 0 0 0 -.7.3l-4.7 9.1a.5.5 0 0 0 .1.7c3 3 5.5 7.4 9.8 8l18.7 2.8 56 8.4 14.4 2.1a.6.6 0 0 0 .8-.6v-13.6a.7.7 0 0 0 -1.3 0z" fill="#231f20" transform="translate(-558 .6)"/><path d="m369.9 740.4v18.3l-75.9-12.3-29.2-21.8z" fill="#c38251"/><path d="m927.3 739.7v14.3a10.1 10.1 0 0 0 0 3c.4 1.2-.7.7.7.4a6.9 6.9 0 0 1 -2-.3l-28.1-4.6-34.6-5.6c-3.3-.5-6.8-.7-10-1.6-1.7-.4-2.6-1.3-4.3-2.6l-25.9-19.2-.4 1.1 91.8 13.7 13.3 2c.8.1 1.1-1.1.3-1.2l-91.9-13.7-13.2-2c-.7-.1-1.1.7-.5 1.1l19.3 14.4c3.6 2.7 7.4 7 11.9 7.7 18.3 3.2 36.7 6 55 8.9l19.1 3.1a.6.6 0 0 0 .8-.6v-18.3a.7.7 0 0 0 -1.3 0z" fill="#231f20" transform="translate(-558 .6)"/><path d="m382 760.6v11.9l-58.9-8.1-29.1-18z" fill="#c38251"/><path d="m939.4 760c0 3.7-.2 7.5 0 11.2 0 .6 1.3.2 0-.1l-3-.4-25.2-3.4-25.8-3.6c-4.8-.6-7-2.3-11.3-5l-21.8-13.5-.5 1.1 77.1 12.5 11 1.8c.8.1 1.1-1.1.3-1.2l-77.1-12.5-11-1.8a.6.6 0 0 0 -.4 1.2l16.2 10c4 2.5 8.6 6.6 13.2 8.1s10.7 1.5 15.5 2.1l26.7 3.7 16.6 2.3c.4 0 .8-.2.8-.6v-11.9a.7.7 0 0 0 -1.3 0z" fill="#231f20" transform="translate(-558 .6)"/><path d="m391.8 787.3v-13.5l-68.7-9.4 32.9 18.7z" fill="#c38251"/><path d="m950.4 786.7v-13.5c0-.2-.1-.6-.4-.6l-68.7-9.4c-.7-.1-1.2.7-.5 1.1l16.9 9.6c5 2.9 10.5 7.2 16 9.1s11.6 1.4 16.7 2l19.4 2.3c.8.1.8-1.1 0-1.2l-18.4-2.2c-5-.6-13.2-.6-17.2-2-1.9-.7-3.8-2.2-5.5-3.2l-11.3-6.4-16-9.1-.5 1.2 44.1 6 22.4 3.1a7.5 7.5 0 0 1 2 .3c.5.2-.2-.5-.2-.5s0 1.6 0 1.8c-.4 3.8 0 7.8 0 11.6a.6.6 0 1 0 1.2 0z" fill="#231f20" transform="translate(-558 .6)"/><path d="m407.1 789.1 3.6 17-24.9-3.1-29.8-19.9z" fill="#c38251"/><path d="m964.5 788.7 2.1 9.9a53.5 53.5 0 0 0 1.1 5.5 3.7 3.7 0 0 1 .4 1.5c.1-.8.9-.8.1-.8a177 177 0 0 1 -22.9-2.9c-4.1-.7-10-6-14-8.6l-17-11.4-.3 1.2 51.1 6c.8.1.8-1.1 0-1.2l-51.1-6.1a.6.6 0 0 0 -.3 1.2c9.4 6.3 18.8 13 28.4 19 2.8 1.7 6.1 1.6 9.4 2l17.2 2.1a.6.6 0 0 0 .6-.8l-3.6-17c-.2-.8-1.4-.4-1.2.4z" fill="#231f20" transform="translate(-558 .6)"/><path d="m428.4 823.7v-15.4l-42.6-5.3 24.9 19.4z" fill="#c38251"/><path d="m987 823.1v-15.4a.7.7 0 0 0 -.6-.7l-42.6-5.2c-.5-.1-.8.7-.4 1l22.5 17.7c2.3 1.7 2.8 1.9 5.7 2.1l14.8 1.1c.8 0 .8-1.2 0-1.3l-13.6-.9c-4.1-.3-3.7-.2-7-2.7l-21.5-16.9-.5 1.1 32.1 4 7.8 1 2 .2c1.2.2.1-.3.1-.2 1 4.5 0 10.4 0 15.1a.6.6 0 0 0 1.2 0z" fill="#231f20" transform="translate(-558 .6)"/><path d="m451 825.3 6.1 13.7-39.8-9.9-6.6-6.7z" fill="#c38251"/><path d="m1008.5 825 6.1 13.7.7-.9-26.5-6.6c-4-1-8.6-1.5-12.4-3.1s-5.1-4.5-7.3-6.7l-.4 1 40.3 2.9c.8 0 .8-1.2 0-1.3l-40.3-2.8c-.6-.1-.8.7-.5 1.1 2.2 2.1 4.5 5.5 7.2 6.8s8.1 2.1 11.7 3l27.8 6.9a.7.7 0 0 0 .8-.9l-6.1-13.8c-.3-.7-1.4-.1-1.1.7z" fill="#231f20" transform="translate(-558 .6)"/><path d="m432.6 845 41.7 13.5-2-15.7-55-13.7z" fill="#c38251"/><path d="m990.5 844.9 41.7 13.6c.3.1.8-.2.7-.6l-2-15.7a.6.6 0 0 0 -.5-.6l-54.9-13.7a.6.6 0 0 0 -.6 1l15.3 15.9c.5.6 1.4-.3.9-.9l-15.3-15.9-.6 1.1 48.9 12.2c1.5.4 4.8.5 6 1.5-.9-.7-.2 0-.3.9s.3 2 .4 3l1.1 7.9a20.6 20.6 0 0 0 .3 2.6c.3 1.1 0-.1.8 0a14.9 14.9 0 0 1 -3-.9l-13.1-4.3-25.5-8.3a.6.6 0 0 0 -.3 1.2z" fill="#231f20" transform="translate(-558 .6)"/><path d="m448.8 867.5 53.2 14.8v-14.8l-69.4-22.5z" fill="#c38251"/><path d="m1006.7 867.5 53.1 14.7c.4.2.8-.2.8-.6v-14.8a.8.8 0 0 0 -.4-.6l-69.4-22.5c-.5-.1-1 .5-.7.9l16.2 22.6c.5.6 1.6 0 1.1-.7l-16.2-22.5-.7.9 59.5 19.4c2.8.9 6.9 1.4 9.3 3h.5c-.9-.9-.3.4-.4 1.2-.4 3.2 0 6.6 0 9.8a28.1 28.1 0 0 1 0 2.9c-.1.6 1.2-.2.4-.4a32.5 32.5 0 0 1 -4.2-1.1l-16.8-4.7-31.8-8.9c-.8-.1-1.1 1.1-.3 1.4z" fill="#231f20" transform="translate(-558 .6)"/><path d="m798.6 447.1v29.1s35.6 27.4 120.6 65.7 110.1 80 110.1 80v-31.8s-12.6-28.5-110.1-76.1-120.6-66.9-120.6-66.9z" fill="#e5a956" transform="translate(-558 .6)"/><path d="m798 447.1v23.8c0 3.2-.8 5 1.7 6.9 11.4 8.4 23.8 15.6 36.1 22.7 29.2 16.8 59.6 30.8 90.1 45.2 28 13.2 55.1 29.2 78.3 49.7 8.9 7.9 18.4 16.6 24.6 26.8a.6.6 0 0 0 1.1-.3v-27.5c0-2.8.3-4.2-1.1-6.4-6.5-10.2-16.9-18.4-26.3-25.6-28.7-21.9-61.2-38.2-93.5-54.1-28.6-14.2-57.2-28.8-84.7-45.2-8.5-5-17.6-10.1-25.2-16.4-.6-.5-1.5.4-.9.9 5.5 4.6 11.9 8.3 18 12.1 23.2 14.3 47.3 27 71.5 39.3 34.8 17.7 70.5 34 102.8 56.2 12.8 8.9 26.5 18.7 35.8 31.4 1.7 2.2 2.4 3.4 2.4 5.4-.2 9.9 0 19.9 0 29.9l1.2-.3c-4.8-7.7-11.6-14.5-18-20.8-19.2-18.5-41.8-33.4-65.2-46-17.4-9.4-35.7-17.1-53.6-25.7-14.7-7.1-29.3-14.5-43.6-22.3s-31.2-17.6-45.8-27.8a30.2 30.2 0 0 1 -4.1-2.9 1.5 1.5 0 0 1 -.6-.5c.6 1.1.3-1.3.3-2v-26.5a.7.7 0 0 0 -1.3 0z" fill="#231f20" transform="translate(-558 .6)"/><path d="m810.7 739.7s13.1 29.1 66.8 51 92.6 65.7 92.6 65.7l36.7 10.4s-22.4-46.7-115.1-97.1c-5.7-3.2-52.4-27.8-84.1-59.6a151.9 151.9 0 0 0 3.1 29.6z" fill="#e5a956" transform="translate(-558 .6)"/><path d="m810.1 740c3.4 7.4 9.7 13.9 15.5 19.4a143.1 143.1 0 0 0 23.3 17.7c12 7.3 24.8 12.2 37.5 18.1 22.6 10.6 43.3 24.9 62.1 41.3 5.7 4.9 11.2 10 16.4 15.3 1.6 1.6 3.2 4.2 5.2 5.3s4.4 1.2 6.3 1.8l12.4 3.5 17.9 5.1a.7.7 0 0 0 .7-1c-7.6-15.7-21.7-29.4-34.3-41a370.8 370.8 0 0 0 -52.2-39.5c-15.6-9.8-32-18.2-47.8-27.6-23.2-13.9-45.8-29.6-65.1-48.7a.6.6 0 0 0 -1 .4 142.2 142.2 0 0 0 3.1 29.8c.1.8 1.3.4 1.2-.3a146.3 146.3 0 0 1 -3.1-29.5l-1.1.5c17.1 16.9 36.8 31.1 57.1 43.8 13.8 8.6 28.3 16.1 42.3 24.3 33.4 19.6 66.7 43.4 90.6 74.5 3.3 4.3 6.8 9 9.2 14l.7-1-34.6-9.8c-2.4-.7-2.7-1.4-4.8-3.6-4.7-4.8-9.5-9.5-14.5-13.9a285.3 285.3 0 0 0 -54.4-38.9c-12-6.4-24.8-11-37-17.2a162.1 162.1 0 0 1 -29.8-19.4c-7.8-6.5-16.4-14.6-20.7-24-.3-.7-1.4-.1-1.1.6z" fill="#231f20" transform="translate(-558 .6)"/><path d="m812.5 34.2s.1 15.6 6.4 6.4c0 0 3.3 7.5 15.3 2.9 0 0-8.3 44.1 30.2-12.3l9.3-7.6v-23.6l-33.2 9z" fill="#111512" transform="translate(-558 .6)"/><path d="m811.9 34.2c0 2.5-.1 8.7 2.8 9.7s2.7-1 3.9-1.9-1.2-1.2.1-.5 1.2 1.5 1.8 2a11.2 11.2 0 0 0 6.8 2.1c.7 0 7.5-.7 6.3-2.3.1.1-.1.5-.1.6s-.6 5.2-.6 6.8c-.1 4 .4 11 6.1 9.6s8.3-5.9 11.1-9.1c6.1-6.9 10.5-16 17.6-21.9 1.6-1.3 5.6-3.5 6.5-5.4s.1-3.5.1-4.8v-19.1a.6.6 0 0 0 -.8-.6l-18.5 5c-4.6 1.3-10.8 1.9-15 4.3-1.7.9-3.2 2.9-4.7 4.2l-9.6 8.6-13.6 12.3c-.6.5.3 1.4.9.8 8.9-8 17.7-16.3 26.8-24.1 2.4-2 7.3-2.6 11-3.6l20.4-5.6a9.8 9.8 0 0 1 2.3-.6c.2 0-.3-1.2-.4.1-.4 3.3 0 6.7 0 10v10.4c0 2.9-.2 2.2-2.7 4.3a65.4 65.4 0 0 0 -6.5 5.3c-4.3 4.7-7.5 10.8-11.6 15.8-2.8 3.4-9.4 13.1-14.8 12.7s-3.3-12.2-2.7-15.7c.1-.4-.2-.9-.7-.7-4.5 1.5-12.1 2.9-14.7-2.6-.2-.5-.8-.4-1.1 0-4.3 5.9-5.1-2.6-5.2-6.1a.6.6 0 1 0 -1.2 0z" fill="#231f20" transform="translate(-558 .6)"/><path d="m815 113.3c-4.8 15 17.6 4.5 17.6 4.5s-11.1 52.1 23.6 9.1c0 0 1.3 36.2 11.3 11.3l3.5 11.4s4.9-30.1.5-51.5l-4.4-21.4-16.4 4.4z" fill="#111512" transform="translate(-558 .6)"/><path d="m814.4 113.1c-3.7 13 11.9 8.3 18.5 5.2l-.9-.7c-1.5 6.9-3.1 15.6-.9 22.4 4.6 14.1 22.5-8.9 25.5-12.7l-1.1-.4c.3 5.7.5 12.4 2.8 17.7 3.5 7.8 8.3-2.7 9.8-6.2h-1.2l3.5 11.4c.1.5 1.1.6 1.2 0a175.8 175.8 0 0 0 1.9-42.2c-1-10.5-3.7-20.8-5.8-31.1 0-.3-.4-.5-.7-.4l-8.3 2.2c-2.5.7-5.8 1-8.1 2.2s-5.9 5.2-8.4 7.4l-27.6 25c-.6.5.3 1.4.9.8l16-14.4 11.9-10.8c2.3-2.1 4.6-4.8 7.2-6.5s5.9-1.8 8.5-2.5 4.6-.9 6.6-1.8c.3-.1 1.2-.5 1.5-.4-1.3-.3-.3-.3-.4.9s.9 4.2 1.2 6l1.7 8.1a128.4 128.4 0 0 1 2.5 15.3 172.2 172.2 0 0 1 -1.8 41.8h1.2l-3.5-11.3a.6.6 0 0 0 -1.2 0c-.8 1.9-3.5 9.9-6.6 7.5-1.5-1.2-1.9-5.1-2.3-6.9a77.4 77.4 0 0 1 -1.2-11.8.6.6 0 0 0 -1.1-.4c-4 4.8-22 27.2-24 9.9-.7-6 .3-12.5 1.5-18.4.1-.6-.4-1-.9-.7-5.6 2.6-20 7.6-16.6-3.8.2-.8-1-1.1-1.3-.4z" fill="#231f20" transform="translate(-558 .6)"/><path d="m981.6 159.3c32.8 32.7-7.6 11.1-7.6 11.1 0 6.6 4.6 12.1 4.6 12.1a43.2 43.2 0 0 1 -25.4-19.2l-3.3 14.2-6.1-6-7 4.2-7.2-20.1 3-33.8z" fill="#111512" transform="translate(-558 .6)"/><path d="m981.2 159.7c2.8 2.8 5.6 5.7 8.2 8.8s3.7 4 4.2 6.2-3.5 1.8-5.5 1.2a76.8 76.8 0 0 1 -13.8-6c-.4-.2-1 0-1 .5a21.8 21.8 0 0 0 4.9 12.5l.6-1c-10.4-2.4-19.6-10.1-25.1-18.9a.7.7 0 0 0 -1.2.1c-.9 4.1-2.2 8.2-2.8 12.4a11.6 11.6 0 0 1 -.4 1.8c.7-1.1.8-.1-.4-1.6s-3.1-3.1-4.6-4.7a.8.8 0 0 0 -.8-.1c-1.8 1.1-3.8 2.1-5.4 3.3s-1.6.4-.7 1.3-.6-1.5-.7-2l-5.3-14.7c-2.5-7 0-16.1.6-23.5l.7-8c.2-1.4.8-3.6.5-4.9s-.9-.4-.3.4 2.2 1.7 3 2.3l25.2 19.3 20.2 15.4c.7.5 1.3-.6.7-1.1l-49.1-37.4c-.4-.4-.9.1-.9.5l-2.8 31.3c-.3 3.2.7 5.2 1.8 8.3l5.2 14.5a.6.6 0 0 0 .9.4c1.3-.8 6.1-4.3 6.7-4.2s4.4 4.6 5.6 5.8a.7.7 0 0 0 1.1-.2l3.3-14.3-1.2.2c5.7 9.1 15.1 17.1 25.9 19.5a.7.7 0 0 0 .6-1.1c-1.3-1.5-5.5-10.9-5.2-10.9s3.1 1.6 3.8 1.9c3.9 1.8 8 3.9 12.2 4.7 2.2.5 5 .8 5.2-2.1s-1.7-3.9-2.7-5.2a102.9 102.9 0 0 0 -10.3-11.6.6.6 0 0 0 -.9.9z" fill="#231f20" transform="translate(-558 .6)"/><path d="m309.1 277.3h-7.1v-14.8l-8.6 7.4-12.8-2.4-4.9-5-12.1-2.1v-7.3l57.1-19.6 5.2 14.3-8.8 32.5-3.6-9z" fill="#111512"/><path d="m867.1 276.1a56.1 56.1 0 0 0 -5.8 0c-1.3.1-.8 0-.7.3a11.3 11.3 0 0 1 0-2.6v-11.9a.6.6 0 0 0 -1-.4l-6.4 5.5c-2.5 2.1-1.7 1.7-5.2 1s-6.5-.5-8.8-1.7-3.2-3.7-5.1-4.8-4.1-.9-5.8-1.2l-5.1-.9c-1.6-.4-1.2.5-.9-1.4s-.4-3.4 0-4.9-1 .5 0-.2 3.4-1.2 4.7-1.6l39.4-13.5c3.7-1.3 8.3-3.8 12.2-4.2.8-.1-.8-.8-.4-.3s1 2.7 1.4 3.7c1.1 3.1 2.9 6.5 3.4 9.7s-2.6 11-3.7 15.1l-4.8 17.7h1.2l-3.6-9a.6.6 0 0 0 -1.1-.1l-4.4 6c-.5.6.6 1.3 1.1.6l4.3-6h-1.1l3.6 9a.6.6 0 0 0 1.2 0l7.4-27.3c.6-2.3 1.5-4.3 1.1-6.5-.9-4.5-3.3-9.1-4.9-13.4a.6.6 0 0 0 -.7-.4l-57.1 19.6a.6.6 0 0 0 -.5.6v7.2a.6.6 0 0 0 .5.6c3.5.7 8.8.6 11.9 2.2 1.5.8 2.8 3.3 4.4 4.4a7.1 7.1 0 0 0 3 1c2.8.6 8.2 2.8 11 1.9s3-2.6 4-3.4l4.6-4-1-.5v14.8a.6.6 0 0 0 .6.6h7.1a.6.6 0 1 0 0-1.3z" fill="#231f20" transform="translate(-558 .6)"/><path d="m864.5 207.9-11.9 17.9s-29.3 15.3-40.1 15.3-15.8 6.1-15.8 6.1 6.1 6.5 15.8 2.1c0 0 6.4 7.1 20.7 0 0 0-15.8 14.3 9.9 6 0 0 9.2 1.7 6.5-10.4l8.8 4.4 6.1 4.9 2.6-7 3.3 10.7s8.3-2.6 8.3-25l5.2 14.3 3.1-21.4s.3 23 14.6 15.3c0 0-10.9-8.8 0-19.7v-13s4.5-18.3 4.5-32l-19.2 12.7z" fill="#2b333b" transform="translate(-558 .6)"/><path d="m864 207.5-10.4 15.6c-1.1 1.8-1 1.9-2.5 2.7a92 92 0 0 1 -8.9 4.4c-8.3 3.9-17 8.1-26.1 9.9-7 1.3-14.7.6-19.9 6.6a.7.7 0 0 0 0 .9 13.7 13.7 0 0 0 6.1 3.4 14.2 14.2 0 0 0 5.8.3c1.8-.3 3.2-1.5 4.5-1s3.9 2.3 6.6 2.6c5 .7 9.8-1 14.3-3l-.8-1c-2.3 2-8.3 8.7-2.1 9.6 3 .4 6.6-.8 9.5-1.6a51.2 51.2 0 0 1 5.4-1c5.5-.9 5.6-6.7 4.7-11.1l-.9.7a73.2 73.2 0 0 1 14.8 9.2.6.6 0 0 0 1-.3l2.6-7.1h-1.2l3.3 10.8a.6.6 0 0 0 .8.4c8.5-2.8 8.7-19 8.8-25.6h-1.3l5.2 14.3c.2.5 1.1.7 1.2 0l3.1-21.3-1.2-.2c.1 9.3 4.3 21.4 15.6 15.8a.6.6 0 0 0 .1-.9 14.8 14.8 0 0 1 -3-3.6 11.8 11.8 0 0 1 -1.7-5.7c0-3.8 2.4-5.9 4.1-8.9s.8-7.7.8-11.3.9-6.9 1.6-10.4a142.5 142.5 0 0 0 2.8-24.4.6.6 0 0 0 -.9-.5c-6.6 4.4-13.6 8.4-19.8 13.2s-14.7 12.2-21.9 18.3c-.7.5.2 1.4.8.9 13-10.8 25.5-22.6 40.4-30.6a4.1 4.1 0 0 1 1.1-.7c-1.3-.3-1.2 6.2-1.3 6.8a134.7 134.7 0 0 1 -2 14.2c-.6 3.8-1.9 7.6-2.1 11.4s0 5 0 7.4a20.4 20.4 0 0 1 0 3.5c-.3 1.6-1.1 1.9-2.1 3.4a12.5 12.5 0 0 0 -.2 15c.4.7 1.5 1.4 1.7 2.1s.6.4.6.6l-2.5.3c-3.8.5-6.3-.4-8.3-4s-2.5-7.9-2.6-11.9c0-.6-1.1-.9-1.2-.1l-3.1 21.4h1.2l-5.2-14.3a.6.6 0 0 0 -1.2.2c-.1 5.7-.4 11.7-2.4 17.2-1.1 2.8-2.9 4.2-4.4 6.5a2.6 2.6 0 0 1 -1 .7c-.1 0 1.1.7.6 0a6.4 6.4 0 0 1 -.6-1.8l-2.6-8.5a.6.6 0 0 0 -1.2 0l-2.4 6.6c-.3.7.2.1.7.1s-1-.8-1.1-.9a19.9 19.9 0 0 0 -3.6-2.9c-3.1-2.4-6.8-3.8-10.2-5.5a.6.6 0 0 0 -.9.7c1.1 5.7.1 8.8-5.5 9.7-3.9.6-7.9 2.7-12 2.5s.2-5.8 2.1-7.5a.7.7 0 0 0 -.8-1c-5.5 2.6-14.8 5.4-19.8.1a.7.7 0 0 0 -.7-.2c-4.2 1.7-8.6 2.1-12.7-.1l-2-1.4c-.8-.7-.3.3-.3.2s2.9-2.4 4-3c3.6-2 7.2-2.4 11.2-2.7 9.2-.7 18.1-4.9 26.5-8.7 4.5-2 11.3-3.9 14.6-7.7s7.7-11.5 11.4-17.1c.5-.7-.6-1.3-1-.7z" fill="#231f20" transform="translate(-558 .6)"/><path d="m871 149.6-7.2 18.1s-55.3 47.1-11.2 23.5c0 0-32.1 26.3 6.6 6.6 0 0 4.6 21.4 14.5 3.2l13.2-11.9 35.1-25.3-26.9-53.7-21.8 11.4z" fill="#2b333b" transform="translate(-558 .6)"/><path d="m870.4 149.4-3.4 8.6c-1.1 2.8-2 7-3.7 9.4s-6.3 5.5-8.7 7.6a204.5 204.5 0 0 0 -14.9 14.5c-1.2 1.4-6.2 6.1-4.5 8.3s15.7-4.9 17.7-6l-.7-1c-2 1.6-3.9 3.3-5.8 5s-5.8 4.7-6.6 7.5c-1.9 6.8 19.6-4.3 18.9-4.9s1.2 3.9 1.7 4.9a10.7 10.7 0 0 0 3.3 4.8c5.1 3.5 8-3.8 10.5-6.7 5.4-6.3 12.6-11.4 19.3-16.3l28.8-20.7a.7.7 0 0 0 .2-.9l-26.9-53.7a.5.5 0 0 0 -.8-.2l-13.1 6.8c-2.3 1.2-7.8 2.8-9 5.1s-.3 3.4-.4 4.6l-.8 9.4-1.2 14.1c0 .8 1.2.8 1.3 0l1.7-20.2c.1-1.7.1-7 .5-7.6s1.5-.6 1.9-.8l5.3-2.8 11.5-6a11.6 11.6 0 0 1 2.7-1.4c-.6.1-.7-.7-.3.4 2.3 5.8 5.7 11.4 8.5 17l12 23.8 4.3 8.7a19.6 19.6 0 0 0 1.3 2.5c.6.9.1 1.1.6.1-.7 1.3-3.5 2.6-4.7 3.4l-9.9 7.2-19.1 13.7a115.4 115.4 0 0 0 -13.9 12.3c-2.9 3.1-6.6 11.7-11.1 5.5a21.5 21.5 0 0 1 -3.1-7.7.6.6 0 0 0 -.9-.4c-4.7 2.3-11 6.7-16.4 7.1-3.4.1-.2-2.7 1.1-4.1a97 97 0 0 1 9.5-8.6c.5-.5-.2-1.3-.8-1a108.1 108.1 0 0 1 -11.9 5.7c-1.5.4-4 1.7-4.1-.2s2.6-3.9 3.5-4.9 3.8-4.1 5.8-6.1c4.2-4.2 8.7-8.3 13.2-12.3 1.8-1.6 4.3-3.2 5.7-5.1s2.5-6.5 3.7-9.5l3.4-8.5c.3-.8-1-1.1-1.2-.4z" fill="#231f20" transform="translate(-558 .6)"/><path d="m932.6 121.8s-3 33.8 11.2 36c0 0-9 3-14.2-2.2 0 0 23.4 39.2-7.6 8.2l-2.8 6.6s-24.3 10.7-27.5 31.2c0 0-4.8-.4-4.8-12.5l-8.2 21.3s-10-8.3-5-34c0 0 4.1 27 18-10.3 0 0 14.6 10.9 3.4-56l-3.4 14.3-2.7-8.2s-1.5 16.4-5.1 5.2l-5.2 5.5-5.4-5.4-1.8-23.4 7.2-13.2 10.3-13.7 24.9 2.1z" fill="#2b333b" transform="translate(-558 .6)"/><path d="m932 121.8c-.9 10.2-1.9 33.9 11.7 36.6v-1.2c-4.6 1.5-9.9 1.2-13.7-2a.6.6 0 0 0 -1 .7 98.7 98.7 0 0 1 6.9 13.3c.8 1.8 3 6.1 0 5.6s-4-2.6-5.3-3.8c-2.9-2.4-5.5-5-8.2-7.6a.6.6 0 0 0 -1 .1c-1.4 3.3-1.6 5.8-4.6 7.4a64 64 0 0 0 -12.2 8.3 42.8 42.8 0 0 0 -11.4 15c-.7 1.7-1 4.5-1.9 6s.9 1.3-.6.3c-3.2-2-3.1-8.3-3.1-11.4a.7.7 0 0 0 -1.3-.1l-4.3 11.1-2.8 7.3c-.2.7-.8 1.5-.8 2.2s.2-.2.7.3c-8.1-8.4-6.7-23-4.8-33.4h-1.2c.5 3.1 1.6 8.3 4.7 9.7s4.2-.7 5.7-2.3a37.3 37.3 0 0 0 4-6.3c.7-1.6 1.5-3.1 2.1-4.7a20.5 20.5 0 0 0 1.3-3.1s1.2-3.6.5-3.1 2.7.8 3.8.4c3.3-1.4 4-6.6 4.3-9.6 2-15.6-1.3-32.2-3.8-47.5a.6.6 0 0 0 -1.2 0l-3.4 14.2h1.2l-2.7-8.2c-.2-.7-1.1-.5-1.2.2a30.3 30.3 0 0 1 -.6 4.2 11.9 11.9 0 0 1 -.7 2.7c-1.4 2.1-2 0-2.6-1.9a.7.7 0 0 0 -1.1-.3c-1 1.1-3.7 5.2-5 5.5 1.2-.3-.5-1.2-1.3-2s-2.7-2.1-3.2-3.3-.2-3.2-.3-4l-.8-10.2c-.2-2.5-.8-5.3-.6-7.8s.7-2.2 1.7-4c2.1-3.9 4-8.1 6.8-11.7l5.5-7.3 2.4-3.2c.6-.9 1.1-1.1.6-1 1.8-.5 4.8.4 6.6.5l10.5.9c2.3.2 4.6.2 6.9.6s.4-.1.2-.3a5 5 0 0 1 .5 1.3c1.3 4.8 3.6 9.5 5.4 14.1l12.7 33c.3.7 1.5.4 1.2-.4l-18.7-48.5a.7.7 0 0 0 -.6-.4l-20.6-1.7c-1.4-.2-3.6-.8-4.8-.1s-4.3 5.7-5.8 7.7a123.2 123.2 0 0 0 -10.1 16.3c-1 1.8-1.6 2.5-1.6 4.4-.1 3.8.6 7.7.9 11.5s-.4 7.8.8 10.6 3.9 4.2 5.6 5.9a.6.6 0 0 0 .9 0l2.5-2.7a16.6 16.6 0 0 1 1.8-1.9c1.6-.9-.3-.8.2 0s1.1 3.5 2.8 3.2 2.9-7.6 3.1-9.7h-1.2l2.7 8.2a.6.6 0 0 0 1.2 0l3.4-14.2h-1.2c1.9 11.8 3.7 23.6 4.1 35.5.2 5.3.5 11.3-1.3 16.3-.7 2.2-2.7 5.4-5.3 3.5a.6.6 0 0 0 -.9.3c-.9 2.4-8.3 24.1-13.9 18.1-1.8-1.9-2.5-5.3-2.9-7.8a.6.6 0 0 0 -1.2 0c-1.8 9.9-3.8 27 5.2 34.7a.6.6 0 0 0 1-.3l8.2-21.3-1.2-.2c.1 3.5.2 12.5 5.4 13.2a.7.7 0 0 0 .6-.5c2.1-11.6 10.4-20.6 20.1-26.9 2-1.3 5.1-2.2 6.8-3.8s1.4-4.6 2.9-6.1-.4-.5.5-.1a15.5 15.5 0 0 0 1.3 1.7c1.1 1.2 2.4 2.3 3.6 3.4s3.1 2.8 4.8 4.1 3.6 2.8 5.1 2.2c3-1.1.1-6.6-.7-8.4a94.7 94.7 0 0 0 -6.6-12.6l-1 .8c4.2 3.5 9.8 3.9 14.9 2.3.6-.2.6-1.1 0-1.2-12.7-2.5-11.6-25.6-10.8-35.4.1-.7-1.1-.7-1.2.1z" fill="#231f20" transform="translate(-558 .6)"/><path d="m949.9 89.9 26.3 37-22-15.7s23.6 40.2 38.7 48.1 26 26.6-11.3 0c0 0-7.6 11.7-25.2-18.5 0 0-4.9 11.9-23.8-19l7.9-42.9z" fill="#2b333b" transform="translate(-558 .6)"/><path d="m949.3 90.2 26.3 37 .9-.8-21.9-15.7a.6.6 0 0 0 -.9.8 262.5 262.5 0 0 0 23.7 34.4 72.1 72.1 0 0 0 17.4 15.2 43.6 43.6 0 0 1 7.4 5.6c.9.9 4 3.4 3.9 4.9s-5.4-.9-6.6-1.6c-6.2-3.2-11.9-7.3-17.5-11.3a.8.8 0 0 0 -.9.2c-1.3 1.9-3.8 2.2-5.8 1.7-8.4-2-14.4-13.4-18.3-20.1a.7.7 0 0 0 -1.1 0c-4.1 9.4-22.4-16.3-22.5-19.5s.9-5.1 1.3-7.3l2.2-11.7c1.3-6.9 3.2-14 3.9-21a12.5 12.5 0 0 1 .3-1.9c-.2 1.3-.9-.5-.4 1a14.6 14.6 0 0 0 1.6 1.9l7.1 8.3c.5.6 1.4-.3.9-.9l-9.3-10.9a.7.7 0 0 0 -1.1.2l-3.9 21.5-2.8 15.1c-.3 1.8-1.5 4.6-1.2 6.4s3.8 6.2 5.3 8.4a75.1 75.1 0 0 0 6.1 7.6c2.1 2.3 4.8 5.1 8 5.8a5.1 5.1 0 0 0 4.2-.7c2.4-1.8.4-2.1 2.2 1.6 3.1 6.1 11.4 18.3 19.7 17.7 1.8-.1 2.5-1.2 4-1.7s.5-.8.7-.8 4.2 3.7 4.4 3.9l5.8 3.8c1.4.9 13.7 9.6 15.1 5.2s-7.6-9.6-9.9-11.1c-4.7-3.2-9.3-5.7-13.3-9.8a145.7 145.7 0 0 1 -14.2-17.2c-5.4-7.6-10.6-15.4-15.3-23.5l-.9.9 21.9 15.6c.6.4 1.3-.3.9-.8l-26.3-37.1c-.5-.6-1.5 0-1.1.7z" fill="#231f20" transform="translate(-558 .6)"/><path d="m858.6 39.4c-18.4 40.1-52.8 74.6-52.8 74.6 39.4 0 44.9-32.9 44.9-32.9l-7.6 28.5s7 2.7 10.3-11.5l5.2-1.1 8.5-20.3s-2.2 14.8 4.4 21.4l7.2-13.2s4.3 4.4 10.3-13.7l2.7 18.7 22.2-16.6s19.5 73.5 30.5 48.3c0 0 3.3-16.9 9.8-10.4l-13.7-32.3s6.6 18.6 9.4 11c0 0 6 2.2.5-16.5 0 0 52.6 63 31.2 4.4 0 0 13.7 16.4 9.4 0 0 0 6.5 2.7 15.3-1.1l-24.7-21.4-25.2-20.8-82.7-10.9s-8.8 2-15.1 15.8z" fill="#2b333b" transform="translate(-558 .6)"/><path d="m858.1 39.1c-12.7 27.4-31.5 53.1-52.8 74.4a.7.7 0 0 0 .5 1.1c20.3-.2 41.8-11.6 45.5-33.3.1-.8-1-1.2-1.2-.4l-7.6 28.5a.6.6 0 0 0 .4.8 6.6 6.6 0 0 0 6-1.5 15.5 15.5 0 0 0 4.2-7.2c.8-2.5.5-2.5 2.6-3.3s2.5-.1 3.2-.6 2.9-6.6 3.8-8.8l5-11.9-1.2-.4c-1 7.3-.6 16.3 4.6 22a.6.6 0 0 0 .9-.1l5.3-9.5c.5-1 1.1-2.8 1.9-3.6s-1.6.3-.2.5c6.3 1.1 9.2-10.3 10.6-14.4h-1.2l2.7 18.6c0 .4.6.6.9.4l8.7-6.5 7.1-5.2c1.5-1.2 4.3-2.5 5.4-4.1a3.6 3.6 0 0 1 1-.7c-.2.1-1.1-.8-.8-.2a23.3 23.3 0 0 1 .7 2.5l3 10.3c3 9.5 6.2 19 10.6 27.9 1.9 4 6 13.5 11.7 13.1s7.6-21.9 14.4-15.8c.6.5 1.3-.1 1-.8l-13.7-32.3c-.3-.7-1.4-.2-1.2.5a44.1 44.1 0 0 0 5 10.5c.6 1 1.6 2.6 2.9 2.7s1.4-.8 2.3-1.5-.5 0-.1-.3.6.2.8 0 1.1-.4 1.7-1.1c2.9-3.7-.5-12.5-1.5-16.1l-1 .6c3.6 4.4 32.4 38 36.9 27.1.9-2.1.4-4.9.1-7.1a84.6 84.6 0 0 0 -4.8-16.3l-1 .7c1.7 1.9 7.2 9.2 10.3 7.1.8-.5.8-1.4.9-2.2s-.5-5.1-1.3-4.7 4.3.8 4.8.9a25.7 25.7 0 0 0 10.6-2.1.6.6 0 0 0 .2-1c-8.2-7.2-16.3-14.4-24.6-21.4l-13.4-11-8.4-7c-1.1-.9-2.3-2.4-3.5-2.9s-5.4-.8-7.6-1.1l-20.1-2.6-45.3-6c-3.1-.4-7.1-1.7-10.2-1.4-7.1.9-12.9 10.7-15.5 16.2-.4.7.7 1.3 1.1.6 2.5-5.3 8.3-15 14.7-15.5 3.4-.3 7.6 1 10.9 1.5l45.7 6 19.3 2.6 5.4.7c1.6.3.5-.1 1.4.4 5.4 3.6 10.3 8.6 15.4 12.8 3.2 2.7 6.6 5.3 9.8 8.1l17.6 15.2c.9.8 6.2 4.2 6.3 5.5s-7.9 1.1-9.2 1.1a14.3 14.3 0 0 1 -5.4-.9c-.4-.2-.8.4-.7.8s2 6.6-.9 6.2c-1.2-.1-2.6-1.9-3.5-2.7a50 50 0 0 1 -3.9-4.1.7.7 0 0 0 -1.1.6 87 87 0 0 1 4.7 15.8c.3 2 1.3 6.7-.9 8.1s-10.7-5-12.9-6.9a198.1 198.1 0 0 1 -21-22 .6.6 0 0 0 -1.1.6c.3 1 4.5 17.1.2 15.7-.3-.2-.6.1-.7.4-1.6 3.8-5.6-4.9-6.1-5.8s-1.4-3.4-2-5.2l-1.2.5 13.7 32.3 1-.7c-10.6-9.4-8.8 22.1-18.6 14.1-4.9-4-7.6-11.4-10-17-3-7.2-5.5-14.7-7.9-22.1-1.3-4.2-2.5-8.4-3.7-12.7-.1-.3-.6-.6-.9-.3l-20.6 15.3-1.3 1c-.6.4.6.8.5.2s-.5-3.7-.8-5.6l-1.8-12.6c-.1-.7-1-.6-1.2 0s-5.8 16.7-9.2 13.4a.7.7 0 0 0 -1 .1l-3.4 6.2c-.5.9-2.8 6.6-3.7 6.8s-2.4-5.7-2.5-6.1a34 34 0 0 1 -1.2-7.1 46.6 46.6 0 0 1 .3-7.5.6.6 0 0 0 -1.2-.4l-5.5 13.3c-.8 1.8-1.4 4.8-2.7 6.4s.4 0-1.1.4-2.6.6-3.9.9a.7.7 0 0 0 -.5.4c-.8 3.2-3.9 13.5-9.4 11.1.9.4 0 .8.7-.6s.9-3.6 1.4-5.2l5.8-21.9-1.2-.4c-3.6 21.2-24.5 32.2-44.3 32.4l.4 1.1c21.4-21.4 40.2-47.2 53-74.7.3-.7-.8-1.3-1.1-.6z" fill="#231f20" transform="translate(-558 .6)"/><path d="m948.2 15.9a27.4 27.4 0 0 1 8.2 18.6c11.9 3.9 25.2 20.8 25.2 20.8-8.2 0-15.3-7.6-15.3-7.6a54.9 54.9 0 0 1 5.5 24.1c-17.8-17.8-31.3-49.9-31.3-49.9 17.6 35.1 0 28 0 28l-6.2 13.1 9 2.8-2.8 13.1-3.8-9.3-6 8.2-13.7-23c0 35.6-25.3 35.1-25.3 35.1 20.5-20.5 0-54.4 0-54.4l-7.8 7.8-2-8.2c-7.7 0-8.2 8.2-8.2 8.2-4.4-4.4 0-19.7 0-19.7l-5.5-2.8c2.8-7.1-2.7-12-2.7-12-8.2 25.7-13.7 11.5-13.7 11.5-19.2 32.3-12.6-6.1-12.6-6.1l-4.4 8.3c-22.2 22.2-15.3 7.1-15.3 7.1-13.2 11.5-13.7 0-13.7 0l13.7-11.5 9.3-10.4v-7.7h118.9z" fill="#2b333b" transform="translate(-558 .6)"/><path d="m947.8 16.3c4.5 4.9 8.1 11.4 8 18.2a.6.6 0 0 0 .5.6c10 3.6 18.4 12.5 24.9 20.7l.4-1.1c-5.7-.3-11-3.4-14.9-7.5-.5-.5-1.2.2-.9.8 3.4 7.3 5.7 15.6 5.4 23.8l1-.5c-13.5-13.7-23.6-31.9-31-49.5l-1.2.4c1.4 2.8 15.3 32.9.7 27.1a.6.6 0 0 0 -.7.2l-6.3 13.2a.6.6 0 0 0 .4.9l5.4 1.7a11.7 11.7 0 0 1 3.2.9c.2.2 0-1.2-.2.4-.7 4.1-1.7 8.1-2.6 12.1h1.3l-3.9-9.3a.6.6 0 0 0 -1.1-.1c-1.9 2.5-3.6 5.6-5.8 7.8-.5.6 1 .8.6 0l-.6-.9a35 35 0 0 0 -2.4-4.2l-10.4-17.5a.6.6 0 0 0 -1.2.3c-.2 14.7-6.8 34.7-24.7 34.4l.4 1.1c14.4-15.1 10-38.7.1-55.1a.6.6 0 0 0 -1-.1l-7.3 7.3c-.7.7.6 1 .5.2s-.5-1.8-.7-2.7l-1.2-5a.6.6 0 0 0 -.6-.5 9.2 9.2 0 0 0 -8.8 8.9l1-.5c-3.8-4.6-1.3-13.8.2-19.1a.5.5 0 0 0 -.3-.7c-1.2-.6-3.3-1.2-4.3-2.1s-.1.9-.4-1.4.3-2.4.3-3.6a12.5 12.5 0 0 0 -3.7-7.6.6.6 0 0 0 -1 .3c-1.1 3.1-8.2 22.5-12.5 11.5a.7.7 0 0 0 -1.2-.1c-1.8 3.1-5.6 11.5-9.7 12.4s-2.7-3.6-2.8-5.5a65.3 65.3 0 0 1 1.1-12.5c.1-.6-.8-1.1-1.2-.5a60.9 60.9 0 0 1 -4.2 8 49.4 49.4 0 0 1 -12.3 10.9c-3.6 2.2-3.3-.2-2.1-2.9a.7.7 0 0 0 -1-.8c-2.4 2.1-12.1 9-12.5 1.3-.1-1.3-.4.1.3-.9s2.8-2.3 4-3.3a126.7 126.7 0 0 0 14.1-13.3c1.4-1.5 3.8-3.3 4.5-5.3s0-3.4 0-4.7.4-2.7-.5-2.3c2-.9 6.9 0 9 0h109.1c.4 0 .8.2.4-.2s-.2 3-.2 3.7l.4 11.8c0 .8 1.3.8 1.2 0l-.5-15.9a.6.6 0 0 0 -.6-.6h-118.9a.7.7 0 0 0 -.7.6c0 2 .5 6.4.1 7.4-1 2.5-4.7 5.2-6.5 7.2-3.6 4.1-7.9 7.4-12.1 11s-5.5 3.2-3.8 6.9c3.1 6.3 10.7.3 14.1-2.5l-1-.7c-.8 1.9-2.3 5.8 1 5.9s8.2-5.5 10.4-7.5 4.6-4.1 6.1-6.9l3.3-6.2-1.1-.5c-.9 5.2-2.3 12-.6 17.1 3.1 9.1 13.1-8.6 14.3-10.6l-1.1-.2c.9 2.4 3 5.1 5.8 4.2s5-5.2 6.1-7.8c.5-.9.8-1.9 1.2-2.8s1.6-4.3 1-4.5 1.7 2.3 2 2.9a10.9 10.9 0 0 1 .3 8.3c-.1.2.1.5.3.7s4.7 1.5 5.3 2.6c-.5-.8-.3.3-.6 1.2a23.2 23.2 0 0 0 -.7 3.8c-.9 4.6-1.9 10.8 1.4 14.7.3.5 1 .1 1-.4a9.6 9.6 0 0 1 1-3.4c.7-1.4 4.6-5.7 6.1-4.3s1.5 6.2 1.9 7.9a.6.6 0 0 0 1 .2l4.3-4.2a28.3 28.3 0 0 0 2.4-2.5c.9-1.3 1.1-.4.2-1.1 2.1 1.6 3.7 7.5 4.6 9.7 5.6 14.6 7 31.7-4.6 43.8a.7.7 0 0 0 .5 1.1c18.7.3 25.8-20.3 25.9-35.7l-1.1.3 13.6 23a.6.6 0 0 0 1.1 0l6.1-8.2h-1.2l3.8 9.3c.3.5 1.1.6 1.3 0l2.7-13.2a.6.6 0 0 0 -.4-.7c-2.5-.8-6.5-1.2-8.6-2.7s-.1 1.3 0 .5a7 7 0 0 1 .9-1.7l2.6-5.4a38.2 38.2 0 0 0 2.1-4.6c.5-1.3.3-.8.1-.8a12.2 12.2 0 0 1 2.6.6c13.5.5-.2-25.6-2.1-29.5-.3-.6-1.4-.2-1.2.5 7.6 17.9 17.7 36.2 31.4 50.1a.6.6 0 0 0 1.1-.4c.3-8.4-2-16.9-5.6-24.4l-.9.7a24.1 24.1 0 0 0 15.7 7.8.7.7 0 0 0 .5-1.1c-5.4-6.8-11.9-13.5-19.4-18-1-.7-5.1-2-5.6-2.6s-.3-2.9-.4-3.6a31 31 0 0 0 -8-15.3c-.6-.5-1.5.3-.9.9z" fill="#231f20" transform="translate(-558 .6)"/><path d="m999.1 78.6c12.4 18.8-2.1 7.4-2.1 7.4s0 21.9-15.4-8.2h9.4z" fill="#2b333b" transform="translate(-558 .6)"/><path d="m998.6 78.9c1.6 2.6 3.7 5.3 4.6 8.3s.1 1.8-1.4 1.2a22 22 0 0 1 -4.4-2.8c-.4-.3-1-.2-1 .4s-.1 5-1.5 6.4c-3.8 3.9-11.7-13-12.7-14.9l-.6.9a169.5 169.5 0 0 1 17.5.9c.8 0 .8-1.2 0-1.3a169.5 169.5 0 0 0 -17.5-.8.6.6 0 0 0 -.5.9c1.3 2.6 8.6 19.4 14.1 15.8 2.2-1.5 2.4-5.5 2.4-7.9l-1.1.5c1.6 1.2 4.6 3.8 6.8 3.6 4.6-.6-3-10.8-3.6-11.8s-1.5 0-1.1.6z" fill="#231f20" transform="translate(-558 .6)"/><path d="m936.8 175.7 32.9 51.1 37.2 22.5s-3.6 8.9-12.4 0l4.2 8.2-13.8-8.2s1.7 7.9-.9 10.4h-12.2l-5.5-5.5s3.6 4.7 0 8.3c0 0-9.1-.8-11.5-11.5l-4.9 4.9-2-11.8-8.3 8.4-1.2-36.6-4.1-9.7s-10.1 13.5-11.2-26.5l-3.9-9.3 2.8-6.6z" fill="#2b333b" transform="translate(-558 .6)"/><path d="m936.2 176.1 27 41.8c2.1 3.2 4 7.7 7.1 10 6.9 5.3 15.3 9.3 22.7 13.8 3.9 2.3 7.9 5.3 12.1 7.2l1.2.8c.6.6.1-1.1-.1-.4-1.6 5.9-8.6 2-11.3-.4a.6.6 0 0 0 -1 .7l4.2 8.2.9-.8-13.8-8.2c-.4-.3-1 .2-.9.7.4 2 1.6 8.1-.4 9.6s-5.6 0-6.9 0-4.5.1-5.1-.2-3.6-3.6-5.2-5.1-1.4.1-.9.7a21.2 21.2 0 0 1 1.1 2.1c.3 1 .5 4.8-.7 5.2s-2.1-.5-2.5-.7c-4.6-1.8-7.1-5.7-8.3-10.3a.6.6 0 0 0 -1-.3 28.9 28.9 0 0 0 -3.5 3.5c-.3.4-1.9 1.3-.9 1.5s.2-.6.2-1.3c.2-3.2-1.1-7-1.7-10.3 0-.4-.7-.5-1-.2l-8.3 8.3 1 .5-.9-26.5c-.1-3.2.3-6.9-.3-10s-2.8-6.8-4.1-10a.7.7 0 0 0 -1.2-.1c-1 1.3-3.1 2.5-4.9 1s-2.9-6-3.4-8.7c-1.2-6.1-.4-12.7-1.7-18.7-.7-3-3.5-5.9-3.8-8.9a20.1 20.1 0 0 1 1-2.7c.5-1.1.9-2.2 1.4-3.2s-.9-.3-.6-.3c2.4.6 5.7 4.6 7.6 6.1l7 5.7c.7.5 1.5-.4.9-.9l-14.8-11.9c-.3-.2-.8-.3-1 .1-.8 1.9-2.8 4.9-2.8 6.9s2.2 5.4 3 7.3c2 4.9 1.2 11 1.9 16.2a41.9 41.9 0 0 0 2.3 10.5c1.9 4.3 5.8 6.3 9 2.1l-1.1-.2c1.3 3.1 3.4 6.6 4 9.8s.3 7.4.4 10.8l.9 25.6a.6.6 0 0 0 1 .4l3.9-3.8 2.9-3c.6-.5 1.8-1.3 1-1.6s.4 4.8.5 5.7l1 5.9c0 .4.7.5 1 .2l3.5-3.4a8.6 8.6 0 0 1 1.3-1.4c-1.2-.5.4 3.4.5 3.6a15 15 0 0 0 7.5 7.2c1 .3 2.6 1.1 3.6.6 3.2-1.5 1.6-7 .1-9l-.9.7c1.6 1.7 3.7 4.9 5.8 5.7s6.2.1 8.6.1 4.1.7 5.2-1.9.6-6.5 0-9.4l-.9.8 13.7 8.2a.7.7 0 0 0 .9-.9l-4.2-8.2-1 .8c4.1 3.7 10.6 6.5 13.4-.2a.5.5 0 0 0 -.2-.8l-16.5-10c-6.4-3.9-14.2-7.3-20-12.1a9.1 9.1 0 0 1 -1.8-2.4l-5.5-8.4-15.4-23.9-10.7-16.6c-.4-.7-1.5 0-1.1.7z" fill="#231f20" transform="translate(-558 .6)"/><path d="m921.4 12.8c3.3 13.4 10.7 26.2 18.6 37.4.5.6 1.6 0 1.1-.7-7.9-11.1-15.2-23.7-18.5-37.1-.2-.7-1.4-.4-1.2.4z" fill="#231f20" transform="translate(-558 .6)"/><path d="m873.1 59.7-6.6 16.8c-.3.8.9 1.1 1.2.4l6.6-16.8c.3-.8-.9-1.1-1.2-.4z" fill="#231f20" transform="translate(-558 .6)"/><path d="m806.2 114.4c8.5-6.7 16.8-13.9 24.6-21.4a165.1 165.1 0 0 0 15.6-16.8c3-4 6.7-8.8 6.8-14 .1-.8-1.2-.8-1.2 0-.2 5.9-5.1 11.5-8.7 15.8a172.7 172.7 0 0 1 -15.7 16.3c-7.2 6.7-14.6 13.2-22.3 19.2-.6.5.3 1.4.9.9z" fill="#231f20" transform="translate(-558 .6)"/><path d="m965.9 48.1 24.6 30.2c.5.6 1.4-.3.9-.9l-24.7-30.2c-.5-.6-1.3.3-.8.9z" fill="#231f20" transform="translate(-558 .6)"/><path d="m892.3 35.7 4.5-27.3c.1-.8-1.1-1.1-1.2-.3l-4.5 27.2c-.2.8 1 1.2 1.2.4z" fill="#231f20" transform="translate(-558 .6)"/><path d="m905.5 104.7v22.2a.6.6 0 0 0 1.2.2l3-11.2-1.2.2a23.7 23.7 0 0 1 0 21.7c-.4.7.7 1.3 1.1.6a25 25 0 0 0 0-22.9.7.7 0 0 0 -1.2.1l-2.9 11.1 1.3.2v-22.2a.6.6 0 0 0 -1.2 0z" fill="#231f20" transform="translate(-558 .6)"/><path d="m891.7 166.1-2.7-17.1-2.7 12.6s-11.9 32.5 5.4 4.5z" fill="#231f20" transform="translate(-558 .6)"/><path d="m892.3 165.9-2.7-17a.6.6 0 0 0 -1.2 0c-.9 4.2-1.5 8.5-2.7 12.6s-2.1 6.1-3 9.2c-.3 1.3-2.3 6.7-.1 7.4s2.2-1.1 2.8-1.8c2.7-2.9 4.7-6.5 6.8-9.9.4-.7-.7-1.3-1.1-.6a80 80 0 0 1 -6.3 9.3c-.2.2-1.3 1.8-1.7 1.7s-.1-.1-.2-.8c-.3-2.9 1.5-6.7 2.4-9.5a168.1 168.1 0 0 0 4.3-17.3h-1.2l2.7 17.1c.1.8 1.3.4 1.2-.4z" fill="#231f20" transform="translate(-558 .6)"/><path d="m957 140.7a66.7 66.7 0 0 0 -6.6-19.6c-.4-.8-1.5-.1-1.1.6 3.3 5.9 5.2 12.7 6.5 19.3.2.8 1.4.4 1.2-.3z" fill="#231f20" transform="translate(-558 .6)"/><path d="m943.2 217.3c.8 1.9 10.8 28.1 14.4 24.7 2.1-1.9-.1-9.1-.6-11.5l-.9.7c11.1 6.9 20 18.5 27.4 28.8.5.7 1.6.1 1.1-.6-7.6-10.6-16.6-22.2-27.8-29.3a.7.7 0 0 0 -1 .8c.5 2.5 1.9 6.7 1.1 9.1s.2 1.1-.7.9-2.1-3-2.5-3.6c-3.6-6.5-6.4-13.5-9.3-20.3-.3-.7-1.5-.4-1.2.3z" fill="#231f20" transform="translate(-558 .6)"/></svg>