<svg height="1080" viewBox="0 0 1920 1080" width="1920" xmlns="http://www.w3.org/2000/svg"><path d="m829.5 916.3v61.3l56.9 26.9 71.2-26.9-32.7-64z" fill="#eab394"/><path d="m828.3 916.3v61.3a1.3 1.3 0 0 0 .6 1.1l54.4 25.7c1.5.7 2.4 1.3 4 1.1s6.4-2.5 9.3-3.6l35.4-13.3 25.9-9.8a1.2 1.2 0 0 0 .8-1.8l-32.7-64.1a1.4 1.4 0 0 0 -1.1-.6l-83.3 2.4-12.1.4c-1.6 0-1.6 2.5 0 2.4l72.5-2 17.4-.5a28.2 28.2 0 0 0 4.2-.2c1.8-.4.7.4.4-.4 4.8 10.5 10.5 20.7 15.8 30.9l16.7 33 .8-1.9-36.6 13.8-24.7 9.3-7.6 2.9-1.9.7c-1 .4.5.3.3.2-4.9-1.1-10.2-4.8-14.8-7l-25.6-12.1c-5.1-2.4-10.5-5.9-15.9-7.5-.9-.3.2 1.5.3.6v-61a1.3 1.3 0 0 0 -2.5 0z" fill="#231f20"/><path d="m946.1 1025.6 11.5-48s-74.6 16.7-128.1 0v48s48.2 13 116.6 0z" fill="#f7f1e3"/><path d="m947.3 1025.9 11.5-47.9a1.3 1.3 0 0 0 -1.5-1.6 321.5 321.5 0 0 1 -43.7 6.2c-27.8 2.3-56.8 2-83.7-6.2a1.3 1.3 0 0 0 -1.6 1.2v48a1.2 1.2 0 0 0 .9 1.1c10.7 2.9 22 4.1 33 5a321.4 321.4 0 0 0 84.2-5c1.6-.2.9-2.6-.6-2.3-33.1 6.2-67.5 7.8-100.9 2.9-3.7-.6-7.3-1.2-10.9-2-1.2-.2-2.9-1-4.1-.9 1.4-.1.6 2 .9-.5a36.9 36.9 0 0 0 0-4.7v-41.6l-1.6 1.2c27.1 8.3 56.4 8.6 84.4 6.3a330.4 330.4 0 0 0 44.3-6.3l-1.5-1.5-11.5 47.9a1.3 1.3 0 0 0 2.4.7z" fill="#231f20"/><path d="m829.5 1025.6s-21.3-31.1 0-26.3c6.8 1.5 14.6 6.4 21.7 7.2 15.4 1.7 27.5 1.1 17.8 24.4l77.1-5.3-16.8 26.6s-126.3 23.3-159.3-20.9c-6-19.4 39.7-8.4 54.8-5a5.7 5.7 0 0 0 4.7-.7z" fill="#5e554c"/><path d="m830.6 1024.9a73.3 73.3 0 0 1 -6.8-11.9c-1.2-2.8-2.9-6.5-2.5-9.6s6.2-3.4 9.4-2.5c6.3 1.8 12.1 5.3 18.6 6.5 4.2.8 8.5.8 12.7 1.6s7.3 1.7 8.7 5.2c2.1 5-1 11.8-2.9 16.4a1.2 1.2 0 0 0 1.2 1.5l77.1-5.3-1.1-1.9-11.9 19c-1.4 2.3-2.8 5.8-4.8 7.6 1.1-1-.2-.3-1.3-.1-13.9 2.3-27.9 3.9-41.9 4.8-21.8 1.5-44 1.6-65.6-2-10.2-1.8-20.5-4.4-29.8-9a55 55 0 0 1 -12-7.5c-2.9-2.5-7.9-6.3-6.9-10.7 2.1-9.4 23.1-5.3 29.3-4.4s11.3 2 16.9 3.2c3.8.9 9.5 3.3 13.2.8 1.3-.9 0-3-1.3-2.1-3.3 2.3-12.2-1.3-15.9-2-5.4-1.1-10.8-2.1-16.3-2.8-7.4-.9-19.9-3-26.1 2.8s1.4 13.8 6.3 17.7c7.8 6.2 17.1 10.1 26.5 12.9 22.4 6.5 46.5 7.1 69.7 6.2a420.2 420.2 0 0 0 51.3-5c4.5-.7 5.4-.5 7.9-4.4l14.9-23.7a1.3 1.3 0 0 0 -1.1-1.9l-77.1 5.3 1.2 1.6c3.2-7.9 7-19.6-3.5-23.5-4.5-1.7-9.6-1.8-14.4-2.3-8.7-1-16-6.5-24.5-7.7-17.8-2.3-3.6 22.2.7 28.5.9 1.3 3 0 2.1-1.3z" fill="#231f20"/><path d="m824.2 1027.4 18.2 8.8c1.5.7 2.7-1.4 1.3-2.1l-18.3-8.8c-1.4-.7-2.7 1.4-1.2 2.1z" fill="#231f20"/><path d="m856.1 1028.7c-8.1-3.8-17.7-4.7-26.6-4.4a1.3 1.3 0 0 0 0 2.5c8.4-.3 17.6.5 25.3 4.1 1.5.7 2.7-1.5 1.3-2.2z" fill="#231f20"/><path d="m1143.6 984.5 24.1-56.5-174.4-28.8v95.5l75.2 36.6z" fill="#eab394"/><path d="m1144.7 985.1 24-56.5a1.2 1.2 0 0 0 -.7-1.8l-58.6-9.7-94.2-15.5-21.6-3.6a1.2 1.2 0 0 0 -1.5 1.2v95.5a1.3 1.3 0 0 0 .6 1.1l68.3 33.3c1.8.9 5.3 3.5 7.5 3.5s5.4-3.2 7.1-4.2l38.3-23.9 30.4-18.9c1.3-.9.1-3-1.3-2.2l-47.6 29.7-24.7 15.4a14 14 0 0 0 -2.4 1.5c-.9.8 1.1.5.5.1-2.4-1.3-5-2.4-7.4-3.6l-60.9-29.6c-2.1-1.1-4.2-2.2-6.3-3.1 0 0 .1 1.5.3.3a16 16 0 0 0 0-3.1v-91.8l-1.5 1.2 58.6 9.7 94.2 15.5 21.6 3.6-.8-1.8-24 56.5c-.6 1.4 1.5 2.7 2.1 1.2z" fill="#231f20"/><path d="m1121.9 1033.7 21.7-49.2s-89.1 37.7-150.3 10.2v39s55.9 30.4 128.6 0z" fill="#f7f1e3"/><path d="m1123 1034.4 21.7-49.3c.4-.8-.3-2.3-1.4-1.8a258.5 258.5 0 0 1 -32.2 10.7c-23.6 6.4-48.2 10.4-72.7 9.3-15.2-.6-30.4-3.5-44.5-9.6a1.2 1.2 0 0 0 -1.8 1v39a1.1 1.1 0 0 0 .6 1.1c11.5 6.2 25.1 9.6 37.9 11.6 31 5 62.6.5 91.6-11.5 1.5-.6.9-3-.6-2.4-32.4 13.3-68.1 17.4-102.3 9.1a125.6 125.6 0 0 1 -23.1-7.8 15.1 15.1 0 0 0 -1.8-.9c-1.1-.3.1 1.2.1.4.5-3.3 0-7 0-10.4v-28.2l-1.8 1.1c43.3 19.1 95.8 9.3 139-5.5 4.1-1.4 8.2-2.9 12.3-4.6l-1.4-1.8-21.7 49.2c-.7 1.5 1.4 2.7 2.1 1.3z" fill="#231f20"/><path d="m982.2 1035.2s-21.4-37 11.1-23.8 36.4 4 32.5 32.9l96.1-10.6-10.1 24.7s-99 37.6-176.4-2.8a13.2 13.2 0 0 1 -7-14.3c4.1-19.8 48.9-1.2 48.9-1.2z" fill="#5e554c"/><path d="m983.3 1034.5a58 58 0 0 1 -6-14c-.6-2.5-1.6-6.5.1-8.8 2.8-3.8 9.7-1.2 13.1 0 6.5 2.3 12.9 4.9 19.5 6.9 3.7 1.1 7.7 2 11.2 3.7 7.5 3.8 4.2 15.4 3.4 22a1.2 1.2 0 0 0 1.2 1.2l83.9-9.2 12.2-1.3-1.2-1.6-7.4 18.1-1.9 4.5c-.6 1.6-1.3 1.9.1 1.2l-2.2.7a268.9 268.9 0 0 1 -40.6 10.5c-24.1 4.4-49 6.1-73.5 3.4a176.1 176.1 0 0 1 -41.1-9.3c-6.6-2.4-16.2-5.2-21.3-10.3s-4.9-12.5.5-16.3c7.3-5.1 19.4-2 27.3 0a136.7 136.7 0 0 1 16.4 5.4 1.1 1.1 0 0 0 1.2-.3l4.9-5a1.2 1.2 0 0 0 -1.7-1.7 44.4 44.4 0 0 0 -3.8 3.7c-1 1.3-1.4.8 0 .9l-.7-.3c-2.3-1.4-5.6-2.1-8.2-2.9-8.5-2.7-17.8-5.2-26.8-4.7-7.2.4-14.4 3.7-15 11.7-.5 6.3 3.3 11.5 8.6 14.4a142.2 142.2 0 0 0 21.7 9.1c47.3 15.8 101.3 10.6 148.2-4.4 3-.9 6.6-1.3 8-4.2 3.7-7.6 6.5-15.7 9.7-23.5a1.2 1.2 0 0 0 -1.2-1.6l-83.9 9.2-12.2 1.4 1.2 1.2c.8-6.1 3.4-15.9-.9-21.3s-12.9-6-18.5-7.7-12.4-4.9-18.8-6.8c-3.2-.9-7.3-1.9-10.6-.5-5.2 2.2-4.4 8.7-3.3 13.2a67.1 67.1 0 0 0 6.3 14.6c.8 1.4 2.9.1 2.1-1.3z" fill="#231f20"/><path d="m977 1041.3c9.5 1.5 18.7 6.9 26.7 12 1.3.9 2.6-1.3 1.2-2.1-8.1-5.2-17.6-10.7-27.3-12.3-1.5-.2-2.2 2.2-.6 2.4z" fill="#231f20"/><path d="m982.2 1036.4c7.4 0 14.9 2.2 21.8 4.9 1.5.6 2.1-1.8.6-2.4-7-2.8-14.7-4.9-22.4-5-1.5 0-1.6 2.5 0 2.5z" fill="#231f20"/><path d="m1060.9 14.5s22.9-11.3 19.1 16.8z" fill="#716056"/><path d="m1061.5 15.5a20.8 20.8 0 0 1 9.5-2c8.8.7 8.6 11.1 7.7 17.8l2.1-.9-19-16.8c-1.2-1.1-3 .7-1.8 1.7l19.1 16.8a1.2 1.2 0 0 0 2.1-.8c.9-7.5.7-18.3-8.6-20.1-4.1-.7-8.6.4-12.3 2.2-1.5.7-.2 2.8 1.2 2.1z" fill="#231f20"/><path d="m1126.5 339.6c11.9 42 46.6 94.9 59.4 145.6 0 207.3 12.8 380.7 12.8 380.7-289.6 97.7-482.4 15-482.4 15s-46.2-290.9 168.1-505.3z" fill="#475b59"/><path d="m1125.3 339.9c6.2 21.5 16.2 41.9 25.8 62.1 10.9 22.8 22 45.8 29.7 69.9 2.1 6.5 3.9 12.5 3.9 19.3s0 14.5.1 21.7c0 14.2.2 28.3.4 42.5.3 26.2.8 52.3 1.5 78.5 1.9 71.1 4.9 142.2 9.5 213.2.3 5.4 1.5 11.6 1.1 17.1a6.6 6.6 0 0 1 .1 1.4l-7.6 1.9c-13.1 4.3-26.4 8.4-39.7 12.1a887.5 887.5 0 0 1 -146.3 28.3c-70 7.4-141.3 6-210.6-7.1a508.7 508.7 0 0 1 -56.9-14.2c-4.9-1.5-9.8-3.2-14.7-5a38.4 38.4 0 0 0 -3.6-1.4c-1.6-.4-.7-.9-.5.3-1.3-7-1.7-14.4-2.3-21.5-1.5-18.9-2-37.8-1.8-56.8a667.5 667.5 0 0 1 28.2-183.5c24.4-80.9 65.7-156.4 122.1-219.4q5.5-6.2 11.1-12l5.8-6c1.1-1.2 2.8-3.8 4.2-4.5a11.2 11.2 0 0 1 3.2-.4l18.5-2.8 70-10.4 141.6-21.2 8.7-1.3c1.6-.2.9-2.6-.6-2.3l-73.9 11-125.8 18.7-37.5 5.6c-2.9.4-4.5.3-6.6 2.3-13.3 12.2-25.2 26.6-36.7 40.5-41.2 50.3-73.3 107.6-95.6 168.6a668.6 668.6 0 0 0 -38 265.1q.8 13.2 2.4 26.4c.4 3.1 0 4.9 3.1 6.1 20.3 8.2 42 13.6 63.4 18.1 47.7 10.1 96.6 14.3 145.3 14 71.5-.5 142.8-11 211.8-29.3q30.8-8.2 60.9-18.4a1.3 1.3 0 0 0 .9-1.2c-2.9-38.8-4.8-77.7-6.6-116.6q-2.8-63-4.4-125.9c-.6-24.6-1-49.1-1.3-73.7-.2-12.6-.3-25.2-.4-37.8v-18.7a57.5 57.5 0 0 0 -.1-8.3c-.4-2.9-1.6-6-2.4-8.8-7.2-24.2-18.1-47.2-28.9-69.9s-21.4-43.7-28.1-67c-.5-1.5-2.9-.9-2.4.7z" fill="#231f20"/><path d="m1104.8 841.8-10.6-25.5c-.6-1.5-3-.8-2.4.6l10.6 25.6c.6 1.4 3 .8 2.4-.7z" fill="#231f20"/><path d="m1135.9 855.1c-12.3-9-18-27.9-20.5-42.3-.3-1.6-2.7-.9-2.4.6 2.6 15.1 8.5 34.3 21.7 43.9 1.2.9 2.5-1.2 1.2-2.2z" fill="#231f20"/><path d="m1147.8 824.8-6.2-12.3c-.7-1.5-2.8-.2-2.1 1.2l6.2 12.3c.7 1.5 2.8.2 2.1-1.2z" fill="#231f20"/><path d="m929.3 913.6s-.9 32.4-6.1 55.3c0 0 129.3 45.7 253.5-19.4 0 0 4.4-52.6 0-76.5z" fill="#aea28a"/><path d="m928.1 913.6c-.5 18.3-2.1 37-6.1 54.9a1.4 1.4 0 0 0 .8 1.6c29.6 10.4 62.4 14.4 93.4 15.4a340.5 340.5 0 0 0 91.1-8.8 308.4 308.4 0 0 0 49.5-16.3l11.9-5.5c2.2-1 8.1-2.8 9.1-5.1s.3-3.2.4-4.4c1.7-23.8 3.8-49.1-.4-72.7a1.3 1.3 0 0 0 -1.5-.9l-83.8 13.8-133 21.8-30.5 5c-1.6.2-.9 2.6.7 2.4l83.8-13.8 133-21.8 30.5-5-1.5-.8c3.8 21.4 2 44.3.6 65.9-.1 2.6.3 6.4-.6 8.9s.1.6-.6 1.2-4.5 1.9-5.7 2.5l-6.8 3.3a296.1 296.1 0 0 1 -49.9 17.7c-51.5 13.3-106.5 13.5-158.5 2.7-10.3-2.1-20.6-4.4-30.5-7.9l.9 1.5c4-18.1 5.6-37.1 6.2-55.6a1.3 1.3 0 0 0 -2.5 0z" fill="#231f20"/><path d="m760.4 894.8-3.6 45.9s73.1 38.4 168.1 19.2l4.4-46.3z" fill="#aea28a"/><path d="m759.1 894.8-3.5 45.9a1.1 1.1 0 0 0 .6 1.1c9.6 5 20.2 8.7 30.5 11.9a283.2 283.2 0 0 0 79.1 12.8 276.9 276.9 0 0 0 59.5-5.4c.5-.1.8-.7.9-1.2l4.4-46.3a1.5 1.5 0 0 0 -1.3-1.3l-148.1-16.5-20.8-2.3c-1.6-.2-1.6 2.3 0 2.5l148.1 16.5 20.8 2.3-1.2-1.2-4 41.8a11.2 11.2 0 0 1 -.3 3.2c-.6 1.7.4.9-2 .7s-8.2 1.5-11.8 2-9.8 1.3-14.8 1.7a278.8 278.8 0 0 1 -115-14 186.9 186.9 0 0 1 -18-7.1c-1.2-.5-2.9-1.8-4.1-1.9a1.1 1.1 0 0 1 -.6-.3c1.4.9.1 1.3.6-.1s.6-6.8.8-9.7l1.2-15.1 1.5-20c.1-1.6-2.3-1.6-2.5 0z" fill="#231f20"/><path d="m1099.8 128.6s14.9-119.8-71.8-122.8c-48.7-3-51.9 53.7-51.9 53.7s66.3 51.8 108.7 58.5a67 67 0 0 1 15 10.6z" fill="#716056"/><path d="m1101 128.6c2-15.9 1.3-32.5-1.1-48.4-3.9-26.1-14.7-53.8-39-67.1-13.7-7.6-31.8-10.8-47.3-7.6s-24.8 13.1-31 25.8c-3.9 7.8-7.8 18.2-7.6 27.1 0 1.9.4 2.1 1.9 3.3 3.9 3 7.8 5.8 11.8 8.7 17.1 12.1 34.8 23.6 53.4 33.2a190.1 190.1 0 0 0 29.8 12.6c5.1 1.6 10.8 2.1 15.4 4.6a55 55 0 0 1 11.6 8.7c1.1 1.1 2.9-.6 1.7-1.7-5.4-5.4-12-10.1-19.5-11.7a133.2 133.2 0 0 1 -26.2-9.1c-17.2-7.8-33.4-17.5-49.1-27.9-9.7-6.4-18.8-13.4-28.3-20-1-.8-.1.7-.1.1a13.3 13.3 0 0 1 .3-2.8 79.8 79.8 0 0 1 2.7-12.7c3.7-12.6 10.8-24.9 22.5-31.5 14.6-8.2 34.4-6.2 49.5-.4 26.5 10.2 39.3 37.1 44.2 63.4a177.3 177.3 0 0 1 1.9 53.4c-.2 1.6 2.3 1.6 2.5 0z" fill="#231f20"/><path d="m930.7 28s-30.8-19.3-38.1 9.1 35.2 58.8 72.8 68.4l5.7-24.1z" fill="#564943"/><path d="m931.3 26.9c-10.3-6.4-27.1-10.9-35.7.5-15.9 21.4 6.9 46.1 23.5 57.9a140.6 140.6 0 0 0 45.9 21.4 1.3 1.3 0 0 0 1.6-.8l4.7-19.6c1-4.5 1.3-5-1.3-8.5l-28.9-38.1-9.3-12.4c-1-1.2-3.1 0-2.2 1.3l22.4 29.5 13.8 18.2a46.2 46.2 0 0 0 3.7 5c.2.3.7 1.2.5.3s-.5 1.4-.6 2l-5.2 21.6 1.5-.9c-24-6.3-50.1-19.3-65-39.9-6.3-8.8-9.8-19.6-5.9-30.1s11.5-12.8 20.9-10.9a42.3 42.3 0 0 1 14.4 5.6c1.3.9 2.6-1.3 1.2-2.1z" fill="#231f20"/><path d="m1099.8 128.6-2.4 72.3s16.8-14 24 0 7.7 38.5-18.3 53.9l23.4 84.8s-30.6 94.4-136.1 89.1-116.6-79.9-116.6-79.9-11-49.2 25.6-103.6 56.3-101.1 66-139.7l5.7-24.1s109.2 27.7 128.7 47.2z" fill="#eab394"/><path d="m1098.5 128.6-2.4 72.3a1.3 1.3 0 0 0 2.1.9c3.6-3 8.6-5.7 13.3-5.9 8.2-.2 11.1 9.4 12.3 16 3.3 17.7-6.6 32.9-21.3 41.9a1.3 1.3 0 0 0 -.6 1.4l14 50.5 7.9 28.9a25.5 25.5 0 0 1 1.5 5.2c-.1-1.3-.5.8-.7 1.3-13.4 36-43.6 66.7-80 79.2-31.9 11.1-69.2 9.6-101.1-1.2-22.4-7.5-42.8-21.3-56-41.2-17-25.9-16.9-56.2-8.7-85.6a157.3 157.3 0 0 1 11.5-29.4c5.5-10.5 12.3-20.1 18.7-30.1a527 527 0 0 0 31.5-56.4c12.9-26.8 22.2-54.6 29.2-83.5l2.6-11.1-1.5.8c35 8.9 70.6 18.8 103.8 33.1 8.3 3.6 17.7 7.4 24.3 13.8 1.1 1.1 2.9-.6 1.7-1.7-5.5-5.5-13-8.9-20-12.1a316.2 316.2 0 0 0 -31.5-12.3c-20.8-7.3-42-13.6-63.3-19.4l-14.3-3.8a1.2 1.2 0 0 0 -1.5.9c-2.5 10.4-4.8 20.9-7.7 31.2a377.8 377.8 0 0 1 -21.2 57.2 540.3 540.3 0 0 1 -36.3 65.3c-7.5 11.6-15.2 22.9-20.8 35.6a157.7 157.7 0 0 0 -9.9 31c-3.4 16.3-4.7 34-.9 50.4s12.7 30.3 23.9 41.8c22.9 23.5 55.7 33.6 87.7 36 34.5 2.6 68.9-5 96.5-26.4a144.1 144.1 0 0 0 41.3-51.3c1.7-3.4 4.6-8 5-11.9a8.7 8.7 0 0 0 -.8-3.8l-3.5-12.8-11-39.8-4.7-17.3c-.9-3-3-7.4-3-10.7 0-.2-.3-.6-.2-.9s2.1-.5 2.8-1a50.7 50.7 0 0 0 11.3-10.4 40.8 40.8 0 0 0 8.2-20.3c1.2-11.1-2.6-32.3-18-29.2a30.1 30.1 0 0 0 -12.2 6.2l2.1.9 2.4-72.3c.1-1.5-2.4-1.5-2.5 0z" fill="#231f20"/><path d="m930.7 28s78.5 57.8 107.4 65.5 46.7 24.5 46.7 24.5-73.2 16.9-113.7-36.6z" fill="#716056"/><g fill="#231f20"><path d="m930.1 29q22.6 16.7 46.2 32.1c11.9 7.9 24 15.5 36.6 22.4 5.3 2.9 10.6 5.7 16.2 8.1s11.8 3.8 17.6 5.9c13.2 4.6 26.9 11.7 37.3 21.4l.5-2c-22 5-47.1 3.1-68.2-4.3a98.2 98.2 0 0 1 -24.9-12.9c-10-7.3-17.5-16.6-24.9-26.4l-29.5-39.1-5.2-6.9c-1-1.2-3.1 0-2.2 1.3l33.7 44.5c6.9 9.1 13.6 18.1 22.4 25.3a100.2 100.2 0 0 0 24.4 14.5c15.3 6.3 32 9 48.5 8.9a119.4 119.4 0 0 0 26.6-2.6 1.2 1.2 0 0 0 .5-2c-7.8-7.3-17.5-13-27.1-17.5-12.8-6-26.5-8.9-39.2-15.5-24.6-12.8-47.7-28.7-70.4-44.7-5.9-4.1-11.9-8.3-17.7-12.6-1.3-.9-2.5 1.2-1.2 2.1z"/><path d="m1047.6 282 7.3 13.5c.7 1.4 2.8.1 2.1-1.3l-7.2-13.5c-.8-1.4-2.9-.1-2.2 1.3z"/><path d="m1045.1 297.6 6 16.3c.6 1.5 3 .9 2.4-.6l-6-16.4c-.6-1.5-3-.8-2.4.7z"/><path d="m1037.2 290.5v16.9a1.3 1.3 0 0 0 2.5 0v-16.9a1.3 1.3 0 0 0 -2.5 0z"/><path d="m1004.1 212v11.1c0 1.5 2.5 1.6 2.5 0v-11.1a1.3 1.3 0 0 0 -2.5 0z"/><path d="m1015.7 206.8-4.3 10.4c-.6 1.5 1.8 2.1 2.4.6l4.3-10.3c.6-1.5-1.8-2.1-2.4-.7z"/><path d="m963.8 212.6 6.3 8.2c.9 1.2 3.1 0 2.1-1.3l-6.2-8.1c-1-1.3-3.1-.1-2.2 1.2z"/><path d="m937.6 261.8-14.9 5.3c-1.5.6-.9 3 .6 2.4l14.9-5.3c1.5-.5.9-2.9-.6-2.4z"/><path d="m937 270.8-12 12.1c-1.1 1.1.6 2.9 1.7 1.7l12.1-12c1.1-1.1-.6-2.9-1.8-1.8z"/><path d="m938.6 313.6a47 47 0 0 0 11.6 24.5c14.9 16.5 38.4 15 57.9 9 1.5-.5.9-2.9-.7-2.4-18.9 5.8-41.6 7.4-55.9-8.9-5.2-5.9-9.5-15.3-10.4-22.2-.2-1.5-2.7-1.6-2.5 0z"/><path d="m931.9 327.9h12.1a1.3 1.3 0 0 0 0-2.5h-12.1a1.3 1.3 0 0 0 0 2.5z"/><path d="m938.3 345.6 22.6-9.1c1.4-.6.8-3-.7-2.4l-22.6 9.2c-1.4.5-.8 2.9.7 2.3z"/><path d="m947 355.4 18.8-14.7c1.2-.9-.5-2.7-1.8-1.7l-18.8 14.7c-1.2 1 .5 2.7 1.8 1.7z"/><path d="m1096.3 200.3a66.9 66.9 0 0 0 -6 27.1 1.3 1.3 0 0 0 2.5 0 66.3 66.3 0 0 1 5.6-25.9c.7-1.4-1.4-2.7-2.1-1.2z"/></g><path d="m1050.9 902.9-2.7 59.6s80.9 3.8 115.6-21.2c0 0 8.7-46.8 0-64.4z" fill="#aea28a"/><path d="m1049.6 902.9-2.6 59.6a1.3 1.3 0 0 0 1.2 1.2 327.1 327.1 0 0 0 64.1-3.5c15.5-2.4 31.3-6 45.1-13.5 3.5-1.9 7.3-3.2 8-7.2s1.5-10 2.1-15c1.7-15.1 4.1-33.9-2.6-48.2a1.3 1.3 0 0 0 -1.4-.6l-98.8 22.7-14.1 3.3c-1.6.3-.9 2.7.6 2.4l103.5-23.8 7.7-1.8c.3 0 1.2-.4 1.6-.3-1.3-.4.4 3.6.7 4.9 3.3 13.3 1.8 28 .3 41.4-.5 4.8-1.2 9.6-2 14.4s-5.1 4.8-8.2 6.4c-12.8 6.6-27.2 9.9-41.3 12.2a317 317 0 0 1 -65.3 3.7l1.3 1.3 2.6-59.6c.1-1.6-2.4-1.6-2.5 0z" fill="#231f20"/><path d="m1050.9 902.9s44 31.6 68.6 23.9 44.3-32.3 44.3-49.9z" fill="#aea28a"/><path d="m1050.3 903.9a160.2 160.2 0 0 0 40 21.3c8.8 3 18.9 5.5 28.2 3.2 12-3 23.1-10.9 31.4-19.9s14.9-19.6 15.2-31.6a1.3 1.3 0 0 0 -1.6-1.2l-98.8 22.7-14.1 3.3c-1.6.3-.9 2.7.6 2.4l98.8-22.7 14.2-3.3-1.6-1.2c-.3 14.3-10.7 27.5-21.2 36.3s-24.6 15.5-39.3 12.7c-18.1-3.5-35.7-13.5-50.6-24.1-1.3-.9-2.5 1.2-1.2 2.1z" fill="#231f20"/><ellipse cx="981.2" cy="158.9" fill="#fff" rx="24" ry="24.6"/><path d="m1004 158.9c-.3 12.5-9.9 23.3-22.8 23.3s-22.7-10.8-22.8-23.3 10.2-23.4 22.8-23.4 22.5 10.9 22.8 23.4a1.3 1.3 0 0 0 2.5 0c-.3-10.6-6.4-20.4-16.5-24.3a25.3 25.3 0 0 0 -28.4 7.9c-14.2 17.8 1 45.9 24 41.8 12.3-2.2 20.6-13.2 20.9-25.4a1.3 1.3 0 0 0 -2.5 0z" fill="#231f20"/><ellipse cx="1018.1" cy="164.6" fill="#fff" rx="25.3" ry="23.6"/><path d="m1042.2 164.6c-.4 12.8-11.4 22.4-24.1 22.4s-24-9.6-24-22.4 11.7-22.4 24-22.4 23.7 9.5 24.1 22.4c0 1.5 2.5 1.6 2.4 0-.7-23.7-31.9-33.2-47-15.8a23.9 23.9 0 0 0 -2.2 28.7 27.6 27.6 0 0 0 27.3 11.6c12.2-2 21.6-12.1 21.9-24.5.1-1.6-2.4-1.6-2.4 0z" fill="#231f20"/><path d="m995.5 180.1s-21.7-6.7-21.7 39l25.6-4.9" fill="#eab394"/><path d="m995.8 178.9c-4-1.2-8.7.2-11.9 2.6-10.8 8-11.3 25.7-11.3 37.6a1.2 1.2 0 0 0 1.5 1.2l25.6-4.9c1.6-.3.9-2.7-.7-2.4l-25.5 4.9 1.5 1.2c.1-11 .3-28.2 10.4-35.6 2.7-2 6.5-3.2 9.8-2.2 1.5.5 2.1-1.9.6-2.4z" fill="#231f20"/><path d="m806.8 712.8a22.2 22.2 0 0 1 -4.9-12.4c-2.2-30.2 8.3-53.9 15.6-69.2a74.8 74.8 0 0 1 30.4-32.6c18.3-10.5 50.1-32.2 46.3-54.9a17.5 17.5 0 0 0 -16.1-14.5c-31.2-2.5-40.1 39.1-42 51.6a26.9 26.9 0 0 1 -4 10.5c-3.9 6.1-10.9 11-18-11.6 0 0-7.2 15.4-14.9 0 0 0-16.6 35.3-16.6 0s33.4-108.6 95.3-108.6 77.5 30.9 77.5 72.6c.4 31.6-29.3 62.2-48.5 76.8a117.9 117.9 0 0 1 -17.3 10.6c-9 4.6-28 20.1-29.2 70 0 2.3 0 4.5.1 6.8.1 5.6-.6 21.8-13.3 21.8-15.5 0-8.9-23.7-8.9-23.7s-7.7 8.2-16 0c0 0-5.9 18.1-15.5 6.8z" fill="#2f3b39"/><path d="m807.7 711.9c-5.7-7.2-5.1-17-4.7-25.8a117.9 117.9 0 0 1 3.6-22.7 157.6 157.6 0 0 1 13.4-34.3c7.2-13.5 17.9-23.2 30.9-30.8 10.3-6.1 20.2-12.9 28.8-21.2s14.9-16.4 15.9-27.1-5.4-20.3-16.1-21.9c-19.6-2.9-32.5 13.8-38.8 30.1-3.1 8.1-4.3 16.3-6.3 24.6-.8 3.4-3.7 11.7-8.4 12.3s-9.5-11.9-10.7-15.7c-.3-.9-1.8-1.3-2.3-.3a21.1 21.1 0 0 1 -2.6 4c-4.2 4.5-7.9.2-10.1-4a1.3 1.3 0 0 0 -2.2 0 56.7 56.7 0 0 1 -6.4 10.9c-1.3 1.7-3.9 5.5-5.9 3.3s-2-11-1.9-14.7c.3-16.5 6.1-33.1 13.4-47.6 8.9-17.8 21.6-34.4 38.3-45.6 19.5-13 42.3-15.1 65.1-11.4 18.2 3 35.5 11.1 44.8 27.8 4.1 7.4 6.3 15.7 7.5 24 1.5 10.4 2 21.6-.5 31.8-6.1 24-24.5 44.4-43.4 59.5-11.9 9.6-26.4 14-35.3 27-11.8 17.2-14.7 40.1-14.6 60.4 0 7.8.5 20.9-9 23.6-11.1 3.1-12.8-8.9-11.7-16.8.3-1.6.6-3.3 1-5a1.2 1.2 0 0 0 -2-1.2c-4.2 4.3-9.9 3.9-14.3 0a1.3 1.3 0 0 0 -2.1.5 23.1 23.1 0 0 1 -2.6 5.5c-3.1 4.7-6.9 5.1-10.8.8-1.1-1.2-2.8.6-1.7 1.8 7.6 8.3 14.7 1 17.5-7.4l-2 .6c5.3 4.8 12.4 5.4 17.7 0l-2.1-1.3c-1.4 5.3-2.1 11.3-.8 16.6 1.9 7.5 9.7 10.9 16.8 7.4s8.7-13.7 8.6-21.1c0-14.7.9-29.4 5.1-43.6 2.7-8.8 6.7-17.4 12.9-24.4 4.7-5.2 10.2-7.9 16.2-11.4 23-13.1 44.4-35.1 55-59.5 8.3-19 7.6-43.2-.2-62.4-7-17.6-21.9-28.7-39.9-33.6-22.8-6.1-48.4-5.8-69.5 5.5-19.1 10.3-33.8 27.7-44.1 46.6-8.5 15.8-15.2 34-15.8 52.1-.1 3.8-1.2 18.9 5.7 18.8 4.9 0 8.8-8.2 10.8-11.7l2.4-4.6h-2.2c2.1 3.9 5.6 9.1 10.7 7 2.9-1.2 5-4.3 6.3-7l-2.2-.3c1.7 5.3 5.6 19.2 13.8 17.5s9.8-12.2 10.8-18c2.9-16.3 8.9-36.8 24.3-45.6 11.9-6.8 30.8-3.8 31.5 12.7.5 13-9.9 24.1-18.9 32s-20.6 14.4-31.2 21.4a76.7 76.7 0 0 0 -26.7 30.6c-6 12.2-11 24.9-13.7 38.1a118.7 118.7 0 0 0 -2.4 24.4c.1 7.6.7 14.4 5.6 20.6.9 1.2 2.7-.6 1.7-1.8z" fill="#231f20"/><path d="m845.5 773.2s5 32-12.1 20.4c0 0 3.3 19.5-7.8 19.5s-6.6-33.8-6.6-33.8-22.9-3.7-20.5-25.1a14.2 14.2 0 0 1 7-10.8c18.9-10.7 61 2.5 40 29.8z" fill="#2f3b39"/><path d="m844.3 773.6a56.4 56.4 0 0 1 .6 11.6c-.2 2.5-.5 5.7-2 7.8s-6.1 1.4-8.9-.4c-1-.7-2 .4-1.8 1.4a28.6 28.6 0 0 1 -.3 12c-.8 3.1-3.3 6.8-7.1 5.8s-3.5-3.6-4.1-5.8c-2.4-8.3-1.5-18.2-.4-26.7a1.4 1.4 0 0 0 -.9-1.2 26.4 26.4 0 0 1 -15.2-8.1 19.5 19.5 0 0 1 -4.2-16.9c1.5-7.1 7.8-10.2 14.3-11.5 9.2-1.8 19.9-.3 27.8 4.9 10.2 6.7 9 17.2 2.3 26.1-.9 1.3 1.2 2.5 2.2 1.3 25.5-34.5-45.4-49.6-49.3-19.7a22.1 22.1 0 0 0 7.7 20 29.2 29.2 0 0 0 7.2 4.3c1.4.6 4.4 2.2 6.1 1.9s-.9.1-.5-1a12.3 12.3 0 0 0 -.2 1.9 42.1 42.1 0 0 0 -.6 9.4c-.2 6.3-.5 14.4 2.9 20s9.8 4.5 12.9-.4 2.6-11.7 1.8-17l-1.9 1.4c15.3 9.9 15.5-12.1 14-21.8-.2-1.6-2.6-.9-2.4.7z" fill="#231f20"/><path d="m966.8 121.2a76.4 76.4 0 0 1 25-4.3 1.3 1.3 0 0 0 0-2.5 77 77 0 0 0 -25.6 4.4c-1.5.5-.9 2.9.6 2.4z" fill="#231f20"/><path d="m1017.5 127.7a56.3 56.3 0 0 1 28.3 14.1c1.2 1.1 2.9-.6 1.8-1.7a58.8 58.8 0 0 0 -29.5-14.8c-1.5-.3-2.2 2.1-.6 2.4z" fill="#231f20"/><ellipse cx="981.2" cy="252.8" fill="#231f20" rx="11.3" ry="20.9"/><path d="m991.2 252.8c-.1 5.6-1.7 19.6-10 19.6s-10-13.9-10-19.6 1.9-19.8 10-19.7 9.9 14 10 19.7a1.3 1.3 0 0 0 2.5 0c-.2-7.3-2.5-22.2-12.5-22.2s-12.5 14.9-12.5 22.2 2.7 22.1 12.5 22.1 12.3-14.9 12.5-22.1a1.3 1.3 0 0 0 -2.5 0z" fill="#231f20"/><path d="m973.4 269.3c-1.2 6.2 0 14.6 7.8 14.8 1.6.1 1.6-2.4 0-2.5-5.9-.1-6.3-7.1-5.4-11.6.3-1.6-2.1-2.2-2.4-.7z" fill="#231f20"/><path d="m1071.4 486.8a470.7 470.7 0 0 0 -18.9 97.4s49.3 47.6 155 29.1c0 0 5.2-47.8-21.6-128.1a59.9 59.9 0 0 0 -57-40.9 60.2 60.2 0 0 0 -57.5 42.5z" fill="#475b59"/><path d="m1070.2 486.5a475.1 475.1 0 0 0 -16.4 74.6c-1 7.1-1.9 14.1-2.3 21.2-.1 1.5-.2 2 .5 3.1s3 2.6 4.4 3.6c20.6 15.6 46.8 23.9 72.2 27.6s53 2.4 79.2-2.1c.6-.1.8-.7.9-1.2a140.3 140.3 0 0 0 .2-20.5 330.2 330.2 0 0 0 -7.4-55.1c-2.8-13.4-6.2-26.7-10.2-39.8-3.5-11.4-6.9-22.5-14.5-31.9a61.7 61.7 0 0 0 -55-22.5c-24.2 2.8-44.2 19.9-51.6 43-.4 1.5 1.9 2.1 2.4.6a59 59 0 0 1 104.4-16.8c7.2 10.2 10.3 22.6 13.7 34.5s6.5 23.7 8.9 35.8a328.6 328.6 0 0 1 6.8 52.2c.2 4.7.3 9.4.2 14.2-.1 1.2.4 4.9-.4 6.1s3.6-2.2-.9-.7c-2.7.9-6.1 1-8.9 1.4-7.1 1-14.3 1.7-21.5 2.1a239.2 239.2 0 0 1 -32.8-.3c-27.9-2.2-56.4-9.8-79.8-25.4-2.4-1.7-5.3-3.4-7.4-5.5-.3-.4-1.1-.8-1.4-1.2s.6-3.3.6-3.1c.6-3.8.7-7.7 1.2-11.5a466.9 466.9 0 0 1 17.3-81.8c.5-1.5-1.9-2.2-2.4-.6z" fill="#231f20"/><path d="m1207.5 613.3s3.5 76.6-30.8 139.9c0 0 8.8 30-7.1 53.7 0 0 25.5 55.5-22.9 18.5 0 0 15 30.8-11.4 30.8 0 0-7.1 18.5-31.7-14.1 0 0 3.5 50.2-28.2 0s-22.9-257.9-22.9-257.9" fill="#eab394"/><path d="m1206.2 613.3c.6 11.9-.2 23.9-1.3 35.7-2.6 27-8.3 54-18.1 79.3a234.4 234.4 0 0 1 -10.4 22.8c-1.2 2.3-.8 2.9-.2 5.4a72.7 72.7 0 0 1 -.3 32.8 57.9 57.9 0 0 1 -3.7 10.6c-1 1.9-3.8 5.1-3.8 7.2s.7 1.6.9 2.2a98.5 98.5 0 0 1 4.5 12.9c.9 3.5 3.3 11.7-.8 14.2-2.6 1.5-6.6-.3-9-1.4-6-2.7-11.4-6.7-16.6-10.7-1.1-.8-2.2.7-1.7 1.7a44.1 44.1 0 0 1 3.8 13.3c1.1 9.9-4.2 15.5-14.2 15.7a1.3 1.3 0 0 0 -1.2.9c-5.7 14.4-25.7-9.5-29.4-14.4-.7-.9-2.4-.7-2.3.6.3 5.3.3 11.1-1.3 16.2-4.4 13.9-18.6-7.7-21.5-12.1-12.3-18.2-16.2-40.5-19.4-61.9-7.7-53-8.1-107.3-7.4-160.9.2-13 .4-26.1 1-39.2.1-1.6-2.4-1.5-2.5 0-1.6 38.5-1.6 77.2-.2 115.7 1 29.4 2.7 58.9 7.2 88 3.6 23.8 8.8 46.6 23.7 66 4.1 5.2 15.3 18.5 20.7 7.2 2.6-5.6 2.5-12.9 2.1-19l-2.3.7c5.2 6.7 22 28.6 32.3 16.5a19.4 19.4 0 0 1 1.5-2.4c1-.6-.5.7.3.5l2.6-.2a20 20 0 0 0 5.9-1.7c5.9-3.1 7.5-9.6 7-15.8a45.6 45.6 0 0 0 -4.3-14.9l-1.7 1.7c5.2 3.9 29.9 22.9 31.4 5.7.5-5.1-1.1-10.5-2.7-15.3a70.4 70.4 0 0 0 -2.6-6.9c-.3-.9-1.5-2.6-1.4-3.5s.7 0 .8-.4 1.9-3.3 2.7-5a66.8 66.8 0 0 0 3.7-9.7 72 72 0 0 0 2.3-19.6 73 73 0 0 0 -1.4-14 27 27 0 0 1 -.8-3.9c0-1.7 1.1-2.8 2-4.6 13.8-27 21.7-56.9 25.7-86.9 2.2-16.1 3.6-32.8 2.9-49.1a1.3 1.3 0 0 0 -2.5 0z" fill="#231f20"/><circle cx="984.8" cy="161.2" fill="#231f20" r="5.8"/><circle cx="1016.9" cy="165.5" fill="#231f20" r="5.8"/></svg>