<svg height="1080" viewBox="0 0 1920 1080" width="1920" xmlns="http://www.w3.org/2000/svg"><path d="m810.7 174.3s-21.3 44.5 0 102.8 30.1 99 30.1 99 10.5 56-4.4 118.5c0 0 11.9-7.5 15.3-29.9a236.8 236.8 0 0 1 -11.2 77.4c-12.8 38.8 11.9 119.9 42.5 139.8 2.6 1.7 40.2 26.5 82.4 26.5 20.6 0 40.2-7 56.8-15.8 31.4-16.7 56.5-43.3 72.3-75.2s31.3-80.5 22.6-138.8c0 0 4.7 20 11.2 31.2 0 0 22.4-38-10.9-116 0 0 16 19 33.9 19 0 0-84.3-155.8-90.5-221.5 0 0 48.7-111.9-250.1-17z" fill="#b0471b"/><path d="m809.6 173.7c-5.6 11.9-8 25.8-9.1 38.9a150.2 150.2 0 0 0 2.3 40.7c3.3 17.1 10.1 33.3 15.7 49.8 7.3 21.7 13.9 43.8 19.4 66.1a167.5 167.5 0 0 1 3.9 24.4 314.9 314.9 0 0 1 -6.6 100.6 1.2 1.2 0 0 0 1.8 1.4c9.8-6.3 14.1-19.9 15.9-30.6l-2.5-.3c.9 15.9-.9 32.3-3.8 47.9-2.2 12.2-6.6 23.7-9.1 35.8a102.9 102.9 0 0 0 -1.6 24.8c.9 19.6 5.4 39.2 12.2 57.5 5.9 16.1 13.7 32.6 25.7 45.1 8.3 8.5 19.6 14.1 30.2 19 21.3 9.7 45.1 16.4 68.6 14.5 47.7-3.7 91.1-37.8 115.4-77.5 27.6-45.4 37.9-101.3 30.3-153.5l-2.4.6c2.5 10.8 5.9 21.9 11.3 31.6a1.2 1.2 0 0 0 2.1 0c3.2-5.5 4.7-12.1 5.8-18.2 3.2-17.4 1.8-35.4-1.7-52.7s-8.6-31.4-14.9-46.5l-2 1.5c8.5 10.1 21.3 19.1 34.8 19.4a1.3 1.3 0 0 0 1.1-1.9c-17.9-33-34.4-66.9-49.8-101.2-11.7-26.1-22.9-52.7-31.5-80a218.2 218.2 0 0 1 -8.3-33.7c-.4-2.8-.9-4.3-.3-6.7 2.3-9.7 3.9-18.9-.2-28.6-8.3-19.4-32.4-24.8-51.3-26.4-21.7-1.9-43.8.4-65.2 3.7-35 5.4-69.3 14.2-103.2 24.1-10.8 3.1-21.5 6.4-32.2 9.8-1.5.5-.9 2.9.6 2.4 37.2-11.8 74.9-22.5 113.2-30 24.2-4.7 49-8.4 73.7-8.1 20.3.2 49.6 2.6 60.8 22.8 4.9 8.8 4.7 19.5 1.6 28.9a10.1 10.1 0 0 1 -.5 1.6c-.6 3.8.8 8.7 1.5 12.5 1.1 5.4 2.4 10.8 3.8 16.1 7.1 26.2 17.3 51.5 28 76.3 17 39.4 35.9 78 56.1 115.7a21.2 21.2 0 0 0 1.1 2.1l1-1.9c-12.8-.3-24.9-9.1-33-18.6-1-1.2-2.5.3-2 1.5 11.5 27.1 20 56.9 17.8 86.7-.7 9.2-2.1 19.9-6.9 28.1h2.1c-5.3-9.5-8.5-20.4-11-30.9-.4-1.6-2.7-.9-2.4.6 6.9 47.1-1.4 95.3-22.5 137.9s-60.3 77.8-107 88c-24.6 5.4-49.9.6-73-8.7-11.2-4.5-23.5-9.9-33-17.6-13.1-10.6-21.4-27.1-27.6-42.4a198.1 198.1 0 0 1 -14-56.7 112.6 112.6 0 0 1 .7-28.4 144.1 144.1 0 0 1 3.9-14.3 234.2 234.2 0 0 0 5.6-23.4c2.9-15.9 4.8-32.5 3.9-48.6-.1-1.3-2.2-1.8-2.4-.3-1.7 10-5.6 23.2-14.7 29.1l1.8 1.4a314.4 314.4 0 0 0 7.5-90.7c-.6-10.1-1.3-20.5-3.5-30.4-4.1-17.4-9-34.6-14.4-51.7-9.7-31.3-24.1-61.6-24.7-94.8-.3-17.3 1.8-36.6 9.3-52.4.7-1.4-1.5-2.7-2.2-1.2z" fill="#231f20"/><path d="m892.4 682.3s43.8 6.1 68 7.9a66.4 66.4 0 0 0 52.1-19.2l-67.2-56.3-50.1 37.3z" fill="#266d57"/><path d="m892.1 683.5c17 2.3 34.1 4.5 51.2 6.3 12.1 1.4 24.4 3 36.5.4a69.5 69.5 0 0 0 33.6-18.3 1.2 1.2 0 0 0 0-1.7l-58.6-49.2-8.6-7.2a1.4 1.4 0 0 0 -1.5-.2l-32.2 24-16.3 12.2c-3.1 2.3-2.5 5.1-2.8 8.9l-2.2 23.6c-.1 1.6 2.3 1.5 2.5 0l1.7-18.6c.3-3.3.8-6.7.9-10 0-1.5.6-1.7-.4-.6l.9-.7c4.9-2.4 9.5-7.1 14-10.4l20.6-15.4 8.4-6.3c1.6-1.1 4.1-2.3 5.2-3.8s.8-.4.9-.7-1.6-.6-1.3-.1l.4.3c.5 1.1 2.7 2.3 3.6 3.1l34.4 28.8 28.7 24v-1.7a67.6 67.6 0 0 1 -35.7 18.2c-11.7 1.9-23.7 0-35.4-1.3-16-1.8-31.9-3.8-47.8-6-1.6-.3-2.3 2.1-.7 2.4z" fill="#231f20"/><path d="m907.1 576.1s-11.6 75.7 0 111.6 2.3 34.2-5.1 19.4c0 0 4.4 26.1-2.7 26.1 0 0-25.8-10.5-25.8-26.6v-138" fill="#ffe5db"/><path d="m905.9 575.8a468.5 468.5 0 0 0 -4.7 48.8 283.9 283.9 0 0 0 .4 40.2 113.1 113.1 0 0 0 2.7 17.3c1.6 7.3 4.3 14.3 5.9 21.6.3 1.4 2.7 11.7-.1 12s-6.2-7.6-7.1-9.3-2.5-.3-2.2 1c1 6.5 2.2 13.9.9 20.5-.7 3.4-1.4 4.5-4.4 3.1a75.5 75.5 0 0 1 -10.3-6.1c-6.4-4.6-12.1-10.7-12.3-18.9-.1-3.4 0-6.8 0-10.2v-127.2a1.3 1.3 0 0 0 -2.5 0v131.3a66.1 66.1 0 0 0 .2 8.9c1.3 9.6 10.1 16.5 17.9 21.2 4.4 2.6 10.9 7.7 13.4.3s.7-16.3-.6-23.6l-2.2 1c1.3 2.6 7.1 14.1 11.6 9.6 2.2-2.1 1.3-6.9.9-9.5-1.1-7.8-3.7-15.2-5.8-22.8-3.9-13.9-4.4-28.7-4.4-43.1s.9-28.2 2.3-42.2c.7-7.8 1.6-15.6 2.8-23.3.2-1.6-2.2-2.2-2.4-.6z" fill="#231f20"/><path d="m933.7 420.8c-33.4 46.3-60.2 147.8-60.2 147.8 17.6 0 33.6 7.5 33.6 7.5 1.8-41.7 34.8-102.5 55.3-136.5a17.1 17.1 0 0 0 -14.5-25.9 17.3 17.3 0 0 0 -14.2 7.1z" fill="#3da283"/><g fill="#231f20"><path d="m932.7 420.2c-15.1 21-25.4 45.4-34.7 69.4-8.3 21.4-15.5 43.2-21.9 65.2-1.3 4.5-2.6 9-3.8 13.5a1.3 1.3 0 0 0 1.2 1.6 82.1 82.1 0 0 1 33 7.3 1.2 1.2 0 0 0 1.8-1.1c1.6-29.8 14.5-58.9 27.4-85.3 6.4-13 13.3-25.8 20.5-38.4 5.5-9.5 13.8-19.4 7.5-30.6s-22.7-12.1-30.8-1.9c-1 1.3.7 3 1.7 1.8 9.7-12.3 30.6-5.7 28.9 10.7-.6 5.8-4.9 11.1-7.8 16s-6.1 10.6-9 15.9c-12.7 23.2-24.5 47.2-32.7 72.4-4.2 12.8-7.5 25.9-8.2 39.4l1.9-1.1a84.4 84.4 0 0 0 -34.2-7.6l1.2 1.5c9.9-37.6 22.6-75.2 39.2-110.5 6-12.8 12.6-25.4 20.9-37 .9-1.3-1.2-2.5-2.1-1.2z"/><path d="m886.9 694.9c-2.3 13.8 1.8 29.1 11.5 39.2 1.1 1.2 2.9-.6 1.8-1.8-9.1-9.4-13.1-23.8-10.9-36.8.2-1.5-2.2-2.2-2.4-.6z"/><path d="m879.2 701.4c-1.5 7.7-1.5 17.6 4 23.7 1.1 1.2 2.9-.6 1.8-1.8-4.9-5.3-4.7-14.4-3.5-21.2.3-1.6-2.1-2.3-2.3-.7z"/><path d="m916 535.2c-9.5-4.2-20-7.7-30.5-7.9-1.6-.1-1.6 2.4 0 2.5 10 .2 20.2 3.5 29.3 7.6 1.4.6 2.7-1.5 1.2-2.2z"/><path d="m930.2 500.5c-8-7.5-18.8-12.5-29.4-15a1.3 1.3 0 0 0 -.7 2.4c10.2 2.4 20.6 7.2 28.4 14.4 1.1 1.1 2.9-.7 1.7-1.8z"/><path d="m948.3 465.3c-6.9-9.8-18.1-16.9-29.6-20.1-1.5-.4-2.2 2-.7 2.4 10.8 3 21.6 9.7 28.1 19 .9 1.3 3.1.1 2.2-1.3z"/><ellipse cx="885.5" cy="549.7" rx="3.7" ry="5.6"/></g><path d="m916.7 1047.9s24.6 17.3 19.9-27.8z" fill="#73513f"/><path d="m916 1048.9c3.7 2.6 8.8 4.4 13.2 3.1 11.8-3.4 9.5-23.2 8.7-31.9a1.3 1.3 0 0 0 -2.3-.6l-20 27.7c-.9 1.3 1.2 2.6 2.1 1.3l20-27.8-2.3-.6c.7 7.4 3.4 27.7-7.8 29.7-3.5.6-7.5-1-10.3-3-1.3-.9-2.6 1.2-1.3 2.1z" fill="#231f20"/><path d="m908.2 880.8s-36.9 10.9-53.2 29.1c-1.5 1.7-2.1 3-2 3.9 1.2 9.1 72.9-15.1 81.7-30.6z" fill="#26231e"/><path d="m907.9 879.6a167.8 167.8 0 0 0 -27.5 11 103.2 103.2 0 0 0 -20 12.5c-2.6 2.1-10.7 7.8-8.3 12s15.4.8 19.3-.1a209.7 209.7 0 0 0 36.2-12.6c9.3-4.1 22.6-9.3 28.2-18.5a1.3 1.3 0 0 0 -1.1-1.9l-26.5-2.4c-1.6-.2-1.6 2.3 0 2.4l26.5 2.5-1.1-1.9c-4.2 7-13.7 11.2-20.7 14.6a208.1 208.1 0 0 1 -32.6 12.8 138.7 138.7 0 0 1 -14.1 3.6c-3.1.6-6.9 1.5-10.1.9-5.4-1.1 5-8.9 6.9-10.3a105 105 0 0 1 18.1-11.2 166.8 166.8 0 0 1 27.4-11c1.6-.5.9-2.9-.6-2.4z" fill="#231f20"/><path d="m1004.7 1051.2s24.7 17.4 20-27.8z" fill="#73513f"/><path d="m1004.1 1052.2c3.6 2.6 8.7 4.4 13.1 3.1 11.8-3.4 9.6-23.2 8.7-31.9a1.2 1.2 0 0 0 -2.3-.6l-20 27.7c-.9 1.3 1.3 2.6 2.2 1.3l20-27.8-2.4-.6c.8 7.4 3.4 27.8-7.7 29.7-3.5.6-7.5-1-10.4-3-1.3-.9-2.5 1.2-1.2 2.1z" fill="#231f20"/><path d="m996.2 884.1s-36.8 10.9-53.1 29.1c-1.6 1.7-2.2 3-2.1 3.9 1.2 9.2 73-15.1 81.7-30.5z" fill="#26231e"/><path d="m995.9 882.9a171.5 171.5 0 0 0 -27.5 11 106.3 106.3 0 0 0 -20 12.5c-2.5 2.1-10.7 7.8-8.2 12s15.4.8 19.2-.1a213.3 213.3 0 0 0 36.3-12.5c9.3-4.2 22.6-9.4 28.1-18.6a1.3 1.3 0 0 0 -1.1-1.9l-26.5-2.4c-1.5-.2-1.5 2.3 0 2.5l26.5 2.4-1-1.9c-4.2 7-13.7 11.2-20.7 14.6a213.2 213.2 0 0 1 -32.7 12.8 136.9 136.9 0 0 1 -14 3.6c-3.1.6-7 1.5-10.1.9-5.4-1.1 5-8.8 6.8-10.3a109 109 0 0 1 18.1-11.2 167.8 167.8 0 0 1 27.5-11 1.3 1.3 0 0 0 -.7-2.4z" fill="#231f20"/><path d="m1010.7 659.1-10.8 1.4-54.6-45.8-52.2 41.1c-21.1 111.6 7.4 257.9 7.4 257.9l22.8-24.8c-18-78.4-.7-236.9-.7-236.9s33.5 19.1 58.5 11.3c-20.9 111.6 7.5 257.5 7.5 257.5l22.8-24.8c-15.2-65.9-.7-236.9-.7-236.9z" fill="#334652"/><path d="m1010.7 657.9c-3.3.4-7.3 1.6-10.7 1.3.9.1.9.5.1-.2l-2.2-1.8-18.3-15.4-33.4-28a1.4 1.4 0 0 0 -1.7 0l-36.9 29-10 7.8c-1.5 1.2-3.9 2.5-5.2 4.1s-.8 2.4-1.1 3.7c-.7 4.1-1.4 8.1-2 12.2-1.1 7.8-2 15.7-2.8 23.6-5.6 60-1.5 120.9 6.6 180.5 1.8 13.2 3.7 26.3 6.2 39.3a1.3 1.3 0 0 0 2.1.6l13.7-14.9 7.5-8.2c1.9-2.1 2-2.4 1.3-5.4-4.8-22.2-6.3-45.2-7.1-67.9-1.6-45.5.6-91.1 4.3-136.4.8-10 1.7-19.9 2.7-29.8l-1.8 1.1c17.1 9.7 39.9 17.1 59.4 11.4l-1.5-1.5c-8.3 44.7-9 90.6-6.6 135.9a983 983 0 0 0 10.8 102.6c1 6.6 2.1 13.1 3.3 19.6a1.3 1.3 0 0 0 2.1.6l14.7-16c2.4-2.6 5.4-5.2 7.4-8.1s.5-4.1 0-6.7c-4.1-20.9-5.1-42.5-5.6-63.8-1.2-45.7.8-91.4 3.7-137 .7-10.3 1.4-20.7 2.2-31 .2-1.6-2.3-1.6-2.5 0-2.3 27.9-3.8 55.9-4.9 83.8-1.8 45.8-3.5 92.7 2.9 138.2l1.2 7.6c.4 2.1 1.4 4.7 1.4 6.9 0-.1.5-.8.1 0s-1 1-1.3 1.4l-4.2 4.6-16.9 18.3 2.1.6c-3.6-18.4-6.1-37-8.3-55.6-4.9-40.9-7.6-82.2-6.7-123.4.6-26.1 2.7-52.2 7.5-77.9a1.3 1.3 0 0 0 -1.6-1.5c-18.7 5.5-40.9-1.8-57.5-11.1a1.3 1.3 0 0 0 -1.9 1c-2.9 27-4.7 54.1-6 81.1-2.2 47-3.6 95.1 4 141.7q.6 4.2 1.5 8.4a32.8 32.8 0 0 0 1.4 5.1c-.3.9-1.9 2.1-2.5 2.7l-4.4 4.8-15.6 17 2 .6c-6.8-35-10.7-70.8-13.1-106.3-2.2-32.3-2.9-64.8-.8-97.1a452.5 452.5 0 0 1 5.6-49.4c.7-3.9.5-3.9 3.3-6.1l8.2-6.5 41.3-32.4h-1.7l34.8 29.2 17.9 15c.9.7 1.7 1.7 2.8 1.9 3.1.6 7.6-.9 10.7-1.3 1.5-.2 1.6-2.7 0-2.5z" fill="#231f20"/><path d="m1012.8 1023.7 9.5-18.2a538.5 538.5 0 0 1 .4-118.9l-81.7 30.5c12.5 35.4 17.3 88.5 17.3 88.5-20.4 69.4 54.5 18.1 54.5 18.1z" fill="#433d31"/><path d="m1013.8 1024.3c3-5.7 7.3-11.6 9.3-17.7.9-2.9-.2-7-.5-10q-.7-8.1-1.2-16.2a534.3 534.3 0 0 1 2.6-93.8 1.2 1.2 0 0 0 -1.6-1.2l-71.5 26.7-10.2 3.8a1.4 1.4 0 0 0 -.9 1.6c7.4 21.3 11.5 43.8 14.6 66.1.9 6.6 1.8 13.2 2.4 19.8.3 2.2-.2 3.5-.8 5.8a88.6 88.6 0 0 0 -2.3 12.5c-.8 9 1.3 19.4 11.6 21.2s20-2.9 28.4-6.9a147 147 0 0 0 19.7-11.2c1.3-.9.1-3.1-1.3-2.2a139.5 139.5 0 0 1 -14.9 8.9c-8.4 4.4-18.3 9.2-28 9.2-12.5.1-14.1-11.5-12.7-21.7.8-5.2 3.3-10.4 2.8-15.6s-1.3-12.1-2.2-18.2c-3.1-23.1-7.2-46.4-14.9-68.4l-.8 1.5 71.4-26.7 10.3-3.8-1.6-1.2a541.3 541.3 0 0 0 -2.7 91.8c.3 5.3.7 10.7 1.1 16 .3 3.4 1.6 8.3.8 11.3s-3.4 6.7-4.9 9.6l-4.1 7.8c-.7 1.4 1.4 2.6 2.1 1.2z" fill="#231f20"/><path d="m1019.6 919.5-19.3 7.5c-5.4 2.1-12.2 3.6-10.4 11s3 15.5 11.3 12.9c6.2-2 12.3-5 18.4-7.5a1.3 1.3 0 0 0 .9-1.2l.6-21.5c.1-1.6-2.4-1.6-2.5 0l-.2 9.3-.3 7.5c0 .8-.6 3.4-.1 4.2s.6-.6.7-.6-1.1.5-1.6.6-3.6 1.5-5.3 2.2c-3.6 1.4-7.5 3.8-11.3 4.6-6 1.3-7.2-6.3-8.1-10.5s2.8-6.4 6.6-7.9l21.2-8.2c1.5-.6.8-3-.6-2.4z" fill="#231f20"/><circle cx="1007.8" cy="1019" fill="#73513f" r="3.4"/><path d="m1009.9 1019.6c-.9 2.6-4.9 1.4-4.1-1.2s4.7-1.4 4.1 1.2 2 2.3 2.4.7a4.8 4.8 0 0 0 -3.2-5.7 4.6 4.6 0 0 0 -5.7 3.1 4.7 4.7 0 0 0 3.1 5.8 4.8 4.8 0 0 0 5.8-3.2c.5-1.5-1.9-2.2-2.4-.7z" fill="#231f20"/><ellipse cx="966.1" cy="1033.5" fill="#73513f" rx="3.4" ry="4.6" transform="matrix(.28066671 -.95980529 .95980529 .28066671 -297.5 1669.8)"/><path d="m969.3 1034.4c-1 2.7-7.3.9-6.4-1.9s7-.9 6.4 1.9 2.1 2.3 2.4.7c1.2-6-9.6-9.2-11.2-3.2s9 8.9 11.2 3.2c.6-1.5-1.8-2.1-2.4-.7z" fill="#231f20"/><path d="m881.4 1023.1c-26.4 32.3 34-9.2 34-9.2s9-6.6 9.3 6.5 9.5-18.2 9.5-18.2a540.8 540.8 0 0 1 .5-119l-81.7 30.6c12.5 35.4 17.2 88.5 17.2 88.5s37.6-11.5 11.2 20.8z" fill="#433d31"/><path d="m880.5 1022.2c-2 2.4-8.7 9.1-6.8 12.9s6.4.8 8.6-.1c11.1-4.6 21.3-11.7 31.3-18.4 2.7-1.9 7.2-5.5 9.2-.7.7 1.7.7 13.4 5.1 7s5-12.2 6.8-17.9a14.6 14.6 0 0 0 .3-6.6c-.4-4.8-.9-9.6-1.2-14.3a548.7 548.7 0 0 1 2.1-100.9 1.2 1.2 0 0 0 -1.5-1.2l-71.5 26.8-10.2 3.8c-.6.2-1.2.9-.9 1.5 9.8 28.2 14.5 58.6 17.2 88.2a1.3 1.3 0 0 0 1.6 1.2 36.2 36.2 0 0 1 13.1-1.9c12.8.9.5 16.1-3.2 20.6-1 1.2.8 3 1.8 1.7 3.8-4.6 16.6-20.2 5.2-24.2-5.4-1.8-12.3-.2-17.6 1.4l1.6 1.2c-2.7-29.8-7.5-60.5-17.3-88.8l-.9 1.5 71.5-26.7 10.2-3.9-1.6-1.2a538.5 538.5 0 0 0 -3 84.2q.6 15.1 2.1 30c.2 2.3.5 4 0 6.2a88.1 88.1 0 0 1 -2.8 8.7 58.5 58.5 0 0 1 -3.3 8.2c-.2.5-.5.9-.7 1.4s.4.9.3-.1a19.6 19.6 0 0 0 -.9-6.8c-1.7-4.6-6.1-4.7-9.9-2.5-7.1 4.1-13.7 9.1-20.7 13.2-5 3-10.5 6.7-16.2 8.1-1.7.4-2.2.9-2.2-.6s4.6-7.3 6.2-9.3-.8-3-1.8-1.7z" fill="#231f20"/><path d="m823.3 1043.5a13.5 13.5 0 0 0 -6.1 23.1l.4.4c14.1 12.6 94.1 11 119-46.9 0 0-1.1-6.5-2.4-17.9 0 0-9.2 31.3-9.5 18.2s-9.3-6.5-9.3-6.5-60.4 41.5-34 9.2-11.2-20.8-11.2-20.8l-5.3 18.3s-14.4 16.5-41.6 22.9z" fill="#73513f"/><path d="m823 1042.3c-12.4 3.4-15.5 19.9-4.4 27 7.3 4.6 17.6 5.2 26 5.3 27.3.2 56.3-9.2 75.9-28.6a81.1 81.1 0 0 0 15.4-21.3c1.2-2.5 2-3.8 1.7-6.4-.7-5.4-1.5-10.7-2.2-16.1a1.2 1.2 0 0 0 -2.4-.3c-1.9 6.6-4.7 12.9-7 19.3a4.1 4.1 0 0 1 -.5.9c-.2.4.6.6.6 0a24.7 24.7 0 0 0 -.3-3.9c-.2-2-.7-4.3-2.3-5.8s-4.9-1.6-7.3-.4-6.7 4.3-9.9 6.4a210.4 210.4 0 0 1 -21 12.4c-2 1.1-5.7 3.5-8.2 3.3s-.3-2.5.7-4.2c3.3-5.1 7.6-9.4 10.8-14.6 1.8-3 4-6.9 3.4-10.6-.9-5.6-7.7-5.9-12.2-5.5-2.7.2-9 .3-10.8 2.8s-1 3.6-1.4 5l-2.4 8.2a36.5 36.5 0 0 1 -1.5 5c.6-1.1-.9.8-1.2 1.1-10.7 10.6-25 17.4-39.5 21a1.2 1.2 0 0 0 .6 2.4 90.6 90.6 0 0 0 37.1-18.4c1.6-1.4 3.9-3 5.1-4.8s2.2-7.1 3.1-10.2l2-6.6a12.1 12.1 0 0 1 .5-1.8c.2-.7-1.4.8-.6.5a38.7 38.7 0 0 1 5.9-1.3c5.7-1 15.2-1.5 12.1 7.1-2.2 6.3-7.1 11.2-11 16.5-1.6 2-4.4 5.3-4.3 8.1.1 4.9 6.6 2.1 9.1 1.1 12-5.2 22.4-13.3 33.5-20 1.1-.7 2.5-1.6 3.8-1.4 4.3.3 3 6.1 3.8 9s1.9 3 3.7 1.2 3.8-8.1 4.9-11.5 2.1-6.4 3.1-9.7l-2.4-.3c.4 4 .9 7.9 1.5 11.9.2 1.7 1.2 4.5.9 6.2s-3 5.8-4.3 8a76.8 76.8 0 0 1 -6.6 9.5 87.4 87.4 0 0 1 -31.5 24c-19.3 8.9-43.7 13.5-64.6 8.6-3.3-.8-6.9-1.9-9.6-4.1-8.2-6.5-4.8-18.9 4.8-21.6a1.2 1.2 0 0 0 -.6-2.4z" fill="#231f20"/><path d="m911.3 1046.8a13.6 13.6 0 0 0 -6.1 23.1l.4.4c14.1 12.6 94.2 11 119.1-46.9 0 0-1.2-6.5-2.4-17.9l-9.5 18.2s-74.9 51.3-54.5-18.1l-5.4 18.3s-14.4 16.5-41.6 22.9z" fill="#73513f"/><path d="m911 1045.6c-12.3 3.5-15.5 19.9-4.3 27 7.3 4.7 17.6 5.2 26 5.3 27.3.2 56.2-9.2 75.8-28.6a78.9 78.9 0 0 0 15.4-21.3c1.3-2.5 2.1-3.8 1.7-6.4-.7-5.4-1.5-10.7-2.1-16.1-.1-1.1-1.7-1.8-2.3-.6l-5.4 10.4c-1.1 2.1-2.3 4.1-3.3 6.2s-1 1.7-.5 1.2c-2.9 2.8-7.5 4.8-11 6.7a112.2 112.2 0 0 1 -20.9 9.4c-5.9 1.8-14.2 3.7-19.5-.5-8.8-7-3.6-23.8-1.1-32.4a1.2 1.2 0 0 0 -2.4-.6l-3.8 12.8c-.5 1.7-.7 3.8-1.5 5.3.5-.9-.8.8-1.3 1.2-10.7 10.6-25 17.5-39.5 21a1.3 1.3 0 0 0 .7 2.4c14.8-3.6 29.4-10.7 40.4-21.5 2-1.9 2.3-3.3 3.1-6l4.3-14.6-2.4-.6c-2.7 9.3-6.6 22.8-.9 31.8 3.7 5.8 10.7 6.6 16.9 5.8 8.3-1.1 16.2-4.6 23.6-8.4 5.3-2.6 11.1-5.5 15.8-9.1 1.7-1.3 2.2-2.8 3.3-4.8l7.5-14.5-2.3-.6c.5 4 .9 8 1.5 11.9.3 1.7 1.3 4.5 1 6.2s-3.1 5.9-4.4 8a69.3 69.3 0 0 1 -6.5 9.5c-8.4 10.4-19.5 18.4-31.6 24-19.2 8.9-43.6 13.5-64.6 8.6-3.3-.8-6.9-1.9-9.6-4-8.2-6.6-4.8-19 4.9-21.7a1.3 1.3 0 0 0 -.7-2.4z" fill="#231f20"/><ellipse cx="904.1" cy="1009.2" fill="#73513f" rx="10.9" ry="6.4" transform="matrix(.87714616 -.4802235 .4802235 .87714616 -373.2 557.2)"/><path d="m912.5 1004.6c2.9 6.6-13.5 15.4-16.9 9.2s12.9-15.1 16.9-9.2c1 1.3 3.1 0 2.2-1.3-5.9-8.5-26.4 2.5-21.3 11.7s25.5-2.1 21.3-11.7c-.6-1.4-2.8-.2-2.2 1.3z" fill="#231f20"/><path d="m931.5 916.2-19.2 7.5c-5.5 2.1-12.3 3.5-10.5 11 1.5 5.9 3.1 15.4 11.3 12.9 6.3-2 12.3-5.1 18.4-7.5.5-.3.9-.6.9-1.2l.7-21.5a1.3 1.3 0 0 0 -2.5 0l-.3 9.3-.2 7.4c0 .9-.6 3.5-.1 4.3s.6-.6.6-.6-1.1.5-1.6.6-3.5 1.5-5.3 2.2c-3.5 1.4-7.5 3.8-11.2 4.6-6 1.2-7.3-6.3-8.1-10.5s2.8-6.4 6.6-7.9l21.2-8.2c1.4-.6.8-3-.7-2.4z" fill="#231f20"/><path d="m951.7 397.5c-52.8 81.5-24.7 112.3-24.7 112.3s-29.2 90-33.9 146c0 0 22.7.7 52.2-41.1 0 0 24.1 44.5 67.2 56.3 0 0-3.4-123.2 13.6-162.2l15.8-30.4s-38.9-33.7-44.3-92.1h-8.8z" fill="#3da283"/><path d="m950.6 396.9c-14.2 22-27.4 46.5-31.3 72.8-1.7 11.6-1.7 24.1 3.2 35a20.5 20.5 0 0 0 3.4 5.7c.4.5.5-1.2-.3-.3s-1.2 3.8-1.6 5.2q-8.7 27.6-15.9 55.7c-7.2 27.8-13.8 56.1-16.3 84.8a1.2 1.2 0 0 0 1.3 1.2c5.3.1 11.1-2.6 15.7-5 15.5-8.4 27.5-22.5 37.6-36.7h-2.1c14.1 25.9 39.4 48.8 67.9 56.9a1.2 1.2 0 0 0 1.6-1.2c-.6-21.9-.4-43.9.4-65.9.6-17.7 1.6-35.5 3.7-53.1 1.7-14 3.3-29.6 9.3-42.6 4.8-10.3 10.5-20.2 15.7-30.3a1.3 1.3 0 0 0 -.1-1.6c-7.7-6.6-14.1-15.1-19.7-23.4a150.3 150.3 0 0 1 -24.3-67.8 1.2 1.2 0 0 0 -1.2-1.3c-3.1 0-6.5-.4-9.5.2s-7.6 2.3-11.3 3.4l-25.5 7.7c-1.5.5-.9 2.9.7 2.4l24.6-7.4c3.8-1.2 7.7-2.6 11.6-3.5s6.3-.3 9.4-.3l-1.2-1.2a152.1 152.1 0 0 0 31.3 78.4 124.1 124.1 0 0 0 8.2 9.5c.9 1 3.2 4.4 4.6 4.7s-.5-.5.2-.9-1.3 2.6-1.7 3.3l-7 13.4c-3.4 6.6-7.1 12.9-9.4 20-3.2 10-5 20.4-6.4 30.8-3.4 25.6-4.5 51.5-5 77.4-.3 16-.3 32.1.1 48.1l1.6-1.2c-27.9-7.9-52.7-30.4-66.5-55.7a1.2 1.2 0 0 0 -2.1 0c-9.9 13.8-21.6 27.6-36.8 35.7-4.2 2.3-9.5 4.8-14.4 4.7l1.2 1.3c2.2-25.5 7.9-50.7 14-75.5 5-20 10.6-39.9 16.6-59.6.9-3 3.3-7.4 3.3-10.5 0-1.4-1.1-2.2-1.9-3.5-5-8.4-6-19.1-5.4-28.7 1.7-28.8 16.6-56.1 31.8-79.9.9-1.3-1.3-2.6-2.1-1.2z" fill="#231f20"/><path d="m966 473.3-33.9-5.2c-1.3-.2-3.8-1.1-5.1-.8.4-.1 0 1.6.6.3s0-3 0-3.9v-16.7a1.3 1.3 0 0 0 -2.5 0v21.4a1.3 1.3 0 0 0 .9 1.2l39.4 6.1c1.5.3 2.2-2.1.6-2.4z" fill="#231f20"/><path d="m920.1 492.2a286.4 286.4 0 0 1 38.1 3.1c22.3 3.2 45.9 8.4 64.9 21 1.3.9 2.6-1.3 1.3-2.2-19.3-12.7-43-18-65.5-21.2a297.1 297.1 0 0 0 -38.8-3.2 1.3 1.3 0 0 0 0 2.5z" fill="#231f20"/><path d="m916.8 545a259.3 259.3 0 0 1 33 .7c22.3 1.6 45 5.3 65.5 14.4 1.4.7 2.7-1.5 1.2-2.1-20.1-9-42.2-12.8-64.1-14.6a264.6 264.6 0 0 0 -35.6-.9c-1.6.1-1.6 2.6 0 2.5z" fill="#231f20"/><path d="m903.8 595.3a326.7 326.7 0 0 1 37 1.2c24.2 2.1 49 6.1 71.3 16.1 1.5.6 2.7-1.5 1.3-2.2-22-9.8-46.2-14-70-16.1a328.5 328.5 0 0 0 -39.6-1.5 1.3 1.3 0 0 0 0 2.5z" fill="#231f20"/><path d="m1014.6 444.6 2 29.9 1.3-1.2h-52.2a1.3 1.3 0 0 0 -1.2.9 834 834 0 0 0 -17.8 100.4 358.3 358.3 0 0 0 -2.6 40.1 1.3 1.3 0 0 0 2.5 0c.1-37.1 6.7-74.2 14-110.5 1.2-6.1 2.4-12.2 3.8-18.2.6-3.1 2.2-6.9 2.2-10s.6.3-.8-.2c.9.3 2.7 0 3.7 0h48.4a1.2 1.2 0 0 0 1.2-1.3l-2-29.9c-.1-1.6-2.6-1.6-2.5 0z" fill="#231f20"/><path d="m1027.3 465.3c-4.9 11.6-8.7 23.7-12.3 35.7a591.9 591.9 0 0 0 -19.6 92.1 555.2 555.2 0 0 0 -4.5 69.4 1.3 1.3 0 0 0 2.5 0c.1-62.2 10.6-125.3 31.5-184l3.3-8.8c.3-.7 1.3-3.3 1.3-3.1.6-1.5-1.6-2.7-2.2-1.3z" fill="#231f20"/><path d="m1068.5 576.1s11.6 75.7 0 111.6-2.3 34.2 5.2 19.4c0 0-4.5 26.1 2.6 26.1 0 0 25.8-10.5 25.8-26.6v-138" fill="#ffe5db"/><path d="m1067.3 576.4a459.4 459.4 0 0 1 5.1 59.7c.2 14.8 0 29.9-3.2 44.3-1.7 7.9-4.7 15.3-6.3 23.2-.7 3.6-2.1 8.9-.5 12.5 3.3 7.6 11.1-5.9 12.3-8.4l-2.2-1c-1.2 6.7-2.1 13.9-1.2 20.6.4 2.4 1 6.1 3.7 6.9s3.5-.6 5.1-1.3c8-4 16.8-9.7 21-17.8 2.1-3.9 2.3-7.9 2.3-12.1v-134.4a1.3 1.3 0 0 0 -2.5 0v122.9c0 10.2 1.5 20-6.1 28a51.3 51.3 0 0 1 -13 9.7c-2.2 1.2-5.5 4.1-7.1 1.4s-1.2-9.8-1-13.8.6-6.3 1.2-9.4c.2-1.3-1.6-2.3-2.3-1s-3.6 8-6.4 9-1.8-4.9-1.6-6.6c1.5-13.2 7.2-25.4 8.8-38.7 3.2-25.2 1.3-51.1-1.4-76.2-.6-6.1-1.4-12.1-2.3-18.1-.2-1.6-2.6-1-2.4.6z" fill="#231f20"/><path d="m1041.9 420.8c33.4 46.3 60.2 147.8 60.2 147.8-17.6 0-33.6 7.5-33.6 7.5-1.8-41.7-34.8-102.5-55.2-136.5a17 17 0 0 1 14.4-25.9 17.3 17.3 0 0 1 14.2 7.1z" fill="#3da283"/><path d="m1040.8 421.4c15.3 21.4 25.8 46.3 35.1 70.7 8 20.9 15.1 42.2 21.3 63.7 1.3 4.4 2.6 8.8 3.7 13.1l1.2-1.5a84.4 84.4 0 0 0 -34.2 7.6l1.9 1.1c-1.3-24.7-10.6-48.7-20.5-71-5.5-12.4-11.6-24.4-18-36.3-5.5-10.3-11.9-20.1-17.3-30.4a15.9 15.9 0 0 1 4.3-20.2c7.3-5.7 17.1-3.5 22.7 3.5 1 1.2 2.7-.5 1.8-1.8-7.2-9-21-10.2-28.7-1.2a18.5 18.5 0 0 0 -4.4 14c.6 5.7 4.3 10.5 7.1 15.3 15.3 26.1 29.5 53.1 39.8 81.6 5.4 14.9 9.9 30.5 10.7 46.5a1.3 1.3 0 0 0 1.9 1.1 81.3 81.3 0 0 1 32.9-7.3 1.3 1.3 0 0 0 1.2-1.6c-9.9-37.7-22.7-75.2-39.1-110.5-6.1-13.1-12.9-25.9-21.3-37.6-.9-1.3-3-.1-2.1 1.2z" fill="#231f20"/><path d="m1086.3 695.5c2.2 13-1.8 27.4-10.8 36.8-1.1 1.2.6 3 1.7 1.8 9.7-10.1 13.8-25.4 11.5-39.2-.2-1.6-2.6-.9-2.4.6z" fill="#231f20"/><path d="m1094.1 702.1c1.2 6.7 1.4 15.9-3.5 21.2-1.1 1.2.7 3 1.8 1.8 5.6-6.1 5.5-16 4.1-23.7-.3-1.6-2.7-.9-2.4.7z" fill="#231f20"/><path d="m1060.8 537.4c9.1-4.1 19.3-7.4 29.3-7.6 1.6-.1 1.6-2.6 0-2.5-10.5.2-21 3.7-30.5 7.9-1.5.7-.2 2.8 1.2 2.2z" fill="#231f20"/><path d="m1047.1 502.3c7.8-7.2 18.2-12 28.4-14.4a1.3 1.3 0 0 0 -.7-2.4c-10.6 2.5-21.4 7.5-29.4 15-1.2 1.1.6 2.9 1.7 1.8z" fill="#231f20"/><path d="m1029.5 466.6c6.5-9.3 17.3-16 28.1-19 1.5-.4.8-2.8-.7-2.4-11.5 3.2-22.7 10.3-29.6 20.1-.9 1.3 1.3 2.6 2.2 1.3z" fill="#231f20"/><ellipse cx="1090.1" cy="549.7" fill="#231f20" rx="3.7" ry="5.6"/><path d="m1027.6 177c-12.6-12.6-17.8-39.4-17.8-39.4l40.1-2.3s18.8 40.2 24 37.7l-13.1 18.3z" fill="#d0b28f"/><path d="m1028.5 176.1c-9.8-10.1-14.8-25.2-17.5-38.8l-1.2 1.6 37.5-2.2a16.4 16.4 0 0 0 2.2-.2c.8-.1-.7-1.1-.5-.2a55.5 55.5 0 0 0 2.9 6c3.5 7.1 7.2 14.2 11.3 21 1.7 2.6 6.6 12.4 11 10.9l-1.4-1.9-13 18.4 1.7-.4-33.3-14.4c-1.4-.6-2.7 1.5-1.2 2.1l33.2 14.4a1.3 1.3 0 0 0 1.7-.4l13.1-18.4a1.2 1.2 0 0 0 -1.4-1.8c-3.7 1.2-12.4-17-13.8-19.5-3.1-5.8-6-11.7-8.8-17.6a1.4 1.4 0 0 0 -1.1-.7l-40.1 2.4a1.2 1.2 0 0 0 -1.2 1.6c2.8 13.9 8.1 29.4 18.1 39.8 1.1 1.2 2.9-.6 1.8-1.7z" fill="#231f20"/><path d="m1034.9 217.3s30.2-20.8 26.8 32.5a28.4 28.4 0 0 1 -5.7 15.4c-4 5.1-10.5 9.9-21.1 8.6z" fill="#ffe5db"/><path d="m1035.6 218.3c5.2-3.5 13.2-5.8 18.5-1.2s6.6 16.9 6.6 24.7-.7 16.7-6.3 23.4-11.8 8.1-19.5 7.4l1.3 1.2v-56.5a1.3 1.3 0 0 0 -2.5 0v56.5a1.4 1.4 0 0 0 1.2 1.3c11.3 1 20.9-4.6 25.5-15s3.7-23 1.3-33.2-9.5-17.2-20.3-14a23 23 0 0 0 -7.1 3.3c-1.3.9-.1 3 1.3 2.1z" fill="#231f20"/><ellipse cx="1046.1" cy="257.9" fill="#231f20" rx="2.3" ry="4.7"/><path d="m1035.8 216.4-7.3-7.3a1.2 1.2 0 0 0 -1.8 1.7l7.4 7.3c1.1 1.2 2.8-.6 1.7-1.7z" fill="#231f20"/><path d="m1033.7 273.8v8.6a1.3 1.3 0 0 0 2.5 0v-8.6a1.3 1.3 0 0 0 -2.5 0z" fill="#231f20"/><path d="m986.6 357s.8 36.4 7.6 54.4v27.2l-28.5 35.9-20.4-32.2v-22.7s11.3-10.2 3.8-47.4z" fill="#ffe5db"/><path d="m985.3 357c.2 8.5.9 17 1.8 25.4a161.4 161.4 0 0 0 3.1 19.5c.9 4.2 2.8 8.2 2.8 12.5v20.8c0 .6-.1 3.7.1 2.9s-.6.6-.8.9l-3.1 3.9-8.9 11.2-15.5 19.6 2 .2-10.7-16.9-7.1-11.2-2-3.2c-.7-1.2-.4-.4-.4-.8-.7-3.5 0-7.8 0-11.4s-.6-7.3 0-10.6c.1-.6-.7 1.3-.1.3a16.7 16.7 0 0 0 1.2-1.6 23.2 23.2 0 0 0 3-6.6c4.1-12.8 2.1-27.2-.4-40l-.9 1.5 37.5-15.2c1.5-.6.8-3-.6-2.4l-37.5 15.2a1.3 1.3 0 0 0 -.9 1.5c2.4 12.4 4.3 26.4.4 38.7-.9 3.1-3.4 5.6-4.2 8.5s0 7.2 0 10.2-.6 8 0 11.7 5.3 9.5 7.7 13.3l12.8 20.3a1.3 1.3 0 0 0 2 .2l13.3-16.8 9.6-12.2c1.7-2.1 4.2-4.4 5.4-6.8s.5-3.6.5-5.5v-15.4c0-2.8.4-5.8-.4-8.6-1.7-6.8-3.5-13.3-4.5-20.3a298 298 0 0 1 -2.7-32.8 1.3 1.3 0 0 0 -2.5 0z" fill="#231f20"/><path d="m903 153.7s-17.8 84.7-49.3 116.2c0 0 3.2 69.5 61.5 96.3 28.7 13.2 63.1 5 81.9-20.4l1.2-1.7s9.8-51.3 8.3-118a122.8 122.8 0 0 0 -28.4-76.5c-1.8-2.2-3.6-4.3-5.5-6.2h-33.4z" fill="#ffe5db"/><path d="m901.8 153.4c-2.8 13-6.4 25.9-10.4 38.6-7.3 23.2-16 47-30.2 66.9a83.2 83.2 0 0 1 -5.3 6.8c-1.1 1.2-3.1 2.6-3.5 4.2a10.6 10.6 0 0 0 .2 2.5 125.9 125.9 0 0 0 2.7 16.3c4.5 19.3 12.9 38 25.8 53.2 16.8 19.7 42.1 33.8 68.6 31.5a68.5 68.5 0 0 0 35.9-14c5.6-4.4 13.2-10.4 14.4-17.8a562.9 562.9 0 0 0 7-64.8c1.9-34 3.9-69.6-10.8-101.2a118.3 118.3 0 0 0 -12.7-21.4c-2.3-3-4.6-5.9-7.1-8.7-1.3-1.3-2.3-2.8-4-3.3s-6.2 0-8.8 0h-14.8c-4.9 0-9-.2-13.7 1.1l-26.2 7.5-6.3 1.7c-1.5.5-.9 2.9.7 2.4l18.6-5.3c5.3-1.5 12.9-4.3 17.5-4.9 6.7-.9 14.1 0 20.9 0 3.4 0 7.5-.6 10.9 0 1.7.3.9-.1 2.3 1.4a113.7 113.7 0 0 1 8.8 10.7 121 121 0 0 1 20.1 44.8c3.8 17 3.3 34.6 3 51.9a611 611 0 0 1 -6.4 78.7c-.5 3.6-.5 8.5-2.1 11.9-2.8 5.9-10.4 11.8-15.7 15.4a62.9 62.9 0 0 1 -19 9.1c-27.3 7.9-55.2-3.6-74.6-23.2-14.3-14.6-23.7-33.5-28.8-53.1a123 123 0 0 1 -3.5-17.9c-.1-1.1-.7-3-.4-4.1s4.3-4.6 5.7-6.5c13.6-17.2 22.1-38.5 29.2-59a445.4 445.4 0 0 0 13.8-48l.6-2.8c.3-1.5-2.1-2.2-2.4-.6z" fill="#231f20"/><path d="m994.2 419.6c-25.7 44.5-48.9 0-48.9 0v22.7l20.4 32.2 28.5-35.9z" fill="#fff"/><path d="m993.1 418.9c-7.1 12.1-19.3 25.5-33.7 15.4a44.1 44.1 0 0 1 -13-15.4 1.3 1.3 0 0 0 -2.3.7v17.4c0 4-.1 5.4 1.9 8.7l18.6 29.5a1.3 1.3 0 0 0 2 .2l23.4-29.6c1.9-2.3 5-5 5.4-8 .8-5.9 0-12.3 0-18.2a1.2 1.2 0 1 0 -2.4 0c0 5.7-.6 11.7 0 17.5.1.9-.3 1.9.3.7l-1 1.2c-1.8 2-3.4 4.2-5 6.3l-22.5 28.4 2 .2-18.1-28.7a16.3 16.3 0 0 1 -2.3-3.5c.4 1.2.2-.7.2-1.2v-20.9l-2.3.6c3.7 7 9.5 14.2 16.6 17.9 15.1 8 27.3-5.9 34.4-17.9.8-1.4-1.4-2.7-2.2-1.3z" fill="#231f20"/><circle cx="883.2" cy="246.9" fill="#fff" r="37.5"/><path d="m919.4 246.9a36.2 36.2 0 1 1 -29-35.5c16.9 3.4 28.7 18.4 29 35.5.1 1.6 2.6 1.6 2.5 0-.3-16-9.9-30.5-25-36.2a38.7 38.7 0 1 0 -6.5 74.2c18.3-3.4 31.2-19.7 31.5-38 .1-1.6-2.4-1.6-2.5 0z" fill="#231f20"/><circle cx="952.9" cy="232.4" fill="#fff" r="37.5"/><path d="m989.1 232.4a36.9 36.9 0 0 1 -23.9 34.1 36.3 36.3 0 1 1 23.9-34.1 1.3 1.3 0 0 0 2.5 0 38.7 38.7 0 0 0 -68.7-24.4 38.7 38.7 0 0 0 37.2 62.4c18.3-3.4 31.1-19.6 31.5-38a1.3 1.3 0 0 0 -2.5 0z" fill="#231f20"/><path d="m920.1 250.5-2.6 11.6s-41.6-5.3-30.5 13.7a25.7 25.7 0 0 0 14.9 11.3 48.4 48.4 0 0 0 13.5 1.8" fill="#ffe5db"/><path d="m918.9 250.2-1.1 4.8c-.3 1.4-1.7 4.5-1.3 5.9s-1.3-.6.9-.1c-.3 0-.6.1-.8-.1a9.5 9.5 0 0 0 -2.9-.2c-7.1-.6-14.7-.8-21.5 1.2s-9.9 5.8-7.5 12.1c4.7 12.5 18.8 16.1 30.7 16.3 1.6.1 1.6-2.4 0-2.5-10.7-.1-23.4-3.1-28.1-14-2.5-5.7 1.5-8.5 6.6-9.8 7.5-1.9 15.9-1.4 23.6-.5.5.1 1-.4 1.2-.9l2.6-11.5c.3-1.6-2.1-2.3-2.4-.7z" fill="#231f20"/><ellipse cx="883.6" cy="296.3" fill="#e1ad99" rx="3.7" ry="1.8"/><ellipse cx="973.6" cy="273.8" fill="#e1ad99" rx="3.7" ry="1.8"/><ellipse cx="988.5" cy="273.8" fill="#e1ad99" rx="3.7" ry="1.8"/><ellipse cx="992.1" cy="262.6" fill="#e1ad99" rx="3.7" ry="1.8"/><path d="m1003.6 191c-2.1 10.5-12.9 15.3-22.6 15.5-1.6 0-1.6 2.5 0 2.4 10.7-.2 22.7-5.6 25-17.2.3-1.6-2.1-2.3-2.4-.7z" fill="#231f20"/><path d="m984.7 214.5c7.4 1.1 17.8.8 22.3-6.2.8-1.3-1.3-2.6-2.2-1.2-3.7 5.9-13.2 5.9-19.4 5-1.6-.3-2.2 2.1-.7 2.4z" fill="#231f20"/><path d="m990.3 138.8c-4-13.9-3.9-29.8-3.9-29.8 0-34.3-11.9-56.9-16.8-64.9-.9-1.5-43.8-57-143-5.2a92.6 92.6 0 0 0 -39.8 39.3c-22.5 43.7 4.8 78.6 16.9 90.9a25.3 25.3 0 0 0 18.4 7.9c1.5-.1 101.8-32.8 132.8-32.8s35.4-5.4 35.4-5.4z" fill="#d0b28f"/><path d="m991.5 138.4c-3.6-13.1-3.3-26-4.2-39.3a132.7 132.7 0 0 0 -8.8-39.9c-3.5-8.8-7.3-16.4-14.3-22.6-28.4-25.2-69.7-24.6-103.9-13.4-29.4 9.6-58.6 24.8-73.8 53-13.3 24.5-12 52.5 2.5 76.2 7.6 12.4 20.5 29.7 37.1 24.7s31.8-9.7 47.8-14.2c21-6 42.1-11.9 63.6-15.6 9.8-1.7 19.4-1.6 29.3-2.2 7.2-.4 16.1-.6 22.6-4.2a7.5 7.5 0 0 0 1.8-1.3c1-1.2-.7-2.9-1.8-1.7s-6.9 2.8-9.6 3.3c-10.4 2-21 1.1-31.5 2.1-18.4 1.8-36.7 6.8-54.5 11.5s-36.9 10.3-55.2 15.9c-5 1.5-9.9 3.1-14.9 4.5-8.2 2.5-16.9-4.2-22.4-10.5-15.9-17.9-25.4-41.8-20.5-65.9 3.1-15.6 11.5-30 22.6-41.3s25.8-19.2 40.6-25.5c35.9-15.4 81.2-22.2 114.4 3.1 6 4.5 10.1 9 13.4 15.4a115.3 115.3 0 0 1 10.7 31.2c2.5 12.1 2.1 24.1 3.1 36.3a108.1 108.1 0 0 0 3.5 21.1 1.3 1.3 0 0 0 2.4-.7z" fill="#231f20"/><path d="m810.6 28.1c-1.2 10.5 3.2 21.2 10.3 28.7 1.1 1.2 2.8-.6 1.7-1.8-6.7-7-10.7-17.1-9.5-26.9.1-1.5-2.3-1.5-2.5 0z" fill="#231f20"/><path d="m824 19.2c-.7 7.5-1.8 26.4 9.1 27 1.6.1 1.6-2.3 0-2.4-8.6-.6-7.2-18.7-6.7-24.6.2-1.6-2.3-1.6-2.4 0z" fill="#231f20"/><path d="m768.3 102.8a49.7 49.7 0 0 0 15.7 3 1.3 1.3 0 0 0 0-2.5 48.1 48.1 0 0 1 -15-2.9c-1.5-.6-2.2 1.8-.7 2.4z" fill="#231f20"/><path d="m921.7 3-7.5 24.8c-.5 1.5 1.9 2.2 2.4.7l7.5-24.8c.5-1.6-1.9-2.2-2.4-.7z" fill="#231f20"/><path d="m969.6 44.1s80.3-35.3 80.3 91.2l-59.6 3.5z" fill="#534c4c"/><path d="m970.3 45.2c7.1-3.1 17.6-4.7 26.1-4.3 20 1.2 34.6 14.6 42.3 32.5s9.9 41.1 10 61.9l1.2-1.3-30.8 1.8-20.6 1.2-6.1.4a4.3 4.3 0 0 0 -1.6.1c-.8.7.9-.6.7.8.3-2.1-1.3-5.8-1.7-7.8l-3.7-16.9-9.3-42.3-6-27.5c-.3-1.5-2.7-.9-2.3.7l18 82.6 2.6 12a1.3 1.3 0 0 0 1.2.9l59.6-3.5a1.2 1.2 0 0 0 1.3-1.2c-.1-29-2.8-67.2-27.6-86.8-12.5-9.9-28.9-11.9-44.2-8.6a48.1 48.1 0 0 0 -10.4 3.2c-1.4.6-.2 2.8 1.3 2.1z" fill="#231f20"/><path d="m975 109.7h22.8a1.2 1.2 0 1 0 0-2.4h-22.8a1.2 1.2 0 0 0 0 2.4z" fill="#231f20"/><path d="m1027.6 177s9.4 14.3 33.2 14.3c21.6 0 44-15.5 29.5-20.6a18.6 18.6 0 0 0 -11.2-.2c-12.7 3.7-6.8 15.8-51.5 6.5z" fill="#9d8569"/><path d="m1026.5 177.6c12.9 19.3 45.4 18.4 62.8 6.7 2.9-2 7.4-5.4 6.8-9.6s-6.8-5.9-10.5-6.2c-8-.5-11.9 3.9-18 7.6-11.1 6.8-28.2 2-39.7-.3a1.2 1.2 0 0 0 -.6 2.4c10.6 2.1 22.2 4.7 33.1 3 4.9-.8 8.6-3 12.5-6a23.6 23.6 0 0 1 5.8-3.3c4.3-1.5 19.3-.9 13.6 6.6-4.1 5.2-11.8 8-17.9 9.7a52.6 52.6 0 0 1 -24 .9c-7.9-1.7-17.1-5.8-21.7-12.8-.9-1.3-3.1 0-2.2 1.3z" fill="#231f20"/><path d="m932 181.7c15.4-5.5 33.4-5 48.7 0 1.5.5 2.2-1.9.7-2.4-15.7-5.1-34.3-5.7-50 0-1.5.6-.9 3 .6 2.4z" fill="#231f20"/><path d="m973.9 291c-14.8 14.6-37.5 22.3-57.7 16.8-1.5-.4-2.2 2-.7 2.4 21.1 5.7 44.8-2.2 60.2-17.4 1.1-1.2-.7-2.9-1.8-1.8z" fill="#231f20"/><path d="m998.3 344.1s-27.7 106.3 103.8 184.4c0 0 5.9-25.5-2.5-60.3" fill="#b0471b"/><path d="m997.1 343.8c-3.4 13.3-3 28.1-1.5 41.5 3.8 33.3 18.5 64.2 39.9 89.8 18.4 22 41.4 39.8 66 54.5a1.2 1.2 0 0 0 1.8-.8c4.5-19.7 2-41.5-2.5-60.9-.3-1.6-2.7-.9-2.4.6 4.4 18.9 6.9 40.5 2.5 59.7l1.9-.8c-38.5-22.9-73.3-54.2-91.9-95.7-10.3-22.9-15.3-48.4-13.4-73.5a88.7 88.7 0 0 1 2-13.7c.4-1.6-2-2.3-2.4-.7z" fill="#231f20"/><path d="m903 153.7s-17.6 84.4-49.3 116.2l-19 19s-15.9-26.8-15.9-61.2" fill="#b0471b"/><path d="m901.8 153.4a416.4 416.4 0 0 1 -12.8 46.2c-8.1 24.3-18.1 51-36.4 69.6l-18.8 18.8 1.9.3c-10.5-17.9-15.5-40-15.7-60.6a1.3 1.3 0 0 0 -2.5 0c.2 21 5.3 43.6 16.1 61.8a1.3 1.3 0 0 0 1.9.3l17.9-17.9c7.8-7.8 13.9-16.9 19.1-26.5 12.4-22.9 20.6-48.2 27.3-73.3 1.6-6 3.1-12 4.4-18.1.3-1.5-2.1-2.2-2.4-.6z" fill="#231f20"/><circle cx="900.7" cy="246.9" fill="#231f20" r="7.7"/><circle cx="954.9" cy="238.1" fill="#231f20" r="7.7"/></svg>