<svg id="Layer_1" data-name="Layer 1" xmlns="http://www.w3.org/2000/svg" width="800" height="400" viewBox="0 0 800 400"><title>epilepsy-ottawa-web-banner</title><rect width="800" height="400" fill="#6cb33f"/><path d="M42.6,17.6a25,25,0,0,0,0-35.3L7.2,17.6A25,25,0,0,0,42.6,17.6Z" fill="#6c207e"/><path d="M7.2-17.7a24.9,24.9,0,0,0,0,35.3L42.6-17.7A25,25,0,0,0,7.2-17.7Z" fill="#fff"/><path d="M142.6,17.6a24.9,24.9,0,0,0,0-35.3L107.2,17.6A25,25,0,0,0,142.6,17.6Z" fill="#6c207e"/><path d="M107.2-17.7a25,25,0,0,0,0,35.3l35.4-35.3A25,25,0,0,0,107.2-17.7Z" fill="#fff"/><path d="M242.6,17.6a24.9,24.9,0,0,0,0-35.3L207.3,17.6A24.9,24.9,0,0,0,242.6,17.6Z" fill="#6c207e"/><path d="M207.3-17.7a24.9,24.9,0,0,0,0,35.3l35.3-35.3A24.9,24.9,0,0,0,207.3-17.7Z" fill="#fff"/><path d="M342.7,17.6a25,25,0,0,0,0-35.3L307.3,17.6A25,25,0,0,0,342.7,17.6Z" fill="#6c207e"/><path d="M307.3-17.7a24.9,24.9,0,0,0,0,35.3l35.4-35.3A25,25,0,0,0,307.3-17.7Z" fill="#fff"/><path d="M442.7,17.6a24.9,24.9,0,0,0,0-35.3L407.3,17.6A25,25,0,0,0,442.7,17.6Z" fill="#6c207e"/><path d="M407.3-17.7a25,25,0,0,0,0,35.3l35.4-35.3A25,25,0,0,0,407.3-17.7Z" fill="#fff"/><path d="M542.7,17.6a24.9,24.9,0,0,0,0-35.3L507.4,17.6A24.9,24.9,0,0,0,542.7,17.6Z" fill="#6c207e"/><path d="M507.4-17.7a24.9,24.9,0,0,0,0,35.3l35.3-35.3A24.9,24.9,0,0,0,507.4-17.7Z" fill="#fff"/><path d="M642.7,17.6a24.9,24.9,0,0,0,0-35.3L607.4,17.6A24.9,24.9,0,0,0,642.7,17.6Z" fill="#6c207e"/><path d="M607.4-17.7a24.9,24.9,0,0,0,0,35.3l35.3-35.3A24.9,24.9,0,0,0,607.4-17.7Z" fill="#fff"/><path d="M742.8,17.6a25,25,0,0,0,0-35.3L707.4,17.6A25,25,0,0,0,742.8,17.6Z" fill="#6c207e"/><path d="M707.4-17.7a24.9,24.9,0,0,0,0,35.3l35.4-35.3A25,25,0,0,0,707.4-17.7Z" fill="#fff"/><path d="M7.2,117.7a25.2,25.2,0,0,0,35.4,0L7.2,82.3A25,25,0,0,0,7.2,117.7Z" fill="#6c207e"/><path d="M42.6,82.3a25,25,0,0,0-35.4,0l35.4,35.4A25.2,25.2,0,0,0,42.6,82.3Z" fill="#fff"/><path d="M107.2,117.7a25.2,25.2,0,0,0,35.4,0L107.2,82.3A25.2,25.2,0,0,0,107.2,117.7Z" fill="#6c207e"/><path d="M142.6,82.3a25,25,0,0,0-35.4,0l35.4,35.4A25,25,0,0,0,142.6,82.3Z" fill="#fff"/><path d="M207.3,117.7a25,25,0,0,0,35.3,0L207.3,82.3A25,25,0,0,0,207.3,117.7Z" fill="#6c207e"/><path d="M242.6,82.3a24.9,24.9,0,0,0-35.3,0l35.3,35.4A25,25,0,0,0,242.6,82.3Z" fill="#fff"/><path d="M307.3,117.7a25.2,25.2,0,0,0,35.4,0L307.3,82.3A25,25,0,0,0,307.3,117.7Z" fill="#6c207e"/><path d="M342.7,82.3a25,25,0,0,0-35.4,0l35.4,35.4A25.2,25.2,0,0,0,342.7,82.3Z" fill="#fff"/><path d="M407.3,117.7a25.2,25.2,0,0,0,35.4,0L407.3,82.3A25.2,25.2,0,0,0,407.3,117.7Z" fill="#6c207e"/><path d="M442.7,82.3a25,25,0,0,0-35.4,0l35.4,35.4A25,25,0,0,0,442.7,82.3Z" fill="#fff"/><path d="M507.4,117.7a25,25,0,0,0,35.3,0L507.4,82.3A25,25,0,0,0,507.4,117.7Z" fill="#6c207e"/><path d="M542.7,82.3a24.9,24.9,0,0,0-35.3,0l35.3,35.4A25,25,0,0,0,542.7,82.3Z" fill="#fff"/><path d="M607.4,117.7a25,25,0,0,0,35.3,0L607.4,82.3A25,25,0,0,0,607.4,117.7Z" fill="#6c207e"/><path d="M642.7,82.3a24.9,24.9,0,0,0-35.3,0l35.3,35.4A25,25,0,0,0,642.7,82.3Z" fill="#fff"/><path d="M707.4,117.7a25.2,25.2,0,0,0,35.4,0L707.4,82.3A25,25,0,0,0,707.4,117.7Z" fill="#6c207e"/><path d="M742.8,82.3a25,25,0,0,0-35.4,0l35.4,35.4A25.2,25.2,0,0,0,742.8,82.3Z" fill="#fff"/><path d="M42.6,217.7a25.2,25.2,0,0,0,0-35.4L7.2,217.7A25.2,25.2,0,0,0,42.6,217.7Z" fill="#6c207e"/><path d="M7.2,182.3a25,25,0,0,0,0,35.4l35.4-35.4A25.2,25.2,0,0,0,7.2,182.3Z" fill="#fff"/><path d="M142.6,217.7a25,25,0,0,0,0-35.4l-35.4,35.4A25.2,25.2,0,0,0,142.6,217.7Z" fill="#6c207e"/><path d="M107.2,182.3a25.2,25.2,0,0,0,0,35.4l35.4-35.4A25.2,25.2,0,0,0,107.2,182.3Z" fill="#fff"/><path d="M242.6,217.7a25,25,0,0,0,0-35.4l-35.3,35.4A25,25,0,0,0,242.6,217.7Z" fill="#6c207e"/><path d="M207.3,182.3a25,25,0,0,0,0,35.4l35.3-35.4A25,25,0,0,0,207.3,182.3Z" fill="#fff"/><path d="M342.7,217.7a25.2,25.2,0,0,0,0-35.4l-35.4,35.4A25.2,25.2,0,0,0,342.7,217.7Z" fill="#6c207e"/><path d="M307.3,182.3a25,25,0,0,0,0,35.4l35.4-35.4A25.2,25.2,0,0,0,307.3,182.3Z" fill="#fff"/><path d="M442.7,217.7a25,25,0,0,0,0-35.4l-35.4,35.4A25.2,25.2,0,0,0,442.7,217.7Z" fill="#6c207e"/><path d="M407.3,182.3a25.2,25.2,0,0,0,0,35.4l35.4-35.4A25.2,25.2,0,0,0,407.3,182.3Z" fill="#fff"/><path d="M542.7,217.7a25,25,0,0,0,0-35.4l-35.3,35.4A25,25,0,0,0,542.7,217.7Z" fill="#6c207e"/><path d="M507.4,182.3a25,25,0,0,0,0,35.4l35.3-35.4A25,25,0,0,0,507.4,182.3Z" fill="#fff"/><path d="M642.7,217.7a25,25,0,0,0,0-35.4l-35.3,35.4A25,25,0,0,0,642.7,217.7Z" fill="#6c207e"/><path d="M607.4,182.3a25,25,0,0,0,0,35.4l35.3-35.4A25,25,0,0,0,607.4,182.3Z" fill="#fff"/><path d="M742.8,217.7a25.2,25.2,0,0,0,0-35.4l-35.4,35.4A25.2,25.2,0,0,0,742.8,217.7Z" fill="#6c207e"/><path d="M707.4,182.3a25,25,0,0,0,0,35.4l35.4-35.4A25.2,25.2,0,0,0,707.4,182.3Z" fill="#fff"/><path d="M7.2,317.7a25,25,0,0,0,35.4,0L7.2,282.3A25,25,0,0,0,7.2,317.7Z" fill="#6c207e"/><path d="M42.6,282.3a25.2,25.2,0,0,0-35.4,0l35.4,35.4A25.2,25.2,0,0,0,42.6,282.3Z" fill="#fff"/><path d="M107.2,317.7a25,25,0,0,0,35.4,0l-35.4-35.4A25.2,25.2,0,0,0,107.2,317.7Z" fill="#6c207e"/><path d="M142.6,282.3a25.2,25.2,0,0,0-35.4,0l35.4,35.4A25,25,0,0,0,142.6,282.3Z" fill="#fff"/><path d="M207.3,317.7a24.9,24.9,0,0,0,35.3,0l-35.3-35.4A25,25,0,0,0,207.3,317.7Z" fill="#6c207e"/><path d="M242.6,282.3a25,25,0,0,0-35.3,0l35.3,35.4A25,25,0,0,0,242.6,282.3Z" fill="#fff"/><path d="M307.3,317.7a25,25,0,0,0,35.4,0l-35.4-35.4A25,25,0,0,0,307.3,317.7Z" fill="#6c207e"/><path d="M342.7,282.3a25.2,25.2,0,0,0-35.4,0l35.4,35.4A25.2,25.2,0,0,0,342.7,282.3Z" fill="#fff"/><path d="M407.3,317.7a25,25,0,0,0,35.4,0l-35.4-35.4A25.2,25.2,0,0,0,407.3,317.7Z" fill="#6c207e"/><path d="M442.7,282.3a25.2,25.2,0,0,0-35.4,0l35.4,35.4A25,25,0,0,0,442.7,282.3Z" fill="#fff"/><path d="M507.4,317.7a24.9,24.9,0,0,0,35.3,0l-35.3-35.4A25,25,0,0,0,507.4,317.7Z" fill="#6c207e"/><path d="M542.7,282.3a25,25,0,0,0-35.3,0l35.3,35.4A25,25,0,0,0,542.7,282.3Z" fill="#fff"/><path d="M607.4,317.7a24.9,24.9,0,0,0,35.3,0l-35.3-35.4A25,25,0,0,0,607.4,317.7Z" fill="#6c207e"/><path d="M642.7,282.3a25,25,0,0,0-35.3,0l35.3,35.4A25,25,0,0,0,642.7,282.3Z" fill="#fff"/><path d="M707.4,317.7a25,25,0,0,0,35.4,0l-35.4-35.4A25,25,0,0,0,707.4,317.7Z" fill="#6c207e"/><path d="M742.8,282.3a25.2,25.2,0,0,0-35.4,0l35.4,35.4A25.2,25.2,0,0,0,742.8,282.3Z" fill="#fff"/><path d="M42.6,417.7a25,25,0,0,0,0-35.3L7.2,417.7A25,25,0,0,0,42.6,417.7Z" fill="#6c207e"/><path d="M7.2,382.4a24.9,24.9,0,0,0,0,35.3l35.4-35.3A25,25,0,0,0,7.2,382.4Z" fill="#fff"/><path d="M142.6,417.7a24.9,24.9,0,0,0,0-35.3l-35.4,35.3A25,25,0,0,0,142.6,417.7Z" fill="#6c207e"/><path d="M107.2,382.4a25,25,0,0,0,0,35.3l35.4-35.3A25,25,0,0,0,107.2,382.4Z" fill="#fff"/><path d="M242.6,417.7a24.9,24.9,0,0,0,0-35.3l-35.3,35.3A24.9,24.9,0,0,0,242.6,417.7Z" fill="#6c207e"/><path d="M207.3,382.4a24.9,24.9,0,0,0,0,35.3l35.3-35.3A24.9,24.9,0,0,0,207.3,382.4Z" fill="#fff"/><path d="M342.7,417.7a25,25,0,0,0,0-35.3l-35.4,35.3A25,25,0,0,0,342.7,417.7Z" fill="#6c207e"/><path d="M307.3,382.4a24.9,24.9,0,0,0,0,35.3l35.4-35.3A25,25,0,0,0,307.3,382.4Z" fill="#fff"/><path d="M442.7,417.7a24.9,24.9,0,0,0,0-35.3l-35.4,35.3A25,25,0,0,0,442.7,417.7Z" fill="#6c207e"/><path d="M407.3,382.4a25,25,0,0,0,0,35.3l35.4-35.3A25,25,0,0,0,407.3,382.4Z" fill="#fff"/><path d="M542.7,417.7a24.9,24.9,0,0,0,0-35.3l-35.3,35.3A24.9,24.9,0,0,0,542.7,417.7Z" fill="#6c207e"/><path d="M507.4,382.4a24.9,24.9,0,0,0,0,35.3l35.3-35.3A24.9,24.9,0,0,0,507.4,382.4Z" fill="#fff"/><path d="M642.7,417.7a24.9,24.9,0,0,0,0-35.3l-35.3,35.3A24.9,24.9,0,0,0,642.7,417.7Z" fill="#6c207e"/><path d="M607.4,382.4a24.9,24.9,0,0,0,0,35.3l35.3-35.3A24.9,24.9,0,0,0,607.4,382.4Z" fill="#fff"/><path d="M742.8,417.7a25,25,0,0,0,0-35.3l-35.4,35.3A25,25,0,0,0,742.8,417.7Z" fill="#6c207e"/><path d="M707.4,382.4a24.9,24.9,0,0,0,0,35.3l35.4-35.3A25,25,0,0,0,707.4,382.4Z" fill="#fff"/><path d="M70.8,29.4A11.6,11.6,0,1,0,54.3,45.8L66.7,58.2,83.1,41.7Z" fill="#fff"/><path d="M66.7,58.2,79,70.5A11.6,11.6,0,0,0,95.5,54.1L83.1,41.7Z" fill="#6c207e"/><path d="M170.8,29.4a11.6,11.6,0,1,0-16.5,16.4l12.4,12.4,16.5-16.5Z" fill="#fff"/><path d="M166.7,58.2l12.4,12.3a11.6,11.6,0,1,0,16.4-16.4L183.2,41.7Z" fill="#6c207e"/><path d="M270.8,29.4a11.6,11.6,0,0,0-16.4,16.4l12.3,12.4,16.5-16.5Z" fill="#fff"/><path d="M266.7,58.2l12.4,12.3a11.6,11.6,0,0,0,16.5-16.4L283.2,41.7Z" fill="#6c207e"/><path d="M370.9,29.4a11.6,11.6,0,1,0-16.5,16.4l12.4,12.4,16.4-16.5Z" fill="#fff"/><path d="M366.8,58.2l12.3,12.3a11.6,11.6,0,0,0,16.5-16.4L383.2,41.7Z" fill="#6c207e"/><path d="M470.9,29.4a11.6,11.6,0,1,0-16.5,16.4l12.4,12.4,16.5-16.5Z" fill="#fff"/><path d="M466.8,58.2l12.3,12.3a11.6,11.6,0,0,0,16.5,0,11.5,11.5,0,0,0,0-16.4L483.3,41.7Z" fill="#6c207e"/><path d="M570.9,29.4a11.6,11.6,0,0,0-16.4,16.4l12.3,12.4,16.5-16.5Z" fill="#fff"/><path d="M566.8,58.2l12.4,12.3a11.6,11.6,0,1,0,16.4-16.4L583.3,41.7Z" fill="#6c207e"/><path d="M671,29.4a11.6,11.6,0,0,0-16.5,0,11.5,11.5,0,0,0,0,16.4l12.3,12.4,16.5-16.5Z" fill="#fff"/><path d="M666.8,58.2l12.4,12.3a11.6,11.6,0,0,0,16.5-16.4L683.3,41.7Z" fill="#6c207e"/><path d="M771,29.4a11.6,11.6,0,1,0-16.5,16.4l12.4,12.4,16.4-16.5Z" fill="#fff"/><path d="M766.9,58.2l12.3,12.3a11.6,11.6,0,0,0,16.5-16.4L783.3,41.7Z" fill="#6c207e"/><path d="M95.5,145.9a11.8,11.8,0,0,0,0-16.5,11.6,11.6,0,0,0-16.5,0L66.7,141.8l16.4,16.4Z" fill="#fff"/><path d="M66.7,141.8,54.3,154.1a11.7,11.7,0,0,0,16.5,16.5l12.3-12.4Z" fill="#6c207e"/><path d="M195.5,145.9a11.6,11.6,0,0,0,0-16.5,11.5,11.5,0,0,0-16.4,0l-12.4,12.4,16.5,16.4Z" fill="#fff"/><path d="M166.7,141.8l-12.4,12.3a11.7,11.7,0,0,0,16.5,16.5l12.4-12.4Z" fill="#6c207e"/><path d="M295.6,145.9a11.8,11.8,0,0,0,0-16.5,11.6,11.6,0,0,0-16.5,0l-12.4,12.4,16.5,16.4Z" fill="#fff"/><path d="M266.7,141.8l-12.3,12.3a11.6,11.6,0,0,0,16.4,16.5l12.4-12.4Z" fill="#6c207e"/><path d="M395.6,145.9a11.8,11.8,0,0,0,0-16.5,11.6,11.6,0,0,0-16.5,0l-12.3,12.4,16.4,16.4Z" fill="#fff"/><path d="M366.8,141.8l-12.4,12.3a11.7,11.7,0,0,0,16.5,16.5l12.3-12.4Z" fill="#6c207e"/><path d="M495.6,145.9a11.7,11.7,0,0,0-16.5-16.5l-12.3,12.4,16.5,16.4Z" fill="#fff"/><path d="M466.8,141.8l-12.4,12.3a11.7,11.7,0,0,0,16.5,16.5l12.4-12.4Z" fill="#6c207e"/><path d="M595.6,145.9a11.6,11.6,0,0,0,0-16.5,11.5,11.5,0,0,0-16.4,0l-12.4,12.4,16.5,16.4Z" fill="#fff"/><path d="M566.8,141.8l-12.3,12.3a11.6,11.6,0,0,0,16.4,16.5l12.4-12.4Z" fill="#6c207e"/><path d="M695.7,145.9a11.8,11.8,0,0,0,0-16.5,11.6,11.6,0,0,0-16.5,0l-12.4,12.4,16.5,16.4Z" fill="#fff"/><path d="M666.8,141.8l-12.3,12.3a11.6,11.6,0,0,0,0,16.5,11.8,11.8,0,0,0,16.5,0l12.3-12.4Z" fill="#6c207e"/><path d="M795.7,145.9a11.8,11.8,0,0,0,0-16.5,11.6,11.6,0,0,0-16.5,0l-12.3,12.4,16.4,16.4Z" fill="#fff"/><path d="M766.9,141.8l-12.4,12.3A11.7,11.7,0,0,0,771,170.6l12.3-12.4Z" fill="#6c207e"/><path d="M70.8,229.4a11.7,11.7,0,0,0-16.5,16.5l12.4,12.3,16.4-16.4Z" fill="#fff"/><path d="M66.7,258.2,79,270.6a11.6,11.6,0,0,0,16.5,0,11.8,11.8,0,0,0,0-16.5L83.1,241.8Z" fill="#6c207e"/><path d="M170.8,229.4a11.7,11.7,0,0,0-16.5,16.5l12.4,12.3,16.5-16.4Z" fill="#fff"/><path d="M166.7,258.2l12.4,12.4a11.5,11.5,0,0,0,16.4,0,11.6,11.6,0,0,0,0-16.5l-12.3-12.3Z" fill="#6c207e"/><path d="M270.8,229.4a11.6,11.6,0,0,0-16.4,16.5l12.3,12.3,16.5-16.4Z" fill="#fff"/><path d="M266.7,258.2l12.4,12.4a11.6,11.6,0,0,0,16.5,0,11.8,11.8,0,0,0,0-16.5l-12.4-12.3Z" fill="#6c207e"/><path d="M370.9,229.4a11.7,11.7,0,0,0-16.5,16.5l12.4,12.3,16.4-16.4Z" fill="#fff"/><path d="M366.8,258.2l12.3,12.4a11.6,11.6,0,0,0,16.5,0,11.8,11.8,0,0,0,0-16.5l-12.4-12.3Z" fill="#6c207e"/><path d="M470.9,229.4a11.7,11.7,0,0,0-16.5,16.5l12.4,12.3,16.5-16.4Z" fill="#fff"/><path d="M466.8,258.2l12.3,12.4a11.7,11.7,0,1,0,16.5-16.5l-12.3-12.3Z" fill="#6c207e"/><path d="M570.9,229.4a11.6,11.6,0,0,0-16.4,16.5l12.3,12.3,16.5-16.4Z" fill="#fff"/><path d="M566.8,258.2l12.4,12.4a11.5,11.5,0,0,0,16.4,0,11.6,11.6,0,0,0,0-16.5l-12.3-12.3Z" fill="#6c207e"/><path d="M671,229.4a11.8,11.8,0,0,0-16.5,0,11.6,11.6,0,0,0,0,16.5l12.3,12.3,16.5-16.4Z" fill="#fff"/><path d="M666.8,258.2l12.4,12.4a11.6,11.6,0,0,0,16.5,0,11.8,11.8,0,0,0,0-16.5l-12.4-12.3Z" fill="#6c207e"/><path d="M771,229.4a11.7,11.7,0,0,0-16.5,16.5l12.4,12.3,16.4-16.4Z" fill="#fff"/><path d="M766.9,258.2l12.3,12.4a11.6,11.6,0,0,0,16.5,0,11.8,11.8,0,0,0,0-16.5l-12.4-12.3Z" fill="#6c207e"/><path d="M95.5,345.9A11.6,11.6,0,0,0,79,329.5L66.7,341.8l16.4,16.5Z" fill="#fff"/><path d="M66.7,341.8,54.3,354.2a11.6,11.6,0,0,0,16.5,16.4l12.3-12.3Z" fill="#6c207e"/><path d="M195.5,345.9a11.6,11.6,0,1,0-16.4-16.4l-12.4,12.3,16.5,16.5Z" fill="#fff"/><path d="M166.7,341.8l-12.4,12.4a11.6,11.6,0,0,0,16.5,16.4l12.4-12.3Z" fill="#6c207e"/><path d="M295.6,345.9a11.6,11.6,0,0,0-16.5-16.4l-12.4,12.3,16.5,16.5Z" fill="#fff"/><path d="M266.7,341.8l-12.3,12.4a11.6,11.6,0,0,0,16.4,16.4l12.4-12.3Z" fill="#6c207e"/><path d="M395.6,345.9a11.6,11.6,0,0,0-16.5-16.4l-12.3,12.3,16.4,16.5Z" fill="#fff"/><path d="M366.8,341.8l-12.4,12.4a11.6,11.6,0,0,0,16.5,16.4l12.3-12.3Z" fill="#6c207e"/><path d="M495.6,345.9a11.5,11.5,0,0,0,0-16.4,11.6,11.6,0,0,0-16.5,0l-12.3,12.3,16.5,16.5Z" fill="#fff"/><path d="M466.8,341.8l-12.4,12.4a11.6,11.6,0,0,0,16.5,16.4l12.4-12.3Z" fill="#6c207e"/><path d="M595.6,345.9a11.6,11.6,0,1,0-16.4-16.4l-12.4,12.3,16.5,16.5Z" fill="#fff"/><path d="M566.8,341.8l-12.3,12.4a11.6,11.6,0,0,0,16.4,16.4l12.4-12.3Z" fill="#6c207e"/><path d="M695.7,345.9a11.6,11.6,0,0,0-16.5-16.4l-12.4,12.3,16.5,16.5Z" fill="#fff"/><path d="M666.8,341.8l-12.3,12.4a11.5,11.5,0,0,0,0,16.4,11.6,11.6,0,0,0,16.5,0l12.3-12.3Z" fill="#6c207e"/><path d="M795.7,345.9a11.6,11.6,0,0,0-16.5-16.4l-12.3,12.3,16.4,16.5Z" fill="#fff"/><path d="M766.9,341.8l-12.4,12.4A11.6,11.6,0,0,0,771,370.6l12.3-12.3Z" fill="#6c207e"/></svg>