<svg id="Layer_1" data-name="Layer 1" xmlns="http://www.w3.org/2000/svg" width="800" height="400" viewBox="0 0 800 400"><title>epilepsy-ottawa-office-banner</title><g id="background"><rect x="333.3" y="266.7" width="133.3" height="133.33" fill="#f37b20"/><rect x="600" y="133.3" width="133.3" height="133.33" fill="#c31230"/><rect x="-66.7" y="266.7" width="133.3" height="133.33" fill="#fff"/><rect x="200" y="266.7" width="133.3" height="133.33" fill="#c31230"/><rect x="600" y="266.7" width="133.3" height="133.33" fill="#6c207e"/><rect x="733.3" y="266.7" width="133.3" height="133.33" fill="#6cb33f"/><rect x="66.7" y="266.7" width="133.3" height="133.33" fill="#fff"/><rect x="466.7" y="266.7" width="133.3" height="133.33" fill="#fff"/><rect x="-66.7" y="133.3" width="133.3" height="133.33" fill="#f37b20"/><rect x="66.7" y="133.3" width="133.3" height="133.33" fill="#fff"/><rect x="333.3" y="133.3" width="133.3" height="133.33" fill="#6cb33f"/><rect x="466.7" y="133.3" width="133.3" height="133.33" fill="#0080c5"/><rect x="733.3" y="133.3" width="133.3" height="133.33" fill="#f37b20"/><rect x="200" y="133.3" width="133.3" height="133.33" fill="#6c207e"/><rect x="-66.7" width="133.3" height="133.33" fill="#6cb33f"/><rect x="333.3" width="133.3" height="133.33" fill="#f37b20"/><rect x="600" width="133.3" height="133.33" fill="#6c207e"/><rect x="733.3" width="133.3" height="133.33" fill="#6cb33f"/><rect x="466.7" width="133.3" height="133.33" fill="#fff"/><rect x="66.7" width="133.3" height="133.33" fill="#0080c5"/><rect x="200" width="133.3" height="133.33" fill="#c31230"/></g><g id="pill-oval"><path d="M794.3,304.8a16.2,16.2,0,1,0-22.9,22.8l17.2,17.2,22.8-22.9Z" fill="#fff"/><path d="M788.6,344.8l17.1,17.1A16.2,16.2,0,1,0,828.6,339l-17.2-17.1Z" fill="#6c207e"/><path d="M733.3,307.1a16.2,16.2,0,0,0,16.2-16.2V266.7H733.3Z" fill="#fff"/><polygon points="756.2 400 744.8 388.6 733.3 400 756.2 400" fill="#fff"/><path d="M784.7,371.4a16.1,16.1,0,0,0-22.8,0l-17.1,17.2L756.2,400H779l5.7-5.7A16.1,16.1,0,0,0,784.7,371.4Z" fill="#6c207e"/></g><g id="gear"><path id="gear-2" data-name="gear" d="M600.2,346.7V320H584.8a50.2,50.2,0,0,0-5.7-13.7l10.7-10.7-18.9-18.8-10.6,10.6a53.6,53.6,0,0,0-13.7-5.7v-15H519.9v15a50.5,50.5,0,0,0-13.7,5.8l-10.7-10.7-18.8,18.8,10.7,10.7a50.2,50.2,0,0,0-5.7,13.7h-15v26.7h15a53,53,0,0,0,5.7,13.7L476.7,371l18.8,18.9,10.7-10.7a50.2,50.2,0,0,0,13.7,5.7v15h26.7v-15a50.2,50.2,0,0,0,13.7-5.7l10.6,10.7L589.8,371l-10.7-10.6a53,53,0,0,0,5.7-13.7Zm-27-13.4a40,40,0,1,1-39.9-39.9A40,40,0,0,1,573.2,333.3Z" fill="#6c207e"/></g><g id="speech-bubble"><polygon points="333.3 400 333.3 293.3 413.3 293.3 440 266.7 440 293.3 466.7 293.3 466.7 400 333.3 400" fill="#0080c5"/><rect x="333.3" y="311.1" width="118.5" height="14.81" fill="#fff"/><rect x="333.3" y="340.7" width="118.5" height="14.81" fill="#fff"/><rect x="333.3" y="370.4" width="118.5" height="14.81" fill="#fff"/></g><g id="suitcase"><path d="M293.3,293.3v-16a10.5,10.5,0,0,0-10.6-10.6h-32A10.6,10.6,0,0,0,240,277.3v16H200V400H333.3V293.3Zm-40,0V280H280v13.3Z" fill="#fff"/><rect x="200" y="293.3" width="26.7" height="106.67" fill="#6c207e"/><rect x="306.7" y="293.3" width="26.7" height="106.67" fill="#6c207e"/></g><g id="card"><rect x="66.7" y="266.7" width="133.3" height="26.67" fill="#6cb33f"/><rect x="155.6" y="370.4" width="29.6" height="29.63" fill="#0080c5"/><rect x="66.7" y="311.1" width="118.5" height="14.81" fill="#0080c5"/><rect x="66.7" y="340.7" width="118.5" height="14.81" fill="#0080c5"/><rect x="66.7" y="370.4" width="79" height="14.81" fill="#0080c5"/><path d="M0,370.4c-24.5,0-44.4,5.1-44.4,29.6H44.4C44.4,375.5,24.5,370.4,0,370.4Z" fill="#6cb33f"/><circle cy="333.3" r="22.2" fill="#6cb33f"/><rect x="-66.7" y="266.7" width="133.3" height="26.67" fill="#0080c5"/></g><g id="hat"><path d="M866.7,173.3l-66.7-40-66.7,40,26.7,16v24c0,14.8,17.9,26.7,40,26.7s40-11.9,40-26.7v-24Z" fill="#6c207e"/><ellipse cx="800" cy="173.3" rx="6.7" ry="3.3" fill="#fff"/><polygon points="834.2 260 832.5 260 832.5 193.8 799.6 174 800.4 172.6 834.2 192.9 834.2 260" fill="#fff"/></g><g id="brain"><path d="M498.2,151.1s-26.7,9-24.8,40.3c0,0-9.3,39.3,20,58.3,10.1,15.5,26.1,6.2,26.1,6.2,7.8,0,13.8-7.3,13.8-7.3V160.1a18.8,18.8,0,0,0-11.1-17.3C516.1,140.1,507.8,140.4,498.2,151.1Z" fill="#fff"/><path d="M568.4,151.1s26.7,9,24.9,40.3c0,0,9.3,39.3-20.1,58.3-10,15.5-26,6.2-26,6.2-7.8,0-13.9-7.3-13.9-7.3V160.1a18.8,18.8,0,0,1,11.1-17.3C550.6,140.1,558.9,140.4,568.4,151.1Z" fill="#fff"/><g id="brain-2" data-name="brain"><path d="M508.8,264a21.7,21.7,0,0,1-9.2-2,24.5,24.5,0,0,1-10-8.5A48.7,48.7,0,0,1,473.2,235a60.5,60.5,0,0,1-6.1-21,81.5,81.5,0,0,1,.9-23c-.8-17.8,6.8-29,13.4-35.4a46.1,46.1,0,0,1,13.7-9c4.9-5.2,9.9-8.5,15-9.8a21.4,21.4,0,0,1,14.3,1.1,24.3,24.3,0,0,1,14.3,22.2v90.4l-1.3,1.5a30,30,0,0,1-4.9,4.5,22.1,22.1,0,0,1-11.6,4.6,26.9,26.9,0,0,1-10.3,2.8ZM500,156.1a34.4,34.4,0,0,0-11.5,7.5c-7.2,7.1-10.5,16.3-9.8,27.5v.8l-.2.8a66.3,66.3,0,0,0-.9,20.5c1.7,14.3,7.9,25.1,18.6,32l1,.6.6,1c3,4.6,6.8,6.8,11.6,6.5a20.7,20.7,0,0,0,7.4-2l1.2-.8h1.4c3.3,0,6.6-2.4,8.5-4.2V160.1a13.4,13.4,0,0,0-7.9-12.4,10.6,10.6,0,0,0-7.2-.7c-3.4.9-7,3.5-10.7,7.6l-.9,1.1Z" fill="#f37b20"/><path d="M557.9,264H556a26.3,26.3,0,0,1-10.2-2.8,22.1,22.1,0,0,1-11.6-4.6,28.3,28.3,0,0,1-5-4.5l-1.2-1.5V160.1a24.1,24.1,0,0,1,14.3-22.2,21.1,21.1,0,0,1,14.2-1.1c5.2,1.3,10.2,4.6,15,9.8a43.7,43.7,0,0,1,13.7,9c6.6,6.4,14.3,17.6,13.4,35.4a76.4,76.4,0,0,1,1,23,60.5,60.5,0,0,1-6.1,21,49.6,49.6,0,0,1-16.4,18.5,24.5,24.5,0,0,1-10,8.5A22.1,22.1,0,0,1,557.9,264Zm-8.1-12.7a19.9,19.9,0,0,0,7.3,2c4.8.3,8.7-1.9,11.7-6.5l.6-1,1-.6c10.6-6.9,16.9-17.7,18.5-32a68.3,68.3,0,0,0-.8-20.5l-.2-.8v-.8c.6-11.2-2.7-20.4-9.8-27.5a34.4,34.4,0,0,0-11.5-7.5l-1.3-.4-.9-1.1c-3.7-4.1-7.3-6.7-10.7-7.6a10.6,10.6,0,0,0-7.2.7,13.4,13.4,0,0,0-7.9,12.4v86.3c1.8,1.8,5.1,4.2,8.5,4.2h1.4Z" fill="#f37b20"/><path d="M533.3,229.5a15.6,15.6,0,0,1-12.7-3c-4.4-3.4-8.7-9.2-11-19.6,0,0-11.9,1.1-13.1-13.6" fill="#fff"/><path d="M530.1,235.1a20.7,20.7,0,0,1-12.8-4.4c-5.5-4.2-9.5-10.6-11.9-18.8a16.4,16.4,0,0,1-7.5-3.7c-3.9-3.3-6.2-8.2-6.7-14.5l10.6-.9c.3,3.5,1.3,5.9,2.9,7.3a7.1,7.1,0,0,0,4.4,1.5l4.6-.4,1.1,4.6c1.7,7.6,4.7,13.2,9,16.5a10.2,10.2,0,0,0,8.4,2l2.2,10.4A20.2,20.2,0,0,1,530.1,235.1Z" fill="#f37b20"/><path d="M519.5,255.9s0-13.7-13-13.7" fill="#fff"/><path d="M514.2,255.9a13.9,13.9,0,0,0-1.2-4.8c-1.3-2.5-3.3-3.6-6.5-3.6V236.9c7.4,0,13.2,3.5,16.2,9.9a21.9,21.9,0,0,1,2.1,9.1Z" fill="#f37b20"/><path d="M498.2,151.1s.2,13.6,13.1,13.6" fill="#fff"/><path d="M511.3,170.1c-7.4,0-13.1-3.5-16.2-9.9a22.9,22.9,0,0,1-2.2-9.1h10.7a11.6,11.6,0,0,0,1.2,4.8c1.3,2.5,3.3,3.6,6.5,3.6Z" fill="#f37b20"/><path d="M473.4,191.4s.1,13.7,13,13.7" fill="#fff"/><path d="M486.4,210.4c-7.3,0-13.1-3.5-16.1-9.8a23.2,23.2,0,0,1-2.2-9.1h10.6a12.7,12.7,0,0,0,1.3,4.9c1.3,2.5,3.3,3.6,6.4,3.6Z" fill="#f37b20"/><path d="M557.1,206.9s11.9,1.1,13-13.6" fill="#fff"/><path d="M557.6,212.3h-1l1-10.6h-.1a6.9,6.9,0,0,0,3.5-.9c2.2-1.2,3.5-3.9,3.8-7.9l10.6.9c-.5,6.3-2.7,11.2-6.6,14.5A17.8,17.8,0,0,1,557.6,212.3Z" fill="#f37b20"/><path d="M547.2,255.9s0-13.7,13-13.7" fill="#fff"/><path d="M552.5,255.9H541.8a22.9,22.9,0,0,1,2.2-9.1c3-6.4,8.8-9.9,16.2-9.9v10.6c-3.2,0-5.2,1.1-6.5,3.6A11.6,11.6,0,0,0,552.5,255.9Z" fill="#f37b20"/><path d="M568.4,151.1s-.1,13.6-13,13.6" fill="#fff"/><path d="M555.4,170.1V159.4c3.2,0,5.3-1.2,6.5-3.8a12.8,12.8,0,0,0,1.2-4.6h10.7a26.1,26.1,0,0,1-2.3,9.1C568.5,166.6,562.7,170.1,555.4,170.1Z" fill="#f37b20"/><path d="M593.3,191.4s-.2,13.7-13.1,13.7" fill="#fff"/><path d="M580.2,210.4V199.8c3.3,0,5.3-1.2,6.6-3.8a11.6,11.6,0,0,0,1.1-4.6h10.7a23.2,23.2,0,0,1-2.2,9.1C593.3,206.9,587.6,210.4,580.2,210.4Z" fill="#f37b20"/></g></g><g id="head"><path d="M447.3,189.8v-3.1c0-18.3-9-35.7-24.5-45.3a53.3,53.3,0,1,0-54.9,91.4v33.9h52.5V253.3h22.2a5.3,5.3,0,0,0,5.3-5.3V225.1h5.5a5.3,5.3,0,0,0,5-7.3Z" fill="#fff"/><path d="M380,200.2l-25.9-14.1L371,164.2l23.6-17.8,22.7,15.8-22.1,14.7Zm-23.4-14.7L379.5,198,394,175.7l20.3-13.6-19.7-13.7-22.4,16.9Z" fill="#6c207e"/><rect x="374.9" y="164.3" width="1.7" height="35.33" transform="translate(-31.8 91.5) rotate(-13.3)" fill="#6c207e"/><rect x="393.8" y="147.4" width="1.7" height="28.92" fill="#6c207e"/><circle cx="394.6" cy="147.4" r="6.7" fill="#6cb33f"/><circle cx="394.6" cy="176.3" r="6.7" fill="#6cb33f"/><circle cx="355.3" cy="185.8" r="6.7" fill="#6cb33f"/><circle cx="371.6" cy="164.8" r="13.3" fill="#6cb33f"/><circle cx="379.8" cy="199.1" r="13.3" fill="#6cb33f"/><circle cx="415.8" cy="162.2" r="13.3" fill="#6cb33f"/></g><polygon id="bolt" points="308.3 166.7 275 166.7 291.7 133.3 258.3 133.3 225 200 258.3 200 225 266.7 308.3 166.7" fill="#fff"/><path id="magnifying-glass" d="M186.9,146.4a44.8,44.8,0,0,0-66.3,60l-6.5,6.5-3.1-3.2L66.7,254l12.6,12.7,44.3-44.3-3.1-3.2,6.4-6.5a44.8,44.8,0,0,0,60-66.3Zm-6.3,57a35.8,35.8,0,1,1,0-50.6A35.9,35.9,0,0,1,180.6,203.4Z" fill="#6c207e"/><g id="graph"><polygon points="-13.3 200 -26.7 240 -40 200 -66.7 200 -66.7 133.3 26.7 133.3 0 266.7 -13.3 200" fill="#6c207e"/><polygon points="26.7 133.3 66.7 133.3 66.7 200 40 200 26.7 133.3" fill="#6c207e"/></g><g id="pill-circle"><path d="M800,100a33.3,33.3,0,0,0,33.3-33.3H766.7A33.3,33.3,0,0,0,800,100Z" fill="#6c207e"/><path d="M800,33.3a33.4,33.4,0,0,0-33.3,33.4h66.6A33.4,33.4,0,0,0,800,33.3Z" fill="#fff"/><path d="M766.7,100a33.4,33.4,0,0,0-33.4,33.3H800A33.3,33.3,0,0,0,766.7,100Z" fill="#fff"/><path d="M761.9,28.5A33.2,33.2,0,0,0,771.3.1H733.4Z" fill="#6c207e"/><path d="M733.3.1V37.9a33.4,33.4,0,0,0,28.6-9.4L733.4.1Z" fill="#fff"/></g><g id="bottle"><rect x="613.3" y="266.7" width="106.7" height="33.33" fill="#c31230"/><rect x="613.3" y="133.3" width="106.7" height="133.33" fill="#fff"/><rect x="613.3" y="100" width="106.7" height="33.33" fill="#c31230"/><rect x="626.7" y="160" width="80" height="80" transform="translate(1333.3 400) rotate(180)" fill="#c31230"/><rect x="660" y="26.7" width="13.3" height="133.33" transform="translate(760 -573.3) rotate(90)" fill="#fff"/><rect x="613.3" y="60" width="13.3" height="26.67" fill="#fff"/><rect x="640" y="60" width="13.3" height="26.67" fill="#fff"/><rect x="666.7" y="60" width="13.3" height="26.67" fill="#fff"/><rect x="693.3" y="60" width="13.3" height="26.67" fill="#fff"/><rect x="720" y="60" width="13.3" height="26.67" fill="#fff"/><polygon points="675.6 191.1 675.6 173.3 657.8 173.3 657.8 191.1 640 191.1 640 208.9 657.8 208.9 657.8 226.7 675.6 226.7 675.6 208.9 693.3 208.9 693.3 191.1 675.6 191.1" fill="#fff"/></g><path id="ribbon" d="M567.4,108.3,548.2,89.1h0l14.9-14.9A43.1,43.1,0,0,0,536.5.1h-6.4c-22.4,1.6-40,20.8-39.9,43.3a42.9,42.9,0,0,0,13.3,30.8l14.9,14.9h0l-19.2,19.2-10.1,10.1L504,133.3l25-25,4.3-4.3,4.3,4.3,25.1,25,14.9-14.9ZM533.3,74.2l-15-15.1a21.7,21.7,0,0,1-7-16,22.1,22.1,0,0,1,44.1,0,21.7,21.7,0,0,1-7,16Z" fill="#6c207e"/><g id="wheel"><circle cx="400" cy="66.7" r="26.7" fill="#fff"/><circle cx="400" cy="66.7" r="13.3" fill="#6c207e"/><path d="M400,0a66.7,66.7,0,1,0,66.7,66.7A66.7,66.7,0,0,0,400,0Zm6.7,119.6V92.5a28.5,28.5,0,0,1-13.4,0v27.1a53.3,53.3,0,0,1-46.2-46.3h27.1a28.4,28.4,0,0,1-.9-6.6,29.3,29.3,0,0,1,.9-6.7H347.1a53.3,53.3,0,0,1,105.8,0H425.8a29.3,29.3,0,0,1,.9,6.7,28.4,28.4,0,0,1-.9,6.6h27.1A53.3,53.3,0,0,1,406.7,119.6Z" fill="#6c207e"/></g><g id="target"><path d="M264.5,44.6S251,4.6,203.9,7.4a37,37,0,0,0-3.9-.8v95.5a15.8,15.8,0,0,0,4.4-4.8h46.7A28.3,28.3,0,0,0,277,80.6C281,71.4,280.6,58.9,264.5,44.6Z" fill="#fff"/><path d="M214.6,102.5l10,13.9c12.2-1,22.4-8.4,22.5-8.5l.9-.6,1-.3c3.3-.8,5.5-2.4,6.7-4.8a35.5,35.5,0,0,1-4.6.3Z" fill="#fff"/><path d="M116.6,37.4c-23.3,15.1-9.3,39.2-9.3,39.2,0,33.7,39.6,20.7,39.6,20.7a22.6,22.6,0,0,0,10.5,14.8c7.3,4.6,17.9,5.6,31.4-6.7a19.8,19.8,0,0,0,11.2-3.3V6.6C186.3,4.4,140.6.2,116.6,37.4Z" fill="#fff"/><path d="M204,12.6V7.4h0V2.1a21,21,0,0,0-3.9.4V13.2a17.5,17.5,0,0,1,4-.6Z" fill="#6c207e"/><path d="M267,94.3l-.9-5.3-5.8,1.2h-.5a22.2,22.2,0,0,1-8.7,1.8l-51.1,8L219.3,127H222c14.5,0,27.1-7.8,30.5-10.1a20.4,20.4,0,0,0,9.2-5.2,19.3,19.3,0,0,0,4.6-7.8A21.5,21.5,0,0,0,267,94.3ZM249,107l-1,.3-.9.6c-.1.1-10.3,7.5-22.5,8.5l-10-13.9h36.5a35.5,35.5,0,0,0,4.6-.3C254.5,104.6,252.3,106.2,249,107Z" fill="#6c207e"/><path d="M207.1,92.1h-5.7L200,94.5v23.8l1.7.7c3.5,1.3,7.3,6.5,8.8,9.4l2.6,4.9,16.4-10Z" fill="#6c207e"/><path d="M269,41.6a66.3,66.3,0,0,0-13.3-20.3A60.8,60.8,0,0,0,235.3,7.2a68.1,68.1,0,0,0-30.9-5.1L200,1.3V11.9l2.7.5.8.2h.8A59.4,59.4,0,0,1,231,16.7a50.7,50.7,0,0,1,16.8,11.6,54.8,54.8,0,0,1,11.8,18l.4,1.3,1,.9c6.6,5.9,10.7,11.7,12.2,17.4a18.3,18.3,0,0,1-1,12.6,23.1,23.1,0,0,1-21.1,13.6H201.4L200,94.5v13.7h0a.5.5,0,0,1,.4-.2h.1l.3-.2c.1,0,.2,0,.2-.1h.4l.2-.2.4-.2.4-.3h.2l.3-.2c.1-.1.2-.1.2-.2l.4-.2.2-.2.5-.4h.1l.4-.3.2-.2.3-.3.2-.2.5-.4h0l.5-.5.2-.2.3-.4h.2c0-.1,0-.1.1-.2h43.9a33.4,33.4,0,0,0,30.7-19.8C286,73.1,287.1,58.3,269,41.6Z" fill="#6c207e"/><path d="M199.9,94.7a11.2,11.2,0,0,1-6.6,4.9l-4.6,1.5v4.6l.2.8a20.1,20.1,0,0,0,2.5,5.2c2,3.1,5.5,5.1,8.6,6.6V94.7Z" fill="#f37b20"/><path d="M199.9,94.7a10.9,10.9,0,0,1-6.4,4.8,15.9,15.9,0,0,1-4.4.7H187l-1.7,1.5c-5.4,4.8-10.5,7.6-15.2,8.3a15.6,15.6,0,0,1-10-2.2A18,18,0,0,1,152,96.2l-1.2-5.7-5.5,1.8a53.6,53.6,0,0,1-10.4,2c-5,.5-11.9.4-16.6-3s-5.8-7.7-5.8-14.7V75.2l-.7-1.3a29.1,29.1,0,0,1-3.4-12,20.7,20.7,0,0,1,1.7-10,24.1,24.1,0,0,1,9.3-10.1l1-.6.6-.9a59.4,59.4,0,0,1,23.4-21.4,76.1,76.1,0,0,1,26.8-7.8,110.1,110.1,0,0,1,28.8.8V1.3A118.1,118.1,0,0,0,170.3.7a87.3,87.3,0,0,0-30.5,8.8,71.2,71.2,0,0,0-27,24.1,34.9,34.9,0,0,0-12.3,14.1A31.6,31.6,0,0,0,97.9,63,42.6,42.6,0,0,0,102,77.9a34.9,34.9,0,0,0,2.7,12.7,23.2,23.2,0,0,0,7.5,9.2c4.8,3.5,11,5.2,18.6,5.2l5.1-.2c2.8-.3,5.4-.8,7.5-1.2a28.8,28.8,0,0,0,11.2,13,25.6,25.6,0,0,0,13.4,3.9l3.5-.2c6.3-.9,12.9-4.1,19.4-9.7a26.2,26.2,0,0,0,9.1-2.4V94.7Z" fill="#f37b20"/><path d="M191.4,5.2a22.2,22.2,0,0,0-9,7.5,23.8,23.8,0,0,0-4.2,14.2h10.5a15.7,15.7,0,0,1,1-6,12.4,12.4,0,0,1,6-6.2l1-.4a18.2,18.2,0,0,1,3.3-1.1V2.5A30.8,30.8,0,0,0,191.4,5.2Z" fill="#f37b20"/><path d="M107.3,81.8V71.3h-.1a22.7,22.7,0,0,0,8.3-2c4.7-2.4,7-6.4,7-12.3H133a24.8,24.8,0,0,1-4.1,14.3,23.2,23.2,0,0,1-9.1,7.5A31.8,31.8,0,0,1,107.3,81.8Z" fill="#f37b20"/><path d="M199.9,94.7a10.9,10.9,0,0,1-6.4,4.8,15.9,15.9,0,0,1-4.4.7H187l-1.7,1.5c-5.4,4.8-10.5,7.6-15.2,8.3a15.6,15.6,0,0,1-10-2.2,17.8,17.8,0,0,1-8.2-12,18.3,18.3,0,0,1,3.6-14.4c5.4-6.9,14.2-11.8,26.4-14.5l4.4-1.1-.4-4.5a13.6,13.6,0,0,1,3-8.6c2.5-3,5.2-4.8,11.1-5.3h0l-.8-10.5c-8.8.7-13.9,3.8-18.3,9.1a23.4,23.4,0,0,0-5.2,11.6c-12.6,3.4-22.2,9.3-28.5,17.4a28.4,28.4,0,0,0,7.4,41.7,25.6,25.6,0,0,0,13.4,3.9l3.5-.2c6.3-.9,12.9-4.1,19.4-9.7a26.2,26.2,0,0,0,9.1-2.4V94.7Z" fill="#f37b20"/><circle cx="244" cy="63.9" r="44" fill="#fff"/><circle cx="244" cy="63.9" r="35.2" fill="#c31230"/><circle cx="244" cy="63.9" r="26.4" fill="#fff"/><circle cx="244" cy="63.9" r="17.6" fill="#c31230"/><circle cx="244" cy="63.9" r="8.8" fill="#fff"/></g><g id="eyes"><path d="M0,40.3s-21.6-2.1-41.3,26.4C-21.6,95.1,0,93,0,93s21.6,2.1,41.3-26.3C21.6,38.2,0,40.3,0,40.3Z" fill="#fff"/><path d="M48,74.3l5.1-7.6L48,59.1A76.7,76.7,0,0,0,30.2,41L40.9,30.3l-6.2-6.2L22.5,36.3A48.5,48.5,0,0,0,4.4,30.8V13.9H-4.4V30.8a47.4,47.4,0,0,0-18,5.5L-34.6,24.1l-6.2,6.2L-30.1,41A75.9,75.9,0,0,0-48,59.1l-5.1,7.6,5.1,7.6a76.5,76.5,0,0,0,17.9,18L-40.8,103l6.2,6.2,12.2-12.1a51.2,51.2,0,0,0,18,5.5v16.8H4.4V102.6A50.5,50.5,0,0,0,22.5,97l12.2,12.2,6.2-6.2L30.2,92.3A79.4,79.4,0,0,0,48,74.3ZM0,93s-21.6,2.1-41.3-26.3C-21.6,38.2,0,40.3,0,40.3s21.6-2.1,41.3,26.4C21.6,95.1,0,93,0,93Z" fill="#6c207e"/><circle cy="66.7" r="17.6" fill="#6c207e"/></g></svg>