<svg id="Layer_1" data-name="Layer 1" xmlns="http://www.w3.org/2000/svg" width="11in" height="8.5in" viewBox="0 0 792 612"><title>Artboard 1</title><rect width="792" height="612" fill="#fff"/><path d="M321.4,326.1a2,2,0,0,1-1.8-1.9l1.3-46.8-1.3-46.8a1.9,1.9,0,0,1,1.8-1.8h64.8a1.8,1.8,0,0,1,1.8,1.8v12.1a1.9,1.9,0,0,1-1.8,1.8H341.7l-1.1,22.4h41.6a1.9,1.9,0,0,1,1.8,1.8v12.1a1.9,1.9,0,0,1-1.8,1.8H340.6l1.1,27.7h45.6a1.9,1.9,0,0,1,1.8,1.9v12a1.9,1.9,0,0,1-1.8,1.9Z" fill="#231f20"/><path d="M402.3,326.1a1.9,1.9,0,0,1-1.8-1.9V308a1.8,1.8,0,0,1,1.8-1.8h18.1a1.9,1.9,0,0,1,1.8,1.8v16.2a2,2,0,0,1-1.8,1.9Z" fill="#231f20"/><path d="M472.3,292.3H455.5l.9,31.9a2,2,0,0,1-1.9,1.9H436.1a1.9,1.9,0,0,1-1.8-1.9l1.1-46.8-1.1-46.8a1.8,1.8,0,0,1,1.8-1.8h36.4c23.5,0,36.9,10.5,36.9,31.2S495.5,292.3,472.3,292.3Zm1-48.1H456.1l-.9,32.7h18.7c8.2,0,15.1-4.8,15.1-16.4S483.3,244.2,473.3,244.2Z" fill="#231f20"/><path d="M507.5,326.1a1.9,1.9,0,0,1-1.8-1.9V308a1.8,1.8,0,0,1,1.8-1.8h18.1a1.9,1.9,0,0,1,1.8,1.8v16.2a2,2,0,0,1-1.8,1.9Z" fill="#231f20"/><path d="M541.9,326.1a2,2,0,0,1-1.8-1.9l1.3-46.8-1.3-46.8a1.9,1.9,0,0,1,1.8-1.8h18.4a1.8,1.8,0,0,1,1.8,1.8l-1.3,46.8,1.3,46.8a1.9,1.9,0,0,1-1.8,1.9Z" fill="#231f20"/><path d="M576.8,326.1a2,2,0,0,1-1.8-1.9V308a1.9,1.9,0,0,1,1.8-1.8h18.1a1.8,1.8,0,0,1,1.8,1.8v16.2a1.9,1.9,0,0,1-1.8,1.9Z" fill="#231f20"/><path d="M648.5,328.1c-29.8,0-48.3-20.7-48.3-50.3s18.9-51.1,48.2-51.1c20.8,0,37.7,8.5,43.3,34a1.3,1.3,0,0,1-1.3,1.8H673.3a2.3,2.3,0,0,1-2.3-1.8c-2.7-11.4-10.4-17.7-22.9-17.7-16.9,0-26.1,13-26.1,34.7s9.4,34.2,26,34.2c13.5,0,20.7-7.1,23.5-20a2,2,0,0,1,2-1.8h17.6a1.3,1.3,0,0,1,1.3,1.8C687,318,671.2,328.1,648.5,328.1Z" fill="#231f20"/><path d="M699.9,326.1a1.9,1.9,0,0,1-1.8-1.9V308a1.8,1.8,0,0,1,1.8-1.8H718a1.8,1.8,0,0,1,1.8,1.8v16.2a1.9,1.9,0,0,1-1.8,1.9Z" fill="#231f20"/><path d="M297.1,230.9a2.1,2.1,0,0,0-2.1-2.1H245a2.1,2.1,0,0,1-2-1.3L231.7,200a2,2,0,0,0-2-1.4H139.6a2.2,2.2,0,0,0-2,1.4l-11.3,27.5a2.1,2.1,0,0,1-2,1.3H74.4a2.2,2.2,0,0,0-2.2,2.1V381.2a2.2,2.2,0,0,0,2.2,2.1h51.3l23.8-23.7H96V252.5h44.5l12.4-30.1h63.6l12.4,30.1h44.5V359.6H219.9l23.7,23.7H295a2.1,2.1,0,0,0,2.1-2.1Z" fill="#231f20"/><path d="M237.9,394.3l-11-11-23.8-23.7h0l18.4-18.5A53.3,53.3,0,0,0,238,303.5c.4-28.4-22.8-53-51.2-54.1a53.3,53.3,0,0,0-55.4,53.2,52.4,52.4,0,0,0,16.2,38.3l18.7,18.7h0l-23.8,23.7-11,11a2.1,2.1,0,0,0,0,3.1l15.4,15.4a2.2,2.2,0,0,0,3,0l29.4-29.5,5.4-5.3,5.3,5.3,29.4,29.5a2.3,2.3,0,0,0,3.1,0l15.4-15.4A2.3,2.3,0,0,0,237.9,394.3ZM166,322.4a26.8,26.8,0,0,1-8.6-20.4,27.3,27.3,0,0,1,54.5.6,26.9,26.9,0,0,1-8.6,19.9l-18.6,18.6Z" fill="#6c207e"/><path d="M369,377.7a3,3,0,0,1,1-2.1l1.6-1.3.7-.5c.2,3.8,2.8,5.8,7.8,5.8s8.5-1.3,13.7-3.7,6.2-3.4,7.5-5.2a2.7,2.7,0,0,0,.6-1.4,1.1,1.1,0,0,0-.2-.8l-26.3-5.9a7.6,7.6,0,0,1-2.2-1.1c-1.3-.9-1.9-1.8-1.9-2.5,0-2.9,2-5.6,6.2-7.9s10.6-4.6,18.3-5.9l3.8-.5,1.2.2,1.6.3c1.3.3,1.9.9,1.7,1.7s-2.8,2.5-8.3,3.4q-10.7,1.5-13.2,2.7a10.8,10.8,0,0,0-3.8,2.2,3.9,3.9,0,0,0-1.3,2.7c0,.2.5.4,1.5.7l3.5.9,5.2,1.4,19.3,5.5a6.5,6.5,0,0,1,.6,2.6c0,2.2-1.3,4.4-3.9,6.4s-7.1,4.3-12.3,5.9a38.6,38.6,0,0,1-10.4,2,15.8,15.8,0,0,1-6.1-1.2,17.8,17.8,0,0,1-4.4-2.2A2.8,2.8,0,0,1,369,377.7Z" fill="#6c207e"/><path d="M441.2,382.3c-.3.8-1.3,1.1-2.9,1.1s-2.4-.6-2.4-1.7c0-5-.1-8.4-.3-10.3-.4-4.1-1.2-6.2-2.4-6.5a39.6,39.6,0,0,0-7.4-.9,7,7,0,0,0-4.8,1.7,11.6,11.6,0,0,0-2.8,5.8,62,62,0,0,0-1.5,11.3h-4.8c0-2.4.1-4.7.1-6.7s-.1-4.6-.1-7.4-.2-6-.4-9.4-.3-7.1-.3-9.8a56.2,56.2,0,0,1,.5-7.4,2.2,2.2,0,0,1,1.9-1.2,3,3,0,0,1,2.3,1.1,3.4,3.4,0,0,1,.8,1.8l-.3,10.5a48,48,0,0,0,.6,8.8,21.2,21.2,0,0,1,11.8-3.8l4.2.3c3.1,1.6,5.2,3.4,6.2,5.3a10.1,10.1,0,0,1,.8,3.1,20.5,20.5,0,0,1,.3,3.7C440.6,376.5,440.9,380.1,441.2,382.3Z" fill="#6c207e"/><path d="M445.2,371.2a13.9,13.9,0,0,1,6.4-12,26.3,26.3,0,0,1,12.4-4.4h1.8a13.7,13.7,0,0,1,3.7.8,11.2,11.2,0,0,1,7.1,6.3,7.9,7.9,0,0,1,.7,3v1.7a14.8,14.8,0,0,1-6,12.5c-3.7,2.8-8.4,4.2-14,4.2-4,0-7-.9-9.1-2.8S445.2,375.5,445.2,371.2Zm4.3,1.5c0,2.6.7,4.4,2.1,5.3s2.9,1,5.4,1a32.4,32.4,0,0,0,6.5-.5,16.5,16.5,0,0,0,5.1-2c3.2-2,4.8-5.2,4.8-9.4a9,9,0,0,0-2.1-6.2,6.9,6.9,0,0,0-5.8-2.6l-5,.9a14.8,14.8,0,0,0-4.7,2C452.6,363.3,450.5,367.1,449.5,372.7Z" fill="#6c207e"/><path d="M504.1,365.7c-.9,3.1-1.7,6-2.3,8.6a62.6,62.6,0,0,1-1.8,6.5c-.9,2.5-2,3.8-3.1,3.8a3.7,3.7,0,0,1-2.2-.9c-1.9-2.1-4.7-6.7-8.2-13.8s-5.2-11.2-5.2-13,.2-1.2.7-1.4a2.2,2.2,0,0,1,1.6,0,5.6,5.6,0,0,1,3,1.9c.3.5.6,1.2,1.1,2.3l1.6,3.9c1.7,4.4,3.5,8.5,5.2,12.2a36.9,36.9,0,0,0,2.7-5.6l1.9-5.5c1.7-4.7,3.2-7.2,4.6-7.3s4.2,3.1,9.5,11.3c2.2,3.4,3.6,5.5,4.2,6.2s.8-1.3,1.3-3.8,1-4.7,1.4-6.5a35.1,35.1,0,0,1,1.5-4.9c1.4-3.5,3-5.3,4.8-5.3a1.5,1.5,0,0,1,1.3.6,2.2,2.2,0,0,1,.3,1v.6c-.5,1.4-1,3-1.6,4.9s-1.1,3.7-1.7,5.6l-1.8,5.7c-.7,1.9-1.3,3.6-1.9,5.1-1.3,3.3-2.5,5.1-3.4,5.3s-1.9-.5-3.5-2.4l-2.3-3.3-2.5-4Z" fill="#6c207e"/><path d="M558.1,376.5l5.1-1.9a13.5,13.5,0,0,1,4.7-.9c1.5,0,2.2.5,2.2,1.4a4.1,4.1,0,0,1-.1,1c-.1.4-.7,1-1.7,1.6a22.7,22.7,0,0,1-3.8,1.7,35.1,35.1,0,0,1-4.9,1.5l-5.2,1.2a36.7,36.7,0,0,1-7.5,1.1,20.6,20.6,0,0,1-4.8-.5,19.4,19.4,0,0,1-4.8-1.6c-3.4-1.8-5.1-4.4-5.1-7.9v-1.5a9.6,9.6,0,0,1,.9-3.3,17.6,17.6,0,0,1,2.9-4.2,27.8,27.8,0,0,1,4.4-3.9,28.5,28.5,0,0,1,11.2-4.9,16.4,16.4,0,0,1,3.4-.5h2.2l1.8.2a4.3,4.3,0,0,1,1.7.4,3.4,3.4,0,0,1,1.6,3.3q0,1.5-2.1,3l-1,.7a8.1,8.1,0,0,0-.9-2.5c-.3-.7-1-1-2.2-1a41.1,41.1,0,0,0-12.8,4.7c-4.1,2.4-6.1,5-6.1,7.6a3.8,3.8,0,0,0,.1,1c0,2.7,1,4.6,3.1,5.7a11.6,11.6,0,0,0,6,1.3,20.2,20.2,0,0,0,6.4-.9A41.4,41.4,0,0,0,558.1,376.5Z" fill="#6c207e"/><path d="M598.4,372.7a19.8,19.8,0,0,1-12.6,9.3l-3.4.3H580l-2.2-.3a5.3,5.3,0,0,1-2.2-.8,4.1,4.1,0,0,1-2.4-3.7,21.1,21.1,0,0,1-.2-2.6,16.2,16.2,0,0,1,.6-3.8,19.8,19.8,0,0,1,2.3-5,21.9,21.9,0,0,1,4.1-5,22.6,22.6,0,0,1,10.8-6.2,12.7,12.7,0,0,1,3.2-.4,9.7,9.7,0,0,1,2.5.2c2.5,0,4.1,1.6,5,5a43.6,43.6,0,0,1,1,8.8q.2,5.7.3,8.7a22.9,22.9,0,0,0,.8,5.6h-3.8c-.1-1.1-.3-2.1-.3-3l-.3-2.5A43.4,43.4,0,0,0,598.4,372.7Zm-.2-9.8c0-2.5-1.2-3.7-3.6-3.7h-.9c-3.1,0-6.3,1.4-9.8,4.4a22.5,22.5,0,0,0-4.1,4.6c-1.7,2.4-2.5,4.5-2.5,6.4s1.4,4,4.3,4.4,7.4-1.8,10.9-5.1a21.8,21.8,0,0,0,3.7-4.9A12.8,12.8,0,0,0,598.2,362.9Z" fill="#6c207e"/><path d="M628.2,366.9c4.6,0,7,1.2,7,3.5s-1.3,3.9-3.9,6.2-9,6.3-15.5,8.5c-.3,0-.6-.3-1-.9s-.6-1.1-.8-1.4l-.4-.6a42.6,42.6,0,0,0,11.9-5.8c2.2-1.5,3.2-2.8,3.2-3.8s-1.2-1.4-3.7-1.4a49.7,49.7,0,0,0-11,1.8,8.7,8.7,0,0,1-5.7-2.4,5.5,5.5,0,0,1-2.1-3.9,6.1,6.1,0,0,1,1.2-3.7,11,11,0,0,1,3-3.1,27.2,27.2,0,0,1,4.4-2.7,29.7,29.7,0,0,1,12.9-3,15.8,15.8,0,0,1,3.8.4,1.6,1.6,0,0,1,1.8,1.3,41.7,41.7,0,0,1,.2,4.4,20.7,20.7,0,0,0-8.4-1.7,18.4,18.4,0,0,0-9.6,2.3c-2.6,1.6-4,3.5-4.1,6s.9,1.8,2.6,1.8l4.6-.5A45.5,45.5,0,0,1,628.2,366.9Z" fill="#6c207e"/><path d="M652,378.8q5.6,0,16.8-5.1a1.4,1.4,0,0,1,1.1.5,1.6,1.6,0,0,1,.5,1.1c-1.7,2.9-4.9,5.1-9.7,6.7a23,23,0,0,1-13.4.8c-4.7-1.2-7.5-3.8-8.5-7.9a29.2,29.2,0,0,1-.1-3.2,18.9,18.9,0,0,1,1-5.4,18.3,18.3,0,0,1,3.6-6.3,18.8,18.8,0,0,1,5.9-4.6,15.5,15.5,0,0,1,7.3-1.8,16.9,16.9,0,0,1,8.2,2.6,12.5,12.5,0,0,1,3.5,2.7,5.1,5.1,0,0,1,1.2,3.1v.9a4.9,4.9,0,0,1-3.8,4.9,12.8,12.8,0,0,1-3.6.4l-9.2-.4a10.7,10.7,0,0,0-6.9,2,5.5,5.5,0,0,0-2,3.2C645,376.9,647.7,378.8,652,378.8Zm11.3-19.6a8.6,8.6,0,0,0-2.9-1.4,9.8,9.8,0,0,0-2.6-.5,12.7,12.7,0,0,0-3.3.7,20.8,20.8,0,0,0-4,1.5c-2.9,1.3-4.4,2.7-4.4,4.2,3.4.3,5.9.5,7.6.5,4.7,0,7.9-.4,9.5-1.2s1.5-1,1.5-1.6A2.7,2.7,0,0,0,663.3,359.2Z" fill="#6c207e"/></svg>