<svg height="1080" viewBox="0 0 1920 1080" width="1920" xmlns="http://www.w3.org/2000/svg"><circle cx="960" cy="540" fill="none" r="530.3" stroke="#bf965c" stroke-miterlimit="10" stroke-width="13.39"/><g fill="#bf965c"><path d="m938.8 65.2-1.3-1.4c2.6-2.4 3.1-3.8 3.1-11.4v-19.5l-6.5 4.8-1.3-1.8c5.3-5.3 12.8-12.9 16.3-16.7l1.4 1.1a8.3 8.3 0 0 0 -1 3.8l-.5 29.2c0 2.3-.1 4.4 1.6 6.1v.8c-3 .6-11 4.1-11.8 5z"/><path d="m973.6 61.1-.3.4a28.8 28.8 0 0 0 -10 3.6h-.5c-.1-14.6 7.1-25.4 14.4-34.1-3.8-.2-11-.9-14.8-.9-2 0-3.9.7-5.8 3.7l-1.4-.7a67.3 67.3 0 0 0 4.2-11.5c8.5 0 13.4 1.1 20.6 1.1 2.3 0 4.7-.5 5.8-1.4l1.4 1.5c-13.1 17.1-13.6 26.4-13.6 38.3z"/><path d="m1063 76-1-1.7c3.2-1.6 4-2.8 6-10.2s3.2-11.8 5-18.9l-7.4 3-.9-2 20.1-11.9 1.1 1.3a8.2 8.2 0 0 0 -2 3.4l-8 28.2c-.6 2.2-1.3 4.2 0 6.2l-.2.9c-3.1-.3-11.7 1-12.7 1.7z"/><path d="m1096.7 83c-10.5-3.8-15.8-10.1-14.1-16.4 1.3-4.6 5.4-6.4 9.1-6.9a8.5 8.5 0 0 1 -2.9-8.7c1.1-4.1 5.5-6.4 10.8-8.3l5.9-2.1c7.9 3.7 11.5 8.2 10.1 13.5-.9 3.6-4.1 5.6-8 6.2 3.8 2.9 7.1 5.5 5.7 10.7s-8.6 8.4-16.6 12zm-2-21.1c-1.5.2-2.7.7-3.4 3.4s1 6.4 11.1 11.5a4.4 4.4 0 0 0 2.9-3.4c.7-2.7-2.3-6.2-10.6-11.5zm5-15.6c-2.5.5-3.7 1.6-4.1 3.3s3.1 5.2 5.2 6.5l3.4 2.2a3.7 3.7 0 0 0 3.8-2.7c1.1-4.2-3.9-7.6-8.3-9.3z"/><path d="m1181.3 118.9-.4-1.8c3.5-.8 4.5-1.8 8.4-8.4s6.2-10.5 9.7-16.9l-7.9 1-.4-2.2c7.3-2 17.6-4.8 22.5-6.3l.7 1.6a8.2 8.2 0 0 0 -2.8 2.8l-15 25.1c-1.1 2-2.3 3.7-1.6 6l-.4.8c-2.9-1.1-11.6-2-12.8-1.7z"/><path d="m1200 130.1-.7-3.9h.3a19.1 19.1 0 0 0 4.6 1.5c8.8 1.5 16.4-1.6 21-7.5l-12.1 2.5c-5.4-5.1-8.1-11.5-4.4-18 2.9-4.9 7.6-6.5 14.7-7.3 4.1-.4 7.6-1 7.6-1 7.3 7.6 8.9 16.9 4.5 24.6-7.3 12.5-24 11.7-35.5 9.1zm22.4-29.8a4.3 4.3 0 0 0 -3.9 2.2c-2.8 4.8-3.1 11.3 2.9 16.3l5.3-.9c3.5-6 .1-13.4-4.3-17.6z"/><path d="m1295.4 201.7a46.4 46.4 0 0 0 -8.9-11.7 30.1 30.1 0 0 0 -10.2-7.2v-1.7c5.7-3.3 12.9-3.5 19.1-2.7 7.8 1 13 .7 16.1-2.3s3.2-7.5-.8-11.6c-2.1-2.1-5.6-2.5-7.4-.7s-2 5 .1 8.3l-.2.2-9.3-.7a8 8 0 0 1 1.5-9.3c4.8-4.8 18.3-2.5 22.4 1.6 6.2 6.2 6.7 12.9 1.5 18.1s-10.2 3.7-16.2 2.2-9.6-2.2-14.4-1.7a52.5 52.5 0 0 1 8.7 6.6 38.2 38.2 0 0 1 7.4 9.8 38.5 38.5 0 0 0 -9.4 2.8z"/><path d="m1316.3 218.4-4.6-.3c-6.1-8.5-4.1-18.8 2.7-25.7s15.5-6.3 25-5.3l2.7.4c5.4 9.3 3.5 18.3-2.9 24.7s-13.2 7-22.9 6.2zm17.7-28c-3.7-.2-7.4 1.1-12 5.7s-5.9 10.8-2.7 18.6c3.8.3 7.2-1 10.8-4.6 6.3-6.3 7-11.6 3.9-19.7z"/><path d="m1372.9 301.1a44.6 44.6 0 0 0 -5.5-13.5 28.9 28.9 0 0 0 -8-9.6l.5-1.7c6.4-1.7 13.4 0 19.2 2.4 7.3 3 12.4 4.1 16.1 1.9s5.1-6.4 2.3-11.4c-1.5-2.6-4.8-3.9-7-2.6s-3.3 4.3-2 8.1h-.3l-8.8-3.1c-.9-3.3 1.1-7 3.9-8.6 5.9-3.4 18.3 2.3 21.2 7.4 4.4 7.6 3.1 14.2-3.2 17.8s-10.9 1-16.3-2.1-8.7-4.5-13.4-5.3a51.6 51.6 0 0 1 6.6 8.6 35.7 35.7 0 0 1 4.6 11.4 41.1 41.1 0 0 0 -9.9.3z"/><path d="m1377.2 312.7.5-1.8c3.4 1.1 4.8.8 11.5-3.1l16.9-9.7-7.5-3.1.9-2.1 22.6 5.8-.2 1.7a8.2 8.2 0 0 0 -3.8 1l-25.5 14.3c-2 1.1-3.9 2-4.5 4.4l-.7.4c-2-2.3-9.1-7.5-10.2-7.8z"/><path d="m1419.1 410.8a45.4 45.4 0 0 0 -1.9-14.5 29.8 29.8 0 0 0 -5.2-11.3l.9-1.5c6.6 0 12.9 3.4 17.9 7.2s10.9 7.2 15.1 6.1 6.6-4.9 5.1-10.5c-.8-2.8-3.6-5-6-4.3s-4.3 3.3-4.1 7.3h-.3l-7.7-5.2c0-3.5 2.9-6.5 6-7.3 6.5-1.8 17 6.9 18.6 12.6 2.2 8.5-.7 14.5-7.8 16.4s-10.7-1.9-15.1-6.2-7.2-6.7-11.6-8.7a53.7 53.7 0 0 1 4.2 10c1.3 5.2 1.8 9.6 1.5 12.2a46.3 46.3 0 0 0 -9.6-2.3z"/><path d="m1428 444.2a48.9 48.9 0 0 0 -1.8-14.6 29.8 29.8 0 0 0 -5.3-11.3l.9-1.4c6.6-.1 13 3.4 18 7.2s10.9 7.1 15 6 6.6-4.9 5.1-10.4c-.7-2.9-3.5-5-6-4.3s-4.3 3.3-4.1 7.2h-.3l-7.7-5.2a8.4 8.4 0 0 1 6-7.4c6.6-1.7 17.1 7 18.6 12.7 2.3 8.4-.7 14.5-7.7 16.4s-10.8-2-15.2-6.3-7.2-6.7-11.6-8.6a53.7 53.7 0 0 1 4.2 10 35.7 35.7 0 0 1 1.5 12.2 39.5 39.5 0 0 0 -9.6-2.2z"/><path d="m1438.2 535.5a44.8 44.8 0 0 0 2-14.5 31 31 0 0 0 -2.1-12.3l1.2-1.1c6.4 1.7 11.7 6.6 15.5 11.6s8.7 9.7 12.9 9.7 7.7-3 7.7-8.7c0-3-2.1-5.8-4.7-5.8s-5 2.1-5.8 6h-.3l-6.1-7.1c.9-3.3 4.5-5.5 7.7-5.5 6.8 0 14.7 11.1 14.7 17 0 8.8-4.5 13.8-11.8 13.8s-9.8-4.6-13-9.9-5.2-8.3-9-11.3a49.1 49.1 0 0 1 1.5 10.7c0 5.3-.7 9.7-1.7 12.2a41 41 0 0 0 -8.7-4.8z"/><path d="m1435.3 545.3 3.1-2.9h.1c.9 10.5 8 20.1 15.6 20.1 3.6 0 5.5-2.6 5.5-6.8a15.9 15.9 0 0 0 -.3-2.9l1.2-.9c5.3 5.2 8.5 8.4 10.5 10.1 0-3.7.8-10 .8-12.3a8.5 8.5 0 0 0 -3.8-6.7l.7-1.4a75.2 75.2 0 0 0 11.4 4.5 144.3 144.3 0 0 0 -1.1 17.4 38.4 38.4 0 0 0 .7 7.6l-1.5.9c-4.6-4-8.6-7.5-11.3-9.7-.8 4.3-3.1 10-10.3 10-9.9.1-18.5-12.7-21.3-27z"/><path d="m1421.4 661.1a44.1 44.1 0 0 0 5.7-13.5 29.8 29.8 0 0 0 1.1-12.4l1.5-.8c5.8 3.3 9.6 9.4 12 15.2s5.8 11.7 10 12.8 8.1-1 9.6-6.5c.8-2.9-.5-6.1-3-6.8s-5.4.8-7.2 4.3h-.3l-4.1-8.4a8.1 8.1 0 0 1 8.9-3.3c6.6 1.7 11.3 14.5 9.8 20.2-2.3 8.4-7.9 12.2-14.9 10.3s-8.3-7-10-13-2.9-9.3-5.8-13.2a44.9 44.9 0 0 1 -1.3 10.7c-1.4 5.2-3.2 9.2-4.8 11.3a46.4 46.4 0 0 0 -7.2-6.9z"/><path d="m1423.3 696.9 1.1-4-3.5-.9a4.6 4.6 0 0 0 -4.2.6l-.7-.2c.2-2.9-.8-9.5-1.8-12.9l1.5-.8c1.4 2.5 2.5 3.8 4.6 4.4l6.1 1.8 4-15 3-.8 22.8 31.4-1 1.5a28.1 28.1 0 0 0 -6.3-2.3l-17.7-4.8-.7 2.6a5 5 0 0 0 .5 4.5l-.8.8zm21-7.2h.1l-8.4-11.4-2.5 8.7z"/><path d="m1374.5 772.8 1.9-.5c.7 3.5 1.7 4.6 8.3 8.4s10.6 6.2 16.9 9.7l-1-7.9 2.2-.4c2 7.3 4.8 17.6 6.3 22.6l-1.6.7a7.5 7.5 0 0 0 -2.8-2.9l-25.1-15c-1.9-1.1-3.7-2.3-6-1.6l-.8-.4c1.1-2.9 2-11.6 1.7-12.7z"/><path d="m1288.3 886.1a46.4 46.4 0 0 0 11.7-8.9 30.1 30.1 0 0 0 7.2-10.2h1.7c3.3 5.7 3.6 12.9 2.7 19.1-1 7.8-.7 13.1 2.3 16.1s7.6 3.3 11.6-.8c2.1-2.1 2.6-5.6.7-7.4s-5-2-8.3.1l-.2-.2.7-9.3a8.2 8.2 0 0 1 9.4 1.5c4.8 4.8 2.5 18.3-1.7 22.4-6.2 6.2-12.9 6.7-18.1 1.5s-3.7-10.2-2.2-16.2 2.2-9.6 1.7-14.4a52.5 52.5 0 0 1 -6.6 8.7 39.9 39.9 0 0 1 -9.7 7.4 43.6 43.6 0 0 0 -2.9-9.4z"/><path d="m1206.3 947 4 1.3v.2c-8.6 6-13.4 16.9-9.6 23.5 1.8 3.1 5 3.5 8.7 1.4a15 15 0 0 0 2.3-1.7l1.3.5c-1.8 7.2-2.9 11.6-3.4 14.2 3.1-1.8 9-4.3 11-5.4s3.7-4.7 4-6.7h1.5c.5 4.5 1 9.5 1.8 12.2a138.7 138.7 0 0 0 -15.6 7.7 34.6 34.6 0 0 0 -6.2 4.4l-1.6-.8c1.2-6.1 2.2-11.3 2.7-14.7-4 1.5-10.2 2.3-13.8-3.9-4.9-8.7 1.9-22.6 12.9-32.2z"/><path d="m1075.3 1014.8 4.1-1.1-.9-3.4a5.4 5.4 0 0 0 -2.7-3.4l-.2-.6a53.1 53.1 0 0 0 10.3-8l1.5.8c-1.5 2.4-2.1 4.1-1.6 6.3l1.5 6.1 15-4.1 2.2 2.3-15.8 35.4h-1.8a25.8 25.8 0 0 0 -1.1-6.6l-4.7-17.7-2.6.7c-2 .5-2.9 1.1-3.7 2.6l-1.1-.3c.6-3.3 1.4-7.2 1.6-9zm16.8 14.6h.2l5.7-12.9-8.9 2.2z"/><path d="m949 1050.5c5.5 0 11.1 1.2 15.9 2.2.6-1.6 1.4-3.5 2-5.5a27.4 27.4 0 0 1 -6.8.8c-7.5 0-14.3-3.5-14.3-11.1 0-12.8 18.1-19.6 26.7-21.4l3.1 3-.2.3c-14.7 1.9-19.9 10.2-19.9 15.3 0 3.3 2.3 5.6 7.3 5.6a21 21 0 0 0 9.6-2.4l2.7 1.5a169.6 169.6 0 0 0 -8.8 21.9l-.6.2a79.9 79.9 0 0 0 -14.9-1.8c-1.8 0-4-.1-6.1.1l-.3-.2a95.2 95.2 0 0 0 4.6-8.5z"/><path d="m829.9 1003 7.2-2.8c9 5.5 12.9 14.3 10.6 22.5-3.8 14.2-20 17.1-31.7 17.5l-1.7-3.6.3-.2a14.5 14.5 0 0 0 4.8.2c8.8-.7 15.4-5.2 18.2-11.9-3.9 1.9-8.3 4.1-11 5.6-6.6-3.6-11.1-8.2-8.9-16.4 1.5-5.5 5.6-8.3 12.2-10.9zm3.6 21.2 5-2.3c1.6-6.6-3.8-13-8.9-16.2a4.9 4.9 0 0 0 -3 3.4c-1.5 5.6-.2 11.8 6.9 15.1z"/><path d="m718.5 954.9.3-.2a27.3 27.3 0 0 0 10.5 1.9l.4.4c-7.2 12.7-18.8 18.4-29.5 22.3 3.1 2 9 6.3 12.3 8.1 1.7 1 3.7 1.4 6.9-.2l.8 1.3a74.9 74.9 0 0 0 -9.4 7.8c-7.3-4.2-11-7.6-17.3-11.2-2-1.2-4.3-1.9-5.6-1.7l-.6-2.1c20-8.3 25.2-16 31.2-26.4z"/><path d="m621.2 875.3c7.3 8.5 8.7 16.6 4.1 21.2s-7.9 2.9-11.3 1.5a8.5 8.5 0 0 1 -1.9 9c-3 3-8 2.8-13.5 1.8l-6.1-1.2c-5-7.2-5.9-12.9-2.1-16.7s6.4-2.9 10.1-1.4c-1.9-4.4-3.5-8.3.4-12.1s11.6-2.9 20.3-2.1zm-8.8 19.3c1.4.5 2.7.7 4.7-1.2s2.3-6.1-3.9-15.6a4.7 4.7 0 0 0 -4.2 1.5c-1.9 2-1.1 6.6 3.4 15.3zm-12 11c2.3.8 3.9.5 5.1-.8s-.1-6.1-1.2-8.3-1.3-2.5-1.9-3.5a3.6 3.6 0 0 0 -4.6.4c-3.1 3-.4 8.5 2.6 12.2z"/><path d="m552 784.9-1.3 3.7h-.4a17.2 17.2 0 0 0 -3.2-3.7c-6.9-5.7-15-6.8-21.9-4l11.7 3.8c2.2 7.2 1.3 14.1-5.2 17.8-4.9 2.9-9.9 1.9-16.4-1l-7.1-2.9c-2.4-10.2.8-19.1 8.4-23.5 12.7-7.2 26.8 1.8 35.4 9.8zm-34.3 14.7a4.5 4.5 0 0 0 4.5.1c4.8-2.8 8.3-8.4 5.7-15.7l-5.1-1.9c-6 3.5-6.8 11.6-5.1 17.5z"/><path d="m506.3 682.3-1 1.6c-3-1.9-4.4-2-11.8 0l-18.9 5 6.4 5-1.4 1.8-20.3-11.5.6-1.6a7.6 7.6 0 0 0 4 0l28.3-7.1c2.2-.6 4.3-1 5.4-3.2l.9-.2c1.3 2.8 6.7 9.6 7.8 10.2z"/><path d="m492 648.5 3.8 2.6c1 10.4-5.8 18.3-15.2 20.8s-16.5-2.2-24.3-7.9l-2.1-1.7c0-10.7 6.1-17.5 14.8-19.9 10.3-2.7 14.9.5 23 6.1zm-29.3 15.4c3 2 6.9 2.7 13.1 1.1s10.7-6.4 11.7-14.8c-3.2-2.1-6.7-2.7-11.7-1.4-8.6 2.3-11.8 6.5-13.1 15.1z"/><path d="m484.8 553.4-1.4 1.3c-2.4-2.6-3.8-3.1-11.5-3.1h-19.5l4.9 6.4-1.8 1.4c-5.4-5.3-12.9-12.8-16.7-16.3l1-1.4a9.2 9.2 0 0 0 3.9 1l29.2.5c2.3 0 4.4.1 6-1.7h.9c.5 3.1 4.1 11.1 5 11.9z"/><path d="m484.8 532.4-1.4 1.3c-2.4-2.6-3.8-3.1-11.5-3.1h-19.5l4.9 6.5-1.8 1.4c-5.4-5.4-12.9-12.9-16.7-16.4l1-1.4a9.2 9.2 0 0 0 3.9 1l29.2.5c2.3 0 4.4.1 6-1.6h.9c.5 3 4.1 11 5 11.8z"/><path d="m495.6 438.2-1.7.9c-1.6-3.2-2.8-4-10.2-6l-18.9-5 3.1 7.4-2.1.9c-3.8-6.5-9.2-15.7-11.9-20.1l1.3-1.1a7.2 7.2 0 0 0 3.5 2l28.1 8c2.2.6 4.2 1.3 6.3 0l.8.2c-.3 3.1 1.1 11.8 1.7 12.8z"/><path d="m505 394.9a46.7 46.7 0 0 0 -5.7 13.5 29.8 29.8 0 0 0 -1.1 12.4l-1.5.8c-5.8-3.3-9.5-9.4-11.9-15.2s-5.9-11.7-10-12.8-8.2 1-9.7 6.5c-.8 2.8.6 6.1 3.1 6.8s5.4-.8 7.1-4.3h.3l4.1 8.4a8.1 8.1 0 0 1 -8.9 3.3c-6.6-1.7-11.3-14.5-9.8-20.2 2.3-8.5 7.9-12.2 14.9-10.3s8.4 7 10 12.9 2.9 9.4 5.8 13.3a50.7 50.7 0 0 1 1.3-10.7 37.6 37.6 0 0 1 4.8-11.3 46.4 46.4 0 0 0 7.2 6.9z"/><path d="m538.6 320-1.9.5c-.7-3.5-1.7-4.6-8.3-8.4l-16.9-9.8 1 8-2.3.3c-2-7.2-4.8-17.5-6.3-22.5l1.6-.7a8.2 8.2 0 0 0 2.8 2.8l25.1 15c2 1.2 3.8 2.4 6.1 1.6l.7.5c-1 2.9-2 11.6-1.6 12.7z"/><path d="m548.3 304.9-4.1.9h-.1c4.5-9.6 3.1-21.4-3.4-25.2-3.2-1.8-6.2-.6-8.3 3.1a12.7 12.7 0 0 0 -1.1 2.6l-1.5.2c-2-7.1-3.2-11.5-4-14-1.9 3.2-5.7 8.3-6.9 10.2s-.8 5.9-.1 7.8l-1.3.9c-2.6-3.7-5.6-7.8-7.6-9.7a151.1 151.1 0 0 0 9.7-14.5 47.7 47.7 0 0 0 3.2-6.9h1.7c2 5.8 3.7 10.8 5 14.1 2.8-3.3 7.7-7.1 13.9-3.5 8.6 4.7 9.6 20.2 4.9 34z"/><path d="m609 219.2h-1.9c.2-3.5-.4-4.8-5.9-10.2s-8.6-8.7-13.8-13.8l-1.1 7.9-2.2-.2c0-7.6-.1-18.3-.3-23.4l1.8-.3a8.1 8.1 0 0 0 1.9 3.5l20.4 21c1.6 1.6 3 3.2 5.4 3.1l.6.6c-1.7 2.4-4.9 10.6-4.9 11.8z"/><path d="m630.3 179.3-3 3 2.5 2.5a5.5 5.5 0 0 0 4 1.6l.5.4a51 51 0 0 0 -4.9 12.1h-1.7c.1-2.8-.3-4.6-1.8-6.2l-4.4-4.6-10.9 11.1-3-.9-4-38.5 1.6-.8a29 29 0 0 0 4.3 5.1l12.9 13 1.9-1.9c1.5-1.5 1.9-2.4 1.8-4.1l1.2-.4c1 3.2 2.3 6.9 3 8.6zm-21.9-4.3h-.1l1.6 14.1 6.5-6.4z"/><path d="m816.6 86.7-1.7-1.1c2-2.9 2-4.4 0-11.8s-3-11.8-5-18.8l-4.9 6.3-1.8-1.3c3.7-6.6 9-15.9 11.4-20.4l1.6.6a8.8 8.8 0 0 0 0 4l7.2 28.3c.6 2.3 1 4.4 3.1 5.5l.2.8c-2.8 1.3-9.6 6.8-10.1 7.9z"/><path d="m853.4 70.1-4.8 6.1c-10.5-.3-18.3-6-20.5-14.2-3.8-14.2 8.8-24.8 18.7-31l3.3 2.3v.2a16.6 16.6 0 0 0 -4.3 2.3c-7.3 5-10.7 12.2-9.8 19.4 2.4-3.6 5.1-7.7 6.7-10.3 7.5-.3 13.7 1.5 15.9 9.7 1.4 5.5-.8 10-5.2 15.5zm-13.7-16.5-3.2 4.5c1.9 6.5 9.8 9.4 15.8 9.5a4.4 4.4 0 0 0 .9-4.3c-1.5-5.7-5.7-10.4-13.5-9.7z"/><path d="m705 138-1.9-.5c1.1-3.4.8-4.8-3-11.4s-6-10.7-9.8-16.9l-3.1 7.4-2.1-.9c1.9-7.3 4.6-17.6 5.8-22.6l1.8.2a6.9 6.9 0 0 0 1 3.8l14.2 25.6c1.2 1.9 2.1 3.9 4.4 4.4l.5.7c-2.4 2-7.6 9.1-7.8 10.2z"/><path d="m724.4 87.4a83.6 83.6 0 0 1 -14.8 6c.3 1.7.6 3.7 1 5.7a30.2 30.2 0 0 1 5.5-4c6.5-3.8 14.1-4.2 18 2.4 6.3 11.1-5.9 26.1-12.5 31.9l-4.2-1.1v-.3c11.9-9 12.2-18.8 9.6-23.2-1.7-2.9-4.8-3.7-9.1-1.2a21.6 21.6 0 0 0 -7.2 6.9h-3a175.6 175.6 0 0 0 -3.3-23.4l.3-.4a84 84 0 0 0 13.9-5.9 43.1 43.1 0 0 0 5.2-3.2h.4a86.3 86.3 0 0 0 .2 9.8z"/></g><circle cx="960" cy="540" fill="none" r="466" stroke="#bf965c" stroke-miterlimit="10" stroke-width="13.39"/><circle cx="960" cy="540" fill="#f3eec7" r="433.9" stroke="#bf965c" stroke-miterlimit="10" stroke-width="13.39"/><path d="m960 973.9c160.6 0 300.7-87.2 375.8-216.9-75-129.7-215.3-217-375.9-217s-300.7 87.2-375.8 216.9c75 129.7 215.3 217 375.9 217z" fill="#df4b4b" stroke="#bf965c" stroke-miterlimit="10" stroke-width="13.39"/><path d="m529.8 596.6s135.2-135.6 430.1-56.6" fill="none" stroke="#bf965c" stroke-miterlimit="10" stroke-width="13.39"/><path d="m529.8 483.4s165.7-96.1 430.1 56.6" fill="none" stroke="#bf965c" stroke-miterlimit="10" stroke-width="13.39"/><path d="m559.1 374s185-49.9 400.8 166" fill="none" stroke="#bf965c" stroke-miterlimit="10" stroke-width="13.39"/><path d="m615.8 275.9s191.5-.4 344.1 264.1" fill="none" stroke="#bf965c" stroke-miterlimit="10" stroke-width="13.39"/><path d="m695.9 195.8s185.1 49.2 264 344.2" fill="none" stroke="#bf965c" stroke-miterlimit="10" stroke-width="13.39"/><path d="m794 139.1s166 95.6 165.9 400.9" fill="none" stroke="#bf965c" stroke-miterlimit="10" stroke-width="13.39"/><path d="m1390.2 596.6s-135.2-135.6-430.1-56.6" fill="none" stroke="#bf965c" stroke-miterlimit="10" stroke-width="13.39"/><path d="m1390.2 483.4s-165.7-96.1-430.1 56.6" fill="none" stroke="#bf965c" stroke-miterlimit="10" stroke-width="13.39"/><path d="m1360.9 374s-185-49.9-400.8 166" fill="none" stroke="#bf965c" stroke-miterlimit="10" stroke-width="13.39"/><path d="m1304.2 275.9s-191.5-.4-344.1 264.1" fill="none" stroke="#bf965c" stroke-miterlimit="10" stroke-width="13.39"/><path d="m1224.1 195.8s-185.1 49.2-264 344.2" fill="none" stroke="#bf965c" stroke-miterlimit="10" stroke-width="13.39"/><path d="m1126 139.1s-166 95.6-165.9 400.9" fill="none" stroke="#bf965c" stroke-miterlimit="10" stroke-width="13.39"/><circle cx="960" cy="740.9" fill="#093254" r="200.9"/><circle cx="960" cy="540" fill="none" r="305.3" stroke="#bf965c" stroke-miterlimit="10" stroke-width="13.39"/><path d="m960 106.1v433.9" fill="none" stroke="#bf965c" stroke-miterlimit="10" stroke-width="13.39"/><circle cx="960" cy="540" fill="#f3eec7" r="176.8" stroke="#bf965c" stroke-miterlimit="10" stroke-width="13.39"/><path d="m597.5 545.8-.9-1c1.9-1.6 2.2-2.6 2.2-8v-13.6l-4.5 3.4-1-1.3c3.7-3.7 9-9 11.4-11.7l1 .8a5.4 5.4 0 0 0 -.7 2.6l-.3 20.5c0 1.6-.1 3.1 1.1 4.2v.6a35 35 0 0 0 -8.3 3.5z" fill="#093254"/><path d="m617.9 442.5a35.1 35.1 0 0 0 -10.1-1.4 21.4 21.4 0 0 0 -8.6 1.5l-.9-.8c1.2-4.5 4.7-8.2 8.2-10.9s6.8-6 6.8-9-2.1-5.4-6.2-5.4c-2 0-4 1.5-4 3.3s1.5 3.5 4.2 4.1v.2l-4.9 4.3a5.8 5.8 0 0 1 -3.9-5.5c0-4.7 7.8-10.2 11.9-10.2 6.1 0 9.7 3.1 9.7 8.2s-3.3 6.9-7 9.1a30.5 30.5 0 0 0 -7.9 6.3 36.9 36.9 0 0 1 7.5-1 28.1 28.1 0 0 1 8.5 1.1 36 36 0 0 0 -3.3 6.1z" fill="#093254"/><path d="m653.1 345.8-2-2.2c7.4-.6 14.1-5.5 14.1-10.8 0-2.6-1.8-4-4.8-4l-2 .3-.6-.8 7.1-7.4c-2.6 0-7-.6-8.6-.6a6.2 6.2 0 0 0 -4.8 2.7l-1-.5a44 44 0 0 0 3.2-8 105.4 105.4 0 0 0 12.2.8 30.7 30.7 0 0 0 5.3-.5l.7 1.1c-2.9 3.2-5.3 6-6.8 7.9 3 .5 7 2.2 7 7.2 0 6.8-9 12.8-19 14.8z" fill="#093254"/><path d="m736.6 260.9h-2.9v2.5a4 4 0 0 0 1.1 2.8v.4a39.3 39.3 0 0 0 -8.4 3.6l-.8-.8a5.6 5.6 0 0 0 2.2-4v-4.4h-10.8l-1-1.9 17-21.1 1.2.4a21.1 21.1 0 0 0 -.4 4.7v12.8h1.9a3.5 3.5 0 0 0 2.9-1.1l.7.4c-1 2-2.2 4.5-2.7 5.7zm-8.7-12.9h-.1l-6.2 7.7h6.4z" fill="#093254"/><path d="m820.1 196.5a56 56 0 0 1 -11.1-1.6 35.4 35.4 0 0 0 -1.4 3.9 17.3 17.3 0 0 1 4.7-.6c5.3 0 10 2.5 10 7.8 0 8.9-12.6 13.7-18.7 15l-2.1-2.1v-.3c10.3-1.2 13.9-7.1 13.9-10.7s-1.6-3.9-5.1-3.9a15.8 15.8 0 0 0 -6.7 1.7l-1.9-1a110 110 0 0 0 6.2-15.4h.4a58 58 0 0 0 10.4 1.3h4.5c-.6 1-2 3.6-3.1 5.9z" fill="#093254"/><path d="m933.6 183.9-4.3 3.2c-7.1-2-11.3-7.3-11.3-13.3 0-10.2 10.5-15.1 18.3-17.5l1.8 2.1v.2a11.5 11.5 0 0 0 -3.3.7c-5.9 2.1-9.5 6.3-10.2 11.4 2.3-2 4.9-4.3 6.4-5.8 5.1 1.2 9 3.5 9 9.5-.1 3.9-2.4 6.6-6.4 9.5zm-6.2-13.6-3 2.5c.1 4.7 5 8.1 9 9.2a3.5 3.5 0 0 0 1.4-2.7c0-4.1-2-8.1-7.4-9z" fill="#093254"/><path d="m1043.7 191.3-.2.2a22.2 22.2 0 0 0 -7 2.6h-.4c-.1-10.2 5-17.8 10.1-23.9-2.7-.2-7.7-.7-10.3-.7s-2.8.5-4.1 2.6l-1-.5a61.2 61.2 0 0 0 3-8c5.9 0 9.3.7 14.4.7a7.2 7.2 0 0 0 4-.9l1 1c-9.1 12-9.5 18.5-9.5 26.9z" fill="#093254"/><path d="m1127.7 225.9c-7.8-.7-12.5-4-12.5-8.5s2.5-5.4 4.8-6.4a5.9 5.9 0 0 1 -3.5-5.3c0-3 2.6-5.4 5.8-7.6l3.6-2.4c6.1 1 9.4 3.4 9.4 7.2s-1.8 4.6-4.3 5.7c3.1 1.2 5.7 2.4 5.7 6.2s-4.3 7.2-9 11.1zm-5.2-13.9c-1 .4-1.7 1-1.7 2.9s1.9 4.2 9.6 5.7a2.9 2.9 0 0 0 1.3-2.8c0-1.9-2.6-3.7-9.2-5.8zm.5-11.4a3.1 3.1 0 0 0 -2.1 2.9c0 1.9 3.1 3 4.7 3.5l2.6.8a2.7 2.7 0 0 0 2.2-2.5c0-3-4.1-4.4-7.4-4.7z" fill="#093254"/><path d="m1198.6 278.2-1.9-2.1.2-.2a9.8 9.8 0 0 0 3.3-.8c5.9-2.1 9.4-6.7 10.1-11.8l-6.4 5.8c-5.1-1.2-9-4.2-9-9.4s2.3-6.7 6.3-9.6l4.3-3.2c7.1 2 11.3 7.1 11.3 13.2 0 10.3-10.4 15.7-18.2 18.1zm3-25.9a3 3 0 0 0 -1.6 2.6 8.7 8.7 0 0 0 7.5 9l3-2.5c0-4.8-4.7-8.1-8.9-9.1z" fill="#093254"/><path d="m1254.6 342.9-1-1c1.9-1.7 2.2-2.6 2.2-8v-13.6l-4.5 3.4-1-1.3 11.5-11.7.9.7a5.9 5.9 0 0 0 -.7 2.7l-.3 20.5c0 1.6-.1 3.1 1.1 4.2v.6c-2.1.4-7.7 2.9-8.2 3.5z" fill="#093254"/><path d="m1280 339.3a30.4 30.4 0 0 1 -2.5 2.1c-7.2-1.2-11.3-7.2-11.3-14s4.5-10.8 9.7-15l1.6-1.2c7.2 2 10.8 7.4 10.8 13.7s-3.1 10-8.3 14.4zm-5.1-22.6c-2 1.7-3.1 4.2-3.1 8.7s2.4 8.4 7.8 10.6c2.1-1.8 3.1-4.1 3.1-7.7 0-6.2-2.3-9.1-7.8-11.6z" fill="#093254"/><path d="m1303.6 451.1-1-1c1.9-1.7 2.2-2.6 2.2-8v-13.7l-4.5 3.4-1-1.2 11.5-11.7.9.7a5.9 5.9 0 0 0 -.7 2.7l-.3 20.5c0 1.6-.1 3.1 1.1 4.2v.6c-2.1.4-7.7 2.8-8.2 3.5z" fill="#093254"/><path d="m1318.2 451.1-.9-1c1.9-1.7 2.2-2.6 2.2-8v-13.7l-4.5 3.4-1-1.2 11.5-11.7.9.7a5.9 5.9 0 0 0 -.7 2.7l-.3 20.5c0 1.6-.1 3.1 1.1 4.2v.6c-2.1.4-7.7 2.8-8.3 3.5z" fill="#093254"/><path d="m1318.1 546.8-.9-1c1.8-1.7 2.2-2.6 2.2-8v-13.7l-4.5 3.4-1-1.2c3.7-3.8 9-9.1 11.4-11.7l1 .7a5.9 5.9 0 0 0 -.7 2.7l-.3 20.5c0 1.6-.1 3.1 1.1 4.2v.6c-2.1.4-7.7 2.8-8.3 3.5z" fill="#093254"/><path d="m1349.1 545.3a32.1 32.1 0 0 0 -10.2-1.4 20.4 20.4 0 0 0 -8.6 1.5l-.8-.9c1.2-4.5 4.6-8.2 8.1-10.8s6.8-6.1 6.8-9.1-2.1-5.4-6.1-5.4c-2 0-4 1.5-4 3.3s1.5 3.5 4.2 4.1v.2l-5 4.3a5.8 5.8 0 0 1 -3.8-5.4c0-4.8 7.7-10.3 11.9-10.3 6.1 0 9.7 3.1 9.7 8.2s-3.3 6.9-7 9.1a30.5 30.5 0 0 0 -7.9 6.3 36.9 36.9 0 0 1 7.5-1 24.8 24.8 0 0 1 8.5 1.2 27.6 27.6 0 0 0 -3.3 6.1z" fill="#093254"/><path d="m967.5 119.2a17.5 17.5 0 0 0 4-6 18.7 18.7 0 0 0 0-14.2 19.7 19.7 0 0 0 -4-6 20.5 20.5 0 0 0 -6.1-4.1 18.8 18.8 0 0 0 -7.2-1.3 35.5 35.5 0 0 0 -7.1 1.4 20.6 20.6 0 0 1 .1 34.3h-.1a35.5 35.5 0 0 0 7.1 1.4 18.5 18.5 0 0 0 13.3-5.5z" fill="#093254"/><path d="m960 106.1v867.8" fill="none" stroke="#093254" stroke-miterlimit="10" stroke-width="6.7"/><path d="m733.3 932.8 2.7-13.1-11.6-6.7 13.4-1.4 2.8-13.2 5.4 12.3 13.4-1.4-10 9 5.5 12.3-11.7-6.8z" fill="#093254"/><path d="m743.1 915.8 366-634" fill="none" stroke="#093254" stroke-miterlimit="10" stroke-width="6.7"/><path d="m1086.3 132.9.8-1a6.1 6.1 0 0 0 .7-1l15.7-2-12.6-9.5a4.9 4.9 0 0 0 -.1-1.2 5.1 5.1 0 0 0 -.2-1.3l9.6-12.4-15.6 2.1-.9-.8-1-.6-2-15.7-9.6 12.6h-1.2l-1.1.2-12.5-9.7 2.1 15.6-.8 1-.7.9-15.6 2 12.5 9.6c0 .4.1.8.1 1.2a5 5 0 0 1 .2 1.2l-9.5 12.5 15.6-2.1.8.7 1 .7 2 15.6 9.6-12.5h1.2l1.2-.2 12.4 9.6zm4.1-7.7c.1-.4.1-.8.2-1.2a5 5 0 0 1 -.2 1.2zm-35.5-10.8-.3 1zm-.7 2.4c0 .1-.1.3-.1.4s.1-.3.1-.4z" fill="#093254"/><path d="m847.7 959.1 224.6-838.2" fill="none" stroke="#093254" stroke-miterlimit="10" stroke-width="6.7"/><path d="m1126.5 796.2h-.1l-383.4-632 355.6 648.1.1.1 78.1 103.2-50.3-119.2z" fill="#093254"/><circle cx="960" cy="540" fill="#093254" r="32.1"/><circle cx="960" cy="540" fill="#bf965c" r="16.1"/><path d="m889.2 662.6a200.3 200.3 0 0 1 -20-31.8l-47.2 47.2a261.4 261.4 0 0 0 33.2 43.6 265.1 265.1 0 0 0 45.7 38.8l18-66.9a201.9 201.9 0 0 1 -29.7-30.9z" fill="#093254" stroke="#bf965c" stroke-miterlimit="10" stroke-width="13.39"/><path d="m849.7 510.4-62.4-16.7a263.5 263.5 0 0 0 0 92.6l62.4-16.7a200.2 200.2 0 0 1 0-59.2z" fill="#093254" stroke="#bf965c" stroke-miterlimit="10" stroke-width="13.39"/><path d="m856.5 599.7a199.3 199.3 0 0 1 -6.8-30.1l-62.4 16.7a260 260 0 0 0 34.7 91.7l47.2-47.2a196.9 196.9 0 0 1 -12.7-31.1z" fill="#093254" stroke="#bf965c" stroke-miterlimit="10" stroke-width="13.39"/><path d="m1235.3 613.8a200.5 200.5 0 0 1 -39.3 62.4 203 203 0 0 1 -56.8 43l47.2 47.2a265.8 265.8 0 0 0 111.3-135.9z" fill="#093254" stroke="#bf965c" stroke-miterlimit="10" stroke-width="13.39"/><path d="m1013 737.8a200.5 200.5 0 0 1 -94.1-44.3l-18 66.9a265.8 265.8 0 0 0 59.1 29.6 260.7 260.7 0 0 0 70.9 14.6z" fill="#093254" stroke="#bf965c" stroke-miterlimit="10" stroke-width="13.39"/><path d="m1139.2 719.2a200.2 200.2 0 0 1 -64.2 19.9 194.8 194.8 0 0 1 -26.6 1.8 206.2 206.2 0 0 1 -35.4-3.1l17.9 66.8c5.8.3 11.6.5 17.5.5a269.6 269.6 0 0 0 60.7-6.9 264.3 264.3 0 0 0 77.3-31.8z" fill="#093254" stroke="#bf965c" stroke-miterlimit="10" stroke-width="13.39"/><path d="m1109.1 281.8a269.6 269.6 0 0 0 -60.7-6.9c-5.9 0-11.7.2-17.5.5l-17.9 66.8a206.2 206.2 0 0 1 35.4-3.1 194.8 194.8 0 0 1 26.6 1.8 200.2 200.2 0 0 1 64.2 19.9l47.2-47.2a264.3 264.3 0 0 0 -77.3-31.8z" fill="#093254" stroke="#bf965c" stroke-miterlimit="10" stroke-width="13.39"/><path d="m1252.7 371a266.2 266.2 0 0 0 -66.3-57.4l-47.2 47.2a203 203 0 0 1 56.8 43 200.5 200.5 0 0 1 39.3 62.4l62.4-16.7a266.1 266.1 0 0 0 -45-78.5z" fill="#093254" stroke="#bf965c" stroke-miterlimit="10" stroke-width="13.39"/><path d="m1297.7 449.5-62.4 16.7a201.5 201.5 0 0 1 0 147.6l62.4 16.7a267.1 267.1 0 0 0 0-181z" fill="#093254" stroke="#bf965c" stroke-miterlimit="10" stroke-width="13.39"/><path d="m900.9 319.6a265.1 265.1 0 0 0 -45.7 38.8 261.4 261.4 0 0 0 -33.2 43.6l47.2 47.2a197.3 197.3 0 0 1 49.7-62.7z" fill="#093254" stroke="#bf965c" stroke-miterlimit="10" stroke-width="13.39"/><path d="m960 290a265.8 265.8 0 0 0 -59.1 29.6l18 66.9a200.5 200.5 0 0 1 94.1-44.3l17.9-66.8a260.7 260.7 0 0 0 -70.9 14.6z" fill="#093254" stroke="#bf965c" stroke-miterlimit="10" stroke-width="13.39"/><path d="m822 402a260 260 0 0 0 -34.7 91.7l62.4 16.7a199.3 199.3 0 0 1 6.8-30.1 196.9 196.9 0 0 1 12.7-31.1z" fill="#093254" stroke="#bf965c" stroke-miterlimit="10" stroke-width="13.39"/></svg>