<svg height="1080" viewBox="0 0 7344 1080" width="7344" xmlns="http://www.w3.org/2000/svg"><path d="m5424 0h1920v1080h-1920z" fill="#093254"/><path d="m4068 0h1920v1080h-1920z" fill="#093254"/><path d="m2712 0h1920v1080h-1920z" fill="#093254"/><path d="m1356 0h1920v1080h-1920z" fill="#093254"/><path d="m0 0h1920v1080h-1920z" fill="#093254"/><path d="m6267 984v-62.8h17.7a28.9 28.9 0 0 1 14.5 3.6 24.7 24.7 0 0 1 9.7 10.3 34.6 34.6 0 0 1 3.5 15.4v4a33.8 33.8 0 0 1 -3.5 15.6 23.9 23.9 0 0 1 -9.7 10.2 31 31 0 0 1 -14.9 3.7zm8.2-56v49.2h8.8c6.3 0 11.3-2 14.9-5.9s5.3-9.7 5.3-17v-3.7c0-7.1-1.7-12.6-5-16.6s-8.1-6-14.3-6z" fill="#fff"/><path d="m6323.7 925a4.8 4.8 0 0 1 1.2-3.3 4.2 4.2 0 0 1 3.5-1.4 4.5 4.5 0 0 1 3.5 1.4 4.8 4.8 0 0 1 1.2 3.3 4.5 4.5 0 0 1 -1.2 3.2 4.5 4.5 0 0 1 -3.5 1.3 4.2 4.2 0 0 1 -3.5-1.3 4.5 4.5 0 0 1 -1.2-3.2zm8.6 59h-8v-46.7h8z" fill="#fff"/><path d="m6343.2 960.3c0-7.3 1.6-13.1 5-17.4a16.1 16.1 0 0 1 13.4-6.4c5.7 0 10.1 2 13.3 6l.4-5.2h7.3v45.6c0 6-1.8 10.8-5.4 14.3s-8.4 5.2-14.4 5.2a23 23 0 0 1 -9.9-2.2 16.9 16.9 0 0 1 -7.4-5.9l4.2-4.8c3.4 4.2 7.6 6.4 12.5 6.4s6.9-1.1 9.1-3.3 3.3-5.3 3.3-9.2v-4.1c-3.2 3.7-7.6 5.6-13.1 5.6a16 16 0 0 1 -13.3-6.6c-3.3-4.4-5-10.4-5-18zm8 .9c0 5.2 1.1 9.4 3.2 12.4a10.6 10.6 0 0 0 9.1 4.5q7.5 0 11.1-6.9v-21.3c-2.5-4.4-6.2-6.7-11-6.7a10.6 10.6 0 0 0 -9.1 4.6c-2.2 3-3.3 7.5-3.3 13.4z" fill="#fff"/><path d="m6394.7 925a4.7 4.7 0 0 1 1.1-3.3 4.6 4.6 0 0 1 3.6-1.4 4.5 4.5 0 0 1 3.5 1.4 4.8 4.8 0 0 1 1.2 3.3 4.5 4.5 0 0 1 -1.2 3.2 4.5 4.5 0 0 1 -3.5 1.3 4.5 4.5 0 0 1 -3.6-1.3 4.5 4.5 0 0 1 -1.1-3.2zm8.6 59h-8v-46.7h8z" fill="#fff"/><path d="m6426.9 926v11.3h8.7v6.2h-8.7v29a6.8 6.8 0 0 0 1.1 4.2 5.1 5.1 0 0 0 4 1.4 23.3 23.3 0 0 0 3.8-.5v6.4a22 22 0 0 1 -6.1.9q-5.4 0-8.1-3.3c-1.8-2.1-2.7-5.2-2.7-9.2v-28.9h-8.5v-6.2h8.5v-11.3z" fill="#fff"/><path d="m6473.7 984a16.2 16.2 0 0 1 -1.1-4.9 18.1 18.1 0 0 1 -13.3 5.8c-4.6 0-8.4-1.3-11.3-3.9a12.4 12.4 0 0 1 -4.4-9.9c0-4.9 1.8-8.7 5.5-11.4s8.9-4 15.6-4h7.7v-3.7a8.7 8.7 0 0 0 -2.5-6.6c-1.6-1.7-4.1-2.5-7.3-2.5a11.2 11.2 0 0 0 -7.2 2.2 6.3 6.3 0 0 0 -2.9 5.2h-8a10.8 10.8 0 0 1 2.5-6.8 16.6 16.6 0 0 1 6.7-5.1 22.1 22.1 0 0 1 9.3-1.9c5.4 0 9.6 1.3 12.7 4s4.6 6.4 4.7 11.1v21.5a25.7 25.7 0 0 0 1.7 10.2v.7zm-13.2-6.1a14 14 0 0 0 7.1-1.9 11.8 11.8 0 0 0 4.8-5.1v-9.5h-6.2c-9.8 0-14.7 2.8-14.7 8.5a7.5 7.5 0 0 0 2.5 5.9 9.8 9.8 0 0 0 6.5 2.1z" fill="#fff"/><path d="m6501.6 984h-8v-66.2h8z" fill="#fff"/><circle cx="6384" cy="492" fill="none" r="396" stroke="#f3eec7" stroke-miterlimit="10" stroke-width="10"/><path d="m6541.1 671.9c0 32.7-6 57.6-18 74.5s-29.7 25.5-53.1 25.5-40.6-8.3-52.8-25-18.5-40.9-18.8-72.7v-41.6c0-32.6 6-57.4 18.1-74.2s29.9-25.2 53.2-25.2 40.5 8.1 52.6 24.4 18.4 40.1 18.8 71.7zm-19.1-41.7q0-39.9-13-60.3t-39.3-20.4c-17.3 0-30.2 6.6-39 19.9s-13.1 33-13.4 58.9v45.6q0 39.8 13.5 60.8c9 14 22.1 21.1 39.2 21.1s29.9-6.9 38.7-20.6 13.2-33.8 13.3-60.3z" fill="#f3eec7"/><path d="m6360.1 671.9c0 32.7-6 57.6-18.1 74.5s-29.7 25.5-53.1 25.5-40.5-8.3-52.8-25-18.5-40.9-18.8-72.7v-41.6c0-32.6 6.1-57.4 18.2-74.2s29.8-25.2 53.1-25.2 40.5 8.1 52.6 24.4 18.4 40.1 18.9 71.7zm-19.2-41.7q0-39.9-13-60.3t-39.3-20.4c-17.2 0-30.2 6.6-38.9 19.9s-13.2 33-13.4 58.9v45.6q0 39.8 13.5 60.8c8.9 14 22 21.1 39.1 21.1s29.9-6.9 38.7-20.6 13.2-33.8 13.3-60.3z" fill="#f3eec7"/><path d="m6550.7 447.6h-152.2v-21.2l80.4-89.4c11.9-13.5 20.1-24.5 24.7-32.9a55.3 55.3 0 0 0 6.7-26.3c0-12.1-3.6-22-11-29.8s-17.1-11.6-29.3-11.6c-14.7 0-26.1 4.1-34.2 12.5s-12.2 20-12.2 34.9h-29.6q0-32.1 20.7-51.9t55.3-19.8c21.6 0 38.6 5.7 51.2 17s18.8 26.4 18.8 45.2q0 34.3-43.7 81.7l-62.2 67.5h116.6z" fill="#f3eec7"/><path d="m6312.1 447.6h-29.7v-196.7l-59.5 21.8v-26.8l84.5-31.7h4.7z" fill="#f3eec7"/><path d="m6226.6 648.1 11.4-113.3h116.1v17.7h-99.7l-8.1 78.5c12.4-8.5 27-12.7 43.7-12.7q31.3 0 50.1 20.4t18.6 54.4c0 24.4-6 43.4-18.2 56.9s-29.2 20.3-51.2 20.3c-20.2 0-36.6-5.7-49.1-16.9s-19.7-27.1-21.5-47.4h18.3c1.8 15.8 7.2 27.8 16.1 36s21 12.2 36.2 12.2 29.1-5.3 37.6-15.8 12.7-25.6 12.7-45c0-17-4.8-30.9-14.2-41.6s-22.4-16.2-38.8-16.2a72.8 72.8 0 0 0 -23.6 3.5c-6.7 2.3-13.8 6.7-21.2 13.3z" fill="#f3eec7"/><path d="m6522.6 661.9a71.8 71.8 0 0 1 -25.3 23.2 67.7 67.7 0 0 1 -32.9 8.2c-13.2 0-24.8-3.4-34.9-10.2a66.7 66.7 0 0 1 -23.5-28.2 94 94 0 0 1 -8.3-39.4c0-15.4 3-29.3 8.9-41.8s14.1-22.3 24.7-29.3 22.8-10.5 36.6-10.5q35 0 54.4 24.5c13 16.4 19.5 39.5 19.5 69.5v17.2q0 62.9-26.8 94.5c-17.9 21-45.2 31.6-81.9 31.6h-3.5l.2-16.6h6.7c27.7-.5 48.8-8.3 63.3-23.6s22.1-38.4 22.8-69.1zm-55.8 14.8a56 56 0 0 0 34.4-11.4 61.6 61.6 0 0 0 21.6-29.5v-11q0-35.2-14.8-54.8c-9.8-13-23.1-19.5-39.8-19.5-15.1 0-27.5 6.1-37.1 18.3s-14.6 27.4-14.6 45.9 4.7 32.4 14 44.3 21.4 17.7 36.3 17.7z" fill="#f3eec7"/><path d="m6312.1 447.6h-29.7v-196.7l-59.5 21.8v-26.8l84.5-31.7h4.7z" fill="#f3eec7"/><path d="m6483.2 447.6h-29.6v-196.7l-59.6 21.8v-26.8l84.6-31.7h4.6z" fill="#f3eec7"/><path d="m4862.7 969.8a14.2 14.2 0 0 1 -14.1 14.2h-47.5v-8.4h47.5a5.8 5.8 0 0 0 0-11.6h-33.4a14.3 14.3 0 0 1 0-28.5h47.5v8.3h-47.5a5.9 5.9 0 0 0 0 11.8h33.4a14.1 14.1 0 0 1 14.1 14.2z" fill="#fff"/><path d="m4957 935.5h9l-16.8 48.5h-10.6l-20-40.2h-1.5l-20 40.2h-10.5l-16.8-48.5h8.8l13.6 39.5 19.8-39.5h11.8l19.6 39.5z" fill="#fff"/><path d="m5034.7 953v31h-47.5a14.2 14.2 0 1 1 0-28.4h39.1v-2.6a9.2 9.2 0 0 0 -9.1-9.2h-44.2v-8.3h44.2a17.5 17.5 0 0 1 17.5 17.5zm-8.4 11h-39.1a5.8 5.8 0 1 0 0 11.6h39.1z" fill="#fff"/><path d="m5071.8 935.5h33.3v8.3h-33.3v22.6a9.2 9.2 0 0 0 9.2 9.2h24.1v8.4h-24.1a17.5 17.5 0 0 1 -17.5-17.6v-22.6h-20v-8.3h20v-13.3h8.3z" fill="#fff"/><path d="m5131.4 935.5h44.2v8.3h-44.2a9.2 9.2 0 0 0 -9.1 9.2v13.4a9.1 9.1 0 0 0 9.1 9.2h44.2v8.4h-44.2a17.5 17.5 0 0 1 -17.4-17.6v-13.4a17.4 17.4 0 0 1 17.4-17.5z" fill="#fff"/><path d="m5246.1 953v31h-8.3v-31a9.3 9.3 0 0 0 -9.1-9.2h-35.9v40.2h-8.3v-61.8h8.3v13.3h35.9a17.5 17.5 0 0 1 17.4 17.5z" fill="#fff"/><path d="m4767.3 96c-30.8 96.4-87.3 206.9-87.3 206.9h696s-56.5-110.5-87.3-206.9z" fill="#f3eec7"/><path d="m5288.7 888c30.8-96.4 87.3-206.9 87.3-206.9h-696s56.5 110.5 87.3 206.9z" fill="#f3eec7"/><circle cx="5028" cy="492" fill="#f3eec7" r="396"/><path d="m5069.4 288-29.4-147.5" fill="none" stroke="#df4b4b" stroke-miterlimit="10" stroke-width="10"/><path d="m5124.2 476.7h48v48h-48z" fill="#093254" transform="matrix(.98 .2 -.2 .98 196.61 -994.74)"/><circle cx="4906" cy="711.8" fill="#093254" r="24"/><circle cx="5194.3" cy="685.2" fill="#093254" r="12"/><circle cx="5210.1" cy="729.6" fill="#093254" r="12"/><circle cx="5241.5" cy="694.6" fill="#093254" r="12"/><path d="m4925.8 392.8 24.2-5.7 10.3-45.4-20.3-7.7z" fill="#093254"/><path d="m4926.4 328.8-20-7.6-19.6 80.7 24.3-5.7z" fill="#093254"/><path d="m4973.8 346.8-8.9 36.8 22.6-5.3 4.5-24.5z" fill="#093254"/><path d="m5206.5 337.1 14.3-4.5a118.4 118.4 0 0 0 -10.4-23.3l-12.9 7.7a98 98 0 0 1 9 20.1z" fill="#093254" fill-rule="evenodd"/><path d="m5210.1 376.3 14.9 1.7a108.7 108.7 0 0 0 0-25.5l-14.9 1.7a90.8 90.8 0 0 1 0 22.1z" fill="#093254" fill-rule="evenodd"/><path d="m5155.5 279.2 6.3-13.6a104.6 104.6 0 0 0 -24.3-7.9l-2.9 14.7a96.4 96.4 0 0 1 20.9 6.8z" fill="#093254" fill-rule="evenodd"/><path d="m5187 302.6 11.2-9.9a110.5 110.5 0 0 0 -19-17.1l-8.6 12.3a95.3 95.3 0 0 1 16.4 14.7z" fill="#093254" fill-rule="evenodd"/><path d="m4929.3 512.5h24v251.8h-24z" fill="#df4b4b" transform="matrix(.38268343 -.92387953 .92387953 .38268343 2460.6 4959.3)"/><path d="m4870.5 542.7h35.6v133.15h-35.6z" fill="#bf965c" transform="matrix(.92387953 .38268343 -.38268343 .92387953 605.3 -1824.3)"/><path d="m4728.2 503 299.7 124.2" fill="none" stroke="#093254" stroke-miterlimit="10" stroke-width="10"/><circle cx="5028" cy="492" fill="none" r="348" stroke="#093254" stroke-miterlimit="10" stroke-width="10"/><path d="m5016 192h24v372h-24z" fill="#df4b4b"/><path d="m5016 288h24v276h-24z" fill="#bf965c"/><path d="m5028 192v420" fill="none" stroke="#093254" stroke-miterlimit="10" stroke-width="5"/><circle cx="5028" cy="492" fill="#093254" r="24"/><circle cx="5028" cy="492" fill="#f3eec7" r="12"/><path d="m3582.4 964.4h-22.6l-4 9.3a13.8 13.8 0 0 0 -1.5 5 3.3 3.3 0 0 0 1.3 2.4c.9.7 2.7 1.1 5.5 1.3v1.6h-18.4v-1.6c2.4-.4 4-1 4.7-1.7s3.1-4.2 4.9-8.4l20.6-48.1h1.5l20.3 48.6c1.7 3.9 3.2 6.5 4.5 7.6a8.6 8.6 0 0 0 5.6 2v1.6h-23.1v-1.6c2.4-.1 3.9-.5 4.7-1.2a2.7 2.7 0 0 0 1.3-2.4q0-1.8-1.8-6zm-1.2-3.2-9.9-23.6-10.2 23.6z" fill="#fff"/><path d="m3620.1 951.7q6.9-8.4 13.2-8.4a9.5 9.5 0 0 1 5.6 1.7 11.1 11.1 0 0 1 3.7 5.3 25.4 25.4 0 0 1 .9 7.9v16.9a14.4 14.4 0 0 0 .6 5.1 3.1 3.1 0 0 0 1.6 1.6 8.7 8.7 0 0 0 3.9.6v1.6h-19.6v-1.6h.8c1.9 0 3.2-.2 3.9-.8a4.8 4.8 0 0 0 1.5-2.5 25 25 0 0 0 .2-4v-16.2c0-3.6-.5-6.2-1.4-7.8a5 5 0 0 0 -4.7-2.5c-3.4 0-6.9 1.9-10.2 5.6v20.9c0 2.6.1 4.3.4 4.9a4 4 0 0 0 1.7 1.9c.7.4 2.1.5 4.3.5v1.6h-19.6v-1.6h.9c2 0 3.4-.5 4.1-1.5s1-3 1-5.8v-14.7a70.6 70.6 0 0 0 -.3-8.7 3.5 3.5 0 0 0 -1-2.1 3 3 0 0 0 -1.8-.5 9.3 9.3 0 0 0 -2.9.6l-.6-1.5 11.9-4.9h1.9z" fill="#fff"/><path d="m3675.1 978.3c-4.1 3.1-6.6 5-7.6 5.4a11 11 0 0 1 -5 1.1 9 9 0 0 1 -6.8-2.8 10.6 10.6 0 0 1 -2.6-7.4 9.1 9.1 0 0 1 1.3-5 17.5 17.5 0 0 1 6.1-5.5 100.6 100.6 0 0 1 14.6-6.3v-1.5c0-4-.6-6.7-1.9-8.1a7.7 7.7 0 0 0 -9.8-.8 4.4 4.4 0 0 0 -1.6 3.4v2.5a5 5 0 0 1 -1 3.1 3.6 3.6 0 0 1 -2.7 1 3.3 3.3 0 0 1 -2.6-1.1 4.2 4.2 0 0 1 -1-3c0-2.5 1.3-4.8 3.8-6.9s6.1-3.1 10.6-3.1a18.4 18.4 0 0 1 8.7 1.8 8.1 8.1 0 0 1 3.7 4.2c.5 1.2.8 3.8.8 7.6v13.4c0 3.8.1 6.1.2 6.9a3.4 3.4 0 0 0 .7 1.7 1.7 1.7 0 0 0 1.2.4 2.7 2.7 0 0 0 1.2-.3 26.4 26.4 0 0 0 3.5-3.1v2.4c-3.3 4.3-6.3 6.5-9.3 6.5a4 4 0 0 1 -3.3-1.5c-.8-1-1.2-2.6-1.2-5zm0-2.8v-15a75.5 75.5 0 0 0 -8.4 3.6 14.8 14.8 0 0 0 -4.9 4 7.6 7.6 0 0 0 -1.5 4.5 7.7 7.7 0 0 0 1.9 5.2 5.7 5.7 0 0 0 4.3 2c2.1 0 5-1.4 8.6-4.3z" fill="#fff"/><path d="m3705.5 922.7v52.4a16.7 16.7 0 0 0 .5 4.9 3.7 3.7 0 0 0 1.7 1.8 9.7 9.7 0 0 0 4.2.6v1.6h-19.4v-1.6c1.8 0 3.1-.1 3.7-.5a3.8 3.8 0 0 0 1.6-1.9 16.7 16.7 0 0 0 .5-4.9v-35.9a61.6 61.6 0 0 0 -.3-8.2 4.1 4.1 0 0 0 -.9-2.1 2.7 2.7 0 0 0 -1.7-.6 10 10 0 0 0 -2.9.7l-.7-1.5 11.7-4.8z" fill="#fff"/><path d="m3735.8 943.3a17.8 17.8 0 0 1 14.4 6.8 21.5 21.5 0 0 1 4.6 13.4 25.5 25.5 0 0 1 -2.6 10.8 18.3 18.3 0 0 1 -16.9 10.9 16.8 16.8 0 0 1 -14.2-7.1 21.8 21.8 0 0 1 -4.4-13.5 25.2 25.2 0 0 1 2.6-10.8 18.2 18.2 0 0 1 16.5-10.5zm-1.4 2.8a8.9 8.9 0 0 0 -8.3 6.2 21.7 21.7 0 0 0 -1.4 8.7 30.4 30.4 0 0 0 3.4 14.9c2.3 4.2 5.3 6.2 9 6.2a8.3 8.3 0 0 0 6.9-3.4c1.8-2.3 2.8-6.3 2.8-11.9s-1.6-12.5-4.6-16.5a9.2 9.2 0 0 0 -7.8-4.2z" fill="#fff"/><path d="m3771.2 969.6a12.8 12.8 0 0 1 -5.6-4.9 13.4 13.4 0 0 1 -1.9-7 13.1 13.1 0 0 1 4.4-10.1 15.3 15.3 0 0 1 11.3-4.3 17.6 17.6 0 0 1 9.8 2.8h10.5c.2.1.4.2.4.4a2.1 2.1 0 0 1 .3 1.3 5.1 5.1 0 0 1 -.2 1.6.9.9 0 0 1 -.5.3 6.7 6.7 0 0 1 -2.1.2h-5.2a12.4 12.4 0 0 1 2.4 7.9 12.7 12.7 0 0 1 -4.2 9.5c-2.8 2.6-6.6 3.9-11.3 3.9a20.8 20.8 0 0 1 -6-.9 12.6 12.6 0 0 0 -2.6 2.9 5.2 5.2 0 0 0 -.7 2.1 2.1 2.1 0 0 0 .8 1.4 4.6 4.6 0 0 0 2.7 1l6.1.3a99.5 99.5 0 0 1 11.5.6 11 11 0 0 1 6.4 3 8.1 8.1 0 0 1 2.4 5.9c0 3.3-1.5 6.3-4.6 9.2s-10.3 6.3-17.5 6.3a25.1 25.1 0 0 1 -14.1-3.8c-2.2-1.4-3.2-2.9-3.2-4.5a4.5 4.5 0 0 1 .4-2 21.4 21.4 0 0 1 3.1-4.5c.2-.2 1.6-1.8 4.4-4.6a13.8 13.8 0 0 1 -3.2-2.4 3.6 3.6 0 0 1 -.9-2.4 7.6 7.6 0 0 1 1.2-3.6q1.2-1.8 5.7-5.6zm-.5 14.4a23.4 23.4 0 0 0 -3 4.1 7.4 7.4 0 0 0 -1.1 3.5c0 1.4.9 2.6 2.5 3.6s7.1 2.7 12.5 2.7 9-.9 11.4-2.8 3.7-3.7 3.7-5.8a3.2 3.2 0 0 0 -2.2-3.2c-1.5-.6-4.4-1-8.8-1.1a147.8 147.8 0 0 1 -15-1zm8-38.6a7.1 7.1 0 0 0 -5.4 2.5c-1.4 1.7-2.1 4.3-2.1 7.9s.9 8 2.9 10.5a7 7 0 0 0 5.7 2.9 6.9 6.9 0 0 0 5.4-2.5c1.4-1.6 2.1-4.2 2.1-7.7s-1-8.2-3-10.7a6.8 6.8 0 0 0 -5.6-2.9z" fill="#fff"/><circle cx="3672" cy="492" fill="#f3eec7" r="396"/><path d="m3628.4 191.3v-7.4c7-.7 11.9-1.8 14.6-3.4s4.9-5.4 6.2-11.3h7.6v76.6h-10.3v-54.5z" fill="#093254"/><path d="m3666.5 228.5c2.4-4.9 7-9.4 13.9-13.4l10.4-5.9a50.4 50.4 0 0 0 9.7-6.9 14.4 14.4 0 0 0 4.4-10.3 14.2 14.2 0 0 0 -4.1-10.6c-2.6-2.7-6.2-4-10.7-4-6.6 0-11.2 2.5-13.7 7.5-1.4 2.7-2.2 6.5-2.3 11.3h-9.8c.1-6.7 1.3-12.2 3.7-16.4 4.2-7.5 11.6-11.2 22.2-11.2 8.8 0 15.2 2.4 19.3 7.1a24.4 24.4 0 0 1 6.1 15.9 21.6 21.6 0 0 1 -6.5 15.8q-3.7 3.9-13.5 9.3l-7.4 4.1a42.9 42.9 0 0 0 -8.2 5.5 19.9 19.9 0 0 0 -6.8 10.4h42v9.1h-52.8a43.6 43.6 0 0 1 4.1-17.3z" fill="#093254"/><path d="m3799.6 230.2v-7.4c7-.7 11.9-1.8 14.6-3.4s4.8-5.4 6.2-11.3h7.6v76.6h-10.3v-54.5z" fill="#093254"/><path d="m3900.6 368.4c2.3-4.9 7-9.4 13.9-13.4l10.3-6c4.6-2.7 7.9-5 9.7-6.9a13.6 13.6 0 0 0 4.4-10.2c0-4.5-1.3-8-4-10.7s-6.3-3.9-10.7-3.9c-6.7 0-11.2 2.5-13.8 7.5a27.4 27.4 0 0 0 -2.2 11.2h-9.9c.1-6.7 1.4-12.1 3.7-16.4q6.3-11.1 22.2-11.1c8.8 0 15.3 2.4 19.3 7.1a23.9 23.9 0 0 1 6.1 15.9 21.4 21.4 0 0 1 -6.5 15.8c-2.5 2.5-7 5.6-13.5 9.2l-7.3 4.1a49.3 49.3 0 0 0 -8.3 5.6 20.3 20.3 0 0 0 -6.8 10.3h42v9.2h-52.7a43.2 43.2 0 0 1 4.1-17.3z" fill="#093254"/><path d="m3948 524.1a28 28 0 0 1 -6.2-18.3h10.1c.5 5 1.4 8.6 2.8 10.9 2.5 4 7.1 6 13.6 6s9.2-1.3 12.3-4a13.9 13.9 0 0 0 4.6-10.6c0-5.3-1.6-9-4.9-11.1s-7.7-3.1-13.5-3.1h-4v-8.6l2.6.2h2.2a20.8 20.8 0 0 0 8.9-1.7c4.1-2 6.1-5.6 6.1-10.8a10.4 10.4 0 0 0 -4.1-8.8 15.1 15.1 0 0 0 -9.5-3.1c-6.4 0-10.9 2.1-13.4 6.4-1.3 2.4-2.1 5.7-2.3 10.1h-9.5c0-5.7 1.1-10.6 3.4-14.6 3.9-7.2 10.9-10.8 20.8-10.8 7.8 0 13.9 1.8 18.2 5.3s6.5 8.5 6.5 15.2q0 7.1-3.9 11.4a14.4 14.4 0 0 1 -6.1 4.3 17.1 17.1 0 0 1 9.5 6.5 19 19 0 0 1 3.4 11.6c0 7.3-2.4 13.3-7.2 17.9s-11.7 7-20.6 7-15.7-2.3-19.8-7.3z" fill="#093254"/><path d="m3929.4 675.5v-18.8h-33.7v-9.4l35.2-48.9h8.2v49.9h11.3v8.4h-11.3v18.8zm-.2-27.2v-35l-24.6 35z" fill="#093254"/><path d="m3798.8 757.3c.6 5.5 3.2 9.3 7.6 11.4a18.4 18.4 0 0 0 8 1.6c5.7 0 10-1.8 12.7-5.5a19.4 19.4 0 0 0 4.2-12.1c0-5.4-1.7-9.5-5-12.5a17 17 0 0 0 -11.7-4.4 17.6 17.6 0 0 0 -8.6 2 18.2 18.2 0 0 0 -6.1 5.3l-8.4-.4 5.9-41.5h39.9v9.4h-32.7l-3.3 21.4a24 24 0 0 1 5.1-3.1 25.9 25.9 0 0 1 10-1.8 25.2 25.2 0 0 1 17.9 6.9 22.5 22.5 0 0 1 7.4 17.2 29.9 29.9 0 0 1 -6.8 19.3c-4.5 5.5-11.6 8.3-21.5 8.3a27.6 27.6 0 0 1 -16.6-5.3q-7.2-5.2-8.1-16.2z" fill="#093254"/><path d="m3691.6 743.5a22.3 22.3 0 0 1 5.1 13.8h-9.6a16 16 0 0 0 -2.7-7.2c-2.3-3.2-5.8-4.8-10.6-4.8s-9.7 2.5-12.9 7.5-4.9 12.1-5.3 21.4a21.1 21.1 0 0 1 8.4-7.3 26.2 26.2 0 0 1 27.2 4.1c4.8 4.1 7.2 10.2 7.2 18.4a28 28 0 0 1 -6.8 18.5q-6.9 8.1-19.5 8.1a24.7 24.7 0 0 1 -18.6-8.2c-5.3-5.4-7.9-14.6-7.9-27.6 0-9.5 1.2-17.6 3.5-24.3 4.5-12.7 12.7-19.1 24.6-19.1 8.6 0 14.5 2.2 17.9 6.7zm-7.2 58.8a20 20 0 0 0 3.8-12.1 21.3 21.3 0 0 0 -3.4-11.3c-2.3-3.5-6.4-5.3-12.3-5.3a16.1 16.1 0 0 0 -10.9 4.1c-3.2 2.8-4.7 6.9-4.7 12.5a18.5 18.5 0 0 0 4.2 12.3c2.9 3.3 6.8 4.9 11.9 4.9s8.9-1.7 11.4-5.1z" fill="#093254"/><path d="m3557.1 699.6v8.4c-2.5 2.4-5.8 6.6-9.9 12.5a145.2 145.2 0 0 0 -18 37.6c-1 3.5-2.3 9.2-4 17.1h-10.7a132.6 132.6 0 0 1 16.1-43.8 140.4 140.4 0 0 1 15.5-22.1h-42.5v-9.7z" fill="#093254"/><path d="m3401.9 629.1c-2.8-2.8-4.2-6.6-4.2-11.2a20.1 20.1 0 0 1 6.2-14.7c4.2-4.1 10-6.2 17.7-6.2s13.1 1.9 17.3 5.8 6.3 8.5 6.3 13.6-1.2 8.7-3.7 11.7a21.2 21.2 0 0 1 -6.3 4.9 24.6 24.6 0 0 1 7.5 5.1c3.4 3.6 5.2 8.2 5.2 14a23.8 23.8 0 0 1 -6.9 17.2c-4.5 4.7-10.9 7-19.2 7s-13.9-2-19-6.1-7.8-9.9-7.8-17.7a21.2 21.2 0 0 1 3.3-11.8 21.5 21.5 0 0 1 9.9-7.6 17.5 17.5 0 0 1 -6.3-4zm31.2 34.8c3-2.4 4.4-6 4.4-10.8s-1.5-8.8-4.5-11.4a18.1 18.1 0 0 0 -11.7-3.8c-4.7 0-8.4 1.3-11.3 3.9s-4.4 6.3-4.4 11a14.5 14.5 0 0 0 4 10.3c2.7 3 6.8 4.4 12.4 4.4a17 17 0 0 0 11.1-3.6zm-1.8-38a11.8 11.8 0 0 0 3.6-8.6 11.3 11.3 0 0 0 -3.4-7.9q-3.5-3.6-10.5-3.6c-4.6 0-8 1.2-10.1 3.6a12.9 12.9 0 0 0 -3.1 8.5 10.2 10.2 0 0 0 4.1 8.5 15.1 15.1 0 0 0 9.4 3c4.3 0 7.6-1.1 10-3.5z" fill="#093254"/><path d="m3359 510.8c.2 5.4 2.3 9 6.1 11.1a13.5 13.5 0 0 0 6.7 1.6 14.8 14.8 0 0 0 11.8-5.8q5-5.7 6.9-23.4a18.1 18.1 0 0 1 -7.9 7.2 27 27 0 0 1 -10.3 2c-7.4 0-13.2-2.3-17.6-6.9s-6.4-10.6-6.4-17.8a28.2 28.2 0 0 1 6.4-18.4c4.2-5.3 10.5-8 18.8-8 11.2 0 19 5.1 23.2 15.2 2.4 5.5 3.6 12.5 3.6 20.8s-1.4 17.8-4.3 25c-4.7 12.1-12.6 18.2-23.8 18.2-7.5 0-13.3-2-17.2-6s-5.8-8.8-5.8-14.8zm25.1-19.5c3.2-2.6 4.8-7 4.8-13.3s-1.4-9.8-4.3-12.6-6.5-4.1-10.9-4.1-8.4 1.5-11.2 4.7-4.2 7.4-4.2 12.7 1.2 9 3.7 11.9 6.3 4.4 11.6 4.4a16.2 16.2 0 0 0 10.5-3.7z" fill="#093254"/><path d="m3391.1 337.9v-7.4c7-.7 11.9-1.8 14.6-3.4s4.8-5.4 6.2-11.3h7.6v76.6h-10.3v-54.5z" fill="#093254"/><path d="m3473 327.7q5.1 9.6 5.1 26.1c0 10.5-1.5 19.1-4.6 25.9-4.5 9.9-11.9 14.8-22.2 14.8s-16.1-4.1-20.6-12.1-5.6-15.7-5.6-26.9c0-8.8 1.1-16.3 3.4-22.5 4.2-11.7 11.8-17.6 22.9-17.6s17.1 4.1 21.6 12.3zm-9.7 51.3c2.9-4.5 4.4-12.7 4.4-24.8 0-8.8-1.1-16-3.2-21.6s-6.3-8.5-12.5-8.5-9.9 2.7-12.6 8.1-3.9 13.2-3.9 23.6c0 7.9.8 14.2 2.5 18.9 2.6 7.3 7 10.9 13.3 10.9s9-2.2 12-6.6z" fill="#093254"/><path d="m3495.9 229.6v-7.4c7-.7 11.8-1.8 14.6-3.4s4.8-5.4 6.2-11.3h7.6v76.6h-10.3v-54.5z" fill="#093254"/><path d="m3535.4 229.6v-7.4c7-.7 11.8-1.8 14.6-3.4s4.8-5.4 6.2-11.3h7.6v76.6h-10.3v-54.5z" fill="#093254"/><path d="m3667.4 276.5c1.7 3.2 2.6 7.5 2.6 13s-.8 9.6-2.4 13c-2.2 4.9-5.9 7.4-11 7.4a10.9 10.9 0 0 1 -10.3-6.1c-1.9-3.3-2.9-7.8-2.9-13.4a34 34 0 0 1 1.7-11.3c2.1-5.8 6-8.7 11.5-8.7s8.6 2 10.8 6.1zm-4.9 25.6c1.5-2.2 2.3-6.3 2.3-12.4a30.6 30.6 0 0 0 -1.7-10.8 6 6 0 0 0 -6.2-4.2 6.5 6.5 0 0 0 -6.3 4c-1.3 2.7-2 6.6-2 11.9a29.9 29.9 0 0 0 1.3 9.4c1.3 3.6 3.5 5.5 6.6 5.5a6.8 6.8 0 0 0 6-3.4z" fill="#df4b4b"/><path d="m3698 276.5c1.7 3.2 2.6 7.5 2.6 13s-.8 9.6-2.4 13c-2.2 4.9-5.9 7.4-11 7.4a11.1 11.1 0 0 1 -10.4-6.1c-1.8-3.3-2.8-7.8-2.8-13.4a34 34 0 0 1 1.7-11.3c2.1-5.8 6-8.7 11.5-8.7s8.6 2 10.8 6.1zm-4.9 25.6c1.5-2.2 2.3-6.3 2.3-12.4a30.6 30.6 0 0 0 -1.7-10.8 6 6 0 0 0 -6.2-4.2 6.5 6.5 0 0 0 -6.3 4c-1.3 2.7-2 6.6-2 11.9a29.9 29.9 0 0 0 1.3 9.4c1.3 3.6 3.5 5.5 6.6 5.5a6.8 6.8 0 0 0 6-3.4z" fill="#df4b4b"/><path d="m3747.6 312.1v-3.7c3.5-.3 6-.9 7.3-1.7s2.5-2.7 3.1-5.7h3.8v38.3h-5.1v-27.2z" fill="#df4b4b"/><path d="m3770.5 336.6a13.6 13.6 0 0 1 -3.1-9.1h5a13.8 13.8 0 0 0 1.4 5.4c1.3 2.1 3.6 3.1 6.8 3.1a9 9 0 0 0 6.2-2.1 6.7 6.7 0 0 0 2.3-5.2c0-2.7-.8-4.5-2.5-5.6a12.5 12.5 0 0 0 -6.7-1.6h-2v-4.3h2.4a9.6 9.6 0 0 0 4.4-.8c2.1-1 3.1-2.8 3.1-5.4a5.1 5.1 0 0 0 -2.1-4.4 7.1 7.1 0 0 0 -4.7-1.6c-3.2 0-5.5 1.1-6.7 3.3a10.5 10.5 0 0 0 -1.2 5h-4.7a13.9 13.9 0 0 1 1.7-7.3c1.9-3.6 5.4-5.4 10.4-5.4s6.9.9 9.1 2.6a9.5 9.5 0 0 1 3.2 7.6 8.5 8.5 0 0 1 -1.9 5.8 7.7 7.7 0 0 1 -3.1 2.1 8.6 8.6 0 0 1 4.8 3.2 10.2 10.2 0 0 1 1.7 5.8 11.6 11.6 0 0 1 -3.7 9c-2.4 2.3-5.8 3.5-10.2 3.5s-7.9-1.1-9.9-3.6z" fill="#df4b4b"/><path d="m3819 385.6v-3.7c3.5-.3 5.9-.9 7.3-1.7s2.4-2.7 3.1-5.7h3.8v38.3h-5.2v-27.2z" fill="#df4b4b"/><path d="m3855.6 412.8v-9.4h-16.9v-4.7l17.6-24.4h4.1v24.9h5.7v4.2h-5.7v9.4zm-.1-13.6v-17.4l-12.3 17.4z" fill="#df4b4b"/><path d="m3848 483.4v-3.7c3.5-.3 5.9-.9 7.3-1.7s2.4-2.7 3.1-5.6h3.8v38.3h-5.2v-27.3z" fill="#df4b4b"/><path d="m3872.8 500.9a6.8 6.8 0 0 0 3.8 5.7 9.8 9.8 0 0 0 4 .8c2.8 0 5-.9 6.3-2.8a9.5 9.5 0 0 0 2.1-6 8.2 8.2 0 0 0 -2.4-6.3 9.2 9.2 0 0 0 -5.9-2.2 9.4 9.4 0 0 0 -4.3 1 11.4 11.4 0 0 0 -3.1 2.7l-4.2-.2 3-20.7h19.9v4.6h-16.3l-1.6 10.7a8.3 8.3 0 0 1 2.5-1.5 12.8 12.8 0 0 1 5-.9 12.4 12.4 0 0 1 8.9 3.4 11.3 11.3 0 0 1 3.7 8.7 14.7 14.7 0 0 1 -3.4 9.6c-2.2 2.7-5.8 4.1-10.7 4.1a14.1 14.1 0 0 1 -8.3-2.6 10.7 10.7 0 0 1 -4.1-8.1z" fill="#df4b4b"/><path d="m3819.6 582.1v-3.7c3.5-.3 5.9-.9 7.3-1.7s2.4-2.7 3.1-5.7h3.8v38.3h-5.1v-27.2z" fill="#df4b4b"/><path d="m3862.4 574.1a11.7 11.7 0 0 1 2.5 6.9h-4.8a7.5 7.5 0 0 0 -1.4-3.6 5.9 5.9 0 0 0 -5.2-2.4 7.3 7.3 0 0 0 -6.5 3.7c-1.6 2.5-2.5 6.1-2.7 10.7a11.9 11.9 0 0 1 4.2-3.6 12.7 12.7 0 0 1 5.2-1.1 12.3 12.3 0 0 1 8.4 3.1c2.4 2.1 3.6 5.1 3.6 9.2a13.9 13.9 0 0 1 -3.4 9.3c-2.3 2.7-5.5 4-9.7 4a12.2 12.2 0 0 1 -9.3-4.1c-2.6-2.7-3.9-7.3-3.9-13.7a36.3 36.3 0 0 1 1.7-12.2q3.3-9.6 12.3-9.6c4.3 0 7.3 1.1 9 3.4zm-3.7 29.4a10.4 10.4 0 0 0 .2-11.7c-1.1-1.8-3.1-2.7-6.1-2.7a8.1 8.1 0 0 0 -5.5 2.1c-1.6 1.4-2.3 3.4-2.3 6.2a9.3 9.3 0 0 0 2.1 6.2 7.5 7.5 0 0 0 5.9 2.4c2.6 0 4.5-.8 5.7-2.5z" fill="#df4b4b"/><path d="m3749.8 658.9v-3.7c3.4-.3 5.9-.9 7.3-1.7s2.4-2.7 3-5.7h3.9v38.3h-5.2v-27.2z" fill="#df4b4b"/><path d="m3796.3 648.3v4.2a43.5 43.5 0 0 0 -4.9 6.3 64.6 64.6 0 0 0 -5.5 9.6 73.1 73.1 0 0 0 -3.5 9.2c-.5 1.7-1.2 4.6-2 8.5h-5.4a65 65 0 0 1 8.1-21.9 68.6 68.6 0 0 1 7.7-11h-21.2v-4.9z" fill="#df4b4b"/><path d="m3648.9 685.6v-3.7c3.5-.3 5.9-.9 7.3-1.7s2.4-2.7 3.1-5.6h3.8v38.3h-5.1v-27.3z" fill="#df4b4b"/><path d="m3672.1 690.4a7.8 7.8 0 0 1 -2.1-5.6 9.8 9.8 0 0 1 3.1-7.4c2.1-2.1 5-3.1 8.8-3.1s6.6 1 8.7 2.9a8.9 8.9 0 0 1 3.1 6.8 8.7 8.7 0 0 1 -1.8 5.8 10.2 10.2 0 0 1 -3.1 2.5 12 12 0 0 1 3.7 2.5 9.9 9.9 0 0 1 2.6 7 11.7 11.7 0 0 1 -3.4 8.6c-2.3 2.4-5.5 3.6-9.7 3.6a15.2 15.2 0 0 1 -9.5-3.1c-2.5-2-3.8-5-3.8-8.8a10.2 10.2 0 0 1 1.6-5.9 9.8 9.8 0 0 1 5-3.8 11.8 11.8 0 0 1 -3.2-2zm15.6 17.3a6.5 6.5 0 0 0 2.2-5.4c0-2.5-.7-4.3-2.3-5.6a9.3 9.3 0 0 0 -11.5 0 7.1 7.1 0 0 0 -2.1 5.5 7.2 7.2 0 0 0 2 5.2 9.4 9.4 0 0 0 11.7.3zm-.9-19a5.7 5.7 0 0 0 .1-8.2c-1.1-1.2-2.9-1.8-5.2-1.8s-4 .6-5.1 1.8a6.4 6.4 0 0 0 -1.5 4.2 5.2 5.2 0 0 0 2 4.3 7.5 7.5 0 0 0 4.7 1.5 6.7 6.7 0 0 0 5-1.8z" fill="#df4b4b"/><path d="m3549.6 656v-3.7c3.4-.4 5.9-1 7.3-1.8s2.4-2.6 3-5.6h3.9v38.3h-5.2v-27.2z" fill="#df4b4b"/><path d="m3574.7 673.9c.1 2.6 1.1 4.5 3 5.5a7.4 7.4 0 0 0 3.4.8 7.7 7.7 0 0 0 5.9-2.9c1.6-1.9 2.8-5.8 3.4-11.7a8.9 8.9 0 0 1 -3.9 3.6 12.7 12.7 0 0 1 -5.2 1 11.5 11.5 0 0 1 -8.8-3.4 12.8 12.8 0 0 1 -3.2-8.9 14.3 14.3 0 0 1 3.2-9.2c2.1-2.7 5.3-4 9.4-4 5.6 0 9.5 2.5 11.6 7.5a26.7 26.7 0 0 1 1.8 10.5 34.9 34.9 0 0 1 -2.1 12.5c-2.4 6-6.3 9-11.9 9-3.8 0-6.7-.9-8.6-2.9a10 10 0 0 1 -2.9-7.4zm12.5-9.8q2.4-2 2.4-6.6c0-2.8-.7-5-2.1-6.3a7.5 7.5 0 0 0 -5.5-2.1 7.1 7.1 0 0 0 -5.6 2.4 9 9 0 0 0 -2.1 6.3 8.8 8.8 0 0 0 1.9 6c1.2 1.4 3.1 2.2 5.8 2.2a8.5 8.5 0 0 0 5.2-1.9z" fill="#df4b4b"/><path d="m3482.6 596.2c1.2-2.5 3.5-4.7 7-6.7l5.1-3a25.8 25.8 0 0 0 4.9-3.4 7 7 0 0 0 2.2-5.2 7.2 7.2 0 0 0 -2-5.3 7.3 7.3 0 0 0 -5.4-2c-3.3 0-5.6 1.3-6.9 3.8a15.3 15.3 0 0 0 -1.1 5.6h-4.9a17.4 17.4 0 0 1 1.9-8.2c2.1-3.7 5.8-5.6 11.1-5.6s7.6 1.2 9.6 3.6a12.1 12.1 0 0 1 3.1 7.9 10.7 10.7 0 0 1 -3.3 7.9c-1.2 1.3-3.5 2.8-6.7 4.7l-3.7 2a27.6 27.6 0 0 0 -4.2 2.8 9.6 9.6 0 0 0 -3.3 5.1h21v4.6h-26.4a20.6 20.6 0 0 1 2-8.6z" fill="#df4b4b"/><path d="m3535.1 572.5c1.7 3.2 2.6 7.5 2.6 13a32.2 32.2 0 0 1 -2.3 13c-2.3 4.9-6 7.4-11.1 7.4a11.1 11.1 0 0 1 -10.3-6.1c-1.9-3.3-2.8-7.8-2.8-13.4a34.2 34.2 0 0 1 1.6-11.3c2.2-5.8 6-8.8 11.5-8.8s8.6 2.1 10.8 6.2zm-4.9 25.6c1.5-2.2 2.3-6.3 2.3-12.4a32.4 32.4 0 0 0 -1.6-10.8 6.2 6.2 0 0 0 -6.3-4.2 6.6 6.6 0 0 0 -6.3 4c-1.3 2.7-1.9 6.6-1.9 11.8a30.5 30.5 0 0 0 1.2 9.5q2 5.4 6.6 5.4a6.7 6.7 0 0 0 6-3.3z" fill="#df4b4b"/><path d="m3452.7 502.6c1.2-2.4 3.5-4.6 7-6.6l5.1-3a21.5 21.5 0 0 0 4.9-3.5 6.8 6.8 0 0 0 2.2-5.1 7.2 7.2 0 0 0 -2-5.3 7.3 7.3 0 0 0 -5.4-2c-3.3 0-5.6 1.3-6.9 3.8a15.3 15.3 0 0 0 -1.1 5.6h-4.9a17.4 17.4 0 0 1 1.9-8.2c2.1-3.7 5.8-5.6 11-5.6s7.7 1.2 9.7 3.6a12.1 12.1 0 0 1 3.1 7.9 10.7 10.7 0 0 1 -3.3 7.9 32.4 32.4 0 0 1 -6.7 4.6l-3.7 2.1a23.6 23.6 0 0 0 -4.2 2.7 10.3 10.3 0 0 0 -3.3 5.2h21v4.6h-26.4a21.4 21.4 0 0 1 2-8.7z" fill="#df4b4b"/><path d="m3482.8 484.1v-3.7a23.6 23.6 0 0 0 7.3-1.7c1.4-.8 2.4-2.7 3.1-5.7h3.8v38.3h-5.2v-27.2z" fill="#df4b4b"/><path d="m3478.3 406.2c1.2-2.5 3.5-4.7 7-6.7l5.2-3a22.9 22.9 0 0 0 4.8-3.5 6.7 6.7 0 0 0 2.2-5.1 7.2 7.2 0 0 0 -2-5.3 7.3 7.3 0 0 0 -5.4-2c-3.3 0-5.6 1.3-6.8 3.8a13.3 13.3 0 0 0 -1.2 5.6h-4.9a17.4 17.4 0 0 1 1.9-8.2c2.1-3.7 5.8-5.6 11.1-5.6s7.6 1.2 9.6 3.6a12.1 12.1 0 0 1 3.1 7.9 10.7 10.7 0 0 1 -3.3 7.9 29.8 29.8 0 0 1 -6.7 4.6l-3.7 2.1a22.1 22.1 0 0 0 -4.1 2.8 9.3 9.3 0 0 0 -3.4 5.1h21v4.6h-26.4a22.2 22.2 0 0 1 2-8.6z" fill="#df4b4b"/><path d="m3508.9 406.2c1.2-2.5 3.5-4.7 7-6.7l5.1-3a21.5 21.5 0 0 0 4.9-3.5 6.7 6.7 0 0 0 2.2-5.1 7.2 7.2 0 0 0 -2-5.3 7.5 7.5 0 0 0 -5.4-2c-3.3 0-5.6 1.3-6.9 3.8a15.3 15.3 0 0 0 -1.1 5.6h-4.9a17.4 17.4 0 0 1 1.9-8.2c2.1-3.7 5.7-5.6 11-5.6s7.7 1.2 9.7 3.6a12.1 12.1 0 0 1 3.1 7.9 10.7 10.7 0 0 1 -3.3 7.9 32.4 32.4 0 0 1 -6.7 4.6l-3.7 2.1a23.4 23.4 0 0 0 -4.2 2.8 9.6 9.6 0 0 0 -3.3 5.1h21v4.6h-26.4a20.6 20.6 0 0 1 2-8.6z" fill="#df4b4b"/><path d="m3547.8 332.9c1.2-2.4 3.6-4.6 7-6.7l5.2-2.9a22.9 22.9 0 0 0 4.8-3.5 7 7 0 0 0 2.2-5.1 6.9 6.9 0 0 0 -2-5.3 7.3 7.3 0 0 0 -5.4-2c-3.3 0-5.6 1.3-6.8 3.8a13.3 13.3 0 0 0 -1.2 5.6h-4.9a17.4 17.4 0 0 1 1.9-8.2c2.1-3.7 5.8-5.6 11.1-5.6s7.6 1.2 9.6 3.6a11.4 11.4 0 0 1 3.1 7.9 10.7 10.7 0 0 1 -3.3 7.9 29.8 29.8 0 0 1 -6.7 4.6l-3.7 2.1a22.3 22.3 0 0 0 -4.1 2.7 9.8 9.8 0 0 0 -3.4 5.2h21v4.6h-26.4a23.2 23.2 0 0 1 2-8.7z" fill="#df4b4b"/><path d="m3579 338.9a14.2 14.2 0 0 1 -3-9.1h5a12.2 12.2 0 0 0 1.4 5.4c1.3 2 3.5 3 6.8 3a9 9 0 0 0 6.1-2 6.6 6.6 0 0 0 2.3-5.3c0-2.6-.8-4.5-2.4-5.5a11.9 11.9 0 0 0 -6.7-1.6h-2v-4.2h2.3a10 10 0 0 0 4.5-.9 5.5 5.5 0 0 0 3.1-5.3 5.3 5.3 0 0 0 -2.1-4.5 7.5 7.5 0 0 0 -4.7-1.5c-3.3 0-5.5 1.1-6.7 3.2a11.1 11.1 0 0 0 -1.2 5h-4.8a14.1 14.1 0 0 1 1.8-7.3c1.9-3.5 5.4-5.3 10.3-5.3s7 .8 9.2 2.6 3.2 4.3 3.2 7.6a8.7 8.7 0 0 1 -1.9 5.7 7.9 7.9 0 0 1 -3.1 2.2 7.9 7.9 0 0 1 4.7 3.2 9.3 9.3 0 0 1 1.8 5.8 12 12 0 0 1 -3.7 9c-2.4 2.3-5.8 3.4-10.3 3.4s-7.8-1.1-9.9-3.6z" fill="#df4b4b"/><path d="m3672 120v24" fill="none" stroke="#093254" stroke-miterlimit="10" stroke-width="10"/><path d="m3486 169.8 12 20.8" fill="none" stroke="#093254" stroke-miterlimit="10" stroke-width="10"/><path d="m3349.8 306 20.8 12" fill="none" stroke="#093254" stroke-miterlimit="10" stroke-width="10"/><path d="m3300 492h24" fill="none" stroke="#093254" stroke-miterlimit="10" stroke-width="10"/><path d="m3349.8 678 20.8-12" fill="none" stroke="#093254" stroke-miterlimit="10" stroke-width="10"/><path d="m3486 814.2 12-20.8" fill="none" stroke="#093254" stroke-miterlimit="10" stroke-width="10"/><path d="m3672 864v-24" fill="none" stroke="#093254" stroke-miterlimit="10" stroke-width="10"/><path d="m3858 814.2-12-20.8" fill="none" stroke="#093254" stroke-miterlimit="10" stroke-width="10"/><path d="m3973.4 666 20.8 12" fill="none" stroke="#093254" stroke-miterlimit="10" stroke-width="10"/><path d="m4044 492h-24" fill="none" stroke="#093254" stroke-miterlimit="10" stroke-width="10"/><path d="m3973.4 318 20.8-12" fill="none" stroke="#093254" stroke-miterlimit="10" stroke-width="10"/><path d="m3846 190.6 12-20.8" fill="none" stroke="#093254" stroke-miterlimit="10" stroke-width="10"/><path d="m3684 192-12-24-12 24v360h24z" fill="#093254"/><path d="m3684 230.9-12-24-12 24v321.1h24z" fill="#093254"/><path d="m3672 528v-321.1" fill="none" stroke="#df4b4b" stroke-miterlimit="10" stroke-width="5"/><path d="m3672 528-.2 48" fill="none" stroke="#df4b4b" stroke-miterlimit="10" stroke-width="10"/><circle cx="3672" cy="492" fill="#df4b4b" r="12"/><path d="m2150.2 984.2c-3.9-2.9-7.7-5.4-11.2-7.5v-.2a8.9 8.9 0 0 0 2.4-6.5v-9h-12.8c0 21.1-11 28.1-22.4 36.7l-3.3-1.6v-.3c8.6-5.2 14.2-13.4 14.2-37.3 0-6.8-1-9.4-1.9-11.4v-.2c5.5-3.3 11.3-7.1 16.2-10.4-4.3-1.5-8.6-2.8-10.4-2.8-3.5 0-4.1.7-6.9 2.8l-1.2-1c2.7-2.7 7.7-7.9 11.5-12 12.3 1.8 23.7 8.5 31.4 12.5-1.7 2.2-2.8 5-2.8 9.8v26.5l5 2.4zm-8.8-43.5a54.3 54.3 0 0 0 -8.2-3.6c-3.7 2.4-4.6 7-4.6 11.9v4.2h12.8z" fill="#fff"/><path d="m2190.5 970.7a181.3 181.3 0 0 0 -17.2 13.7 39.6 39.6 0 0 0 -14-5.3l7.4-8.8a46.2 46.2 0 0 1 13.2 5.5l1.1-.8c0-7-.8-12.4-3.8-14.8l-12 6.7a15.5 15.5 0 0 1 -4.1-11c0-1.4.3-2.6.3-4a141.8 141.8 0 0 0 16.2-12.6 41.6 41.6 0 0 0 12.1 3.5v.4l-7.9 8.1a33.1 33.1 0 0 1 -9.9-4l-1.5 1.2c0 3.9.8 8.4 2.3 10.4l11.8-6.8c3.3 3 6.2 6.7 6.2 14.9a24 24 0 0 1 -.2 3.7z" fill="#fff"/><path d="m2214.1 952.1a34.8 34.8 0 0 0 -7.3-.6c0 4.9.1 15.8.1 20.8a68.5 68.5 0 0 0 11.2 3.2v.3l-8.3 8.3a89.4 89.4 0 0 0 -14-6c1.2-2 1.2-4.3 1.2-7.2l-.3-19-4.6.2-.2-.2c1.7-2.5 3.2-4.6 4.8-7.1v-2.7a8.1 8.1 0 0 0 -1.4-4.8v-.2a147.9 147.9 0 0 0 12.9-8.5l.2.2c-1.1 3.2-1.9 7.9-1.7 15.1 3.8 0 7.1-.1 11.4-.3z" fill="#fff"/><path d="m2242.3 960.6h-.3c-.3-4.3-1.3-9.6-2.7-12.3l-3.1 2.8c0 1.7-.3 5.2-.3 9v13.4c2.8 1.1 6.1 2.1 9.3 3v.3l-7.5 7.9a101.1 101.1 0 0 0 -13.8-5.4c1.2-1.7 1.7-4.4 1.8-8.7l.2-18.2c-2.5-2-5.4-4.3-6.2-4.8l7.6-7.4 8.3 8 10.6-8c2.6 3.4 4.2 8.1 4.7 13.9z" fill="#fff"/><path d="m2269.9 984.5a53.7 53.7 0 0 0 -16.3-6.8c.7-2.4 1.4-5.2 1.4-11.5v-12.9a9.2 9.2 0 0 0 -.9-4.3 116.9 116.9 0 0 0 17.4-8.8 63.8 63.8 0 0 0 12.8 6.4 13.6 13.6 0 0 0 -1 5.9l.5 16.8a9.6 9.6 0 0 0 1.4 5.5c-4.4 1.8-12 6.9-15.3 9.7zm3.7-33.2a36.8 36.8 0 0 0 -7.9-4.1l-.6.3-.3 24.3a81.9 81.9 0 0 1 8.4 4h.2c.2-4.4.2-10.1.2-14.4s.1-6.7 0-10.1z" fill="#fff"/><path d="m2317.4 984c-2.1-2-5.1-4.2-8.3-6.7 2-2.6 2.6-5.6 2.6-12.6v-13.4a31.4 31.4 0 0 0 -8.4-2.1v25c.8.5 2.5 1.9 3.8 2.6l-8.2 6.9a81 81 0 0 0 -8.9-6.3c2.3-1.5 3.2-4 3.2-8.9v-17.2a31.3 31.3 0 0 0 -5.4-3.4 78.7 78.7 0 0 0 7.5-7.8 72.6 72.6 0 0 0 7.8 6.5 65.7 65.7 0 0 0 6.7-6.1c3.3 1.8 10.3 5 13.5 6.3-.8 1.3-1.5 3.8-1.5 8.3v18.5c1.6 1.1 3 2.2 4.6 3.2-2.4 1.9-6.1 4.8-9 7.2z" fill="#fff"/><path d="m2345.8 984.5a55.9 55.9 0 0 0 -16.3-6.8 40.8 40.8 0 0 0 1.3-11.5v-12.9a9.4 9.4 0 0 0 -.8-4.3 122.1 122.1 0 0 0 17.4-8.8 61.3 61.3 0 0 0 12.8 6.4c-.7 1.1-1.1 3.7-1 5.9l.4 16.8a10.4 10.4 0 0 0 1.4 5.5c-4.4 1.8-12 6.9-15.2 9.7zm3.7-33.2a35.4 35.4 0 0 0 -8-4.1l-.5.3-.4 24.3a73 73 0 0 1 8.4 4h.3c.2-4.4.2-10.1.2-14.4s.1-6.7 0-10.1z" fill="#fff"/><path d="m2410.8 984.2a73.1 73.1 0 0 0 -8.3-7.4c-2.9 2.3-6.1 5-8.8 7.4a101.6 101.6 0 0 0 -8.9-8c2.1-1.6 2.4-3.2 2.6-9.3l.3-15.9a18.2 18.2 0 0 0 -8.1-2.2l-.4 24.6a17.1 17.1 0 0 0 4 2.9v.2c-2.4 1.9-6.4 5.5-8.8 7.8-2.5-2.5-6.2-5.9-8.2-7.5 2.2-2 3-4.3 3.1-10.6v-14.3a36.7 36.7 0 0 0 -5.6-3.8l7.5-8.2a92.1 92.1 0 0 0 7.9 7.1l6.7-6.4a49.2 49.2 0 0 0 8.9 1.6 41.2 41.2 0 0 0 2.4 5.2l6.9-6.3c2.8 1.4 9.4 4.3 12.8 5.7-1.3 2.7-1.9 6.6-1.9 14.1 0 5.6.3 10.6.4 12.7a34.6 34.6 0 0 0 5 2.7v.2zm-13.3-34.9-.3 24.2 5.2 2.7c.9-1.4 2.3-2.4 2.4-8l.6-16.7c-1.5-.9-5.7-1.9-7.9-2.2z" fill="#fff"/><path d="m2432.1 984.3a95.6 95.6 0 0 0 -9.4-7.5c2.3-2.2 3-5.1 3.1-8.3l.2-17.6a19.5 19.5 0 0 0 -4.6-3.1c1.9-1.7 5.4-5 7.9-7.8a89.8 89.8 0 0 0 8.7 6.1c-1.4 2-1.7 4.7-1.7 7.3l-.2 20.2c1.5.9 2.7 1.8 4.3 2.7v.2c-2 1.8-6.1 5.6-8.3 7.8zm0-49.5c-2.4.2-4.6.3-6.7.6l-.2-.3c2.7-3.3 5.3-6.1 8.1-9a84.1 84.1 0 0 1 9.4-1.5v.4a69.6 69.6 0 0 0 -10.6 9.8z" fill="#fff"/><path d="m2463.5 954.6a40 40 0 0 1 -8.1-5.1h-.1l.3 20.9a103.7 103.7 0 0 0 14.4 5.9v.2l-8.4 7.8a120.8 120.8 0 0 0 -17.3-8.5 9.7 9.7 0 0 0 1.1-4.8v-12c0-3.9-.6-7.1-1.5-8.6a110 110 0 0 0 14.1-10.3 91.6 91.6 0 0 0 12.7 7.4z" fill="#fff"/><path d="m2500.5 984.1-8-6.5a74.6 74.6 0 0 0 -6.3 6.8c-3.8-2.3-8.9-4.9-13.9-7.6a19.2 19.2 0 0 0 1.7-7.4l.2-11.2a16.9 16.9 0 0 0 -.9-6.5 137.7 137.7 0 0 0 13.5-11.6 144.1 144.1 0 0 0 16.6 4.2 22.5 22.5 0 0 0 -1.4 8.4l-.4 19.4 6.5 4v.2zm-16.6-35.7h-.3l.3 23.9 7.5 3.1h.3c.2-2.6.5-17.2.7-25a35.9 35.9 0 0 1 -8.5-2z" fill="#fff"/><path d="m2521.9 984.3a90.4 90.4 0 0 0 -11.3-7.4c2.1-2.1 2.4-4.7 2.4-12.2v-22c0-6-1-8.8-2.4-10.4a147.8 147.8 0 0 0 13.7-8.9l.3.3c-1 2.8-1.4 6-1.4 16.1v33.9l5.6 2.7v.2a69.5 69.5 0 0 0 -6.9 7.7z" fill="#fff"/><circle cx="2316" cy="492" fill="none" r="396" stroke="#bf965c" stroke-miterlimit="10" stroke-width="10"/><g fill="#bf965c"><path d="m2300.2 137.4-1-1c2-1.8 2.3-2.8 2.3-8.5v-14.6l-4.8 3.6-1-1.3 12.2-12.5 1 .8a6.2 6.2 0 0 0 -.8 2.8l-.3 21.9c0 1.7-.1 3.3 1.2 4.5v.6a37.5 37.5 0 0 0 -8.8 3.7z"/><path d="m2326.1 134.4v.3a20 20 0 0 0 -7.5 2.7h-.4c-.1-10.9 5.3-19 10.7-25.5-2.8-.1-8.2-.6-11-.6s-2.9.5-4.3 2.7l-1.1-.5a57 57 0 0 0 3.2-8.6c6.3 0 10 .8 15.4.8a7.6 7.6 0 0 0 4.2-1l1.1 1.1c-9.8 12.8-10.3 19.7-10.3 28.6z"/><path d="m2392.9 145.5-.7-1.3c2.4-1.2 3-2.1 4.4-7.6s2.5-8.8 3.8-14.1l-5.6 2.3-.6-1.6c4.8-2.8 11.7-6.8 15-8.9l.8 1.1a5.6 5.6 0 0 0 -1.5 2.5l-5.9 21c-.5 1.7-1 3.2 0 4.7l-.2.6c-2.3-.2-8.8.8-9.5 1.3z"/><path d="m2418.1 150.7c-7.9-2.8-11.8-7.5-10.5-12.2s4-4.8 6.7-5.2a6.2 6.2 0 0 1 -2.1-6.5c.8-3 4.1-4.8 8-6.2l4.4-1.5c5.9 2.8 8.7 6.1 7.6 10.1s-3 4.2-6 4.6c2.9 2.2 5.3 4.1 4.3 8s-6.5 6.2-12.4 8.9zm-1.5-15.7c-1.1.1-2 .5-2.6 2.5s.8 4.8 8.3 8.6a3.5 3.5 0 0 0 2.2-2.6c.5-1.9-1.7-4.6-7.9-8.5zm3.7-11.7c-1.8.4-2.7 1.2-3.1 2.5s2.4 3.9 3.9 4.9l2.5 1.6a2.8 2.8 0 0 0 2.9-2c.8-3.1-2.9-5.7-6.2-7z"/><path d="m2481.3 177.6-.4-1.4c2.6-.6 3.5-1.3 6.3-6.3s4.6-7.8 7.3-12.6l-6 .8-.2-1.7 16.8-4.7.5 1.2a8.2 8.2 0 0 0 -2.1 2.1l-11.2 18.7c-.8 1.5-1.7 2.8-1.2 4.5l-.3.6c-2.2-.8-8.7-1.5-9.5-1.2z"/><path d="m2495.2 185.9-.5-2.9h.2a13.1 13.1 0 0 0 3.5 1.1 15.7 15.7 0 0 0 15.6-5.6l-9 1.9c-4.1-3.8-6.1-8.5-3.3-13.4s5.7-4.9 11-5.5l5.7-.7c5.4 5.7 6.6 12.6 3.3 18.3-5.4 9.4-17.9 8.8-26.5 6.8zm16.7-22.3a3.3 3.3 0 0 0 -2.9 1.7 9.1 9.1 0 0 0 2.2 12.2l4-.7c2.6-4.5 0-10-3.3-13.2z"/><path d="m2566.4 239.4a31.2 31.2 0 0 0 -6.6-8.7 21.5 21.5 0 0 0 -7.6-5.4v-1.3c4.3-2.5 9.7-2.6 14.4-2s9.7.5 11.9-1.7 2.5-5.7-.5-8.7-4.2-1.9-5.6-.5-1.5 3.7.1 6.2h-.1l-7-.5a5.9 5.9 0 0 1 1.2-7c3.5-3.6 13.6-1.8 16.7 1.3 4.6 4.6 5 9.6 1.1 13.5s-7.7 2.7-12.1 1.6a30.7 30.7 0 0 0 -10.8-1.2 34.5 34.5 0 0 1 6.5 4.9 27.4 27.4 0 0 1 5.5 7.3 30.4 30.4 0 0 0 -7.1 2.2z"/><path d="m2582 251.8-3.4-.2c-4.5-6.3-3.1-14 2.1-19.2s11.5-4.7 18.6-3.9l2.1.3c3.9 6.9 2.6 13.6-2.2 18.4s-9.9 5.3-17.2 4.6zm13.3-20.9c-2.8-.1-5.6.9-8.9 4.3s-4.5 8.1-2.1 13.9c2.9.2 5.4-.8 8.1-3.5 4.7-4.7 5.2-8.6 2.9-14.7z"/><path d="m2624.4 313.6a36.3 36.3 0 0 0 -4.2-10.1 22.7 22.7 0 0 0 -5.9-7.2l.3-1.2c4.8-1.3 10 0 14.4 1.8s9.2 3 12 1.4 3.8-4.8 1.7-8.5c-1.1-1.9-3.6-2.9-5.2-2s-2.5 3.3-1.6 6.1h-.1l-6.6-2.3a6 6 0 0 1 2.9-6.5c4.4-2.5 13.6 1.7 15.8 5.5 3.3 5.7 2.3 10.6-2.4 13.4s-8.1.7-12.1-1.6a31.4 31.4 0 0 0 -10.1-4 40.8 40.8 0 0 1 5 6.4c2 3.5 3.2 6.6 3.4 8.5a35.7 35.7 0 0 0 -7.3.3z"/><path d="m2627.5 322.3.4-1.4c2.6.8 3.6.6 8.6-2.3l12.6-7.2-5.5-2.4.6-1.5 16.9 4.3v1.3a6 6 0 0 0 -2.9.7l-19.2 10.7c-1.5.8-2.9 1.5-3.3 3.3l-.6.3c-1.4-1.8-6.7-5.6-7.6-5.8z"/><path d="m2658.8 395.5a32.3 32.3 0 0 0 -1.4-10.8 23.3 23.3 0 0 0 -3.9-8.5l.7-1.1c4.9 0 9.7 2.6 13.4 5.4s8.1 5.4 11.2 4.5 5-3.6 3.8-7.8c-.5-2.1-2.6-3.7-4.5-3.2s-3.2 2.5-3 5.4h-.2l-5.8-3.9a6.2 6.2 0 0 1 4.5-5.5c4.9-1.3 12.7 5.2 13.9 9.4 1.7 6.4-.5 10.9-5.8 12.3s-8-1.5-11.3-4.7-5.4-5-8.7-6.4a39.1 39.1 0 0 1 3.2 7.5 27.9 27.9 0 0 1 1.1 9 35.9 35.9 0 0 0 -7.2-1.6z"/><path d="m2665.5 420.4a35.1 35.1 0 0 0 -1.4-10.8 23.3 23.3 0 0 0 -3.9-8.5l.7-1.1c4.9 0 9.6 2.6 13.4 5.5s8.1 5.3 11.2 4.5 4.9-3.7 3.8-7.8c-.5-2.2-2.6-3.8-4.5-3.3s-3.2 2.5-3 5.5h-.2l-5.8-3.9a6.1 6.1 0 0 1 4.5-5.5c4.9-1.3 12.7 5.2 13.9 9.4 1.6 6.4-.6 10.9-5.8 12.3s-8-1.4-11.3-4.7-5.4-4.9-8.7-6.4a36.1 36.1 0 0 1 3.1 7.5 26.2 26.2 0 0 1 1.2 9.1 36.1 36.1 0 0 0 -7.2-1.8z"/><path d="m2673.1 488.7a36.2 36.2 0 0 0 1.5-10.9 21.8 21.8 0 0 0 -1.6-9.1l.9-.9c4.8 1.2 8.7 4.9 11.6 8.7s6.5 7.2 9.7 7.2 5.7-2.2 5.7-6.5c0-2.2-1.6-4.3-3.5-4.3s-3.8 1.6-4.4 4.4h-.2l-4.6-5.2a6.2 6.2 0 0 1 5.8-4.2c5.1 0 10.9 8.3 10.9 12.7 0 6.6-3.3 10.4-8.7 10.4s-7.4-3.5-9.7-7.4-3.9-6.3-6.7-8.5a40.6 40.6 0 0 1 1.1 8 27.4 27.4 0 0 1 -1.3 9.1 31.3 31.3 0 0 0 -6.5-3.5z"/><path d="m2670.9 495.9 2.3-2.1h.1c.7 7.9 6 15.1 11.6 15.1 2.7 0 4.2-2 4.2-5.1a7.6 7.6 0 0 0 -.3-2.1l.9-.7c4 3.8 6.4 6.2 7.9 7.5 0-2.7.6-7.5.6-9.2a6.5 6.5 0 0 0 -2.9-5l.6-1.1a45.1 45.1 0 0 0 8.5 3.4 119.1 119.1 0 0 0 -.8 13 26.9 26.9 0 0 0 .5 5.7l-1.1.7-8.5-7.3c-.5 3.2-2.3 7.5-7.6 7.5-7.5 0-13.9-9.6-16-20.3z"/><path d="m2660.6 582.5a35.7 35.7 0 0 0 4.2-10.1 22.8 22.8 0 0 0 .8-9.3l1.2-.6c4.3 2.4 7.1 7 8.9 11.4s4.4 8.7 7.5 9.5 6.1-.7 7.2-4.9c.5-2.1-.5-4.5-2.3-5s-4 .6-5.4 3.2h-.2l-3-6.3a6.1 6.1 0 0 1 6.6-2.5c4.9 1.3 8.4 10.9 7.3 15.1-1.7 6.4-5.9 9.2-11.1 7.8s-6.2-5.3-7.5-9.7a31.3 31.3 0 0 0 -4.3-9.9 37 37 0 0 1 -1 8 25 25 0 0 1 -3.6 8.4 27.8 27.8 0 0 0 -5.3-5.1z"/><path d="m2661.9 609.2.9-3-2.6-.7a3.6 3.6 0 0 0 -3.2.4h-.5a42.4 42.4 0 0 0 -1.3-9.6l1.1-.7c1 1.9 1.9 2.9 3.5 3.4l4.5 1.3 2.9-11.2 2.3-.6 17 23.4-.7 1.2a24.4 24.4 0 0 0 -4.7-1.8l-13.2-3.6-.5 2a3.6 3.6 0 0 0 .3 3.4l-.6.6c-1.9-1.7-4.1-3.7-5.2-4.5zm15.8-5.4-6.2-8.5-1.9 6.5z"/><path d="m2625.5 665.8 1.4-.3c.6 2.6 1.3 3.4 6.2 6.2l12.7 7.3-.8-5.9 1.7-.3c1.5 5.5 3.6 13.1 4.7 16.8l-1.2.6a5.9 5.9 0 0 0 -2.1-2.1l-18.7-11.2c-1.5-.9-2.8-1.8-4.5-1.3l-.6-.3c.8-2.1 1.5-8.6 1.2-9.5z"/><path d="m2561.2 750.4a32.7 32.7 0 0 0 8.7-6.6 24 24 0 0 0 5.4-7.6h1.2c2.5 4.3 2.7 9.7 2.1 14.3s-.6 9.8 1.7 12 5.6 2.5 8.7-.6c1.5-1.5 1.9-4.1.5-5.5s-3.8-1.5-6.2.1l-.2-.2.5-6.9a6 6 0 0 1 7 1.1c3.6 3.6 1.9 13.7-1.2 16.8-4.6 4.6-9.7 4.9-13.5 1.1s-2.8-7.7-1.6-12.1 1.6-7.2 1.2-10.8a39.4 39.4 0 0 1 -4.9 6.5 27.4 27.4 0 0 1 -7.3 5.5 36.1 36.1 0 0 0 -2.1-7.1z"/><path d="m2499.9 796 3 .9c-6.4 4.5-10 12.7-7.2 17.6 1.4 2.3 3.8 2.6 6.5 1.1a7.5 7.5 0 0 0 1.7-1.4l1 .5c-1.3 5.3-2.1 8.6-2.5 10.6 2.3-1.4 6.7-3.3 8.2-4.1a6.5 6.5 0 0 0 3-5h1.1a53.2 53.2 0 0 0 1.4 9.1 104.8 104.8 0 0 0 -11.7 5.8 30.6 30.6 0 0 0 -4.7 3.3l-1.1-.6c.9-4.6 1.6-8.4 2-11-3 1.1-7.6 1.7-10.3-2.9-3.7-6.4 1.4-16.8 9.6-23.9z"/><path d="m2402.1 846.6 3.1-.8-.7-2.6a3.8 3.8 0 0 0 -2-2.5l-.2-.5a38.3 38.3 0 0 0 7.7-6l1.1.6c-1.1 1.9-1.5 3.1-1.1 4.7l1.1 4.6 11.2-3 1.6 1.6-11.8 26.5h-1.3a27.2 27.2 0 0 0 -.9-4.9c-1.7-6.8-2.7-10.4-3.5-13.3l-1.9.6a3.9 3.9 0 0 0 -2.8 1.9l-.8-.2c.5-2.5 1.1-5.4 1.2-6.7zm12.6 10.9h.1l4.2-9.7-6.6 1.6z"/><path d="m2307.8 873.2a70.1 70.1 0 0 1 11.8 1.6c.5-1.2 1.1-2.6 1.6-4a21.7 21.7 0 0 1 -5.1.5c-5.6 0-10.7-2.6-10.7-8.3 0-9.5 13.5-14.6 19.9-15.9l2.4 2.2-.2.3c-11 1.3-14.9 7.5-14.9 11.4s1.8 4.2 5.5 4.2a16.3 16.3 0 0 0 7.2-1.8l2 1.1a138.7 138.7 0 0 0 -6.6 16.3l-.4.2a58.2 58.2 0 0 0 -11.2-1.4h-4.8a55.9 55.9 0 0 0 3.5-6.4z"/><path d="m2218.9 837.8 5.3-2.1c6.7 4 9.6 10.6 8 16.8-2.9 10.6-15 12.7-23.7 13l-1.3-2.7h.2a13.2 13.2 0 0 0 3.6.2c6.6-.6 11.5-4 13.6-9l-8.2 4.2c-5-2.6-8.3-6.1-6.7-12.2 1.1-4.2 4.2-6.3 9.2-8.2zm2.6 15.8 3.8-1.8c1.2-4.9-2.9-9.7-6.7-12a3.5 3.5 0 0 0 -2.2 2.5c-1.1 4.2-.1 8.8 5.1 11.3z"/><path d="m2135.6 801.9.3-.2a21.6 21.6 0 0 0 7.8 1.4l.3.3c-5.3 9.5-14 13.7-22 16.7 2.3 1.5 6.7 4.7 9.2 6.1s2.7 1 5.1-.2l.6 1a69.6 69.6 0 0 0 -7 5.8c-5.4-3.1-8.2-5.7-12.9-8.4a9 9 0 0 0 -4.2-1.3l-.4-1.5c14.9-6.3 18.8-12 23.2-19.7z"/><path d="m2063 742.4c5.4 6.4 6.5 12.4 3 15.8s-5.8 2.2-8.4 1.2a6.3 6.3 0 0 1 -1.4 6.7c-2.2 2.2-6 2-10 1.3l-4.6-.9c-3.8-5.3-4.5-9.6-1.6-12.5s4.8-2.1 7.5-1c-1.4-3.3-2.5-6.2.3-9.1s8.7-2.1 15.2-1.5zm-6.5 14.4c1 .4 2 .5 3.4-.9s1.8-4.6-2.9-11.6a3.2 3.2 0 0 0 -3.1 1.1c-1.4 1.4-.8 4.9 2.6 11.4zm-9.1 8.2c1.8.6 3 .4 3.9-.6s-.1-4.6-.9-6.2l-1.4-2.6a2.8 2.8 0 0 0 -3.5.3c-2.3 2.3-.3 6.3 1.9 9.1z"/><path d="m2011.3 674.9-1 2.8h-.2a10.3 10.3 0 0 0 -2.5-2.7c-5.1-4.3-11.2-5.1-16.3-3l8.8 2.8c1.6 5.4.9 10.5-3.9 13.3s-7.4 1.4-12.3-.7c-2.8-1.3-5.2-2.2-5.2-2.2-1.9-7.7.5-14.3 6.2-17.6 9.5-5.4 20 1.3 26.4 7.3zm-25.6 11a3.2 3.2 0 0 0 3.3 0c3.7-2.1 6.3-6.2 4.3-11.7l-3.8-1.4c-4.5 2.6-5.1 8.6-3.8 13.1z"/><path d="m1977.2 598.3-.7 1.2c-2.3-1.5-3.4-1.5-8.9 0l-14.1 3.7 4.8 3.7-1 1.4c-4.9-2.8-11.8-6.8-15.2-8.6l.4-1.2a6 6 0 0 0 3 0l21.2-5.3c1.6-.5 3.2-.8 4-2.4h.7a36.5 36.5 0 0 0 5.8 7.5z"/><path d="m1966.5 573 2.9 2c.7 7.7-4.4 13.6-11.4 15.5s-12.3-1.6-18.1-5.9l-1.6-1.2c0-8 4.5-13.2 11.1-14.9s11.1.4 17.1 4.5zm-21.9 11.6c2.3 1.4 5.2 2 9.8.7s8-4.8 8.8-11c-2.4-1.6-5.1-2-8.7-1-6.5 1.7-8.9 4.8-9.9 11.3z"/><path d="m1961.1 502-1 1c-1.8-2-2.8-2.3-8.6-2.3h-14.5l3.6 4.8-1.3 1c-4-3.9-9.7-9.6-12.5-12.2l.8-1a6.3 6.3 0 0 0 2.8.7l21.9.4c1.7 0 3.3.1 4.5-1.2h.6a37.5 37.5 0 0 0 3.7 8.8z"/><path d="m1961.1 486.3-1 1c-1.8-2-2.8-2.3-8.6-2.3h-14.5l3.6 4.8-1.3 1-12.5-12.2.8-1a6.2 6.2 0 0 0 2.8.8l21.9.3c1.7 0 3.3.1 4.5-1.2h.6a37.5 37.5 0 0 0 3.7 8.8z"/><path d="m1969.2 416-1.2.6c-1.2-2.3-2.2-2.9-7.7-4.4l-14.1-3.8 2.3 5.6-1.5.7-8.9-15.1 1-.8a6.3 6.3 0 0 0 2.5 1.5l21 6c1.7.4 3.2.9 4.7 0h.7c-.3 2.4.7 8.9 1.2 9.7z"/><path d="m1976.2 383.6a34.5 34.5 0 0 0 -4.2 10.1 22.7 22.7 0 0 0 -.8 9.3l-1.2.6c-4.3-2.5-7.1-7-8.9-11.4s-4.4-8.7-7.4-9.5-6.2.7-7.3 4.8c-.5 2.2.5 4.6 2.3 5.1s4-.6 5.4-3.2h.2l3 6.2a6 6 0 0 1 -6.6 2.5c-4.9-1.3-8.4-10.8-7.3-15.1 1.7-6.3 5.9-9.1 11.1-7.7s6.2 5.3 7.5 9.7a31.3 31.3 0 0 0 4.3 9.9 36.3 36.3 0 0 1 1-8 25.8 25.8 0 0 1 3.6-8.5 32 32 0 0 0 5.3 5.2z"/><path d="m2001.3 327.7-1.4.4c-.5-2.6-1.3-3.4-6.2-6.3l-12.6-7.3.7 6-1.7.2c-1.5-5.4-3.6-13.1-4.7-16.8l1.2-.5a5.9 5.9 0 0 0 2.1 2.1l18.8 11.2c1.4.8 2.8 1.7 4.5 1.2l.5.3c-.8 2.2-1.5 8.7-1.2 9.5z"/><path d="m2008.5 316.4-3 .7h-.1c3.4-7.1 2.4-16-2.5-18.8-2.4-1.3-4.6-.4-6.2 2.3a9.3 9.3 0 0 0 -.8 2h-1.1c-1.5-5.3-2.4-8.5-3.1-10.4-1.3 2.4-4.2 6.1-5.1 7.6a6.5 6.5 0 0 0 0 5.8l-1 .7a69.7 69.7 0 0 0 -5.7-7.3 106 106 0 0 0 7.2-10.8 33.8 33.8 0 0 0 2.4-5.1h1.3c1.5 4.4 2.8 8.1 3.7 10.5 2.1-2.5 5.8-5.3 10.4-2.6 6.4 3.6 7.2 15.1 3.6 25.4z"/><path d="m2053.9 252.4h-1.4c.1-2.7-.4-3.6-4.4-7.7s-6.4-6.5-10.3-10.3l-.8 6-1.7-.2c0-5.7-.1-13.6-.2-17.5l1.3-.2a5.1 5.1 0 0 0 1.5 2.6l15.2 15.7c1.2 1.2 2.2 2.4 4 2.3l.5.5a35.5 35.5 0 0 0 -3.7 8.8z"/><path d="m2069.8 222.6-2.2 2.3 1.8 1.8a3.6 3.6 0 0 0 3 1.2l.4.4a41.2 41.2 0 0 0 -3.7 9h-1.2c0-2.1-.2-3.4-1.4-4.6l-3.2-3.5-8.2 8.3-2.2-.7-3.1-28.7 1.3-.6a22.6 22.6 0 0 0 3.1 3.8c4.9 5 7.6 7.6 9.7 9.7l1.4-1.4a3.7 3.7 0 0 0 1.4-3.1l.8-.2c.8 2.3 1.8 5.1 2.3 6.3zm-16.3-3.2h-.1l1.2 10.5 4.9-4.7z"/><path d="m2208.9 153.5-1.2-.8c1.4-2.2 1.5-3.3 0-8.8s-2.3-8.9-3.8-14.1l-3.7 4.7-1.3-1c2.8-4.9 6.7-11.8 8.5-15.2l1.2.5a7.4 7.4 0 0 0 0 3l5.4 21.1c.4 1.7.7 3.2 2.3 4.1l.2.6c-2.1 1-7.2 5.1-7.6 5.9z"/><path d="m2236.4 141.1-3.6 4.5c-7.8-.1-13.6-4.4-15.3-10.6-2.8-10.5 6.6-18.5 14-23.1l2.5 1.7-.2.2a12.6 12.6 0 0 0 -3.2 1.7c-5.4 3.7-7.9 9.1-7.3 14.5l5.1-7.7c5.6-.2 10.2 1.1 11.8 7.2 1.1 4.1-.5 7.5-3.8 11.6zm-10.2-12.3c-.6.7-1.5 2.1-2.4 3.4 1.4 4.8 7.3 6.9 11.8 7a3.6 3.6 0 0 0 .7-3.2c-1.2-4.2-4.3-7.7-10.1-7.2z"/><path d="m2125.6 191.8-1.4-.4c.8-2.5.6-3.5-2.3-8.5s-4.5-7.9-7.3-12.6l-2.3 5.5-1.6-.6c1.5-5.5 3.5-13.2 4.4-16.9h1.3a6 6 0 0 0 .7 2.9l10.7 19.1c.8 1.4 1.5 2.9 3.3 3.3l.3.5a35.6 35.6 0 0 0 -5.8 7.7z"/><path d="m2140.1 154a60.1 60.1 0 0 1 -11.1 4.5c.2 1.3.4 2.8.7 4.3a19.8 19.8 0 0 1 4.1-3c4.9-2.8 10.6-3.2 13.5 1.8 4.7 8.2-4.4 19.4-9.3 23.8l-3.2-.8v-.3c8.8-6.7 9-14 7.1-17.3s-3.6-2.8-6.8-.9a15.5 15.5 0 0 0 -5.3 5.2h-2.3a134.1 134.1 0 0 0 -2.5-17.5l.3-.3a61.3 61.3 0 0 0 10.3-4.4c1.2-.7 2.6-1.5 3.9-2.4h.3a65.6 65.6 0 0 0 .3 7.3z"/></g><circle cx="2316" cy="492" fill="none" r="348" stroke="#bf965c" stroke-miterlimit="10" stroke-width="10"/><circle cx="2316" cy="492" fill="#f3eec7" r="324" stroke="#bf965c" stroke-miterlimit="10" stroke-width="10"/><path d="m2316 816c119.9 0 224.6-65.1 280.6-161.9-56-96.9-160.7-162.1-280.7-162.1s-224.5 65.1-280.6 161.9c56 96.9 160.8 162.1 280.7 162.1z" fill="#df4b4b" stroke="#bf965c" stroke-miterlimit="10" stroke-width="10"/><path d="m1994.8 534.3s100.9-101.3 321.1-42.3" fill="none" stroke="#bf965c" stroke-miterlimit="10" stroke-width="10"/><path d="m1994.8 449.7s123.7-71.7 321.1 42.3" fill="none" stroke="#bf965c" stroke-miterlimit="10" stroke-width="10"/><path d="m2016.7 368s138.1-37.2 299.2 124" fill="none" stroke="#bf965c" stroke-miterlimit="10" stroke-width="10"/><path d="m2059 294.8s143-.3 256.9 197.2" fill="none" stroke="#bf965c" stroke-miterlimit="10" stroke-width="10"/><path d="m2118.8 235s138.2 36.7 197.1 257" fill="none" stroke="#bf965c" stroke-miterlimit="10" stroke-width="10"/><path d="m2192 192.7s124 71.3 123.9 299.3" fill="none" stroke="#bf965c" stroke-miterlimit="10" stroke-width="10"/><path d="m2637.2 534.3s-100.9-101.3-321.1-42.3" fill="none" stroke="#bf965c" stroke-miterlimit="10" stroke-width="10"/><path d="m2637.2 449.7s-123.7-71.7-321.1 42.3" fill="none" stroke="#bf965c" stroke-miterlimit="10" stroke-width="10"/><path d="m2615.3 368s-138.1-37.2-299.2 124" fill="none" stroke="#bf965c" stroke-miterlimit="10" stroke-width="10"/><path d="m2573 294.8s-143-.3-256.9 197.2" fill="none" stroke="#bf965c" stroke-miterlimit="10" stroke-width="10"/><path d="m2513.2 235s-138.2 36.7-197.1 257" fill="none" stroke="#bf965c" stroke-miterlimit="10" stroke-width="10"/><path d="m2440 192.7s-124 71.3-123.9 299.3" fill="none" stroke="#bf965c" stroke-miterlimit="10" stroke-width="10"/><circle cx="2316" cy="642" fill="#093254" r="150"/><circle cx="2316" cy="492" fill="none" r="228" stroke="#bf965c" stroke-miterlimit="10" stroke-width="10"/><path d="m2316 168v324" fill="none" stroke="#bf965c" stroke-miterlimit="10" stroke-width="10"/><circle cx="2316" cy="492" fill="#f3eec7" r="132" stroke="#bf965c" stroke-miterlimit="10" stroke-width="10"/><path d="m2045.3 496.3-.7-.7c1.4-1.2 1.7-2 1.7-6v-10.2l-3.4 2.6-.7-.9c2.7-2.9 6.7-6.8 8.5-8.8l.7.6a4.1 4.1 0 0 0 -.5 2l-.2 15.2c0 1.2-.1 2.3.8 3.2v.4a28.9 28.9 0 0 0 -6.2 2.6z" fill="#093254"/><path d="m2060.6 419.2a26.9 26.9 0 0 0 -7.6-1 16.2 16.2 0 0 0 -6.5 1.1l-.6-.7c.9-3.3 3.5-6 6.1-8s5.1-4.6 5.1-6.8-1.6-4-4.6-4c-1.5 0-3 1.1-3 2.4s1.1 2.7 3.1 3.1l-3.7 3.2a4.3 4.3 0 0 1 -2.9-4c0-3.5 5.9-7.7 8.9-7.7 4.6 0 7.3 2.3 7.3 6.2s-2.5 5.1-5.2 6.8a21.2 21.2 0 0 0 -6 4.7 27.9 27.9 0 0 1 5.7-.8 19.1 19.1 0 0 1 6.3.9 19.5 19.5 0 0 0 -2.4 4.6z" fill="#093254"/><path d="m2086.8 347-1.5-1.6c5.5-.5 10.5-4.2 10.5-8.1 0-1.9-1.3-3-3.5-3l-1.5.2-.5-.6c2.7-2.7 4.4-4.4 5.3-5.5-1.9 0-5.2-.4-6.4-.4a5 5 0 0 0 -3.6 2l-.7-.4a35.4 35.4 0 0 0 2.4-6 60.3 60.3 0 0 0 9.1.6 24.7 24.7 0 0 0 3.9-.3l.5.7-5 6c2.2.4 5.2 1.6 5.2 5.3 0 5.1-6.7 9.6-14.2 11.1z" fill="#093254"/><path d="m2149.2 283.6h-2.2v1.8a2.5 2.5 0 0 0 .9 2.1v.4a30 30 0 0 0 -6.3 2.6l-.6-.6a3.8 3.8 0 0 0 1.6-3v-3.3h-8.2l-.7-1.5 12.7-15.7.9.3a16.9 16.9 0 0 0 -.3 3.5v9.6h1.4a2.4 2.4 0 0 0 2.2-.9l.5.3a46.6 46.6 0 0 0 -1.9 4.4zm-6.5-9.7h-.1l-4.6 5.8h4.7z" fill="#093254"/><path d="m2211.5 235.5a43.7 43.7 0 0 1 -8.3-1.2c-.3.9-.7 1.9-1 2.9a14.6 14.6 0 0 1 3.5-.4c3.9 0 7.5 1.8 7.5 5.8 0 6.7-9.5 10.2-14 11.2l-1.6-1.6v-.2c7.7-.9 10.4-5.3 10.4-8s-1.2-2.9-3.8-2.9a10.9 10.9 0 0 0 -5 1.3l-1.4-.8a83.6 83.6 0 0 0 4.6-11.5h.3a39.6 39.6 0 0 0 7.8 1h3.3z" fill="#093254"/><path d="m2296.3 226.1-3.2 2.4c-5.3-1.5-8.5-5.5-8.5-9.9 0-7.7 7.9-11.3 13.7-13.1l1.4 1.6h-.2a8.6 8.6 0 0 0 -2.4.5c-4.4 1.6-7.1 4.8-7.6 8.5 1.7-1.5 3.7-3.2 4.8-4.3 3.8.9 6.7 2.6 6.7 7.1 0 3-1.7 5-4.7 7.2zm-4.6-10.2-2.3 1.9c.1 3.5 3.7 6 6.7 6.9a2.5 2.5 0 0 0 1.1-2.1c0-3-1.5-6-5.5-6.7z" fill="#093254"/><path d="m2378.5 231.6v.2a13.6 13.6 0 0 0 -5.3 1.9h-.3c0-7.6 3.7-13.2 7.6-17.8-2 0-5.8-.4-7.7-.4a3.3 3.3 0 0 0 -3.1 1.9l-.7-.4a55.1 55.1 0 0 0 2.2-6c4.4 0 7 .6 10.8.6a6.3 6.3 0 0 0 3-.7l.7.8c-6.9 8.8-7.2 13.7-7.2 19.9z" fill="#093254"/><path d="m2441.2 257.4c-5.8-.4-9.3-2.9-9.3-6.3s1.8-4 3.6-4.8a4.5 4.5 0 0 1 -2.6-4c0-2.2 1.9-3.9 4.3-5.6l2.7-1.8c4.5.8 7 2.5 7 5.4a4.7 4.7 0 0 1 -3.2 4.2c2.3.9 4.3 1.8 4.3 4.6s-3.2 5.4-6.8 8.3zm-3.8-10.3c-.8.3-1.3.7-1.3 2.1s1.4 3.1 7.2 4.3a2.3 2.3 0 0 0 1-2.1c0-1.4-2-2.8-6.9-4.3zm.3-8.6a2.5 2.5 0 0 0 -1.6 2.2c0 1.5 2.3 2.2 3.5 2.6l2 .6a1.9 1.9 0 0 0 1.6-1.8c0-2.3-3-3.3-5.5-3.6z" fill="#093254"/><path d="m2494.1 296.5-1.3-1.6h.1a9.9 9.9 0 0 0 2.5-.6 10.9 10.9 0 0 0 7.5-8.8l-4.8 4.3c-3.8-.9-6.7-3.1-6.7-7s1.7-5 4.7-7.2l3.2-2.4c5.3 1.5 8.5 5.3 8.5 9.9 0 7.6-7.8 11.6-13.7 13.4zm2.3-19.4a2.4 2.4 0 0 0 -1.1 2c0 3 1.5 6 5.5 6.7l2.2-1.8c0-3.6-3.4-6.1-6.6-6.9z" fill="#093254"/><path d="m2536 344.8-.7-.7c1.3-1.3 1.6-2 1.6-6v-10.2l-3.4 2.5-.7-.9 8.5-8.7.8.5a3.6 3.6 0 0 0 -.6 2l-.2 15.3c0 1.2-.1 2.3.9 3.2v.4c-1.6.3-5.8 2.1-6.2 2.6z" fill="#093254"/><path d="m2554.9 342.1-1.8 1.6c-5.4-.9-8.4-5.4-8.4-10.5s3.3-8 7.2-11.2l1.2-.8a10 10 0 0 1 8 10.2c0 5.5-2.2 7.4-6.2 10.7zm-3.8-16.8c-1.4 1.2-2.3 3.1-2.3 6.5s1.8 6.2 5.9 7.8a6.9 6.9 0 0 0 2.3-5.7c0-4.6-1.7-6.8-5.9-8.6z" fill="#093254"/><path d="m2572.5 425.6-.6-.7c1.3-1.3 1.6-2 1.6-6v-10.2l-3.4 2.5-.7-.9 8.5-8.7.8.5a3.6 3.6 0 0 0 -.6 2l-.2 15.3c0 1.2-.1 2.3.8 3.1v.5a26.3 26.3 0 0 0 -6.2 2.6z" fill="#093254"/><path d="m2583.5 425.6-.7-.7c1.4-1.3 1.6-2 1.6-6s.1-6.4 0-10.2l-3.3 2.5-.7-.9 8.5-8.7.7.5a4.8 4.8 0 0 0 -.5 2l-.2 15.3c0 1.2-.1 2.3.8 3.1v.5c-1.6.3-5.8 2.1-6.2 2.6z" fill="#093254"/><path d="m2583.4 497-.7-.7c1.4-1.2 1.6-1.9 1.6-5.9s.1-6.4 0-10.2l-3.3 2.5-.7-.9c2.7-2.8 6.7-6.8 8.5-8.8l.7.6a4.1 4.1 0 0 0 -.5 2l-.2 15.3c0 1.1-.1 2.3.8 3.1v.5a23.3 23.3 0 0 0 -6.2 2.5z" fill="#093254"/><path d="m2606.5 495.9a25.7 25.7 0 0 0 -7.5-1 16.2 16.2 0 0 0 -6.5 1.1l-.6-.6c.9-3.4 3.5-6.1 6.1-8.1s5.1-4.6 5.1-6.8-1.6-4-4.6-4c-1.5 0-3 1.1-3 2.5s1.1 2.6 3.1 3v.2l-3.7 3.1a4.3 4.3 0 0 1 -2.9-4c0-3.5 5.9-7.6 8.9-7.6 4.6 0 7.3 2.3 7.3 6.1s-2.5 5.1-5.2 6.8a21.2 21.2 0 0 0 -6 4.7 27.9 27.9 0 0 1 5.7-.8 19.1 19.1 0 0 1 6.3.9 28.5 28.5 0 0 0 -2.5 4.5z" fill="#093254"/><path d="m2321.6 177.8a13.7 13.7 0 0 0 3-4.5 14.5 14.5 0 0 0 0-10.6 13.7 13.7 0 0 0 -3-4.5 15.2 15.2 0 0 0 -4.6-3 13.2 13.2 0 0 0 -5.3-1.1 23.7 23.7 0 0 0 -5.3 1.1 15.4 15.4 0 0 1 0 25.6 23.7 23.7 0 0 0 5.3 1.1 13.2 13.2 0 0 0 5.3-1.1 15.2 15.2 0 0 0 4.6-3z" fill="#093254"/><path d="m2316 168v648" fill="none" stroke="#093254" stroke-miterlimit="10" stroke-width="5"/><path d="m2146.7 785.3 2.1-9.8-8.7-5 10-1 2-9.8 4.1 9.1 10-1-7.5 6.7 4.1 9.1-8.7-5z" fill="#093254"/><path d="m2154 772.6 273.3-473.4" fill="none" stroke="#093254" stroke-miterlimit="10" stroke-width="5"/><path d="m2410.3 188 .6-.7.6-.8 11.7-1.5-9.4-7.1c0-.3-.1-.6-.1-.9a2.9 2.9 0 0 0 -.2-.9l7.2-9.3-11.7 1.5-.6-.5-.8-.5-1.4-11.7-7.2 9.4h-.9l-.8.2-9.4-7.2 1.6 11.6-.6.7a3.5 3.5 0 0 0 -.5.8l-11.7 1.5 9.4 7.1v.9c.1.3.1.6.2.9l-7.2 9.3 11.7-1.6.6.6.8.5 1.5 11.7 7.2-9.4h.8l.9-.2 9.3 7.2zm3-5.7a2.9 2.9 0 0 0 .2-.9 2.9 2.9 0 0 1 -.2.9zm-26.4-8.1-.3.7z" fill="#093254"/><path d="m2232.1 805 167.8-626" fill="none" stroke="#093254" stroke-miterlimit="10" stroke-width="5"/><path d="m2440.3 683.4v-.1l-286.3-471.9 265.5 483.9.1.1 58.3 77.1-37.6-89 .1-.1z" fill="#093254"/><circle cx="2316" cy="492" fill="#093254" r="24"/><circle cx="2316" cy="492" fill="#bf965c" r="12"/><path d="m2263.2 583.5a145.8 145.8 0 0 1 -15-23.7l-35.3 35.3a199.1 199.1 0 0 0 59 61.5l13.4-50a146.4 146.4 0 0 1 -22.1-23.1z" fill="#093254" stroke="#bf965c" stroke-miterlimit="10" stroke-width="10"/><path d="m2233.6 469.9-46.6-12.5a201 201 0 0 0 0 69.2l46.6-12.5a153.4 153.4 0 0 1 0-44.2z" fill="#093254" stroke="#bf965c" stroke-miterlimit="10" stroke-width="10"/><path d="m2238.7 536.6a167 167 0 0 1 -5.1-22.5l-46.6 12.5a198.2 198.2 0 0 0 25.9 68.5l35.3-35.3a143 143 0 0 1 -9.5-23.2z" fill="#093254" stroke="#bf965c" stroke-miterlimit="10" stroke-width="10"/><path d="m2521.6 547.1a151.2 151.2 0 0 1 -71.8 78.7l35.3 35.3a198.9 198.9 0 0 0 83.1-101.5z" fill="#093254" stroke="#bf965c" stroke-miterlimit="10" stroke-width="10"/><path d="m2355.6 639.7a149.7 149.7 0 0 1 -70.3-33.1l-13.4 50a198.3 198.3 0 0 0 97 33z" fill="#093254" stroke="#bf965c" stroke-miterlimit="10" stroke-width="10"/><path d="m2449.8 625.8a149.3 149.3 0 0 1 -48 14.9 160.6 160.6 0 0 1 -19.8 1.3 153.4 153.4 0 0 1 -26.4-2.3l13.3 49.9c4.4.2 8.7.4 13.1.4a197.3 197.3 0 0 0 103.1-28.9z" fill="#093254" stroke="#bf965c" stroke-miterlimit="10" stroke-width="10"/><path d="m2427.3 299.2a198.5 198.5 0 0 0 -45.3-5.2c-4.4 0-8.7.2-13.1.4l-13.3 49.9a153.4 153.4 0 0 1 26.4-2.3 160.6 160.6 0 0 1 19.8 1.3 149.3 149.3 0 0 1 48 14.9l35.3-35.3a198.4 198.4 0 0 0 -57.8-23.7z" fill="#093254" stroke="#bf965c" stroke-miterlimit="10" stroke-width="10"/><path d="m2534.6 365.8a199.3 199.3 0 0 0 -49.5-42.9l-35.3 35.3a151.2 151.2 0 0 1 71.8 78.7l46.6-12.5a198.3 198.3 0 0 0 -33.6-58.6z" fill="#093254" stroke="#bf965c" stroke-miterlimit="10" stroke-width="10"/><path d="m2568.2 424.4-46.6 12.5a151.2 151.2 0 0 1 0 110.2l46.6 12.5a199.5 199.5 0 0 0 0-135.2z" fill="#093254" stroke="#bf965c" stroke-miterlimit="10" stroke-width="10"/><path d="m2271.9 327.4a199.1 199.1 0 0 0 -59 61.5l35.3 35.3a151 151 0 0 1 37.1-46.8z" fill="#093254" stroke="#bf965c" stroke-miterlimit="10" stroke-width="10"/><path d="m2316 305.3a195.8 195.8 0 0 0 -44.1 22.1l13.4 50a149.7 149.7 0 0 1 70.3-33.1l13.3-49.9a197.5 197.5 0 0 0 -52.9 10.9z" fill="#093254" stroke="#bf965c" stroke-miterlimit="10" stroke-width="10"/><path d="m2212.9 388.9a198.2 198.2 0 0 0 -25.9 68.5l46.6 12.5a167 167 0 0 1 5.1-22.5 143 143 0 0 1 9.5-23.2z" fill="#093254" stroke="#bf965c" stroke-miterlimit="10" stroke-width="10"/><path d="m866.9 963.7a7.5 7.5 0 0 1 -.4 2.4h-1.8l-.6.2.2 1.2a1.8 1.8 0 0 1 1 1.6 5.2 5.2 0 0 1 -.4 2.3l-2.3 3-.7 1.3-1.7 1.7-1.7 1.6-.9.5-6.8 4.4-3.4 1.1a6.2 6.2 0 0 1 -1.8.5l-.9-.2a6.5 6.5 0 0 1 -2.9.6h-6l-1.3-.4-5.2-.3-2.8-1.6-1.2.2.5.5-1.3-.2-1.2-.2-3.3-2.4-2.3-.3-2.4-1.5q-1.5-1.1-1.5-1.5a4.6 4.6 0 0 1 .7-2.2 11.9 11.9 0 0 1 1.6-2.3 4.3 4.3 0 0 1 2.7-1.6l.7 3.2a2.7 2.7 0 0 1 1.1.8 2.3 2.3 0 0 1 .5 1.2l1-.2.9.6.7 1 2.9.8 2.9 1.3 5.9 1.3a6.6 6.6 0 0 0 1.8.9c.4 0 .6-.3.7-.9h.6l5.4.3 1.7-.9.9.4 1.6-.4 1.9-.6a4.7 4.7 0 0 0 2.2-1.4l1.2-1.7 1.6-1.6a8.1 8.1 0 0 0 .6-2c1.2 0 1.7-.3 1.7-1.1v-1.9l.7-.8 1.3-4h.4v-2.5l-.9-2.4-.4-1h-1.2l-3.2-1.9-3.9-1.5-.8-1-1.3-.7-.9.5-.3.4-5.9-.3-1.3-1.6-1 1.4-1-.2-2.5-.6-3.8-.8a11.3 11.3 0 0 1 -2.2-1.1v-1l-1.5-.6-.7.2a7.3 7.3 0 0 1 -2-1.9 9.8 9.8 0 0 1 -1.1-2.6h.3l-.8-1v-1.4l-.2-1.4v-.4l.5-1.8.6-1 .5-1.3 1.4-1.1a2.7 2.7 0 0 0 1-2.5l.8-.6 4.7-3.5 2-1.2 3.3-1.7 4.6-1.5 1.1-.3 1.1-.2 2.7-.3 1.3-.5 4.4.5h1.9l1.2.5 2.2.5c1.4.4 2.2.8 2.2 1.4s-.1.4-.1.6-.9.3-.9.4l-1.2 1a12 12 0 0 1 -3.4 1.3l-.9-.5-2.3-1.7h-1.2l-3.6-.7h-4.4l-4.2 2.2-3 1.6-2.1 1.5-.9 1.2-1.9 3.2-1.7 1.2-.3 1 1.1.7a2.8 2.8 0 0 0 -.1.9 4.1 4.1 0 0 0 .4 1.5l-1.7.8.4 1 .9.4 1.6.2 1.7 1.4 3.6 1.6.9.9 3-.3 2.7.3v.6l1.1-.2 1.5-.2h.6l2.3.5 1.2.3c.2 1.3.5 2 1.1 2s.1 0 .1-.1h.2l1.9-1.2h4a3.9 3.9 0 0 1 2.6 1l2.2 2h1q.6 0 3 3l.7.9.2 1.1z" fill="#fff"/><path d="m915.1 981.4a2.4 2.4 0 0 1 -1.3 1.5l-5 2.2a2.7 2.7 0 0 1 -1.3-2.5v-2.5l-.8-.2-2.9 1.4-3.9 1.9-1.6.8-5.2 1-1.7.5h-1.1l-1.6-.6-1.9.5-1.8-1.5-3.4.5-1.5-.7a7.6 7.6 0 0 1 -1.7-1.3 6.4 6.4 0 0 1 -1.9-4.4 2.1 2.1 0 0 1 .9-1.4l-1.4-.6v-4a4.8 4.8 0 0 1 .3-1.8l.8-1.5-.8-2.4v-5.5c0-.1.3-1.1.9-2.9v-.7l-.8.4-.5-.6v-6a4.7 4.7 0 0 0 -.3-1.9l-.3-.5c0-.1 0-.1-.1-.2 0-.5.3-.9 1-1.3l.5-.3 3.2-1.3 2.1-.6q.8 0 1.2 1.2l.4 1a15.3 15.3 0 0 0 -.8 4.5l.2 2.5v1l-.7 2.1c0 .8-.1 1.3-.1 1.7a1.5 1.5 0 0 1 -.1.7 2.8 2.8 0 0 0 .3 1.3l.7 1.3-1 3.3.4 1-.4 1.9-.3 2.5a.7.7 0 0 0 .1.5l.6 1.1.3 4.5a2.4 2.4 0 0 0 1.1 1.8 16.4 16.4 0 0 0 3.5 1.3l3.1.9 2.9.2a6.1 6.1 0 0 0 2.2-.3l2.4-.9 2.7.6c.4-.1.7-.6.9-1.4l1.4-.7 1.9-2.7 1.6-1.3a4.3 4.3 0 0 0 .8-2.4l.4-4.4.3-1-.9-1v-1.7l.2-6.8-.2-2.3-.5-2.6a2.3 2.3 0 0 1 .8-1.4l-.2-.8h-.7l-.2-1.3v-.4l.4-1.3v-.9l.7.2 4.8-1.7h.1a.1.1 0 0 1 .1-.1c.3 0 .5.3.8.8a6.6 6.6 0 0 1 .3 2.1l-.4 8.8-.6 6.7-1.1-.5a4.1 4.1 0 0 0 -.5 1.7l.2.9h.8c.2 0 .5 0 .6.2a.5.5 0 0 1 .3.5l-.4 8.1.8 1.5.5 4.2.5.7z" fill="#fff"/><path d="m963.7 981.1-.5 1.2-5.9 2.9c-.8-1.1-1.2-1.7-1.2-2v-.2l1-4.1v-1.9h.3l.8-.9a3.5 3.5 0 0 0 -.6-.9l-1-.5-.2-.7.7-8-.4-1.2v-4.7l.5-1.6-.8-.7v-2.6a7.4 7.4 0 0 0 -1.6-2.7v-.5a.9.9 0 0 0 -.4-.8h-1l-2.2-1.3-3.6.2-4-.3a3 3 0 0 0 -1.2 1.1l-.8-.2-3.3.6-1.2.3-1.5 1.1-2 .9a2.6 2.6 0 0 0 -1.6 2.1v4.2l-.5 2.6.9 2.6v6.5l-.8 1.8v.9l.8 1.4.3 4.7.3 1.5a1.3 1.3 0 0 1 -.3.7 1.5 1.5 0 0 1 -.6.5l-2.9.7-.8.2c-.4.8-.9 1.2-1.3 1.2a1.4 1.4 0 0 1 -.9-.5c0-.1-.1-.1-.1-.2s-.1-.1-.2-.2-.1-.3-.1-.2l.6-3.2v-3.6l.5-1.5-.4-2.4.2-2.6v-5.6c0-.7.5-1.2 1.5-1.3s-.3-1-.5-1.1a2.2 2.2 0 0 0 -1.4-.3v-7.7l1-.6-.6-.9-1.1-3.2-.8-1 .5-.9.9-1.1 1.6-.7 1.5-1.2a2.5 2.5 0 0 1 1.6-.5 2.3 2.3 0 0 1 1.1.3 2.1 2.1 0 0 1 .6.8v4l.2 1.3.8-.2a25.3 25.3 0 0 1 3.7-3.6c1.4-1.1 2.4-1.6 3.1-1.6s.7.3.9.9a7.5 7.5 0 0 0 2-1 4.6 4.6 0 0 1 2.2-.7h.2l3.5.3 1.4-.4 4 .5a5.6 5.6 0 0 1 3.1 1.4h.6a2.7 2.7 0 0 1 2.3 1.2l.7 1 .8 1.5a5.3 5.3 0 0 1 .6 3.1v2.4l.2 1.1-1 1.3.3 1.1.5.9v2.3l-.6 1.3c-.2.2-.2.6-.2 1.2l.8 1.1v4.6l.6 1.7v3.9z" fill="#fff"/><path d="m1017.3 982.4v.9l-.9.3-3 .5-3.1.2a6.4 6.4 0 0 0 -.5-2.2 1.2 1.2 0 0 0 -.7-.7l-.8.5-1 .4-1.2.5c-3.3 1.8-9.3 2.6-18.1 2.6a8.3 8.3 0 0 1 -3.6-.5 2.7 2.7 0 0 1 -1.7-1.6 2.1 2.1 0 0 0 -1.3.7l-1.3-.4a2.4 2.4 0 0 0 -.4-1.2 2 2 0 0 0 -1-.7l-.6.5a5.1 5.1 0 0 1 -2.1-.9 14.9 14.9 0 0 1 -2.4-2.3 2.3 2.3 0 0 0 -.7-2.8l-1.2-1.2-.2-.9-.7-3.3v-.7a8.9 8.9 0 0 1 .6-3.1v-.9l.5-1.1 2.7-6.3a2 2 0 0 1 1.7-1.4h1.5l.5-3.6 1.7-1.3 1.8-2 1.2-.9.8-.7.9-.3h.9a2 2 0 0 1 1.1.2 1.5 1.5 0 0 1 .7.7 3.8 3.8 0 0 1 2.2-1.4v-1.4l1.3-.5 2.1-.7 1.2-.3h1.5l2-.7.9.6.9.5.2.4.6.4c.3 0 .6-.4 1-1.3l2.3.5 3.2.9a4 4 0 0 1 1.2 1.1h2.6l-.4-.9-.4-.7-.3-3.1-.3-.9.4-2.2-.4-6v-.6l1.5-.5-.6-.9-.3-1.2-.6-1.9a5.8 5.8 0 0 1 -.3-2.1v-.5l.4-6.2-.3-2.7.2-1.1c.5-.1.9-.4.9-.9l-.5-.6a2.5 2.5 0 0 1 -1.7-.6v-1l-.4-2.7v-2.9a1.9 1.9 0 0 0 -1-1.5c.3-1 .7-1.6 1.4-1.7l2.7-.6 1.7-1.1 2-.4.9-.4a3.5 3.5 0 0 1 .9 2.3v1l-.5 2.3v1.3l-.2 3.8v3.1l-.5 1.9v4a7.7 7.7 0 0 1 -1.1 1.7l1.3 3.7-.2.9v2.1l-.4.8.4 3a4.1 4.1 0 0 1 -.4 1.6h-.9a6.3 6.3 0 0 0 -.4 1.9c0 .2 0 .3.1.4l1.5 2.1v3.1l.3 3.6-.2 1.5v1.5l-.6.7.2 4.1v3l.4 2.8v1.9l.3 2.1v3.3l.6 3.4v2.7l.5 2v3.1a2.9 2.9 0 0 1 .8 1.7 11.2 11.2 0 0 1 .2 2.4zm-7-17.8-.4-2.7c-.8-.2-1.1-.6-1.1-1.1l.3-1.9-.2-3.3v-.9l-.5-1v-1c0-.4-.2-.6-.5-.6a.3.3 0 0 1 -.3-.3l-1.8.4h-1l-8-1.9h-4.4l-1.5.6h-1.9l-2.6 1.7-1.7.2-1.3.9-1.8 1.6a6.9 6.9 0 0 0 -1.2 1.8v1.1l-1.7 1.8-1.8 2.6a5.6 5.6 0 0 0 -.7 2.4 4.3 4.3 0 0 0 .3 1.7l.3.8 1 3.5 1 1.8v1.5l1.1.4a18 18 0 0 0 2.6 2.9 8.6 8.6 0 0 0 2.8 2l1.9.9.7.3 1.3.2h1l2.5.9h2.7l4.4-.2a12.3 12.3 0 0 0 3.2-.6l3-1.1 2-1.7.9-1.2-.4-1.1.3-1.2v-3l-.2-1.9v-1.7l-.4-2a.1.1 0 0 0 -.1-.1c.2-.8.9-1.2 2.2-1.5z" fill="#fff"/><path d="m1035.3 946.1a11.5 11.5 0 0 0 -.9 3.4l-.3 4.2-.8 1.5v.2a.3.3 0 0 1 -.1.2c0 .4.4.8 1.1 1.2l-.2 1.3v15.1l.6 2.9v4.4c-.1.4-1 1.2-2.7 2.5l-2.1 1.7a1.6 1.6 0 0 1 -2.3.2 1 1 0 0 1 -.5-.7 7.7 7.7 0 0 1 .7-2.7l.4-1.2-.5-.4.7-7.3.3-.7 1.1-.2v-1.4a9.5 9.5 0 0 0 -.2-2 7.7 7.7 0 0 0 -1.1-1.7v-2.4a6.6 6.6 0 0 1 .5-2.5l-.6-.8v-2.3c.4-.3.6-.5.6-.8v-.8h-1.3v-4.3a4.2 4.2 0 0 0 -.2-1.7 3.8 3.8 0 0 0 -1.1-1.2 5.4 5.4 0 0 1 2.6-2.6l4.1-2.4a3.2 3.2 0 0 1 2.2 1.3zm2.6-22.9c0 .7-.1 1.1-.4 1.3l-3.2 2.3-1.2 1.2-2.3 1.6a11.5 11.5 0 0 1 -2.8 1.7.5.5 0 0 1 -.4-.3.9.9 0 0 1 -.3-.6 2.1 2.1 0 0 1 .5-1.5l4.5-4.2 2.3-3.2a2.7 2.7 0 0 1 1.2-.3 2 2 0 0 1 1.5.6 2 2 0 0 1 .6 1.4z" fill="#fff"/><path d="m1083.5 981.1-.5.8-.7 1-1.2.5-1.8.9-1.7.6-1.8.6a1.1 1.1 0 0 1 -.9-.9 10.6 10.6 0 0 1 .5-1.9 9.6 9.6 0 0 0 .3-1.5l-.9.5-3.8 1.3a5.3 5.3 0 0 1 -2.4.6h-1.7l-2.1.9-1.3.2-4.1.8-1.6-.2-1.2.4-.8.2h-1.3l-2.8-.6-2-.2a6.9 6.9 0 0 1 -3.4-1.4 5.4 5.4 0 0 1 -2.1-2.8l-1.2-.4-.2-1.1v-.8l-.6-2 1.6-3.2.5-1.4c.1-.4.7-.9 1.6-1.7l3.3-2.7 1.5-.5 2.3-1h.5a3.1 3.1 0 0 1 3.2-1.9l.3-.3h.9l1.1-.9 2.1-.6 5.4-.9 1.6.2 2.1-.5 3.6-.4c1.2-.2 1.8-.8 1.8-1.7a.4.4 0 0 0 -.1-.3l-.4-1.9.4-2.8a1.7 1.7 0 0 0 -.7-1.3 3 3 0 0 0 -1.5-.6l-.6-1a10.3 10.3 0 0 0 -1.6-2 8.3 8.3 0 0 0 -2.3-.8l-2.4-.5h-3.6l-.6-.4a3.4 3.4 0 0 1 -.3-.8l-1.2.6-1.3 1.2-4.3 2.1a6.6 6.6 0 0 0 -1.7 1.4l-.6.9a1.3 1.3 0 0 1 -1.2.7l-.9-.2-1.2-.6-1.3-.2a3.5 3.5 0 0 1 -1.3-.8c-.5-.3-.7-.6-.7-.9s0-.3.1-.3l.7-.5 1.4-1.1 1.5-.2 2.3-1.2 2.9-.9.7-.2 1.9-1 1.5.3 5.2-1.2h3.9l1.8.6 5.1 1 .8.4v.6l-.6.4c.1 1 .5 1.5 1 1.5h.3l1.2-.5h.2c.3 0 .5.1.5.4l.9 1.6.9.7v1l-.2 2.2a3.1 3.1 0 0 0 1.4 2.5l.6 6.3-1.2 1.6 1.4 1.6v.6l-.2 4 .3 3.1v1.7l-.6.2a7 7 0 0 0 .2 1.3 2.3 2.3 0 0 0 .3.9 5.3 5.3 0 0 0 .6 1.4zm-6.9-7.5a3.1 3.1 0 0 1 -.8-1l.2-1.8-.4-3.9.5-1.2-1.3-.8-.8.2-3.9-.2h-1.9l-1.4-1-.9.6h-2.4l-1.6.6-1-.6-1.2.8-6.5 3.1-1.4 1-1.2 1.7-1.5.9a1.1 1.1 0 0 0 -.3.8.1.1 0 0 0 .1.1l.3.6v.4l1 3.8-1 2.5.7.9 1.2-1.4 1.1.8a3.1 3.1 0 0 0 1.3.6l1.8.5.9 1.2 3 .3.8-.8.9.4.6-.3.5-.3 1.2.4a7.4 7.4 0 0 0 3.3-1.2.5.5 0 0 1 .4-.2l.6-.4c2.6 0 4.3-.5 5.2-1.6l.8-1.1 2.1-1.8v-1.1a1 1 0 0 0 .8-.5c.1-.1.1-.5.2-1z" fill="#fff"/><path d="m1101.8 976.3-.2 2.3v1.8a1.4 1.4 0 0 1 -.6 1.1l.2 1-.9.2-2.9 1.7-1.1.2-1.3.8h-.6c-.6 0-.9-.2-.9-.5v-1.1l-.2-1.9.6-4.7.2-6a8.6 8.6 0 0 1 .9-3.6l-.5-1.4a2.7 2.7 0 0 1 .4-4 2.6 2.6 0 0 0 .4-1.5c0-.4-.4-.7-1.3-1.1l.2-.7-.4-.2v-1.3l.7-3v-7.4l.9-3.5c0-.4-.4-.9-1-1.5v-2l-.2-7.8a9 9 0 0 1 1.1-2.9l.7-1.1c-1.1-.5-1.6-.9-1.6-1.4s0-.4.2-1.6l-.9-.8v-1.7l-.2-2v-.4l.8-2.2-.8-3.1.2-1.5-.9-5v-.7l.4-1.4.3-1.8 3.8-2.1 1.8-1.4h.7l.6.9v1.9l.4 1.2v1.8l-.3 3.2v1.8a3.1 3.1 0 0 1 -.2 1.1l-1 2.2-.2.9c.6 0 1 .1 1.1.3s.3.5.3 1.2v.9a1.8 1.8 0 0 1 -1.1 1.5v2.2l.7 1.3-.3 8.2v5.9l-1.2 2.3.7 3.3-.9 2.1a2.6 2.6 0 0 0 .7 1l.8.8.3 14-1.1 1.2a8.8 8.8 0 0 1 .2 1.7 13.5 13.5 0 0 1 -.4 2.9l.4.9h1.2v1.6z" fill="#fff"/><path d="m1350.1 492 12 70.9-33.7 63.2-28.2 62.3-29.8 64.1-55.6 43.2-52.7 46.3-71.3 9.4-61.3 34.9-69.5 13.1-69-16.1-64.1-25.5-60.4-30.7-66.2-25.6-40.7-57.5-39.7-55.6-38-58.8-23-66.9-10.2-70.7 32.7-66.8 20.5-63.5 24.5-62.3 24.3-67 53.7-45 59.8-34.5 64.8-20.8 60.4-40.3 70.6 13.1 69.8-8.8 67.1 19.8 64.4 27.4 53 45.6 56.6 42.2 36.4 60.4 27.6 64.1 2.4 69.9z" fill="#f3eec7"/><rect fill="#bf965c" height="404.75" rx="24" width="48" x="936" y="111.3"/><path d="m960 80.5v823" fill="none" stroke="#093254" stroke-miterlimit="10" stroke-width="10"/><path d="m1371.5 492h-823" fill="none" stroke="#093254" stroke-miterlimit="10" stroke-width="10"/><path d="m832.8 100.6 254.4 782.8" fill="none" stroke="#093254" stroke-miterlimit="10" stroke-width="10"/><path d="m718.1 159.1 483.8 665.8" fill="none" stroke="#093254" stroke-miterlimit="10" stroke-width="10"/><path d="m627.1 250.1 665.8 483.8" fill="none" stroke="#093254" stroke-miterlimit="10" stroke-width="10"/><path d="m568.6 364.8 782.8 254.4" fill="none" stroke="#093254" stroke-miterlimit="10" stroke-width="10"/><path d="m1351.4 364.8-782.8 254.4" fill="none" stroke="#093254" stroke-miterlimit="10" stroke-width="10"/><path d="m1292.9 250.1-665.8 483.8" fill="none" stroke="#093254" stroke-miterlimit="10" stroke-width="10"/><path d="m1201.9 159.1-483.8 665.8" fill="none" stroke="#093254" stroke-miterlimit="10" stroke-width="10"/><path d="m1087.2 100.6-254.4 782.8" fill="none" stroke="#093254" stroke-miterlimit="10" stroke-width="10"/></svg>