<svg height="1080" viewBox="0 0 1920 1080" width="1920" xmlns="http://www.w3.org/2000/svg"><circle cx="960" cy="540" fill="none" r="528.3" stroke="#f3eec7" stroke-miterlimit="10" stroke-width="13.34"/><g fill="#f3eec7"><path d="m1169.6 779.9q0 65.6-24 99.5t-70.9 33.9q-45.9 0-70.4-33.3t-25.1-96.9v-55.5q0-65.4 24.2-99t70.9-33.6q45.9 0 70.2 32.5t25.1 95.6zm-25.5-55.5q0-53.2-17.4-80.5t-52.4-27.2q-34.5 0-51.9 26.6c-11.7 17.7-17.6 43.9-17.9 78.5v60.9q0 52.9 18 81.1c11.9 18.7 29.4 28.1 52.2 28.1s39.9-9.2 51.6-27.5 17.6-45.1 17.8-80.4z"/><path d="m928.1 779.9q0 65.6-24.1 99.5t-70.8 33.9q-46.1 0-70.5-33.3t-25.1-96.9v-55.5q0-65.4 24.3-99t70.8-33.6q46 0 70.3 32.5t25.1 95.6zm-25.6-55.5c0-35.5-5.7-62.3-17.3-80.5s-29-27.2-52.5-27.2-40.2 8.9-51.9 26.6-17.6 43.9-17.9 78.5v60.9q0 52.9 18 81.1t52.3 28.1q34 0 51.6-27.5t17.7-80.4z"/><path d="m1182.4 480.7h-203v-28.3l107.2-119.1q23.9-27 32.9-44a73.3 73.3 0 0 0 9-35c0-16.1-4.9-29.4-14.6-39.8s-22.9-15.5-39.2-15.5q-29.4 0-45.6 16.7t-16.3 46.5h-39.4q0-42.7 27.6-69.2c18.3-17.6 42.9-26.3 73.7-26.3q43.2 0 68.3 22.6t25.1 60.3q0 45.8-58.3 109l-83 90h155.6z"/><path d="m864 480.7h-39.6v-262.3l-79.3 29.1v-35.7l112.8-42.4h6.1z"/></g></svg>