<svg height="1080" viewBox="0 0 1920 1080" width="1920" xmlns="http://www.w3.org/2000/svg"><path d="m1465.6 540 1.8 89.5-29.2 84.5-25.1 87.6-56.5 71.2-74 51.7-56.9 75.8-82.3 43.5-89.6 28.3-93.8-26.5-93.5 24.5-86.2-36.3-77.6-48.2-65.4-61-70.1-55-42.1-78.5-38.7-78.7-26.3-84.2-36.6-88.2 41.2-87.4 5.1-91 53.2-73.9 48.9-73.3 55.3-71 72.3-54.6 86.5-26.8 86.4-18.7 87.6-6 92.2-20.5 86.7 31.6 78.8 45.3 79.9 43.9 62.2 66.9 53.5 73.8 28.5 86.4 40.1 83.3z" fill="#f3eec7"/><rect fill="#bf965c" height="531.14" rx="31.5" width="63" x="928.5" y="40.4"/><g fill="none" stroke="#093254" stroke-miterlimit="10" stroke-width="13.12"><path d="m960 0v1080"/><path d="m1500 540h-1080"/><path d="m793.1 26.4 333.8 1027.2"/><path d="m642.6 103.1 634.8 873.8"/><path d="m523.1 222.6 873.8 634.8"/><path d="m446.4 373.1 1027.2 333.8"/><path d="m1473.6 373.1-1027.2 333.8"/><path d="m1396.9 222.6-873.8 634.8"/><path d="m1277.4 103.1-634.8 873.8"/><path d="m1126.9 26.4-333.8 1027.2"/></g></svg>