<svg height="1080" viewBox="0 0 1920 1080" width="1920" xmlns="http://www.w3.org/2000/svg"><path d="m604.5 0c-42 131.5-119 282.1-119 282.1h949s-77-150.6-119-282.1z" fill="#f3eec7"/><path d="m1315.5 1080c42-131.5 119-282.1 119-282.1h-949s77 150.6 119 282.1z" fill="#f3eec7"/><circle cx="960" cy="540" fill="#f3eec7" r="540"/><path d="m1016.4 261.8-40-201.1" fill="none" stroke="#df4b4b" stroke-miterlimit="10" stroke-width="13.64"/><g fill="#093254"><path d="m1091.2 519.2h65.5v65.45h-65.5z" transform="matrix(.98095516 .19423435 -.19423435 .98095516 129.3 -208.7)"/><circle cx="793.6" cy="839.8" r="32.7"/><circle cx="1186.8" cy="803.5" r="16.4"/><circle cx="1208.3" cy="864" r="16.4"/><circle cx="1251.2" cy="816.3" r="16.4"/><path d="m820.6 404.7 33-7.8 14.1-61.8-27.7-10.6z"/><path d="m821.5 317.5-27.3-10.4-26.8 110.1 33.1-7.8z"/><path d="m886 342-12.1 50.2 30.9-7.3 6.1-33.4z"/><path d="m1203.4 328.8 19.5-6.1a153.6 153.6 0 0 0 -14.2-31.8l-17.6 10.4a132.9 132.9 0 0 1 12.3 27.5z" fill-rule="evenodd"/><path d="m1208.3 382.2 20.3 2.3a143.9 143.9 0 0 0 0-34.7l-20.3 2.3a126.3 126.3 0 0 1 0 30.1z" fill-rule="evenodd"/><path d="m1133.9 249.8 8.5-18.5a142.5 142.5 0 0 0 -33.1-10.8l-4 20.1a129.1 129.1 0 0 1 28.6 9.2z" fill-rule="evenodd"/><path d="m1176.8 281.7 15.3-13.5a142.8 142.8 0 0 0 -25.9-23.2l-11.8 16.7a129.2 129.2 0 0 1 22.4 20z" fill-rule="evenodd"/></g><path d="m825.4 567.9h32.7v343.36h-32.7z" fill="#df4b4b" transform="matrix(.38268343 -.92387953 .92387953 .38268343 -163.7 1234.3)"/><path d="m745.2 609.2h48.5v181.57h-48.5z" fill="#bf965c" transform="matrix(.92387953 .38268343 -.38268343 .92387953 326.4 -241.2)"/><path d="m551.2 555 408.6 169.3" fill="none" stroke="#093254" stroke-miterlimit="10" stroke-width="13.64"/><circle cx="960" cy="540" fill="none" r="474.5" stroke="#093254" stroke-miterlimit="10" stroke-width="13.64"/><path d="m943.6 130.9h32.7v507.27h-32.7z" fill="#df4b4b"/><path d="m943.6 261.8h32.7v376.36h-32.7z" fill="#bf965c"/><path d="m960 130.9v572.7" fill="none" stroke="#093254" stroke-miterlimit="10" stroke-width="6.82"/><circle cx="960" cy="540" fill="#093254" r="32.7"/><circle cx="960" cy="540" fill="#f3eec7" r="16.4"/></svg>