<svg height="1080" viewBox="0 0 1920 1080" width="1920" xmlns="http://www.w3.org/2000/svg"><circle cx="960" cy="540" fill="none" r="528.3" stroke="#f3eec7" stroke-miterlimit="10" stroke-width="13.34"/><g fill="#f3eec7"><path d="m750.1 748.2 15.1-151.1h154.9v23.6h-133l-10.9 104.7q24.9-16.9 58.4-17 41.9 0 66.8 27.3t24.9 72.5q0 49-24.3 76c-16.2 18-38.9 27-68.3 27q-40.5 0-65.5-22.5c-16.8-15.1-26.4-36.1-28.8-63.2h24.5q3.6 31.7 21.5 47.9t48.3 16.3q33.1 0 50.1-21t16.9-60c0-22.7-6.3-41.3-18.9-55.6s-29.9-21.5-51.7-21.5c-12.1 0-22.6 1.5-31.5 4.6s-18.4 9-28.3 17.8z"/><path d="m1144.9 766.6a95.2 95.2 0 0 1 -33.8 31 90.6 90.6 0 0 1 -43.8 10.9q-26.4 0-46.7-13.6c-13.4-9.1-23.9-21.6-31.2-37.6a124.3 124.3 0 0 1 -11.1-52.6q0-30.6 11.8-55.8t33-39q21.1-13.9 48.8-13.9c31.1 0 55.3 10.8 72.6 32.6s26 52.7 26 92.7v23q0 83.9-35.8 126t-109.2 42.1h-4.6l.2-22.1h8.9q55.5-.9 84.5-31.5t30.4-92.2zm-74.5 19.8a74.1 74.1 0 0 0 45.9-15.2 81 81 0 0 0 28.8-39.3v-14.7q0-47.1-19.6-73.1t-53.1-26q-30.3 0-49.6 24.3t-19.4 61.2q0 35.5 18.6 59.1c12.4 15.8 28.6 23.7 48.4 23.7z"/><path d="m864 480.7h-39.6v-262.3l-79.3 29.1v-35.7l112.8-42.4h6.1z"/><path d="m1092.4 480.7h-39.6v-262.3l-79.4 29.1v-35.7l112.8-42.4h6.2z"/></g></svg>