<svg height="2180" viewBox="0 0 7740 2180" width="7740" xmlns="http://www.w3.org/2000/svg" xmlns:xlink="http://www.w3.org/1999/xlink"><defs><linearGradient id="a" gradientUnits="userSpaceOnUse" x1="210" x2="1710" y1="2390" y2="890"><stop offset="0" stop-color="#fff" stop-opacity="0"/><stop offset="1"/></linearGradient><linearGradient id="b" gradientUnits="userSpaceOnUse" x1="2150" x2="3650" y1="2390" y2="890"><stop offset="0" stop-color="#fff" stop-opacity="0"/><stop offset=".14" stop-color="#777" stop-opacity=".53"/><stop offset="1"/></linearGradient><linearGradient id="c" x1="6030" x2="7530" xlink:href="#a" y1="1290" y2="-210"/><image id="d" height="1080" width="1920" xlink:href="../../../../../../../Dropbox/dropbox/semester-5/motion-graphics/week-13/the-birds/birds-2.jpg"/></defs><path d="m5820 0h1920v1080h-1920z" fill="#838383"/><path d="m1940 1100h1920v1080h-1920z" fill="#838383"/><path d="m0 1100h1920v1080h-1920z" fill="#838383"/><image height="1080" width="1920" xlink:href="../../../../../../../Dropbox/dropbox/semester-5/motion-graphics/week-13/the-birds/melanie-daniels-2.jpg"/><path d="m0 1100h1920v1080h-1920z" fill="url(#a)"/><use transform="translate(1940)" xlink:href="#d"/><path d="m1940 1100h1920v1080h-1920z" fill="url(#b)"/><path d="m591.5 1767.4c2.1 21 17.7 40.4 30.3 56.8 14.6 19 28.4 39.6 31.8 63.8 4.3 30.1-4.5 61-13.6 89.5-6.7 21.8-10.9 44.6-6.4 67.2.4 2.1 1.2 5 2.3 8.7s1 5.2 1.7 8.7c2.1 10.6-.8 17.3-5.5 17-9.6-.5-14.3-22.4-17.1-31.8s-6.8-30.3-19.2-31.8c.7-.1-4 2.6-14.1 8.2a75.2 75.2 0 0 0 -10.1 5.3c-1.6 1.2-3.3 5.9-5.1 13.8-2.6 13.1-5.4 19.8-8.6 20.2s-8.6-5.6-12.8-18.5-7.9-19.2-11.6-18.8-4.6 7.8-1.6 22c2 9.6 4.4 19.2 6.9 28.6s5.1 19.1 7.1 28.5 7.9 38.5-5.9 40.6-23.3-35.6-26-47.2c-.9-3.8-2-9.7-3.1-17.5s-2.2-13.8-3.2-18.2c-3.3-15.2-10.4-27.7-19.1-40.3-17.5-22.2-25.6-50.1-30.7-77-2.9-15-4-30.9-4.3-46.4s.1-30.6-1.1-45.8c-1.4-23.4-3.4-46.9-6.5-69.9-4.7-35.3-11.8-70.8-22.9-104.7-9.4-28.9-21-60.1-23.6-90.4-2.4-26.7 8-53.6 32.2-67.8 4.7-2.6 13-5.5 25-8.6s20.2-4.6 24.7-4.3c2.4.1 9.7 1.5 22 4.3 38 9.1 68.1 36 87.3 69.3 7 12.3 11.3 26.5 14.8 40.1s7.3 30.7 8.5 46.2c1.3 18.7-4.3 36.9-11.4 53.9-6.2 14.8-12.6 30.4-11.1 46.3zm-101.6-100.1c1.1 12.6 4.5 38 21.8 38s20.1-18.6 18.9-32.3-6.7-32.7-24-33c-15.1-.3-17.7 15.3-16.7 27.3zm78.4 244c3.9-8.4 6-20.7 4.7-29.9-1.7-11-6.6-21.2-12.3-30.3s-13.1-14.9-19.2-14.6-11.8 6.5-15.3 17.8-5.6 21.2-3.8 32.2c1.4 9.2 6.6 19.9 12 27.4 6.7 9.2 12.6 13.9 17.8 13.5s11.6-6.2 16.1-16.1z"/><path d="m694.5 1850.4c-.6-16.7-4.9-33.5-8.1-49.9-3.8-18.8-7.5-37.9-9.3-57.1s-.5-42.4 11.1-58.3c4.8-6.5 14.9-14.4 23.4-14.1 18.7.6 29.8 23.2 36.2 37.5 8.9 20.1 14.6 42.7 17.1 64.8 2.8 25.8 3.7 54.4 7 79.4 1.2 9.3 4.3 19.2 7 28.7s5.8 21.1 7 31.7c1.5 12.4 0 25.2-1.4 37.7s-3 25.4-1.9 38c.8 9.3 2.9 18.9 4.8 28s5 21.1 6.8 31.6 2 16.3 1.5 21.5c-1.2 10-3.7 15.8-5.5 15.5-9.3-1.4-16.3-30.2-19.8-40.9-1-5.6-2.2-11.6-3.6-17.9s-2.9-10.4-4.7-12.3-3.2-2.7-4.3-2.6-3 4.4-4.4 12.6-3.5 12.4-5.8 12.9c-4.1.7-8.5-4.8-12.4-17.4-5.1-16.6-7.7-25.6-8.2-26.6-7.7-12.8-15.8-25.5-22.7-38.7a111 111 0 0 1 -7.6-29.3c-1.6-12.5-1.7-25.2-1.7-37.8s.1-24.7-.5-37zm16.1-354.4c-14.7-1.6-26.3 9.5-31.6 21.9s-6.4 26.8-6.1 39.9c.2 9.4 3.1 21.7 8 30s11.3 14.5 18.8 16.5 12 8.5 13.7 19.7 4.9 16.7 9.3 16.7 4.9-4.7 5.4-13.9c.7-11.2 3.6-19.5 7.4-24.5 6-8 7.3-20 8.1-29.9s1.9-21.1.4-31.5c-2.7-19.2-11.1-42.6-33.4-44.9z"/><path d="m827.2 1826.7c-3.3-23-6.6-46.5-7.8-69.6-1.5-29.5-2.3-70.9 23.1-92.4 8.2-5.3 17.7-12.1 28.2-8.1l14.4 8.8c6.3 3.4 11.9 4.8 16 3.7 8.9-2.6 18.3-7.9 27.1-11.7s18.5-7.8 28.4-7.8 16.4 4.1 21.8 12.2c9.4 14.4 15.9 31.8 15.3 48.8-.3 10.3-6.4 20.7-11.8 29.4-2.3 9.7-3 19.8-4.2 29.7s-2 25.3-7.3 27.8c-2.4 1.1-8.8-6.7-13.8-20.6s-10.1-20.1-15.4-18.5c-1.1.5-2.5 2.6-4.1 6.3s-3.7 5.8-6.4 6.3c-.4.1-2.4-.8-5.9-2.6s-6.3-2.7-8.2-2.7c-3.9.2-6.8 2.7-8.9 7.7-3.2 15.6-5.1 32.4-7.1 47.1-1.3 9.3-2.7 18.8-2.1 26.6.4 5.8 2.2 13.6 5.2 23.1s5.6 19.2 7.6 28.8c3.1 15.5.1 32.1-3.1 47.4s-7.1 31.8-5.6 47.2 4.3 31.5 5.8 46.8c.9 8.5 1.1 31.6-5 32s-12.1-26.1-14.1-35.5-6-35.2-17.7-35.3c-1.6 0-3.1 3.5-3.6 9.8s-2.6 9.5-5.9 9.4-6.2-4.5-8.5-13.3c-3.8-11.7-7.4-23.8-12-35-3.4-8.2-6.6-18.3-7.4-27.2-1.1-13.7 0-28.3.2-42.3.5-25.4-3.6-51.1-7.2-76.3z"/><path d="m1191.7 1774.6c-.4 20.3 2.6 40.9 5.3 61s6 38.8 6.5 58.1-3.6 38.7-7 57.6-6.9 38.7-5.5 58a149.3 149.3 0 0 0 3.1 19.3c1.7 8.4 2.7 15 3.2 19.3 1 8.6-.5 21.7-11.3 23.2-15 2.2-18.1-23-18.6-33-.7-7.2-1-10.8-1.6-18s-.5-14.2-.9-18.1c-.9-9.6-1.8-20-5.9-29s-10.7-22.8-22.8-21.8c-1.8.2-4.4 2.2-7.6 6s-6.5 5.8-9.8 6.2a31.1 31.1 0 0 1 -7.2-.3 31.1 31.1 0 0 0 -6.6-.2c-6.2.6-10.4 6.6-12.3 17.9s-4.2 17.2-6.7 17.5c-4.7.6-9.8-6.2-15.5-19.7a392.8 392.8 0 0 0 -22.4-43.8c-22.7-38.7-36.6-80.1-38.2-123.7-.8-24.2 2.6-48.2 11.2-71.1s28.1-41.5 49.6-54c8.4-4.5 19-5.6 27.8-7.1s18.9-3.6 25.7-10.3c2.9-2.2 4.5-7.4 4.8-15.5s0-18.9-.4-28.3-.8-19.2 0-28.4c1.5-17.7 5.5-37 16.6-51.3 7.5-9.8 17-20.8 30.6-20s22 14.5 25.4 26.4c7.8 26.6 6.7 56.1 4.9 83.6-1.6 23.1-5.2 46.5-8.2 69.5s-5.7 46.6-6.2 70zm-86.5 92.9c5.9-.5 9.6-8 11.1-22.6.5-10.4 1-20.9 1.6-31.3.3-7.2.3-12.8.4-16.3.1-9.1-1.6-23.8-11.1-24.6-6-.6-14 3.7-21.2 10.4s-10.7 14.7-10.5 23.9c.4 13.9 1.2 28.4 5.3 41.7 3.3 10.9 12.3 19.9 24.4 18.8z"/><path d="m1441.4 1686c1.6 10.4-3.7 21.3-8.7 30-.9 1.2-1.8 7.7-3.1 18.6-1 8.3-4.3 13.2-8.8 13.5s-8.4-4-7.7-12.7-1.4-13-5-12.2a16.6 16.6 0 0 0 -5.8 3.1c-2.3 1.7-3.8 2.3-4.5 2s-2.8-1.4-6-4.1-6.2-3.8-9-2.9c-10.7 3.2-28.3 10.7-29.7 23a25.9 25.9 0 0 0 .2 6.2c4.8 10 19.6 16.6 28.9 21s20.8 9.6 30.9 14.9c12.2 11.3 20.4 27.7 19 44.5a67.9 67.9 0 0 1 -2.5 14c-5.7 17.9-21 30.8-35.1 41.7-17 13.2-27.5 34.2-33.6 54.6-2.6 7.7-6 13.5-10.3 17.3a8.6 8.6 0 0 1 -5.4 2.6c-6.1.7-10.6-3.1-12.6-11.1s-5.1-10.1-10.5-9.5q-3.3.4-8.7 3.6c-5.4 13.9-3 32.9-3.2 47.3-.1 10.5.9 43.2-14 43.6-12.7.4-14.4-21.3-15.1-31.3a80.8 80.8 0 0 1 .1-9.7l-.5-9.6c-.8-11.1-.8-23.8-7.7-33.2-8.2-7.2-14.4-12.4-18.5-15.4-7.2-6.1-11-12.6-11-19 0-12.6 11.5-23.5 21.7-29.8 12-7.1 25.8-11.6 38.5-16.7 9.3-3.7 23.6-7.8 28.5-16.4a26.8 26.8 0 0 0 3.4-12.5c.1-14.6-19.6-24.8-31.2-29.9a142 142 0 0 1 -29.5-19.4c-9.3-7.7-20-17.3-22.4-30.4a88.6 88.6 0 0 1 -1.5-20.5 97.5 97.5 0 0 1 39.8-74.1 129.6 129.6 0 0 1 77.7-24.8c16.7.3 34.4 3.4 49.1 11.9 11.6 6.8 21.9 17.8 23.8 31.8z"/><path d="m793.9 1249.7c-1.9-.2-4.9.2-8.9 1.2s-7 1.4-8.4 1.2c-5.6-1-10-6.8-12.3-16.4a55.1 55.1 0 0 1 0-24.9c5-21.8 26.3-26.9 46-23.8 1.1.2 7.9 1.4 20.5 3.9 10.1 1.9 21.7 3.8 31.6.8 6.6-2 12.5-2.8 17.4-2.1a48.7 48.7 0 0 1 10.7 3.2c11.5 5.2 12.9 19.9 11.2 30.9-1.3 8.3-2.5 14.2-4.2 16.9s-2.8 4.1-6.1 7.4a17.2 17.2 0 0 0 -4.3 9.1 181.5 181.5 0 0 1 -5.1 22.2c-.9 1.9-2 2.7-3.5 2.5s-3-1.8-3.4-4.5-.8-7.9-1-12.2-1.6-7-3.8-8.3c-5.7-2.8-10.7-3.3-15-1.6s-6.7 5.4-7.3 11.1c-.2 1.2-.1 4.8-.2 10.6a72.5 72.5 0 0 1 -.8 11.6c-3 14.6-3.3 30-2.6 44.9.6 12.3 1.3 25 1.2 37a66.8 66.8 0 0 1 -3.2 18.8l-5.5 18.7a151.5 151.5 0 0 1 -2.9 23.4c-1.1 1.7-2.1 2.5-2.9 2.4s-2.4-4.4-3.4-13c-.5-4.8-2-7.4-4.2-7.5s-3.3 1.9-3.6 6.3-.9 11.9-1.9 22.3c-.6 6.1-2.8 9.2-6.2 9s-5.8-3.7-6.1-10.3c.1 1.8.8-3.5 1.9-15.7.5-5.3-1.1-12.4-4.5-21.3s-5.6-17.2-5.7-21.4a189.4 189.4 0 0 1 3.8-38.1c3.3-16.7 6-34.3 8.9-51.2a52.7 52.7 0 0 0 -8.3-38.2 11.3 11.3 0 0 0 -7.9-4.9z"/><path d="m979 1225.4c-.2.9-1.2 5.7-2.8 14.1a75.7 75.7 0 0 0 -1.6 13.6 23.3 23.3 0 0 0 2.4 11.5c1.7 3 4.8 4.8 9.5 5.4a74.2 74.2 0 0 0 7.9.3 77.7 77.7 0 0 1 8.2.4c4.3.6 7.4 2.1 9.4 4.5 8.8 11 8.8 28 9.8 41.3 1.6 20.6 0 41.5-2.1 62-1 8.8-2.2 15.1-3.7 18.8-6.9 13-12.4 26.7-17.9 40.4a31 31 0 0 0 -1.2 6.6c-.3 3.1.2 7.2 1.5 12.2a44.5 44.5 0 0 1 1 14.3 18.7 18.7 0 0 1 -3.5 9.4c-2.5 3.2-5.2 4.4-8.2 3s-4.2-4.7-4.3-9.5.5-8.5.6-12.5a76.1 76.1 0 0 1 1.5-12.2c.8-4.6 1.4-7.7 1.5-9.3a26.1 26.1 0 0 0 -2.6-13.5l-4-9.4a25.4 25.4 0 0 1 -2-10.4c.1-5.3.4-13.5.4-24.1 0-12.7.5-26 0-38.1-.5-9.5-4.3-27.6-10.9-27.3s-9.7 22.1-10.9 31.8c-1.9 14.3-2.8 29.4-5.9 43.7a113.5 113.5 0 0 1 -6.9 17.5c-2.2 4.2-3.5 6.7-3.7 7.7-2.5 7.5-4.3 11.3-5.6 11.2s-1-.7-1.9-2a3.7 3.7 0 0 0 -2.5-2c-.9-.2-2 .8-2.4 3.1a74.5 74.5 0 0 0 -.2 7.6c0 3.4-.1 5.6-.2 6.5-.5 3.6-.7 5.4-1.2 9s-1.3 5.8-2.5 5.7a4.5 4.5 0 0 1 -2.7-2c-1.5-2.1-2.2-5.9-2-11.5s.5-9 .6-13.1a27.1 27.1 0 0 0 -1.6-8.9 72.1 72.1 0 0 1 -3.1-7.9c-2.9-10.4-2.8-21.5-1.8-32.1 1.6-17.5 5.2-34.8 9-51.9 3.1-14.3 7.1-28.8 9-43.1a72.7 72.7 0 0 0 -1-23.3c-2-10-3.1-17.8-3.2-23a140.6 140.6 0 0 1 1-16.8c1.8-15.6 11.4-34.7 28.7-34.1 19 .7 24.8 19.3 22.1 36.4z"/><path d="m1110 1281.2c7.8 1.1 16.1 4.7 24.9 10.6 16.4 10.5 25.8 27.7 22.9 47-1.5 9.9-4.8 26-15.8 29.9-1.8.5-3.6 2.5-5.4 5.9s-3.4 5.1-5.1 5-4.3-2-7.1-5.2-5.4-5-7.7-5.3a31.3 31.3 0 0 0 -13.3 1.7c-5.5 2-8.6 5.4-9.2 9.5s3.5 9.5 12.2 16.1 12.5 13.3 11.7 19.8c-.3 2.5-2.8 7.3-7.4 14.4-.9 2.5-2 5-3.1 7.7s-2.9 3.9-5.1 3.7a6.8 6.8 0 0 1 -4.2-2.1c-1.3-1.2-2.4-1.9-3.2-1.9-6.2-.5-10.2 6.9-11.7 22.2a50.4 50.4 0 0 0 .2 8.4 48 48 0 0 1 .3 8.9c-.4 4.3-2.6 6.3-6.5 6.1s-7.1-4.7-7.2-12.6c0-6 .4-12.5.9-18.7.8-9.5-2.1-22-7.4-30.1-6.2-10.1-12.4-21-15.6-32.2-4-13.7-2.9-29-1.1-43.3a78.3 78.3 0 0 1 15.6-38.4c12-13.9 27.1-29.7 47.4-27.1zm-7.9 58c9.1 1.1 14.1-1.6 15-7.9a10.4 10.4 0 0 0 -2.8-9.5 15.3 15.3 0 0 0 -9.2-4.4c-6.3-.8-10.2 3.3-11.5 12.2-.8 5.7 2 8.9 8.5 9.6z"/><use transform="translate(3880)" xlink:href="#d"/><path d="m5820 0h1920v1080h-1920z" fill="url(#c)"/><use opacity=".5" transform="translate(5820)" xlink:href="#d"/><path d="m2531.5 1767.4c2.1 21 17.7 40.4 30.3 56.8 14.6 19 28.4 39.6 31.8 63.8 4.3 30.1-4.5 61-13.6 89.5-6.7 21.8-10.9 44.6-6.4 67.2.4 2.1 1.2 5 2.3 8.7s1 5.2 1.7 8.7c2.1 10.6-.8 17.3-5.5 17-9.6-.5-14.3-22.4-17.1-31.8s-6.8-30.3-19.2-31.8c.7-.1-4 2.6-14.1 8.2a75.2 75.2 0 0 0 -10.1 5.3c-1.6 1.2-3.3 5.9-5.1 13.8-2.6 13.1-5.4 19.8-8.6 20.2s-8.6-5.6-12.8-18.5-7.9-19.2-11.6-18.8-4.6 7.8-1.6 22c2 9.6 4.4 19.2 6.9 28.6s5.1 19.1 7.1 28.5 7.9 38.5-5.9 40.6-23.3-35.6-26-47.2c-.9-3.8-2-9.7-3.1-17.5s-2.2-13.8-3.2-18.2c-3.3-15.2-10.4-27.7-19.1-40.3-17.5-22.2-25.6-50.1-30.7-77-2.9-15-4-30.9-4.3-46.4s.1-30.6-1.1-45.8c-1.4-23.4-3.4-46.9-6.5-69.9-4.7-35.3-11.8-70.8-22.9-104.7-9.4-28.9-21-60.1-23.6-90.4-2.4-26.7 8-53.6 32.2-67.8 4.7-2.6 13-5.5 25-8.6s20.2-4.6 24.7-4.3c2.4.1 9.7 1.5 22 4.3 38 9.1 68.1 36 87.3 69.3 7 12.3 11.3 26.5 14.8 40.1s7.3 30.7 8.5 46.2c1.3 18.7-4.3 36.9-11.4 53.9-6.2 14.8-12.6 30.4-11.1 46.3zm-101.6-100.1c1.1 12.6 4.5 38 21.8 38s20.1-18.6 18.9-32.3-6.7-32.7-24-33c-15.1-.3-17.7 15.3-16.7 27.3zm78.4 244c3.9-8.4 6-20.7 4.7-29.9-1.7-11-6.6-21.2-12.3-30.3s-13.1-14.9-19.2-14.6-11.8 6.5-15.3 17.8-5.6 21.2-3.8 32.2c1.4 9.2 6.6 19.9 12 27.4 6.7 9.2 12.6 13.9 17.8 13.5s11.6-6.2 16.1-16.1z"/><path d="m2634.5 1850.4c-.6-16.7-4.9-33.5-8.1-49.9-3.8-18.8-7.5-37.9-9.3-57.1s-.5-42.4 11.1-58.3c4.8-6.5 14.9-14.4 23.4-14.1 18.7.6 29.8 23.2 36.2 37.5 8.9 20.1 14.6 42.7 17.1 64.8 2.8 25.8 3.7 54.4 7 79.4 1.2 9.3 4.3 19.2 7 28.7s5.8 21.1 7 31.7c1.5 12.4 0 25.2-1.4 37.7s-3 25.4-1.9 38c.8 9.3 2.9 18.9 4.8 28s5 21.1 6.8 31.6 2 16.3 1.5 21.5c-1.2 10-3.7 15.8-5.5 15.5-9.3-1.4-16.3-30.2-19.8-40.9-1-5.6-2.2-11.6-3.6-17.9s-2.9-10.4-4.7-12.3-3.2-2.7-4.3-2.6-3 4.4-4.4 12.6-3.5 12.4-5.8 12.9c-4.1.7-8.5-4.8-12.4-17.4-5.1-16.6-7.7-25.6-8.2-26.6-7.7-12.8-15.8-25.5-22.7-38.7a111 111 0 0 1 -7.6-29.3c-1.6-12.5-1.7-25.2-1.7-37.8s.1-24.7-.5-37zm16.1-354.4c-14.7-1.6-26.3 9.5-31.6 21.9s-6.4 26.8-6.1 39.9c.2 9.4 3.1 21.7 8 30s11.3 14.5 18.8 16.5 12 8.5 13.7 19.7 4.9 16.7 9.3 16.7 4.9-4.7 5.4-13.9c.7-11.2 3.6-19.5 7.4-24.5 6-8 7.3-20 8.1-29.9s1.9-21.1.4-31.5c-2.7-19.2-11.1-42.6-33.4-44.9z"/><path d="m2767.2 1826.7c-3.3-23-6.6-46.5-7.8-69.6-1.5-29.5-2.3-70.9 23.1-92.4 8.2-5.3 17.7-12.1 28.2-8.1l14.4 8.8c6.3 3.4 11.9 4.8 16 3.7 8.9-2.6 18.3-7.9 27.1-11.7s18.5-7.8 28.4-7.8 16.4 4.1 21.8 12.2c9.4 14.4 15.9 31.8 15.3 48.8-.3 10.3-6.4 20.7-11.8 29.4-2.3 9.7-3 19.8-4.2 29.7s-2 25.3-7.3 27.8c-2.4 1.1-8.8-6.7-13.8-20.6s-10.1-20.1-15.4-18.5c-1.1.5-2.5 2.6-4.1 6.3s-3.7 5.8-6.4 6.3c-.4.1-2.4-.8-5.9-2.6s-6.3-2.7-8.2-2.7c-3.9.2-6.8 2.7-8.9 7.7-3.2 15.6-5.1 32.4-7.1 47.1-1.3 9.3-2.7 18.8-2.1 26.6.4 5.8 2.2 13.6 5.2 23.1s5.6 19.2 7.6 28.8c3.1 15.5.1 32.1-3.1 47.4s-7.1 31.8-5.6 47.2 4.3 31.5 5.8 46.8c.9 8.5 1.1 31.6-5 32s-12.1-26.1-14.1-35.5-6-35.2-17.7-35.3c-1.6 0-3.1 3.5-3.6 9.8s-2.6 9.5-5.9 9.4-6.2-4.5-8.5-13.3c-3.8-11.7-7.4-23.8-12-35-3.4-8.2-6.6-18.3-7.4-27.2-1.1-13.7 0-28.3.2-42.3.5-25.4-3.6-51.1-7.2-76.3z"/><path d="m3131.7 1774.6c-.4 20.3 2.6 40.9 5.3 61s6 38.8 6.5 58.1-3.6 38.7-7 57.6-6.9 38.7-5.5 58a149.3 149.3 0 0 0 3.1 19.3c1.7 8.4 2.7 15 3.2 19.3 1 8.6-.5 21.7-11.3 23.2-15 2.2-18.1-23-18.6-33-.7-7.2-1-10.8-1.6-18s-.5-14.2-.9-18.1c-.9-9.6-1.8-20-5.9-29s-10.7-22.8-22.8-21.8c-1.8.2-4.4 2.2-7.6 6s-6.5 5.8-9.8 6.2a31.1 31.1 0 0 1 -7.2-.3 31.1 31.1 0 0 0 -6.6-.2c-6.2.6-10.4 6.6-12.3 17.9s-4.2 17.2-6.7 17.5c-4.7.6-9.8-6.2-15.5-19.7a392.8 392.8 0 0 0 -22.4-43.8c-22.7-38.7-36.6-80.1-38.2-123.7-.8-24.2 2.6-48.2 11.2-71.1s28.1-41.5 49.6-54c8.4-4.5 19-5.6 27.8-7.1s18.9-3.6 25.7-10.3c2.9-2.2 4.5-7.4 4.8-15.5s0-18.9-.4-28.3-.8-19.2 0-28.4c1.5-17.7 5.5-37 16.6-51.3 7.5-9.8 17-20.8 30.6-20s22 14.5 25.4 26.4c7.8 26.6 6.7 56.1 4.9 83.6-1.6 23.1-5.2 46.5-8.2 69.5s-5.7 46.6-6.2 70zm-86.5 92.9c5.9-.5 9.6-8 11.1-22.6.5-10.4 1-20.9 1.6-31.3.3-7.2.3-12.8.4-16.3.1-9.1-1.6-23.8-11.1-24.6-6-.6-14 3.7-21.2 10.4s-10.7 14.7-10.5 23.9c.4 13.9 1.2 28.4 5.3 41.7 3.3 10.9 12.3 19.9 24.4 18.8z"/><path d="m3381.4 1686c1.6 10.4-3.7 21.3-8.7 30-.9 1.2-1.8 7.7-3.1 18.6-1 8.3-4.3 13.2-8.8 13.5s-8.4-4-7.7-12.7-1.4-13-5-12.2a16.6 16.6 0 0 0 -5.8 3.1c-2.3 1.7-3.8 2.3-4.5 2s-2.8-1.4-6-4.1-6.2-3.8-9-2.9c-10.7 3.2-28.3 10.7-29.7 23a25.9 25.9 0 0 0 .2 6.2c4.8 10 19.6 16.6 28.9 21s20.8 9.6 30.9 14.9c12.2 11.3 20.4 27.7 19 44.5a67.9 67.9 0 0 1 -2.5 14c-5.7 17.9-21 30.8-35.1 41.7-17 13.2-27.5 34.2-33.6 54.6-2.6 7.7-6 13.5-10.3 17.3a8.6 8.6 0 0 1 -5.4 2.6c-6.1.7-10.6-3.1-12.6-11.1s-5.1-10.1-10.5-9.5q-3.3.4-8.7 3.6c-5.4 13.9-3 32.9-3.2 47.3-.1 10.5.9 43.2-14 43.6-12.7.4-14.4-21.3-15.1-31.3a80.8 80.8 0 0 1 .1-9.7l-.5-9.6c-.8-11.1-.8-23.8-7.7-33.2-8.2-7.2-14.4-12.4-18.5-15.4-7.2-6.1-11-12.6-11-19 0-12.6 11.5-23.5 21.7-29.8 12-7.1 25.8-11.6 38.5-16.7 9.3-3.7 23.6-7.8 28.5-16.4a26.8 26.8 0 0 0 3.4-12.5c.1-14.6-19.6-24.8-31.2-29.9a142 142 0 0 1 -29.5-19.4c-9.3-7.7-20-17.3-22.4-30.4a88.6 88.6 0 0 1 -1.5-20.5 97.5 97.5 0 0 1 39.8-74.1 129.6 129.6 0 0 1 77.7-24.8c16.7.3 34.4 3.4 49.1 11.9 11.6 6.8 21.9 17.8 23.8 31.8z"/><path d="m2733.9 1249.7c-1.9-.2-4.9.2-8.9 1.2s-7 1.4-8.4 1.2c-5.6-1-10-6.8-12.3-16.4a55.1 55.1 0 0 1 0-24.9c5-21.8 26.3-26.9 46-23.8 1.1.2 7.9 1.4 20.5 3.9 10.1 1.9 21.7 3.8 31.6.8 6.6-2 12.5-2.8 17.4-2.1a48.7 48.7 0 0 1 10.7 3.2c11.5 5.2 12.9 19.9 11.2 30.9-1.3 8.3-2.5 14.2-4.2 16.9s-2.8 4.1-6.1 7.4a17.2 17.2 0 0 0 -4.3 9.1 181.5 181.5 0 0 1 -5.1 22.2c-.9 1.9-2 2.7-3.5 2.5s-3-1.8-3.4-4.5-.8-7.9-1-12.2-1.6-7-3.8-8.3c-5.7-2.8-10.7-3.3-15-1.6s-6.7 5.4-7.3 11.1c-.2 1.2-.1 4.8-.2 10.6a72.5 72.5 0 0 1 -.8 11.6c-3 14.6-3.3 30-2.6 44.9.6 12.3 1.3 25 1.2 37a66.8 66.8 0 0 1 -3.2 18.8l-5.5 18.7a151.5 151.5 0 0 1 -2.9 23.4c-1.1 1.7-2.1 2.5-2.9 2.4s-2.4-4.4-3.4-13c-.5-4.8-2-7.4-4.2-7.5s-3.3 1.9-3.6 6.3-.9 11.9-1.9 22.3c-.6 6.1-2.8 9.2-6.2 9s-5.8-3.7-6.1-10.3c.1 1.8.8-3.5 1.9-15.7.5-5.3-1.1-12.4-4.5-21.3s-5.6-17.2-5.7-21.4a189.4 189.4 0 0 1 3.8-38.1c3.3-16.7 6-34.3 8.9-51.2a52.7 52.7 0 0 0 -8.3-38.2 11.3 11.3 0 0 0 -7.9-4.9z"/><path d="m2919 1225.4c-.2.9-1.2 5.7-2.8 14.1a75.7 75.7 0 0 0 -1.6 13.6 23.3 23.3 0 0 0 2.4 11.5c1.7 3 4.8 4.8 9.5 5.4a74.2 74.2 0 0 0 7.9.3 77.7 77.7 0 0 1 8.2.4c4.3.6 7.4 2.1 9.4 4.5 8.8 11 8.8 28 9.8 41.3 1.6 20.6 0 41.5-2.1 62-1 8.8-2.2 15.1-3.7 18.8-6.9 13-12.4 26.7-17.9 40.4a31 31 0 0 0 -1.2 6.6c-.3 3.1.2 7.2 1.5 12.2a44.5 44.5 0 0 1 1 14.3 18.7 18.7 0 0 1 -3.5 9.4c-2.5 3.2-5.2 4.4-8.2 3s-4.2-4.7-4.3-9.5.5-8.5.6-12.5a76.1 76.1 0 0 1 1.5-12.2c.8-4.6 1.4-7.7 1.5-9.3a26.1 26.1 0 0 0 -2.6-13.5l-4-9.4a25.4 25.4 0 0 1 -2-10.4c.1-5.3.4-13.5.4-24.1 0-12.7.5-26 0-38.1-.5-9.5-4.3-27.6-10.9-27.3s-9.7 22.1-10.9 31.8c-1.9 14.3-2.8 29.4-5.9 43.7a113.5 113.5 0 0 1 -6.9 17.5c-2.2 4.2-3.5 6.7-3.7 7.7-2.5 7.5-4.3 11.3-5.6 11.2s-1-.7-1.9-2a3.7 3.7 0 0 0 -2.5-2c-.9-.2-2 .8-2.4 3.1a74.5 74.5 0 0 0 -.2 7.6c0 3.4-.1 5.6-.2 6.5-.5 3.6-.7 5.4-1.2 9s-1.3 5.8-2.5 5.7a4.5 4.5 0 0 1 -2.7-2c-1.5-2.1-2.2-5.9-2-11.5s.5-9 .6-13.1a27.1 27.1 0 0 0 -1.6-8.9 72.1 72.1 0 0 1 -3.1-7.9c-2.9-10.4-2.8-21.5-1.8-32.1 1.6-17.5 5.2-34.8 9-51.9 3.1-14.3 7.1-28.8 9-43.1a72.7 72.7 0 0 0 -1-23.3c-2-10-3.1-17.8-3.2-23a122.4 122.4 0 0 1 1-16.8c1.8-15.6 11.4-34.7 28.7-34.1 19 .7 24.8 19.3 22.1 36.4z"/><path d="m3050 1281.2c7.8 1.1 16.1 4.7 24.9 10.6 16.4 10.5 25.8 27.7 22.9 47-1.5 9.9-4.8 26-15.8 29.9-1.8.5-3.6 2.5-5.4 5.9s-3.4 5.1-5.1 5-4.3-2-7.1-5.2-5.4-5-7.7-5.3a31.3 31.3 0 0 0 -13.3 1.7c-5.5 2-8.6 5.4-9.2 9.5s3.5 9.5 12.2 16.1 12.5 13.3 11.7 19.8c-.3 2.5-2.8 7.3-7.4 14.4-.9 2.5-2 5-3.1 7.7s-2.9 3.9-5.1 3.7a6.8 6.8 0 0 1 -4.2-2.1c-1.3-1.2-2.4-1.9-3.2-1.9-6.2-.5-10.2 6.9-11.7 22.2a50.4 50.4 0 0 0 .2 8.4 48 48 0 0 1 .3 8.9c-.4 4.3-2.6 6.3-6.5 6.1s-7.1-4.7-7.2-12.6c0-6 .4-12.5.9-18.7.8-9.5-2.1-22-7.4-30.1-6.2-10.1-12.4-21-15.6-32.2-4-13.7-2.9-29-1.1-43.3a78.3 78.3 0 0 1 15.6-38.4c12-13.9 27.1-29.7 47.4-27.1zm-7.9 58c9.1 1.1 14.1-1.6 15-7.9a10.4 10.4 0 0 0 -2.8-9.5 15.3 15.3 0 0 0 -9.2-4.4c-6.3-.8-10.2 3.3-11.5 12.2-.8 5.7 2 8.9 8.5 9.6z"/><path d="m3880 1100h1920v1080h-1920z"/><path d="m6411.5 667.4c2.1 21 17.7 40.4 30.3 56.8 14.6 19 28.4 39.6 31.8 63.8 4.3 30.1-4.5 61-13.6 89.5-6.7 21.8-10.9 44.6-6.4 67.2.4 2.1 1.2 5 2.3 8.7s1 5.2 1.7 8.7c2.1 10.6-.8 17.3-5.5 17-9.6-.5-14.3-22.4-17.1-31.8s-6.8-30.3-19.2-31.8c.7-.1-4 2.6-14.1 8.2a75.2 75.2 0 0 0 -10.1 5.3c-1.6 1.2-3.3 5.9-5.1 13.8-2.6 13.1-5.4 19.8-8.6 20.2s-8.6-5.6-12.8-18.5-7.9-19.2-11.6-18.8-4.6 7.8-1.6 22c2 9.6 4.4 19.2 6.9 28.6s5.1 19.1 7.1 28.5 7.9 38.5-5.9 40.6-23.3-35.6-26-47.2c-.9-3.8-2-9.7-3.1-17.5s-2.2-13.8-3.2-18.2c-3.3-15.2-10.4-27.7-19.1-40.3-17.5-22.2-25.6-50.1-30.7-77-2.9-15-4-30.9-4.3-46.4s.1-30.6-1.1-45.8c-1.4-23.4-3.4-46.9-6.5-69.9-4.7-35.3-11.8-70.8-22.9-104.7-9.4-28.9-21-60.1-23.6-90.4-2.4-26.7 8-53.6 32.2-67.8 4.7-2.6 13-5.5 25-8.6s20.2-4.6 24.7-4.3c2.4.1 9.7 1.5 22 4.3 38 9.1 68.1 36 87.3 69.3 7 12.3 11.3 26.5 14.8 40.1s7.3 30.7 8.5 46.2c1.3 18.7-4.3 36.9-11.4 53.9-6.2 14.8-12.6 30.4-11.1 46.3zm-101.6-100.1c1.1 12.6 4.5 38 21.8 38s20.1-18.6 18.9-32.3-6.7-32.7-24-33c-15.1-.3-17.7 15.3-16.7 27.3zm78.4 244c3.9-8.4 6-20.7 4.7-29.9-1.7-11-6.6-21.2-12.3-30.3s-13.1-14.9-19.2-14.6-11.8 6.5-15.3 17.8-5.6 21.2-3.8 32.2c1.4 9.2 6.6 19.9 12 27.4 6.7 9.2 12.6 13.9 17.8 13.5s11.6-6.2 16.1-16.1z"/><path d="m6514.5 750.4c-.6-16.7-4.9-33.5-8.1-49.9-3.8-18.8-7.5-37.9-9.3-57.1s-.5-42.4 11.1-58.3c4.8-6.5 14.9-14.4 23.4-14.1 18.7.6 29.8 23.2 36.2 37.5 8.9 20.1 14.6 42.7 17.1 64.8 2.8 25.8 3.7 54.4 7 79.4 1.2 9.3 4.3 19.2 7 28.7s5.8 21 7 31.7c1.5 12.4 0 25.2-1.4 37.7s-3 25.4-1.9 38c.8 9.3 2.9 18.9 4.8 28s5 21.1 6.8 31.6 2 16.3 1.5 21.5c-1.2 10-3.7 15.8-5.5 15.5-9.3-1.4-16.3-30.2-19.8-40.9-1-5.6-2.2-11.6-3.6-17.9s-2.9-10.4-4.7-12.3-3.2-2.7-4.3-2.6-3 4.4-4.4 12.6-3.5 12.4-5.8 12.9c-4.1.7-8.5-4.8-12.4-17.4-5.1-16.6-7.7-25.6-8.2-26.6-7.7-12.8-15.8-25.5-22.7-38.7a111 111 0 0 1 -7.6-29.3c-1.6-12.5-1.7-25.2-1.7-37.8s.1-24.7-.5-37zm16.1-354.4c-14.7-1.6-26.3 9.5-31.6 21.9s-6.4 26.8-6.1 39.9c.2 9.4 3.1 21.7 8 30s11.3 14.5 18.8 16.5 12 8.5 13.7 19.7 4.9 16.7 9.3 16.7 4.9-4.7 5.4-13.9c.7-11.2 3.6-19.5 7.4-24.5 6-8 7.3-20 8.1-29.9s1.9-21.1.4-31.5c-2.7-19.2-11.1-42.6-33.4-44.9z"/><path d="m6647.2 726.7c-3.3-23-6.6-46.5-7.8-69.6-1.5-29.5-2.3-70.9 23.1-92.4 8.2-5.3 17.7-12.1 28.2-8.1l14.4 8.8c6.3 3.4 11.9 4.8 16 3.7 8.9-2.6 18.3-7.9 27.1-11.7s18.5-7.8 28.4-7.8 16.4 4.1 21.8 12.2c9.4 14.4 15.9 31.8 15.3 48.8-.3 10.3-6.4 20.7-11.8 29.4-2.3 9.7-3 19.8-4.2 29.7s-2 25.3-7.3 27.8c-2.4 1.1-8.8-6.7-13.8-20.6s-10.1-20.1-15.4-18.5c-1.1.5-2.5 2.6-4.1 6.3s-3.7 5.8-6.4 6.3c-.4.1-2.4-.8-5.9-2.6s-6.3-2.7-8.2-2.7c-3.9.2-6.8 2.7-8.9 7.7-3.2 15.6-5.1 32.4-7.1 47.1-1.3 9.3-2.7 18.8-2.1 26.6.4 5.8 2.2 13.6 5.2 23.1s5.6 19.2 7.6 28.8c3.1 15.5.1 32.1-3.1 47.4s-7.1 31.8-5.6 47.2 4.3 31.5 5.8 46.8c.9 8.5 1.1 31.6-5 32s-12.1-26.1-14.2-35.5-5.9-35.2-17.6-35.3c-1.6 0-3.1 3.5-3.6 9.8s-2.6 9.5-5.9 9.4-6.2-4.5-8.5-13.3c-3.8-11.7-7.4-23.8-12-35-3.4-8.2-6.6-18.3-7.4-27.2-1.1-13.7 0-28.3.2-42.3.5-25.4-3.6-51.1-7.2-76.3z"/><path d="m7011.7 674.6c-.3 20.3 2.6 40.9 5.3 61s6 38.8 6.5 58.1-3.6 38.7-7 57.6-6.9 38.7-5.5 58a149.3 149.3 0 0 0 3.1 19.3c1.7 8.4 2.7 15 3.2 19.3 1 8.6-.5 21.7-11.3 23.2-15 2.2-18.1-23-18.6-33-.7-7.2-1-10.8-1.6-18s-.5-14.2-.9-18.1c-.9-9.6-1.8-20-5.9-29s-10.7-22.8-22.8-21.8c-1.8.2-4.4 2.2-7.6 6s-6.5 5.8-9.8 6.2a31.1 31.1 0 0 1 -7.2-.3 31.1 31.1 0 0 0 -6.6-.2c-6.2.6-10.4 6.6-12.3 17.9s-4.2 17.2-6.7 17.5c-4.7.6-9.8-6.2-15.5-19.7a392.8 392.8 0 0 0 -22.4-43.8c-22.7-38.7-36.6-80.1-38.2-123.7-.8-24.2 2.6-48.2 11.2-71.1s28.1-41.5 49.6-54c8.4-4.5 19-5.6 27.8-7.1s18.9-3.6 25.7-10.3c2.9-2.2 4.5-7.4 4.8-15.5s0-18.9-.4-28.3-.8-19.2 0-28.4c1.5-17.7 5.5-37 16.6-51.3 7.5-9.8 17-20.8 30.6-20s22 14.5 25.4 26.4c7.8 26.6 6.7 56.1 4.9 83.6-1.6 23.1-5.2 46.5-8.2 69.5s-5.7 46.6-6.2 70zm-86.5 92.9c5.9-.5 9.6-8 11.1-22.6.5-10.4 1-20.9 1.6-31.3.3-7.2.3-12.8.4-16.3.1-9.1-1.6-23.8-11.1-24.6-6-.6-14 3.7-21.2 10.4s-10.7 14.7-10.5 23.9c.4 13.9 1.2 28.4 5.3 41.7 3.3 10.9 12.3 19.9 24.4 18.8z"/><path d="m7261.4 586c1.6 10.4-3.7 21.3-8.7 30-.9 1.2-1.8 7.7-3.1 18.6-1 8.3-4.3 13.2-8.8 13.5s-8.4-4-7.7-12.7-1.4-13-5-12.2a16.6 16.6 0 0 0 -5.8 3.1c-2.3 1.7-3.8 2.3-4.5 2s-2.8-1.4-6-4.1-6.2-3.8-9-2.9c-10.7 3.2-28.3 10.7-29.7 23a25.9 25.9 0 0 0 .2 6.2c4.8 10 19.6 16.6 28.9 21s20.8 9.6 30.9 14.9c12.2 11.3 20.4 27.7 19 44.5a67.9 67.9 0 0 1 -2.5 14c-5.7 17.9-21 30.8-35.1 41.7-17 13.2-27.5 34.2-33.6 54.6-2.6 7.7-6 13.5-10.3 17.3a8.6 8.6 0 0 1 -5.4 2.6c-6.1.7-10.6-3.1-12.6-11.1s-5.1-10.1-10.5-9.5q-3.3.4-8.7 3.6c-5.4 13.9-3 32.9-3.2 47.3-.1 10.5.9 43.2-14 43.6-12.7.4-14.4-21.3-15.1-31.3a80.8 80.8 0 0 1 .1-9.7l-.5-9.6c-.8-11.1-.8-23.8-7.7-33.2-8.2-7.2-14.4-12.4-18.5-15.4-7.2-6.1-11-12.6-11-19 0-12.5 11.5-23.5 21.7-29.8 12-7.1 25.8-11.6 38.5-16.7 9.3-3.7 23.6-7.8 28.5-16.4a26.8 26.8 0 0 0 3.4-12.5c.1-14.6-19.6-24.8-31.2-29.9a142 142 0 0 1 -29.5-19.4c-9.3-7.7-20-17.3-22.4-30.4a88.6 88.6 0 0 1 -1.5-20.5 97.5 97.5 0 0 1 39.8-74.1 129.6 129.6 0 0 1 77.7-24.8c16.7.3 34.4 3.4 49.1 11.9 11.6 6.8 21.9 17.8 23.8 31.8z"/><path d="m6613.9 149.7c-1.9-.2-4.9.2-8.9 1.2s-7 1.4-8.4 1.2c-5.6-1-10-6.8-12.3-16.4a55.1 55.1 0 0 1 0-24.9c5-21.8 26.3-26.9 46-23.8 1.1.2 7.9 1.4 20.5 3.9 10.1 1.9 21.7 3.8 31.6.8 6.6-2 12.5-2.8 17.4-2.1a48.7 48.7 0 0 1 10.7 3.2c11.5 5.2 12.9 19.9 11.2 30.9-1.3 8.3-2.5 14.2-4.2 16.9s-2.8 4.1-6.1 7.4a17.2 17.2 0 0 0 -4.3 9.1 181.5 181.5 0 0 1 -5.1 22.2c-.9 1.9-2 2.7-3.5 2.5s-3-1.8-3.4-4.5-.8-7.9-1-12.2-1.6-7-3.8-8.3c-5.7-2.8-10.7-3.3-15-1.6s-6.7 5.4-7.3 11.1c-.2 1.2-.1 4.8-.2 10.6a72.5 72.5 0 0 1 -.8 11.6c-3 14.6-3.3 30-2.6 44.9.6 12.3 1.3 25 1.2 37a66.8 66.8 0 0 1 -3.2 18.8l-5.5 18.7a151.5 151.5 0 0 1 -2.9 23.4c-1.1 1.7-2.1 2.5-2.9 2.4s-2.4-4.4-3.4-13c-.5-4.8-2-7.4-4.2-7.5s-3.3 1.9-3.6 6.3-.9 11.9-1.9 22.3c-.6 6.1-2.8 9.2-6.2 9s-5.8-3.7-6.1-10.3c.1 1.8.8-3.5 1.9-15.7.5-5.3-1.1-12.4-4.5-21.3s-5.6-17.2-5.7-21.4a189.4 189.4 0 0 1 3.8-38.1c3.3-16.7 6-34.3 8.9-51.2a52.7 52.7 0 0 0 -8.3-38.2 11.3 11.3 0 0 0 -7.9-4.9z"/><path d="m6799 125.4c-.2.9-1.2 5.7-2.8 14.1a75.7 75.7 0 0 0 -1.6 13.6 23.3 23.3 0 0 0 2.4 11.5c1.7 3 4.8 4.8 9.5 5.4a74.2 74.2 0 0 0 7.9.3 77.7 77.7 0 0 1 8.2.4c4.3.6 7.4 2.1 9.4 4.5 8.8 11 8.8 28 9.8 41.3 1.6 20.6 0 41.5-2.1 62-1 8.8-2.2 15.1-3.7 18.8-6.9 13-12.4 26.7-17.9 40.4a31 31 0 0 0 -1.2 6.6c-.3 3.1.2 7.2 1.5 12.2a44.5 44.5 0 0 1 1 14.3 18.7 18.7 0 0 1 -3.5 9.4c-2.5 3.2-5.2 4.4-8.2 3s-4.2-4.7-4.3-9.5.5-8.5.6-12.5a76.1 76.1 0 0 1 1.5-12.2c.8-4.6 1.4-7.7 1.5-9.3a26.1 26.1 0 0 0 -2.6-13.5l-4-9.4a25.4 25.4 0 0 1 -2-10.4c.1-5.3.4-13.5.4-24.1 0-12.7.5-26 0-38.1-.5-9.5-4.3-27.6-10.9-27.3s-9.7 22.1-10.9 31.8c-1.9 14.3-2.8 29.4-5.9 43.7a113.5 113.5 0 0 1 -6.9 17.5c-2.2 4.2-3.5 6.7-3.7 7.7-2.5 7.5-4.3 11.3-5.6 11.2s-1-.7-1.9-2a3.7 3.7 0 0 0 -2.5-2c-.9-.2-2 .8-2.4 3.1a74.5 74.5 0 0 0 -.2 7.6c0 3.4-.1 5.6-.2 6.5-.5 3.6-.7 5.4-1.2 9s-1.3 5.8-2.5 5.7a4.5 4.5 0 0 1 -2.7-2c-1.5-2.1-2.2-5.9-2-11.5s.5-9 .6-13.1a27.1 27.1 0 0 0 -1.6-8.9 72.1 72.1 0 0 1 -3.1-7.9c-2.9-10.4-2.8-21.5-1.8-32.1 1.6-17.5 5.2-34.8 9-51.9 3.1-14.3 7.1-28.8 9-43.1a72.7 72.7 0 0 0 -1-23.3c-2-10-3.1-17.8-3.2-23a122.4 122.4 0 0 1 1-16.8c1.8-15.6 11.4-34.7 28.7-34.1 19 .7 24.8 19.3 22.1 36.4z"/><path d="m6930 181.2c7.8 1.1 16.1 4.7 24.9 10.6 16.4 10.5 25.8 27.7 22.9 47-1.5 9.9-4.8 26-15.8 29.9-1.8.5-3.6 2.5-5.4 5.9s-3.4 5.1-5.1 5-4.3-2-7.1-5.2-5.4-5-7.7-5.3a31.3 31.3 0 0 0 -13.3 1.7c-5.5 2-8.6 5.4-9.2 9.5s3.5 9.5 12.2 16.1 12.5 13.3 11.7 19.8c-.3 2.5-2.8 7.3-7.4 14.4-.9 2.5-2 5-3.1 7.7s-2.9 3.9-5.1 3.7a6.8 6.8 0 0 1 -4.2-2.1c-1.3-1.2-2.4-1.9-3.2-1.9-6.2-.5-10.2 6.9-11.7 22.2a50.4 50.4 0 0 0 .2 8.4 48 48 0 0 1 .3 8.9c-.4 4.3-2.6 6.3-6.5 6.1s-7.1-4.7-7.2-12.6c0-6 .4-12.5.9-18.7.8-9.5-2.1-22-7.4-30.1-6.2-10.1-12.4-21-15.6-32.2-4-13.7-2.9-29-1.1-43.3a78.3 78.3 0 0 1 15.6-38.4c12-13.9 27.1-29.7 47.4-27.1zm-7.9 58c9.1 1.1 14.1-1.6 15-7.9a10.4 10.4 0 0 0 -2.8-9.5 15.3 15.3 0 0 0 -9.2-4.4c-6.3-.8-10.2 3.3-11.5 12.2-.8 5.7 2 8.9 8.5 9.6z"/><path d="m5820 1100h1920v1080h-1920z"/><g fill="#fff"><path d="m4592.5 474.2c-11 0-19 .4-19 .4 2.6-1.8 6.4-5.2 6.4-12.6s-3.8-19.2-7.8-33.3l-3.6-12.7h-44.6l-3.6 12.7c-4.2 14.3-7.8 26.5-7.8 33.3a14.2 14.2 0 0 0 6.6 12.6s-7-.4-17.8-.4-17 .4-17 .4c7.4-7.2 11-19.8 19.8-47.4l26-83.3a23.3 23.3 0 0 0 1.6-7.4 5.7 5.7 0 0 0 -1.4-4.2h37.8a7.5 7.5 0 0 0 -1.2 4.2 23.1 23.1 0 0 0 1.4 7.4l24.4 83.3c8.2 27.8 11.8 40.2 19.2 47.4 0 0-7.4-.4-19.4-.4zm-41.8-120.1c-2.2-8-3.8-13.2-4.2-15-.4 1.4-1.8 6.4-4.4 15l-14.4 48.8h37.2z"/><path d="m4702.7 468.4-.4 6h-59.8c-10.8 0-15.4.2-15.4.2l1.8-3.4c4-7.6 5-9 5-69 0-58.1-.8-58.9-5-66.9l-1.8-3.4s4.6.4 16.6.4 17-.4 17-.4l-1.8 3.4c-4 7.6-5 9.4-5 67.2v59.1h15.6c24.8 0 28-5.8 35.4-16.6 0 0-1 7.2-2.2 23.4z"/><path d="m4807.7 354.7c-.2-.2-1.6-2-7.2-5.4s-12.6-4.4-22-4.4h-26.4v52.3h21.6c9.4 0 17.2-1 22-3.7s6.8-4.8 7.2-5.2-.6 5.8-.6 15.4.6 15 .6 15.3-1.6-2-7.2-5.3-12.6-3.8-22-3.8h-21.6c0 51.7.8 53.3 5 61.3l1.8 3.4s-4.8-.4-16.6-.4-17 .4-17 .4l1.8-3.4c4-7.6 5-9 5-69 0-58.1-.8-58.9-5-66.9l-1.8-3.4s4.4.2 15.2.2h66.8s-.2 3.2-.2 10.4a104.4 104.4 0 0 0 .6 12.2z"/><path d="m4926.1 475.2c-13.8 0-18.8-6.2-28.2-20.8l-14.4-22.2c-12.4-19.2-14.6-23.2-25.4-23.2a30.9 30.9 0 0 0 -3.4.2c0 50.8.8 54 5 62l1.8 3.4s-4.8-.4-16.4-.4-16.6.4-16.6.4l1.8-3.4c3.8-7.4 5-9 5-69 0-58.1-.8-58.9-5-66.9l-1.8-3.4s5.8.4 14 .4c5.8 0 15.8-.4 23-.4 23.2 0 53.4 1.8 53.4 36 0 16.2-8.8 38.1-44 37.8 17 2.2 23.2 11.3 33.6 28.5l9.6 15.8c7 11.6 12.2 20 20.4 23.6 0 0-2.8 1.6-12.4 1.6zm-61.4-131.3c-5.4 0-10 .4-10 .4v52.8s4 .4 11.6.4c2.4 0 8.6-.4 12-.8 10.4-1.6 19-10.2 19-26.6 0-23.6-14.4-26.2-32.6-26.2z"/><path d="m5034.9 468.4-.4 6h-68.6c-10.8 0-15.4.2-15.4.2l1.8-3.4c4-7.6 5-9 5-69 0-58.1-.8-58.9-5-66.9l-1.8-3.4s4.4.2 15.2.2h66.8s-.2 3.2-.2 10.4a104.4 104.4 0 0 0 .6 12.2c-.2-.2-1.6-2-7.2-5.4s-12.6-4.4-22-4.4h-26.4v51.8h21.6c9.4 0 17.2-1 22-3.8s6.8-4.8 7.2-5.2-.6 6-.6 15.5.6 15 .6 15.5-1.6-2-7.2-5.5-12.6-3.7-22-3.7h-21.6v52.1h24.4c24.8 0 28-5.8 35.4-16.6 0 0-1 7.2-2.2 23.4z"/><path d="m5104.3 474.8c-8.6 0-16.4-.6-24.2-.6-11 0-16.4.4-16.4.4l1.8-3.4c4-7.4 5-9 5-69 0-58.1-.8-58.9-5-66.9l-1.8-3.4s5.4.4 16.4.4c8 0 18.6-.6 27.2-.6 20.4 0 75.4 1.6 75.4 68.4 0 73.3-53.2 74.7-78.4 74.7zm.2-130.5c-7.8 0-13.8.6-13.8.6v116.7s6.8.6 13.2.6c26.4 0 57-5.4 57-59.7 0-51.4-28.4-58.2-56.4-58.2z"/><path d="m4318.5 714.2c-11.8 0-16.8.4-16.8.4l1.8-3.4c3.8-7.4 5-9.4 5-62.7h-66.2c0 53.5.8 54.9 5 62.7l1.8 3.4s-4.8-.4-16.6-.4-16.8.4-16.8.4l1.8-3.4c4-7.6 5-9 5-69 0-58.1-.8-58.9-5-66.9l-1.8-3.4s4.8.4 16.6.4 16.8-.4 16.8-.4l-1.8 3.4c-3.8 7.2-5 9.2-5 58.4h66.2c0-49-1-50.8-5-58.4l-1.8-3.4s4.8.4 16.6.4 16.8-.4 16.8-.4l-1.8 3.4c-4 7.6-5 9-5 68.9 0 58.2.8 59 5 67l1.8 3.4s-4.8-.4-16.6-.4z"/><path d="m4382.3 714.2c-11.8 0-16.8.4-16.8.4l1.8-3.4c4-7.6 5-9 5-69 0-58.1-.8-58.9-5-66.9l-1.8-3.4s4.6.4 16.6.4 16.8-.4 16.8-.4l-1.8 3.4c-4 7.6-5 9-5 68.9 0 58.2.8 59 5 67l1.8 3.4s-4.8-.4-16.6-.4z"/><path d="m4520.3 594.7c-.2-.2-1.6-2-7.2-5.4s-12.6-4.8-22-4.8h-13v59.7c0 58.2.8 59 5 67l1.8 3.4s-4.8-.4-16.6-.4-16.8.4-16.8.4l1.8-3.4c4-7.6 5-9 5-69v-57.7h-13c-9.4 0-17.2 2-22 4.8s-7 5-7.2 5.4a100.2 100.2 0 0 0 .6-12.2c0-7.2-.2-10.4-.2-10.4h103.4s-.2 3.2-.2 10.4a104.4 104.4 0 0 0 .6 12.2z"/><path d="m4603.1 715.8c-64.6 0-70.6-47.1-70.6-70.8 0-47.5 26.4-74.3 72-74.3 25.2 0 35.2 5.8 35.2 5.8s-.4 4.6-.4 13 .4 14 .4 14c-8.6-12.4-15.6-19.6-35-19.6s-50.6 8.6-50.6 60.2c0 31.9 10.2 58.5 49.8 58.5 20 0 27.2-7.6 35.8-20 0 0-.4 6.6-.4 15.2s.4 12.2.4 12.2-13.6 5.8-36.6 5.8z"/><path d="m4765.5 714.2c-11.8 0-16.8.4-16.8.4l1.8-3.4c3.8-7.4 5-9.4 5-62.7h-66.2c0 53.5.8 54.9 5 62.7l1.8 3.4s-4.8-.4-16.6-.4-16.8.4-16.8.4l1.8-3.4c4-7.6 5-9 5-69 0-58.1-.8-58.9-5-66.9l-1.8-3.4s4.8.4 16.6.4 16.8-.4 16.8-.4l-1.8 3.4c-3.8 7.2-5 9.2-5 58.4h66.2c0-49-1-50.8-5-58.4l-1.8-3.4s4.8.4 16.6.4 16.8-.4 16.8-.4l-1.8 3.4c-4 7.6-5 9-5 68.9 0 58.2.8 59 5 67l1.8 3.4s-4.8-.4-16.6-.4z"/><path d="m4879.3 715.8c-64.6 0-70.6-47.1-70.6-70.8 0-47.5 26.4-74.3 72-74.3 25.2 0 35.2 5.8 35.2 5.8s-.4 4.6-.4 13 .4 14 .4 14c-8.6-12.4-15.6-19.6-35-19.6s-50.6 8.6-50.6 60.2c0 31.9 10.2 58.5 49.8 58.5 20 0 27.2-7.6 35.8-20 0 0-.4 6.6-.4 15.2s.4 12.2.4 12.2-13.6 5.8-36.6 5.8z"/><path d="m4998.5 716.8c-40.8 0-63.4-28.2-63.4-70.1 0-17.4 3.2-76.2 63.6-76.2 40.8 0 63.4 28.2 63.4 70.2 0 17.3-3.2 76.1-63.6 76.1zm0-132.9c-21.4 0-41.4 14.8-41.4 60.6s19.4 58.9 41.6 58.9 41.4-14.8 41.4-60.5-19.4-59-41.6-59z"/><path d="m5155.7 715.8c-64.6 0-70.6-47.1-70.6-70.8 0-47.5 26.4-74.3 72-74.3 25.2 0 35.2 5.8 35.2 5.8s-.4 4.6-.4 13 .4 14 .4 14c-8.6-12.4-15.6-19.6-35-19.6s-50.6 8.6-50.6 60.2c0 31.9 10.2 58.5 49.8 58.5 20 0 27.2-7.6 35.8-20 0 0-.4 6.6-.4 15.2s.4 12.2.4 12.2-13.6 5.8-36.6 5.8z"/><path d="m5295.1 603.7-33.4 34.4 33.4 41.7c20 25 27.4 31.8 33 34.8 0 0-6-.2-17.8-.2h-14.4l-54.2-71.3c0 57.7.8 60.1 5 68.1l1.8 3.4s-4.6-.4-16.4-.4-16.8.4-16.8.4l1.8-3.4c4-7.4 5-9 5-69 0-58.1-.8-58.9-5-66.9l-1.8-3.4s4.6.4 16.6.4 16.6-.4 16.6-.4l-1.8 3.4c-3.8 7.2-5 9.6-5 65.8l33.2-37.2c13-14.4 16.6-18.8 16.6-24.4a8.9 8.9 0 0 0 -4.2-7.6s7.2.4 19 .4c14.8 0 22.2-.4 22.2-.4-4.6 3-13.6 11.2-33.4 31.8z"/><path d="m5335.5 613.1c.6-.2 10.2-5.2 10.2-23.2 0-13.4-9-18.8-9-18.8l14.4-13.8s13.2 6.8 13.2 25c0 23.2-17.4 30.8-28.8 30.8z"/><path d="m5421.1 715.8c-23.4 0-34.8-6.2-34.8-6.2s.4-4.6.4-12.2-.4-15.2-.4-15.2c8.4 12 16.8 20.4 34.6 20.4 12 0 29-2 29-21.1 0-12.5-6.8-18-15.4-23.8l-18-11.7c-13.6-8.8-29.4-17.9-29.4-40.1 0-18.8 12.4-35.2 45-35.2 20.4 0 32 5.8 32 5.8s-.4 4.6-.4 12.8.4 14.2.4 14.2c-8.4-12.2-16.6-19.6-32.4-19.6-7.8 0-25.4 1-25.4 19.6 0 12 8 17 19.2 24.4l14.2 9.2c15.6 9.9 29.6 17.9 29.6 41.4 0 27.5-19.8 37.3-48.2 37.3z"/><path d="m6057.2 1760.7c-6.4 0-12.3-.4-18.1-.4-8.3 0-12.3.3-12.3.3l1.3-2.6c3-5.5 3.8-6.7 3.8-51.7s-.6-44.3-3.8-50.3l-1.3-2.5s4 .3 12.3.3c6 0 13.9-.5 20.4-.5 15.3 0 56.5 1.2 56.5 51.3 0 55.1-39.9 56.1-58.8 56.1zm.2-97.9c-5.9 0-10.4.4-10.4.4v87.6s5.1.5 9.9.5c19.8 0 42.8-4.1 42.8-44.9 0-38.5-21.3-43.6-42.3-43.6z"/><path d="m6204.1 1760.3c-8.3 0-14.3.3-14.3.3 2-1.4 4.8-3.9 4.8-9.5s-2.8-14.4-5.8-25l-2.7-9.5h-33.5l-2.7 9.5c-3.1 10.8-5.8 19.9-5.8 25a10.8 10.8 0 0 0 4.9 9.5s-5.2-.3-13.3-.3-12.8.3-12.8.3c5.6-5.4 8.3-14.9 14.9-35.6l19.5-62.5a17.5 17.5 0 0 0 1.2-5.6 4.1 4.1 0 0 0 -1.1-3.1h28.4a5.1 5.1 0 0 0 -.9 3.1 17.4 17.4 0 0 0 1 5.6l18.3 62.5c6.2 20.9 8.9 30.2 14.4 35.6 0 0-5.5-.3-14.5-.3zm-31.4-90.2c-1.6-6-2.8-9.9-3.1-11.2l-3.3 11.2-10.8 36.6h27.9z"/><path d="m6260 1717.7a80.3 80.3 0 0 1 -10-.6c0 32.2.6 34.9 3.7 40.9l1.4 2.6s-3.6-.3-12.5-.3-12.6.3-12.6.3l1.4-2.6c3-5.5 3.7-6.7 3.7-51.7s-.6-44.3-3.7-50.3l-1.4-2.5s3.9.3 10.2.3 13.5-.3 17.9-.3c14.1 0 40.5 1.2 40.5 31.2s-22.4 33-38.6 33zm-2.1-55.2c-4.6 0-7.9.3-7.9.3v45.4s2.1.5 9 .5c22.3 0 23.4-15.5 23.4-24.2 0-19.6-14-22-24.5-22z"/><path d="m6392.3 1760.3c-8.8 0-12.6.3-12.6.3l1.4-2.6c2.8-5.5 3.7-7 3.7-47.1h-49.6c0 40.2.6 41.3 3.7 47.1l1.4 2.6s-3.6-.3-12.5-.3-12.6.3-12.6.3l1.4-2.6c3-5.7 3.7-6.7 3.7-51.7s-.6-44.3-3.7-50.3l-1.4-2.5s3.6.3 12.5.3 12.6-.3 12.6-.3l-1.4 2.5c-2.8 5.4-3.7 6.9-3.7 43.8h49.6c0-36.7-.7-38.1-3.7-43.8l-1.4-2.5s3.6.3 12.5.3 12.6-.3 12.6-.3l-1.4 2.5c-3 5.7-3.7 6.8-3.7 51.8s.6 44.2 3.7 50.2l1.4 2.6s-3.6-.3-12.5-.3z"/><path d="m6515.3 1656c-2.8 5.4-3.6 6.8-3.6 51.8v52.9a89.7 89.7 0 0 0 -9.2-.4c-6.4 0-10 .4-10 .4l-44.4-84.4a42.7 42.7 0 0 1 -3.9-10.4v41.9c0 43.6.6 44.2 3.7 50.2l1.4 2.6s-3.8-.3-11.1-.3-10.7.3-10.7.3l1.4-2.6c2.8-5.4 3.9-6.7 3.9-51.7s-.6-44.3-3.8-50.3l-1.3-2.5s3.1.3 12.7.3c7.7 0 11.4-.3 11.4-.3l44.1 83.8a41.9 41.9 0 0 1 4.4 10.7v-41.7c0-43.7-.6-44.3-3.8-50.3l-1.3-2.5s3.4.3 10.8.3 10.8-.3 10.8-.3z"/><path d="m6601.7 1755.9-.3 4.5h-51.4c-8.1 0-11.6.2-11.6.2l1.4-2.6c3-5.7 3.7-6.7 3.7-51.7s-.6-44.3-3.7-50.3l-1.4-2.5h61.5s-.1 2.4-.1 7.8a89.7 89.7 0 0 0 .4 9.2c-.1-.2-1.2-1.5-5.4-4.1s-9.4-3.3-16.5-3.3h-19.8v38.9h16.2c7.1 0 12.9-.8 16.5-2.9a20.9 20.9 0 0 0 5.4-3.9c0 .2-.4 4.5-.4 11.7s.4 11.3.4 11.6-1.2-1.5-5.4-4.1-9.4-2.8-16.5-2.8h-16.2v39.1h18.3c18.6 0 21-4.3 26.6-12.4 0 .1-.8 5.5-1.7 17.6z"/><path d="m6688.3 1760.7c-6.5 0-12.3-.4-18.2-.4-8.2 0-12.3.3-12.3.3l1.4-2.6c3-5.5 3.7-6.7 3.7-51.7s-.6-44.3-3.7-50.3l-1.4-2.5s4.1.3 12.3.3c6 0 14-.5 20.4-.5 15.3 0 56.6 1.2 56.6 51.3 0 55.1-39.9 56.1-58.8 56.1zm.1-97.9c-5.8 0-10.3.4-10.3.4v87.6s5.1.5 9.9.5c19.8 0 42.7-4.1 42.7-44.9 0-38.5-21.3-43.6-42.3-43.6z"/><path d="m6853.4 1656c-2.8 5.3-3.7 6.9-3.7 44.1v9.5c0 19-.3 28.3-5 36-5.5 9.7-15.3 16.3-34.5 16.3-15 0-26.5-3.6-33.4-13.2-5.3-7-6.6-14.1-6.6-32.8v-11.7c0-40.2-.6-42.2-3.8-48.2l-1.3-2.5s3.9.3 12.6.3 12.7-.3 12.7-.3l-1.3 2.5c-2.9 5.3-3.8 6.9-3.8 44.1v20.9a80 80 0 0 0 1.2 13.9c2.9 11.1 10.8 17 24.5 17s21.7-5.6 24.6-17.3a66.6 66.6 0 0 0 1.2-12.6v-15.7c0-43.7-.6-44.3-3.8-50.3l-1.3-2.5s2.8.3 11.4.3 11.7-.3 11.7-.3z"/><path d="m6999.8 1760.3c-8.8 0-12.7.3-12.7.3l1.3-2.6c3.2-5.8 3.8-6.9 3.8-51.7v-44.9a66.6 66.6 0 0 1 -3.5 11l-29.4 70.2-28.9-69.6a89.2 89.2 0 0 1 -3.8-11.3v46.1c0 43.6.5 44.1 3.8 50.2l1.3 2.6s-3.7-.3-10.9-.3-10.5.3-10.5.3l1.3-2.6c2.9-5.5 3.6-6.7 3.6-51.7s-.4-44.3-3.6-50.3l-1.3-2.5s5.8.3 14.2.3 12.8-.5 12.8-.5l22.2 53.7c1.2 3.5 1.8 4.8 1.8 5.1a22.7 22.7 0 0 1 1.8-5.2l22.5-53.3s5.5.3 13 .3 13.2-.4 13.2-.4l-1.3 2.5c-3 5.6-3.8 6.8-3.8 51.8s.6 44.2 3.8 50.2l1.3 2.6s-3.1-.3-12-.3z"/><path d="m7103.3 1760.3c-8.2 0-14.2.3-14.2.3a10.8 10.8 0 0 0 4.8-9.5c0-5.1-2.9-14.4-5.9-25l-2.7-9.5h-33.4l-2.7 9.5c-3.2 10.8-5.9 19.9-5.9 25a10.7 10.7 0 0 0 5 9.5s-5.3-.3-13.4-.3-12.7.3-12.7.3c5.5-5.4 8.2-14.9 14.8-35.6l19.5-62.5a17.5 17.5 0 0 0 1.2-5.6 4.2 4.2 0 0 0 -1-3.1h28.3a5.1 5.1 0 0 0 -.9 3.1 17.4 17.4 0 0 0 1.1 5.6l18.3 62.5c6.1 20.9 8.8 30.2 14.4 35.6 0 0-5.6-.3-14.6-.3zm-31.3-90.2c-1.7-6-2.9-9.9-3.2-11.2-.3 1-1.3 4.8-3.3 11.2l-10.8 36.6h27.9z"/><path d="m7215.5 1656c-2.8 5.3-3.7 6.9-3.7 44.1v9.5c0 19-.3 28.3-5 36-5.5 9.7-15.3 16.3-34.5 16.3-15 0-26.5-3.6-33.4-13.2-5.3-7-6.6-14.1-6.6-32.8v-11.7c0-40.2-.6-42.2-3.8-48.2l-1.3-2.5s3.9.3 12.6.3 12.7-.3 12.7-.3l-1.3 2.5c-2.9 5.3-3.8 6.9-3.8 44.1v20.9a80 80 0 0 0 1.2 13.9c2.9 11.1 10.8 17 24.5 17s21.7-5.6 24.6-17.3a66.6 66.6 0 0 0 1.2-12.6v-15.7c0-43.7-.6-44.3-3.8-50.3l-1.3-2.5s2.8.3 11.4.3 11.7-.3 11.7-.3z"/><path d="m7311.1 1761c-10.4 0-14.1-4.6-21.2-15.6l-10.8-16.6c-9.3-14.4-10.9-17.4-19-17.4h-2.6c0 38.1.6 40.5 3.8 46.5l1.3 2.6s-3.6-.3-12.3-.3-12.4.3-12.4.3l1.3-2.6c2.9-5.5 3.8-6.7 3.8-51.7s-.6-44.3-3.8-50.3l-1.3-2.5s4.3.3 10.5.3l17.2-.3c17.4 0 40.1 1.3 40.1 27 0 12.1-6.6 28.6-33 28.3 12.7 1.7 17.4 8.6 25.2 21.5l7.2 11.8c5.2 8.7 9.1 15 15.3 17.7 0 .1-2.1 1.3-9.3 1.3zm-46.1-98.5c-4 0-7.5.3-7.5.3v39.6s3 .3 8.7.3c1.8 0 6.5-.3 9-.6 7.8-1.2 14.3-7.7 14.3-20 0-17.7-10.8-19.6-24.5-19.6z"/><path d="m7342 1760.3c-8.9 0-12.6.3-12.6.3l1.3-2.6c3-5.7 3.8-6.7 3.8-51.7s-.6-44.3-3.8-50.3l-1.3-2.5s3.4.3 12.4.3 12.6-.3 12.6-.3l-1.3 2.5c-3 5.7-3.8 6.8-3.8 51.8s.6 44.2 3.8 50.2l1.3 2.6s-3.6-.3-12.4-.3z"/><path d="m7440.5 1755.9-.3 4.5h-51.4c-8.1 0-11.6.2-11.6.2l1.4-2.6c3-5.7 3.7-6.7 3.7-51.7s-.6-44.3-3.7-50.3l-1.4-2.5h61.5s-.1 2.4-.1 7.8a89.7 89.7 0 0 0 .4 9.2c-.1-.2-1.2-1.5-5.4-4.1s-9.4-3.3-16.5-3.3h-19.8v38.9h16.2c7.1 0 12.9-.8 16.5-2.9a20.9 20.9 0 0 0 5.4-3.9c0 .2-.4 4.5-.4 11.7s.4 11.3.4 11.6-1.2-1.5-5.4-4.1-9.4-2.8-16.5-2.8h-16.2v39.1h18.3c18.6 0 21-4.3 26.6-12.4 0 .1-.8 5.5-1.7 17.6z"/><path d="m7535.3 1761c-10.3 0-14.1-4.6-21.1-15.6l-10.8-16.6c-9.3-14.4-11-17.4-19.1-17.4h-2.5c0 38.1.6 40.5 3.7 46.5l1.4 2.6s-3.6-.3-12.3-.3-12.5.3-12.5.3l1.4-2.6c2.8-5.5 3.7-6.7 3.7-51.7s-.6-44.3-3.7-50.3l-1.4-2.5s4.4.3 10.5.3l17.3-.3c17.4 0 40 1.3 40 27 0 12.1-6.6 28.6-33 28.3 12.8 1.7 17.4 8.6 25.2 21.5l7.2 11.8c5.3 8.7 9.2 15 15.3 17.7 0 .1-2.1 1.3-9.3 1.3zm-46-98.5c-4.1 0-7.5.3-7.5.3v39.6s3 .3 8.7.3c1.8 0 6.4-.3 9-.6 7.8-1.2 14.2-7.7 14.2-20 0-17.7-10.8-19.6-24.4-19.6z"/><path d="m6358.3 1498.5a14.6 14.6 0 0 0 -3.6-2.7c-2.4-1.4-6.3-2.2-11-2.2h-13.2v26.2h10.8c4.7 0 8.6-.5 11-1.9a14.9 14.9 0 0 0 3.6-2.6c0 .1-.3 2.9-.3 7.7s.3 7.5.3 7.7a14.6 14.6 0 0 0 -3.6-2.7c-2.4-1.4-6.3-1.9-11-1.9h-10.8c0 25.9.4 26.7 2.5 30.7l.9 1.7s-2.4-.2-8.3-.2-8.5.2-8.5.2l.9-1.7c2-3.8 2.5-4.5 2.5-34.5s-.4-29.5-2.5-33.5l-.9-1.7h41s-.1 1.6-.1 5.2a52.2 52.2 0 0 0 .3 6.2z"/><path d="m6417.5 1558.8c-6.9 0-9.4-3.1-14.1-10.4l-7.2-11.1c-6.2-9.6-7.3-11.6-12.7-11.6h-1.7c0 25.4.4 27 2.5 31l.9 1.7s-2.4-.2-8.2-.2-8.3.2-8.3.2l.9-1.7c1.9-3.7 2.5-4.5 2.5-34.5s-.4-29.5-2.5-33.5l-.9-1.7s2.9.2 7 .2l11.5-.2c11.6 0 26.7.9 26.7 18 0 8.1-4.4 19.1-22 18.9 8.5 1.1 11.6 5.7 16.8 14.3l4.8 7.9c3.5 5.8 6.1 10 10.2 11.8 0 .1-1.4.9-6.2.9zm-30.7-65.7c-2.7 0-5 .2-5 .2v26.4s2 .2 5.8.2l6-.4c5.2-.8 9.5-5.1 9.5-13.3 0-11.8-7.2-13.1-16.3-13.1z"/><path d="m6459.5 1559.6c-20.4 0-31.7-14.1-31.7-35.1 0-8.7 1.6-38.1 31.8-38.1 20.4 0 31.7 14.1 31.7 35.1 0 8.7-1.6 38.1-31.8 38.1zm0-66.5c-10.7 0-20.7 7.4-20.7 30.3s9.7 29.5 20.8 29.5 20.7-7.4 20.7-30.3-9.7-29.5-20.8-29.5z"/><path d="m6564.3 1558.3c-5.9 0-8.5.2-8.5.2l.9-1.7c2.1-3.9 2.5-4.6 2.5-34.5v-29.9a43.1 43.1 0 0 1 -2.3 7.3l-19.6 46.8-19.3-46.4a55.9 55.9 0 0 1 -2.5-7.5v30.7c0 29.1.3 29.4 2.5 33.5l.9 1.7s-2.5-.2-7.3-.2-7 .2-7 .2l.9-1.7c1.9-3.7 2.4-4.5 2.4-34.5s-.3-29.5-2.4-33.5l-.9-1.7s3.9.2 9.5.2 8.5-.3 8.5-.3l14.8 35.8c.8 2.3 1.2 3.2 1.2 3.4a15 15 0 0 1 1.2-3.5l15-35.5s3.7.2 8.7.2 8.8-.3 8.8-.3l-.9 1.7c-2 3.7-2.5 4.5-2.5 34.5s.4 29.5 2.5 33.5l.9 1.7s-2.1-.2-8-.2z"/><path d="m6656.2 1498.5a14.6 14.6 0 0 0 -3.6-2.7c-2.4-1.4-6.3-2.4-11-2.4h-6.5v29.9c0 29.1.4 29.5 2.5 33.5l.9 1.7s-2.4-.2-8.3-.2-8.4.2-8.4.2l.9-1.7c2-3.8 2.5-4.5 2.5-34.5v-28.9h-6.5c-4.7 0-8.6 1-11 2.4s-3.5 2.5-3.6 2.7a50.1 50.1 0 0 0 .3-6.1c0-3.6-.1-5.2-.1-5.2h51.7s-.1 1.6-.1 5.2a52.2 52.2 0 0 0 .3 6.1z"/><path d="m6716.2 1558.3c-5.9 0-8.4.2-8.4.2l.9-1.7c1.9-3.7 2.5-4.7 2.5-31.4h-33.1c0 26.8.4 27.5 2.5 31.4l.9 1.7s-2.4-.2-8.3-.2-8.4.2-8.4.2l.9-1.7c2-3.8 2.5-4.5 2.5-34.5s-.4-29.5-2.5-33.5l-.9-1.7s2.4.2 8.3.2 8.4-.2 8.4-.2l-.9 1.7c-1.9 3.6-2.5 4.6-2.5 29.2h33.1c0-24.5-.5-25.4-2.5-29.2l-.9-1.7s2.4.2 8.3.2 8.4-.2 8.4-.2l-.9 1.7c-2 3.8-2.5 4.5-2.5 34.5s.4 29.5 2.5 33.5l.9 1.7s-2.4-.2-8.3-.2z"/><path d="m6781.9 1555.4-.2 3h-42l.9-1.7c2-3.8 2.5-4.5 2.5-34.5s-.4-29.5-2.5-33.5l-.9-1.7h41s-.1 1.6-.1 5.2a52.2 52.2 0 0 0 .3 6.1 14.6 14.6 0 0 0 -3.6-2.7c-2.4-1.4-6.3-2.2-11-2.2h-13.2v25.9h10.8c4.7 0 8.6-.5 11-1.9a14.9 14.9 0 0 0 3.6-2.6c0 .1-.3 3-.3 7.8s.3 7.5.3 7.7a14.6 14.6 0 0 0 -3.6-2.7c-2.4-1.4-6.3-1.9-11-1.9h-10.8v26.3h12.2c12.4 0 14-2.9 17.7-8.3 0 0-.5 3.6-1.1 11.7z"/><path d="m6834.8 1559.1c-11.8 0-17.5-3.1-17.5-3.1s.2-2.3.2-6.1-.2-7.6-.2-7.6c4.2 6 8.4 10.2 17.3 10.2 6.1 0 14.6-1 14.6-10.6 0-6.2-3.4-9-7.7-11.9l-9.1-5.8c-6.8-4.4-14.7-9-14.7-20.1 0-9.4 6.2-17.6 22.5-17.6 10.3 0 16.1 2.9 16.1 2.9s-.2 2.3-.2 6.4.2 7.1.2 7.1c-4.2-6.1-8.3-9.8-16.3-9.8-3.8 0-12.7.5-12.7 9.8 0 6 4 8.5 9.7 12.2l7.1 4.6c7.8 5 14.8 9 14.8 20.7 0 13.8-9.9 18.7-24.1 18.7z"/><path d="m6917.1 1498.5a14.6 14.6 0 0 0 -3.6-2.7c-2.4-1.4-6.3-2.4-11-2.4h-6.5v29.9c0 29.1.4 29.5 2.5 33.5l.9 1.7s-2.4-.2-8.4-.2-8.4.2-8.4.2l.9-1.7c2-3.8 2.5-4.5 2.5-34.5v-28.9h-6.5c-4.7 0-8.6 1-11 2.4s-3.5 2.5-3.6 2.7a50.1 50.1 0 0 0 .3-6.1c0-3.6-.1-5.2-.1-5.2h51.8s-.1 1.6-.1 5.2a52.2 52.2 0 0 0 .3 6.1z"/><path d="m6954.8 1559.6c-20.4 0-31.7-14.1-31.7-35.1 0-8.7 1.6-38.1 31.8-38.1 20.5 0 31.8 14.1 31.8 35.1 0 8.7-1.6 38.1-31.9 38.1zm0-66.5c-10.7 0-20.7 7.4-20.7 30.3s9.7 29.5 20.8 29.5 20.8-7.4 20.8-30.3-9.7-29.5-20.9-29.5z"/><path d="m7048.8 1558.8c-7 0-9.5-3.1-14.2-10.4l-7.2-11.1c-6.2-9.6-7.3-11.6-12.7-11.6h-1.7c0 25.4.4 27 2.5 31l.9 1.7s-2.4-.2-8.2-.2-8.3.2-8.3.2l.9-1.7c1.9-3.7 2.5-4.5 2.5-34.5s-.4-29.5-2.5-33.5l-.9-1.7s2.9.2 7 .2l11.5-.2c11.6 0 26.8.9 26.8 18 0 8.1-4.4 19.1-22.1 18.9 8.5 1.1 11.6 5.7 16.8 14.3l4.9 7.9c3.4 5.8 6.1 10 10.2 11.8 0 .1-1.4.9-6.2.9zm-30.8-65.7c-2.7 0-5 .2-5 .2v26.4s2 .2 5.8.2l6-.4c5.2-.8 9.5-5.1 9.5-13.3 0-11.8-7.2-13.1-16.3-13.1z"/><path d="m7097.7 1507.4-10.7 19.2c0 24.6.4 26.3 2.5 30.2l.9 1.7s-2.4-.2-8.3-.2-8.5.2-8.5.2l.9-1.7c1.9-3.5 2.5-5.8 2.5-27.8l-11.7-21.8c-8.9-16.6-9.6-17.4-13.1-20.1 0 0 2.7.2 10.4.2s9.9-.2 9.9-.2a6.2 6.2 0 0 0 -2.3 4.7c0 2.8.5 4 5.4 13.5l7.5 14.6 7.4-14.7c4.8-9.5 5-10.6 5-13.4a6.2 6.2 0 0 0 -2.3-4.7s3.5.2 8.8.2 9.1-.2 9.1-.2c-3.3 2.3-4.4 4-13.4 20.3z"/><path d="m7176.3 1556.5c-4.6 1.9-8.9 2-17.6 2l-10.9-.2c-5.6 0-8 .2-8 .2l.9-1.7c2-3.7 2.5-4.5 2.5-34.5s-.4-29.5-2.5-33.5l-.9-1.7s2.8.2 6.9.2l10.4-.2c14.7 0 27.9 1.4 27.9 17.3 0 10.7-7.2 15.9-15.1 17.4 7.2.1 17.6 3.8 17.6 17.2 0 10.2-5.9 15.4-11.2 17.5zm-18-63.4-5.4.2v25.8s2.1.2 5.9.2a44 44 0 0 0 5.8-.5c5.2-.7 9.7-5.1 9.7-13.4 0-11.1-7.9-12.3-16-12.3zm.8 32.2c-3.1 0-6.2.2-6.2.2v26.8a61.5 61.5 0 0 0 6.7.2c5 0 8.5-.6 10.3-1.5s6.8-3.6 6.8-12.5c0-11.2-7.8-13.2-17.6-13.2z"/><path d="m7237.1 1507.4-10.7 19.2c0 24.6.4 26.3 2.5 30.2l.9 1.7s-2.4-.2-8.3-.2-8.5.2-8.5.2l.9-1.7c1.9-3.5 2.5-5.8 2.5-27.8l-11.7-21.8c-8.9-16.6-9.6-17.4-13.1-20.1 0 0 2.7.2 10.4.2s9.9-.2 9.9-.2a6.2 6.2 0 0 0 -2.3 4.7c0 2.8.5 4 5.4 13.5l7.5 14.6 7.4-14.7c4.8-9.5 5-10.6 5-13.4a6.2 6.2 0 0 0 -2.3-4.7s3.5.2 8.8.2 9.1-.2 9.1-.2c-3.3 2.3-4.4 4-13.4 20.3z"/></g></svg>