<svg height="2in" viewBox="0 0 252 144" width="3.5in" xmlns="http://www.w3.org/2000/svg"><path d="m-9-9h270v162h-270z" fill="#fff"/><path d="m111.9 36h-2.8a16.4 16.4 0 0 0 5 11.9l1.9-1.9a14.4 14.4 0 0 1 -4.1-10z" fill="#e31d93"/><path d="m116 46-1.9 1.9a16.4 16.4 0 0 0 11.9 5v-2.8a14 14 0 0 1 -10-4.1z" fill="#8331a7"/><path d="m116 26-1.9-1.9a16.6 16.6 0 0 0 -5 11.9h2.8a14.4 14.4 0 0 1 4.1-10z" fill="#00b2e3"/><path d="m126.6 51.3v2.7a16.9 16.9 0 0 0 11.9-4.9l-1.9-2a14.1 14.1 0 0 1 -10 4.2z" fill="#0033a1"/><path d="m137.1 25.5a14.1 14.1 0 0 1 4.2 10h2.7a16.9 16.9 0 0 0 -4.9-11.9z" fill="#fed925"/><path d="m126 21.9v-2.7a16.5 16.5 0 0 0 -11.9 4.9l1.9 1.9a14.4 14.4 0 0 1 10-4.1z" fill="#f32735"/><path d="m137.1 46.6 2 1.9a16.9 16.9 0 0 0 4.9-11.9h-2.7a14.1 14.1 0 0 1 -4.2 10z" fill="#009d4f"/><path d="m136.6 24.9 1.9-2a16.9 16.9 0 0 0 -11.9-4.9v2.7a14.1 14.1 0 0 1 10 4.2z" fill="#ff6b00"/><path d="m114.6 36h-2.7a14.4 14.4 0 0 0 4.1 10l1.9-1.9a11.7 11.7 0 0 1 -3.3-8.1z" fill="#e9459d"/><path d="m117.9 44.1-1.9 1.9a14 14 0 0 0 10 4.1v-2.7a11.2 11.2 0 0 1 -8.1-3.3z" fill="#9048b0"/><path d="m117.9 27.9-1.9-1.9a14.4 14.4 0 0 0 -4.1 10h2.7a11.9 11.9 0 0 1 3.3-8.1z" fill="#00bae6"/><path d="m126.3 47.9v2.7a14.1 14.1 0 0 0 10-4.2l-1.9-1.9a11.5 11.5 0 0 1 -8.1 3.4z" fill="#04a"/><path d="m137.9 35.8h2.7a14 14 0 0 0 -4.1-9.9l-1.9 1.9a11.4 11.4 0 0 1 3.3 8z" fill="#ffdc47"/><path d="m126 24.6v-2.7a14.4 14.4 0 0 0 -10 4.1l1.9 1.9a11.9 11.9 0 0 1 8.1-3.3z" fill="#f84a47"/><path d="m134.6 44.3 1.9 1.9a14 14 0 0 0 4.1-9.9h-2.7a11.4 11.4 0 0 1 -3.3 8z" fill="#00a760"/><path d="m126.3 24.1a11.4 11.4 0 0 1 8 3.3l1.9-1.9a14 14 0 0 0 -9.9-4.1z" fill="#ff7c00"/><path d="m117.5 36h-2.9a11.7 11.7 0 0 0 3.3 8.1l2.1-2.1a8.5 8.5 0 0 1 -2.5-6z" fill="#ed5fa7"/><path d="m120 42-2.1 2.1a11.2 11.2 0 0 0 8.1 3.3v-2.9a8.6 8.6 0 0 1 -6-2.5z" fill="#9d5cb8"/><path d="m120 30-2.1-2.1a11.9 11.9 0 0 0 -3.3 8.1h2.9a8.8 8.8 0 0 1 2.5-6z" fill="#38c2e8"/><path d="m126 44.5v2.9a11.2 11.2 0 0 0 8.1-3.3l-2.1-2.1a8.6 8.6 0 0 1 -6 2.5z" fill="#3956b4"/><path d="m134.5 36h2.9a11.4 11.4 0 0 0 -3.3-8.1l-2.1 2.1a8.8 8.8 0 0 1 2.5 6z" fill="#ffe05f"/><path d="m120 30a8.8 8.8 0 0 1 6-2.5v-2.9a11.9 11.9 0 0 0 -8.1 3.3z" fill="#fc6359"/><path d="m132 42 2.1 2.1a11.2 11.2 0 0 0 3.3-8.1h-2.9a8.5 8.5 0 0 1 -2.5 6z" fill="#0bb270"/><path d="m132 30 2.1-2.1a11.7 11.7 0 0 0 -8.1-3.3v2.9a8.6 8.6 0 0 1 6 2.5z" fill="#ff8c1c"/><path d="m9 9h234v126h-234z" fill="none" stroke="#000" stroke-miterlimit="10"/><path d="m79.1 70.9h-.8v-5l-.8.5-.8.4v-.7l1.2-.8.7-.8h.5z"/><path d="m85.3 70.2v.7h-4.3a.9.9 0 0 1 .1-.5 4.1 4.1 0 0 1 .5-.9l1-1a11.6 11.6 0 0 0 1.5-1.3 2.2 2.2 0 0 0 .3-1 1.3 1.3 0 0 0 -.3-.8 1.2 1.2 0 0 0 -.9-.3 1 1 0 0 0 -.9.4 1.2 1.2 0 0 0 -.3.9h-.9a2.3 2.3 0 0 1 .7-1.4 2 2 0 0 1 1.4-.4 1.8 1.8 0 0 1 1.5.5 1.4 1.4 0 0 1 .5 1.3 1.7 1.7 0 0 1 -.1.7 3.5 3.5 0 0 1 -.5.8 8.1 8.1 0 0 1 -1.3 1.1l-.9.8-.3.5z"/><path d="m86.1 67.8a9.2 9.2 0 0 1 .2-1.9 4.1 4.1 0 0 1 .7-1.1 2.1 2.1 0 0 1 1.2-.3 1.9 1.9 0 0 1 1.6.8l.4.9a7.1 7.1 0 0 1 .1 1.6 9 9 0 0 1 -.2 1.8 4.1 4.1 0 0 1 -.7 1.1 2.1 2.1 0 0 1 -1.2.3 2 2 0 0 1 -1.5-.6 4.5 4.5 0 0 1 -.6-2.6zm.8 0a3.7 3.7 0 0 0 .4 2.1 1.1 1.1 0 0 0 1.8 0 3.7 3.7 0 0 0 .4-2.1 3.9 3.9 0 0 0 -.4-2.2 1.1 1.1 0 0 0 -1.8 0 3.9 3.9 0 0 0 -.4 2.2z"/><path d="m91.1 67.8a9.2 9.2 0 0 1 .2-1.9 4.1 4.1 0 0 1 .7-1.1 2.1 2.1 0 0 1 1.2-.3c.4 0 .7 0 .9.2a1.3 1.3 0 0 1 .7.6l.4.9a7.1 7.1 0 0 1 .1 1.6 9 9 0 0 1 -.2 1.8 4.1 4.1 0 0 1 -.7 1.1 2.1 2.1 0 0 1 -1.2.3 2 2 0 0 1 -1.5-.6 4.5 4.5 0 0 1 -.6-2.6zm.8 0a3.7 3.7 0 0 0 .4 2.1 1.1 1.1 0 0 0 1.8 0 3.7 3.7 0 0 0 .4-2.1 3.9 3.9 0 0 0 -.4-2.2 1.1 1.1 0 0 0 -1.8 0 5 5 0 0 0 -.4 2.2z"/><path d="m96.5 70.9v-.9h.9v.9a1.7 1.7 0 0 1 -.1.8c-.2.2-.3.4-.6.5l-.2-.3.4-.4a3.5 3.5 0 0 0 .1-.6z"/><path d="m101.1 68.9h.8l.3.8a1.8 1.8 0 0 0 .7.5l1 .2.8-.2.6-.4a.7.7 0 0 0 0-1 .9.9 0 0 0 -.6-.4l-1.2-.3-1.2-.4-.7-.6a2.4 2.4 0 0 1 -.2-.8 1.6 1.6 0 0 1 1.1-1.6l1.2-.2 1.2.2a2.2 2.2 0 0 1 .9.7 1.7 1.7 0 0 1 .3 1h-.8a1.9 1.9 0 0 0 -.5-1 2.2 2.2 0 0 0 -2.2 0 .8.8 0 0 0 -.4.7.9.9 0 0 0 .3.6 3.1 3.1 0 0 0 1.2.4l1.5.4a2.7 2.7 0 0 1 .8.7 1.6 1.6 0 0 1 .3.9 1.7 1.7 0 0 1 -.3 1 2.2 2.2 0 0 1 -.9.7 2.3 2.3 0 0 1 -1.2.2 3.4 3.4 0 0 1 -1.5-.2 1.8 1.8 0 0 1 -.9-.8 3.6 3.6 0 0 1 -.4-1.1z"/><path d="m110.4 70.4-.9.5h-.8a1.9 1.9 0 0 1 -1.2-.3 1.3 1.3 0 0 1 -.4-1 1.3 1.3 0 0 1 .1-.6l.4-.5.6-.2.7-.2 1.4-.2v-.2a1 1 0 0 0 -.2-.7 1.2 1.2 0 0 0 -.9-.3 1.3 1.3 0 0 0 -.8.2c-.2.1-.3.4-.4.7h-.8a2 2 0 0 1 .4-.8 1 1 0 0 1 .6-.5h2.1a1 1 0 0 1 .5.4l.3.5v1.8a4.5 4.5 0 0 0 .1 1.4.8.8 0 0 0 .2.5h-.9a4.3 4.3 0 0 1 -.1-.5zm-.1-1.8-1.3.3h-.7l-.3.3c-.1.1-.1.2-.1.4a.5.5 0 0 0 .3.5 1 1 0 0 0 .7.2 1.2 1.2 0 0 0 .8-.2l.5-.5a1.9 1.9 0 0 0 .1-.8z"/><path d="m112.3 65.4v-.9h.8v.9zm0 5.5v-4.6h.8v4.6z"/><path d="m114.3 70.9v-4.6h.8v.6a1.5 1.5 0 0 1 1.4-.7h.8a1 1 0 0 1 .5.4c.2.2.2.4.3.6v3.6h-.8v-2.7c0-.3 0-.6-.1-.7s-.1-.3-.3-.4l-.5-.2a1.3 1.3 0 0 0 -.9.4 1.7 1.7 0 0 0 -.4 1.2v2.5z"/><path d="m121.1 70.2v.7h-1.3l-.3-.4a2 2 0 0 1 -.1-.9v-2.7h-.6v-.6h.6v-1.2l.8-.5v1.7h.8v.6h-.8v3.1l.2.2h.6z"/><path d="m121.5 69v-.8h2.5v.8z"/><path d="m124.9 70.9v-6.4h.9v5.7h3.1v.7z"/><path d="m132.9 70.4-.9.5h-.8a2.1 2.1 0 0 1 -1.2-.3 1.3 1.3 0 0 1 -.4-1 1.3 1.3 0 0 1 .1-.6l.4-.5.6-.2.7-.2 1.4-.2v-.2c0-.4 0-.6-.2-.7a1.2 1.2 0 0 0 -.9-.3l-.8.2c-.2.1-.3.4-.4.7h-.8a2 2 0 0 1 .4-.8 1.3 1.3 0 0 1 .7-.5h2a1 1 0 0 1 .5.4c.2.1.2.3.3.5v1.8a4.5 4.5 0 0 0 .1 1.4.8.8 0 0 0 .2.5h-.8a.8.8 0 0 1 -.2-.5zm-.1-1.8-1.3.3h-.7l-.3.3c0 .1-.1.2-.1.4a.5.5 0 0 0 .3.5l.7.2a1.4 1.4 0 0 0 1.3-.7 1.9 1.9 0 0 0 .1-.8z"/><path d="m137.9 70.9v-.7a1.6 1.6 0 0 1 -1.5.8h-.7l-.6-.4a1.4 1.4 0 0 1 -.2-.6c0-.2-.1-.4-.1-.7v-3h.8v2.6a1.7 1.7 0 0 0 .1.8.5.5 0 0 0 .3.5l.6.2.7-.2a1 1 0 0 0 .4-.5 2.2 2.2 0 0 0 .1-.9v-2.5h.8v4.6z"/><path d="m139.9 70.9v-4.6h.7v.7a1 1 0 0 1 .5-.7h.5a1.3 1.3 0 0 1 .8.2l-.3.7h-1a.5.5 0 0 0 -.3.5 2.4 2.4 0 0 0 -.2.9v2.4z"/><path d="m146.1 69.4h.8a2.3 2.3 0 0 1 -.7 1.1 2.5 2.5 0 0 1 -3-.2 2.4 2.4 0 0 1 -.6-1.8 2.6 2.6 0 0 1 .6-1.8 2.1 2.1 0 0 1 1.6-.6 2 2 0 0 1 1.5.6 2.4 2.4 0 0 1 .6 1.8v.2h-3.5a2.1 2.1 0 0 0 .4 1.2 1.8 1.8 0 0 0 1 .4l.8-.2a2.8 2.8 0 0 0 .5-.7zm-2.6-1.3h2.6l-.3-.8a1.4 1.4 0 0 0 -1-.5 1.4 1.4 0 0 0 -1.3 1.3z"/><path d="m147.9 70.9v-4.6h.7v.6a1.6 1.6 0 0 1 1.5-.7h.7l.6.4a1.4 1.4 0 0 1 .2.6 5.4 5.4 0 0 1 .1.8v2.8h-.8v-2.7a5.6 5.6 0 0 0 -.1-.7l-.4-.4-.5-.2a1.8 1.8 0 0 0 -.9.4 1.7 1.7 0 0 0 -.3 1.2v2.5z"/><path d="m154.6 70.2v.7h-1.3l-.3-.4a2 2 0 0 1 -.1-.9v-2.7h-.6v-.6h.6v-1.2l.8-.5v1.7h.8v.6h-.8v3.1c.1.1.1.2.2.2h.6z"/><path d="m158.6 70.9h-.7v-6.4h.8v2.3a1.4 1.4 0 0 1 1.2-.6h.8a1.8 1.8 0 0 1 .7.5l.4.8a2.8 2.8 0 0 1 .1.9 2.9 2.9 0 0 1 -.6 1.9 2 2 0 0 1 -1.4.6 1.4 1.4 0 0 1 -1.3-.7zm0-2.3a3.7 3.7 0 0 0 .2 1.2 1.2 1.2 0 0 0 1 .6 1.1 1.1 0 0 0 .9-.5 1.7 1.7 0 0 0 .4-1.3 2 2 0 0 0 -.4-1.4 1.2 1.2 0 0 0 -.8-.4 1.1 1.1 0 0 0 -.9.5 1.7 1.7 0 0 0 -.4 1.3z"/><path d="m162.9 70.9v-6.4h.7v6.4z"/><path d="m166.2 70.9-1.8-4.6h.8l1 2.8.3.9.3-.9 1.1-2.8h.8l-1.8 4.6z"/><path d="m172.4 70.9v-.6a1.4 1.4 0 0 1 -1.3.7 1.7 1.7 0 0 1 -1-.3 3 3 0 0 1 -.8-.8 4.3 4.3 0 0 1 0-2.6 2.7 2.7 0 0 1 .7-.8 2 2 0 0 1 1.1-.3h.7l.5.5v-2.2h.8v6.4zm-2.5-2.3a1.7 1.7 0 0 0 .4 1.3 1.1 1.1 0 0 0 .9.5 1.8 1.8 0 0 0 .9-.4 2.5 2.5 0 0 0 .3-1.3 1.8 1.8 0 0 0 -.4-1.4 1.1 1.1 0 0 0 -.9-.5 1.2 1.2 0 0 0 -.8.4 2 2 0 0 0 -.4 1.4z"/><path d="m174.6 70.9v-.9h.9v.9z"/><path d="m91.3 83.6a8.6 8.6 0 0 1 -1.1-1.9 5.9 5.9 0 0 1 -.4-2.3 6.4 6.4 0 0 1 .3-2 11.9 11.9 0 0 1 1.2-2.2h.6c-.3.6-.6 1-.7 1.3a5.6 5.6 0 0 0 -.4 1.2 9.9 9.9 0 0 0 -.2 1.7 7.6 7.6 0 0 0 1.3 4.2z"/><path d="m92.7 78.6a3.7 3.7 0 0 1 .8-2.5 3 3 0 0 1 2.3-.9 3.2 3.2 0 0 1 1.6.4 4.3 4.3 0 0 1 1.1 1.2 4.7 4.7 0 0 1 .3 1.7 3.4 3.4 0 0 1 -.4 1.8 2 2 0 0 1 -1.1 1.1 3.4 3.4 0 0 1 -3.2 0 3.2 3.2 0 0 1 -1.1-1.2 4.1 4.1 0 0 1 -.3-1.6zm.8 0a2.5 2.5 0 0 0 .7 1.8 1.8 1.8 0 0 0 1.5.7 1.9 1.9 0 0 0 1.6-.7 2.7 2.7 0 0 0 .6-1.9 3.2 3.2 0 0 0 -.2-1.4 2.4 2.4 0 0 0 -.8-.9 2 2 0 0 0 -1.1-.3 2.3 2.3 0 0 0 -1.6.6 2.9 2.9 0 0 0 -.7 2.1z"/><path d="m99.8 81.7v-4.6h.7v.6a1.8 1.8 0 0 1 1.5-.7h.8a1 1 0 0 1 .5.4l.3.6v3.6h-.8v-2.7c0-.3 0-.6-.1-.7s-.1-.3-.3-.4l-.5-.2a1.3 1.3 0 0 0 -.9.4c-.3.2-.4.6-.4 1.2v2.5z"/><path d="m106.6 81v.7h-1.3a.5.5 0 0 1 -.3-.4 2.2 2.2 0 0 1 -.1-.9v-2.7h-.6v-.6h.6v-1.2l.8-.5v1.7h.8v.6h-.8v3.1a.3.3 0 0 0 .1.2h.7z"/><path d="m110.4 81.2-.9.5h-.8a1.9 1.9 0 0 1 -1.2-.3 1.3 1.3 0 0 1 -.4-1 1.3 1.3 0 0 1 .1-.6l.4-.5.6-.2.7-.2 1.4-.2v-.2a1 1 0 0 0 -.2-.7 1.2 1.2 0 0 0 -.9-.3 1.3 1.3 0 0 0 -.8.2c-.2.1-.3.4-.4.7h-.8l.3-.8a1.8 1.8 0 0 1 .7-.5h2.1a1 1 0 0 1 .5.4l.3.5v1.8a4.5 4.5 0 0 0 .1 1.4.8.8 0 0 0 .2.5h-.9a4.3 4.3 0 0 1 -.1-.5zm-.1-1.8-1.3.3h-.7l-.3.3c-.1.1-.1.2-.1.4a.8.8 0 0 0 .2.5l.7.2.9-.2a1.2 1.2 0 0 0 .5-.5 1.9 1.9 0 0 0 .1-.8z"/><path d="m112.3 81.7v-4.6h.7v.7a2.5 2.5 0 0 1 .5-.7h.5a1.5 1.5 0 0 1 .9.2l-.3.7h-1.1a.8.8 0 0 0 -.2.5 2.4 2.4 0 0 0 -.2.9v2.4z"/><path d="m115.3 76.2v-.9h.8v.9zm0 5.5v-4.6h.8v4.6z"/><path d="m117 79.4a2.3 2.3 0 0 1 .8-1.9 1.7 1.7 0 0 1 1.4-.5 2.1 2.1 0 0 1 1.6.6 2.4 2.4 0 0 1 .6 1.7 2.6 2.6 0 0 1 -.3 1.4 1.6 1.6 0 0 1 -.7.9l-1.2.2a2.3 2.3 0 0 1 -1.6-.6 2.4 2.4 0 0 1 -.6-1.8zm.9 0a2.3 2.3 0 0 0 .3 1.3 1.2 1.2 0 0 0 2 0 2.3 2.3 0 0 0 0-2.6 1.3 1.3 0 0 0 -2 0 2.3 2.3 0 0 0 -.3 1.3z"/><path d="m122.9 83.6h-.6a7.6 7.6 0 0 0 1.3-4.2 8.8 8.8 0 0 0 -.2-1.6 5 5 0 0 0 -.4-1.3c-.1-.3-.4-.7-.7-1.3h.6a11.9 11.9 0 0 1 1.2 2.2 6.4 6.4 0 0 1 .3 2 5.9 5.9 0 0 1 -.4 2.3 8.6 8.6 0 0 1 -1.1 1.9z"/><path d="m127.9 81.7v-6.4h.9v3.2l3.2-3.2h1.1l-2.7 2.6 2.8 3.8h-1.1l-2.3-3.2-1 1v2.2z"/><path d="m136.6 81.7h-.8v-5a4.6 4.6 0 0 1 -1.6.9v-.7a3.6 3.6 0 0 0 1.2-.8l.7-.8h.5z"/><path d="m138.9 81.7v-6.4h.9v3.2l3.2-3.2h1.1l-2.7 2.6 2.8 3.8h-1.1l-2.3-3.2-1 1v2.2z"/><path d="m147.1 80h.8a1.9 1.9 0 0 0 .5 1 1.1 1.1 0 0 0 .8.3 1 1 0 0 0 .9-.4 1.3 1.3 0 0 0 .4-1 1.1 1.1 0 0 0 -1.2-1.2h-.6v-.7h.1l.9-.3c.3-.1.4-.4.4-.8a1 1 0 0 0 -1-1 1.1 1.1 0 0 0 -.8.3 1.9 1.9 0 0 0 -.4.9l-.8-.2a1.9 1.9 0 0 1 .7-1.2 1.6 1.6 0 0 1 1.2-.4 1.6 1.6 0 0 1 1 .2 1.3 1.3 0 0 1 .7.6 1.2 1.2 0 0 1 .2.8 1.1 1.1 0 0 1 -.2.8 1.3 1.3 0 0 1 -.7.5 1.5 1.5 0 0 1 .9.6 1.8 1.8 0 0 1 .4 1 2.1 2.1 0 0 1 -.7 1.5 2.5 2.5 0 0 1 -1.5.5 1.6 1.6 0 0 1 -1.4-.5 1.9 1.9 0 0 1 -.6-1.3z"/><path d="m152.4 81.7v-6.4h2.4l1.2.2a1.1 1.1 0 0 1 .7.6 1.3 1.3 0 0 1 .3.8 1.1 1.1 0 0 1 -.3.8.9.9 0 0 1 -.6.6 1.5 1.5 0 0 1 .9.6 1.7 1.7 0 0 1 .3 1 2.4 2.4 0 0 1 -.2.8 1 1 0 0 1 -.5.6 1.5 1.5 0 0 1 -.7.3h-3.5zm.9-3.7h2.2a.9.9 0 0 0 .5-.3c.1-.1.1-.3.1-.6a.7.7 0 0 0 -.1-.5 1 1 0 0 0 -.5-.4h-2.2zm0 3h2.6l.4-.4a.9.9 0 0 0 .1-.5 1.4 1.4 0 0 0 -.2-.7.9.9 0 0 0 -.5-.3h-2.4z"/><path d="m159.4 78.2a1.6 1.6 0 0 1 -.8-.5 1.9 1.9 0 0 1 -.2-.8 2.1 2.1 0 0 1 .5-1.2 1.8 1.8 0 0 1 1.3-.4 1.6 1.6 0 0 1 1.4.5 1.6 1.6 0 0 1 .5 1.1 1.9 1.9 0 0 1 -.2.8 1.8 1.8 0 0 1 -.7.5 2.2 2.2 0 0 1 .9.7 1.5 1.5 0 0 1 .3 1 1.9 1.9 0 0 1 -2.1 1.9 2.1 2.1 0 0 1 -1.6-.5 2 2 0 0 1 -.6-1.4 1.8 1.8 0 0 1 .3-1.1 2.1 2.1 0 0 1 1-.6zm-.5 1.7a1.4 1.4 0 0 0 .2.6 1.2 1.2 0 0 0 .5.5l.7.2a1.2 1.2 0 0 0 .9-.4 1.2 1.2 0 0 0 0-1.8 1.3 1.3 0 0 0 -1-.4 1.6 1.6 0 0 0 -.9.3 1.8 1.8 0 0 0 -.4 1zm.3-3a.8.8 0 0 0 .3.7 1 1 0 0 0 .8.3.9.9 0 0 0 .7-.3.8.8 0 0 0 .3-.7 1.1 1.1 0 0 0 -.3-.7 1.1 1.1 0 0 0 -.8-.3 1 1 0 0 0 -1 1z"/><path d="m102.5 98.5h-.8l-.3-.6a.9.9 0 0 0 -.8-.4l-.7.2-.6.8a6.1 6.1 0 0 0 -.2 1.5 1.3 1.3 0 0 1 .7-.6 1.5 1.5 0 0 1 .9-.2 1.7 1.7 0 0 1 1.3.5 2 2 0 0 1 .6 1.5 2.7 2.7 0 0 1 -.3 1.2 2.7 2.7 0 0 1 -.7.8l-1 .2a2.2 2.2 0 0 1 -1.7-.7 3.8 3.8 0 0 1 -.6-2.4 4.1 4.1 0 0 1 .7-2.7 1.9 1.9 0 0 1 1.6-.7 2 2 0 0 1 1.3.4 2.3 2.3 0 0 1 .6 1.2zm-3.3 2.7a1.9 1.9 0 0 0 .2.8 1 1 0 0 0 .5.6l.6.2a1 1 0 0 0 .9-.4 1.7 1.7 0 0 0 0-2.2 1.5 1.5 0 0 0 -1.8 0 1.3 1.3 0 0 0 -.4 1z"/><path d="m106.3 103.3h-.8v-5a1.3 1.3 0 0 1 -.7.5 2 2 0 0 1 -.8.4v-.7l1.1-.8a2.3 2.3 0 0 0 .7-.8h.5z"/><path d="m108.4 101.6h.8a1.3 1.3 0 0 0 .4 1 1.1 1.1 0 0 0 .8.3 1.3 1.3 0 0 0 1-.4 1.7 1.7 0 0 0 .3-1 1.6 1.6 0 0 0 -.3-.9 1.4 1.4 0 0 0 -.9-.3h-.6v-.7h.1a1.2 1.2 0 0 0 .9-.3.8.8 0 0 0 .5-.8.9.9 0 0 0 -.3-.7 1.2 1.2 0 0 0 -1.6 0 1.9 1.9 0 0 0 -.4.9l-.8-.2a2.4 2.4 0 0 1 .7-1.2 1.8 1.8 0 0 1 1.3-.4 1.8 1.8 0 0 1 1 .2 1.2 1.2 0 0 1 .6.6 1.3 1.3 0 0 1 .3.8 1.1 1.1 0 0 1 -.3.8 1 1 0 0 1 -.6.5 1.5 1.5 0 0 1 .9.6 1.7 1.7 0 0 1 .3 1 2 2 0 0 1 -.6 1.5 2.8 2.8 0 0 1 -1.6.5 1.7 1.7 0 0 1 -1.4-.5 1.5 1.5 0 0 1 -.5-1.3z"/><path d="m113.3 101.4v-.8h2.4v.8z"/><path d="m120.5 102.6v.7h-4.2a.9.9 0 0 1 .1-.5 2 2 0 0 1 .5-.9 9.3 9.3 0 0 1 1-1 6.1 6.1 0 0 0 1.4-1.3 1.6 1.6 0 0 0 .4-1 1.3 1.3 0 0 0 -.3-.8l-.9-.3a1.4 1.4 0 0 0 -1.3 1.3h-.8a3 3 0 0 1 .6-1.4 2.4 2.4 0 0 1 1.5-.4 2 2 0 0 1 1.5.5 1.7 1.7 0 0 1 .5 1.3 1.7 1.7 0 0 1 -.1.7l-.6.8a4.4 4.4 0 0 1 -1.2 1.1l-.9.8c-.1.2-.3.3-.3.5z"/><path d="m121.4 101.6h.8a1.9 1.9 0 0 0 .4 1 1.1 1.1 0 0 0 .8.3 1.3 1.3 0 0 0 1-.4 1.8 1.8 0 0 0 .4-1 1.8 1.8 0 0 0 -.4-.9 1.2 1.2 0 0 0 -.9-.3h-.6v-.7h.1a1.7 1.7 0 0 0 1-.3.9.9 0 0 0 .4-.8.9.9 0 0 0 -.3-.7 1.2 1.2 0 0 0 -1.6 0 1.9 1.9 0 0 0 -.4.9l-.7-.2a1.7 1.7 0 0 1 .6-1.2 2 2 0 0 1 1.3-.4 1.8 1.8 0 0 1 1 .2.9.9 0 0 1 .6.6 1.3 1.3 0 0 1 .3.8 1.9 1.9 0 0 1 -.2.8 1.8 1.8 0 0 1 -.7.5 1.5 1.5 0 0 1 .9.6 1.7 1.7 0 0 1 .3 1 2 2 0 0 1 -.6 1.5 2.8 2.8 0 0 1 -1.6.5 1.9 1.9 0 0 1 -1.4-.5 1.5 1.5 0 0 1 -.5-1.3z"/><path d="m127.6 99.8a1.3 1.3 0 0 1 -.7-.5 1.1 1.1 0 0 1 -.3-.8 2.1 2.1 0 0 1 .5-1.2 2.1 2.1 0 0 1 1.4-.4 1.5 1.5 0 0 1 1.3.5 1.3 1.3 0 0 1 .5 1.1 1.1 1.1 0 0 1 -.2.8 1.3 1.3 0 0 1 -.7.5 2.2 2.2 0 0 1 .9.7 1.5 1.5 0 0 1 .3 1 1.9 1.9 0 0 1 -2.1 1.9 1.8 1.8 0 0 1 -1.5-.5 2 2 0 0 1 -.6-1.4 1.8 1.8 0 0 1 .3-1.1 1.5 1.5 0 0 1 .9-.6zm-.4 1.7a1.3 1.3 0 0 0 .1.6 1.2 1.2 0 0 0 .5.5l.7.2a1.3 1.3 0 0 0 0-2.6 1.1 1.1 0 0 0 -1.3 1.3zm.2-3a.8.8 0 0 0 .3.7 1.1 1.1 0 0 0 .8.3.9.9 0 0 0 .7-.3.8.8 0 0 0 .3-.7 1.1 1.1 0 0 0 -.3-.7.9.9 0 0 0 -.7-.3 1.1 1.1 0 0 0 -.8.3.9.9 0 0 0 -.3.7z"/><path d="m131.3 101.4v-.8h2.4v.8z"/><path d="m134.4 101.6h.8a1.9 1.9 0 0 0 .4 1 1.3 1.3 0 0 0 .8.3 1.3 1.3 0 0 0 1-.4 1.8 1.8 0 0 0 .4-1 1.8 1.8 0 0 0 -.4-.9 1.2 1.2 0 0 0 -.9-.3h-.6v-.7h.2a1.6 1.6 0 0 0 .9-.3.9.9 0 0 0 .4-.8.9.9 0 0 0 -.3-.7 1.1 1.1 0 0 0 -.8-.3 1.3 1.3 0 0 0 -.8.3 1.2 1.2 0 0 0 -.3.9l-.8-.2a2.3 2.3 0 0 1 .6-1.2 2 2 0 0 1 1.3-.4 1.6 1.6 0 0 1 1 .2.9.9 0 0 1 .6.6 1.3 1.3 0 0 1 .3.8 1.9 1.9 0 0 1 -.2.8 1.8 1.8 0 0 1 -.7.5 1.5 1.5 0 0 1 .9.6 1.7 1.7 0 0 1 .3 1 2 2 0 0 1 -.6 1.5 2.5 2.5 0 0 1 -1.6.5 1.9 1.9 0 0 1 -1.4-.5 1.5 1.5 0 0 1 -.5-1.3z"/><path d="m139.4 101.6h.8a1.9 1.9 0 0 0 .4 1 1.3 1.3 0 0 0 .8.3 1.3 1.3 0 0 0 1-.4 1.8 1.8 0 0 0 .4-1 1.8 1.8 0 0 0 -.4-.9 1.2 1.2 0 0 0 -.9-.3h-.6v-.7h.2a1.6 1.6 0 0 0 .9-.3.9.9 0 0 0 .4-.8.9.9 0 0 0 -.3-.7 1.1 1.1 0 0 0 -.8-.3.9.9 0 0 0 -.7.3 1 1 0 0 0 -.4.9l-.8-.2a2.3 2.3 0 0 1 .6-1.2 2 2 0 0 1 1.3-.4 1.6 1.6 0 0 1 1 .2 1.3 1.3 0 0 1 .7.6 2.4 2.4 0 0 1 .2.8 1.9 1.9 0 0 1 -.2.8 1.8 1.8 0 0 1 -.7.5 1.5 1.5 0 0 1 .9.6 1.7 1.7 0 0 1 .3 1 2 2 0 0 1 -.6 1.5 2.5 2.5 0 0 1 -1.6.5 1.9 1.9 0 0 1 -1.4-.5 1.8 1.8 0 0 1 -.5-1.3z"/><path d="m144.4 100.2a9.2 9.2 0 0 1 .2-1.9 4.1 4.1 0 0 1 .7-1.1 2.1 2.1 0 0 1 1.2-.3 1.5 1.5 0 0 1 .9.2.9.9 0 0 1 .6.6 2.5 2.5 0 0 1 .4.9 6.3 6.3 0 0 1 .2 1.6 9 9 0 0 1 -.2 1.8 4.1 4.1 0 0 1 -.7 1.1 2.1 2.1 0 0 1 -1.2.3 2 2 0 0 1 -1.5-.6 4.5 4.5 0 0 1 -.6-2.6zm.8 0a3.7 3.7 0 0 0 .4 2.1 1.1 1.1 0 0 0 1.8 0 3.7 3.7 0 0 0 .4-2.1 3.9 3.9 0 0 0 -.4-2.2 1.2 1.2 0 0 0 -.9-.5 1.1 1.1 0 0 0 -.9.5 3.9 3.9 0 0 0 -.4 2.2z"/><path d="m149.4 101.6h.8c.1.5.2.8.5 1a1 1 0 0 0 .8.3 1.2 1.2 0 0 0 .9-.4 1.8 1.8 0 0 0 .4-1 1.2 1.2 0 0 0 -1.3-1.2h-.5v-.7h.2a1.6 1.6 0 0 0 .9-.3c.3-.1.4-.4.4-.8a.9.9 0 0 0 -.3-.7 1.1 1.1 0 0 0 -.8-.3.9.9 0 0 0 -.7.3 1.3 1.3 0 0 0 -.4.9l-.8-.2a2.3 2.3 0 0 1 .6-1.2 2 2 0 0 1 1.3-.4 1.6 1.6 0 0 1 1 .2 1.3 1.3 0 0 1 .7.6 2.4 2.4 0 0 1 .2.8 1.9 1.9 0 0 1 -.2.8 1.8 1.8 0 0 1 -.7.5 1.5 1.5 0 0 1 .9.6 1.7 1.7 0 0 1 .3 1 2 2 0 0 1 -.6 1.5 2.5 2.5 0 0 1 -1.6.5 1.9 1.9 0 0 1 -1.4-.5 2.3 2.3 0 0 1 -.6-1.3z"/><path d="m86.7 124.9-1.4-4.6h.8l.7 2.7.3 1c0-.1.1-.4.2-1l.8-2.7h.8l.7 2.7.2.9.3-.9.8-2.7h.8l-1.5 4.6h-.8l-.8-2.8v-.8l-1 3.6z"/><path d="m93.2 124.9-1.4-4.6h.8l.7 2.7.3 1c0-.1.1-.4.2-1l.8-2.7h.8l.7 2.7.2.9.3-.9.8-2.7h.8l-1.5 4.6h-.8l-.8-2.8v-.8l-1 3.6z"/><path d="m99.7 124.9-1.4-4.6h.8l.7 2.7.3 1c0-.1.1-.4.2-1l.8-2.7h.8l.7 2.7.2.9.3-.9.8-2.7h.8l-1.5 4.6h-.8l-.8-2.8v-.8l-1 3.6z"/><path d="m105.1 124.9v-.9h.9v.9z"/><path d="m110.4 124.4-.9.5h-.8a1.7 1.7 0 0 1 -1.2-.3 1.3 1.3 0 0 1 -.4-1 1.3 1.3 0 0 1 .1-.6l.4-.5.6-.2.7-.2 1.4-.2v-.2a1 1 0 0 0 -.2-.7 1.2 1.2 0 0 0 -.9-.3 1.3 1.3 0 0 0 -.8.2c-.2.1-.3.4-.4.7h-.8l.3-.8a1.8 1.8 0 0 1 .7-.5h2.1a1 1 0 0 1 .5.4l.3.5v1.8a4.5 4.5 0 0 0 .1 1.4.8.8 0 0 0 .2.5h-.9a.7.7 0 0 1 -.1-.5zm-.1-1.8-1.3.3h-.7l-.3.3c-.1.1-.1.2-.1.4a.8.8 0 0 0 .2.5l.7.2.9-.2.5-.5a1.9 1.9 0 0 0 .1-.8z"/><path d="m113.6 124.9-1.7-4.6h.8l1 2.8.3.9a4.6 4.6 0 0 0 .3-.9l1-2.8h.8l-1.7 4.6z"/><path d="m119.9 124.4-.9.5h-.8a1.9 1.9 0 0 1 -1.2-.3 1.3 1.3 0 0 1 -.4-1 1.3 1.3 0 0 1 .1-.6l.4-.5.6-.2.7-.2 1.4-.2v-.2a1 1 0 0 0 -.2-.7 1.2 1.2 0 0 0 -.9-.3 1.3 1.3 0 0 0 -.8.2c-.2.1-.3.4-.4.7h-.8l.3-.8a1.8 1.8 0 0 1 .7-.5h2.1a1 1 0 0 1 .5.4l.3.5v1.8a4.5 4.5 0 0 0 .1 1.4.8.8 0 0 0 .2.5h-.9a4.3 4.3 0 0 1 -.1-.5zm-.1-1.8-1.3.3h-.7l-.3.3c-.1.1-.1.2-.1.4a.8.8 0 0 0 .2.5l.7.2.9-.2.5-.5a1.9 1.9 0 0 0 .1-.8z"/><path d="m121.8 124.9v-4.6h.7v.6a1.8 1.8 0 0 1 1.5-.7h.8a1 1 0 0 1 .5.4c.2.2.2.4.3.6v3.6h-.8v-2.8c0-.3 0-.6-.1-.7s-.1-.3-.3-.4l-.5-.2a1.3 1.3 0 0 0 -.9.4 1.7 1.7 0 0 0 -.4 1.2v2.5z"/><path d="m128.6 124.2v.7h-1.3l-.3-.4a2.2 2.2 0 0 1 -.1-.9v-2.7h-.6v-.6h.6v-1.2l.8-.5v1.7h.8v.6h-.8v3.1l.2.2h.6z"/><path d="m129 123v-.8h2.5v.8z"/><path d="m132.2 125.3h.8a1.1 1.1 0 0 0 .2.6l.8.2.9-.2a1.6 1.6 0 0 0 .4-.7v-1a1.4 1.4 0 0 1 -1.2.6 1.6 1.6 0 0 1 -1.5-.7 2.3 2.3 0 0 1 -.6-1.6 2.8 2.8 0 0 1 .3-1.3 1.9 1.9 0 0 1 1.8-1.1 1.6 1.6 0 0 1 1.3.6v-.5h.8v4a2.8 2.8 0 0 1 -.3 1.5 1.8 1.8 0 0 1 -.7.8l-1.2.2a1.8 1.8 0 0 1 -1.3-.4c-.4-.1-.5-.5-.5-1zm.7-2.8a2.6 2.6 0 0 0 .3 1.4 1.8 1.8 0 0 0 .9.4 1.3 1.3 0 0 0 .9-.4 2 2 0 0 0 .4-1.4 1.8 1.8 0 0 0 -.4-1.3 1.3 1.3 0 0 0 -.9-.4 1.8 1.8 0 0 0 -.9.4 2.5 2.5 0 0 0 -.3 1.3z"/><path d="m140.4 124.4-.9.5h-.8a2.1 2.1 0 0 1 -1.2-.3 1.3 1.3 0 0 1 -.4-1 1.3 1.3 0 0 1 .1-.6l.4-.5.6-.2.7-.2 1.4-.2v-.2c0-.4 0-.6-.2-.7a1.2 1.2 0 0 0 -.9-.3l-.8.2c-.2.1-.3.4-.4.7h-.8a2 2 0 0 1 .4-.8 1.3 1.3 0 0 1 .7-.5h2a1 1 0 0 1 .5.4c.2.1.2.3.3.5v1.8a4.5 4.5 0 0 0 .1 1.4.8.8 0 0 0 .2.5h-.9a4.3 4.3 0 0 1 -.1-.5zm-.1-1.8-1.3.3h-.7l-.3.3c0 .1-.1.2-.1.4a.5.5 0 0 0 .3.5l.7.2.8-.2a1.2 1.2 0 0 0 .5-.5 1.9 1.9 0 0 0 .1-.8z"/><path d="m142.3 124.9v-4.6h.8v.7a1 1 0 0 1 .5-.7h.5a1.3 1.3 0 0 1 .8.2l-.3.7h-1a.5.5 0 0 0 -.3.5 2.4 2.4 0 0 0 -.2.9v2.4z"/><path d="m148.4 124.9v-.6a1.5 1.5 0 0 1 -1.3.7 2.3 2.3 0 0 1 -1.1-.3 2.7 2.7 0 0 1 -.7-.8 4.3 4.3 0 0 1 0-2.6 2.7 2.7 0 0 1 .7-.8 1.9 1.9 0 0 1 1-.3h.8l.5.5v-2.3h.8v6.4zm-2.5-2.3a1.7 1.7 0 0 0 .4 1.3 1 1 0 0 0 .8.5 1.3 1.3 0 0 0 .9-.4 1.8 1.8 0 0 0 .4-1.3 1.8 1.8 0 0 0 -.4-1.4 1.1 1.1 0 0 0 -.9-.5 1.8 1.8 0 0 0 -.9.4 2.6 2.6 0 0 0 -.3 1.4z"/><path d="m153.5 123.4h.9a1.9 1.9 0 0 1 -.8 1.1 1.7 1.7 0 0 1 -1.3.4 2.1 2.1 0 0 1 -1.6-.6 2.4 2.4 0 0 1 -.6-1.8 2.6 2.6 0 0 1 .6-1.8 2.1 2.1 0 0 1 1.6-.6 2 2 0 0 1 1.5.6 2.4 2.4 0 0 1 .6 1.8v.2h-3.5a2.1 2.1 0 0 0 .4 1.2 1.8 1.8 0 0 0 1 .4l.8-.2a1.5 1.5 0 0 0 .4-.7zm-2.5-1.3h2.6l-.3-.8a1.4 1.4 0 0 0 -1-.5 1.4 1.4 0 0 0 -1.3 1.3z"/><path d="m155.6 124.9v-.9h.9v.9z"/><path d="m160.9 123.2h.8a1.9 1.9 0 0 1 -.7 1.3 1.7 1.7 0 0 1 -1.3.4 2 2 0 0 1 -1.5-.6 2.4 2.4 0 0 1 -.6-1.8 2.8 2.8 0 0 1 .3-1.3 1.6 1.6 0 0 1 .7-.9l1.1-.2a2.3 2.3 0 0 1 1.3.3 2.4 2.4 0 0 1 .6 1.1l-.8.2a1.5 1.5 0 0 0 -.3-.8l-.7-.2a1.8 1.8 0 0 0 -1 .4 2.7 2.7 0 0 0 0 2.8 1.3 1.3 0 0 0 .9.4 1.1 1.1 0 0 0 .8-.3 1.9 1.9 0 0 0 .4-.8z"/><path d="m165.4 124.4-.8.5h-.9a2.1 2.1 0 0 1 -1.2-.3 1.3 1.3 0 0 1 -.4-1 1.3 1.3 0 0 1 .1-.6l.5-.5.5-.2.7-.2 1.4-.2v-.2c0-.4 0-.6-.2-.7a1.2 1.2 0 0 0 -.9-.3l-.8.2c-.2.1-.3.4-.4.7h-.8a2 2 0 0 1 .4-.8 1.3 1.3 0 0 1 .7-.5h2l.6.4a.8.8 0 0 1 .2.5v1.8c0 .7.1 1.2.1 1.4a.8.8 0 0 0 .2.5h-.8a.8.8 0 0 1 -.2-.5zm-.1-1.8-1.3.3h-.6l-.4.3c0 .1-.1.2-.1.4a.5.5 0 0 0 .3.5l.7.2.8-.2a1.2 1.2 0 0 0 .5-.5 1.9 1.9 0 0 0 .1-.8z"/></svg>