<svg height="8.5in" viewBox="0 0 612 611.7" width="8.5in" xmlns="http://www.w3.org/2000/svg"><path d="m79.9 306.3h-43.9a269.2 269.2 0 0 0 79 190.8l31.1-31.1a225.1 225.1 0 0 1 -66.2-159.7z" fill="#e31d93"/><path d="m146.1 466-31.1 31.1a269.5 269.5 0 0 0 190.9 79v-43.9a225.3 225.3 0 0 1 -159.8-66.2z" fill="#8331a7"/><path d="m146.2 146.3-31-31a269.1 269.1 0 0 0 -79.2 191h43.9a225.7 225.7 0 0 1 66.3-160z" fill="#00b2e3"/><path d="m315.1 550.2v43.9a269.3 269.3 0 0 0 191-79.2l-31.1-31.1a225.1 225.1 0 0 1 -159.9 66.4z" fill="#0033a1"/><path d="m483.9 138.5a224.9 224.9 0 0 1 66.2 159.7h43.9a269.1 269.1 0 0 0 -79-190.8z" fill="#fed925"/><path d="m305.9 80.3v-43.9a268.7 268.7 0 0 0 -190.7 78.9l31 31a225.5 225.5 0 0 1 159.7-66z" fill="#f32735"/><path d="m484 475.1 31.1 31.1a269.5 269.5 0 0 0 78.9-190.7h-43.9a225.3 225.3 0 0 1 -66.1 159.6z" fill="#009d4f"/><path d="m474.9 127.9 31-31a269.1 269.1 0 0 0 -190.8-79.1v44a225.6 225.6 0 0 1 159.8 66.1z" fill="#ff6b00"/><path d="m122.9 306.3h-43a225.1 225.1 0 0 0 66.2 159.7l30.4-30.4a182.3 182.3 0 0 1 -53.6-129.3z" fill="#e9459d"/><path d="m176.5 435.6-30.4 30.4a225.3 225.3 0 0 0 159.8 66.2v-43a182.5 182.5 0 0 1 -129.4-53.6z" fill="#9048b0"/><path d="m176.7 176.8-30.5-30.5a225.7 225.7 0 0 0 -66.3 160h43a182.3 182.3 0 0 1 53.8-129.5z" fill="#00bae6"/><path d="m310 496.5v43a225.2 225.2 0 0 0 159.9-66.3l-30.4-30.4a182.3 182.3 0 0 1 -129.5 53.7z" fill="#04a"/><path d="m496.4 303.4h43a225.6 225.6 0 0 0 -66.1-159.8l-30.5 30.4a182.4 182.4 0 0 1 53.6 129.4z" fill="#ffdc47"/><path d="m305.9 123.3v-43a225.5 225.5 0 0 0 -159.7 66l30.5 30.5a182 182 0 0 1 129.2-53.5z" fill="#f84a47"/><path d="m443 439.6 30.4 30.4a225.2 225.2 0 0 0 66-159.6h-43a182.5 182.5 0 0 1 -53.4 129.2z" fill="#00a760"/><path d="m310 115.4a182.3 182.3 0 0 1 129.3 53.6l30.5-30.4a225.3 225.3 0 0 0 -159.8-66.2z" fill="#ff7c00"/><path d="m170.3 306.3h-47.4a182.3 182.3 0 0 0 53.6 129.3l33.5-33.5a135.1 135.1 0 0 1 -39.7-95.8z" fill="#ed5fa7"/><path d="m210 402.1-33.5 33.5a182.5 182.5 0 0 0 129.4 53.6v-47.4a134.8 134.8 0 0 1 -95.9-39.7z" fill="#9d5cb8"/><path d="m210.2 210.2-33.5-33.4a182.3 182.3 0 0 0 -53.8 129.5h47.4a135 135 0 0 1 39.9-96.1z" fill="#38c2e8"/><path d="m305.9 441.8v47.4a182.3 182.3 0 0 0 129.5-53.7l-33.5-33.5a135.3 135.3 0 0 1 -96 39.8z" fill="#3956b4"/><path d="m441.5 306.3h47.3a182.4 182.4 0 0 0 -53.6-129.4l-33.5 33.5a134.9 134.9 0 0 1 39.8 95.9z" fill="#ffe05f"/><path d="m210.2 210.2a135.1 135.1 0 0 1 95.7-39.5v-47.4a182 182 0 0 0 -129.2 53.5z" fill="#fc6359"/><path d="m401.9 402 33.5 33.5a182.5 182.5 0 0 0 53.4-129.2h-47.3a135.4 135.4 0 0 1 -39.6 95.7z" fill="#0bb270"/><path d="m401.7 210.4 33.5-33.5a182.3 182.3 0 0 0 -129.3-53.6v47.4a135.1 135.1 0 0 1 95.8 39.7z" fill="#ff8c1c"/></svg>