<svg height="4.1in" viewBox="0 0 684 297" width="9.5in" xmlns="http://www.w3.org/2000/svg"><path d="m-9-9h702v315h-702z" fill="#fff"/><path d="m22.1 54.8 56.7 3.5v-67.3h-80.2l7 49.9c2.3 7.9 8.9 13.5 16.5 13.9z" fill="#ff6b00"/><path d="m166.5 63.6v-72.6h-87.7v67.3z" fill="#fed925"/><path d="m254.3 68.9v-77.9h-87.8v72.6z" fill="#009d4f"/><path d="m341 74.2h1v-83.2h-87.8v77.9z" fill="#0033a1"/><path d="m343 74.2 86.8-5.3v-77.9h-87.8v83.2z" fill="#8331a7"/><path d="m517.5 63.6v-72.6h-87.7v77.9z" fill="#e31d93"/><path d="m605.3 58.3v-67.3h-87.8v72.6z" fill="#00b2e3"/><path d="m661.9 54.8c7.6-.4 14.2-6 16.5-13.9l6.8-49.9h-80v67.3z" fill="#f32735"/></svg>