<svg id="Layer_1" data-name="Layer 1" xmlns="http://www.w3.org/2000/svg" width="8.5in" height="8.5in" viewBox="0 0 612 611.7"><title>logo</title><path d="M79.9,306H36a268.8,268.8,0,0,0,79.1,190.9l31.1-31.1A225,225,0,0,1,79.9,306Z" fill="#e31d93"/><path d="M146.2,465.8l-31.1,31.1A268.8,268.8,0,0,0,306,576V532.1A225,225,0,0,1,146.2,465.8Z" fill="#8331a7"/><path d="M146.3,146l-31.1-31.1A269.5,269.5,0,0,0,36,306H79.9A225.3,225.3,0,0,1,146.3,146Z" fill="#00b2e3"/><path d="M306,532.1V576a269.5,269.5,0,0,0,191.1-79.2L466,465.7A225.3,225.3,0,0,1,306,532.1Z" fill="#0033a1"/><path d="M465.8,146.2A225,225,0,0,1,532.1,306H576a268.8,268.8,0,0,0-79.1-190.9Z" fill="#fed925"/><path d="M306,79.9V36a269.6,269.6,0,0,0-190.8,78.9L146.3,146A225.4,225.4,0,0,1,306,79.9Z" fill="#f32735"/><path d="M466,465.7l31.1,31.1A269.6,269.6,0,0,0,576,306H532.1A225.4,225.4,0,0,1,466,465.7Z" fill="#009d4f"/><path d="M465.8,146.2l31.1-31.1A268.8,268.8,0,0,0,306,36V79.9A225,225,0,0,1,465.8,146.2Z" fill="#ff6b00"/><path d="M123,306H79.9a225,225,0,0,0,66.3,159.8l30.4-30.4A182.5,182.5,0,0,1,123,306Z" fill="#e9459d"/><path d="M176.6,435.4l-30.4,30.4A225,225,0,0,0,306,532.1V489A182.5,182.5,0,0,1,176.6,435.4Z" fill="#9048b0"/><path d="M176.7,176.4,146.3,146A225.3,225.3,0,0,0,79.9,306H123A182.7,182.7,0,0,1,176.7,176.4Z" fill="#00bae6"/><path d="M306,489v43.1a225.3,225.3,0,0,0,160-66.4l-30.4-30.4A182.7,182.7,0,0,1,306,489Z" fill="#04a"/><path d="M489,306h43.1a225,225,0,0,0-66.3-159.8l-30.4,30.4A182.5,182.5,0,0,1,489,306Z" fill="#ffdc47"/><path d="M306,123V79.9A225.4,225.4,0,0,0,146.3,146l30.4,30.4A182.5,182.5,0,0,1,306,123Z" fill="#f84a47"/><path d="M435.6,435.3,466,465.7A225.4,225.4,0,0,0,532.1,306H489A182.5,182.5,0,0,1,435.6,435.3Z" fill="#00a760"/><path d="M306,123a182.5,182.5,0,0,1,129.4,53.6l30.4-30.4A225,225,0,0,0,306,79.9Z" fill="#ff7c00"/><path d="M170.4,306H123a182.5,182.5,0,0,0,53.6,129.4l33.5-33.5A134.8,134.8,0,0,1,170.4,306Z" fill="#ed5fa7"/><path d="M210.1,401.9l-33.5,33.5A182.5,182.5,0,0,0,306,489V441.6A134.8,134.8,0,0,1,210.1,401.9Z" fill="#9d5cb8"/><path d="M210.2,209.9l-33.5-33.5A182.7,182.7,0,0,0,123,306h47.4A135.5,135.5,0,0,1,210.2,209.9Z" fill="#38c2e8"/><path d="M306,441.6V489a182.7,182.7,0,0,0,129.6-53.7l-33.5-33.5A135.5,135.5,0,0,1,306,441.6Z" fill="#3956b4"/><path d="M441.6,306H489a182.5,182.5,0,0,0-53.6-129.4l-33.5,33.5A134.8,134.8,0,0,1,441.6,306Z" fill="#ffe05f"/><path d="M210.2,209.9A135.6,135.6,0,0,1,306,170.4V123a182.5,182.5,0,0,0-129.3,53.4Z" fill="#fc6359"/><path d="M402.1,401.8l33.5,33.5A182.5,182.5,0,0,0,489,306H441.6A135.6,135.6,0,0,1,402.1,401.8Z" fill="#0bb270"/><path d="M401.9,210.1l33.5-33.5A182.5,182.5,0,0,0,306,123v47.4A134.8,134.8,0,0,1,401.9,210.1Z" fill="#ff8c1c"/></svg>