<svg height="2in" viewBox="0 0 252 144" width="3.5in" xmlns="http://www.w3.org/2000/svg"><path d="m-9-9h270v162h-270z"/><path d="m98.1 53.7h-5.4a33.5 33.5 0 0 0 9.7 23.6l3.9-3.9a27.5 27.5 0 0 1 -8.2-19.7z" fill="#e31d93"/><path d="m106.3 73.4-3.9 3.9a33.7 33.7 0 0 0 23.7 9.8v-5.5a27.5 27.5 0 0 1 -19.8-8.2z" fill="#8331a7"/><path d="m106.3 33.9-3.8-3.8a33 33 0 0 0 -9.8 23.6h5.4a27.9 27.9 0 0 1 8.2-19.8z" fill="#00b2e3"/><path d="m127.2 83.9v5.4a33.4 33.4 0 0 0 23.6-9.8l-3.8-3.9a28 28 0 0 1 -19.8 8.3z" fill="#0033a1"/><path d="m148.1 32.9a28.3 28.3 0 0 1 8.2 19.8h5.4a33 33 0 0 0 -9.8-23.6z" fill="#fed925"/><path d="m126.1 25.7v-5.4a32.8 32.8 0 0 0 -23.6 9.8l3.8 3.8a27.7 27.7 0 0 1 19.8-8.2z" fill="#f32735"/><path d="m148.1 74.6 3.8 3.8a33 33 0 0 0 9.8-23.6h-5.4a28.3 28.3 0 0 1 -8.2 19.8z" fill="#009d4f"/><path d="m147 31.6 3.8-3.8a33 33 0 0 0 -23.6-9.8v5.4a28.3 28.3 0 0 1 19.8 8.2z" fill="#ff6b00"/><path d="m103.4 53.7h-5.3a27.5 27.5 0 0 0 8.2 19.7l3.8-3.7a22.7 22.7 0 0 1 -6.7-16z" fill="#e9459d"/><path d="m110.1 69.7-3.8 3.7a27.5 27.5 0 0 0 19.8 8.2v-5.3a22.3 22.3 0 0 1 -16-6.6z" fill="#9048b0"/><path d="m110.1 37.7-3.8-3.8a27.9 27.9 0 0 0 -8.2 19.8h5.3a22.5 22.5 0 0 1 6.7-16z" fill="#00bae6"/><path d="m126.6 77.2v5.3a27.5 27.5 0 0 0 19.7-8.2l-3.7-3.7a22.6 22.6 0 0 1 -16 6.6z" fill="#04a"/><path d="m149.6 53.3h5.3a27.8 27.8 0 0 0 -8.1-19.7l-3.8 3.7a22.6 22.6 0 0 1 6.6 16z" fill="#ffdc47"/><path d="m126.1 31v-5.3a27.7 27.7 0 0 0 -19.8 8.2l3.8 3.8a22.5 22.5 0 0 1 16-6.7z" fill="#f84a47"/><path d="m143 70.2 3.8 3.7a27.8 27.8 0 0 0 8.1-19.7h-5.3a22.6 22.6 0 0 1 -6.6 16z" fill="#00a760"/><path d="m126.6 30.1a22.6 22.6 0 0 1 16 6.6l3.7-3.8a27.9 27.9 0 0 0 -19.7-8.2z" fill="#ff7c00"/><path d="m109.3 53.7h-5.9a22.7 22.7 0 0 0 6.7 16l4.1-4.2a16.7 16.7 0 0 1 -4.9-11.8z" fill="#ed5fa7"/><path d="m114.2 65.5-4.1 4.2a22.3 22.3 0 0 0 16 6.6v-5.8a16.4 16.4 0 0 1 -11.9-5z" fill="#9d5cb8"/><path d="m114.2 41.8-4.1-4.1a22.5 22.5 0 0 0 -6.7 16h5.9a16.8 16.8 0 0 1 4.9-11.9z" fill="#38c2e8"/><path d="m126.1 70.5v5.8a22.6 22.6 0 0 0 16-6.6l-4.2-4.2a16.4 16.4 0 0 1 -11.8 5z" fill="#3956b4"/><path d="m142.8 53.7h5.9a22.4 22.4 0 0 0 -6.6-16l-4.2 4.1a16.9 16.9 0 0 1 4.9 11.9z" fill="#ffe05f"/><path d="m114.2 41.8a16.8 16.8 0 0 1 11.9-4.9v-5.9a22.5 22.5 0 0 0 -16 6.7z" fill="#fc6359"/><path d="m137.9 65.5 4.2 4.2a22.6 22.6 0 0 0 6.6-16h-5.9a16.3 16.3 0 0 1 -4.9 11.8z" fill="#0bb270"/><path d="m137.9 41.8 4.2-4.1a22.7 22.7 0 0 0 -16-6.7v5.9a16.7 16.7 0 0 1 11.8 4.9z" fill="#ff8c1c"/><g fill="#d1d3d4"><path d="m92.6 125.9 1.7-4.4h.7l1.8 4.4h-.7l-.5-1.3h-1.8l-.5 1.3zm1.3-1.8h1.5l-.4-1.2a2.3 2.3 0 0 1 -.3-.9l-.3.8z"/><path d="m97.3 125.9v-4.4h2.8a1 1 0 0 1 .5.4 1.9 1.9 0 0 1 .2.7 1.1 1.1 0 0 1 -.3.8 1.3 1.3 0 0 1 -.9.4l.3.2.5.6.8 1.2h-.8l-.6-.9a1.5 1.5 0 0 0 -.4-.6l-.3-.3h-1.2v1.9zm.6-2.4h1.8l.4-.3a.6.6 0 0 0 .1-.4.8.8 0 0 0 -.2-.5l-.7-.2h-1.4z"/><path d="m102.7 125.9v-3.9h-1.4v-.5h3.5v.5h-1.5v3.9z"/><path d="m106.8 124.5h.6a.7.7 0 0 0 .1.5.9.9 0 0 0 .5.3l.7.2h.6c.1-.1.3-.2.3-.3a.5.5 0 0 0 .2-.4c0-.1-.1-.2-.2-.3s-.2-.2-.4-.3l-.7-.2-.9-.3a1 1 0 0 1 -.5-.4 1.3 1.3 0 0 1 -.1-.6.7.7 0 0 1 .2-.6 1 1 0 0 1 .5-.4l.8-.2.9.2.6.4a2.5 2.5 0 0 1 .2.7h-.6a.6.6 0 0 0 -.3-.6.9.9 0 0 0 -.7-.3l-.8.2c-.2.2-.3.3-.3.5a.5.5 0 0 0 .2.4l.9.3 1 .3.5.4a.8.8 0 0 1 .2.7.7.7 0 0 1 -.2.6 1 1 0 0 1 -.6.5l-.8.2-1-.2a1.8 1.8 0 0 1 -.7-.5 1.9 1.9 0 0 1 -.2-.8z"/><path d="m114 121.5h.6v2.6a2.8 2.8 0 0 1 -.1 1 1.3 1.3 0 0 1 -.6.7l-1 .2-1-.2-.6-.6a3.6 3.6 0 0 1 -.2-1.1v-2.6h.6v2.6c0 .3.1.6.1.8a.8.8 0 0 0 .4.4l.6.2a1.3 1.3 0 0 0 1-.3 2.7 2.7 0 0 0 .2-1.1z"/><path d="m115.6 125.9v-4.4h2.3l.6.2.3.5a1.4 1.4 0 0 1 .2.6 1.3 1.3 0 0 1 -.4.9c-.2.3-.7.4-1.3.4h-1.1v1.8zm.6-2.3h1.1l.8-.2a.7.7 0 0 0 .3-.6c0-.2-.1-.3-.2-.5l-.3-.2h-1.7z"/><path d="m119.7 125.9v-4.4h2.4l.5.2a1 1 0 0 1 .4.5c0 .2.1.4.1.6a1 1 0 0 1 -.4.9c-.2.3-.6.4-1.3.4h-1.1v1.8zm.6-2.3h1.1l.9-.2a1.1 1.1 0 0 0 .2-.6c0-.2-.1-.3-.1-.5l-.4-.2h-1.7z"/><path d="m123.8 125.9v-4.4h.6v3.9h2.2v.5z"/><path d="m127.4 125.9v-4.4h.6v4.4z"/><path d="m129 125.9v-4.4h3.2v.5h-2.6v1.4h2.4v.5h-2.4v1.5h2.7v.5z"/><path d="m132.9 124.5h.6a.8.8 0 0 0 .2.5c.1.1.2.3.4.3l.7.2h.6l.4-.3c0-.1.1-.2.1-.4s-.1-.2-.1-.3l-.4-.3-.8-.2-.9-.3-.5-.4a1.3 1.3 0 0 1 -.1-.6 1.4 1.4 0 0 1 .2-.6 1 1 0 0 1 .5-.4l.9-.2.8.2a.9.9 0 0 1 .6.4 2.5 2.5 0 0 1 .2.7h-.5a.9.9 0 0 0 -.4-.6.8.8 0 0 0 -.7-.3l-.8.2a.6.6 0 0 0 -.2.5c0 .2 0 .3.1.4l.9.3 1 .3.6.4a1.5 1.5 0 0 1 .1.7.7.7 0 0 1 -.2.6 1.2 1.2 0 0 1 -.5.5l-.9.2-1-.2a1 1 0 0 1 -.6-.5 1.1 1.1 0 0 1 -.3-.8z"/><path d="m138.8 124.5h.5a.8.8 0 0 0 .2.5c.1.1.2.3.4.3l.7.2h.6l.4-.3c.1-.1.1-.2.1-.4a.4.4 0 0 0 -.1-.3l-.4-.3-.8-.2-.8-.3a1 1 0 0 1 -.5-.4 1 1 0 0 1 0-1.2l.6-.4.8-.2.9.2a1 1 0 0 1 .5.4 3.6 3.6 0 0 1 .3.7h-.6a.6.6 0 0 0 -.3-.6 1 1 0 0 0 -.8-.3l-.8.2c-.1.2-.2.3-.2.5a.5.5 0 0 0 .2.4l.9.3.9.3a1.5 1.5 0 0 1 .6.4 1.4 1.4 0 0 1 .2.7 1.4 1.4 0 0 1 -.2.6 1 1 0 0 1 -.6.5l-.8.2-1.1-.2-.6-.5a1.9 1.9 0 0 1 -.2-.8z"/><path d="m144.2 125.9v-3.9h-1.4v-.5h3.5v.5h-1.5v3.9z"/><path d="m146.6 123.8a2.6 2.6 0 0 1 .6-1.8 2.2 2.2 0 0 1 2.6-.3 3 3 0 0 1 .8.8 5 5 0 0 1 .2 1.2 2.1 2.1 0 0 1 -.3 1.2 1.4 1.4 0 0 1 -.7.8 2.3 2.3 0 0 1 -1.1.3 2 2 0 0 1 -1.1-.3 3 3 0 0 1 -.8-.8 4.3 4.3 0 0 1 -.2-1.1zm.6 0a1.5 1.5 0 0 0 2.6 1.2 1.7 1.7 0 0 0 .4-1.3 2.4 2.4 0 0 0 -.2-.9 1.8 1.8 0 0 0 -.5-.7l-.8-.2a1.6 1.6 0 0 0 -1.1.5c-.3.2-.4.7-.4 1.4z"/><path d="m151.6 125.9v-4.4h2.8a1 1 0 0 1 .5.4 1 1 0 0 1 .2.7 1.1 1.1 0 0 1 -.3.8 1.3 1.3 0 0 1 -.9.4l.3.2.5.6.8 1.2h-.8l-.5-.9-.5-.6-.3-.3h-1.2v1.9zm.6-2.4h1.9l.3-.3a.6.6 0 0 0 .1-.4.8.8 0 0 0 -.2-.5l-.7-.2h-1.4z"/><path d="m156 125.9v-4.4h3.2v.5h-2.6v1.4h2.5v.5h-2.5v1.5h2.8v.5z"/></g><path d="m78.9 108.3c-.2 1 .4 4.1-.7 4.1s-.9-.2-.9-.6l-.2-3.1-.3-.3a14.9 14.9 0 0 1 -4.2-.3l-3.3-1c-1 .6-1.8 1.8-2.8 2.4s-4.5 2.3-6.8 2.3h-.1l-.3-.3c0-.6 3.4-1.6 4.1-1.9a12.8 12.8 0 0 0 2.8-1.5l1.5-1.6v-.3a4.6 4.6 0 0 1 -2.5-3.9c0-.1 0-.5.1-.5l.9-2.3c.4-1 2.2-1.7 3.1-1.7a6.8 6.8 0 0 1 4.3 1.1.1.1 0 0 0 .1.1c.8 0 5.1-7.5 6.1-7.5s.7.3.7.8v.5a81.9 81.9 0 0 0 -1.3 13.1c0 .2 0 .6.3.6s1.1-.5 1.6-.5.5.1.5.3-2 1.5-2.7 2zm-6-8c0-.9-2.5-1.1-3-1.1h-1.1c-1.5.2-2.1 2.1-2.1 3.2s.1.8.1 1 1.1 1.5 1.9 1.5h.4l3.6-4.2.2-.3zm1.1 1.2c-.3-.1-.6.5-.7.6l-2.8 3.4c-.1 0-.1.1-.1.2s4.4 1.3 5 1.3h1c.2 0 .1-.3.1-.4s-1.5-4.6-2.5-5.1zm4.5-6.2h-.1a16.4 16.4 0 0 0 -2.6 3.3l-.8 1.2v.5l.9 1.4a40.2 40.2 0 0 1 1.8 4.6l.2-.2c0-2.3.4-5.8.3-8.1a2.7 2.7 0 0 0 .2-1.3c0-.1.3-1.1.3-1.2z" fill="#fff"/><path d="m88.7 108.1c-.3 0-.8 0-1-.3a23.8 23.8 0 0 1 -2.3 3.2c-.6.6-1.3 1.6-1.9 1.6s-.3-.7-.4-1-.2-2-.2-2.3-.1-1 0-1v-2.8a13.2 13.2 0 0 0 -.5-2.6c-.2-1.9 1-1.4 1.2-1.1a4.4 4.4 0 0 1 .2 1 7.9 7.9 0 0 1 .3 1.3v1.8a13.6 13.6 0 0 0 .1 2.9c0 .3-.1.9-.1 1v.8a10.6 10.6 0 0 0 1.8-2.1l.8-1.4v-.4a7.2 7.2 0 0 1 -.1-2.1c0-.5 1-3.6 2.1-3.6s.7.1.8.4a7.1 7.1 0 0 1 .1 1.4c0 1-.9 2.5-1.2 3.4v.2a.6.6 0 0 0 .5.5c1.2 0 2.4-1.8 3.2-1.8a.5.5 0 0 1 .5.4c0 .8-3.2 2.6-3.9 2.6z" fill="#fff"/><path d="m103.4 107.4a5.6 5.6 0 0 1 -1.3 2.4c-.8.9-2.5 2.2-3.7 2.2h-.1c-1 0-1.7-.7-1.9-2.2s-.9.8-.9.9-1.4 1.4-2.9 1.4-1.3-.7-1.6-1.1v-.9a10.7 10.7 0 0 1 1.1-4.6c1.1-2.1 2.8-3.6 5.1-3.6s1.2 1.7 1.4 2.6.8-.6 1.1-.4.1.6 0 .9a13.3 13.3 0 0 0 -2.1 4.3c-.1.9.3 1.5 1 1.5s2.2-1.4 2.6-1.9.7-1.1 1.5-2.1.1-.2.4-.2.4.2.4.5a.4.4 0 0 1 -.1.3zm-6.8-4.2c-1.2 0-2.4 1.3-3.2 2.9a9.3 9.3 0 0 0 -1.3 4 .6.6 0 0 0 .2.5h.4a2.8 2.8 0 0 0 1.6-.6l2.2-2.4a6.7 6.7 0 0 0 .8-3c0-.4 0-1.4-.7-1.4z" fill="#fff"/><path d="m115.6 107.4a6.7 6.7 0 0 1 -1.3 2.5 11.2 11.2 0 0 1 -2 1.7 3.6 3.6 0 0 1 -2 .6h-1.1c-.6-.3-.6-1.1-.6-1.7a6 6 0 0 1 1-2.5 23.1 23.1 0 0 0 1.6-4.1h-.2c-1.2 0-2.5 2.4-3.2 3.2l-.4.7-.6.9a3.5 3.5 0 0 0 -.6.9l-.7 1.1c-.5.7-1 1.4-1.4 1.4s-.5-.2-.6-.6a53.8 53.8 0 0 1 2.4-5.5l.6-1.1c.2-1 .3-1.5.1-1.6s-1.2 1.3-1.7 2.2a16.5 16.5 0 0 0 -1 1.9 1.9 1.9 0 0 1 -.7.8.5.5 0 0 1 -.7-.1c-.2-.2 0-.8 0-1l.2-.3.4-.5a12.1 12.1 0 0 0 1.1-1.9c.5-1.1 1.6-2.3 2.5-2.3s1.1.7 1.2 1.2a2 2 0 0 1 -.1 1.1l-.5 1.6c1.1-1.7 2.8-3.4 4.4-3.8a1.5 1.5 0 0 1 .9 1.5v.2c-.6 1.8-1.4 3.5-2 4.9a5.2 5.2 0 0 0 -.6 1.6c0 .2-.1.4.1.6h.4l.9-.2a10.1 10.1 0 0 0 1.8-1.5l.6-1a14 14 0 0 1 1-1.6h.4c.4 0 .5.3.5.6s-.1 0-.1.1z" fill="#fff"/><path d="m122.7 100.2h-4.2a26.4 26.4 0 0 0 -2.1 5.4 12.7 12.7 0 0 0 -.6 1.8c0 .1-.2 1.5-.2 2.2a1.2 1.2 0 0 0 1 1.2h1.1l.5-.2a22.6 22.6 0 0 0 2.1-1.6l1.4-2.2.4-.2c.4 0 .4.2.4.5v.3a5.6 5.6 0 0 1 -1.3 2.4 5.1 5.1 0 0 1 -1.9 1.6 4.9 4.9 0 0 1 -2.4.8c-2 0-2.7-1.5-2.7-3.1s.1-1.4.1-1.5 1.5-3.8 1.7-4.6.8-2 1-2.7h-1.3c-.2-.1-1.2-.3-1.2-.8s.6-.6.9-.6 1.5.1 2.1 0l1.1-2.1.7-1.8.8-1.5c.2-.3.8-1.7 1.4-1.7a.7.7 0 0 1 .7.6c0 .6-.7 1.4-1 1.9s-2.1 4.6-2.1 4.6h4.1a.9.9 0 0 1 .6.6c0 .4-.7.7-1.1.7z" fill="#fff"/><path d="m132.5 105.7c-2.6-.2-5.1.6-7.6.6-.4 0-.7-.2-.7-.6s.1-.6.5-.7a23.2 23.2 0 0 0 3.8-.6 29.1 29.1 0 0 1 4.2 0c.2.1.3.6.3.7s-.2.4-.5.6z" fill="#fff"/><path d="m149.6 109.2c-.8 1.3-1.6 2.7-2.5 3.9s-6.3 3.9-9.2 3.9a7.6 7.6 0 0 1 -5.6-2.9c-.1-.2-.2-.3-.2-.5s.5-.5.8-.5 3.1 2.6 5.2 2.6a19.7 19.7 0 0 0 3.5-.7c2.8-.7 4.1-2 5.5-4.5v-.3c0-.1-.1 0-.2 0a14.3 14.3 0 0 1 -7.3 1.7 4.7 4.7 0 0 1 -4.5-3.2 7.8 7.8 0 0 1 -.5-1.4 14.7 14.7 0 0 1 0-2.1 8.4 8.4 0 0 1 .5-1.8c-1.1-1.1-2.3-2.4-2.3-4a5 5 0 0 1 1.7-4.1c.2-.2 1-1.1 1.3-1.1a.4.4 0 0 1 .4.4c0 1-2.3 2.4-2.3 5a4.5 4.5 0 0 0 1.8 2.5c.5-.6 1.3-2.1 1.7-2.6a33 33 0 0 1 5.6-5.6 8.7 8.7 0 0 1 3.8-1.1c2.2 0 2.8 2.1 2.8 3.9s-1.4 4-2.9 5.7a8 8 0 0 1 -6.3 2.9 12.9 12.9 0 0 1 -4.2-1.3 3.7 3.7 0 0 0 -.4 1.8c0 2.6 1.2 4.7 4.1 4.7a13 13 0 0 0 4.8-.7 13.4 13.4 0 0 0 3.6-2.2 4 4 0 0 0 1.5-2.6c0-.4.4-.4.7-.4s.7.1.7.5a27.5 27.5 0 0 1 -1.6 4.1zm-2-14.9h-.8c-3.1 0-5.9 3.1-7.8 5.4-.5.7-2 2.3-2.2 3.1a9.6 9.6 0 0 0 4.3 1.2c2.5 0 4.3-1.9 5.8-3.6l1-1.3a7.2 7.2 0 0 0 .6-2.9 2.2 2.2 0 0 0 -.9-1.9z" fill="#fff"/><path d="m164.6 107.4a5.6 5.6 0 0 1 -1.3 2.4c-.8.9-2.5 2.2-3.8 2.2-1.1 0-1.7-.7-1.9-2.2s-.9.8-1 .9-1.3 1.4-2.8 1.4-1.3-.7-1.7-1.1v-.9a10.9 10.9 0 0 1 1.2-4.6c1.1-2.1 2.8-3.6 5.1-3.6s1.2 1.7 1.4 2.6.8-.6 1.1-.4.1.6-.1.9-1.9 3-2 4.3.3 1.5.9 1.5 2.3-1.4 2.7-1.9a24.5 24.5 0 0 0 1.4-2.1c.2-.2.2-.2.5-.2s.4.2.4.5-.1.2-.1.3zm-6.8-4.2c-1.3 0-2.4 1.3-3.3 2.9a10.5 10.5 0 0 0 -1.2 4 .6.6 0 0 0 .2.5h.4a2.8 2.8 0 0 0 1.6-.6l2.1-2.4a5.8 5.8 0 0 0 .9-3c0-.4 0-1.4-.7-1.4z" fill="#fff"/><path d="m172.7 107.4a5.6 5.6 0 0 1 -1.3 2.4c-.8.8-2.4 2.1-3.6 2.2h-.5c-.7 0-1.7-.3-1.7-1.3a7.1 7.1 0 0 1 .9-3.1c.6-1.1 1.6-2.4 2.2-3.4a4.3 4.3 0 0 1 -2 0c-.3.2-.2.3-.5.6s-1.1 2.2-1.4 2.5-.5 1.2-1.2 1.2-.6-.1-.5-.4v-.5l.7-1.3 1.7-2.7c0-.2-.2-.2-.2-.3l-.3-.4a3.7 3.7 0 0 1 -.1-1.1 2.6 2.6 0 0 1 2.6-2.3 1.2 1.2 0 0 1 1 1.1 2.9 2.9 0 0 1 -.3 1.4 8.8 8.8 0 0 1 -.6 1h1.1c.6-.1.9-.6 1.6-.6a.7.7 0 0 1 .6.7.7.7 0 0 1 -.3.6h-.1a32.4 32.4 0 0 0 -2.4 3.1 6.3 6.3 0 0 0 -1.3 3.4l.2.2c0 .1.6.2.8.2s2.2-1.4 2.6-1.9a24.5 24.5 0 0 0 1.4-2.1c.3-.2.2-.2.5-.2s.4.2.4.5 0 .4 0 .5zm-6.5-5.4c0 .2.4.5.4.5s.9-1.3.6-1.8-1 .6-1 1.3z" fill="#fff"/><path d="m184.8 93.2-.8 1.8c-.8 1.8-2.6 5.4-3.5 7.2a22 22 0 0 0 -2 5.6 17.7 17.7 0 0 0 -.1 2.3v.5c.3.4.2.3.4.3h1.1c.6 0 2.2-1.4 2.6-1.9s.7-1.1 1.5-2.1.1-.2.4-.2.4.2.4.5a.4.4 0 0 1 -.1.3 5.6 5.6 0 0 1 -1.3 2.4 6.8 6.8 0 0 1 -3.6 2.2h-.8c-2.3 0-1.8-2.2-1.9-2.6-1 1.2-2.3 2.5-3.9 2.5s-1.9-1.6-1.9-2.8 2.6-7.6 5.4-7.6c1.2 0 1.2 1.2 1.8 1.2s.3.1.3-.1l3.7-8c.5-.6 1-2.6 1.7-2.6s.6.3.6.7zm-8.3 9.9-.7.2a7.5 7.5 0 0 0 -3.2 6.1v1.2c.1.2.4.2.5.2 1.9 0 4.4-4.3 4.4-5.9s-.1-1.8-1-1.8z" fill="#fff"/><path d="m192.7 107.4a4.9 4.9 0 0 1 -1.4 2.4 5.9 5.9 0 0 1 -4.4 2.2 4.4 4.4 0 0 1 -2.5-.6 3.1 3.1 0 0 1 -1.3-2.4 8.7 8.7 0 0 1 1.7-5.2 4.6 4.6 0 0 1 3.5-1.9 1.6 1.6 0 0 1 1.6 1.5 4.3 4.3 0 0 1 -.9 2.6 8.1 8.1 0 0 1 -2.4 1.7 17.1 17.1 0 0 0 -2.2.9 1.6 1.6 0 0 0 0 .7 2.2 2.2 0 0 0 .9 1.2 3.5 3.5 0 0 0 1.6.5 6.1 6.1 0 0 0 3.6-2.1c.4-.4.6-1.1 1.4-2.1s.1-.2.4-.2.4.2.4.5zm-4.5-4.2a3.3 3.3 0 0 0 -2.2 1.1 4.3 4.3 0 0 0 -1.3 2.6c0 .2-.2.4 0 .5l2.4-1.3a5.2 5.2 0 0 0 1.6-2.2v-.2c.1-.2-.3-.6-.5-.5z" fill="#fff"/><path d="m9 9h234v126h-234z" fill="none" stroke="#fff" stroke-miterlimit="10"/></svg>