<svg height="11in" viewBox="0 0 612 792" width="8.5in" xmlns="http://www.w3.org/2000/svg"><path d="m0 0h612v792h-612z" fill="#fff"/><path d="m471.4 609.7-130.5 2.4a60.2 60.2 0 0 0 -16.2 41.1h9.6c0-13.5 128.4-34.3 137.1-43.5z" fill="#00aeef"/><path d="m557.6 602-7.2 6.5a51.1 51.1 0 0 1 15 36h9.9a59.9 59.9 0 0 0 -17.7-42.5z" fill="#ffde17"/><path d="m511.4 592.4h.2v-9.4c-18.8 0-159 16.5-170.7 29.1l130.5-2.4a54.4 54.4 0 0 1 40-17.3z" fill="#ed1c24"/><path d="m550.4 608.5 7.2-6.5a64.6 64.6 0 0 0 -46-19v9.4a54.8 54.8 0 0 1 38.8 16.1z" fill="#f26522"/><path d="m511.4 696.7a54.5 54.5 0 0 1 -39.7-17l-130.3 15c32.5 34.3 130.7 11.4 170.2 11.4v-9.4z" fill="#7f3f98"/><path d="m552 678.9 7.4 6.3a60.1 60.1 0 0 0 15.9-40.7h-9.9a50.7 50.7 0 0 1 -13.4 34.4z" fill="#00a14b"/><path d="m334.3 653.2h-9.6a60.1 60.1 0 0 0 16.7 41.5l130.3-15c-8.8-9.2-137.4-13-137.4-26.5z" fill="#ec008c"/><path d="m511.6 696.7v9.4a64.5 64.5 0 0 0 47.8-20.9l-7.4-6.3a55 55 0 0 1 -40.4 17.8z" fill="#21409a"/><path d="m479.9 617-8.5-7.3c-8.7 9.2-137.1 30-137.1 43.5l134.6-8.7a40.2 40.2 0 0 1 11-27.5z" fill="#38c6f4"/><path d="m554.3 644.5h11.1a51.1 51.1 0 0 0 -15-36l-8.1 7.4a40.4 40.4 0 0 1 12 28.6z" fill="#ffdf55"/><path d="m511.6 603.3v-10.9h-.2a54.4 54.4 0 0 0 -40 17.3l8.5 7.3a43.1 43.1 0 0 1 31.7-13.7z" fill="#ef4623"/><path d="m511.6 592.4v10.9a43.7 43.7 0 0 1 30.7 12.6l8.1-7.4a54.8 54.8 0 0 0 -38.8-16.1z" fill="#f47b20"/><path d="m480 672.2-8.3 7.5a54.5 54.5 0 0 0 39.7 17h.2v-10.9a43.4 43.4 0 0 1 -31.6-13.6z" fill="#7a5ba7"/><path d="m554.3 644.6a40 40 0 0 1 -10.6 27.1l8.3 7.2a50.7 50.7 0 0 0 13.4-34.4h-11.1z" fill="#65ad45"/><path d="m468.9 644.6-134.6 8.7c0 13.5 128.6 17.3 137.4 26.5l8.3-7.5a40.1 40.1 0 0 1 -11.1-27.7z" fill="#ef5da2"/><path d="m511.6 685.8v10.9a55 55 0 0 0 40.4-17.8l-8.3-7.2a43.3 43.3 0 0 1 -32.1 14.1z" fill="#005fae"/><path d="m480.4 644.5a29.8 29.8 0 0 1 8.1-20.2l-8.6-7.3a40.2 40.2 0 0 0 -11 27.5z" fill="#9ddcf9"/><path d="m542.8 644.5h11.5a40.4 40.4 0 0 0 -12-28.6l-8.4 7.5a29.7 29.7 0 0 1 8.9 21.1z" fill="#ffe073"/><path d="m479.9 617 8.6 7.3a31.4 31.4 0 0 1 23.1-9.9v-11.1a43.1 43.1 0 0 0 -31.7 13.7z" fill="#f15f22"/><path d="m511.6 614.4a31.9 31.9 0 0 1 22.3 9l8.4-7.5a43.7 43.7 0 0 0 -30.7-12.6z" fill="#f68b1f"/><path d="m488.4 664.6-8.4 7.6a43.4 43.4 0 0 0 31.6 13.6v-11.1a31.5 31.5 0 0 1 -23.2-10.1z" fill="#766eb3"/><path d="m535.1 664.4 8.6 7.3a40 40 0 0 0 10.6-27.1h-11.5a29.6 29.6 0 0 1 -7.7 19.8z" fill="#86b440"/><path d="m480.4 644.5h-11.5a40.1 40.1 0 0 0 11.1 27.7l8.4-7.6a29 29 0 0 1 -8-20.1z" fill="#f179af"/><path d="m511.6 674.7v11.1a43.3 43.3 0 0 0 32.1-14.1l-8.6-7.3a31.6 31.6 0 0 1 -23.5 10.3z" fill="#0077c0"/><circle cx="162" cy="143.7" fill="#fff" r="107.7" stroke="#000" stroke-miterlimit="10" stroke-width="1.62"/><path d="m80.2 143.7h-15.9a97.8 97.8 0 0 0 28.6 69.1l11.3-11.3a81.5 81.5 0 0 1 -24-57.8z" fill="#e31d93" stroke="#000" stroke-miterlimit="10" stroke-width="1.62"/><path d="m104.2 201.5-11.3 11.3a97.8 97.8 0 0 0 69.1 28.6v-15.9a81.5 81.5 0 0 1 -57.8-24z" fill="#8331a7" stroke="#000" stroke-miterlimit="10" stroke-width="1.62"/><path d="m104.2 85.8-11.2-11.2a97.4 97.4 0 0 0 -28.7 69.1h15.9a81.7 81.7 0 0 1 24-57.9z" fill="#00b2e3" stroke="#000" stroke-miterlimit="10" stroke-width="1.62"/><path d="m162 225.5v15.9a97.4 97.4 0 0 0 69.1-28.7l-11.2-11.2a81.7 81.7 0 0 1 -57.9 24z" fill="#0033a1" stroke="#000" stroke-miterlimit="10" stroke-width="1.62"/><path d="m219.8 85.9a81.5 81.5 0 0 1 24 57.8h15.9a97.3 97.3 0 0 0 -28.6-69z" fill="#fed925" stroke="#000" stroke-miterlimit="10" stroke-width="1.62"/><path d="m162 61.9v-15.9a97.7 97.7 0 0 0 -69 28.6l11.2 11.2a81.8 81.8 0 0 1 57.8-23.9z" fill="#f32735" stroke="#000" stroke-miterlimit="10" stroke-width="1.62"/><path d="m219.9 201.5 11.2 11.2a97.1 97.1 0 0 0 28.6-69h-15.9a81.8 81.8 0 0 1 -23.9 57.8z" fill="#009d4f" stroke="#000" stroke-miterlimit="10" stroke-width="1.62"/><path d="m219.8 85.9 11.3-11.2a97.4 97.4 0 0 0 -69.1-28.7v15.9a81.5 81.5 0 0 1 57.8 24z" fill="#ff6b00" stroke="#000" stroke-miterlimit="10" stroke-width="1.62"/><path d="m95.8 143.7h-15.6a81.5 81.5 0 0 0 24 57.8l11-11a65.9 65.9 0 0 1 -19.4-46.8z" fill="#e9459d" stroke="#000" stroke-miterlimit="10" stroke-width="1.62"/><path d="m115.2 190.5-11 11a81.5 81.5 0 0 0 57.8 24v-15.6a65.9 65.9 0 0 1 -46.8-19.4z" fill="#9048b0" stroke="#000" stroke-miterlimit="10" stroke-width="1.62"/><path d="m115.2 96.8-11-11a81.7 81.7 0 0 0 -24 57.9h15.6a66.1 66.1 0 0 1 19.4-46.9z" fill="#00bae6" stroke="#000" stroke-miterlimit="10" stroke-width="1.62"/><path d="m162 209.9v15.6a81.7 81.7 0 0 0 57.9-24l-11-11a66.1 66.1 0 0 1 -46.9 19.4z" fill="#04a" stroke="#000" stroke-miterlimit="10" stroke-width="1.62"/><path d="m228.2 143.7h15.6a81.5 81.5 0 0 0 -24-57.8l-11 11a65.9 65.9 0 0 1 19.4 46.8z" fill="#ffdc47" stroke="#000" stroke-miterlimit="10" stroke-width="1.62"/><path d="m162 77.5v-15.6a81.8 81.8 0 0 0 -57.8 23.9l11 11a66.2 66.2 0 0 1 46.8-19.3z" fill="#f84a47" stroke="#000" stroke-miterlimit="10" stroke-width="1.62"/><path d="m208.9 190.5 11 11a81.8 81.8 0 0 0 23.9-57.8h-15.6a66.2 66.2 0 0 1 -19.3 46.8z" fill="#00a760" stroke="#000" stroke-miterlimit="10" stroke-width="1.62"/><path d="m162 77.5a65.9 65.9 0 0 1 46.8 19.4l11-11a81.5 81.5 0 0 0 -57.8-24z" fill="#ff7c00" stroke="#000" stroke-miterlimit="10" stroke-width="1.62"/><path d="m112.9 143.7h-17.1a65.9 65.9 0 0 0 19.4 46.8l12.1-12.1a48.8 48.8 0 0 1 -14.4-34.7z" fill="#ed5fa7" stroke="#000" stroke-miterlimit="10" stroke-width="1.62"/><path d="m127.3 178.4-12.1 12.1a65.9 65.9 0 0 0 46.8 19.4v-17.1a49 49 0 0 1 -34.7-14.4z" fill="#9d5cb8" stroke="#000" stroke-miterlimit="10" stroke-width="1.62"/><path d="m127.4 109-12.2-12.2a66.1 66.1 0 0 0 -19.4 46.9h17.1a48.9 48.9 0 0 1 14.5-34.7z" fill="#38c2e8" stroke="#000" stroke-miterlimit="10" stroke-width="1.62"/><path d="m162 192.8v17.1a66.1 66.1 0 0 0 46.9-19.4l-12.2-12.1a48.6 48.6 0 0 1 -34.7 14.4z" fill="#3956b4" stroke="#000" stroke-miterlimit="10" stroke-width="1.62"/><path d="m211.1 143.7h17.1a65.9 65.9 0 0 0 -19.4-46.8l-12.1 12.1a49 49 0 0 1 14.4 34.7z" fill="#ffe05f" stroke="#000" stroke-miterlimit="10" stroke-width="1.62"/><path d="m127.4 109a48.6 48.6 0 0 1 34.6-14.4v-17.1a66.2 66.2 0 0 0 -46.8 19.3z" fill="#fc6359" stroke="#000" stroke-miterlimit="10" stroke-width="1.62"/><path d="m196.7 178.4 12.2 12.1a66.2 66.2 0 0 0 19.3-46.8h-17.1a49 49 0 0 1 -14.4 34.7z" fill="#0bb270" stroke="#000" stroke-miterlimit="10" stroke-width="1.62"/><path d="m196.7 109 12.1-12.1a65.9 65.9 0 0 0 -46.8-19.4v17.1a49 49 0 0 1 34.7 14.4z" fill="#ff8c1c" stroke="#000" stroke-miterlimit="10" stroke-width="1.62"/><circle cx="450" cy="143.7" r="107.7" stroke="#000" stroke-miterlimit="10" stroke-width="1.62"/><path d="m368.2 143.7h-15.9a97.8 97.8 0 0 0 28.6 69.1l11.3-11.3a81.5 81.5 0 0 1 -24-57.8z" fill="#e31d93" stroke="#000" stroke-miterlimit="10" stroke-width="1.62"/><path d="m392.2 201.5-11.3 11.3a97.8 97.8 0 0 0 69.1 28.6v-15.9a81.5 81.5 0 0 1 -57.8-24z" fill="#8331a7" stroke="#000" stroke-miterlimit="10" stroke-width="1.62"/><path d="m392.2 85.8-11.2-11.2a97.4 97.4 0 0 0 -28.7 69.1h15.9a81.7 81.7 0 0 1 24-57.9z" fill="#00b2e3" stroke="#000" stroke-miterlimit="10" stroke-width="1.62"/><path d="m450 225.5v15.9a97.4 97.4 0 0 0 69.1-28.7l-11.2-11.2a81.7 81.7 0 0 1 -57.9 24z" fill="#0033a1" stroke="#000" stroke-miterlimit="10" stroke-width="1.62"/><path d="m507.8 85.9a81.5 81.5 0 0 1 24 57.8h15.9a97.3 97.3 0 0 0 -28.6-69z" fill="#fed925" stroke="#000" stroke-miterlimit="10" stroke-width="1.62"/><path d="m450 61.9v-15.9a97.7 97.7 0 0 0 -69 28.6l11.2 11.2a81.8 81.8 0 0 1 57.8-23.9z" fill="#f32735" stroke="#000" stroke-miterlimit="10" stroke-width="1.62"/><path d="m507.9 201.5 11.2 11.2a97.1 97.1 0 0 0 28.6-69h-15.9a81.8 81.8 0 0 1 -23.9 57.8z" fill="#009d4f" stroke="#000" stroke-miterlimit="10" stroke-width="1.62"/><path d="m507.8 85.9 11.3-11.2a97.4 97.4 0 0 0 -69.1-28.7v15.9a81.5 81.5 0 0 1 57.8 24z" fill="#ff6b00" stroke="#000" stroke-miterlimit="10" stroke-width="1.62"/><path d="m383.8 143.7h-15.6a81.5 81.5 0 0 0 24 57.8l11-11a65.9 65.9 0 0 1 -19.4-46.8z" fill="#e9459d" stroke="#000" stroke-miterlimit="10" stroke-width="1.62"/><path d="m403.2 190.5-11 11a81.5 81.5 0 0 0 57.8 24v-15.6a65.9 65.9 0 0 1 -46.8-19.4z" fill="#9048b0" stroke="#000" stroke-miterlimit="10" stroke-width="1.62"/><path d="m403.2 96.8-11-11a81.7 81.7 0 0 0 -24 57.9h15.6a66.1 66.1 0 0 1 19.4-46.9z" fill="#00bae6" stroke="#000" stroke-miterlimit="10" stroke-width="1.62"/><path d="m450 209.9v15.6a81.7 81.7 0 0 0 57.9-24l-11-11a66.1 66.1 0 0 1 -46.9 19.4z" fill="#04a" stroke="#000" stroke-miterlimit="10" stroke-width="1.62"/><path d="m516.2 143.7h15.6a81.5 81.5 0 0 0 -24-57.8l-11 11a65.9 65.9 0 0 1 19.4 46.8z" fill="#ffdc47" stroke="#000" stroke-miterlimit="10" stroke-width="1.62"/><path d="m450 77.5v-15.6a81.8 81.8 0 0 0 -57.8 23.9l11 11a66.2 66.2 0 0 1 46.8-19.3z" fill="#f84a47" stroke="#000" stroke-miterlimit="10" stroke-width="1.62"/><path d="m496.9 190.5 11 11a81.8 81.8 0 0 0 23.9-57.8h-15.6a66.2 66.2 0 0 1 -19.3 46.8z" fill="#00a760" stroke="#000" stroke-miterlimit="10" stroke-width="1.62"/><path d="m450 77.5a65.9 65.9 0 0 1 46.8 19.4l11-11a81.5 81.5 0 0 0 -57.8-24z" fill="#ff7c00" stroke="#000" stroke-miterlimit="10" stroke-width="1.62"/><path d="m400.9 143.7h-17.1a65.9 65.9 0 0 0 19.4 46.8l12.1-12.1a48.8 48.8 0 0 1 -14.4-34.7z" fill="#ed5fa7" stroke="#000" stroke-miterlimit="10" stroke-width="1.62"/><path d="m415.3 178.4-12.1 12.1a65.9 65.9 0 0 0 46.8 19.4v-17.1a49 49 0 0 1 -34.7-14.4z" fill="#9d5cb8" stroke="#000" stroke-miterlimit="10" stroke-width="1.62"/><path d="m415.4 109-12.2-12.2a66.1 66.1 0 0 0 -19.4 46.9h17.1a48.9 48.9 0 0 1 14.5-34.7z" fill="#38c2e8" stroke="#000" stroke-miterlimit="10" stroke-width="1.62"/><path d="m450 192.8v17.1a66.1 66.1 0 0 0 46.9-19.4l-12.2-12.1a48.6 48.6 0 0 1 -34.7 14.4z" fill="#3956b4" stroke="#000" stroke-miterlimit="10" stroke-width="1.62"/><path d="m499.1 143.7h17.1a65.9 65.9 0 0 0 -19.4-46.8l-12.1 12.1a49 49 0 0 1 14.4 34.7z" fill="#ffe05f" stroke="#000" stroke-miterlimit="10" stroke-width="1.62"/><path d="m415.4 109a48.6 48.6 0 0 1 34.6-14.4v-17.1a66.2 66.2 0 0 0 -46.8 19.3z" fill="#fc6359" stroke="#000" stroke-miterlimit="10" stroke-width="1.62"/><path d="m484.7 178.4 12.2 12.1a66.2 66.2 0 0 0 19.3-46.8h-17.1a49 49 0 0 1 -14.4 34.7z" fill="#0bb270" stroke="#000" stroke-miterlimit="10" stroke-width="1.62"/><path d="m484.7 109 12.1-12.1a65.9 65.9 0 0 0 -46.8-19.4v17.1a49 49 0 0 1 34.7 14.4z" fill="#ff8c1c" stroke="#000" stroke-miterlimit="10" stroke-width="1.62"/><path d="m77.8 638.1h-14.4a88.2 88.2 0 0 0 25.9 62.6l10.2-10.2a73.8 73.8 0 0 1 -21.7-52.4z" fill="#e31d93"/><path d="m99.5 585.7-10.1-10.1a87.8 87.8 0 0 0 -26 62.5h14.4a74 74 0 0 1 21.7-52.4z" fill="#00b2e3"/><path d="m151.8 564.1v-14.4a87.9 87.9 0 0 0 -62.4 25.9l10.1 10.1a74.1 74.1 0 0 1 52.3-21.6z" fill="#f32735"/><path d="m91.9 638.1h-14.1a73.8 73.8 0 0 0 21.7 52.4l10-10a59.4 59.4 0 0 1 -17.6-42.4z" fill="#e9459d"/><path d="m109.5 595.7-10-10a74 74 0 0 0 -21.7 52.4h14.1a59.6 59.6 0 0 1 17.6-42.4z" fill="#00bae6"/><path d="m151.8 578.2v-14.1a74.1 74.1 0 0 0 -52.3 21.6l10 10a59.7 59.7 0 0 1 42.3-17.5z" fill="#f84a47"/><path d="m107.4 638.1h-15.5a59.4 59.4 0 0 0 17.6 42.4l10.9-11a44.3 44.3 0 0 1 -13-31.4z" fill="#ed5fa7"/><path d="m87.3 721-10.2 10.1a88.2 88.2 0 0 0 62.6 25.9v-14.4a73.7 73.7 0 0 1 -52.4-21.6z" fill="#8331a7"/><path d="m97.3 711-10 10a73.7 73.7 0 0 0 52.4 21.6v-14a59.9 59.9 0 0 1 -42.4-17.6z" fill="#9048b0"/><path d="m108.2 700-10.9 11a59.9 59.9 0 0 0 42.4 17.6v-15.6a44.3 44.3 0 0 1 -31.5-13z" fill="#9d5cb8"/><path d="m120.5 606.7-11-11a59.6 59.6 0 0 0 -17.6 42.4h15.5a44 44 0 0 1 13.1-31.4z" fill="#38c2e8"/><path d="m151.8 712.2v14.4a88.3 88.3 0 0 0 62.6-26l-10.2-10.2a73.5 73.5 0 0 1 -52.4 21.8z" fill="#0033a1"/><path d="m151.8 698.1v14.1a73.5 73.5 0 0 0 52.4-21.8l-9.9-9.9a59.9 59.9 0 0 1 -42.5 17.6z" fill="#04a"/><path d="m151.8 682.6v15.5a59.9 59.9 0 0 0 42.5-17.6l-11-11a44.2 44.2 0 0 1 -31.5 13.1z" fill="#3956b4"/><path d="m204.2 585.8a73.8 73.8 0 0 1 21.7 52.3h14.4a88.1 88.1 0 0 0 -25.9-62.5z" fill="#fed925"/><path d="m211.8 638.1h14.1a73.8 73.8 0 0 0 -21.7-52.3l-10 9.9a59.8 59.8 0 0 1 17.6 42.4z" fill="#ffdc47"/><path d="m196.3 638.1h15.5a59.8 59.8 0 0 0 -17.6-42.4l-10.9 11a44.6 44.6 0 0 1 13 31.4z" fill="#ffe05f"/><path d="m120.5 606.7a44.2 44.2 0 0 1 31.3-13v-15.5a59.7 59.7 0 0 0 -42.3 17.5z" fill="#fc6359"/><path d="m224.6 698.6 10.1 10.1a87.9 87.9 0 0 0 25.9-62.4h-14.4a74.1 74.1 0 0 1 -21.6 52.3z" fill="#009d4f"/><path d="m214.6 688.6 10 10a74.1 74.1 0 0 0 21.6-52.3h-14.1a59.7 59.7 0 0 1 -17.5 42.3z" fill="#00a760"/><path d="m203.6 677.6 11 11a59.7 59.7 0 0 0 17.5-42.3h-15.5a44.2 44.2 0 0 1 -13 31.3z" fill="#0bb270"/><path d="m208.3 575.6 10.1-10.2a88.1 88.1 0 0 0 -62.5-25.9v14.4a73.8 73.8 0 0 1 52.4 21.7z" fill="#ff6b00"/><path d="m155.9 568a59.6 59.6 0 0 1 42.4 17.6l10-10a73.8 73.8 0 0 0 -52.4-21.7z" fill="#ff7c00"/><path d="m187.3 596.6 11-11a59.6 59.6 0 0 0 -42.4-17.6v15.5a44 44 0 0 1 31.4 13.1z" fill="#ff8c1c"/><g stroke="#000" stroke-miterlimit="10"><path d="m288 395.9c-83.1-57.3-118.3-59.9-126-59.7s-42.9 2.4-126 59.7c83.1 57.3 118.3 59.9 126 59.7s42.9-2.4 126-59.7z" fill="#fff" stroke-width="6.87"/><circle cx="162" cy="396" r="61.9" stroke-width=".93"/><path d="m115 396h-9.2a55.9 55.9 0 0 0 16.5 39.7l6.5-6.5a46.4 46.4 0 0 1 -13.8-33.2z" fill="#e31d93" stroke-width=".93"/><path d="m128.8 429.2-6.5 6.5a55.9 55.9 0 0 0 39.7 16.5v-9.2a46.4 46.4 0 0 1 -33.2-13.8z" fill="#8331a7" stroke-width=".93"/><path d="m128.8 362.7-6.5-6.4a55.8 55.8 0 0 0 -16.5 39.7h9.2a47 47 0 0 1 13.8-33.3z" fill="#00b2e3" stroke-width=".93"/><path d="m162 443v9.2a55.8 55.8 0 0 0 39.7-16.5l-6.4-6.5a47 47 0 0 1 -33.3 13.8z" fill="#0033a1" stroke-width=".93"/><path d="m195.2 362.8a46.4 46.4 0 0 1 13.8 33.2h9.2a55.9 55.9 0 0 0 -16.5-39.7z" fill="#fed925" stroke-width=".93"/><path d="m162 349v-9.2a55.9 55.9 0 0 0 -39.7 16.5l6.5 6.4a46.7 46.7 0 0 1 33.2-13.7z" fill="#f32735" stroke-width=".93"/><path d="m195.3 429.2 6.4 6.5a55.9 55.9 0 0 0 16.5-39.7h-9.2a46.7 46.7 0 0 1 -13.7 33.2z" fill="#009d4f" stroke-width=".93"/><path d="m195.2 362.8 6.5-6.5a55.9 55.9 0 0 0 -39.7-16.5v9.2a46.4 46.4 0 0 1 33.2 13.8z" fill="#ff6b00" stroke-width=".93"/><path d="m123.9 396h-8.9a46.4 46.4 0 0 0 13.8 33.2l6.3-6.3a37.9 37.9 0 0 1 -11.2-26.9z" fill="#e9459d" stroke-width=".93"/><path d="m135.1 422.9-6.3 6.3a46.4 46.4 0 0 0 33.2 13.8v-8.9a37.9 37.9 0 0 1 -26.9-11.2z" fill="#9048b0" stroke-width=".93"/><path d="m135.1 369.1-6.3-6.4a47 47 0 0 0 -13.8 33.3h8.9a37.8 37.8 0 0 1 11.2-26.9z" fill="#00bae6" stroke-width=".93"/><path d="m162 434.1v8.9a47 47 0 0 0 33.3-13.8l-6.4-6.3a37.8 37.8 0 0 1 -26.9 11.2z" fill="#04a" stroke-width=".93"/><path d="m200.1 396h8.9a46.4 46.4 0 0 0 -13.8-33.2l-6.3 6.3a37.9 37.9 0 0 1 11.2 26.9z" fill="#ffdc47" stroke-width=".93"/><path d="m162 357.9v-8.9a46.7 46.7 0 0 0 -33.2 13.7l6.3 6.4a37.9 37.9 0 0 1 26.9-11.2z" fill="#f84a47" stroke-width=".93"/><path d="m188.9 422.9 6.4 6.3a46.7 46.7 0 0 0 13.7-33.2h-8.9a37.9 37.9 0 0 1 -11.2 26.9z" fill="#00a760" stroke-width=".93"/><path d="m162 357.9a37.9 37.9 0 0 1 26.9 11.2l6.3-6.3a46.4 46.4 0 0 0 -33.2-13.8z" fill="#ff7c00" stroke-width=".93"/><path d="m133.8 396h-9.9a37.9 37.9 0 0 0 11.2 26.9l7-7a27.6 27.6 0 0 1 -8.3-19.9z" fill="#ed5fa7" stroke-width=".93"/><path d="m142.1 415.9-7 7a37.9 37.9 0 0 0 26.9 11.2v-9.9a27.6 27.6 0 0 1 -19.9-8.3z" fill="#9d5cb8" stroke-width=".93"/><path d="m142.1 376-7-6.9a37.8 37.8 0 0 0 -11.2 26.9h9.9a28.3 28.3 0 0 1 8.3-20z" fill="#38c2e8" stroke-width=".93"/><path d="m162 424.2v9.9a37.8 37.8 0 0 0 26.9-11.2l-6.9-7a28.3 28.3 0 0 1 -20 8.3z" fill="#3956b4" stroke-width=".93"/><path d="m190.2 396h9.9a37.9 37.9 0 0 0 -11.2-26.9l-7 7a27.6 27.6 0 0 1 8.3 19.9z" fill="#ffe05f" stroke-width=".93"/><path d="m142.1 376a28 28 0 0 1 19.9-8.2v-9.9a37.9 37.9 0 0 0 -26.9 11.2z" fill="#fc6359" stroke-width=".93"/><path d="m182 415.9 6.9 7a37.9 37.9 0 0 0 11.2-26.9h-9.9a28 28 0 0 1 -8.2 19.9z" fill="#0bb270" stroke-width=".93"/><path d="m181.9 376.1 7-7a37.9 37.9 0 0 0 -26.9-11.2v9.9a27.6 27.6 0 0 1 19.9 8.3z" fill="#ff8c1c" stroke-width=".93"/><path d="m576 395.9c-83.1-57.3-118.3-59.9-126-59.7s-42.9 2.4-126 59.7c83.1 57.3 118.3 59.9 126 59.7s42.9-2.4 126-59.7z" stroke-width="6.87"/><circle cx="450" cy="396" r="61.9" stroke-width=".93"/><path d="m403 396h-9.2a55.9 55.9 0 0 0 16.5 39.7l6.5-6.5a46.4 46.4 0 0 1 -13.8-33.2z" fill="#e31d93" stroke-width=".93"/><path d="m416.8 429.2-6.5 6.5a55.9 55.9 0 0 0 39.7 16.5v-9.2a46.4 46.4 0 0 1 -33.2-13.8z" fill="#8331a7" stroke-width=".93"/><path d="m416.8 362.7-6.5-6.4a55.8 55.8 0 0 0 -16.5 39.7h9.2a47 47 0 0 1 13.8-33.3z" fill="#00b2e3" stroke-width=".93"/><path d="m450 443v9.2a55.8 55.8 0 0 0 39.7-16.5l-6.4-6.5a47 47 0 0 1 -33.3 13.8z" fill="#0033a1" stroke-width=".93"/><path d="m483.2 362.8a46.4 46.4 0 0 1 13.8 33.2h9.2a55.9 55.9 0 0 0 -16.5-39.7z" fill="#fed925" stroke-width=".93"/><path d="m450 349v-9.2a55.9 55.9 0 0 0 -39.7 16.5l6.5 6.4a46.7 46.7 0 0 1 33.2-13.7z" fill="#f32735" stroke-width=".93"/><path d="m483.3 429.2 6.4 6.5a55.9 55.9 0 0 0 16.5-39.7h-9.2a46.7 46.7 0 0 1 -13.7 33.2z" fill="#009d4f" stroke-width=".93"/><path d="m483.2 362.8 6.5-6.5a55.9 55.9 0 0 0 -39.7-16.5v9.2a46.4 46.4 0 0 1 33.2 13.8z" fill="#ff6b00" stroke-width=".93"/><path d="m411.9 396h-8.9a46.4 46.4 0 0 0 13.8 33.2l6.3-6.3a37.9 37.9 0 0 1 -11.2-26.9z" fill="#e9459d" stroke-width=".93"/><path d="m423.1 422.9-6.3 6.3a46.4 46.4 0 0 0 33.2 13.8v-8.9a37.9 37.9 0 0 1 -26.9-11.2z" fill="#9048b0" stroke-width=".93"/><path d="m423.1 369.1-6.3-6.4a47 47 0 0 0 -13.8 33.3h8.9a37.8 37.8 0 0 1 11.2-26.9z" fill="#00bae6" stroke-width=".93"/><path d="m450 434.1v8.9a47 47 0 0 0 33.3-13.8l-6.4-6.3a37.8 37.8 0 0 1 -26.9 11.2z" fill="#04a" stroke-width=".93"/><path d="m488.1 396h8.9a46.4 46.4 0 0 0 -13.8-33.2l-6.3 6.3a37.9 37.9 0 0 1 11.2 26.9z" fill="#ffdc47" stroke-width=".93"/><path d="m450 357.9v-8.9a46.7 46.7 0 0 0 -33.2 13.7l6.3 6.4a37.9 37.9 0 0 1 26.9-11.2z" fill="#f84a47" stroke-width=".93"/><path d="m476.9 422.9 6.4 6.3a46.7 46.7 0 0 0 13.7-33.2h-8.9a37.9 37.9 0 0 1 -11.2 26.9z" fill="#00a760" stroke-width=".93"/><path d="m450 357.9a37.9 37.9 0 0 1 26.9 11.2l6.3-6.3a46.4 46.4 0 0 0 -33.2-13.8z" fill="#ff7c00" stroke-width=".93"/><path d="m421.8 396h-9.9a37.9 37.9 0 0 0 11.2 26.9l7-7a27.6 27.6 0 0 1 -8.3-19.9z" fill="#ed5fa7" stroke-width=".93"/><path d="m430.1 415.9-7 7a37.9 37.9 0 0 0 26.9 11.2v-9.9a27.6 27.6 0 0 1 -19.9-8.3z" fill="#9d5cb8" stroke-width=".93"/><path d="m430.1 376-7-6.9a37.8 37.8 0 0 0 -11.2 26.9h9.9a28.3 28.3 0 0 1 8.3-20z" fill="#38c2e8" stroke-width=".93"/><path d="m450 424.2v9.9a37.8 37.8 0 0 0 26.9-11.2l-6.9-7a28.3 28.3 0 0 1 -20 8.3z" fill="#3956b4" stroke-width=".93"/><path d="m478.2 396h9.9a37.9 37.9 0 0 0 -11.2-26.9l-7 7a27.6 27.6 0 0 1 8.3 19.9z" fill="#ffe05f" stroke-width=".93"/><path d="m430.1 376a28 28 0 0 1 19.9-8.2v-9.9a37.9 37.9 0 0 0 -26.9 11.2z" fill="#fc6359" stroke-width=".93"/><path d="m470 415.9 6.9 7a37.9 37.9 0 0 0 11.2-26.9h-9.9a28 28 0 0 1 -8.2 19.9z" fill="#0bb270" stroke-width=".93"/><path d="m469.9 376.1 7-7a37.9 37.9 0 0 0 -26.9-11.2v9.9a27.6 27.6 0 0 1 19.9 8.3z" fill="#ff8c1c" stroke-width=".93"/></g></svg>