<svg height="11in" viewBox="0 0 612 792" width="8.5in" xmlns="http://www.w3.org/2000/svg"><path d="m-9 144.1h630v656.92h-630z" fill="#fff"/><path d="m-9-9h630v153.08h-630z"/><path d="m278.1 53.8h-5.4a33.5 33.5 0 0 0 9.7 23.6l3.9-3.9a27.5 27.5 0 0 1 -8.2-19.7z" fill="#e31d93"/><path d="m286.3 73.5-3.9 3.9a33.6 33.6 0 0 0 23.7 9.7v-5.4a27.5 27.5 0 0 1 -19.8-8.2z" fill="#8331a7"/><path d="m286.3 34-3.8-3.9a33.2 33.2 0 0 0 -9.8 23.7h5.4a27.5 27.5 0 0 1 8.2-19.8z" fill="#00b2e3"/><path d="m307.2 83.9v5.5a33.4 33.4 0 0 0 23.6-9.8l-3.8-3.9a27.9 27.9 0 0 1 -19.8 8.2z" fill="#0033a1"/><path d="m328.1 33a28.1 28.1 0 0 1 8.2 19.8h5.4a32.8 32.8 0 0 0 -9.8-23.6z" fill="#fed925"/><path d="m306.1 25.8v-5.4a33.2 33.2 0 0 0 -23.6 9.7l3.8 3.9a27.7 27.7 0 0 1 19.8-8.2z" fill="#f32735"/><path d="m328.1 74.6 3.8 3.9a33.2 33.2 0 0 0 9.8-23.6h-5.4a27.9 27.9 0 0 1 -8.2 19.7z" fill="#009d4f"/><path d="m327 31.7 3.8-3.8a33 33 0 0 0 -23.6-9.8v5.4a27.9 27.9 0 0 1 19.8 8.2z" fill="#ff6b00"/><path d="m283.4 53.8h-5.3a27.5 27.5 0 0 0 8.2 19.7l3.8-3.7a22.7 22.7 0 0 1 -6.7-16z" fill="#e9459d"/><path d="m290.1 69.8-3.8 3.7a27.5 27.5 0 0 0 19.8 8.2v-5.3a22.3 22.3 0 0 1 -16-6.6z" fill="#9048b0"/><path d="m290.1 37.7-3.8-3.7a27.5 27.5 0 0 0 -8.2 19.8h5.3a22.8 22.8 0 0 1 6.7-16.1z" fill="#00bae6"/><path d="m306.6 77.3v5.3a27.5 27.5 0 0 0 19.7-8.2l-3.7-3.8a22.3 22.3 0 0 1 -16 6.7z" fill="#04a"/><path d="m329.6 53.4h5.3a28.2 28.2 0 0 0 -8.1-19.8l-3.8 3.8a22.4 22.4 0 0 1 6.6 16z" fill="#ffdc47"/><path d="m306.1 31.1v-5.3a27.7 27.7 0 0 0 -19.8 8.2l3.8 3.7a22.4 22.4 0 0 1 16-6.6z" fill="#f84a47"/><path d="m323 70.2 3.8 3.8a27.8 27.8 0 0 0 8.1-19.7h-5.3a22.2 22.2 0 0 1 -6.6 15.9z" fill="#00a760"/><path d="m306.6 30.1a22.7 22.7 0 0 1 16 6.7l3.7-3.8a27.9 27.9 0 0 0 -19.7-8.2z" fill="#ff7c00"/><path d="m289.3 53.8h-5.9a22.7 22.7 0 0 0 6.7 16l4.1-4.2a16.7 16.7 0 0 1 -4.9-11.8z" fill="#ed5fa7"/><path d="m294.2 65.6-4.1 4.2a22.3 22.3 0 0 0 16 6.6v-5.9a16.4 16.4 0 0 1 -11.9-4.9z" fill="#9d5cb8"/><path d="m294.2 41.9-4.1-4.2a22.8 22.8 0 0 0 -6.7 16.1h5.9a16.8 16.8 0 0 1 4.9-11.9z" fill="#38c2e8"/><path d="m306.1 70.5v5.9a22.7 22.7 0 0 0 16-6.7l-4.2-4.1a16.7 16.7 0 0 1 -11.8 4.9z" fill="#3956b4"/><path d="m322.8 53.8h5.9a22.3 22.3 0 0 0 -6.6-16l-4.2 4.1a16.8 16.8 0 0 1 4.9 11.9z" fill="#ffe05f"/><path d="m294.2 41.9a16.8 16.8 0 0 1 11.9-4.9v-5.9a22.4 22.4 0 0 0 -16 6.6z" fill="#fc6359"/><path d="m317.9 65.6 4.2 4.1a22.4 22.4 0 0 0 6.6-15.9h-5.9a16.3 16.3 0 0 1 -4.9 11.8z" fill="#0bb270"/><path d="m317.9 41.9 4.2-4.1a22.7 22.7 0 0 0 -16-6.7v5.9a16.7 16.7 0 0 1 11.8 4.9z" fill="#ff8c1c"/><path d="m272.6 126 1.7-4.4h.7l1.8 4.4h-.7l-.5-1.3h-1.8l-.5 1.3zm1.3-1.8h1.5l-.4-1.2a2.2 2.2 0 0 1 -.3-1l-.3.9z" fill="#d1d3d4"/><path d="m277.3 126v-4.4h2.8a1 1 0 0 1 .5.4 1.4 1.4 0 0 1 .2.7 1.1 1.1 0 0 1 -.3.8 1.9 1.9 0 0 1 -.9.4l.3.2.5.6.8 1.2h-.8l-.6-.9a1.5 1.5 0 0 0 -.4-.6q-.1-.3-.3-.3h-1.2v2zm.6-2.5h1.8l.4-.2a.6.6 0 0 0 .1-.4.8.8 0 0 0 -.2-.5.8.8 0 0 0 -.7-.2h-1.4z" fill="#d1d3d4"/><path d="m282.7 126v-3.9h-1.4v-.5h3.5v.5h-1.5v3.9z" fill="#d1d3d4"/><path d="m286.8 124.6h.6a1.1 1.1 0 0 0 .1.6l.5.3.7.2h.6l.3-.3a.8.8 0 0 0 .2-.4l-.2-.4c0-.1-.2-.2-.4-.2l-.7-.2-.9-.3-.5-.4a1.3 1.3 0 0 1 -.1-.6.7.7 0 0 1 .2-.6l.5-.5h.8l.9.2.6.4a1.9 1.9 0 0 1 .2.7h-.6a.9.9 0 0 0 -.3-.7l-.7-.2a1.3 1.3 0 0 0 -.8.2.5.5 0 0 0 -.3.5l.2.4.9.3 1 .3a1 1 0 0 1 .5.4.8.8 0 0 1 .2.7.7.7 0 0 1 -.2.6 1 1 0 0 1 -.6.5l-.8.2-1-.2a1.8 1.8 0 0 1 -.7-.5 2.4 2.4 0 0 1 -.2-1z" fill="#d1d3d4"/><path d="m294 121.6h.6v2.5a3.4 3.4 0 0 1 -.1 1.1.9.9 0 0 1 -.6.6 1.5 1.5 0 0 1 -1 .3l-1-.2a1.3 1.3 0 0 1 -.6-.7 2.7 2.7 0 0 1 -.2-1.1v-2.5h.6v2.5c0 .4.1.7.1.9a.8.8 0 0 0 .4.4h.6l1-.2a2.9 2.9 0 0 0 .2-1.2z" fill="#d1d3d4"/><path d="m295.6 126v-4.4h2.3l.6.2.3.4a1.4 1.4 0 0 1 .2.7 1.8 1.8 0 0 1 -.4.9c-.2.3-.7.4-1.3.4h-1.1v1.8zm.6-2.3h1.1l.8-.2a.9.9 0 0 0 .3-.6.8.8 0 0 0 -.2-.5l-.3-.3h-1.7z" fill="#d1d3d4"/><path d="m299.7 126v-4.4h2.4l.5.2.4.4c0 .2.1.4.1.7a1.2 1.2 0 0 1 -.4.9c-.2.3-.6.4-1.3.4h-1.1v1.8zm.6-2.3h1.1l.9-.2a1.4 1.4 0 0 0 .2-.6 4.3 4.3 0 0 0 -.1-.5l-.4-.3h-1.7z" fill="#d1d3d4"/><path d="m303.8 126v-4.4h.6v3.9h2.2v.5z" fill="#d1d3d4"/><path d="m307.4 126v-4.4h.6v4.4z" fill="#d1d3d4"/><path d="m309 126v-4.4h3.2v.5h-2.6v1.4h2.4v.5h-2.4v1.5h2.7v.5z" fill="#d1d3d4"/><path d="m312.9 124.6h.6a1.1 1.1 0 0 0 .2.6l.4.3.7.2h.6l.4-.3c0-.1.1-.3.1-.4v-.4l-.4-.2-.8-.2-.9-.3-.5-.4a1.3 1.3 0 0 1 -.1-.6 1.4 1.4 0 0 1 .2-.6 1.2 1.2 0 0 1 .5-.5h.9l.8.2a.9.9 0 0 1 .6.4 1.9 1.9 0 0 1 .2.7h-.5a1.6 1.6 0 0 0 -.4-.7l-.7-.2-.8.2c-.2.1-.2.3-.2.5a.6.6 0 0 0 .1.4l.9.3 1 .3a1.3 1.3 0 0 1 .6.4 1.5 1.5 0 0 1 .1.7.7.7 0 0 1 -.2.6 1.2 1.2 0 0 1 -.5.5l-.9.2-1-.2a1 1 0 0 1 -.6-.5 1.3 1.3 0 0 1 -.4-1z" fill="#d1d3d4"/><path d="m318.8 124.6h.5a1.1 1.1 0 0 0 .2.6l.4.3.7.2h.6l.4-.3a.8.8 0 0 0 0-.8l-.4-.2-.8-.2-.8-.3-.5-.4a1 1 0 0 1 0-1.2c.2-.2.3-.4.6-.5h.8l.9.2a1 1 0 0 1 .5.4c.2.2.2.5.3.7h-.6a.9.9 0 0 0 -.3-.7l-.8-.2-.8.2a.8.8 0 0 0 -.2.5l.2.4.9.3.9.3a.9.9 0 0 1 .6.4 1.4 1.4 0 0 1 .2.7 1.4 1.4 0 0 1 -.2.6 1 1 0 0 1 -.6.5l-.8.2-1.1-.2-.6-.5a2.4 2.4 0 0 1 -.2-1z" fill="#d1d3d4"/><path d="m324.2 126v-3.9h-1.4v-.5h3.5v.5h-1.5v3.9z" fill="#d1d3d4"/><path d="m326.6 123.8a2.4 2.4 0 0 1 .6-1.7 2.2 2.2 0 0 1 2.6-.3 3 3 0 0 1 .8.8 4.3 4.3 0 0 1 .2 1.2 2.7 2.7 0 0 1 -.3 1.2 1.4 1.4 0 0 1 -.7.8 2.3 2.3 0 0 1 -1.1.3 2 2 0 0 1 -1.1-.3 2.4 2.4 0 0 1 -.8-.9 3.6 3.6 0 0 1 -.2-1.1zm.6.1a1.5 1.5 0 0 0 2.6 1.2 1.7 1.7 0 0 0 .4-1.3 3 3 0 0 0 -.2-1l-.5-.6-.8-.2a1.5 1.5 0 0 0 -1.1.4 2.1 2.1 0 0 0 -.4 1.5z" fill="#d1d3d4"/><path d="m331.6 126v-4.4h2.8a1 1 0 0 1 .5.4.8.8 0 0 1 .2.7 1.1 1.1 0 0 1 -.3.8 1.9 1.9 0 0 1 -.9.4l.3.2.5.6.8 1.2h-.8l-.5-.9-.5-.6q-.1-.3-.3-.3h-1.2v2zm.6-2.5h1.9l.3-.2a.6.6 0 0 0 .1-.4.8.8 0 0 0 -.2-.5.8.8 0 0 0 -.7-.2h-1.4z" fill="#d1d3d4"/><path d="m336 126v-4.4h3.2v.5h-2.6v1.4h2.5v.5h-2.5v1.5h2.8v.5z" fill="#d1d3d4"/><path d="m258.9 108.4c-.2.9.4 4.1-.7 4.1s-.9-.2-.9-.6l-.2-3.1-.3-.3a19.8 19.8 0 0 1 -4.2-.3 18.3 18.3 0 0 1 -3.3-1.1c-1 .7-1.8 1.9-2.8 2.5s-4.5 2.3-6.8 2.3a.1.1 0 0 1 -.1-.1l-.3-.3c0-.7 3.4-1.6 4.1-1.9a13.3 13.3 0 0 0 2.8-1.6l1.5-1.5v-.3a4.6 4.6 0 0 1 -2.5-3.9c0-.1 0-.5.1-.5l.9-2.3c.4-1 2.2-1.7 3.1-1.7a6.8 6.8 0 0 1 4.3 1.1h.1c.8 0 5.1-7.4 6.1-7.4s.7.3.7.8v.4a83.1 83.1 0 0 0 -1.3 13.2c0 .2 0 .6.3.6s1.1-.5 1.6-.5.5.1.5.3-2 1.6-2.7 2.1zm-6-8c0-.9-2.5-1.1-3-1.1h-1.1c-1.5.2-2.1 2-2.1 3.2s.1.8.1.9 1.1 1.6 1.9 1.6h.4l3.6-4.2.2-.3zm1.1 1.2c-.3-.1-.6.5-.7.6l-2.8 3.4a.1.1 0 0 0 -.1.1c0 1 4.4 1.4 5 1.4h1c.2 0 .1-.3.1-.5s-1.5-4.6-2.5-5zm4.5-6.2h-.1a14 14 0 0 0 -2.6 3.3 8 8 0 0 0 -.8 1.2v.5l.9 1.4a29.5 29.5 0 0 1 1.8 4.6l.2-.2c0-2.4.4-5.8.3-8.1a3 3 0 0 0 .2-1.3l.3-1.3z" fill="#fff"/><path d="m268.7 108.2c-.3 0-.8 0-1-.4a18.7 18.7 0 0 1 -2.3 3.2c-.6.7-1.3 1.7-1.9 1.7s-.3-.7-.4-1-.2-2-.2-2.3-.1-1 0-1v-2.8a15.7 15.7 0 0 0 -.5-2.7c-.2-1.8 1-1.3 1.2-1a3 3 0 0 1 .2 1 7.9 7.9 0 0 1 .3 1.3v1.8a13.6 13.6 0 0 0 .1 2.9c0 .3-.1.8-.1 1v.8a14.6 14.6 0 0 0 1.8-2.2l.8-1.3c0-.1.1-.3.1-.4a7.2 7.2 0 0 1 -.1-2.1c0-.6 1-3.6 2.1-3.6s.7.1.8.3a8.6 8.6 0 0 1 .1 1.5c0 .9-.9 2.5-1.2 3.3v.3c0 .1.3.5.5.5s2.4-1.9 3.2-1.8a.5.5 0 0 1 .5.4c-.1.8-3.3 2.6-4 2.6z" fill="#fff"/><path d="m283.4 107.5a7.1 7.1 0 0 1 -1.3 2.4c-.8.9-2.5 2.2-3.7 2.2h-.1c-1 0-1.7-.7-1.9-2.3l-.9.9c-.9.5-1.4 1.5-2.9 1.5s-1.3-.7-1.6-1.2v-.8a11.5 11.5 0 0 1 1.1-4.7c1.1-2 2.8-3.6 5.1-3.6s1.2 1.8 1.4 2.7.8-.6 1.1-.5.1.7 0 1a13.8 13.8 0 0 0 -2.1 4.2c-.1 1 .3 1.6 1 1.6s2.2-1.5 2.6-1.9.7-1.1 1.5-2.1.1-.2.4-.2a.4.4 0 0 1 .4.4c0 .2 0 .3-.1.4zm-6.8-4.2c-1.2 0-2.4 1.3-3.2 2.9a9.3 9.3 0 0 0 -1.3 4 .6.6 0 0 0 .2.5h.4a2.4 2.4 0 0 0 1.6-.7l2.2-2.4a6.4 6.4 0 0 0 .8-3c0-.4 0-1.3-.7-1.3z" fill="#fff"/><path d="m295.6 107.5a6.7 6.7 0 0 1 -1.3 2.5 11.2 11.2 0 0 1 -2 1.7 3.6 3.6 0 0 1 -2 .6h-1.1c-.6-.3-.6-1.1-.6-1.7a5.5 5.5 0 0 1 1-2.5 23.1 23.1 0 0 0 1.6-4.1h-.2c-1.2 0-2.5 2.4-3.2 3.2a2.7 2.7 0 0 1 -.4.7c-.2.4-.5.7-.6.9a3.5 3.5 0 0 0 -.6.9l-.7 1.1c-.5.7-1 1.4-1.4 1.4s-.5-.2-.6-.6a53.8 53.8 0 0 1 2.4-5.5 13.4 13.4 0 0 0 .6-1.2c.2-.9.3-1.5.1-1.5s-1.2 1.3-1.7 2.1l-1 2a1.5 1.5 0 0 1 -.7.7.4.4 0 0 1 -.7 0c-.2-.3 0-.8 0-1l.2-.3.4-.5a12.1 12.1 0 0 0 1.1-1.9c.5-1.1 1.6-2.3 2.5-2.3s1.1.6 1.2 1.1a1.8 1.8 0 0 1 -.1 1.1l-.5 1.7c1.1-1.7 2.8-3.5 4.4-3.8a1.5 1.5 0 0 1 .9 1.5 51.9 51.9 0 0 1 -2 5 3.8 3.8 0 0 0 -.6 1.6c0 .2-.1.4.1.5h.4l.9-.2a10.1 10.1 0 0 0 1.8-1.5l.6-1a14 14 0 0 1 1-1.6h.4a.5.5 0 0 1 .5.5c0 .2-.1.3-.1.4z" fill="#fff"/><path d="m302.7 100.3h-4.2a26.4 26.4 0 0 0 -2.1 5.4 9.5 9.5 0 0 0 -.6 1.8 20.8 20.8 0 0 0 -.2 2.2c0 .5.5 1.2 1 1.2h.1c.2 0 1 0 1-.1h.5a12.9 12.9 0 0 0 2.1-1.7c.5-.6.9-1.4 1.4-2.1s.2-.2.4-.2.4.2.4.4v.4a7.1 7.1 0 0 1 -1.3 2.4 6.2 6.2 0 0 1 -1.9 1.6 4.9 4.9 0 0 1 -2.4.8c-2 0-2.7-1.5-2.7-3.2v-1.4c.3-.9 1.5-3.8 1.7-4.6s.8-2 1-2.7h-1.3c-.2 0-1.2-.2-1.2-.7s.6-.6.9-.6h2.1l1.1-2.1.7-1.8.8-1.5c.2-.3.8-1.7 1.4-1.7s.7.2.7.5a5.4 5.4 0 0 1 -1 2c0 .2-2.1 4.5-2.1 4.5h4.1a.9.9 0 0 1 .6.6c.1.3-.6.6-1 .6z" fill="#fff"/><path d="m312.5 105.7c-2.6-.2-5.1.6-7.6.6-.4 0-.7-.1-.7-.6s.1-.5.5-.6 2.7-.2 3.8-.6h4.2c.2.1.3.6.3.7s-.2.4-.5.5z" fill="#fff"/><path d="m329.6 109.2c-.8 1.4-1.6 2.7-2.5 4s-6.3 3.8-9.2 3.8a7.3 7.3 0 0 1 -5.6-2.9.6.6 0 0 1 -.2-.5c0-.4.5-.4.8-.4s3.1 2.6 5.2 2.6a13.7 13.7 0 0 0 3.5-.8c2.8-.6 4.1-1.9 5.5-4.4v-.3h-.1a14.3 14.3 0 0 1 -7.3 1.7 4.7 4.7 0 0 1 -4.5-3.2 7.8 7.8 0 0 1 -.5-1.4 14.7 14.7 0 0 1 0-2.1 8 8 0 0 1 .5-1.9c-1.1-1-2.3-2.4-2.3-3.9a5.3 5.3 0 0 1 1.7-4.2c.2-.2 1-1.1 1.3-1.1s.4.3.4.5-2.3 2.4-2.3 4.9a4.4 4.4 0 0 0 1.8 2.6c.5-.6 1.3-2.1 1.7-2.6a33 33 0 0 1 5.6-5.6 8.7 8.7 0 0 1 3.8-1.1c2.2 0 2.8 2.1 2.8 3.9s-1.4 4-2.9 5.7a8 8 0 0 1 -6.3 2.9 12.9 12.9 0 0 1 -4.2-1.3 3.7 3.7 0 0 0 -.4 1.8c0 2.6 1.2 4.7 4.1 4.7a11.3 11.3 0 0 0 4.8-.8 13.1 13.1 0 0 0 3.6-2.1 4.3 4.3 0 0 0 1.5-2.7c0-.3.4-.3.7-.3s.7 0 .7.5a22.8 22.8 0 0 1 -1.7 4zm-2-14.8h-.8c-3.1 0-5.9 3.1-7.8 5.4-.5.7-2 2.3-2.2 3.1a9.6 9.6 0 0 0 4.3 1.2c2.5 0 4.3-1.9 5.8-3.7a7.3 7.3 0 0 0 1-1.3 6.7 6.7 0 0 0 .6-2.8 2.2 2.2 0 0 0 -.9-1.9z" fill="#fff"/><path d="m344.6 107.5a7.1 7.1 0 0 1 -1.3 2.4c-.8.9-2.5 2.2-3.8 2.2-1.1 0-1.7-.7-1.9-2.3l-1 .9c-.8.5-1.3 1.5-2.8 1.5s-1.3-.7-1.7-1.2v-.8a11.7 11.7 0 0 1 1.2-4.7c1.1-2 2.8-3.6 5.1-3.6s1.2 1.8 1.4 2.7.8-.6 1.1-.5.1.7-.1 1-1.9 3-2 4.2.3 1.6.9 1.6 2.3-1.5 2.7-1.9a24.5 24.5 0 0 0 1.4-2.1c.2-.3.2-.2.5-.2a.4.4 0 0 1 .4.4c0 .2-.1.3-.1.4zm-6.8-4.2c-1.3 0-2.4 1.3-3.3 2.9a10.5 10.5 0 0 0 -1.2 4 .6.6 0 0 0 .2.5h.4a2.4 2.4 0 0 0 1.6-.7 24.1 24.1 0 0 0 2.1-2.4 5.5 5.5 0 0 0 .9-3c0-.4 0-1.3-.7-1.3z" fill="#fff"/><path d="m352.7 107.5a7.1 7.1 0 0 1 -1.3 2.4c-.8.8-2.4 2.1-3.6 2.2h-.5c-.7 0-1.7-.3-1.7-1.3a6.7 6.7 0 0 1 .9-3.1c.6-1.1 1.6-2.5 2.2-3.4a4.3 4.3 0 0 1 -2 0c-.3.2-.2.3-.5.6s-1.1 2.1-1.4 2.5-.5 1.2-1.2 1.2-.6-.1-.5-.4v-.5l.7-1.3 1.7-2.7c0-.2-.2-.2-.2-.3l-.3-.4a4.5 4.5 0 0 1 -.1-1.2 2.5 2.5 0 0 1 2.6-2.2 1.2 1.2 0 0 1 1 1.1 2.9 2.9 0 0 1 -.3 1.4l-.6 1a2.1 2.1 0 0 0 1.1 0c.6 0 .9-.5 1.6-.5s.6.3.6.7a.9.9 0 0 1 -.3.6h-.1a32.4 32.4 0 0 0 -2.4 3.1 6.3 6.3 0 0 0 -1.3 3.4s.2.1.2.2l.8.2c.6 0 2.2-1.5 2.6-1.9a24.5 24.5 0 0 0 1.4-2.1c.3-.3.2-.2.5-.2a.4.4 0 0 1 .4.4c.1.3 0 .4 0 .5zm-6.5-5.5c0 .3.4.6.4.6s.9-1.3.6-1.8-1 .5-1 1.2z" fill="#fff"/><path d="m364.8 93.3-.8 1.8-3.5 7.2a22.7 22.7 0 0 0 -2 5.5 19.3 19.3 0 0 0 -.1 2.4v.5c.3.4.2.3.4.3h1.1c.6 0 2.2-1.5 2.6-1.9s.7-1.1 1.5-2.1.1-.2.4-.2a.4.4 0 0 1 .4.4c0 .2 0 .3-.1.4a7.1 7.1 0 0 1 -1.3 2.4c-.8.8-2.4 2.1-3.6 2.2h-.8c-2.3 0-1.8-2.3-1.9-2.6s-2.3 2.5-3.9 2.5-1.9-1.6-1.9-2.8 2.6-7.6 5.4-7.6c1.2 0 1.2 1.2 1.8 1.2s.3 0 .3-.1l3.7-8c.5-.6 1-2.6 1.7-2.6s.6.3.6.7zm-8.3 9.9a1 1 0 0 0 -.7.2 7.5 7.5 0 0 0 -3.2 6c0 .2.1 1.2.1 1.3s.4.2.5.2c1.9 0 4.4-4.3 4.4-5.9s-.2-1.8-1.1-1.8z" fill="#fff"/><path d="m372.7 107.5a6 6 0 0 1 -1.4 2.4 5.9 5.9 0 0 1 -4.4 2.2 3.8 3.8 0 0 1 -2.5-.7 2.9 2.9 0 0 1 -1.3-2.3 8.5 8.5 0 0 1 1.7-5.2 4.3 4.3 0 0 1 3.5-1.9 1.6 1.6 0 0 1 1.6 1.5 3.8 3.8 0 0 1 -.9 2.5 6.9 6.9 0 0 1 -2.4 1.8 17.1 17.1 0 0 0 -2.2.9c-.1.3 0 .4 0 .7a2.3 2.3 0 0 0 .9 1.1 2.6 2.6 0 0 0 1.6.5 5.5 5.5 0 0 0 3.6-2c.4-.4.6-1.1 1.4-2.1s.1-.2.4-.2a.4.4 0 0 1 .4.4zm-4.5-4.3a3.4 3.4 0 0 0 -2.2 1.2 4.3 4.3 0 0 0 -1.3 2.6c0 .1-.2.4 0 .4a7.8 7.8 0 0 0 2.4-1.3 4.2 4.2 0 0 0 1.6-2.2.1.1 0 0 0 .1-.1.9.9 0 0 0 -.6-.6z" fill="#fff"/><g fill="#d1d3d4"><path d="m21.4 47.3h-.8v-5.1l-.8.6-.8.4v-.8l1.1-.8a1.3 1.3 0 0 0 .7-.8h.6z"/><path d="m27.5 46.5v.8h-4.2a1.3 1.3 0 0 1 .1-.6 2.2 2.2 0 0 1 .5-.8l1-1a8.8 8.8 0 0 0 1.4-1.4 1.2 1.2 0 0 0 .4-.9 1 1 0 0 0 -.3-.8 1.3 1.3 0 0 0 -2.2.9h-.8a1.9 1.9 0 0 1 .7-1.4 1.6 1.6 0 0 1 1.4-.5 2.5 2.5 0 0 1 1.5.5 1.9 1.9 0 0 1 .5 1.3 1.7 1.7 0 0 1 -.1.7 2.1 2.1 0 0 1 -.6.8 6.6 6.6 0 0 1 -1.2 1.2c-.5.4-.8.6-.9.8l-.3.4z"/><path d="m28.4 44.1a9.2 9.2 0 0 1 .2-1.9 2.6 2.6 0 0 1 .7-1 1.6 1.6 0 0 1 1.2-.4l.9.2a.9.9 0 0 1 .6.6 3 3 0 0 1 .4 1 4.9 4.9 0 0 1 .2 1.5 9 9 0 0 1 -.2 1.8 3 3 0 0 1 -.7 1.1 2.5 2.5 0 0 1 -1.2.4 2.1 2.1 0 0 1 -1.5-.7 4.3 4.3 0 0 1 -.6-2.6zm.8 0a3.7 3.7 0 0 0 .4 2.1 1.1 1.1 0 0 0 .9.5 1.2 1.2 0 0 0 .9-.5 4.8 4.8 0 0 0 .4-2.1 4.2 4.2 0 0 0 -.4-2.1 1.1 1.1 0 0 0 -.9-.6 1.1 1.1 0 0 0 -.9.5 3.9 3.9 0 0 0 -.4 2.2z"/><path d="m33.4 44.1a9.2 9.2 0 0 1 .2-1.9 2.6 2.6 0 0 1 .7-1 1.6 1.6 0 0 1 1.2-.4l.9.2a.9.9 0 0 1 .6.6 3 3 0 0 1 .4 1 4.9 4.9 0 0 1 .2 1.5 9 9 0 0 1 -.2 1.8 3 3 0 0 1 -.7 1.1 2 2 0 0 1 -2.7-.3 4.3 4.3 0 0 1 -.6-2.6zm.8 0a3.7 3.7 0 0 0 .4 2.1 1.1 1.1 0 0 0 1.8 0 3.7 3.7 0 0 0 .4-2.1c0-1.1-.1-1.8-.4-2.1a1 1 0 0 0 -.9-.6 1.1 1.1 0 0 0 -.9.5 3.9 3.9 0 0 0 -.4 2.2z"/><path d="m38.8 47.3v-.9h.9v.9a1.1 1.1 0 0 1 -.2.8 1 1 0 0 1 -.5.4l-.2-.3c.1-.1.3-.2.3-.3a1.4 1.4 0 0 0 .2-.6z"/><path d="m43.4 45.2h.8l.3.8a1.5 1.5 0 0 0 .6.5l1 .2h.9l.6-.4a1.3 1.3 0 0 0 .1-.6.7.7 0 0 0 -.1-.5l-.6-.4-1.2-.3-1.2-.4a2.2 2.2 0 0 1 -.7-.6 1.2 1.2 0 0 1 -.2-.8 2.9 2.9 0 0 1 .2-.9 2.2 2.2 0 0 1 .9-.7l1.1-.2 1.3.2a1.9 1.9 0 0 1 .8.7 4.2 4.2 0 0 1 .4 1h-.9a1 1 0 0 0 -.4-.9 1.8 1.8 0 0 0 -1.1-.3l-1.2.2a1 1 0 0 0 -.1 1.3l1.3.5a3.9 3.9 0 0 1 1.5.4 2.4 2.4 0 0 1 .8.6 1.6 1.6 0 0 1 .3.9 1.7 1.7 0 0 1 -.3 1 2.2 2.2 0 0 1 -.9.7 2.7 2.7 0 0 1 -1.2.3 3.3 3.3 0 0 1 -1.5-.3 1.8 1.8 0 0 1 -.9-.8 2.1 2.1 0 0 1 -.4-1.2z"/><path d="m52.7 46.7-.9.5-.9.2a1.6 1.6 0 0 1 -1.1-.4 1.3 1.3 0 0 1 -.4-1 1.3 1.3 0 0 1 .1-.6l.4-.5.6-.2h.7l1.4-.3v-.2a1.2 1.2 0 0 0 -.2-.7 1.2 1.2 0 0 0 -.9-.3 1.3 1.3 0 0 0 -.8.2 1 1 0 0 0 -.4.7h-.8l.3-.8.7-.5h2.1a1 1 0 0 1 .5.4l.3.5v3.2c.1.2.1.4.2.6h-.8a1.3 1.3 0 0 1 -.1-.8zm-.1-1.8-1.3.3-.7.2-.3.2a.6.6 0 0 0 -.1.4.8.8 0 0 0 .2.5.8.8 0 0 0 .7.2 1.1 1.1 0 0 0 .8-.2 1 1 0 0 0 .6-.5 1.7 1.7 0 0 0 .1-.8z"/><path d="m54.6 41.7v-.9h.8v.9zm0 5.6v-4.7h.8v4.7z"/><path d="m56.6 47.3v-4.7h.7v.7a1.7 1.7 0 0 1 1.5-.8h.8l.5.4.3.6v3.7h-.8v-2.8a1.5 1.5 0 0 0 -.1-.7c0-.2-.1-.3-.3-.4h-.5a1.2 1.2 0 0 0 -.9.3c-.3.2-.4.6-.4 1.2v2.6z"/><path d="m63.4 46.5v.7h-1.2c-.2-.1-.3-.2-.3-.4s-.1-.4-.1-.9v-2.7h-.6v-.6h.6v-1.2l.8-.4v1.6h.8v.6h-.8v3.2h.8z"/><path d="m63.8 45.3v-.8h2.5v.8z"/><path d="m67.2 47.3v-6.5h.8v5.7h3.2v.8z"/><path d="m75.2 46.7-.9.5-.8.2a1.9 1.9 0 0 1 -1.2-.4 1.3 1.3 0 0 1 -.4-1 1.3 1.3 0 0 1 .1-.6l.4-.5.6-.2h.7l1.4-.3v-.2a1.2 1.2 0 0 0 -.2-.7 1.2 1.2 0 0 0 -.9-.3 1.3 1.3 0 0 0 -.8.2 1.6 1.6 0 0 0 -.4.7h-.8l.3-.8.7-.5h2.1a1 1 0 0 1 .5.4l.3.5v1.8a4.5 4.5 0 0 0 .1 1.4 1.4 1.4 0 0 0 .2.6h-.9c0-.4-.1-.6-.1-.8zm-.1-1.8-1.3.3-.7.2-.3.2a.6.6 0 0 0 -.1.4.8.8 0 0 0 .2.5.8.8 0 0 0 .7.2 1.3 1.3 0 0 0 .9-.2 1.2 1.2 0 0 0 .5-.5 1.7 1.7 0 0 0 .1-.8z"/><path d="m80.2 47.3v-.7a1.9 1.9 0 0 1 -1.5.8l-.8-.2a1 1 0 0 1 -.5-.4 1.1 1.1 0 0 1 -.2-.6c-.1-.1-.1-.4-.1-.7v-2.9h.8v2.6c0 .4 0 .7.1.8a.5.5 0 0 0 .3.5.8.8 0 0 0 .6.2l.6-.2a1.2 1.2 0 0 0 .5-.5 2.2 2.2 0 0 0 .1-.9v-2.5h.8v4.7z"/><path d="m82.1 47.3v-4.7h.7v.7l.5-.7h.6l.8.2-.3.8-.6-.2a.5.5 0 0 0 -.4.2c-.2.1-.3.2-.3.4a2.9 2.9 0 0 0 -.2.9v2.5z"/><path d="m88.3 45.8h.9a2.8 2.8 0 0 1 -.8 1.1 2.5 2.5 0 0 1 -1.3.4 1.9 1.9 0 0 1 -1.6-.7 2.4 2.4 0 0 1 -.6-1.7 2.9 2.9 0 0 1 .6-1.9 2.1 2.1 0 0 1 1.6-.6 2 2 0 0 1 1.5.6 2.4 2.4 0 0 1 .6 1.8v.2h-3.5a2.1 2.1 0 0 0 .4 1.2 1.3 1.3 0 0 0 1 .4l.7-.2a1.2 1.2 0 0 0 .5-.6zm-2.6-1.3h2.6a1.2 1.2 0 0 0 -.3-.9 1.1 1.1 0 0 0 -.9-.5 1.8 1.8 0 0 0 -1 .4 2.3 2.3 0 0 0 -.4 1z"/><path d="m90.1 47.3v-4.7h.8v.7a1.4 1.4 0 0 1 1.4-.8h.8a1.1 1.1 0 0 1 .5.4c.2.2.2.4.3.6v3.7h-.8v-3.5a.8.8 0 0 0 -.4-.4h-.5a1.2 1.2 0 0 0 -.9.3 1.7 1.7 0 0 0 -.4 1.2v2.6z"/><path d="m96.9 46.5v.7h-1.2l-.3-.4c-.1-.1-.1-.4-.1-.9v-2.7h-.6v-.6h.6v-1.2l.8-.4v1.6h.8v.6h-.8v3.2h.2c0 .1.1.1.2.1z"/><path d="m100.9 47.3h-.8v-6.5h.8v2.3a1.8 1.8 0 0 1 1.3-.6 1.1 1.1 0 0 1 .8.2l.7.4c.1.3.3.5.4.8s.1.6.1 1a2.4 2.4 0 0 1 -.6 1.8 2.1 2.1 0 0 1 -1.4.7 1.6 1.6 0 0 1 -1.3-.7zm0-2.4c0 .5 0 1 .2 1.2a1.1 1.1 0 0 0 1 .6 1 1 0 0 0 .9-.4 2 2 0 0 0 .4-1.4 1.7 1.7 0 0 0 -.4-1.3 1.1 1.1 0 0 0 -.9-.5 1.4 1.4 0 0 0 -.9.5 2.3 2.3 0 0 0 -.3 1.3z"/><path d="m105.1 47.3v-6.5h.8v6.5z"/><path d="m108.5 47.3-1.8-4.7h.8l1 2.8.3.9a4.6 4.6 0 0 0 .3-.9l1-2.8h.9l-1.8 4.7z"/><path d="m114.7 47.3v-.6a1.6 1.6 0 0 1 -1.3.7 1.7 1.7 0 0 1 -1-.3 2.3 2.3 0 0 1 -.8-.9 5.1 5.1 0 0 1 -.2-1.3 2.3 2.3 0 0 1 .2-1.2 2.2 2.2 0 0 1 .7-.9 1.9 1.9 0 0 1 1-.3 1.1 1.1 0 0 1 .8.2 1 1 0 0 1 .5.4v-2.3h.8v6.5zm-2.5-2.4a2 2 0 0 0 .4 1.4 1 1 0 0 0 .9.4.9.9 0 0 0 .8-.4 1.7 1.7 0 0 0 .4-1.3 2 2 0 0 0 -.4-1.4 1.1 1.1 0 0 0 -.9-.5 1.4 1.4 0 0 0 -.9.5 2.3 2.3 0 0 0 -.3 1.3z"/><path d="m116.9 47.3v-.9h.9v.9z"/><path d="m20.1 60a9.5 9.5 0 0 1 -1.1-2 5.9 5.9 0 0 1 -.5-2.3 7.1 7.1 0 0 1 .4-2 8 8 0 0 1 1.2-2.2h.6a5.7 5.7 0 0 0 -.7 1.3 5 5 0 0 0 -.5 1.3 8.6 8.6 0 0 0 -.1 1.6 8.2 8.2 0 0 0 1.3 4.3z"/><path d="m21.4 54.9a3.3 3.3 0 0 1 .9-2.5 3.2 3.2 0 0 1 3.8-.5 2.5 2.5 0 0 1 1.1 1.2 3.3 3.3 0 0 1 .4 1.7 3.4 3.4 0 0 1 -.4 1.8 3.2 3.2 0 0 1 -1.1 1.2 4.2 4.2 0 0 1 -1.6.4 3 3 0 0 1 -1.6-.5 2.5 2.5 0 0 1 -1.1-1.2 4.2 4.2 0 0 1 -.4-1.6zm.9 0a2.9 2.9 0 0 0 .6 1.9 2.5 2.5 0 0 0 1.6.6 2.3 2.3 0 0 0 1.6-.6 3 3 0 0 0 .6-2 2.8 2.8 0 0 0 -.3-1.3 1.6 1.6 0 0 0 -.7-.9 1.9 1.9 0 0 0 -1.2-.4 1.8 1.8 0 0 0 -1.5.7 2.4 2.4 0 0 0 -.7 2z"/><path d="m28.6 58.1v-4.7h.7v.7a1.5 1.5 0 0 1 1.5-.8h.8l.5.4a1.4 1.4 0 0 1 .2.6 1.7 1.7 0 0 1 .1.8v2.9h-.8v-2.8a1.5 1.5 0 0 0 -.1-.7l-.3-.4h-.6a1.6 1.6 0 0 0 -.9.3 1.7 1.7 0 0 0 -.3 1.2v2.6z"/><path d="m35.3 57.3v.7h-1.1a.8.8 0 0 1 -.4-.4 5.5 5.5 0 0 1 -.1-.9v-2.7h-.5v-.6h.5v-1.2l.8-.4v1.6h.8v.6h-.8v2.7c0 .3 0 .4.1.5h.7z"/><path d="m39.1 57.5-.8.5-.9.2a2.1 2.1 0 0 1 -1.2-.4 1.8 1.8 0 0 1 -.4-1 1.4 1.4 0 0 1 .2-.6l.4-.5.6-.2h.7l1.4-.3v-.2a1.2 1.2 0 0 0 -.2-.7 1.2 1.2 0 0 0 -.9-.3l-.9.2a4.3 4.3 0 0 0 -.4.7h-.7a1.1 1.1 0 0 1 .3-.8l.7-.5h2a.9.9 0 0 1 .6.4.8.8 0 0 1 .2.5 1.5 1.5 0 0 1 .1.7v2.5c.1.2.1.4.2.6h-.8c-.1-.4-.1-.6-.2-.8zm0-1.8-1.3.3-.7.2-.3.2a.6.6 0 0 0 -.1.4.8.8 0 0 0 .2.5.8.8 0 0 0 .7.2 1.1 1.1 0 0 0 .8-.2.8.8 0 0 0 .5-.5 1.5 1.5 0 0 0 .2-.8z"/><path d="m41.1 58.1v-4.7h.7v.7l.5-.7h.5l.8.2-.2.8-.6-.2-.5.2-.3.4a2.8 2.8 0 0 0 -.1.9v2.5z"/><path d="m44.1 52.5v-.9h.8v.9zm0 5.6v-4.7h.8v4.7z"/><path d="m45.8 55.7a2.4 2.4 0 0 1 .7-1.9 2.5 2.5 0 0 1 1.5-.5 2.3 2.3 0 0 1 1.6.6 2.4 2.4 0 0 1 .6 1.8 2.9 2.9 0 0 1 -.3 1.4 2 2 0 0 1 -.8.8 2 2 0 0 1 -1.1.3 1.9 1.9 0 0 1 -1.6-.7 2.4 2.4 0 0 1 -.6-1.8zm.8 0a2 2 0 0 0 .4 1.4 1.4 1.4 0 0 0 2 0 2.6 2.6 0 0 0 .4-1.4 2.2 2.2 0 0 0 -.4-1.3 1.3 1.3 0 0 0 -2 0 1.7 1.7 0 0 0 -.4 1.3z"/><path d="m51.6 60h-.5a9.2 9.2 0 0 0 1.3-4.3 8.8 8.8 0 0 0 -.2-1.6c-.1-.5-.3-.9-.4-1.3a6.9 6.9 0 0 1 -.7-1.3h.5a6 6 0 0 1 1.2 2.2 4.8 4.8 0 0 1 .4 2 5.9 5.9 0 0 1 -.5 2.3 6.4 6.4 0 0 1 -1.1 2z"/><path d="m56.7 58.1v-6.5h.8v3.2l3.2-3.2h1.2l-2.7 2.6 2.8 3.9h-1.1l-2.3-3.3-1.1 1v2.3z"/><path d="m65.4 58.1h-.8v-5.1l-.8.6-.8.4v-.8l1.2-.8a2.7 2.7 0 0 0 .7-.8h.5z"/><path d="m67.7 58.1v-6.5h.8v3.2l3.2-3.2h1.2l-2.7 2.6 2.8 3.9h-1.1l-2.3-3.3-1.1 1v2.3z"/><path d="m75.9 56.4.8-.2c.1.5.2.8.5 1a.9.9 0 0 0 .7.3 1.3 1.3 0 0 0 1-.4 1.3 1.3 0 0 0 .4-.9 1.4 1.4 0 0 0 -1.3-1.3h-.5v-.7h.2l.9-.2a1 1 0 0 0 .4-.9 1.1 1.1 0 0 0 -.3-.7 1.1 1.1 0 0 0 -.8-.3.9.9 0 0 0 -.7.3 1.3 1.3 0 0 0 -.4.9h-.8a2.3 2.3 0 0 1 .6-1.3 2 2 0 0 1 1.3-.4l1 .2.7.6a2.9 2.9 0 0 1 .2.9 1.9 1.9 0 0 1 -.2.7 2 2 0 0 1 -.7.6 1.3 1.3 0 0 1 .9.5 1.8 1.8 0 0 1 .3 1.1 2 2 0 0 1 -.6 1.4 2.1 2.1 0 0 1 -1.6.6 2.4 2.4 0 0 1 -1.4-.5 3.1 3.1 0 0 1 -.6-1.3z"/><path d="m81.2 58.1v-6.5h2.4l1.2.2a1.3 1.3 0 0 1 .7.6 1.5 1.5 0 0 1 .2.9 1 1 0 0 1 -.2.7 1.1 1.1 0 0 1 -.7.6 1.5 1.5 0 0 1 .9.6 1.7 1.7 0 0 1 .3 1 1.9 1.9 0 0 1 -.1.8c-.2.3-.3.5-.5.6a.9.9 0 0 1 -.7.3l-1.1.2zm.8-3.8h2.2a.5.5 0 0 0 .5-.3.8.8 0 0 0 .2-.5 1.1 1.1 0 0 0 -.2-.6c-.1-.2-.2-.3-.4-.3h-2.3zm0 3h2.2l.5-.2c.1-.1.3-.2.3-.4a.8.8 0 0 0 .2-.5.8.8 0 0 0 -.2-.6 1 1 0 0 0 -.5-.4h-2.5z"/><path d="m88.1 54.6c-.3-.2-.6-.3-.7-.6s-.2-.4-.2-.8a1.3 1.3 0 0 1 .5-1.1 1.4 1.4 0 0 1 1.3-.5 2.2 2.2 0 0 1 1.4.5 1.7 1.7 0 0 1 .5 1.2 1.3 1.3 0 0 1 -.3.8c-.1.2-.4.3-.7.5a1.5 1.5 0 0 1 .9.6 1.7 1.7 0 0 1 .3 1 2.2 2.2 0 0 1 -.5 1.4 2.1 2.1 0 0 1 -1.6.6 2 2 0 0 1 -1.5-.6 1.8 1.8 0 0 1 -.6-1.4 2 2 0 0 1 .3-1.1 1.9 1.9 0 0 1 .9-.5zm-.4 1.6a2.5 2.5 0 0 0 .2.7.8.8 0 0 0 .4.4 1.1 1.1 0 0 0 .7.2 1.1 1.1 0 0 0 1.3-1.3 1.3 1.3 0 0 0 -2.6 0zm.3-3a1.1 1.1 0 0 0 .3.8.9.9 0 0 0 .7.3 1.1 1.1 0 0 0 .8-.3 1.1 1.1 0 0 0 .3-.7 1 1 0 0 0 -1.1-1.1.9.9 0 0 0 -.7.3 1.1 1.1 0 0 0 -.3.7z"/><path d="m22.5 74.8h-.8a1.5 1.5 0 0 0 -.3-.7 1.2 1.2 0 0 0 -.8-.4l-.7.2-.6.8a6.1 6.1 0 0 0 -.2 1.5 1.3 1.3 0 0 1 .7-.6 1.5 1.5 0 0 1 .9-.2 1.6 1.6 0 0 1 1.3.6 1.8 1.8 0 0 1 .6 1.5 2.3 2.3 0 0 1 -.3 1.1 1.8 1.8 0 0 1 -.7.8 1.7 1.7 0 0 1 -1 .3 1.9 1.9 0 0 1 -1.6-.7 3 3 0 0 1 -.7-2.4 4.8 4.8 0 0 1 .7-2.7 2 2 0 0 1 1.6-.7 1.7 1.7 0 0 1 1.3.4 2.3 2.3 0 0 1 .6 1.2zm-3.3 2.8a3.1 3.1 0 0 0 .2.8l.5.5a.8.8 0 0 0 .7.2.9.9 0 0 0 .8-.4 1.4 1.4 0 0 0 .4-1.1 1.2 1.2 0 0 0 -.4-1 1 1 0 0 0 -.9-.4 1.2 1.2 0 0 0 -.9.4 1.5 1.5 0 0 0 -.4 1z"/><path d="m26.4 79.7h-.8v-5.1l-.8.6-.8.4v-.8l1.1-.8a1.3 1.3 0 0 0 .7-.8h.6z"/><path d="m28.4 78h.8a1.9 1.9 0 0 0 .4.9 1.3 1.3 0 0 0 .8.3 1.3 1.3 0 0 0 1-.4 1.2 1.2 0 0 0 0-1.8 1 1 0 0 0 -.9-.4h-.6v-.7h.2l.9-.2a1.3 1.3 0 0 0 .4-.9 1.1 1.1 0 0 0 -.3-.7 1.1 1.1 0 0 0 -.8-.3.9.9 0 0 0 -.7.3 1 1 0 0 0 -.4.9h-.8a2.3 2.3 0 0 1 .6-1.3 2 2 0 0 1 1.3-.4l1 .2.7.6a2.9 2.9 0 0 1 .2.9 1.9 1.9 0 0 1 -.2.7 2 2 0 0 1 -.7.6 1.3 1.3 0 0 1 .9.5 1.8 1.8 0 0 1 .3 1.1 2 2 0 0 1 -.6 1.4 2.1 2.1 0 0 1 -1.6.6 2.4 2.4 0 0 1 -1.4-.5 2.2 2.2 0 0 1 -.5-1.4z"/><path d="m33.3 77.7v-.8h2.4v.8z"/><path d="m40.5 78.9v.8h-4.2a1.3 1.3 0 0 1 .1-.6 2.2 2.2 0 0 1 .5-.8l1-1 1.5-1.4a1.6 1.6 0 0 0 .3-.9 1 1 0 0 0 -.3-.8 1.2 1.2 0 0 0 -1.8 0 1.9 1.9 0 0 0 -.4.9h-.8a1.9 1.9 0 0 1 .7-1.4 1.6 1.6 0 0 1 1.4-.5 2.5 2.5 0 0 1 1.5.5 1.5 1.5 0 0 1 .5 1.3 1.7 1.7 0 0 1 -.1.7 3.5 3.5 0 0 1 -.5.8l-1.3 1.2-.9.8-.3.4z"/><path d="m41.4 78h.8a1.3 1.3 0 0 0 .5.9.9.9 0 0 0 .7.3 1.3 1.3 0 0 0 1-.4 1.3 1.3 0 0 0 .4-.9 1.4 1.4 0 0 0 -1.3-1.3h-.5v-.7h.2l.9-.2a1 1 0 0 0 .4-.9 1.1 1.1 0 0 0 -.3-.7 1.1 1.1 0 0 0 -.8-.3.9.9 0 0 0 -.7.3 1.3 1.3 0 0 0 -.4.9h-.8a2.3 2.3 0 0 1 .6-1.3 2 2 0 0 1 1.3-.4l1 .2.7.6a2.9 2.9 0 0 1 .2.9 1.9 1.9 0 0 1 -.2.7 2 2 0 0 1 -.7.6 1.3 1.3 0 0 1 .9.5 1.8 1.8 0 0 1 .3 1.1 2 2 0 0 1 -.6 1.4 2.1 2.1 0 0 1 -1.6.6 2.4 2.4 0 0 1 -1.4-.5 2.2 2.2 0 0 1 -.6-1.4z"/><path d="m47.6 76.2c-.3-.2-.6-.3-.7-.6a1 1 0 0 1 -.3-.8 1.4 1.4 0 0 1 .6-1.1 1.4 1.4 0 0 1 1.3-.5 2.2 2.2 0 0 1 1.4.5 1.7 1.7 0 0 1 .5 1.2 1.3 1.3 0 0 1 -.3.8c-.1.2-.4.3-.7.5a1.5 1.5 0 0 1 .9.6 1.7 1.7 0 0 1 .3 1 1.8 1.8 0 0 1 -.6 1.4 1.9 1.9 0 0 1 -1.5.6 2 2 0 0 1 -1.5-.6 1.8 1.8 0 0 1 -.6-1.4 2 2 0 0 1 .3-1.1 1.9 1.9 0 0 1 .9-.5zm-.4 1.6a2.5 2.5 0 0 0 .2.7l.4.4a1 1 0 0 0 .7.2 1.1 1.1 0 0 0 1.3-1.3 1.3 1.3 0 0 0 -2.2-.9 1 1 0 0 0 -.4.9zm.3-3a1.1 1.1 0 0 0 .3.8.8.8 0 0 0 .7.3 1.1 1.1 0 0 0 .8-.3 1.1 1.1 0 0 0 .3-.7 1 1 0 0 0 -1.1-1.1.9.9 0 0 0 -.7.3 1.1 1.1 0 0 0 -.3.7z"/><path d="m51.3 77.7v-.8h2.4v.8z"/><path d="m54.4 78h.8a1.3 1.3 0 0 0 .5.9 1 1 0 0 0 .8.3 1.2 1.2 0 0 0 .9-.4 1.3 1.3 0 0 0 -.9-2.2h-.5v-.7h.1l.9-.2a1 1 0 0 0 .4-.9 1.1 1.1 0 0 0 -.3-.7 1.1 1.1 0 0 0 -.8-.3.9.9 0 0 0 -.7.3 1.3 1.3 0 0 0 -.4.9h-.8a2.3 2.3 0 0 1 .6-1.3 2 2 0 0 1 1.3-.4l1 .2.7.6a2.9 2.9 0 0 1 .2.9 1.9 1.9 0 0 1 -.2.7 2 2 0 0 1 -.7.6 1.3 1.3 0 0 1 .9.5 1.8 1.8 0 0 1 .3 1.1 2 2 0 0 1 -.6 1.4 2 2 0 0 1 -1.5.6 2.5 2.5 0 0 1 -1.5-.5 3.1 3.1 0 0 1 -.5-1.4z"/><path d="m59.4 78h.8a1.3 1.3 0 0 0 .5.9 1 1 0 0 0 .8.3 1.2 1.2 0 0 0 .9-.4 1.3 1.3 0 0 0 -.9-2.2h-.5v-.7h.1l.9-.2a1 1 0 0 0 .4-.9 1.1 1.1 0 0 0 -.3-.7 1 1 0 0 0 -.8-.3.9.9 0 0 0 -.7.3 1.3 1.3 0 0 0 -.4.9h-.8a2.3 2.3 0 0 1 .6-1.3 2 2 0 0 1 1.3-.4l1 .2.7.6a2.9 2.9 0 0 1 .2.9 1.9 1.9 0 0 1 -.2.7 2 2 0 0 1 -.7.6 1.3 1.3 0 0 1 .9.5 1.8 1.8 0 0 1 .3 1.1 2 2 0 0 1 -.6 1.4 2 2 0 0 1 -1.5.6 2.5 2.5 0 0 1 -1.5-.5 3.1 3.1 0 0 1 -.5-1.4z"/><path d="m64.4 76.5a9.2 9.2 0 0 1 .2-1.9 2.6 2.6 0 0 1 .7-1 1.7 1.7 0 0 1 1.2-.4l.9.2a1.3 1.3 0 0 1 .7.6 10.4 10.4 0 0 1 .4 1 5.8 5.8 0 0 1 .1 1.5 9 9 0 0 1 -.2 1.8 3 3 0 0 1 -.7 1.1 2 2 0 0 1 -2.7-.3 4.3 4.3 0 0 1 -.6-2.6zm.8 0a3.7 3.7 0 0 0 .4 2.1 1.1 1.1 0 0 0 1.8 0 3.7 3.7 0 0 0 .4-2.1c0-1.1-.1-1.8-.4-2.1a1 1 0 0 0 -.9-.6 1.1 1.1 0 0 0 -.9.5 5 5 0 0 0 -.4 2.2z"/><path d="m69.4 78h.8a1.9 1.9 0 0 0 .5.9 1.1 1.1 0 0 0 .8.3 1.1 1.1 0 0 0 .9-.4 1.3 1.3 0 0 0 -.9-2.2h-.5v-.7h.1l.9-.2a1 1 0 0 0 .4-.9 1.1 1.1 0 0 0 -.3-.7.9.9 0 0 0 -.7-.3 1 1 0 0 0 -.8.3 1.9 1.9 0 0 0 -.4.9h-.8a1.9 1.9 0 0 1 .7-1.3 1.6 1.6 0 0 1 1.2-.4l1 .2.7.6a2.9 2.9 0 0 1 .2.9 1.9 1.9 0 0 1 -.2.7 2 2 0 0 1 -.7.6 1.3 1.3 0 0 1 .9.5 1.8 1.8 0 0 1 .3 1.1 2 2 0 0 1 -.6 1.4 2 2 0 0 1 -1.5.6 2 2 0 0 1 -1.4-.5 2.4 2.4 0 0 1 -.6-1.4z"/><path d="m19.5 101.3-1.5-4.7h.8l.8 2.7.3 1c0-.1.1-.4.2-1l.7-2.7h.9l.7 2.7.2.9.3-.9.8-2.7h.7l-1.4 4.7h-.9l-.7-2.8-.2-.8-.9 3.6z"/><path d="m26 101.3-1.5-4.7h.8l.8 2.7.3 1c0-.1.1-.4.2-1l.7-2.7h.9l.7 2.7.2.9.3-.9.8-2.7h.7l-1.4 4.7h-.9l-.7-2.8-.2-.8-.9 3.6z"/><path d="m32.5 101.3-1.5-4.7h.8l.8 2.7.3 1c0-.1.1-.4.2-1l.7-2.7h.9l.7 2.7.2.9.3-.9.8-2.7h.7l-1.4 4.7h-.9l-.7-2.8-.2-.8-.9 3.6z"/><path d="m37.8 101.3v-.9h.9v.9z"/><path d="m43.1 100.7-.8.5-.9.2a2.1 2.1 0 0 1 -1.2-.4 1.8 1.8 0 0 1 -.4-1 1.4 1.4 0 0 1 .2-.6l.4-.5.6-.2h.7l1.4-.3v-.2a1.2 1.2 0 0 0 -.2-.7 1.2 1.2 0 0 0 -.9-.3l-.9.2a4.3 4.3 0 0 0 -.4.7h-.7a1.1 1.1 0 0 1 .3-.8l.7-.5h2a.9.9 0 0 1 .6.4.8.8 0 0 1 .2.5 1.5 1.5 0 0 1 .1.7v2.5l.2.6h-.8c-.1-.4-.1-.6-.2-.8zm0-1.8-1.3.3-.7.2-.3.2a.6.6 0 0 0 -.1.4.8.8 0 0 0 .2.5.8.8 0 0 0 .7.2 1.1 1.1 0 0 0 .8-.2.8.8 0 0 0 .5-.5 1.5 1.5 0 0 0 .2-.8z"/><path d="m46.4 101.3-1.8-4.7h.9l1 2.8.3.9a2.3 2.3 0 0 1 .3-.9l1-2.8h.8l-1.8 4.7z"/><path d="m52.6 100.7-.8.5-.9.2a2.1 2.1 0 0 1 -1.2-.4 1.8 1.8 0 0 1 -.4-1 1.4 1.4 0 0 1 .2-.6l.4-.5.6-.2h.7l1.4-.3v-.2a1.2 1.2 0 0 0 -.2-.7 1.2 1.2 0 0 0 -.9-.3l-.9.2a4.3 4.3 0 0 0 -.4.7h-.7a1.9 1.9 0 0 1 .3-.8l.7-.5h2a.9.9 0 0 1 .6.4.8.8 0 0 1 .2.5 1.5 1.5 0 0 1 .1.7v2.5l.2.6h-.8c-.1-.4-.1-.6-.2-.8zm0-1.8-1.3.3-.7.2-.3.2a.6.6 0 0 0 -.1.4.8.8 0 0 0 .2.5.8.8 0 0 0 .7.2 1.1 1.1 0 0 0 .8-.2c.3-.1.4-.3.6-.5s.1-.4.1-.8z"/><path d="m54.6 101.3v-4.7h.7v.7a1.7 1.7 0 0 1 1.5-.8h.8l.5.4.3.6v3.7h-.8v-2.8a1.5 1.5 0 0 0 -.1-.7c0-.2-.2-.3-.3-.4h-.6a1.1 1.1 0 0 0 -.8.3c-.3.2-.4.6-.4 1.2v2.6z"/><path d="m61.3 100.5.2.7h-1.3c-.2-.1-.3-.2-.3-.4s-.1-.4-.1-.9v-2.7h-.6v-.6h.6v-1.2l.7-.4v1.6h.8v.6h-.8v2.7a2 2 0 0 0 .1.5h.7z"/><path d="m61.8 99.3v-.8h2.4v.8z"/><path d="m65 101.6.7.2.3.5.8.2.9-.2a2.1 2.1 0 0 0 .4-.6v-1.1a1.5 1.5 0 0 1 -1.3.7 2.1 2.1 0 0 1 -1.5-.7 3.4 3.4 0 0 1 -.5-1.7 4.3 4.3 0 0 1 .2-1.2 2.2 2.2 0 0 1 .7-.9 2.3 2.3 0 0 1 1.1-.3 1.6 1.6 0 0 1 1.4.7v-.6h.7v4a5.1 5.1 0 0 1 -.2 1.6l-.7.7a2.1 2.1 0 0 1 -1.2.3 2.5 2.5 0 0 1 -1.3-.4 1.3 1.3 0 0 1 -.5-1.2zm.6-2.8a1.8 1.8 0 0 0 .4 1.4 1.2 1.2 0 0 0 1.8 0 2.3 2.3 0 0 0 0-2.6 1.4 1.4 0 0 0 -.9-.5 1.1 1.1 0 0 0 -.9.5 1.6 1.6 0 0 0 -.4 1.2z"/><path d="m73.2 100.7-.9.5-.9.2a1.6 1.6 0 0 1 -1.1-.4 1.4 1.4 0 0 1 -.5-1 1.4 1.4 0 0 1 .2-.6l.4-.5.6-.2h.7l1.4-.3v-.2a1.2 1.2 0 0 0 -.2-.7 1.2 1.2 0 0 0 -.9-.3l-.9.2a1.5 1.5 0 0 0 -.3.7h-.8l.3-.8.7-.5h2.1a1 1 0 0 1 .5.4l.3.5v3.2l.2.6h-.8a1.3 1.3 0 0 1 -.1-.8zm-.1-1.8-1.3.3-.7.2-.3.2a.6.6 0 0 0 -.1.4.8.8 0 0 0 .2.5.8.8 0 0 0 .7.2 1.1 1.1 0 0 0 .8-.2 1 1 0 0 0 .6-.5 1.7 1.7 0 0 0 .1-.8z"/><path d="m75.1 101.3v-4.7h.7v.7l.5-.7h.5l.8.2-.2.8-.6-.2-.5.2-.3.4a2.8 2.8 0 0 0 -.1.9v2.5z"/><path d="m81.1 101.3v-.6a1.6 1.6 0 0 1 -1.3.7 1.9 1.9 0 0 1 -1-.3 3.1 3.1 0 0 1 -.7-.9 2.8 2.8 0 0 1 -.3-1.3 2.4 2.4 0 0 1 .3-1.2 1.6 1.6 0 0 1 .7-.9 1.7 1.7 0 0 1 1-.3 1.2 1.2 0 0 1 .8.2 1 1 0 0 1 .5.4v-2.3h.8v6.5zm-2.5-2.4a2.6 2.6 0 0 0 .4 1.4 1.2 1.2 0 0 0 .9.4 1 1 0 0 0 .9-.4 2.2 2.2 0 0 0 .4-1.3 2.6 2.6 0 0 0 -.4-1.4 1.4 1.4 0 0 0 -.9-.5 1.1 1.1 0 0 0 -.9.5 2.2 2.2 0 0 0 -.4 1.3z"/><path d="m86.3 99.8h.8a1.9 1.9 0 0 1 -.7 1.1 2.5 2.5 0 0 1 -1.3.4 1.9 1.9 0 0 1 -1.6-.7 2.4 2.4 0 0 1 -.6-1.7 2.9 2.9 0 0 1 .6-1.9 2 2 0 0 1 1.5-.6 2.1 2.1 0 0 1 1.6.6 2.4 2.4 0 0 1 .6 1.8v.2h-3.5a2.1 2.1 0 0 0 .4 1.2 1.3 1.3 0 0 0 1 .4l.7-.2a1.8 1.8 0 0 0 .5-.6zm-2.6-1.3h2.6a1.4 1.4 0 0 0 -1.3-1.4 1.8 1.8 0 0 0 -.9.4 1.5 1.5 0 0 0 -.4 1z"/><path d="m88.4 101.3v-.9h.9v.9z"/><path d="m93.7 99.5h.8a2.3 2.3 0 0 1 -.7 1.3 2.1 2.1 0 0 1 -1.3.5 1.8 1.8 0 0 1 -1.5-.7 2.4 2.4 0 0 1 -.6-1.8 5.1 5.1 0 0 1 .2-1.3 2 2 0 0 1 .8-.8 2.2 2.2 0 0 1 2.4.1 1.7 1.7 0 0 1 .6 1.1h-.8c-.1-.3-.2-.6-.4-.7a.9.9 0 0 0 -.7-.3 1.1 1.1 0 0 0 -.9.5c-.3.2-.4.7-.4 1.3a2 2 0 0 0 .4 1.4 1 1 0 0 0 .9.4 1.1 1.1 0 0 0 .8-.3 1.9 1.9 0 0 0 .4-.7z"/><path d="m98.2 100.7-.9.5-.8.2a1.7 1.7 0 0 1 -1.2-.4 1.3 1.3 0 0 1 -.4-1 1.3 1.3 0 0 1 .1-.6l.4-.5.6-.2h.7l1.4-.3v-.2a1.2 1.2 0 0 0 -.2-.7 1.2 1.2 0 0 0 -.9-.3 1.3 1.3 0 0 0 -.8.2 1.6 1.6 0 0 0 -.4.7h-.8l.3-.8.7-.5h2.1a1 1 0 0 1 .5.4l.3.5v1.8a4.5 4.5 0 0 0 .1 1.4 1.4 1.4 0 0 0 .2.6h-.9c0-.4-.1-.6-.1-.8zm-.1-1.8-1.3.3-.7.2-.3.2a.6.6 0 0 0 -.1.4.8.8 0 0 0 .2.5.8.8 0 0 0 .7.2 1.5 1.5 0 0 0 .9-.2 1.2 1.2 0 0 0 .5-.5 1.7 1.7 0 0 0 .1-.8z"/></g></svg>