<svg height="2190" viewBox="0 0 7750 2190" width="7750" xmlns="http://www.w3.org/2000/svg"><path d="m5 5h1920v1080h-1920z" fill="#fff" stroke="#000" stroke-miterlimit="10" stroke-width="10"/><path d="m1945 5h1920v1080h-1920z" fill="#fff" stroke="#000" stroke-miterlimit="10" stroke-width="10"/><path d="m3885 5h1920v1080h-1920z" fill="#fff" stroke="#000" stroke-miterlimit="10" stroke-width="10"/><path d="m5825 5h1920v1080h-1920z" fill="#fff" stroke="#000" stroke-miterlimit="10" stroke-width="10"/><path d="m2914.7 1105h1920v1080h-1920z" fill="#fff" stroke="#000" stroke-miterlimit="10" stroke-width="10"/><g transform="translate(5 5)"><path d="m3694.3 1525.4h-34.1a209.4 209.4 0 0 0 61.4 148.4l24.2-24.1a175.3 175.3 0 0 1 -51.5-124.3z" fill="#e31d93"/><path d="m3745.8 1649.7-24.2 24.1a209.3 209.3 0 0 0 148.4 61.5v-34.2a175 175 0 0 1 -124.2-51.4z" fill="#8331a7"/><path d="m3745.9 1401.1-24.2-24.2a209.3 209.3 0 0 0 -61.5 148.5h34.1a174.8 174.8 0 0 1 51.6-124.3z" fill="#00b2e3"/><path d="m3877.2 1715.1v34.1a209.3 209.3 0 0 0 148.5-61.5l-24.1-24.2a175.3 175.3 0 0 1 -124.4 51.6z" fill="#0033a1"/><path d="m4008.5 1394.9a175.7 175.7 0 0 1 51.4 124.3h34.2a209.1 209.1 0 0 0 -61.5-148.4z" fill="#fed925"/><path d="m3870 1349.7v-34.1a209.3 209.3 0 0 0 -148.3 61.3l24.2 24.2a175 175 0 0 1 124.1-51.4z" fill="#f32735"/><path d="m4008.6 1656.7 24.1 24.2a209.4 209.4 0 0 0 61.4-148.3h-34.2a175.1 175.1 0 0 1 -51.3 124.1z" fill="#009d4f"/><path d="m4001.4 1386.8 24.2-24.2a209 209 0 0 0 -148.4-61.4v34.1a175.1 175.1 0 0 1 124.2 51.5z" fill="#ff6b00"/><path d="m3727.8 1525.4h-33.5a175.3 175.3 0 0 0 51.5 124.3l23.6-23.7a141.9 141.9 0 0 1 -41.6-100.6z" fill="#e9459d"/><path d="m3769.4 1626-23.6 23.7a175 175 0 0 0 124.2 51.4v-33.4a141.7 141.7 0 0 1 -100.6-41.7z" fill="#9048b0"/><path d="m3769.5 1424.7-23.6-23.6a174.8 174.8 0 0 0 -51.6 124.3h33.5a141.9 141.9 0 0 1 41.7-100.7z" fill="#00bae6"/><path d="m3873.2 1673.4v33.4a175.1 175.1 0 0 0 124.4-51.6l-23.7-23.6a141.7 141.7 0 0 1 -100.7 41.8z" fill="#04a"/><path d="m4018.2 1523.2h33.4a175.3 175.3 0 0 0 -51.4-124.3l-23.7 23.7a141.5 141.5 0 0 1 41.7 100.6z" fill="#ffdc47"/><path d="m3870 1383.2v-33.5a175 175 0 0 0 -124.1 51.4l23.6 23.6a141.9 141.9 0 0 1 100.5-41.5z" fill="#f84a47"/><path d="m3976.6 1629.1 23.7 23.6a174.9 174.9 0 0 0 51.3-124.1h-33.4a141.8 141.8 0 0 1 -41.6 100.5z" fill="#00a760"/><path d="m3873.2 1377a141.9 141.9 0 0 1 100.6 41.7l23.7-23.7a175.7 175.7 0 0 0 -124.3-51.4z" fill="#ff7c00"/><path d="m3764.6 1525.4h-36.8a141.9 141.9 0 0 0 41.6 100.6l26.1-26a105.2 105.2 0 0 1 -30.9-74.6z" fill="#ed5fa7"/><path d="m3795.5 1600-26.1 26a141.7 141.7 0 0 0 100.6 41.7v-36.9a105.3 105.3 0 0 1 -74.5-30.8z" fill="#9d5cb8"/><path d="m3795.6 1450.8-26.1-26.1a141.9 141.9 0 0 0 -41.7 100.7h36.8a104.9 104.9 0 0 1 31-74.6z" fill="#38c2e8"/><path d="m3870 1630.8v36.9a141.7 141.7 0 0 0 100.7-41.8l-26-26a105.3 105.3 0 0 1 -74.7 30.9z" fill="#3956b4"/><path d="m3975.4 1525.4h36.9a141.7 141.7 0 0 0 -41.7-100.6l-26 26.1a105.3 105.3 0 0 1 30.8 74.5z" fill="#ffe05f"/><path d="m3795.6 1450.8a105.2 105.2 0 0 1 74.4-30.8v-36.8a141.9 141.9 0 0 0 -100.5 41.5z" fill="#fc6359"/><path d="m3944.7 1599.9 26 26a141.8 141.8 0 0 0 41.6-100.5h-36.9a105.2 105.2 0 0 1 -30.7 74.5z" fill="#0bb270"/><path d="m3944.6 1450.9 26-26.1a141.9 141.9 0 0 0 -100.6-41.6v36.8a105.2 105.2 0 0 1 74.6 30.9z" fill="#ff8c1c"/><path d="m3660 1979.5 10.7-27.8h4l11.4 27.8h-4.2l-3.3-8.4h-11.6l-3 8.4zm8.1-11.4h9.4l-2.9-7.7c-.9-2.3-1.5-4.3-2-5.8a24.6 24.6 0 0 1 -1.5 5.3z" fill="#58595b"/><path d="m3689.1 1979.5v-27.8h12.3a16.9 16.9 0 0 1 5.7.7 6.2 6.2 0 0 1 3.1 2.7 8.8 8.8 0 0 1 1.1 4.2 6.9 6.9 0 0 1 -1.9 5 10.1 10.1 0 0 1 -5.9 2.6 6.4 6.4 0 0 1 2.2 1.4 16.8 16.8 0 0 1 3.1 3.7l4.8 7.5h-4.6l-3.7-5.8-2.7-3.8a11.3 11.3 0 0 0 -1.8-1.9 6.1 6.1 0 0 0 -1.7-.7h-6.3v12.3zm3.7-15.5h7.9a12.7 12.7 0 0 0 3.9-.5 4.3 4.3 0 0 0 2.2-1.7 4.5 4.5 0 0 0 .7-2.5 4.2 4.2 0 0 0 -1.4-3.3 7.1 7.1 0 0 0 -4.5-1.2h-8.8z" fill="#58595b"/><path d="m3723.5 1979.5v-24.5h-9.2v-3.3h22.1v3.3h-9.2v24.5z" fill="#58595b"/><path d="m3749 1970.6 3.5-.3a6.8 6.8 0 0 0 1.1 3.4 6.4 6.4 0 0 0 2.8 2.2 11.8 11.8 0 0 0 4.3.8 10.6 10.6 0 0 0 3.7-.6 5 5 0 0 0 2.4-1.7 4.6 4.6 0 0 0 .8-2.4 3.6 3.6 0 0 0 -.8-2.3 5.5 5.5 0 0 0 -2.5-1.7l-4.9-1.3a20.6 20.6 0 0 1 -5.4-1.8 7.5 7.5 0 0 1 -3-2.5 7 7 0 0 1 -.9-3.5 6.9 6.9 0 0 1 1.2-3.9 6.4 6.4 0 0 1 3.4-2.8 12.5 12.5 0 0 1 5.1-1 15.4 15.4 0 0 1 5.5 1 7.7 7.7 0 0 1 3.6 3 7.9 7.9 0 0 1 1.4 4.3l-3.5.3a6.1 6.1 0 0 0 -1.9-4 7.7 7.7 0 0 0 -4.9-1.3 8.2 8.2 0 0 0 -4.9 1.2 3.6 3.6 0 0 0 -1.5 2.9 3.3 3.3 0 0 0 1.1 2.5c.7.7 2.5 1.3 5.5 2a39.3 39.3 0 0 1 6.2 1.8 8.7 8.7 0 0 1 3.6 2.8 6.9 6.9 0 0 1 1.1 4 8.4 8.4 0 0 1 -1.2 4.2 8.5 8.5 0 0 1 -3.7 3 13.2 13.2 0 0 1 -5.3 1.1 16.7 16.7 0 0 1 -6.4-1.1 8.6 8.6 0 0 1 -4-3.3 9.8 9.8 0 0 1 -1.5-5z" fill="#58595b"/><path d="m3794.4 1951.7h3.7v16.1a19.4 19.4 0 0 1 -.9 6.6 8.6 8.6 0 0 1 -3.5 4.1 12.3 12.3 0 0 1 -6.5 1.5 13.5 13.5 0 0 1 -6.4-1.3 7.8 7.8 0 0 1 -3.5-3.9 19 19 0 0 1 -1.1-7v-16.1h3.7v16.1a14 14 0 0 0 .7 5.3 4.9 4.9 0 0 0 2.3 2.6 7.2 7.2 0 0 0 4 1c2.7 0 4.7-.6 5.8-1.9s1.7-3.5 1.7-7z" fill="#58595b"/><path d="m3804.2 1979.5v-27.8h10.5a23.1 23.1 0 0 1 4.3.3 7.3 7.3 0 0 1 3.4 1.3 6 6 0 0 1 2.2 2.7 7.8 7.8 0 0 1 .9 3.7 8.9 8.9 0 0 1 -2.3 6.1q-2.2 2.4-8.1 2.4h-7.2v11.3zm3.7-14.6h7.2c2.4 0 4.1-.4 5.1-1.3a4.7 4.7 0 0 0 1.5-3.7 4.9 4.9 0 0 0 -.9-3 4.2 4.2 0 0 0 -2.3-1.7l-3.5-.2h-7.1z" fill="#58595b"/><path d="m3830.2 1979.5v-27.8h10.5a22.6 22.6 0 0 1 4.2.3 6.9 6.9 0 0 1 3.4 1.3 6.2 6.2 0 0 1 2.3 2.7 9.1 9.1 0 0 1 .8 3.7 8.8 8.8 0 0 1 -2.2 6.1c-1.5 1.6-4.3 2.4-8.2 2.4h-7.1v11.3zm3.7-14.6h7.2c2.3 0 4-.4 5-1.3a4.7 4.7 0 0 0 1.5-3.7 4.9 4.9 0 0 0 -.9-3 3.6 3.6 0 0 0 -2.3-1.7l-3.4-.2h-7.1z" fill="#58595b"/><path d="m3856 1979.5v-27.8h3.6v24.5h13.7v3.3z" fill="#58595b"/><path d="m3878.4 1979.5v-27.8h3.6v27.8z" fill="#58595b"/><path d="m3888.6 1979.5v-27.8h20.1v3.3h-16.4v8.5h15.4v3.3h-15.4v9.4h17.1v3.3z" fill="#58595b"/><path d="m3913.2 1970.6 3.5-.3a6.8 6.8 0 0 0 1.1 3.4 7.1 7.1 0 0 0 2.8 2.2 11.8 11.8 0 0 0 4.3.8 10.6 10.6 0 0 0 3.7-.6 5 5 0 0 0 2.4-1.7 4.6 4.6 0 0 0 .8-2.4 3.1 3.1 0 0 0 -.8-2.3 5.5 5.5 0 0 0 -2.5-1.7l-4.9-1.3a20.6 20.6 0 0 1 -5.4-1.8 7.5 7.5 0 0 1 -3-2.5 7 7 0 0 1 -.9-3.5 6.9 6.9 0 0 1 1.2-3.9 6.6 6.6 0 0 1 3.5-2.8 11.9 11.9 0 0 1 5.1-1 15.3 15.3 0 0 1 5.4 1 8.5 8.5 0 0 1 3.7 3 7.8 7.8 0 0 1 1.3 4.3l-3.5.3a5.6 5.6 0 0 0 -1.9-4 7.5 7.5 0 0 0 -4.9-1.3 8.2 8.2 0 0 0 -4.9 1.2 3.6 3.6 0 0 0 -1.5 2.9 3.3 3.3 0 0 0 1.1 2.5c.7.7 2.6 1.3 5.5 2a39.3 39.3 0 0 1 6.2 1.8 8.7 8.7 0 0 1 3.6 2.8 7 7 0 0 1 1.2 4 7.9 7.9 0 0 1 -5 7.2 12.9 12.9 0 0 1 -5.3 1.1 16.7 16.7 0 0 1 -6.4-1.1 8.6 8.6 0 0 1 -4-3.3 10.8 10.8 0 0 1 -1.5-5z" fill="#58595b"/><path d="m3949.9 1970.6 3.5-.3a8 8 0 0 0 1.2 3.4 6.4 6.4 0 0 0 2.8 2.2 10.8 10.8 0 0 0 4.2.8 10.2 10.2 0 0 0 3.7-.6 5 5 0 0 0 2.4-1.7 3.8 3.8 0 0 0 .8-2.4 3.5 3.5 0 0 0 -.7-2.3 6.1 6.1 0 0 0 -2.5-1.7l-5-1.3a23.7 23.7 0 0 1 -5.4-1.8 6.6 6.6 0 0 1 -2.9-2.5 6.2 6.2 0 0 1 -1-3.5 6.9 6.9 0 0 1 1.2-3.9 7 7 0 0 1 3.5-2.8 11.9 11.9 0 0 1 5.1-1 14.4 14.4 0 0 1 5.4 1 8.5 8.5 0 0 1 3.7 3 7.8 7.8 0 0 1 1.3 4.3l-3.5.3a5.6 5.6 0 0 0 -1.9-4 7.5 7.5 0 0 0 -4.9-1.3 7.7 7.7 0 0 0 -4.8 1.2 3.8 3.8 0 0 0 -1.6 2.9 3.3 3.3 0 0 0 1.1 2.5c.7.7 2.6 1.3 5.6 2a37.1 37.1 0 0 1 6.1 1.8 7.6 7.6 0 0 1 3.6 2.8 7 7 0 0 1 1.2 4 7.6 7.6 0 0 1 -1.3 4.2 8.2 8.2 0 0 1 -3.6 3 13.3 13.3 0 0 1 -5.4 1.1 16.5 16.5 0 0 1 -6.3-1.1 8.2 8.2 0 0 1 -4-3.3 9.9 9.9 0 0 1 -1.6-5z" fill="#58595b"/><path d="m3984.2 1979.5v-24.5h-9.2v-3.3h22.1v3.3h-9.2v24.5z" fill="#58595b"/><path d="m3999 1966c0-4.6 1.3-8.3 3.8-10.9a12.4 12.4 0 0 1 9.6-3.9 13.7 13.7 0 0 1 6.9 1.8 12.4 12.4 0 0 1 4.7 5.2 16.4 16.4 0 0 1 1.7 7.4 15.5 15.5 0 0 1 -1.8 7.6 11.3 11.3 0 0 1 -4.8 5.1 14.3 14.3 0 0 1 -6.8 1.7 12.9 12.9 0 0 1 -7-1.9 13.1 13.1 0 0 1 -4.7-5.2 16.6 16.6 0 0 1 -1.6-6.9zm3.8 0a11.4 11.4 0 0 0 2.7 8 9 9 0 0 0 6.8 2.8 8.8 8.8 0 0 0 6.9-2.9c1.8-1.9 2.7-4.7 2.7-8.3a13.8 13.8 0 0 0 -1.2-5.9 8.7 8.7 0 0 0 -3.4-3.9 8.3 8.3 0 0 0 -4.9-1.4 9.2 9.2 0 0 0 -6.7 2.7c-1.9 1.8-2.9 4.7-2.9 8.9z" fill="#58595b"/><path d="m4030.5 1979.5v-27.8h12.3a15.8 15.8 0 0 1 5.6.7 5.8 5.8 0 0 1 3.1 2.7 7.9 7.9 0 0 1 1.2 4.2 6.9 6.9 0 0 1 -1.9 5 10.4 10.4 0 0 1 -5.9 2.6 7.6 7.6 0 0 1 2.2 1.4 14.2 14.2 0 0 1 3 3.7l4.9 7.5h-4.7l-3.6-5.8-2.7-3.8a8.4 8.4 0 0 0 -1.9-1.9 5.6 5.6 0 0 0 -1.6-.7h-6.4v12.3zm3.6-15.5h8a13.7 13.7 0 0 0 3.9-.5 4.7 4.7 0 0 0 2.2-1.7 4.7 4.7 0 0 0 -.7-5.8 7.2 7.2 0 0 0 -4.6-1.2h-8.8z" fill="#58595b"/><path d="m4058.5 1979.5v-27.8h20.2v3.3h-16.5v8.5h15.4v3.3h-15.4v9.4h17.1v3.3z" fill="#58595b"/><path d="m3573.9 1868.6c-1.7 6.2 2.3 26.2-4.9 26.2-2.2 0-5.2-1.3-5.4-3.8l-1.2-19.7-1.8-1.9c-8.6.4-18.4.2-26.6-2-4.9-1.2-16.3-4.2-21-6.4-5.7 4.2-11.1 11.6-17.5 15.2-12.3 6.5-28.3 14.4-42.7 14.4h-.5a11.4 11.4 0 0 1 -1.9-1.9v-.5c0-3.9 21.5-9.9 25.9-11.9s12.8-5.6 17.3-9.6c2.9-2.7 9.6-9.5 9.6-9.6v-2c-9.1-4.9-15.5-13.8-15.5-24.4a15.7 15.7 0 0 1 .2-3.4l5.7-14.5c2.6-6.2 13.8-10.6 19.7-10.6 12 0 18.2 1.4 27.1 7.1 0 .2.3.2.5.2 5.4 0 31.8-46.6 38.7-46.6 3.9 0 4.4 1.7 4.4 4.9a11 11 0 0 1 -.2 2.8c-4.5 27.1-8.6 54.7-8.6 82.4 0 1.6 0 4.1 2.4 4.1s6.5-3 10.1-3c1.3 0 3 .3 3 1.8 0 7.1-13 10-16.8 12.7zm-38-50c0-5.9-15.5-6.9-18.7-6.9h-7.2c-9.1 1.2-12.8 12.8-12.8 20.2a53 53 0 0 0 .3 5.7c2.5 4.1 6.9 10 12.3 10 .5 0 2-.2 2-.4l23-26 1.1-2.1zm6.7 7.6c-1.7-.7-3.5 3-3.9 3.9l-18.2 21a3.1 3.1 0 0 0 -.1 1c0 6.4 27.7 8.8 31.4 8.8l5.9-.2c1.2-.2 1-2 1-2.9 0-6-9.6-28.9-16.1-31.6zm28.7-39-.5-.2-.5.2c-6.2 5.2-11.7 13.9-16.3 20.7-1.5 2.2-4.7 7.5-4.7 7.7v2.9l5.7 8.7c1.5 2.4 9.8 24.4 11 29.1 0 .2 1.1-1.3 1.1-1.3.5-14.8 2.9-36.4 2.4-50.8 1.2-2.9 1-5.2 1-8.3 0-.6 1.9-7.2 1.7-7.9s-.7-.8-.9-.8z"/><path d="m3635.1 1867.7c-1.7 0-5.2-.3-6.2-2.3-1.2 2.2-7.4 12.6-14.5 20-3.9 4.2-7.9 10.3-11.6 10.3s-2-4.2-2.8-5.9-1.1-13-1.4-14.7a33.1 33.1 0 0 1 0-6.3c.2-7.1 0-10.1 0-17.4.2-5.4-1.8-10.9-2.9-16.8-1.6-11.6 6.4-8.6 7.8-6.7a51.8 51.8 0 0 1 1.2 6.2c.3 1.5 1.5 7.9 1.3 8.2s.2 10.1.2 11.5a90.8 90.8 0 0 0 .8 18.3c.2 1.5-.8 5.2-.7 6.1s-.1 1.5-.1 1.7.6 3.3.8 3.2c4.4-3.2 9.4-10.8 11.3-13.3l5-8.6a20.7 20.7 0 0 0 .9-2.4c-1.5-3.3-1.2-9.6-1-13.4s6.5-22.6 13.1-22.6c1.7 0 4.5.9 5.4 2.4a41.3 41.3 0 0 1 .5 9.1c-.4 5.9-5.6 15.8-7.8 21 0 .3-.1 1.3-.1 1.5s1.3 3.4 2.7 3.4c7.5 0 15.4-11.8 20.5-11.5a2.5 2.5 0 0 1 2.7 2.7c-.2 5.1-20.4 16.3-25.1 16.3z"/><path d="m3727.8 1863.2a37.4 37.4 0 0 1 -8.4 15.1c-5.1 5.4-15.5 13.7-23.4 13.7h-.2c-6.7 0-11.1-4.2-12.1-14-.5-.2-5.7 5.4-6 5.6-5.4 3-8.6 9.2-17.9 9.2-4.3 0-8-4.7-10.4-7.4v-5.2c0-9.3 2.7-20 7.4-29.3 6.7-12.8 17.7-22.7 31.8-22.7 8.1 0 7.7 11.3 9.1 16.8 2.5-4 4.9-3.7 6.7-2.8s.8 4-.3 5.9c-3.6 5.2-12 18.8-12.8 26.7-.7 5.9 1.7 9.9 5.9 9.9s13.9-9.2 16.6-11.9 4.4-6.9 9.1-13.3c1.2-1.7 1-1.5 2.7-1.5s2.5 1.3 2.5 3a8.3 8.3 0 0 1 -.3 2.2zm-42.7-26.6c-7.9 0-15.3 8.4-20.6 18.2s-7.7 19-7.7 25.4a3.7 3.7 0 0 0 1.2 3.2h2.5a15.8 15.8 0 0 0 9.9-4.2c2.1-1.9 12-13 13.7-15.2a38.4 38.4 0 0 0 5.3-18.8c0-2.5-.1-8.6-4.3-8.6z"/><path d="m3804.3 1863.4a37 37 0 0 1 -8.4 15.3c-3.7 3.8-7.4 7.9-12.1 10.7a23.1 23.1 0 0 1 -13.1 4.1c-2 0-4.7 0-6.4-.9-3.9-1.8-3.9-6.9-3.9-10.6 0-6 3.4-10.7 5.9-15.8 3.9-7.4 8.8-18.1 10.4-25.5l-1.5-.2c-7.2 0-15.8 15-19.8 20.2-.4.5-1.4 2.5-2.7 4.5a42.7 42.7 0 0 1 -3.9 5.6 34.6 34.6 0 0 0 -3.9 5.4l-4.3 7c-2.9 4.4-5.9 8.8-8.4 8.8s-3.2-1.4-3.9-3.6c3.7-12.1 9.9-23.2 15.3-34.6 1-2 2.2-4.7 3.2-7.2 1.7-6.1 2-9.5 1-9.8s-7.6 8.1-10.8 13.5c-1.3 2.1-4.8 9-6.3 12.1s-3.1 4.2-4.1 4.8-3.7 1.4-4.7-.3-.2-5 .3-6l1.2-1.9a25.2 25.2 0 0 0 2.2-3.4c2.7-3.7 3.2-4.3 6.9-11.7s10.3-14.7 16-14.7 6.9 4.1 7.4 7.3a14.7 14.7 0 0 1 -.7 6.9l-3 10.6c6.9-11 17.5-21.9 27.7-23.9 4.1 1.5 5.4 5.2 5.4 9.1v1a222.6 222.6 0 0 1 -12.4 30.9c-1.5 3-3.9 6.9-3.9 10.3 0 1.1-.3 2.7.8 3.5a11.8 11.8 0 0 0 2.7.2 13.6 13.6 0 0 0 5.2-1.2c4.4-2.5 9.6-7.4 11.5-9.4a36 36 0 0 0 3.9-6.2 80 80 0 0 1 6.3-10c.7-.8 1.2-.6 2.2-.6 2.6 0 3.1 1.5 3.1 3.3a12 12 0 0 1 -.4 2.4z"/><path d="m3849.2 1818.1c-2.1.4-24.9.2-26.9.4-3.8 5.2-11.1 26.2-13.1 33.8-.3 1.1-3.7 10.4-3.9 11.6s-1.1 9.1-1.1 13.8 3.5 7.4 6.5 7.4l.4-.2c1.1-.3 6.3-.5 6.7-.7a7.7 7.7 0 0 1 3-.8c4.6-2.5 10.6-8.3 12.8-10.4 3.2-4.4 5.9-9.1 9.2-13.5 1.2-1.7 1.1-1.5 2.6-1.5s2.5 1.3 2.5 3a8.2 8.2 0 0 1 -.2 2.2 37.4 37.4 0 0 1 -8.4 15.1c-3.2 3.4-6.4 7.3-11.8 10.1a33.2 33.2 0 0 1 -15.3 4.7c-12.1 0-16.8-9-16.8-19.6 0-1 1-8.3 1-9.3 1.4-5.4 8.9-23.5 10.3-28.9.8-3 5-12.5 6.2-16.8a52.1 52.1 0 0 1 -7.9-.2c-1.2-.3-7.9-1.7-7.9-4.9s3.9-3.7 5.9-3.9c5-.3 9.7.7 13.3 0 .1-.1 5.2-9.4 6.7-12.7l4.7-11.5 4.9-9.6c1-1.8 5-10.7 9.1-10.7 1.8 0 4.3 1.3 4.3 3.5 0 3.9-4.5 9.1-6.2 12.5l-13.6 28.4h25.9c1.5 0 3.9 2.5 3.9 3.8 0 2.9-4.7 4.6-6.8 4.9z"/><path d="m3910.5 1852.1c-16.1-1.2-31.8 3.9-47.6 3.9-2.7 0-4.3-1.2-4.3-3.9s.6-3.2 3-3.9c7.6-1.6 16.6-1.5 24-3.7s21.4-.8 25.9 0c1.6.2 2.1 3.4 2.1 4.2s-1.2 2.7-3.1 3.4z"/><path d="m4017.8 1874.1c-4.7 8.4-10.1 17-15.5 24.9-10.8 16-39.7 24.3-58 24.3-13.5 0-26.6-8.1-35-18.4a4.1 4.1 0 0 1 -1-3c0-2.9 2.8-2.9 4.9-2.9 9.4 8.3 19.5 16.5 32.6 16.5 7.6 0 14.8-3.2 22-4.9 17.7-4.2 25.9-12.1 34.5-27.9l.7-2c-.2-.5-.9-.2-1.5.2-13.8 8-30.1 10.6-46 10.6-14.1 0-22.7-8.1-27.9-20.4a38.2 38.2 0 0 1 -3-8.6c-.7-4-.2-9.1-.2-13.3s3.1-9.5 3.1-11.6c-6.6-6.4-14.5-14.9-14.5-24.7 0-12.1 2.5-17.1 10.6-26.1 1.2-1.3 6.2-6.9 8.2-6.9s2.4 1.6 2.4 2.9c0 6.1-14.5 14.8-14.5 31 0 4 8.1 14.9 11.8 15.9 3.2-3.5 7.9-12.9 10.4-16.1 7.8-10.1 25.3-28.6 35.5-35.5 5.2-3.5 17.2-6.7 23.6-6.7 13.8 0 17.8 13.1 17.8 24.7 0 15.3-8.9 24.9-18.3 35.8a50.9 50.9 0 0 1 -39.6 18.2c-7.9 0-21.5-5.7-26.2-8.1-2.2 2.4-2.5 8.1-2.5 10.9 0 16.7 7 30 25.4 30 9.7 0 21.5-.9 30.4-4.9s15.8-7.6 22.6-13.4c2.5-2.2 8.4-8.6 9-16.9.2-2.2 3.1-2.2 4.9-2.2s4.4.4 4.4 3.1-8.8 21.3-11.1 25.5zm-12.6-93.1h-4.7c-19.7 0-37.4 19.5-49 33.6-3.5 4.4-12.4 14.5-13.8 19.8a58.3 58.3 0 0 0 26.9 7.3c15.5 0 27.3-11.6 36.4-22.9 2-2.4 4.7-5.4 6.2-8.1s3.9-13.3 3.9-18.1-2.1-8.5-5.9-11.6z"/><path d="m4112.3 1863.2a37.4 37.4 0 0 1 -8.4 15.1c-5 5.4-15.5 13.7-23.4 13.7h-.1c-6.8 0-11.1-4.2-12.1-14-.6-.2-5.8 5.4-6.1 5.6-5.4 3-8.6 9.2-17.8 9.2-4.4 0-8.1-4.7-10.5-7.4v-5.2c0-9.3 2.7-20 7.4-29.3 6.8-12.8 17.7-22.7 31.8-22.7 8.1 0 7.8 11.3 9.1 16.8 2.5-4 4.9-3.7 6.7-2.8s.9 4-.3 5.9c-3.5 5.2-11.9 18.8-12.8 26.7-.7 5.9 1.7 9.9 5.9 9.9s14-9.2 16.7-11.9 4.3-6.9 9-13.3c1.2-1.7 1.1-1.5 2.7-1.5s2.6 1.3 2.6 3a8.5 8.5 0 0 1 -.4 2.2zm-42.7-26.6c-7.9 0-15.3 8.4-20.5 18.2s-7.8 19-7.8 25.4a3.7 3.7 0 0 0 1.2 3.2h2.5a16.1 16.1 0 0 0 10-4.2c2-1.9 11.9-13 13.6-15.2a37.5 37.5 0 0 0 5.4-18.8c0-2.5-.2-8.6-4.4-8.6z"/><path d="m4163.3 1863.2a39.4 39.4 0 0 1 -8.2 15.1c-4.9 5.1-14.9 13-22.6 13.7l-3 .3c-4.9 0-10.8-2-10.8-8.2s2-12.8 5.7-19.7 9.8-15.3 13.7-21.2c-4.9 1.2-11.1.3-12.8 0-1.5 1.2-1.2 1.5-2.7 3.5s-7.1 13.6-8.9 16c-3.9 5-3.4 7.6-7.4 7.6-1.2 0-3.9-.7-3.6-2.9l.5-3c2.4-3.2 1.7-2.5 4.9-7.9 4.4-7.1 8.1-12.8 10.8-17.3-.2-1.2-1.5-1.2-1.9-1.9l-1.3-2.2c-1-1.5-.7-5.5-.7-7.4 0-7.6 7.9-14.1 16-14.1 3.4 0 6.6 3.7 6.6 7.1s-.7 5.2-2.2 8.5a40.4 40.4 0 0 1 -3.9 6.4 26.2 26.2 0 0 0 7.4.2c3.9-.5 5.4-3.5 9.8-3.5 2.7 0 3.7 2.3 3.7 4.3a5.1 5.1 0 0 1 -1.9 3.9l-.5.5c-3.7 3.7-12.8 16-15.3 19.9-4.7 7.2-8.2 14.4-8.2 21 0 .5 1.6.8 1.6 1.2s3.7 1.6 4.7 1.6c4.1 0 14-9.2 16.5-11.9s4.4-6.9 9.1-13.3c1.4-1.7 1-1.5 2.7-1.5s2.5 1.3 2.5 3a8.3 8.3 0 0 1 -.3 2.2zm-41.2-34.3c0 1.7 2.5 3.5 2.7 3.5 1.7-1.3 5.9-8.2 4-11.4-5.2-.3-6.7 3.5-6.7 7.9z"/><path d="m4239 1773.7c-1.4 3.9-2.9 7.6-4.6 11.3-5 11.3-16.8 34.1-22.2 45.6s-10.2 22.7-12.2 34.8a82.8 82.8 0 0 0 -1.2 15c0 .6.2 2.5.2 2.7 2 2.5 1.5 2.1 2.5 2.1a33.4 33.4 0 0 1 6.7-.5c4 0 14-9.2 16.7-11.9s4.2-6.9 9-13.3c1.2-1.7 1-1.5 2.6-1.5s2.5 1.3 2.5 3a8.2 8.2 0 0 1 -.2 2.2 37.4 37.4 0 0 1 -8.4 15.1c-4.9 5.3-14.8 13-22.7 13.7a20.6 20.6 0 0 1 -4.9.8c-14.6 0-11.6-14.3-11.8-16.5-6.5 7.3-14.6 15.7-24.7 15.7s-11.8-10.1-11.8-17.4c0-14.6 16.5-47.9 34-47.9 7.4 0 7.4 7.7 11.5 7.7.8 0 1.3.2 1.8-1l22.9-50.1c3.2-3.5 6.5-16.3 10.9-16.3 2.9 0 3.6 2 3.6 4.4a9 9 0 0 1 -.2 2.3zm-52 62.6a9.3 9.3 0 0 0 -4.4 1c-12.2 9.4-20.1 22.9-20.1 38.2 0 .8 1 7 1 7.9s2.1 1 3 1c11.8 0 27.7-26.9 27.7-36.8 0-4.6-1.5-11.3-7.2-11.3z"/><path d="m4288.6 1863.2a39.4 39.4 0 0 1 -8.2 15.1c-7.6 7.9-16.9 14-28 14-5 0-11.4-1-15.9-4.4a18.7 18.7 0 0 1 -7.9-14.8 52.2 52.2 0 0 1 10.9-32.6c5-6.6 12.4-11.9 21.7-11.9 5.2 0 10.4 4 10.4 9.2a25.2 25.2 0 0 1 -6.2 16.3 42.1 42.1 0 0 1 -14.6 10.8c-2.9 1.3-10.3 3.5-13.8 6-.9 1.7-.2 2.6 0 4.4s2.8 5.7 5.5 7.1a19.3 19.3 0 0 0 9.9 3c9-1 16.2-6 22.4-12.6 2.7-2.9 4.2-6.9 8.9-13.3 1.4-1.7 1-1.5 2.7-1.5s2.5 1.3 2.5 3a8.3 8.3 0 0 1 -.3 2.2zm-28.1-26.7a23 23 0 0 0 -13.8 7c-4.3 4.6-8 11.3-8 16.7 0 .8-1.2 2.3-.2 2.7a66.1 66.1 0 0 0 15.5-8.3c4.2-3.2 7.4-7.4 10.1-13.8a3.1 3.1 0 0 0 .1-1c0-1.2-2.2-3.7-3.7-3.3z"/><path d="m784.6 540h-34.1a209.3 209.3 0 0 0 61.5 148.4l24.1-24.2a175.1 175.1 0 0 1 -51.5-124.2z" fill="#e31d93"/><path d="m836.1 664.2-24.1 24.2a208.9 208.9 0 0 0 148.3 61.5v-34.2a175.1 175.1 0 0 1 -124.2-51.5z" fill="#8331a7"/><path d="m836.2 415.6-24.1-24.1a209 209 0 0 0 -61.6 148.5h34.1a175.7 175.7 0 0 1 51.6-124.4z" fill="#00b2e3"/><path d="m960.3 715.7v34.2a209.1 209.1 0 0 0 148.5-61.6l-24.1-24.2a175.1 175.1 0 0 1 -124.4 51.6z" fill="#0033a1"/><path d="m1084.6 415.8a175 175 0 0 1 51.4 124.2h34.2a209.3 209.3 0 0 0 -61.5-148.4z" fill="#fed925"/><path d="m960.3 364.3v-34.2a209.1 209.1 0 0 0 -148.2 61.4l24.1 24.1a175.3 175.3 0 0 1 124.1-51.3z" fill="#f32735"/><path d="m1084.7 664.1 24.1 24.2a209 209 0 0 0 61.4-148.3h-34.2a175.1 175.1 0 0 1 -51.3 124.1z" fill="#009d4f"/><path d="m1084.6 415.8 24.1-24.2a208.9 208.9 0 0 0 -148.4-61.5v34.2a175.2 175.2 0 0 1 124.3 51.5z" fill="#ff6b00"/><path d="m818.1 540h-33.5a175.1 175.1 0 0 0 51.5 124.2l23.7-23.6a141.7 141.7 0 0 1 -41.7-100.6z" fill="#e9459d"/><path d="m859.8 640.6-23.7 23.6a175.1 175.1 0 0 0 124.2 51.5v-33.4a141.9 141.9 0 0 1 -100.5-41.7z" fill="#9048b0"/><path d="m859.9 439.3-23.7-23.7a175.7 175.7 0 0 0 -51.6 124.4h33.5a142 142 0 0 1 41.8-100.7z" fill="#00bae6"/><path d="m960.3 682.3v33.4a175.1 175.1 0 0 0 124.4-51.6l-23.7-23.6a141.7 141.7 0 0 1 -100.7 41.8z" fill="#04a"/><path d="m1102.6 540h33.4a175 175 0 0 0 -51.4-124.2l-23.7 23.6a141.7 141.7 0 0 1 41.7 100.6z" fill="#ffdc47"/><path d="m960.3 397.7v-33.4a175.3 175.3 0 0 0 -124.1 51.3l23.7 23.7a141.6 141.6 0 0 1 100.4-41.6z" fill="#f84a47"/><path d="m1061 640.5 23.7 23.6a175.1 175.1 0 0 0 51.3-124.1h-33.4a142 142 0 0 1 -41.6 100.5z" fill="#00a760"/><path d="m960.3 397.7a141.9 141.9 0 0 1 100.6 41.7l23.7-23.6a175.2 175.2 0 0 0 -124.3-51.5z" fill="#ff7c00"/><path d="m854.9 540h-36.8a141.7 141.7 0 0 0 41.7 100.6l26-26.1a104.8 104.8 0 0 1 -30.9-74.5z" fill="#ed5fa7"/><path d="m885.8 614.5-26 26.1a141.9 141.9 0 0 0 100.5 41.7v-36.9a105 105 0 0 1 -74.5-30.9z" fill="#9d5cb8"/><path d="m885.9 465.3-26-26a142 142 0 0 0 -41.8 100.7h36.8a105.4 105.4 0 0 1 31-74.7z" fill="#38c2e8"/><path d="m960.3 645.4v36.9a141.7 141.7 0 0 0 100.7-41.8l-26-26.1a104.9 104.9 0 0 1 -74.7 31z" fill="#3956b4"/><path d="m1065.8 540h36.8a141.7 141.7 0 0 0 -41.7-100.6l-26 26.1a104.8 104.8 0 0 1 30.9 74.5z" fill="#ffe05f"/><path d="m885.9 465.3a105.2 105.2 0 0 1 74.4-30.7v-36.9a141.6 141.6 0 0 0 -100.4 41.6z" fill="#fc6359"/><path d="m1035 614.4 26 26.1a142 142 0 0 0 41.6-100.5h-36.8a104.9 104.9 0 0 1 -30.8 74.4z" fill="#0bb270"/><path d="m1034.9 465.5 26-26.1a141.9 141.9 0 0 0 -100.6-41.7v36.9a105 105 0 0 1 74.6 30.9z" fill="#ff8c1c"/><path d="m2649.3 367.2-23.9-23.9a207.3 207.3 0 0 0 -60.8 146.8h33.8a173.3 173.3 0 0 1 50.9-122.9z" fill="#e31d93"/><path d="m2614.7 572.9h-33.8a206.9 206.9 0 0 0 60.8 146.7l23.9-23.8a173.1 173.1 0 0 1 -50.9-122.9z" fill="#8331a7"/><path d="m2811.3 249.1v-33.8a207.1 207.1 0 0 0 -147 60.8l23.9 23.9a172.9 172.9 0 0 1 123.1-50.9z" fill="#00b2e3"/><path d="m2713.2 734.6-23.9 23.9a207.1 207.1 0 0 0 146.9 60.8v-33.8a173.3 173.3 0 0 1 -123-50.9z" fill="#0033a1"/><path d="m3072.8 553a173.3 173.3 0 0 1 -50.9 122.8l23.8 23.9a206.5 206.5 0 0 0 60.8-146.7z" fill="#fed925"/><path d="m2989.2 414.7 23.9-23.9a206.9 206.9 0 0 0 -146.7-60.8v33.8a173.1 173.1 0 0 1 122.8 50.9z" fill="#f32735"/><path d="m2891.2 763v33.8a206.8 206.8 0 0 0 146.6-60.8l-23.9-23.9a173 173 0 0 1 -122.7 50.9z" fill="#009d4f"/><path d="m3055.2 532.4h33.7a206.8 206.8 0 0 0 -60.7-146.7l-23.9 23.9a173.3 173.3 0 0 1 50.9 122.8z" fill="#ff6b00"/><path d="m2718.7 415.4-23.4-23.4a173.3 173.3 0 0 0 -50.9 122.9h33.1a140.1 140.1 0 0 1 41.2-99.5z" fill="#e9459d"/><path d="m2686.7 555.2h-33.1a173.5 173.5 0 0 0 50.9 122.9l23.4-23.4a140.2 140.2 0 0 1 -41.2-99.5z" fill="#9048b0"/><path d="m2838.9 339.5v-33.1a173.4 173.4 0 0 0 -123.1 50.9l23.4 23.4a140.1 140.1 0 0 1 99.7-41.2z" fill="#00bae6"/><path d="m2752.3 672.9-23.4 23.4a173.4 173.4 0 0 0 123.1 50.9v-33.1a140.1 140.1 0 0 1 -99.7-41.2z" fill="#04a"/><path d="m2980.7 644.5 23.4 23.4a173.3 173.3 0 0 0 50.9-122.9h-33.1a140.2 140.2 0 0 1 -41.2 99.5z" fill="#ffdc47"/><path d="m2965.8 438 23.4-23.4a173.5 173.5 0 0 0 -122.8-50.9v33.1a140.8 140.8 0 0 1 99.4 41.2z" fill="#f84a47"/><path d="m2878.3 703v33a173 173 0 0 0 122.7-50.9l-23.4-23.3a140.6 140.6 0 0 1 -99.3 41.2z" fill="#00a760"/><path d="m2972.3 436a139.8 139.8 0 0 1 41.2 99.4h33.1a173.3 173.3 0 0 0 -50.9-122.8z" fill="#ff7c00"/><path d="m2792.6 463.8-25.8-25.8a140.2 140.2 0 0 0 -41.2 99.5h36.4a103.6 103.6 0 0 1 30.6-73.7z" fill="#ed5fa7"/><path d="m2762 537.5h-36.4a140.2 140.2 0 0 0 41.2 99.5l25.8-25.8a103.6 103.6 0 0 1 -30.6-73.7z" fill="#9d5cb8"/><path d="m2866.4 433.2v-36.4a140.4 140.4 0 0 0 -99.6 41.2l25.8 25.8a104 104 0 0 1 73.8-30.6z" fill="#38c2e8"/><path d="m2792.6 611.2-25.8 25.8a140.4 140.4 0 0 0 99.6 41.2v-36.4a104 104 0 0 1 -73.8-30.6z" fill="#3956b4"/><path d="m2940 611.2 25.8 25.8a140.2 140.2 0 0 0 41.2-99.5h-36.4a103.6 103.6 0 0 1 -30.6 73.7z" fill="#ffe05f"/><path d="m2866.4 433.2a104.3 104.3 0 0 1 73.6 30.6l25.8-25.8a140.8 140.8 0 0 0 -99.4-41.2z" fill="#fc6359"/><path d="m2866.4 641.8v36.4a140.4 140.4 0 0 0 99.4-41.2l-25.8-25.8a103.8 103.8 0 0 1 -73.6 30.6z" fill="#0bb270"/><path d="m2970.6 537.5h36.4a140.2 140.2 0 0 0 -41.2-99.5l-25.8 25.8a103.6 103.6 0 0 1 30.6 73.7z" fill="#ff8c1c"/><path d="m4663.4 421.8h-33.8a207.3 207.3 0 0 0 60.8 146.8l23.9-23.9a173.6 173.6 0 0 1 -50.9-122.9z" fill="#e31d93"/><path d="m4714.3 544.7-23.9 23.9a207.3 207.3 0 0 0 146.8 60.8v-33.8a173.6 173.6 0 0 1 -122.9-50.9z" fill="#8331a7"/><path d="m4714.4 298.8-23.9-23.9a207.1 207.1 0 0 0 -60.9 146.9h33.8a173.5 173.5 0 0 1 51-123z" fill="#00b2e3"/><path d="m4844.3 609.4v33.8a207.1 207.1 0 0 0 146.9-60.9l-23.9-23.9a173.5 173.5 0 0 1 -123 51z" fill="#0033a1"/><path d="m4974.1 292.8a172.7 172.7 0 0 1 50.9 122.8h33.8a206.9 206.9 0 0 0 -60.8-146.7z" fill="#fed925"/><path d="m4837.2 248v-33.7a206.9 206.9 0 0 0 -146.7 60.6l23.9 23.9a173.4 173.4 0 0 1 122.8-50.8z" fill="#f32735"/><path d="m4974.2 551.7 23.9 23.9a207 207 0 0 0 60.7-146.7h-33.8a173.4 173.4 0 0 1 -50.8 122.8z" fill="#009d4f"/><path d="m4967.2 284.7 23.9-23.9a206.9 206.9 0 0 0 -146.8-60.8v33.8a173.1 173.1 0 0 1 122.9 50.9z" fill="#ff6b00"/><path d="m4696.5 421.8h-33.1a173.6 173.6 0 0 0 50.9 122.9l23.4-23.4a140.1 140.1 0 0 1 -41.2-99.5z" fill="#e9459d"/><path d="m4737.7 521.3-23.4 23.4a173.6 173.6 0 0 0 122.9 50.9v-33.1a140.5 140.5 0 0 1 -99.5-41.2z" fill="#9048b0"/><path d="m4737.8 322.2-23.4-23.4a173.5 173.5 0 0 0 -51 123h33.1a140.4 140.4 0 0 1 41.3-99.6z" fill="#00bae6"/><path d="m4840.4 568.1v33.1a173 173 0 0 0 122.9-51l-23.4-23.4a140 140 0 0 1 -99.5 41.3z" fill="#04a"/><path d="m4983.7 419.6h33.1a173 173 0 0 0 -50.9-122.9l-23.4 23.4a139.9 139.9 0 0 1 41.2 99.5z" fill="#ffdc47"/><path d="m4837.2 281.1v-33.1a173.4 173.4 0 0 0 -122.8 50.8l23.4 23.4a140.4 140.4 0 0 1 99.4-41.1z" fill="#f84a47"/><path d="m4942.6 524.3 23.4 23.4a173 173 0 0 0 50.8-122.7h-33.1a140 140 0 0 1 -41.1 99.3z" fill="#00a760"/><path d="m4840.4 275a140 140 0 0 1 99.4 41.3l23.4-23.4a172.9 172.9 0 0 0 -122.8-50.9z" fill="#ff7c00"/><path d="m4732.9 421.8h-36.4a140.1 140.1 0 0 0 41.2 99.5l25.8-25.8a103.7 103.7 0 0 1 -30.6-73.7z" fill="#ed5fa7"/><path d="m4763.5 495.5-25.8 25.8a140.5 140.5 0 0 0 99.5 41.2v-36.4a103.7 103.7 0 0 1 -73.7-30.6z" fill="#9d5cb8"/><path d="m4763.6 348-25.8-25.8a140.4 140.4 0 0 0 -41.3 99.6h36.4a103.6 103.6 0 0 1 30.7-73.8z" fill="#38c2e8"/><path d="m4837.2 526.1v36.4a140.4 140.4 0 0 0 99.6-41.3l-25.8-25.8a103.6 103.6 0 0 1 -73.8 30.7z" fill="#3956b4"/><path d="m4941.5 421.8h36.4a140.7 140.7 0 0 0 -41.2-99.5l-25.8 25.8a103.7 103.7 0 0 1 30.6 73.7z" fill="#ffe05f"/><path d="m4763.6 348a103.9 103.9 0 0 1 73.6-30.5v-36.4a140.4 140.4 0 0 0 -99.4 41.1z" fill="#fc6359"/><path d="m4911 495.4 25.8 25.8a140.4 140.4 0 0 0 41.1-99.4h-36.4a103.9 103.9 0 0 1 -30.5 73.6z" fill="#0bb270"/><path d="m4910.9 348.1 25.8-25.8a140.7 140.7 0 0 0 -99.5-41.2v36.4a103.7 103.7 0 0 1 73.7 30.6z" fill="#ff8c1c"/><path d="m6604.6 425.4h-34.1a209.1 209.1 0 0 0 61.5 148.4l24.1-24.1a175.3 175.3 0 0 1 -51.5-124.3z" fill="#e31d93"/><path d="m6656.1 549.7-24.1 24.1a208.9 208.9 0 0 0 148.3 61.5v-34.2a175 175 0 0 1 -124.2-51.4z" fill="#8331a7"/><path d="m6656.2 301.1-24.1-24.2a209 209 0 0 0 -61.6 148.5h34.1a175.3 175.3 0 0 1 51.6-124.3z" fill="#00b2e3"/><path d="m6787.5 615.1v34.1a209.3 209.3 0 0 0 148.5-61.5l-24.1-24.2a175.1 175.1 0 0 1 -124.4 51.6z" fill="#0033a1"/><path d="m6918.8 294.9a175.3 175.3 0 0 1 51.4 124.3h34.2a209.1 209.1 0 0 0 -61.5-148.4z" fill="#fed925"/><path d="m6780.3 249.7v-34.1a209.1 209.1 0 0 0 -148.2 61.3l24.1 24.2a175 175 0 0 1 124.1-51.4z" fill="#f32735"/><path d="m6918.9 556.7 24.1 24.2a209.4 209.4 0 0 0 61.4-148.3h-34.2a175.1 175.1 0 0 1 -51.3 124.1z" fill="#009d4f"/><path d="m6911.8 286.8 24.1-24.2a209 209 0 0 0 -148.4-61.4v34.1a175.3 175.3 0 0 1 124.3 51.5z" fill="#ff6b00"/><path d="m6638.1 425.4h-33.5a175.3 175.3 0 0 0 51.5 124.3l23.7-23.7a141.5 141.5 0 0 1 -41.7-100.6z" fill="#e9459d"/><path d="m6679.8 526-23.7 23.7a175 175 0 0 0 124.2 51.4v-33.4a141.5 141.5 0 0 1 -100.5-41.7z" fill="#9048b0"/><path d="m6679.9 324.7-23.7-23.6a175.3 175.3 0 0 0 -51.6 124.3h33.5a142 142 0 0 1 41.8-100.7z" fill="#00bae6"/><path d="m6783.5 573.4v33.4a175.1 175.1 0 0 0 124.4-51.6l-23.7-23.6a141.7 141.7 0 0 1 -100.7 41.8z" fill="#04a"/><path d="m6928.5 423.2h33.5a175.3 175.3 0 0 0 -51.5-124.3l-23.7 23.7a141.5 141.5 0 0 1 41.7 100.6z" fill="#ffdc47"/><path d="m6780.3 283.2v-33.5a175 175 0 0 0 -124.1 51.4l23.7 23.6a141.5 141.5 0 0 1 100.4-41.5z" fill="#f84a47"/><path d="m6887 529.1 23.6 23.6a175 175 0 0 0 51.4-124.1h-33.5a142.1 142.1 0 0 1 -41.5 100.5z" fill="#00a760"/><path d="m6783.5 277a141.9 141.9 0 0 1 100.6 41.7l23.7-23.7a175.5 175.5 0 0 0 -124.3-51.4z" fill="#ff7c00"/><path d="m6674.9 425.4h-36.8a141.5 141.5 0 0 0 41.7 100.6l26-26a105.2 105.2 0 0 1 -30.9-74.6z" fill="#ed5fa7"/><path d="m6705.8 500-26 26a141.5 141.5 0 0 0 100.5 41.7v-36.9a105.3 105.3 0 0 1 -74.5-30.8z" fill="#9d5cb8"/><path d="m6705.9 350.8-26-26.1a142 142 0 0 0 -41.8 100.7h36.8a105.3 105.3 0 0 1 31-74.6z" fill="#38c2e8"/><path d="m6780.3 530.8v36.9a141.7 141.7 0 0 0 100.7-41.8l-26-26a105.3 105.3 0 0 1 -74.7 30.9z" fill="#3956b4"/><path d="m6885.8 425.4h36.8a141.7 141.7 0 0 0 -41.7-100.6l-26 26.1a105 105 0 0 1 30.9 74.5z" fill="#ffe05f"/><path d="m6705.9 350.8a105.2 105.2 0 0 1 74.4-30.8v-36.8a141.5 141.5 0 0 0 -100.4 41.5z" fill="#fc6359"/><path d="m6855 499.9 26 26a141.8 141.8 0 0 0 41.6-100.5h-36.8a105.3 105.3 0 0 1 -30.8 74.5z" fill="#0bb270"/><path d="m6854.9 350.9 26-26.1a141.9 141.9 0 0 0 -100.6-41.6v36.8a105 105 0 0 1 74.6 30.9z" fill="#ff8c1c"/><g fill="#58595b" opacity=".25"><path d="m6570.4 879.5 10.7-27.8h3.9l11.4 27.8h-4.2l-3.2-8.4h-11.7l-3 8.4zm8-11.4h9.4l-2.9-7.7a54.3 54.3 0 0 1 -1.9-5.8 46.1 46.1 0 0 1 -1.5 5.3z"/><path d="m6599.4 879.5v-27.8h12.3a16.9 16.9 0 0 1 5.7.7 6.2 6.2 0 0 1 3.1 2.7 7.9 7.9 0 0 1 1.2 4.2 7 7 0 0 1 -2 5 9.8 9.8 0 0 1 -5.9 2.6 6.4 6.4 0 0 1 2.2 1.4 16.8 16.8 0 0 1 3.1 3.7l4.8 7.5h-4.6l-3.7-5.8c-1.1-1.6-1.9-2.9-2.6-3.8a11.2 11.2 0 0 0 -1.9-1.9 6.1 6.1 0 0 0 -1.7-.7h-6.3v12.3zm3.7-15.5h7.9a14 14 0 0 0 4-.5 4.4 4.4 0 0 0 2.1-1.7 4.6 4.6 0 0 0 .8-2.5 4.3 4.3 0 0 0 -1.5-3.3q-1.3-1.2-4.5-1.2h-8.8z"/><path d="m6633.8 879.5v-24.5h-9.2v-3.3h22.1v3.3h-9.2v24.5z"/><path d="m6659.3 870.6 3.5-.3a8 8 0 0 0 1.1 3.4 7.1 7.1 0 0 0 2.8 2.2 11.8 11.8 0 0 0 4.3.8 10.2 10.2 0 0 0 3.7-.6 5 5 0 0 0 2.4-1.7 3.8 3.8 0 0 0 .8-2.4 3.5 3.5 0 0 0 -.7-2.3 6.1 6.1 0 0 0 -2.5-1.7l-5-1.3a20.6 20.6 0 0 1 -5.4-1.8 6.6 6.6 0 0 1 -2.9-2.5 6.2 6.2 0 0 1 -1-3.5 6.9 6.9 0 0 1 1.2-3.9 6.6 6.6 0 0 1 3.5-2.8 11.9 11.9 0 0 1 5.1-1 14.9 14.9 0 0 1 5.4 1 8.5 8.5 0 0 1 3.7 3 7.8 7.8 0 0 1 1.3 4.3l-3.5.3a5.6 5.6 0 0 0 -1.9-4 7.5 7.5 0 0 0 -4.9-1.3 7.7 7.7 0 0 0 -4.8 1.2 3.5 3.5 0 0 0 -1.6 2.9 3.3 3.3 0 0 0 1.1 2.5c.7.7 2.6 1.3 5.6 2a37.1 37.1 0 0 1 6.1 1.8 8.7 8.7 0 0 1 3.6 2.8 7 7 0 0 1 1.2 4 7.9 7.9 0 0 1 -5 7.2 12.5 12.5 0 0 1 -5.3 1.1 17.1 17.1 0 0 1 -6.4-1.1 8.6 8.6 0 0 1 -4-3.3 10.8 10.8 0 0 1 -1.5-5z"/><path d="m6704.8 851.7h3.6v16.1a19.4 19.4 0 0 1 -.9 6.6 8.4 8.4 0 0 1 -3.4 4.1 12.8 12.8 0 0 1 -6.5 1.5 13.2 13.2 0 0 1 -6.4-1.3 7.6 7.6 0 0 1 -3.6-3.9 19.2 19.2 0 0 1 -1-7v-16.1h3.6v16.1a16.4 16.4 0 0 0 .7 5.3 5.3 5.3 0 0 0 2.3 2.6 7.4 7.4 0 0 0 4 1c2.7 0 4.7-.6 5.8-1.9s1.8-3.5 1.8-7z"/><path d="m6714.6 879.5v-27.8h10.5a22.6 22.6 0 0 1 4.2.3 6.9 6.9 0 0 1 3.4 1.3 6.2 6.2 0 0 1 2.3 2.7 9.1 9.1 0 0 1 .8 3.7 8.8 8.8 0 0 1 -2.2 6.1c-1.6 1.6-4.3 2.4-8.2 2.4h-7.1v11.3zm3.7-14.6h7.1c2.4 0 4.1-.4 5.1-1.3a4.7 4.7 0 0 0 1.5-3.7 4.9 4.9 0 0 0 -.9-3 3.9 3.9 0 0 0 -2.3-1.7l-3.4-.2h-7.1z"/><path d="m6740.5 879.5v-27.8h10.5a21.9 21.9 0 0 1 4.2.3 7.7 7.7 0 0 1 3.5 1.3 6.7 6.7 0 0 1 2.2 2.7 7.7 7.7 0 0 1 .8 3.7 8.8 8.8 0 0 1 -2.2 6.1c-1.5 1.6-4.2 2.4-8.2 2.4h-7.1v11.3zm3.7-14.6h7.2c2.4 0 4-.4 5-1.3a4.7 4.7 0 0 0 1.5-3.7 5.6 5.6 0 0 0 -.8-3 4.1 4.1 0 0 0 -2.4-1.7 22.2 22.2 0 0 0 -3.4-.2h-7.1z"/><path d="m6766.3 879.5v-27.8h3.7v24.5h13.7v3.3z"/><path d="m6788.7 879.5v-27.8h3.7v27.8z"/><path d="m6798.9 879.5v-27.8h20.1v3.3h-16.4v8.5h15.4v3.3h-15.4v9.4h17.1v3.3z"/><path d="m6823.5 870.6 3.5-.3a8 8 0 0 0 1.1 3.4 7.1 7.1 0 0 0 2.8 2.2 11.8 11.8 0 0 0 4.3.8 10.2 10.2 0 0 0 3.7-.6 5 5 0 0 0 2.4-1.7 3.8 3.8 0 0 0 .8-2.4 3.5 3.5 0 0 0 -.7-2.3 6.1 6.1 0 0 0 -2.5-1.7l-5-1.3a23.7 23.7 0 0 1 -5.4-1.8 6.6 6.6 0 0 1 -2.9-2.5 6.2 6.2 0 0 1 -1-3.5 6.9 6.9 0 0 1 1.2-3.9 6.6 6.6 0 0 1 3.5-2.8 11.9 11.9 0 0 1 5.1-1 14.9 14.9 0 0 1 5.4 1 8.5 8.5 0 0 1 3.7 3 7.8 7.8 0 0 1 1.3 4.3l-3.5.3a5.6 5.6 0 0 0 -1.9-4 7.5 7.5 0 0 0 -4.9-1.3 7.7 7.7 0 0 0 -4.8 1.2 3.5 3.5 0 0 0 -1.6 2.9 3.3 3.3 0 0 0 1.1 2.5c.7.7 2.6 1.3 5.6 2a37.1 37.1 0 0 1 6.1 1.8 8.1 8.1 0 0 1 3.6 2.8 7 7 0 0 1 1.2 4 7.6 7.6 0 0 1 -1.3 4.2 8.2 8.2 0 0 1 -3.6 3 13.3 13.3 0 0 1 -5.4 1.1 16.5 16.5 0 0 1 -6.3-1.1 8.2 8.2 0 0 1 -4-3.3 9.9 9.9 0 0 1 -1.6-5z"/><path d="m6860.3 870.6 3.4-.3a8 8 0 0 0 1.2 3.4 6.4 6.4 0 0 0 2.8 2.2 11.2 11.2 0 0 0 4.2.8 10.8 10.8 0 0 0 3.8-.6 6.1 6.1 0 0 0 2.4-1.7 4.6 4.6 0 0 0 .8-2.4 3.6 3.6 0 0 0 -.8-2.3 5.5 5.5 0 0 0 -2.5-1.7l-5-1.3a21 21 0 0 1 -5.3-1.8 6.3 6.3 0 0 1 -3-2.5 6.2 6.2 0 0 1 -1-3.5 6.9 6.9 0 0 1 1.2-3.9 7 7 0 0 1 3.5-2.8 11.9 11.9 0 0 1 5.1-1 15.4 15.4 0 0 1 5.5 1 8.2 8.2 0 0 1 3.6 3 7.9 7.9 0 0 1 1.4 4.3l-3.6.3a5.3 5.3 0 0 0 -1.9-4 7.4 7.4 0 0 0 -4.8-1.3c-2.3 0-3.9.4-4.9 1.2a3.6 3.6 0 0 0 -1.5 2.9 3.2 3.2 0 0 0 1 2.5c.8.7 2.6 1.3 5.6 2a43 43 0 0 1 6.2 1.8 7.8 7.8 0 0 1 3.5 2.8 7 7 0 0 1 1.2 4 8 8 0 0 1 -4.9 7.2 13.3 13.3 0 0 1 -5.4 1.1 16.5 16.5 0 0 1 -6.3-1.1 8.6 8.6 0 0 1 -4-3.3 8.9 8.9 0 0 1 -1.5-5z"/><path d="m6894.5 879.5v-24.5h-9.2v-3.3h22.1v3.3h-9.2v24.5z"/><path d="m6909.4 866c0-4.6 1.2-8.3 3.7-10.9a12.7 12.7 0 0 1 9.6-3.9 13.1 13.1 0 0 1 6.9 1.8 11.8 11.8 0 0 1 4.7 5.2 16.4 16.4 0 0 1 1.7 7.4 16.7 16.7 0 0 1 -1.7 7.6 12.1 12.1 0 0 1 -4.9 5.1 14.2 14.2 0 0 1 -6.7 1.7 13 13 0 0 1 -7.1-1.9 12.2 12.2 0 0 1 -4.6-5.2 15.2 15.2 0 0 1 -1.6-6.9zm3.8 0a11.4 11.4 0 0 0 2.7 8 9.5 9.5 0 0 0 13.6-.1c1.8-1.9 2.7-4.7 2.7-8.3a13.8 13.8 0 0 0 -1.2-5.9 8.5 8.5 0 0 0 -3.3-3.9 8.8 8.8 0 0 0 -5-1.4 9.4 9.4 0 0 0 -6.7 2.7c-1.9 1.8-2.8 4.7-2.8 8.9z"/><path d="m6940.8 879.5v-27.8h12.3a16.9 16.9 0 0 1 5.7.7 6.2 6.2 0 0 1 3.1 2.7 8.8 8.8 0 0 1 1.1 4.2 6.9 6.9 0 0 1 -1.9 5 10.1 10.1 0 0 1 -5.9 2.6 6.4 6.4 0 0 1 2.2 1.4 16.8 16.8 0 0 1 3.1 3.7l4.8 7.5h-4.6l-3.7-5.8-2.7-3.8a11.3 11.3 0 0 0 -1.8-1.9 7.7 7.7 0 0 0 -1.7-.7h-6.3v12.3zm3.7-15.5h7.9a12.7 12.7 0 0 0 3.9-.5 4.3 4.3 0 0 0 2.2-1.7 4.7 4.7 0 0 0 -.7-5.8 7.1 7.1 0 0 0 -4.5-1.2h-8.8z"/><path d="m6968.9 879.5v-27.8h20.1v3.3h-16.4v8.5h15.3v3.3h-15.3v9.4h17v3.3z"/></g><g opacity=".25"><path d="m6484.2 768.6c-1.7 6.2 2.3 26.2-4.9 26.2-2.2 0-5.2-1.3-5.4-3.8l-1.1-19.7-1.9-1.9c-8.6.4-18.3.2-26.6-2-4.9-1.2-16.3-4.2-21-6.4-5.7 4.2-11.1 11.6-17.5 15.2-12.3 6.5-28.2 14.4-42.7 14.4h-.5a11.4 11.4 0 0 1 -1.9-1.9v-.5c0-3.9 21.6-9.9 25.9-11.9s12.8-5.6 17.4-9.6c2.8-2.7 9.5-9.5 9.5-9.6v-2c-9-4.9-15.4-13.8-15.4-24.4a31.3 31.3 0 0 1 .1-3.4l5.8-14.5c2.5-6.2 13.8-10.6 19.6-10.6 12 0 18.2 1.4 27.1 7.1 0 .2.4.2.5.2 5.4 0 31.8-46.6 38.7-46.6 3.9 0 4.4 1.7 4.4 4.9a11 11 0 0 1 -.2 2.8c-4.5 27.1-8.6 54.7-8.6 82.4 0 1.6 0 4.1 2.4 4.1s6.6-3 10.1-3c1.3 0 3 .3 3 1.8 0 7.1-12.9 10-16.8 12.7zm-38-50c0-5.9-15.5-6.9-18.7-6.9h-7.2c-9.1 1.2-12.8 12.8-12.8 20.2 0 .9.2 4.9.3 5.7 2.5 4.1 6.9 10 12.3 10 .5 0 2-.2 2-.4l23.1-26 1-2.1zm6.7 7.6c-1.7-.7-3.5 3-3.9 3.9l-18.1 21c-.2.2-.2.7-.2 1 0 6.4 27.8 8.8 31.5 8.8l5.8-.2c1.2-.2 1.1-2 1.1-2.9 0-6-9.6-28.9-16.2-31.6zm28.8-39-.5-.2-.5.2c-6.3 5.2-11.8 13.9-16.4 20.7-1.5 2.2-4.7 7.5-4.7 7.7v2.9l5.8 8.7c1.5 2.4 9.7 24.4 10.9 29.1 0 .2 1.2-1.3 1.2-1.3.5-14.8 2.8-36.4 2.3-50.8 1.2-2.9 1-5.2 1-8.3 0-.6 1.9-7.2 1.7-7.9s-.7-.8-.8-.8z"/><path d="m6545.4 767.7c-1.7 0-5.2-.3-6.2-2.3-1.2 2.2-7.4 12.6-14.5 20-3.8 4.2-7.9 10.3-11.6 10.3s-2-4.2-2.8-5.9a140.8 140.8 0 0 0 -1.4-14.7c-.1-.5-.1-6.2 0-6.3.2-7.1 0-10.1 0-17.4.2-5.4-1.8-10.9-2.8-16.8-1.7-11.6 6.4-8.6 7.7-6.7a51.8 51.8 0 0 1 1.2 6.2c.3 1.5 1.5 7.9 1.3 8.2s.2 10.1.2 11.5a98.8 98.8 0 0 0 .8 18.3c.2 1.5-.8 5.2-.6 6.1s-.2 1.5-.2 1.7.7 3.3.8 3.2c4.4-3.2 9.5-10.8 11.3-13.3l5.1-8.6c.1-.2.6-1.9.8-2.4-1.5-3.3-1.2-9.6-1-13.4s6.5-22.6 13.1-22.6c1.7 0 4.5.9 5.4 2.4a31.9 31.9 0 0 1 .5 9.1c-.3 5.9-5.6 15.8-7.7 21 0 .3-.2 1.3-.2 1.5s1.3 3.4 2.7 3.4c7.5 0 15.5-11.8 20.5-11.5a2.5 2.5 0 0 1 2.7 2.7c-.2 5.1-20.4 16.3-25.1 16.3z"/><path d="m6638.1 763.2a37.4 37.4 0 0 1 -8.4 15.1c-5 5.4-15.5 13.7-23.4 13.7h-.1c-6.8 0-11.1-4.2-12.2-14-.5-.2-5.7 5.4-6 5.6-5.4 3-8.6 9.2-17.8 9.2-4.4 0-8.1-4.7-10.5-7.4v-5.2c0-9.3 2.7-20 7.4-29.3 6.8-12.8 17.7-22.7 31.8-22.7 8.1 0 7.8 11.3 9.1 16.8 2.5-4 4.9-3.7 6.7-2.8s.9 4-.3 5.9c-3.5 5.2-11.9 18.8-12.8 26.7-.7 5.9 1.7 9.9 5.9 9.9s14-9.2 16.7-11.9 4.3-6.9 9-13.3c1.2-1.7 1-1.5 2.7-1.5s2.5 1.3 2.5 3a8.3 8.3 0 0 1 -.3 2.2zm-42.7-26.6c-7.9 0-15.3 8.4-20.5 18.2s-7.8 19-7.8 25.4a3.7 3.7 0 0 0 1.2 3.2h2.5a16.1 16.1 0 0 0 10-4.2c2-1.9 11.9-13 13.6-15.2a38.5 38.5 0 0 0 5.4-18.8c0-2.5-.2-8.6-4.4-8.6z"/><path d="m6714.6 763.4a35.9 35.9 0 0 1 -8.4 15.3c-3.7 3.8-7.4 7.9-12.1 10.7a22.9 22.9 0 0 1 -13.1 4.1c-2 0-4.7 0-6.4-.9-3.9-1.8-3.9-6.9-3.9-10.6 0-6 3.4-10.7 5.9-15.8 3.9-7.4 8.8-18.1 10.5-25.5l-1.6-.2c-7.2 0-15.8 15-19.8 20.2a49.8 49.8 0 0 1 -2.7 4.5 34.8 34.8 0 0 1 -3.9 5.6 35 35 0 0 0 -3.8 5.4l-4.4 7c-2.9 4.4-5.9 8.8-8.4 8.8s-3.2-1.4-3.9-3.6c3.7-12.1 9.9-23.2 15.3-34.6 1-2 2.2-4.7 3.2-7.2 1.7-6.1 2-9.5 1-9.8s-7.5 8.1-10.7 13.5c-1.4 2.1-4.9 9-6.4 12.1a9.2 9.2 0 0 1 -4.1 4.8c-1.1.9-3.7 1.4-4.7-.3s-.1-5 .4-6l1.1-1.9a25.2 25.2 0 0 0 2.2-3.4c2.7-3.7 3.2-4.3 6.9-11.7s10.3-14.7 16-14.7 6.9 4.1 7.4 7.3a14.7 14.7 0 0 1 -.7 6.9l-3 10.6c6.9-11 17.5-21.9 27.8-23.9 4 1.5 5.3 5.2 5.3 9.1v1a222.6 222.6 0 0 1 -12.4 30.9c-1.5 3-3.9 6.9-3.9 10.3 0 1.1-.3 2.7.9 3.5a11 11 0 0 0 2.7.2 14.5 14.5 0 0 0 5.2-1.2 59.9 59.9 0 0 0 11.4-9.4 30.8 30.8 0 0 0 3.9-6.2c2-3.4 3.8-6.9 6.4-10 .6-.8 1.1-.6 2.2-.6s3 1.5 3 3.3a12 12 0 0 1 -.4 2.4z"/><path d="m6759.6 718.1c-2.2.4-24.9.2-27 .4-3.8 5.2-11.1 26.2-13.1 33.8-.3 1.1-3.7 10.4-3.8 11.6s-1.2 9.1-1.2 13.8 3.5 7.4 6.5 7.4l.4-.2c1.2-.3 6.4-.5 6.7-.7a8.2 8.2 0 0 1 3-.8c4.6-2.5 10.6-8.3 12.8-10.4 3.2-4.4 5.9-9.1 9.3-13.5 1.1-1.7 1-1.5 2.5-1.5s2.5 1.3 2.5 3a8.2 8.2 0 0 1 -.2 2.2 35.2 35.2 0 0 1 -8.4 15.1c-3.2 3.4-6.4 7.3-11.7 10.1a33.6 33.6 0 0 1 -15.3 4.7c-12.2 0-16.9-9-16.9-19.6 0-1 1-8.3 1-9.3 1.4-5.4 9-23.5 10.3-28.9.8-3 5.1-12.5 6.2-16.8a52.1 52.1 0 0 1 -7.9-.2c-1.2-.3-7.9-1.7-7.9-4.9s3.9-3.7 5.9-3.9c5-.3 9.8.7 13.3 0 .2-.1 5.2-9.4 6.7-12.7l4.7-11.5 4.9-9.6c1-1.8 5.1-10.7 9.1-10.7 1.8 0 4.4 1.3 4.4 3.5 0 3.9-4.6 9.1-6.3 12.5l-13.6 28.4c3.9.1 18.5 0 25.9 0 1.5 0 3.9 2.5 3.9 3.8 0 2.9-4.7 4.6-6.7 4.9z"/><path d="m6820.9 752.1c-16.2-1.2-31.8 3.9-47.6 3.9-2.7 0-4.4-1.2-4.4-3.9s.7-3.2 3-3.9c7.6-1.6 16.7-1.5 24.1-3.7s21.3-.8 25.9 0c1.5.2 2 3.4 2 4.2s-1.2 2.7-3 3.4z"/><path d="m6928.1 774.1c-4.7 8.4-10.1 17-15.5 24.9-10.7 16-39.7 24.3-58 24.3-13.5 0-26.6-8.1-35-18.4a4.1 4.1 0 0 1 -1-3c0-2.9 2.9-2.9 4.9-2.9 9.4 8.3 19.5 16.5 32.6 16.5 7.6 0 14.8-3.2 22-4.9 17.7-4.2 26-12.1 34.5-27.9l.7-2c-.2-.5-.8-.2-1.5.2-13.8 8-30.1 10.6-45.9 10.6-14.2 0-22.7-8.1-28-20.4a43.8 43.8 0 0 1 -3-8.6c-.7-4-.1-9.1-.1-13.3s3-9.5 3-11.6c-6.6-6.4-14.5-14.9-14.5-24.7 0-12.1 2.5-17.1 10.6-26.1 1.2-1.3 6.2-6.9 8.3-6.9s2.3 1.6 2.3 2.9c0 6.1-14.5 14.8-14.5 31 0 4 8.1 14.9 11.8 15.9 3.2-3.5 7.9-12.9 10.4-16.1 7.8-10.1 25.3-28.6 35.5-35.5 5.3-3.5 17.2-6.7 23.6-6.7 13.8 0 17.8 13.1 17.8 24.7 0 15.3-8.9 24.9-18.3 35.8a50.9 50.9 0 0 1 -39.5 18.2c-8 0-21.6-5.7-26.3-8.1-2.2 2.4-2.5 8.1-2.5 10.9 0 16.7 7.1 30 25.4 30 9.7 0 21.5-.9 30.4-4.9s15.8-7.6 22.6-13.4c2.5-2.2 8.4-8.6 9.1-16.9.1-2.2 3-2.2 4.8-2.2s4.4.4 4.4 3.1-8.7 21.3-11.1 25.5zm-12.6-93.1h-4.7c-19.7 0-37.4 19.5-49 33.6-3.5 4.4-12.4 14.5-13.8 19.8 7.4 4.4 18.5 7.3 27 7.3 15.4 0 27.2-11.6 36.3-22.9 2-2.4 4.7-5.4 6.2-8.1 2.4-4.2 3.9-13.3 3.9-18.1s-2-8.5-5.9-11.6z"/><path d="m7022.6 763.2a35.2 35.2 0 0 1 -8.4 15.1c-5 5.4-15.4 13.7-23.3 13.7h-.2c-6.7 0-11.1-4.2-12.1-14-.5-.2-5.7 5.4-6.1 5.6-5.4 3-8.6 9.2-17.8 9.2-4.4 0-8.1-4.7-10.4-7.4v-5.2c0-9.3 2.7-20 7.4-29.3 6.7-12.8 17.6-22.7 31.8-22.7 8 0 7.7 11.3 9 16.8 2.6-4 4.9-3.7 6.8-2.8s.8 4-.4 5.9c-3.5 5.2-11.9 18.8-12.8 26.7-.6 5.9 1.7 9.9 5.9 9.9s14-9.2 16.7-11.9 4.4-6.9 9.1-13.3c1.1-1.7 1-1.5 2.7-1.5s2.5 1.3 2.5 3a8.5 8.5 0 0 1 -.4 2.2zm-42.7-26.6c-7.9 0-15.3 8.4-20.5 18.2s-7.7 19-7.7 25.4a3.9 3.9 0 0 0 1.1 3.2h2.6a15.8 15.8 0 0 0 9.9-4.2c2-1.9 11.9-13 13.6-15.2a37.5 37.5 0 0 0 5.4-18.8c0-2.5-.2-8.6-4.4-8.6z"/><path d="m7073.6 763.2a39.4 39.4 0 0 1 -8.2 15.1c-4.9 5.1-14.8 13-22.6 13.7-1 .1-2 .3-3 .3-4.9 0-10.8-2-10.8-8.2s2.1-12.8 5.8-19.7 9.7-15.3 13.6-21.2c-4.9 1.2-11.1.3-12.8 0s-1.2 1.5-2.7 3.5-7.1 13.6-8.9 16c-3.9 5-3.4 7.6-7.4 7.6-1.2 0-3.9-.7-3.5-2.9l.5-3c2.3-3.2 1.6-2.5 4.8-7.9 4.4-7.1 8.1-12.8 10.8-17.3-.2-1.2-1.5-1.2-1.8-1.9l-1.4-2.2c-1-1.5-.7-5.5-.7-7.4 0-7.6 7.9-14.1 16-14.1 3.4 0 6.6 3.7 6.6 7.1s-.7 5.2-2.2 8.5a40.4 40.4 0 0 1 -3.9 6.4 26.2 26.2 0 0 0 7.4.2c3.9-.5 5.4-3.5 9.8-3.5 2.7 0 3.7 2.3 3.7 4.3a5.1 5.1 0 0 1 -1.9 3.9l-.5.5c-3.7 3.7-12.8 16-15.3 19.9-4.7 7.2-8.2 14.4-8.2 21 0 .5 1.7.8 1.7 1.2s3.7 1.6 4.7 1.6c4 0 13.9-9.2 16.5-11.9s4.3-6.9 9-13.3c1.4-1.7 1-1.5 2.7-1.5s2.6 1.3 2.6 3a8.5 8.5 0 0 1 -.4 2.2zm-41.2-34.3c0 1.7 2.5 3.5 2.7 3.5s5.9-8.2 4-11.4c-5.2-.3-6.7 3.5-6.7 7.9z"/><path d="m7149.3 673.7a110.7 110.7 0 0 1 -4.5 11.3c-5.1 11.3-16.9 34.1-22.2 45.6s-10.3 22.7-12.3 34.8a82.8 82.8 0 0 0 -1.2 15c0 .6.2 2.5.2 2.7 2 2.5 1.5 2.1 2.5 2.1a34.5 34.5 0 0 1 6.7-.5c4.1 0 14-9.2 16.7-11.9s4.2-6.9 9.1-13.3c1.1-1.7 1-1.5 2.5-1.5s2.5 1.3 2.5 3a8.2 8.2 0 0 1 -.2 2.2 35.2 35.2 0 0 1 -8.4 15.1c-4.8 5.3-14.8 13-22.7 13.7a20.6 20.6 0 0 1 -4.9.8c-14.6 0-11.6-14.3-11.7-16.5-6.6 7.3-14.7 15.7-24.8 15.7s-11.7-10.1-11.7-17.4c0-14.6 16.5-47.9 33.9-47.9 7.4 0 7.4 7.7 11.5 7.7.8 0 1.3.2 1.8-1l22.9-50.1c3.2-3.5 6.6-16.3 10.9-16.3s3.6 2 3.6 4.4a9 9 0 0 1 -.2 2.3zm-52 62.6a9 9 0 0 0 -4.3 1c-12.3 9.4-20.2 22.9-20.2 38.2 0 .8 1 7 1 7.9s2.2 1 3 1c11.8 0 27.8-26.9 27.8-36.8 0-4.6-1.5-11.3-7.3-11.3z"/><path d="m7198.9 763.2a36.9 36.9 0 0 1 -8.2 15.1c-7.6 7.9-16.8 14-27.9 14-5.1 0-11.5-1-16-4.4a18.7 18.7 0 0 1 -7.9-14.8 52.2 52.2 0 0 1 10.9-32.6c5.1-6.6 12.5-11.9 21.7-11.9 5.2 0 10.4 4 10.4 9.2a25.2 25.2 0 0 1 -6.2 16.3 41.2 41.2 0 0 1 -14.6 10.8c-2.9 1.3-10.3 3.5-13.8 6-.8 1.7-.2 2.6 0 4.4s2.9 5.7 5.5 7.1a19.9 19.9 0 0 0 10 3c8.9-1 16.1-6 22.3-12.6 2.7-2.9 4.2-6.9 9-13.3 1.3-1.7 1-1.5 2.6-1.5s2.6 1.3 2.6 3a8.5 8.5 0 0 1 -.4 2.2zm-28.1-26.7a22.7 22.7 0 0 0 -13.7 7c-4.4 4.6-8.1 11.3-8.1 16.7 0 .8-1.2 2.3-.2 2.7a66.1 66.1 0 0 0 15.5-8.3c4.2-3.2 7.4-7.4 10.1-13.8a3.1 3.1 0 0 0 .1-1c0-1.2-2.1-3.7-3.7-3.3z"/></g></g></svg>