<svg height="11in" viewBox="0 0 612 792" width="8.5in" xmlns="http://www.w3.org/2000/svg"><path d="m-9 594h630v207h-630z" fill="#fff"/><path d="m-9-9h85.5v207h-85.5z" fill="#ff6b00"/><path d="m76.5-9h76.5v207h-76.5z" fill="#fed925"/><path d="m153-9h76.5v207h-76.5z" fill="#009d4f"/><path d="m229.5-9h76.5v207h-76.5z" fill="#0033a1"/><path d="m306-9h76.5v207h-76.5z" fill="#8331a7"/><path d="m382.5-9h76.5v207h-76.5z" fill="#e31d93"/><path d="m459-9h76.5v207h-76.5z" fill="#00b2e3"/><path d="m535.5-9h85.5v207h-85.5z" fill="#f32735"/><path d="m-9 198h85.5v198h-85.5z" fill="#ff7c00"/><path d="m76.5 198h76.5v198h-76.5z" fill="#ffdc47"/><path d="m153 198h76.5v198h-76.5z" fill="#00a760"/><path d="m229.5 198h76.5v198h-76.5z" fill="#04a"/><path d="m306 198h76.5v198h-76.5z" fill="#9048b0"/><path d="m382.5 198h76.5v198h-76.5z" fill="#e9459d"/><path d="m459 198h76.5v198h-76.5z" fill="#00bae6"/><path d="m535.5 198h85.5v198h-85.5z" fill="#f84a47"/><path d="m-9 396h85.5v198h-85.5z" fill="#ff8c1c"/><path d="m76.5 396h76.5v198h-76.5z" fill="#ffe05f"/><path d="m153 396h76.5v198h-76.5z" fill="#0bb270"/><path d="m229.5 396h76.5v198h-76.5z" fill="#3956b4"/><path d="m306 396h76.5v198h-76.5z" fill="#9d5cb8"/><path d="m382.5 396h76.5v198h-76.5z" fill="#ed5fa7"/><path d="m459 396h76.5v198h-76.5z" fill="#38c2e8"/><path d="m535.5 396h85.5v198h-85.5z" fill="#fc6359"/><path d="m496.8 717.9h-.8v-5l-.8.5-.8.4v-.7a5 5 0 0 0 1.2-.8l.7-.9h.5z"/><path d="m503 717.2v.7h-4.3a.7.7 0 0 1 .1-.5 4.1 4.1 0 0 1 .5-.9l1.1-1a9.4 9.4 0 0 0 1.4-1.3 2.2 2.2 0 0 0 .3-1 1.1 1.1 0 0 0 -.3-.8 1.5 1.5 0 0 0 -1.8 0 1.7 1.7 0 0 0 -.3 1h-.8a1.7 1.7 0 0 1 .6-1.4 2 2 0 0 1 1.4-.5 1.8 1.8 0 0 1 1.5.6 1.4 1.4 0 0 1 .6 1.2 2.4 2.4 0 0 1 -.2.8l-.5.8-1.2 1.1-1 .8-.3.5z"/><path d="m503.8 714.7a9 9 0 0 1 .2-1.8 3 3 0 0 1 .7-1.1 2.5 2.5 0 0 1 1.2-.4 1.2 1.2 0 0 1 .9.3 1.3 1.3 0 0 1 .7.6 3.9 3.9 0 0 1 .4.9 6.6 6.6 0 0 1 .1 1.5 9.2 9.2 0 0 1 -.2 1.9 2.6 2.6 0 0 1 -.7 1 1.6 1.6 0 0 1 -1.2.4 1.7 1.7 0 0 1 -1.4-.6 4.1 4.1 0 0 1 -.7-2.7zm.8 0a4.2 4.2 0 0 0 .4 2.1 1.1 1.1 0 0 0 .9.6 1 1 0 0 0 .9-.6c.3-.3.4-1 .4-2.1a3.7 3.7 0 0 0 -.4-2.1 1.1 1.1 0 0 0 -.9-.5c-.4 0-.6.2-.9.5a4.8 4.8 0 0 0 -.4 2.1z"/><path d="m508.8 714.7a4.8 4.8 0 0 1 .3-1.8 1.6 1.6 0 0 1 .7-1.1 2.1 2.1 0 0 1 1.1-.4 1.2 1.2 0 0 1 .9.3 1.3 1.3 0 0 1 .7.6 3.9 3.9 0 0 1 .4.9 6.6 6.6 0 0 1 .1 1.5 9.2 9.2 0 0 1 -.2 1.9 2.6 2.6 0 0 1 -.7 1 1.6 1.6 0 0 1 -1.2.4 1.7 1.7 0 0 1 -1.4-.6 4.1 4.1 0 0 1 -.7-2.7zm.8 0a4.2 4.2 0 0 0 .4 2.1 1.2 1.2 0 0 0 .9.6 1 1 0 0 0 .9-.6c.3-.3.4-1 .4-2.1a3.7 3.7 0 0 0 -.4-2.1 1.1 1.1 0 0 0 -.9-.5c-.4 0-.6.2-.9.5a4.8 4.8 0 0 0 -.4 2.1z"/><path d="m514.3 717.9v-.9h.9v.9a1.9 1.9 0 0 1 -.2.8 1 1 0 0 1 -.6.5l-.2-.3a.8.8 0 0 0 .4-.4 3.5 3.5 0 0 0 .1-.6z"/><path d="m518.9 715.8h.8a1.9 1.9 0 0 0 .2.8l.7.5 1 .2.8-.2a.9.9 0 0 0 .6-.4c.1-.2.2-.3.2-.5a1.4 1.4 0 0 0 -.2-.6l-.6-.3-1.1-.4a3.3 3.3 0 0 1 -1.3-.4 1.3 1.3 0 0 1 -.7-.6 1.9 1.9 0 0 1 -.2-.8 1.6 1.6 0 0 1 .3-.9 1.2 1.2 0 0 1 .8-.6 2.2 2.2 0 0 1 1.2-.2 2.3 2.3 0 0 1 1.2.2 1.6 1.6 0 0 1 .9.7 1.7 1.7 0 0 1 .3 1h-.8a1.3 1.3 0 0 0 -.5-.9 2.2 2.2 0 0 0 -2.2 0 .8.8 0 0 0 -.4.7.9.9 0 0 0 .3.6 3.2 3.2 0 0 0 1.3.4l1.4.4a1.9 1.9 0 0 1 .8.7 1.4 1.4 0 0 1 .3.9 1.9 1.9 0 0 1 -.3 1 2.2 2.2 0 0 1 -.9.7l-1.2.2-1.5-.2a2.4 2.4 0 0 1 -.9-.8 2.1 2.1 0 0 1 -.3-1.2z"/><path d="m528.1 717.3a2.4 2.4 0 0 1 -.9.6h-.8a1.6 1.6 0 0 1 -1.2-.4 1 1 0 0 1 -.4-.9c0-.2 0-.5.1-.6l.4-.5.6-.3h.7l1.4-.2v-.3c0-.3 0-.5-.2-.6a1.2 1.2 0 0 0 -.9-.3 1.5 1.5 0 0 0 -.8.2c-.2.1-.3.4-.4.7h-.8a1.5 1.5 0 0 1 .4-.8 1.3 1.3 0 0 1 .7-.5l1-.2 1 .2.5.3c.2.2.2.4.3.6v1.7a4.5 4.5 0 0 0 .1 1.4 1.7 1.7 0 0 0 .2.5h-.8a.8.8 0 0 1 -.2-.6zm-.1-1.7-1.3.3h-.7l-.3.3c0 .1-.1.2-.1.4s.1.3.3.5l.7.2.8-.2a1.2 1.2 0 0 0 .5-.5 1.9 1.9 0 0 0 .1-.8z"/><path d="m530.1 712.4v-.9h.7v.9zm0 5.5v-4.7h.7v4.7z"/><path d="m532.1 717.9v-4.7h.7v.7a1.6 1.6 0 0 1 1.5-.8l.7.2a1.3 1.3 0 0 1 .6.4 1.4 1.4 0 0 1 .2.6v3.6h-.7v-2.8a5.6 5.6 0 0 0 -.1-.7l-.4-.4-.5-.2a1.4 1.4 0 0 0 -.9.3 2.2 2.2 0 0 0 -.4 1.3v2.5z"/><path d="m538.8 717.2v.7h-.6l-.7-.2-.3-.3a2.5 2.5 0 0 1 -.1-1v-2.6h-.6v-.7h.6v-1.1l.8-.5v1.6h.8v.7h-.7v3.2l.2.2z"/><path d="m539.3 716v-.8h2.4v.8z"/><path d="m542.6 717.9v-6.4h.9v5.7h3.1v.7z"/><path d="m550.6 717.3-.8.6h-.9a1.6 1.6 0 0 1 -1.2-.4 1 1 0 0 1 -.4-.9c0-.2 0-.5.1-.6l.5-.5.5-.3h.7l1.4-.2v-.3c0-.3 0-.5-.2-.6a1.2 1.2 0 0 0 -.9-.3 1.5 1.5 0 0 0 -.8.2c-.2.1-.3.4-.4.7h-.8a1.5 1.5 0 0 1 .4-.8 1.3 1.3 0 0 1 .7-.5l1-.2 1 .2.6.3a1.4 1.4 0 0 1 .2.6v1.7c0 .7.1 1.2.1 1.4a1.7 1.7 0 0 0 .2.5h-.8a.8.8 0 0 1 -.2-.6zm-.1-1.7-1.3.3h-.6l-.4.3c0 .1-.1.2-.1.4s.1.3.3.5l.7.2.8-.2a1.2 1.2 0 0 0 .5-.5 1.9 1.9 0 0 0 .1-.8z"/><path d="m555.6 717.9v-.7a1.5 1.5 0 0 1 -1.5.8h-.7l-.6-.4a1.4 1.4 0 0 1 -.2-.6c0-.2-.1-.4-.1-.8v-2.9h.8v2.6c0 .4.1.7.1.9s.1.3.3.5h1.3l.4-.5a2.8 2.8 0 0 0 .1-1v-2.5h.8v4.7z"/><path d="m557.6 717.9v-4.7h.7v.8c.2-.4.3-.6.5-.7l.5-.2a1.3 1.3 0 0 1 .8.3l-.3.7h-1a.5.5 0 0 0 -.3.4 3.1 3.1 0 0 0 -.1 1v2.4z"/><path d="m563.8 716.4h.8a1.8 1.8 0 0 1 -.7 1.1 2.5 2.5 0 0 1 -3-.2 3 3 0 0 1 0-3.6 2.2 2.2 0 0 1 1.6-.7 2.1 2.1 0 0 1 1.5.7 2.4 2.4 0 0 1 .6 1.8v.2h-3.5a2.2 2.2 0 0 0 .5 1.2 1.3 1.3 0 0 0 .9.4 1.1 1.1 0 0 0 .8-.3c.2 0 .3-.3.5-.6zm-2.6-1.3h2.6a4.6 4.6 0 0 0 -.3-.9 1.3 1.3 0 0 0 -1-.4 1.4 1.4 0 0 0 -1.3 1.3z"/><path d="m565.6 717.9v-4.7h.7v.7a1.6 1.6 0 0 1 1.5-.8l.7.2a.9.9 0 0 1 .6.4 1.4 1.4 0 0 1 .2.6c.1.1.1.4.1.7v2.9h-.8v-2.8a5.6 5.6 0 0 0 -.1-.7l-.3-.4-.6-.2a1.6 1.6 0 0 0 -.9.3 2.3 2.3 0 0 0 -.3 1.3v2.5z"/><path d="m572.3 717.2v.7h-.6a.8.8 0 0 1 -.6-.2l-.4-.3c0-.2-.1-.5-.1-1v-2.6h-.6v-.7h.6v-1.1l.8-.5v1.6h.8v.7h-.8v2.7c0 .2 0 .4.1.4s0 .1.1.2h.6z"/><path d="m576.3 717.9h-.7v-6.4h.8v2.3a1.5 1.5 0 0 1 1.2-.7l.9.2.6.5a2 2 0 0 1 .4.8 2.8 2.8 0 0 1 .1.9 2.9 2.9 0 0 1 -.6 1.9 1.8 1.8 0 0 1 -1.4.6 1.5 1.5 0 0 1 -1.3-.7zm0-2.4a3.9 3.9 0 0 0 .2 1.3 1.2 1.2 0 0 0 1 .6 1.1 1.1 0 0 0 .9-.5 1.7 1.7 0 0 0 .4-1.3 2.6 2.6 0 0 0 -.3-1.4 1.2 1.2 0 0 0 -.9-.4 1 1 0 0 0 -.9.4 1.8 1.8 0 0 0 -.4 1.3z"/><path d="m580.6 717.9v-6.4h.8v6.4z"/><path d="m583.9 717.9-1.8-4.7h.8l1 2.8a1.9 1.9 0 0 1 .3 1l.3-.9 1.1-2.9h.8l-1.8 4.7z"/><path d="m590.1 717.9v-.6a1.4 1.4 0 0 1 -1.3.7 1.7 1.7 0 0 1 -1-.3 1.8 1.8 0 0 1 -.7-.8 2.8 2.8 0 0 1 -.3-1.3 5.1 5.1 0 0 1 .2-1.3 2.2 2.2 0 0 1 .7-.9 2 2 0 0 1 1.1-.3l.7.2.6.5v-2.3h.7v6.4zm-2.5-2.3a1.7 1.7 0 0 0 .4 1.3 1.1 1.1 0 0 0 .9.5 1.4 1.4 0 0 0 .9-.5 1.9 1.9 0 0 0 .3-1.2 2.8 2.8 0 0 0 -.3-1.5 1.3 1.3 0 0 0 -1-.4.9.9 0 0 0 -.8.4 2 2 0 0 0 -.4 1.4z"/><path d="m592.3 717.9v-.9h.9v.9z"/><path d="m522.6 730.6a5.9 5.9 0 0 1 -1.1-1.9 6.4 6.4 0 0 1 -.5-2.3 6.4 6.4 0 0 1 .3-2 7.1 7.1 0 0 1 1.3-2.2h.5c-.3.6-.6 1-.7 1.3s-.3.8-.4 1.2a9.9 9.9 0 0 0 -.2 1.7 8.6 8.6 0 0 0 1.3 4.2z"/><path d="m523.9 725.6a3.3 3.3 0 0 1 .9-2.5 2.8 2.8 0 0 1 2.2-.9 2.9 2.9 0 0 1 1.6.4 3.2 3.2 0 0 1 1.1 1.2 4.7 4.7 0 0 1 .4 1.7 5.3 5.3 0 0 1 -.4 1.8 2.5 2.5 0 0 1 -1.2 1.1 2.6 2.6 0 0 1 -1.5.4 2.7 2.7 0 0 1 -1.6-.4 2.5 2.5 0 0 1 -1.1-1.2 3.2 3.2 0 0 1 -.4-1.6zm.9 0a2.4 2.4 0 0 0 .6 1.8 1.9 1.9 0 0 0 1.6.7 2.1 2.1 0 0 0 1.6-.7 2.7 2.7 0 0 0 .6-1.9 3.2 3.2 0 0 0 -.3-1.4 1.8 1.8 0 0 0 -.8-.9 2 2 0 0 0 -1.1-.3 2.5 2.5 0 0 0 -1.6.6 2.9 2.9 0 0 0 -.6 2.1z"/><path d="m531.1 728.7v-4.7h.7v.7a1.6 1.6 0 0 1 1.5-.8l.7.2.6.4a1.4 1.4 0 0 1 .2.6v3.6h-.7v-2.8a5.6 5.6 0 0 0 -.1-.7.8.8 0 0 0 -.4-.4l-.5-.2a1.4 1.4 0 0 0 -.9.3 2.2 2.2 0 0 0 -.4 1.3v2.5z"/><path d="m537.8 728v.7h-.6l-.7-.2-.3-.3a2.5 2.5 0 0 1 -.1-1v-2.6h-.6v-.6h.6v-1.1l.8-.5v1.6h.8v.7h-.7v3.1l.2.2z"/><path d="m541.6 728.1-.8.6h-.9a1.6 1.6 0 0 1 -1.2-.4 1 1 0 0 1 -.4-.9c0-.2 0-.5.1-.6l.5-.5.5-.3h.7l1.4-.2v-.3c0-.3 0-.5-.2-.6a1.2 1.2 0 0 0 -.9-.3 1.5 1.5 0 0 0 -.8.2c-.2.1-.3.4-.4.7h-.8a1.5 1.5 0 0 1 .4-.8 1.3 1.3 0 0 1 .7-.5l1-.2 1 .2.6.3a1.4 1.4 0 0 1 .2.6v1.8c0 .7.1 1.2.1 1.4l.2.5h-.8a.8.8 0 0 1 -.2-.7zm-.1-1.7-1.3.3h-.6l-.4.3c0 .1-.1.2-.1.4s.1.3.3.5l.7.2.8-.2a1.2 1.2 0 0 0 .5-.5 1.9 1.9 0 0 0 .1-.8z"/><path d="m543.6 728.7v-4.7h.7v.8c.2-.4.3-.6.5-.7l.5-.2.8.3-.3.7h-1a.5.5 0 0 0 -.3.4 3 3 0 0 0 -.2 1v2.4z"/><path d="m546.6 723.2v-.9h.8v.9zm0 5.5v-4.7h.8v4.7z"/><path d="m548.3 726.4a2.2 2.2 0 0 1 .7-1.9 2 2 0 0 1 1.5-.6 2.1 2.1 0 0 1 1.5.7 2.4 2.4 0 0 1 .6 1.7 2.8 2.8 0 0 1 -.2 1.4 2 2 0 0 1 -.8.8 2.3 2.3 0 0 1 -1.1.3 2.1 2.1 0 0 1 -1.6-.6 2.4 2.4 0 0 1 -.6-1.8zm.8 0a1.7 1.7 0 0 0 .4 1.3 1.2 1.2 0 0 0 1 .5 1.2 1.2 0 0 0 .9-.5 1.7 1.7 0 0 0 .4-1.3 2 2 0 0 0 -.4-1.4 1.1 1.1 0 0 0 -.9-.4 1.2 1.2 0 0 0 -1 .4 2 2 0 0 0 -.4 1.4z"/><path d="m554.1 730.6h-.6a7.6 7.6 0 0 0 1.3-4.2 5 5 0 0 0 -.2-1.7 5.6 5.6 0 0 0 -.4-1.2 5.7 5.7 0 0 0 -.7-1.3h.6a9.4 9.4 0 0 1 1.2 2.2 6.4 6.4 0 0 1 .3 2 6.2 6.2 0 0 1 -.4 2.3 8.6 8.6 0 0 1 -1.1 1.9z"/><path d="m559.1 728.7v-6.4h.9v3.2l3.2-3.2h1.1l-2.7 2.6 2.9 3.8h-1.2l-2.3-3.2-1 1v2.2z"/><path d="m567.8 728.7h-.8v-5l-.7.5-.8.4v-.7l1.1-.8a2.8 2.8 0 0 0 .7-.9h.5z"/><path d="m570.1 728.7v-6.4h.9v3.2l3.2-3.2h1.1l-2.7 2.6 2.9 3.8h-1.2l-2.3-3.2-1 1v2.2z"/><path d="m578.4 727h.8a1.3 1.3 0 0 0 .4 1 1.1 1.1 0 0 0 .8.3 1.8 1.8 0 0 0 1-.4 1.7 1.7 0 0 0 .3-1 1.1 1.1 0 0 0 -1.2-1.2h-.6v-.7h.1a1.2 1.2 0 0 0 .9-.3.9.9 0 0 0 .5-.8.9.9 0 0 0 -.3-.7 1.2 1.2 0 0 0 -1.6 0 1.9 1.9 0 0 0 -.4.9l-.8-.2a2.4 2.4 0 0 1 .7-1.2 1.9 1.9 0 0 1 1.3-.5 1.9 1.9 0 0 1 1 .3 1.2 1.2 0 0 1 .6.6 1.3 1.3 0 0 1 .3.8 1.1 1.1 0 0 1 -.3.8 1 1 0 0 1 -.6.5 1.5 1.5 0 0 1 .9.6 1.5 1.5 0 0 1 .3 1 1.7 1.7 0 0 1 -.6 1.4 2.3 2.3 0 0 1 -1.6.6 1.7 1.7 0 0 1 -1.4-.5 1.5 1.5 0 0 1 -.5-1.3z"/><path d="m583.7 728.7v-6.4h2.4a2.2 2.2 0 0 1 1.2.2 1.6 1.6 0 0 1 .7 2.2l-.7.6a1.5 1.5 0 0 1 .9.6 1.4 1.4 0 0 1 .3.9 1.5 1.5 0 0 1 -.2.9l-.4.6-.8.3h-3.4zm.8-3.7h2.2l.5-.3a1.4 1.4 0 0 0 .2-.6.8.8 0 0 0 -.2-.5.8.8 0 0 0 -.4-.4h-2.3zm0 3h2.2l.5-.2.3-.3a1.1 1.1 0 0 0 .1-.6.7.7 0 0 0 -.2-.6.7.7 0 0 0 -.5-.4h-2.4z"/><path d="m590.6 725.2a1.3 1.3 0 0 1 -.7-.5 1.1 1.1 0 0 1 -.3-.8 1.7 1.7 0 0 1 .5-1.2 2.2 2.2 0 0 1 1.4-.5 1.9 1.9 0 0 1 1.3.5 1.6 1.6 0 0 1 .5 1.2 1.1 1.1 0 0 1 -.2.8 1.8 1.8 0 0 1 -.7.5l.9.6a2 2 0 0 1 .3 1.1 2 2 0 0 1 -.6 1.4 2.5 2.5 0 0 1 -1.5.5 2.5 2.5 0 0 1 -1.6-.5 2.4 2.4 0 0 1 -.5-1.4 1.8 1.8 0 0 1 .3-1.1 1.5 1.5 0 0 1 .9-.6zm-.4 1.7a1.3 1.3 0 0 0 .1.6 1.2 1.2 0 0 0 .5.5l.7.2a1.4 1.4 0 0 0 1.3-1.3 1.3 1.3 0 0 0 -.4-1 1.4 1.4 0 0 0 -.9-.3 1.1 1.1 0 0 0 -1.3 1.3zm.2-3a.9.9 0 0 0 .3.7 1.1 1.1 0 0 0 .8.3 1 1 0 0 0 0-2 1.1 1.1 0 0 0 -.8.3.9.9 0 0 0 -.3.7z"/><path d="m542.4 745.5h-.8a1 1 0 0 0 -1-1l-.7.2a1.6 1.6 0 0 0 -.6.8 5.4 5.4 0 0 0 -.2 1.5 2.3 2.3 0 0 1 .7-.7l.8-.2a1.8 1.8 0 0 1 1.4.6 2 2 0 0 1 .5 1.5 2.5 2.5 0 0 1 -.2 1.2 1.6 1.6 0 0 1 -.7.7 2 2 0 0 1 -1.1.3 2 2 0 0 1 -1.6-.7 3.8 3.8 0 0 1 -.6-2.4 4.1 4.1 0 0 1 .7-2.7 1.9 1.9 0 0 1 1.6-.8 1.7 1.7 0 0 1 1.2.5 1.4 1.4 0 0 1 .6 1.2zm-3.2 2.7a1.9 1.9 0 0 0 .2.8 1 1 0 0 0 .5.6l.6.2a1.8 1.8 0 0 0 .9-.4 2 2 0 0 0 .3-1.1 1.2 1.2 0 0 0 -1.2-1.5 1.3 1.3 0 0 0 -.9.4 1.3 1.3 0 0 0 -.4 1z"/><path d="m546.3 750.3h-.8v-5l-.7.5-.9.4v-.7a3.6 3.6 0 0 0 1.2-.8 2.8 2.8 0 0 0 .7-.9h.5z"/><path d="m548.3 748.6h.8a1.9 1.9 0 0 0 .5 1 1.1 1.1 0 0 0 .8.3 1.3 1.3 0 0 0 .9-.4 1.3 1.3 0 0 0 .4-1 1.1 1.1 0 0 0 -1.2-1.2h-.6v-.7h.1a1.2 1.2 0 0 0 .9-.3.8.8 0 0 0 .4-.8 1 1 0 0 0 -1-1 1.1 1.1 0 0 0 -.8.3 1.9 1.9 0 0 0 -.4.9l-.8-.2a1.9 1.9 0 0 1 .7-1.2 1.7 1.7 0 0 1 1.3-.5 1.6 1.6 0 0 1 .9.3 1.1 1.1 0 0 1 .7.6 1.2 1.2 0 0 1 .2.8 1.1 1.1 0 0 1 -.2.8 1.5 1.5 0 0 1 -.6.5 1.6 1.6 0 0 1 .8.6 1.3 1.3 0 0 1 .4 1 1.5 1.5 0 0 1 -.7 1.4 2 2 0 0 1 -1.5.6 1.7 1.7 0 0 1 -1.4-.5 1.9 1.9 0 0 1 -.6-1.3z"/><path d="m553.3 748.4v-.8h2.4v.8z"/><path d="m560.5 749.6v.7h-4.3a4.3 4.3 0 0 1 .1-.5 2.4 2.4 0 0 1 .6-.9 4.6 4.6 0 0 1 1-1 6.1 6.1 0 0 0 1.4-1.3 1.6 1.6 0 0 0 .4-1 .9.9 0 0 0 -.4-.8 1.1 1.1 0 0 0 -.8-.3 1.1 1.1 0 0 0 -1.3 1.3h-.8a2 2 0 0 1 .6-1.4 2.5 2.5 0 0 1 1.5-.5 1.7 1.7 0 0 1 1.4.6 1.4 1.4 0 0 1 .6 1.2 2.4 2.4 0 0 1 -.2.8l-.5.8a6.9 6.9 0 0 1 -1.2 1.1l-.9.8-.4.5z"/><path d="m561.3 748.6h.8a1.9 1.9 0 0 0 .5 1 1.1 1.1 0 0 0 .8.3 1.3 1.3 0 0 0 .9-.4 1.3 1.3 0 0 0 .4-1 1.1 1.1 0 0 0 -1.2-1.2h-.6v-.7h.1a1.2 1.2 0 0 0 .9-.3.8.8 0 0 0 .4-.8 1 1 0 0 0 -1-1 1.1 1.1 0 0 0 -.8.3 1.9 1.9 0 0 0 -.4.9l-.8-.2a1.9 1.9 0 0 1 .7-1.2 1.9 1.9 0 0 1 1.3-.5 1.6 1.6 0 0 1 .9.3 1.1 1.1 0 0 1 .7.6 1.2 1.2 0 0 1 .2.8 1.1 1.1 0 0 1 -.2.8 1 1 0 0 1 -.6.5 1.6 1.6 0 0 1 .8.6 1.3 1.3 0 0 1 .4 1 1.7 1.7 0 0 1 -.6 1.4 2.5 2.5 0 0 1 -1.6.6 1.7 1.7 0 0 1 -1.4-.5 1.9 1.9 0 0 1 -.6-1.3z"/><path d="m567.6 746.8a1.6 1.6 0 0 1 -.8-.5 1.9 1.9 0 0 1 -.2-.8 1.7 1.7 0 0 1 .5-1.2 2 2 0 0 1 1.4-.5 1.9 1.9 0 0 1 1.3.5 1.6 1.6 0 0 1 .5 1.2 1.9 1.9 0 0 1 -.2.8 1.8 1.8 0 0 1 -.7.5l.9.6a2 2 0 0 1 .3 1.1 2 2 0 0 1 -.6 1.4 2.5 2.5 0 0 1 -1.5.5 2.5 2.5 0 0 1 -1.6-.5 2 2 0 0 1 -.6-1.4 1.4 1.4 0 0 1 .4-1.1 1.5 1.5 0 0 1 .9-.6zm-.4 1.7a1.3 1.3 0 0 0 .1.6l.5.5.7.2a1.1 1.1 0 0 0 .9-.4 1 1 0 0 0 .4-.9 1.3 1.3 0 0 0 -.4-1 1.7 1.7 0 0 0 -1-.3 1.6 1.6 0 0 0 -.9.3 1.7 1.7 0 0 0 -.3 1zm.2-3a.9.9 0 0 0 .3.7 1.1 1.1 0 0 0 .8.3 1 1 0 0 0 0-2 1.1 1.1 0 0 0 -.8.3.9.9 0 0 0 -.3.7z"/><path d="m571.3 748.4v-.8h2.4v.8z"/><path d="m574.4 748.6h.7a1.9 1.9 0 0 0 .5 1 1.1 1.1 0 0 0 .8.3 1.8 1.8 0 0 0 1-.4 1.7 1.7 0 0 0 .3-1 1.1 1.1 0 0 0 -1.2-1.2h-.6v-.7h.1a1.2 1.2 0 0 0 .9-.3.8.8 0 0 0 .4-.8 1.4 1.4 0 0 0 -.2-.7 1.2 1.2 0 0 0 -1.6 0 1.9 1.9 0 0 0 -.4.9l-.8-.2a2.4 2.4 0 0 1 .7-1.2 1.9 1.9 0 0 1 1.3-.5 1.6 1.6 0 0 1 .9.3 1.1 1.1 0 0 1 .7.6 1.3 1.3 0 0 1 .3.8 1.1 1.1 0 0 1 -.3.8 1 1 0 0 1 -.6.5 1.8 1.8 0 0 1 .9.6 1.9 1.9 0 0 1 -.3 2.4 2.5 2.5 0 0 1 -1.6.6 1.7 1.7 0 0 1 -1.4-.5 1.5 1.5 0 0 1 -.5-1.3z"/><path d="m579.4 748.6h.8a1.3 1.3 0 0 0 .4 1 1.1 1.1 0 0 0 .8.3 1.8 1.8 0 0 0 1-.4 1.7 1.7 0 0 0 .3-1 1.1 1.1 0 0 0 -1.2-1.2h-.6v-.7h.1a1.2 1.2 0 0 0 .9-.3.9.9 0 0 0 .5-.8.9.9 0 0 0 -.3-.7 1.2 1.2 0 0 0 -1.6 0 1.9 1.9 0 0 0 -.4.9l-.8-.2a2.4 2.4 0 0 1 .7-1.2 1.9 1.9 0 0 1 1.3-.5 1.4 1.4 0 0 1 .9.3 1.1 1.1 0 0 1 .7.6 1.3 1.3 0 0 1 .3.8 1.1 1.1 0 0 1 -.3.8 1 1 0 0 1 -.6.5 1.5 1.5 0 0 1 .9.6 1.9 1.9 0 0 1 -.3 2.4 2.3 2.3 0 0 1 -1.6.6 1.7 1.7 0 0 1 -1.4-.5 1.5 1.5 0 0 1 -.5-1.3z"/><path d="m584.4 747.1a5 5 0 0 1 .2-1.8 3 3 0 0 1 .7-1.1 2.1 2.1 0 0 1 1.2-.4 1.6 1.6 0 0 1 .9.3 1.7 1.7 0 0 1 .6.6 1.9 1.9 0 0 1 .4.9 6.1 6.1 0 0 1 .2 1.5 5 5 0 0 1 -.3 1.9 1.8 1.8 0 0 1 -.7 1 1.5 1.5 0 0 1 -1.1.4 1.9 1.9 0 0 1 -1.5-.6 4.9 4.9 0 0 1 -.6-2.7zm.8 0a4.5 4.5 0 0 0 .3 2.1 1.1 1.1 0 0 0 1.9 0 4.2 4.2 0 0 0 .4-2.1 4.8 4.8 0 0 0 -.4-2.1 1.4 1.4 0 0 0 -.9-.5 1.1 1.1 0 0 0 -.9.5 3.7 3.7 0 0 0 -.4 2.1z"/><path d="m589.4 748.6h.8a1.9 1.9 0 0 0 .4 1 1.1 1.1 0 0 0 .8.3 1.4 1.4 0 0 0 1.4-1.4 1.8 1.8 0 0 0 -.4-.9 1.2 1.2 0 0 0 -.9-.3h-.6v-.7h.1a1.7 1.7 0 0 0 1-.3 1 1 0 0 0 .4-.8.9.9 0 0 0 -.3-.7 1.2 1.2 0 0 0 -1.6 0 1.9 1.9 0 0 0 -.4.9l-.7-.2a1.7 1.7 0 0 1 .6-1.2 2.1 2.1 0 0 1 1.3-.5 1.9 1.9 0 0 1 1 .3.9.9 0 0 1 .6.6 1.3 1.3 0 0 1 .3.8 1.9 1.9 0 0 1 -.2.8 1.8 1.8 0 0 1 -.7.5 1.5 1.5 0 0 1 .9.6 1.9 1.9 0 0 1 -.3 2.4 2.3 2.3 0 0 1 -1.6.6 1.9 1.9 0 0 1 -1.4-.5 1.5 1.5 0 0 1 -.5-1.3z"/><path d="m513.9 771.9-1.4-4.7h.8l.7 2.7.3 1 .3-.9.7-2.8h.8l.7 2.8.2.8.3-.9.8-2.7h.8l-1.5 4.7h-.8l-.7-2.8-.2-.8-1 3.6z"/><path d="m520.4 771.9-1.4-4.7h.8l.7 2.7.3 1 .3-.9.7-2.8h.8l.7 2.8.2.8.3-.9.8-2.7h.8l-1.5 4.7h-.8l-.7-2.8-.2-.8-1 3.6z"/><path d="m526.9 771.9-1.4-4.7h.8l.7 2.7.3 1 .3-.9.7-2.8h.8l.7 2.8.2.8.3-.9.8-2.7h.8l-1.5 4.7h-.8l-.7-2.8-.2-.8-1 3.6z"/><path d="m532.3 771.9v-.9h.9v.9z"/><path d="m537.6 771.3-.8.6h-.9a1.6 1.6 0 0 1 -1.2-.4 1 1 0 0 1 -.4-.9c0-.2 0-.5.1-.6a1.2 1.2 0 0 1 .5-.5l.5-.3h.7l1.4-.2v-.3c0-.3 0-.5-.2-.6a1.2 1.2 0 0 0 -.9-.3 1.5 1.5 0 0 0 -.8.2c-.2.1-.3.4-.4.7h-.8a1.5 1.5 0 0 1 .4-.8 1.3 1.3 0 0 1 .7-.5l1-.2 1 .2.5.3c.2.2.2.4.3.6v1.7c0 .7.1 1.2.1 1.4a1.7 1.7 0 0 0 .2.5h-.8a.8.8 0 0 1 -.2-.6zm-.1-1.7-1.3.3h-.6l-.4.3c0 .1-.1.2-.1.4s.1.3.3.5l.7.2.8-.2a1.2 1.2 0 0 0 .5-.5 1.9 1.9 0 0 0 .1-.8z"/><path d="m540.9 771.9-1.8-4.7h.8l1 2.8.3 1 .3-.9 1-2.9h.9l-1.8 4.7z"/><path d="m547.1 771.3-.8.6h-.9a1.6 1.6 0 0 1 -1.2-.4 1 1 0 0 1 -.4-.9c0-.2 0-.5.1-.6l.5-.5.5-.3h.7l1.4-.2v-.3c0-.3 0-.5-.2-.6a1.2 1.2 0 0 0 -.9-.3 1.5 1.5 0 0 0 -.8.2c-.2.1-.3.4-.4.7h-.8a1.5 1.5 0 0 1 .4-.8 1.3 1.3 0 0 1 .7-.5l1-.2 1 .2.6.3a1.4 1.4 0 0 1 .2.6v1.7c0 .7.1 1.2.1 1.4a1.7 1.7 0 0 0 .2.5h-.8a.8.8 0 0 1 -.2-.6zm-.1-1.7-1.3.3h-.6l-.4.3c0 .1-.1.2-.1.4s.1.3.3.5l.7.2.8-.2a1.2 1.2 0 0 0 .5-.5 1.9 1.9 0 0 0 .1-.8z"/><path d="m549.1 771.9v-4.7h.7v.7a1.6 1.6 0 0 1 1.5-.8l.7.2a.9.9 0 0 1 .6.4 1.4 1.4 0 0 1 .2.6 5.6 5.6 0 0 1 .1.7v2.9h-.8v-2.8a5.6 5.6 0 0 0 -.1-.7l-.4-.4-.5-.2a1.6 1.6 0 0 0 -.9.3 2.3 2.3 0 0 0 -.3 1.3v2.5z"/><path d="m555.8 771.2v.7h-.6l-.7-.2c-.1 0-.2-.2-.3-.3a2.5 2.5 0 0 1 -.1-1v-2.6h-.6v-.7h.6v-1.1l.8-.5v1.6h.8v.7h-.7v3.2l.2.2z"/><path d="m556.3 770v-.8h2.4v.8z"/><path d="m559.4 772.3h.8a.5.5 0 0 0 .3.5 1 1 0 0 0 .8.3 1.1 1.1 0 0 0 .8-.3.9.9 0 0 0 .4-.6 2.2 2.2 0 0 0 .1-1 1.8 1.8 0 0 1 -1.3.6 1.6 1.6 0 0 1 -1.5-.7 2.2 2.2 0 0 1 -.5-1.6 2.7 2.7 0 0 1 .2-1.3 1.9 1.9 0 0 1 .7-.8 1.5 1.5 0 0 1 1.1-.4 1.7 1.7 0 0 1 1.3.7v-.6h.8v4.1a4.9 4.9 0 0 1 -.2 1.5 1.6 1.6 0 0 1 -.7.7 2.7 2.7 0 0 1 -1.2.3 2.1 2.1 0 0 1 -1.4-.4 1.3 1.3 0 0 1 -.5-1zm.7-2.8a2.1 2.1 0 0 0 .3 1.3 1.2 1.2 0 0 0 1.9 0 2.1 2.1 0 0 0 .3-1.3 2.5 2.5 0 0 0 -.3-1.3 1.3 1.3 0 0 0 -1-.4 1.2 1.2 0 0 0 -.9.4 2.3 2.3 0 0 0 -.3 1.3z"/><path d="m567.6 771.3-.8.6h-.9a1.6 1.6 0 0 1 -1.2-.4 1 1 0 0 1 -.4-.9 1.1 1.1 0 0 1 .2-.6 1 1 0 0 1 .4-.5l.5-.3h.7l1.5-.2v-.3a.6.6 0 0 0 -.3-.6 1.2 1.2 0 0 0 -.9-.3l-.8.2c-.2.1-.3.4-.4.7h-.8a1.5 1.5 0 0 1 .4-.8 1.8 1.8 0 0 1 .7-.5l1-.2 1 .2.6.3a1.4 1.4 0 0 1 .2.6 5.6 5.6 0 0 1 .1.7v2.5a1.7 1.7 0 0 0 .2.5h-.8a.8.8 0 0 1 -.2-.7zm0-1.7-1.3.3h-.7l-.3.3c-.1.1-.1.2-.1.4a.6.6 0 0 0 .2.5l.7.2.8-.2a1.2 1.2 0 0 0 .5-.5 1.9 1.9 0 0 0 .2-.8z"/><path d="m569.6 771.9v-4.7h.7v.8c.2-.4.3-.6.5-.7l.5-.2a1.3 1.3 0 0 1 .8.3l-.3.7h-1l-.3.4a3.1 3.1 0 0 0 -.1 1v2.4z"/><path d="m575.6 771.9v-.6a1.4 1.4 0 0 1 -1.3.7 1.7 1.7 0 0 1 -1-.3 3 3 0 0 1 -.8-.8 4.3 4.3 0 0 1 0-2.6 2.2 2.2 0 0 1 .7-.9 2 2 0 0 1 1.1-.3l.7.2.6.5v-2.3h.7v6.4zm-2.5-2.3a1.7 1.7 0 0 0 .4 1.3 1.1 1.1 0 0 0 .9.5 1.4 1.4 0 0 0 .9-.5 1.9 1.9 0 0 0 .3-1.2 2.1 2.1 0 0 0 -.4-1.5 1 1 0 0 0 -.9-.4.9.9 0 0 0 -.8.4 2 2 0 0 0 -.4 1.4z"/><path d="m580.8 770.4h.8a1.8 1.8 0 0 1 -.7 1.1 2.1 2.1 0 0 1 -1.4.4 2.3 2.3 0 0 1 -1.6-.6 3 3 0 0 1 0-3.6 2.4 2.4 0 0 1 1.6-.7 2.1 2.1 0 0 1 1.5.7 2.4 2.4 0 0 1 .6 1.8v.2h-3.5a2.2 2.2 0 0 0 .5 1.2 1.5 1.5 0 0 0 .9.4 1.1 1.1 0 0 0 .8-.3 1.3 1.3 0 0 0 .5-.6zm-2.6-1.3h2.6a1.2 1.2 0 0 0 -.3-.9 1.3 1.3 0 0 0 -1-.4 1.4 1.4 0 0 0 -1.3 1.3z"/><path d="m582.8 771.9v-.9h.9v.9z"/><path d="m588.1 770.2h.8a2.6 2.6 0 0 1 -.6 1.3 2 2 0 0 1 -1.3.4 2.1 2.1 0 0 1 -1.6-.6 2.4 2.4 0 0 1 -.6-1.8 2.8 2.8 0 0 1 .3-1.3 1.8 1.8 0 0 1 .8-.9 2 2 0 0 1 1.1-.3 2.1 2.1 0 0 1 1.2.4 2 2 0 0 1 .6 1.1h-.7a1.6 1.6 0 0 0 -.4-.7l-.7-.2a1.3 1.3 0 0 0 -1 .4 2.6 2.6 0 0 0 -.3 1.4 2.1 2.1 0 0 0 .3 1.3 1.4 1.4 0 0 0 1 .5.9.9 0 0 0 .7-.3 1.3 1.3 0 0 0 .4-.7z"/><path d="m592.6 771.3a2.1 2.1 0 0 1 -.8.6h-.9a1.6 1.6 0 0 1 -1.2-.4 1.3 1.3 0 0 1 -.4-.9 1.1 1.1 0 0 1 .2-.6 1 1 0 0 1 .4-.5l.6-.3h.7l1.4-.2v-.3a.6.6 0 0 0 -.3-.6 1.2 1.2 0 0 0 -.9-.3l-.8.2c-.2.1-.3.4-.4.7h-.7a1 1 0 0 1 .3-.8 1.8 1.8 0 0 1 .7-.5l1.1-.2.9.2.6.3a1.4 1.4 0 0 1 .2.6c.1.1.1.4.1.7v2.5c.1.1.1.3.2.5h-.8c-.1-.2-.1-.4-.2-.7zm0-1.7-1.3.3h-.7l-.3.3c-.1.1-.1.2-.1.4a.6.6 0 0 0 .2.5l.7.2.8-.2a.8.8 0 0 0 .5-.5 1.9 1.9 0 0 0 .2-.8z"/></svg>