<svg height="4.1in" viewBox="0 0 684 297" width="9.5in" xmlns="http://www.w3.org/2000/svg"><path d="m-9-9h702v315h-702z" fill="#fff"/><path d="m38.9 37.4h-2.9a17.6 17.6 0 0 0 5.3 12.7l2.1-2a15 15 0 0 1 -4.5-10.7z" fill="#e31d93"/><path d="m43.4 48.1-2.1 2a17.8 17.8 0 0 0 12.7 5.3v-2.9a15.1 15.1 0 0 1 -10.6-4.4z" fill="#8331a7"/><path d="m43.4 26.7-2.1-2.1a18 18 0 0 0 -5.3 12.8h2.9a14.8 14.8 0 0 1 4.5-10.7z" fill="#00b2e3"/><path d="m54.6 53.7v2.9a18 18 0 0 0 12.8-5.3l-2.1-2.1a14.8 14.8 0 0 1 -10.7 4.5z" fill="#0033a1"/><path d="m65.9 26.2a15.1 15.1 0 0 1 4.4 10.6h3a18.4 18.4 0 0 0 -5.3-12.7z" fill="#fed925"/><path d="m54 22.3v-2.9a18.3 18.3 0 0 0 -12.7 5.2l2.1 2.1a15.1 15.1 0 0 1 10.6-4.4z" fill="#f32735"/><path d="m65.9 48.7 2.1 2a17.6 17.6 0 0 0 5.3-12.7h-3a15.3 15.3 0 0 1 -4.4 10.7z" fill="#009d4f"/><path d="m65.3 25.5 2.1-2.1a18 18 0 0 0 -12.8-5.3v3a15.1 15.1 0 0 1 10.7 4.4z" fill="#ff6b00"/><path d="m41.8 37.4h-2.9a15 15 0 0 0 4.5 10.7l2-2.1a12.1 12.1 0 0 1 -3.6-8.6z" fill="#e9459d"/><path d="m45.4 46-2 2.1a15.1 15.1 0 0 0 10.6 4.4v-2.9a12.3 12.3 0 0 1 -8.6-3.6z" fill="#9048b0"/><path d="m45.4 28.7-2-2a14.8 14.8 0 0 0 -4.5 10.7h2.9a12.5 12.5 0 0 1 3.6-8.7z" fill="#00bae6"/><path d="m54.3 50.1v2.9a15 15 0 0 0 10.7-4.5l-2-2a12.5 12.5 0 0 1 -8.7 3.6z" fill="#04a"/><path d="m66.8 37.2h2.8a15.3 15.3 0 0 0 -4.4-10.7l-2 2.1a12.1 12.1 0 0 1 3.6 8.6z" fill="#ffdc47"/><path d="m54 25.2v-2.9a15.1 15.1 0 0 0 -10.6 4.4l2 2a12.2 12.2 0 0 1 8.6-3.5z" fill="#f84a47"/><path d="m63.2 46.3 2 2a15.1 15.1 0 0 0 4.4-10.6h-2.8a12.3 12.3 0 0 1 -3.6 8.6z" fill="#00a760"/><path d="m54.3 24.6a12.1 12.1 0 0 1 8.6 3.6l2.1-2a15.3 15.3 0 0 0 -10.7-4.4z" fill="#ff7c00"/><path d="m45 37.4h-3.2a12.1 12.1 0 0 0 3.6 8.6l2.2-2.2a9.3 9.3 0 0 1 -2.6-6.4z" fill="#ed5fa7"/><path d="m47.6 43.8-2.2 2.2a12.3 12.3 0 0 0 8.6 3.6v-3.2a9.3 9.3 0 0 1 -6.4-2.6z" fill="#9d5cb8"/><path d="m47.6 31-2.2-2.3a12.5 12.5 0 0 0 -3.6 8.7h3.2a9.1 9.1 0 0 1 2.6-6.4z" fill="#38c2e8"/><path d="m54 46.4v3.2a12.3 12.3 0 0 0 8.7-3.6l-2.3-2.2a9.1 9.1 0 0 1 -6.4 2.6z" fill="#3956b4"/><path d="m63.1 37.4h3.1a12.4 12.4 0 0 0 -3.5-8.7l-2.3 2.3a8.8 8.8 0 0 1 2.7 6.4z" fill="#ffe05f"/><path d="m47.6 31a8.9 8.9 0 0 1 6.4-2.7v-3.1a12.2 12.2 0 0 0 -8.6 3.5z" fill="#fc6359"/><path d="m60.4 43.8 2.3 2.2a12 12 0 0 0 3.5-8.6h-3.1a8.9 8.9 0 0 1 -2.7 6.4z" fill="#0bb270"/><path d="m60.4 31 2.3-2.3a12.2 12.2 0 0 0 -8.7-3.5v3.1a8.8 8.8 0 0 1 6.4 2.7z" fill="#ff8c1c"/><g fill="#58595b"><path d="m36 76.4.9-2.4h.4l.9 2.4h-.3l-.3-.7h-1l-.3.7zm.7-1h.8l-.2-.7c-.1-.2-.2-.3-.2-.5s-.1.3-.1.5z"/><path d="m38.5 76.4v-2.4h1.5l.3.2a.4.4 0 0 1 .1.3.8.8 0 0 1 -.2.5.6.6 0 0 1 -.5.2h.2l.3.3.4.7h-.4l-.3-.5-.2-.3-.2-.2a.1.1 0 0 1 -.1-.1h-.6v1.1zm.3-1.4h1.2a.4.4 0 0 0 .1-.3v-.2h-1.3z"/><path d="m41.4 76.4v-2.1h-.7v-.3h1.9v.3h-.8v2.1z"/><path d="m43.6 75.6h.3c0 .1.1.2.1.3l.3.2h.7l.2-.2v-.4h-.7l-.4-.2-.3-.2c0-.1-.1-.2-.1-.3s.1-.2.1-.3l.3-.3h.9l.4.3c0 .1.1.2.1.4h-.3l-.2-.4h-.8l-.2.3c0 .1.1.1.1.2l.5.2h.5q.3.2.3.3a.4.4 0 0 1 .1.3.8.8 0 0 1 -.1.4c0 .1-.1.2-.3.2h-1q-.1 0-.3-.3a.5.5 0 0 1 -.2-.5z"/><path d="m47.5 74h.4v1.4a4.3 4.3 0 0 1 -.1.5l-.3.4h-1.1q-.3-.1-.3-.3a1.3 1.3 0 0 1 -.1-.6v-1.4h.3v1.4c0 .2 0 .3.1.4s.1.2.1.3h.9c.1-.1.1-.3.1-.6z"/><path d="m48.4 76.4v-2.4h1.5c.1.1.2.2.2.3a.4.4 0 0 1 .1.3.8.8 0 0 1 -.2.5l-.7.2h-.6v1zm.3-1.3h1.1v-.3a.4.4 0 0 0 -.1-.3h-1z"/><path d="m50.6 76.4v-2.4h1.6c0 .1.1.2.2.3v.3c0 .2 0 .4-.2.5a1 1 0 0 1 -.7.2h-.6v1zm.3-1.3h1.1a.5.5 0 0 0 0-.6h-1.1z"/><path d="m52.8 76.4v-2.4h.3v2.1h1.2v.3z"/><path d="m54.7 76.4v-2.4h.4v2.4z"/><path d="m55.6 76.4v-2.4h1.8v.3h-1.5v.7h1.4v.3h-1.4v.8h1.5v.3z"/><path d="m57.7 75.6h.3c0 .1.1.2.1.3l.3.2h.7l.2-.2v-.4h-.7l-.4-.2-.3-.2c0-.1-.1-.2-.1-.3s.1-.2.1-.3l.3-.3h.9l.4.3c0 .1.1.2.1.4h-.3l-.2-.4h-.8l-.2.3c0 .1.1.1.1.2l.5.2h.5q.3.2.3.3a.4.4 0 0 1 .1.3.8.8 0 0 1 -.1.4c0 .1-.1.2-.3.2h-1q-.2 0-.3-.3a.5.5 0 0 1 -.2-.5z"/><path d="m60.9 75.6h.3a.4.4 0 0 0 .1.3l.2.2h.7l.2-.2c.1 0 .1-.1.1-.2a.3.3 0 0 0 -.1-.2h-.6l-.5-.2-.2-.2a.5.5 0 0 1 0-.6l.3-.3h.9l.3.3c.1.1.1.2.1.4h-.3c0-.2-.1-.3-.1-.4h-.9a.4.4 0 0 0 -.1.3c0 .1 0 .1.1.2s.2.1.5.2h.5l.3.3a.4.4 0 0 1 .1.3.8.8 0 0 1 -.1.4l-.3.2h-1c-.2 0-.3-.1-.4-.3s-.1-.3-.1-.5z"/><path d="m63.8 76.4v-2.1h-.8v-.3h1.9v.3h-.8v2.1z"/><path d="m65.1 75.2a1.2 1.2 0 0 1 .3-.9 1.3 1.3 0 0 1 .9-.4l.5.2.5.4c0 .2.1.4.1.7a1.4 1.4 0 0 1 -.2.6 1 1 0 0 1 -.4.5h-1.2l-.4-.5c0-.2-.1-.4-.1-.6zm.3 0a.9.9 0 0 0 .3.7c.1.2.3.2.5.2s.5 0 .6-.2a.9.9 0 0 0 .3-.7 4.3 4.3 0 0 0 -.1-.5l-.3-.4h-.4a.8.8 0 0 0 -.6.2 1.1 1.1 0 0 0 -.3.7z"/><path d="m67.8 76.4v-2.4h1.5c.2 0 .2.1.3.2a.4.4 0 0 1 .1.3.7.7 0 0 1 -.1.5l-.6.2h.2l.3.3.4.7h-.4l-.3-.5-.2-.3-.2-.2h-.7v1.1zm.3-1.4h1.2a.4.4 0 0 0 .1-.3v-.2h-1.3z"/><path d="m70.2 76.4v-2.4h1.7v.3h-1.4v.7h1.4v.3h-1.4v.8h1.5v.3z"/></g><path d="m28.6 66.9c-.1.5.2 2.2-.4 2.2s-.5-.1-.5-.3v-1.9a8.7 8.7 0 0 1 -2.3-.1l-1.8-.6a17.4 17.4 0 0 1 -1.5 1.3 8.5 8.5 0 0 1 -3.7 1.2h-.4c0-.3 1.8-.8 2.2-1l1.5-.8.8-.8v-.2a2.5 2.5 0 0 1 -1.3-2.1v-.3l.5-1.2a2.1 2.1 0 0 1 1.7-1 3.5 3.5 0 0 1 2.3.7h.1c.4 0 2.7-4 3.3-4s.4.1.4.4v.2a42.9 42.9 0 0 0 -.8 7.1c0 .1 0 .4.2.4s.6-.3.9-.3.2 0 .2.2-1.1.6-1.4.9zm-3.3-4.3c0-.5-1.3-.6-1.6-.6h-.6c-.8.1-1.1 1.1-1.1 1.7v.5c.3.3.6.8 1.1.8h.2l2-2.2zm.6.6-.3.3-1.6 1.8c0 .6 2.4.8 2.7.8h.5c.1 0 .1-.2.1-.3s-.8-2.4-1.4-2.6zm2.5-3.3a.1.1 0 0 0 -.1-.1 11.5 11.5 0 0 0 -1.4 1.7l-.4.7v.2l.5.8c.1.2.8 2.1.9 2.5h.1a32.4 32.4 0 0 0 .2-4.4 1.5 1.5 0 0 0 .1-.7 6.4 6.4 0 0 0 .2-.7z"/><path d="m33.9 66.8c-.2 0-.5 0-.6-.2a7.8 7.8 0 0 1 -1.2 1.7c-.3.4-.7.9-1 .9s-.2-.4-.3-.5a2.9 2.9 0 0 0 -.1-1.3v-2a7.7 7.7 0 0 0 -.2-1.5c-.2-1 .5-.7.6-.5s.1.4.1.5a2.5 2.5 0 0 1 .2.7v1a8.6 8.6 0 0 0 0 1.6c.1.1 0 .4 0 .5v.3a4.7 4.7 0 0 0 1-1.1l.4-.8c.1 0 .1-.1.1-.2a4.1 4.1 0 0 1 -.1-1.1c0-.3.6-2 1.2-2l.4.2a2.5 2.5 0 0 1 .1.8 9.6 9.6 0 0 1 -.7 1.8c0 .1.1.3.2.3s1.3-1 1.8-1 .2.1.2.3-1.7 1.6-2.1 1.6z"/><path d="m41.8 66.4a4.2 4.2 0 0 1 -.7 1.3 3.2 3.2 0 0 1 -2 1.2c-.6 0-1-.4-1.1-1.2s-.5.4-.5.4-.7.8-1.5.8-.7-.4-.9-.6v-.5a6.1 6.1 0 0 1 .6-2.5 3.2 3.2 0 0 1 2.8-1.9c.6 0 .6 1 .7 1.4s.5-.3.6-.2.1.3 0 .5a7 7 0 0 0 -1.1 2.3c-.1.5.1.8.5.8s1.2-.8 1.4-1l.8-1.1.2-.2c.2 0 .2.2.2.3zm-3.7-2.3c-.6 0-1.3.7-1.7 1.6a5.2 5.2 0 0 0 -.7 2.1c0 .2 0 .2.1.3h.2a1.4 1.4 0 0 0 .9-.3 15.4 15.4 0 0 1 1.2-1.3 3.3 3.3 0 0 0 .4-1.7c0-.2 0-.7-.4-.7z"/><path d="m48.4 66.4a3.3 3.3 0 0 1 -.7 1.3 8.7 8.7 0 0 1 -1.1.9 1.5 1.5 0 0 1 -1.1.4h-.5c-.4-.1-.4-.6-.4-.9a3.9 3.9 0 0 1 .5-1.4 6.4 6.4 0 0 0 .9-2.1h-.1c-.6 0-1.4 1.3-1.7 1.8l-.2.4c-.2.2-.3.4-.4.4l-.3.5-.4.6c-.2.4-.5.8-.7.8a.3.3 0 0 1 -.3-.3 16 16 0 0 1 1.3-3 1.4 1.4 0 0 0 .2-.6c.2-.6.2-.8.1-.9a5 5 0 0 0 -.9 1.2l-.5 1-.4.4c-.1.1-.3.2-.4 0s0-.4 0-.5v-.4c.1 0 .1-.1.2-.3s.3-.3.6-1 .9-1.2 1.4-1.2a.5.5 0 0 1 .6.6c.1.2 0 .4 0 .6l-.3.9a4.8 4.8 0 0 1 2.4-2.1 1 1 0 0 1 .5.8c-.3 1-.8 1.9-1.1 2.7a2.6 2.6 0 0 0 -.3.8c0 .1-.1.3 0 .4h.7l1-.8.3-.6.7-.8h.2c.2 0 .2.1.2.3z"/><path d="m52.2 62.5h-2.3a20.9 20.9 0 0 0 -1.1 3c0 .1-.3.8-.3.9s-.1.8-.1 1.2.3.7.5.7h.9a5.3 5.3 0 0 0 1.1-.9c.3-.3.5-.8.8-1.1l.2-.2c.2 0 .2.2.2.3v.2a4.2 4.2 0 0 1 -.7 1.3l-1 .9a5 5 0 0 1 -1.3.4c-1.1 0-1.5-.8-1.5-1.7v-.8c.1-.5.8-2 .9-2.5l.5-1.5a.8.8 0 0 1 -.7 0c-.1 0-.6-.1-.6-.4s.3-.3.5-.3h1.1a9.1 9.1 0 0 0 .6-1.1l.4-1 .4-.8c.1-.2.4-.9.8-.9s.4.1.4.3-.4.7-.6 1-1.1 2.5-1.1 2.5h2.2a.5.5 0 0 1 .3.3c.1 0-.3.2-.5.2z"/><path d="m57.5 65.4c-1.4-.1-2.7.4-4.1.4a.4.4 0 0 1 -.4-.4c0-.2.1-.2.3-.3a15.2 15.2 0 0 0 2.1-.3h2.2c.1 0 .2.3.2.3a.3.3 0 0 1 -.3.3z"/><path d="m66.7 67.3a25.3 25.3 0 0 1 -1.3 2.2c-.9 1.3-3.4 2-5 2a4 4 0 0 1 -3-1.5.4.4 0 0 1 -.1-.3c0-.2.3-.2.4-.2a4.4 4.4 0 0 0 2.8 1.4 10.6 10.6 0 0 0 1.9-.4 4.3 4.3 0 0 0 3-2.4v-.2c0-.1 0 0-.1 0a7.7 7.7 0 0 1 -3.9.9 2.5 2.5 0 0 1 -2.4-1.7l-.3-.8v-1.1c0-.5.3-.8.3-1s-1.3-1.3-1.3-2.1a2.8 2.8 0 0 1 .9-2.3l.7-.6c.2 0 .2.2.2.3s-1.2 1.3-1.2 2.6a2.4 2.4 0 0 0 1 1.4 11 11 0 0 0 .9-1.4 22 22 0 0 1 3.1-3 4.3 4.3 0 0 1 2-.6c1.2 0 1.5 1.1 1.5 2.1a4.7 4.7 0 0 1 -1.6 3.1 4.3 4.3 0 0 1 -3.4 1.6 7.1 7.1 0 0 1 -2.2-.7 1.5 1.5 0 0 0 -.2.9c0 1.4.6 2.6 2.1 2.6a8 8 0 0 0 2.7-.4 12.2 12.2 0 0 0 1.9-1.2 2.6 2.6 0 0 0 .8-1.4c0-.2.2-.2.4-.2s.4 0 .4.2a8.8 8.8 0 0 1 -1 2.2zm-1.1-8h-.4c-1.7 0-3.2 1.7-4.2 2.9a17.7 17.7 0 0 0 -1.2 1.7 5 5 0 0 0 2.4.6c1.3 0 2.3-1 3.1-1.9l.5-.7a4.5 4.5 0 0 0 .3-1.6 1.1 1.1 0 0 0 -.5-1z"/><path d="m74.8 66.4a2.8 2.8 0 0 1 -.7 1.3 3.2 3.2 0 0 1 -2 1.2c-.6 0-1-.4-1-1.2s-.5.4-.6.4-.7.8-1.5.8-.7-.4-.9-.6v-.5a6.1 6.1 0 0 1 .6-2.5 3.3 3.3 0 0 1 2.8-1.9c.7 0 .6 1 .7 1.4s.5-.3.6-.2.1.3 0 .5a7 7 0 0 0 -1.1 2.3c-.1.5.1.8.5.8s1.2-.8 1.4-1 .4-.6.8-1.1l.2-.2a.3.3 0 0 1 .3.3c0 .1-.1.1-.1.2zm-3.6-2.3c-.7 0-1.3.7-1.8 1.6a5.2 5.2 0 0 0 -.7 2.1c0 .2 0 .2.1.3h.3a1.1 1.1 0 0 0 .8-.3 15.4 15.4 0 0 1 1.2-1.3 3.3 3.3 0 0 0 .4-1.7c0-.2 0-.7-.3-.7z"/><path d="m79.2 66.4a4.2 4.2 0 0 1 -.7 1.3 4.7 4.7 0 0 1 -1.9 1.2h-.3c-.4 0-.9-.2-.9-.7a4.1 4.1 0 0 1 .5-1.7c.3-.6.8-1.3 1.1-1.8h-1.1l-.2.3-.7 1.3c-.4.5-.3.7-.7.7s-.3-.1-.3-.2v-.3l.4-.7c.3-.6.7-1.1.9-1.5h-.2v-.3c-.1-.2 0-.5 0-.7a1.3 1.3 0 0 1 1.3-1.2.6.6 0 0 1 .6.6 1.9 1.9 0 0 1 -.2.8l-.3.5h.6c.3 0 .5-.3.9-.3s.3.2.3.4-.1.2-.2.3l-1.3 1.7a3.6 3.6 0 0 0 -.8 1.9h.2c0 .1.3.1.4.1s1.2-.8 1.4-1l.8-1.1.2-.2c.2 0 .2.2.2.3zm-3.5-3a.4.4 0 0 0 .2.3c.1-.1.5-.7.4-.9s-.6.3-.6.6z"/><path d="m85.7 58.7a4.2 4.2 0 0 1 -.4 1l-1.9 3.9a8.2 8.2 0 0 0 -1 3 5.7 5.7 0 0 0 -.1 1.3v.2l.2.2h.6c.3 0 1.2-.8 1.4-1l.8-1.1.2-.2c.2 0 .2.2.2.3v.2a4.2 4.2 0 0 1 -.7 1.3 4.5 4.5 0 0 1 -2 1.2h-.4c-1.3 0-1-1.2-1-1.4s-1.3 1.4-2.1 1.4-1-.9-1-1.5 1.4-4.1 2.9-4.1.6.6 1 .6a.1.1 0 0 0 .1-.1l2-4.3c.3-.3.5-1.4.9-1.4s.3.2.3.4zm-4.5 5.4h-.3a4 4 0 0 0 -1.8 3.2v.7h.3c1 0 2.4-2.3 2.4-3.2s-.1-.7-.6-.7z"/><path d="m90 66.4a4.2 4.2 0 0 1 -.7 1.3 3.5 3.5 0 0 1 -2.4 1.2 2.3 2.3 0 0 1 -1.4-.4 1.7 1.7 0 0 1 -.7-1.3 4.6 4.6 0 0 1 1-2.8 2.4 2.4 0 0 1 1.8-1 .9.9 0 0 1 .9.8 2.4 2.4 0 0 1 -.5 1.4 3.8 3.8 0 0 1 -1.3.9 4.5 4.5 0 0 0 -1.2.6v.3a1.5 1.5 0 0 0 .5.6 1.7 1.7 0 0 0 .9.3 3.1 3.1 0 0 0 1.9-1.1 8.8 8.8 0 0 1 .8-1.1c.1-.2 0-.2.2-.2s.2.2.2.3zm-2.4-2.3a2.3 2.3 0 0 0 -1.2.6 2.3 2.3 0 0 0 -.7 1.4c0 .1-.1.2 0 .3l1.3-.7a3.8 3.8 0 0 0 .9-1.2.5.5 0 0 0 -.3-.4z"/><path d="m21.6 100.7h-.8v-5a1.8 1.8 0 0 1 -.7.5c-.4.2-.6.4-.9.4v-.7a5 5 0 0 0 1.2-.8l.7-.8h.5z"/><path d="m27.8 100v.7h-4.3a.9.9 0 0 1 .1-.5 4.1 4.1 0 0 1 .5-.9l1.1-1a9.4 9.4 0 0 0 1.4-1.3 2.6 2.6 0 0 0 .4-1c0-.3-.2-.5-.4-.8a1.3 1.3 0 0 0 -2.1 1h-.8a1.8 1.8 0 0 1 .6-1.4 2.2 2.2 0 0 1 1.5-.4 1.6 1.6 0 0 1 1.4.5 1.5 1.5 0 0 1 .6 1.3 1.9 1.9 0 0 1 -.2.7 3.5 3.5 0 0 1 -.5.8l-1.2 1.1-1 .8-.3.5z"/><path d="m28.6 97.6a5 5 0 0 1 .3-1.9 1.9 1.9 0 0 1 .7-1.1 2 2 0 0 1 1.1-.3c.4 0 .7 0 .9.2a1.3 1.3 0 0 1 .7.6l.4.9a7.1 7.1 0 0 1 .1 1.6 9 9 0 0 1 -.2 1.8 4.1 4.1 0 0 1 -.7 1.1 2.1 2.1 0 0 1 -1.2.3 1.7 1.7 0 0 1 -1.4-.6 3.8 3.8 0 0 1 -.7-2.6zm.8 0a4.8 4.8 0 0 0 .4 2.1 1.4 1.4 0 0 0 .9.5 1.1 1.1 0 0 0 .9-.5 3.7 3.7 0 0 0 .4-2.1 3.9 3.9 0 0 0 -.4-2.2 1.1 1.1 0 0 0 -.9-.5 1.4 1.4 0 0 0 -.9.5 5 5 0 0 0 -.4 2.2z"/><path d="m33.6 97.6a5 5 0 0 1 .3-1.9 2.6 2.6 0 0 1 .7-1.1 2 2 0 0 1 1.1-.3c.4 0 .7 0 .9.2a1.3 1.3 0 0 1 .7.6 2.5 2.5 0 0 1 .4.9 7.1 7.1 0 0 1 .1 1.6 5 5 0 0 1 -.2 1.8 4.1 4.1 0 0 1 -.7 1.1 2.1 2.1 0 0 1 -1.2.3 1.7 1.7 0 0 1 -1.4-.6 3.8 3.8 0 0 1 -.7-2.6zm.8 0a4.8 4.8 0 0 0 .4 2.1 1.4 1.4 0 0 0 .9.5 1.1 1.1 0 0 0 .9-.5 3.7 3.7 0 0 0 .4-2.1 3.9 3.9 0 0 0 -.4-2.2 1.1 1.1 0 0 0 -.9-.5 1 1 0 0 0 -.8.5 3.7 3.7 0 0 0 -.5 2.2z"/><path d="m39.1 100.7v-.9h.9v.9a1.5 1.5 0 0 1 -.2.8 1 1 0 0 1 -.6.5l-.2-.3.4-.4c.1-.1.1-.3.1-.6z"/><path d="m43.7 98.7h.8a1.9 1.9 0 0 0 .2.8 1.8 1.8 0 0 0 .7.5l1 .2.8-.2a.9.9 0 0 0 .6-.4.7.7 0 0 0 0-1 .9.9 0 0 0 -.6-.4l-1.1-.3-1.3-.4-.7-.6a2.4 2.4 0 0 1 -.2-.8 1.6 1.6 0 0 1 1.1-1.7l1.2-.2 1.2.2a2.2 2.2 0 0 1 .9.7 1.7 1.7 0 0 1 .3 1h-.8a1.9 1.9 0 0 0 -.5-1 2.2 2.2 0 0 0 -2.2 0 1 1 0 0 0 -.4.7.9.9 0 0 0 .3.6 3.2 3.2 0 0 0 1.3.4l1.4.4a1.9 1.9 0 0 1 .8.7 1.6 1.6 0 0 1 .3.9 1.7 1.7 0 0 1 -.3 1 2.7 2.7 0 0 1 -.8.7 2.7 2.7 0 0 1 -1.3.2 3.4 3.4 0 0 1 -1.5-.2 2.3 2.3 0 0 1 -.9-.8 2 2 0 0 1 -.3-1z"/><path d="m52.9 100.2-.8.5h-.9a2.1 2.1 0 0 1 -1.2-.3 1.3 1.3 0 0 1 -.4-1 1.3 1.3 0 0 1 .1-.6 1.2 1.2 0 0 1 .5-.5l.5-.2.7-.2a4.1 4.1 0 0 0 1.4-.2v-.2c0-.4 0-.6-.2-.7a1.2 1.2 0 0 0 -.9-.3 1.5 1.5 0 0 0 -.8.2c-.2.1-.3.4-.4.7h-.8a2 2 0 0 1 .4-.8 1.3 1.3 0 0 1 .7-.5h2l.6.4a.8.8 0 0 1 .2.5v1.8c0 .7.1 1.2.1 1.4a.8.8 0 0 0 .2.5h-.8a.8.8 0 0 1 -.2-.5zm-.1-1.8-1.3.3h-.6l-.4.3c0 .1-.1.2-.1.4a.5.5 0 0 0 .3.5l.7.2a1.1 1.1 0 0 0 .8-.2 1.2 1.2 0 0 0 .5-.5 1.9 1.9 0 0 0 .1-.8z"/><path d="m54.9 95.2v-.9h.8v.9zm0 5.5v-4.6h.8v4.6z"/><path d="m56.9 100.7v-4.6h.7v.6a1.6 1.6 0 0 1 1.5-.7h.7l.6.4a1.4 1.4 0 0 1 .2.6 5.4 5.4 0 0 1 .1.8v2.8h-.8v-2.7a5.6 5.6 0 0 0 -.1-.7.8.8 0 0 0 -.4-.4l-.5-.2a1.8 1.8 0 0 0 -.9.4 1.7 1.7 0 0 0 -.3 1.2v2.5z"/><path d="m63.6 100v.7h-1.2l-.3-.4a2 2 0 0 1 -.1-.9v-2.7h-.6v-.6h.6v-1.2l.8-.5v1.7h.8v.6h-.8v3.1l.2.2z"/><path d="m64.1 98.8v-.8h2.4v.8z"/><path d="m67.4 100.7v-6.4h.9v5.7h3.2v.7z"/><path d="m75.4 100.2-.8.5h-.9a2.1 2.1 0 0 1 -1.2-.3 1.3 1.3 0 0 1 -.4-1 1.4 1.4 0 0 1 .2-.6 1 1 0 0 1 .4-.5l.5-.2.7-.2 1.4-.2a.3.3 0 0 0 .1-.2c0-.4-.1-.6-.3-.7a1.2 1.2 0 0 0 -.9-.3l-.8.2c-.2.1-.3.4-.4.7h-.8a2 2 0 0 1 .4-.8 1.3 1.3 0 0 1 .7-.5h2l.6.4a.8.8 0 0 1 .2.5 5.6 5.6 0 0 1 .1.7v2.5a.8.8 0 0 0 .2.5h-.8a.8.8 0 0 1 -.2-.5zm-.1-1.8-1.2.3h-.7l-.3.3a.5.5 0 0 0 -.2.4.5.5 0 0 0 .3.5l.7.2a1.1 1.1 0 0 0 .8-.2 1.2 1.2 0 0 0 .5-.5 1.9 1.9 0 0 0 .1-.8z"/><path d="m80.4 100.7v-.7a1.4 1.4 0 0 1 -1.4.8h-.8a1.1 1.1 0 0 1 -.5-.4c-.2-.2-.2-.4-.3-.6v-3.7h.8v3.4a.9.9 0 0 0 .3.5l.6.2.7-.2a1 1 0 0 0 .4-.5 2 2 0 0 0 .2-.9v-2.5h.7v4.6z"/><path d="m82.4 100.7v-4.6h.7v.7c.2-.4.3-.6.5-.7h.5a1.2 1.2 0 0 1 .8.2l-.3.7h-1l-.3.5a2.5 2.5 0 0 0 -.1.9v2.4z"/><path d="m88.6 99.2h.8a1.8 1.8 0 0 1 -.7 1.1 2.1 2.1 0 0 1 -1.4.4 2.3 2.3 0 0 1 -1.6-.6 2.4 2.4 0 0 1 -.6-1.8 2.6 2.6 0 0 1 .6-1.8 2.3 2.3 0 0 1 1.6-.6 2 2 0 0 1 1.5.6 2.4 2.4 0 0 1 .6 1.8v.2h-3.5a2.2 2.2 0 0 0 .5 1.2 1.1 1.1 0 0 0 .9.4l.8-.2a1.6 1.6 0 0 0 .5-.7zm-2.6-1.3h2.6l-.3-.8a1.4 1.4 0 0 0 -1-.5 1.4 1.4 0 0 0 -1.3 1.3z"/><path d="m90.4 100.7v-4.6h.7v.6a1.6 1.6 0 0 1 1.5-.7h.8a1 1 0 0 1 .5.4 1.4 1.4 0 0 1 .2.6c.1.1.1.4.1.8v2.8h-.8v-2.7c0-.3 0-.6-.1-.7l-.3-.4-.6-.2a1.8 1.8 0 0 0 -.9.4 1.7 1.7 0 0 0 -.3 1.2v2.5z"/><path d="m97.1 100v.7h-1.1l-.4-.4a7.8 7.8 0 0 1 -.1-.9v-2.7h-.5v-.6h.5v-1.2l.8-.5v1.7h.8v.6h-.8v2.7c0 .2 0 .4.1.4s0 .2.1.2z"/><path d="m101.1 100.7h-.7v-6.4h.8v2.3a1.5 1.5 0 0 1 1.3-.6h.8l.6.5a2 2 0 0 1 .4.8 2.8 2.8 0 0 1 .1.9 2.9 2.9 0 0 1 -.6 1.9 1.8 1.8 0 0 1 -1.4.6 1.5 1.5 0 0 1 -1.3-.7zm0-2.3a3.7 3.7 0 0 0 .2 1.2 1.2 1.2 0 0 0 1 .6 1.1 1.1 0 0 0 .9-.5 1.7 1.7 0 0 0 .4-1.3 2.6 2.6 0 0 0 -.3-1.4 1.8 1.8 0 0 0 -.9-.4 1.1 1.1 0 0 0 -.9.5 1.7 1.7 0 0 0 -.4 1.3z"/><path d="m105.4 100.7v-6.4h.8v6.4z"/><path d="m108.7 100.7-1.8-4.6h.9l1 2.8.3.9a5.1 5.1 0 0 1 .2-.9l1.1-2.8h.8l-1.8 4.6z"/><path d="m114.9 100.7v-.6a1.4 1.4 0 0 1 -1.3.7 1.7 1.7 0 0 1 -1-.3 1.8 1.8 0 0 1 -.7-.8 2.8 2.8 0 0 1 -.3-1.3 5.1 5.1 0 0 1 .2-1.3 2.7 2.7 0 0 1 .7-.8 2.3 2.3 0 0 1 1.1-.3h.7l.6.5v-2.2h.8v6.4zm-2.5-2.3a1.7 1.7 0 0 0 .4 1.3 1.4 1.4 0 0 0 .9.5 1.8 1.8 0 0 0 .9-.4 2.5 2.5 0 0 0 .3-1.3 2.4 2.4 0 0 0 -.3-1.4 1.4 1.4 0 0 0 -.9-.5 1.3 1.3 0 0 0 -.9.4 2 2 0 0 0 -.4 1.4z"/><path d="m117.1 100.7v-.9h.9v.9z"/><path d="m20.3 113.4a8.6 8.6 0 0 1 -1.1-1.9 5.9 5.9 0 0 1 -.4-2.3 6.4 6.4 0 0 1 .3-2 11.9 11.9 0 0 1 1.2-2.2h.6c-.3.6-.6 1-.7 1.3a5.6 5.6 0 0 0 -.4 1.2 9.9 9.9 0 0 0 -.2 1.7 7.6 7.6 0 0 0 1.3 4.2z"/><path d="m21.7 108.4a3.7 3.7 0 0 1 .8-2.5 3 3 0 0 1 2.3-.9 2.9 2.9 0 0 1 1.6.4 4.3 4.3 0 0 1 1.1 1.2 4.7 4.7 0 0 1 .3 1.7 3.4 3.4 0 0 1 -.4 1.8 2 2 0 0 1 -1.1 1.1 2.8 2.8 0 0 1 -1.5.4 3.1 3.1 0 0 1 -1.7-.4 3.2 3.2 0 0 1 -1.1-1.2 4.1 4.1 0 0 1 -.3-1.6zm.9 0a2.4 2.4 0 0 0 .6 1.8 1.8 1.8 0 0 0 1.5.7 1.9 1.9 0 0 0 1.6-.7 2.7 2.7 0 0 0 .7-1.9 3.2 3.2 0 0 0 -.3-1.4 1.8 1.8 0 0 0 -.8-.9 2 2 0 0 0 -1.1-.3 2.3 2.3 0 0 0 -1.6.6 2.9 2.9 0 0 0 -.6 2.1z"/><path d="m28.8 111.5v-4.6h.7v.6a1.8 1.8 0 0 1 1.5-.7h.8a1 1 0 0 1 .5.4l.3.6v3.6h-.8v-2.8c0-.3 0-.6-.1-.7s-.1-.3-.3-.4l-.5-.2a1.3 1.3 0 0 0 -.9.4c-.3.2-.4.6-.4 1.2v2.5z"/><path d="m35.6 110.8v.7h-1.2c-.1-.1-.3-.3-.3-.4a2 2 0 0 1 -.1-.9v-2.7h-.6v-.6h.6v-1.2l.8-.5v1.7h.8v.6h-.8v3.1a.3.3 0 0 0 .1.2z"/><path d="m39.4 111-.9.5h-.8a1.9 1.9 0 0 1 -1.2-.3 1.3 1.3 0 0 1 -.4-1 1.3 1.3 0 0 1 .1-.6l.4-.5.6-.2.7-.2 1.4-.2v-.2a1 1 0 0 0 -.2-.7 1.2 1.2 0 0 0 -.9-.3l-.8.2c-.2.1-.3.4-.4.7h-.8a2 2 0 0 1 .4-.8 1 1 0 0 1 .6-.5h2.1a1 1 0 0 1 .5.4l.3.5v1.8a4.5 4.5 0 0 0 .1 1.4.8.8 0 0 0 .2.5h-.9a4.3 4.3 0 0 1 -.1-.5zm-.1-1.8-1.3.3h-.7l-.3.3c-.1.1-.1.2-.1.4a.5.5 0 0 0 .3.5 1 1 0 0 0 .7.2 1.4 1.4 0 0 0 1.3-.7 1.9 1.9 0 0 0 .1-.8z"/><path d="m41.3 111.5v-4.6h.7v.7a2.5 2.5 0 0 1 .5-.7h.6a1.3 1.3 0 0 1 .8.2l-.3.7h-1.1a.8.8 0 0 0 -.2.5 2.4 2.4 0 0 0 -.2.9v2.4z"/><path d="m44.3 106v-.9h.8v.9zm0 5.5v-4.6h.8v4.6z"/><path d="m46 109.2a2.3 2.3 0 0 1 .8-1.9 1.9 1.9 0 0 1 1.4-.5 2.1 2.1 0 0 1 1.6.6 2.4 2.4 0 0 1 .6 1.7 2.6 2.6 0 0 1 -.3 1.4 1.6 1.6 0 0 1 -.7.9l-1.2.2a2.3 2.3 0 0 1 -1.6-.6 2.4 2.4 0 0 1 -.6-1.8zm.9 0a2.3 2.3 0 0 0 .3 1.3 1.4 1.4 0 0 0 1 .5 1.2 1.2 0 0 0 1-.5 2.3 2.3 0 0 0 0-2.6 1.3 1.3 0 0 0 -2 0 2.3 2.3 0 0 0 -.3 1.3z"/><path d="m51.9 113.4h-.6a7.6 7.6 0 0 0 1.3-4.2 8.8 8.8 0 0 0 -.2-1.6 5 5 0 0 0 -.4-1.3 5.7 5.7 0 0 0 -.7-1.3h.6a11.9 11.9 0 0 1 1.2 2.2 6.4 6.4 0 0 1 .3 2 5.9 5.9 0 0 1 -.4 2.3 8.6 8.6 0 0 1 -1.1 1.9z"/><path d="m56.9 111.5v-6.4h.9v3.2l3.2-3.2h1.1l-2.7 2.6 2.8 3.8h-1.1l-2.3-3.2-1 1v2.2z"/><path d="m65.6 111.5h-.8v-5a4.6 4.6 0 0 1 -1.6.9v-.7a3.6 3.6 0 0 0 1.2-.8l.7-.8h.5z"/><path d="m67.9 111.5v-6.4h.9v3.2l3.2-3.2h1.1l-2.7 2.6 2.8 3.8h-1.1l-2.3-3.2-1 1v2.2z"/><path d="m76.1 109.8h.8a1.9 1.9 0 0 0 .5 1 1.1 1.1 0 0 0 .8.3 1 1 0 0 0 .9-.4 1.3 1.3 0 0 0 .4-1 1.1 1.1 0 0 0 -1.2-1.2h-.6v-.7h.1a1.4 1.4 0 0 0 .9-.3c.3-.1.4-.4.4-.8a1 1 0 0 0 -1-1 1.1 1.1 0 0 0 -.8.3 1.9 1.9 0 0 0 -.4.9l-.8-.2a1.9 1.9 0 0 1 .7-1.2 1.7 1.7 0 0 1 1.3-.4 1.5 1.5 0 0 1 .9.2 1.3 1.3 0 0 1 .7.6 1.2 1.2 0 0 1 .2.8 1.1 1.1 0 0 1 -.2.8 1.5 1.5 0 0 1 -.6.5 1.6 1.6 0 0 1 .8.6 1.3 1.3 0 0 1 .4 1 1.8 1.8 0 0 1 -.7 1.5 2 2 0 0 1 -1.5.5 1.7 1.7 0 0 1 -1.4-.5 1.9 1.9 0 0 1 -.6-1.3z"/><path d="m81.4 111.5v-6.4h2.4l1.2.2a1.1 1.1 0 0 1 .7.6 1.3 1.3 0 0 1 .3.8 1.9 1.9 0 0 1 -.2.8 1.3 1.3 0 0 1 -.7.6 1.5 1.5 0 0 1 .9.6 1.7 1.7 0 0 1 .3 1 2.4 2.4 0 0 1 -.2.8 1 1 0 0 1 -.5.6 1.5 1.5 0 0 1 -.7.3h-3.5zm.9-3.7h2.2a.9.9 0 0 0 .5-.3c.1-.1.1-.3.1-.6a.7.7 0 0 0 -.1-.5 1 1 0 0 0 -.5-.4h-2.2zm0 3h2.7l.3-.4a.9.9 0 0 0 .1-.5 1.4 1.4 0 0 0 -.2-.7.9.9 0 0 0 -.5-.3h-2.4z"/><path d="m88.4 108a1.6 1.6 0 0 1 -.8-.5 1.9 1.9 0 0 1 -.2-.8 2.1 2.1 0 0 1 .5-1.2 1.8 1.8 0 0 1 1.3-.4 1.6 1.6 0 0 1 1.4.5 1.6 1.6 0 0 1 .5 1.1 1.9 1.9 0 0 1 -.2.8 1.8 1.8 0 0 1 -.7.5 2.2 2.2 0 0 1 .9.7 1.5 1.5 0 0 1 .3 1 1.9 1.9 0 0 1 -2.1 1.9 2.1 2.1 0 0 1 -1.6-.5 2 2 0 0 1 -.6-1.4 1.4 1.4 0 0 1 .4-1.1 1.5 1.5 0 0 1 .9-.6zm-.5 1.7a1.4 1.4 0 0 0 .2.6l.5.5.7.2a1.1 1.1 0 0 0 .9-.4 1.2 1.2 0 0 0 0-1.8 1.3 1.3 0 0 0 -1-.4 1.2 1.2 0 0 0 -.9.4 1.3 1.3 0 0 0 -.4.9zm.3-3a.8.8 0 0 0 .3.7 1 1 0 0 0 .8.3.9.9 0 0 0 .7-.3.8.8 0 0 0 .3-.7 1 1 0 0 0 -1-1 1 1 0 0 0 -.8.3.9.9 0 0 0 -.3.7z"/></svg>