<svg height="11in" viewBox="0 0 612 792" width="8.5in" xmlns="http://www.w3.org/2000/svg"><path d="m-9 594h630v207h-630z" fill="#fff"/><path d="m-9-9h85.5v207h-85.5z" fill="#ff6b00"/><path d="m76.5-9h76.5v207h-76.5z" fill="#fed925"/><path d="m153-9h76.5v207h-76.5z" fill="#009d4f"/><path d="m229.5-9h76.5v207h-76.5z" fill="#0033a1"/><path d="m306-9h76.5v207h-76.5z" fill="#8331a7"/><path d="m382.5-9h76.5v207h-76.5z" fill="#e31d93"/><path d="m459-9h76.5v207h-76.5z" fill="#00b2e3"/><path d="m535.5-9h85.5v207h-85.5z" fill="#f32735"/><path d="m-9 198h85.5v198h-85.5z" fill="#ff7c00"/><path d="m76.5 198h76.5v198h-76.5z" fill="#ffdc47"/><path d="m153 198h76.5v198h-76.5z" fill="#00a760"/><path d="m229.5 198h76.5v198h-76.5z" fill="#04a"/><path d="m306 198h76.5v198h-76.5z" fill="#9048b0"/><path d="m382.5 198h76.5v198h-76.5z" fill="#e9459d"/><path d="m459 198h76.5v198h-76.5z" fill="#00bae6"/><path d="m535.5 198h85.5v198h-85.5z" fill="#f84a47"/><path d="m-9 396h85.5v198h-85.5z" fill="#ff8c1c"/><path d="m76.5 396h76.5v198h-76.5z" fill="#ffe05f"/><path d="m153 396h76.5v198h-76.5z" fill="#0bb270"/><path d="m229.5 396h76.5v198h-76.5z" fill="#3956b4"/><path d="m306 396h76.5v198h-76.5z" fill="#9d5cb8"/><path d="m382.5 396h76.5v198h-76.5z" fill="#ed5fa7"/><path d="m459 396h76.5v198h-76.5z" fill="#38c2e8"/><path d="m535.5 396h85.5v198h-85.5z" fill="#fc6359"/><path d="m264.2 665.5h-8.2a49.7 49.7 0 0 0 14.7 35.4l5.7-5.7a41.8 41.8 0 0 1 -12.2-29.7z" fill="#e31d93"/><path d="m276.4 695.2-5.7 5.7a49.7 49.7 0 0 0 35.4 14.7v-8.2a41.8 41.8 0 0 1 -29.7-12.2z" fill="#8331a7"/><path d="m276.5 635.8-5.8-5.7a49.7 49.7 0 0 0 -14.7 35.4h8.2a41.9 41.9 0 0 1 12.3-29.7z" fill="#00b2e3"/><path d="m307.8 710.8v8.1a49.7 49.7 0 0 0 35.4-14.7l-5.7-5.7a41.9 41.9 0 0 1 -29.7 12.3z" fill="#0033a1"/><path d="m339.1 634.4a41.8 41.8 0 0 1 12.3 29.6h8.1a50.2 50.2 0 0 0 -14.6-35.4z" fill="#fed925"/><path d="m306.1 623.6v-8.2a49.9 49.9 0 0 0 -35.4 14.7l5.8 5.7a41.8 41.8 0 0 1 29.6-12.2z" fill="#f32735"/><path d="m339.1 696.9 5.8 5.7a49.6 49.6 0 0 0 14.6-35.4h-8.1a41.9 41.9 0 0 1 -12.3 29.7z" fill="#009d4f"/><path d="m337.4 632.4 5.8-5.7a49.9 49.9 0 0 0 -35.4-14.7v8.1a41.5 41.5 0 0 1 29.6 12.3z" fill="#ff6b00"/><path d="m272.1 665.5h-7.9a41.8 41.8 0 0 0 12.2 29.7l5.7-5.7a33.5 33.5 0 0 1 -10-24z" fill="#e9459d"/><path d="m282.1 689.5-5.7 5.7a41.8 41.8 0 0 0 29.7 12.2v-7.9a33.5 33.5 0 0 1 -24-10z" fill="#9048b0"/><path d="m282.1 641.5-5.6-5.7a41.9 41.9 0 0 0 -12.3 29.7h7.9a33.5 33.5 0 0 1 10-24z" fill="#00bae6"/><path d="m306.8 700.8v8a41.9 41.9 0 0 0 29.7-12.3l-5.6-5.6a34.3 34.3 0 0 1 -24.1 9.9z" fill="#04a"/><path d="m341.4 665h8a41.9 41.9 0 0 0 -12.3-29.7l-5.6 5.7a33.9 33.9 0 0 1 9.9 24z" fill="#ffdc47"/><path d="m306.1 631.6v-8a41.8 41.8 0 0 0 -29.6 12.2l5.6 5.7a33.9 33.9 0 0 1 24-9.9z" fill="#f84a47"/><path d="m331.5 690.3 5.7 5.6a42.1 42.1 0 0 0 12.2-29.6h-8a33.8 33.8 0 0 1 -9.9 24z" fill="#00a760"/><path d="m306.8 630.1a33.5 33.5 0 0 1 24 10l5.7-5.7a41.9 41.9 0 0 0 -29.7-12.3z" fill="#ff7c00"/><path d="m280.9 665.5h-8.8a33.5 33.5 0 0 0 10 24l6.2-6.2a24.8 24.8 0 0 1 -7.4-17.8z" fill="#ed5fa7"/><path d="m288.3 683.3-6.2 6.2a33.5 33.5 0 0 0 24 10v-8.8a24.8 24.8 0 0 1 -17.8-7.4z" fill="#9d5cb8"/><path d="m288.3 647.7-6.2-6.2a33.5 33.5 0 0 0 -10 24h8.8a25.5 25.5 0 0 1 7.4-17.8z" fill="#38c2e8"/><path d="m306.1 690.7v8.8a33.5 33.5 0 0 0 24-10l-6.2-6.2a25.1 25.1 0 0 1 -17.8 7.4z" fill="#3956b4"/><path d="m331.2 665.5h8.8a34 34 0 0 0 -9.9-24l-6.2 6.2a25.4 25.4 0 0 1 7.3 17.8z" fill="#ffe05f"/><path d="m288.3 647.7a25.3 25.3 0 0 1 17.8-7.3v-8.8a33.9 33.9 0 0 0 -24 9.9z" fill="#fc6359"/><path d="m323.9 683.3 6.2 6.2a33.9 33.9 0 0 0 9.9-24h-8.8a25.3 25.3 0 0 1 -7.3 17.8z" fill="#0bb270"/><path d="m323.9 647.7 6.2-6.2a34 34 0 0 0 -24-9.9v8.8a25.4 25.4 0 0 1 17.8 7.3z" fill="#ff8c1c"/><g fill="#58595b"><path d="m256 773.9 2.5-6.7h1l2.7 6.7h-1l-.8-2h-2.8l-.7 2zm1.9-2.7h2.2l-.7-1.9a10.3 10.3 0 0 1 -.4-1.4 5 5 0 0 1 -.4 1.3z"/><path d="m262.9 773.9v-6.7h2.9l1.4.2a1.2 1.2 0 0 1 .7.7 1.7 1.7 0 0 1 .3 1 1.5 1.5 0 0 1 -.4 1.1 2.4 2.4 0 0 1 -1.5.7l.6.3a3.5 3.5 0 0 1 .7.9l1.2 1.8h-1.1l-.9-1.4-.7-.9-.4-.5h-1.9v3zm.9-3.7h2.8l.5-.4a1.4 1.4 0 0 0 .2-.6 1 1 0 0 0 -.3-.8 1.8 1.8 0 0 0 -1.1-.3h-2.1z"/><path d="m271.1 773.9v-5.9h-2.2v-.8h5.3v.8h-2.2v5.9z"/><path d="m277.2 771.8h.8l.3.8a1.3 1.3 0 0 0 .7.5l1 .2h.9l.6-.4a1.9 1.9 0 0 0 0-1.2l-.6-.4-1.2-.3-1.3-.4a2.2 2.2 0 0 1 -.7-.6 1.2 1.2 0 0 1 -.2-.8 1.6 1.6 0 0 1 .2-1 1.5 1.5 0 0 1 .9-.6 2.1 2.1 0 0 1 1.2-.3 2.8 2.8 0 0 1 1.3.3 1.6 1.6 0 0 1 .9.7 1.7 1.7 0 0 1 .3 1h-.9a1.5 1.5 0 0 0 -.4-1 2.1 2.1 0 0 0 -1.2-.3 1.6 1.6 0 0 0 -1.1.3.8.8 0 0 0 -.4.7.9.9 0 0 0 .3.6l1.3.5 1.5.4a2.7 2.7 0 0 1 .8.7 1.4 1.4 0 0 1 .3.9 1.7 1.7 0 0 1 -.3 1 1.6 1.6 0 0 1 -.9.7 2.8 2.8 0 0 1 -1.3.3 3.3 3.3 0 0 1 -1.5-.3 1.4 1.4 0 0 1 -.9-.8 1.5 1.5 0 0 1 -.4-1.2z"/><path d="m288 767.2h.9v3.9a6.3 6.3 0 0 1 -.2 1.6 1.8 1.8 0 0 1 -.8.9 2.5 2.5 0 0 1 -1.6.4 3.3 3.3 0 0 1 -1.5-.3 1.4 1.4 0 0 1 -.8-1 3.5 3.5 0 0 1 -.3-1.6v-3.9h.9v3.9a4.5 4.5 0 0 0 .1 1.3 1.7 1.7 0 0 0 .6.6l.9.2c.7 0 1.2-.1 1.4-.4a2.5 2.5 0 0 0 .4-1.7z"/><path d="m290.4 773.9v-6.7h3.5l.8.3.6.7a2 2 0 0 1 .2.9 2 2 0 0 1 -.6 1.4 2.4 2.4 0 0 1 -1.9.6h-1.7v2.7zm.9-3.5h1.7a1.9 1.9 0 0 0 1.2-.3 1.2 1.2 0 0 0 .3-.9.8.8 0 0 0 -.2-.7 1 1 0 0 0 -.5-.4h-2.5z"/><path d="m296.6 773.9v-6.7h3.5l.8.3a1.8 1.8 0 0 1 .5.7c.2.2.2.5.2.9a1.9 1.9 0 0 1 -.5 1.4 2.5 2.5 0 0 1 -1.9.6h-1.7v2.7zm.9-3.5h1.7a2.1 2.1 0 0 0 1.2-.3 1.2 1.2 0 0 0 .3-.9.8.8 0 0 0 -.2-.7 1 1 0 0 0 -.5-.4h-2.5z"/><path d="m302.7 773.9v-6.7h.9v5.9h3.3v.8z"/><path d="m308.1 773.9v-6.7h.8v6.7z"/><path d="m310.5 773.9v-6.7h4.8v.8h-3.9v2.1h3.7v.7h-3.7v2.3h4.1v.8z"/><path d="m316.4 771.8h.8c.1.3.1.6.3.8a1.3 1.3 0 0 0 .7.5l1 .2h.9l.5-.4a1 1 0 0 0 0-1.2l-.6-.4-1.1-.3-1.3-.4a2.2 2.2 0 0 1 -.7-.6 1.3 1.3 0 0 1 -.3-.8 1.7 1.7 0 0 1 .3-1 1.5 1.5 0 0 1 .9-.6 2.1 2.1 0 0 1 1.2-.3 2.8 2.8 0 0 1 1.3.3 1.4 1.4 0 0 1 .8.7 1.3 1.3 0 0 1 .4 1h-.9a1.5 1.5 0 0 0 -.4-1 2.1 2.1 0 0 0 -1.2-.3 1.6 1.6 0 0 0 -1.1.3.8.8 0 0 0 -.4.7 1.4 1.4 0 0 0 .2.6l1.4.5a4.9 4.9 0 0 1 1.4.4 2.2 2.2 0 0 1 .9.7 1.4 1.4 0 0 1 .3.9 1.7 1.7 0 0 1 -.3 1 1.6 1.6 0 0 1 -.9.7 2.8 2.8 0 0 1 -1.3.3 3.3 3.3 0 0 1 -1.5-.3 1.4 1.4 0 0 1 -.9-.8 1.5 1.5 0 0 1 -.4-1.2z"/><path d="m325.2 771.8h.8a1.1 1.1 0 0 0 .3.8 1 1 0 0 0 .6.5l1 .2h.9a1.5 1.5 0 0 0 .6-.4 1 1 0 0 0 0-1.2l-.6-.4-1.2-.3-1.3-.4-.7-.6a2.4 2.4 0 0 1 -.2-.8 1.7 1.7 0 0 1 .3-1 1.6 1.6 0 0 1 .8-.6 2.7 2.7 0 0 1 1.2-.3 2.5 2.5 0 0 1 1.3.3 1.6 1.6 0 0 1 .9.7 1.7 1.7 0 0 1 .3 1h-.8a1.2 1.2 0 0 0 -.5-1 1.6 1.6 0 0 0 -1.1-.3 1.9 1.9 0 0 0 -1.2.3.9.9 0 0 0 -.3.7.7.7 0 0 0 .2.6l1.3.5a5.9 5.9 0 0 1 1.5.4 2.2 2.2 0 0 1 .9.7 2.4 2.4 0 0 1 .2.9 1.7 1.7 0 0 1 -.3 1 1.8 1.8 0 0 1 -.8.7 2.8 2.8 0 0 1 -1.3.3 3.3 3.3 0 0 1 -1.5-.3 1.6 1.6 0 0 1 -1-.8 2 2 0 0 1 -.3-1.2z"/><path d="m333.3 773.9v-5.9h-2.2v-.8h5.3v.8h-2.2v5.9z"/><path d="m336.9 770.7a3.6 3.6 0 0 1 .9-2.6 2.8 2.8 0 0 1 2.3-1 3 3 0 0 1 1.6.5 2.5 2.5 0 0 1 1.1 1.2 3.4 3.4 0 0 1 .4 1.8 3.7 3.7 0 0 1 -.4 1.8 3.2 3.2 0 0 1 -1.1 1.2 3.3 3.3 0 0 1 -1.7.4 3 3 0 0 1 -1.6-.5 2.5 2.5 0 0 1 -1.1-1.2 3.2 3.2 0 0 1 -.4-1.6zm.9 0a2.9 2.9 0 0 0 .6 1.9 2.5 2.5 0 0 0 1.6.6 2.5 2.5 0 0 0 1.7-.6 3.2 3.2 0 0 0 .6-2 2.9 2.9 0 0 0 -.3-1.4 1.6 1.6 0 0 0 -.8-1 2 2 0 0 0 -1.1-.3 2.5 2.5 0 0 0 -1.7.6 3.4 3.4 0 0 0 -.6 2.2z"/><path d="m344.4 773.9v-6.7h2.9l1.4.2a1.6 1.6 0 0 1 .7.7 1.7 1.7 0 0 1 .3 1 1.6 1.6 0 0 1 -.5 1.1 2.1 2.1 0 0 1 -1.4.7l.5.3a3.6 3.6 0 0 1 .8.9l1.1 1.8h-1.1l-.9-1.4a3.5 3.5 0 0 0 -.6-.9l-.4-.5h-2v3zm.8-3.7h2.9l.5-.4a1.4 1.4 0 0 0 .2-.6.8.8 0 0 0 -.4-.8 1.6 1.6 0 0 0 -1.1-.3h-2.1z"/><path d="m351.1 773.9v-6.7h4.8v.8h-3.9v2.1h3.6v.7h-3.6v2.3h4v.8z"/></g><path d="m235.4 747.4c-.4 1.5.6 6.3-1.2 6.3s-1.2-.3-1.2-.9l-.3-4.7-.5-.5a19.2 19.2 0 0 1 -6.3-.5 41.3 41.3 0 0 1 -5-1.5c-1.4 1-2.7 2.8-4.2 3.6s-6.7 3.5-10.2 3.5h-.1l-.5-.4c0-1 5.2-2.4 6.2-2.9a17.5 17.5 0 0 0 4.2-2.3c.6-.6 2.2-2.2 2.2-2.3v-.4a6.8 6.8 0 0 1 -3.6-5.9v-.8l1.4-3.4c.6-1.5 3.3-2.5 4.7-2.5a10.4 10.4 0 0 1 6.4 1.6h.1c1.3 0 7.6-11.1 9.3-11.1s1 .4 1 1.1v.7a118.7 118.7 0 0 0 -2.1 19.7c0 .3 0 .9.6.9s1.6-.7 2.4-.7.7.1.7.5-3.1 2.3-4 2.9zm-9.1-11.9c0-1.4-3.7-1.7-4.4-1.7h-1.7c-2.2.3-3.1 3.1-3.1 4.9a5.7 5.7 0 0 0 .1 1.3c.6 1 1.6 2.4 2.9 2.4s.5 0 .5-.1l5.5-6.2.2-.5zm1.6 1.8c-.4-.2-.8.7-.9.9l-4.3 5a.4.4 0 0 0 -.1.3c0 1.5 6.7 2.1 7.5 2.1h1.5c.2 0 .2-.5.2-.7s-2.3-7-3.9-7.6zm6.9-9.3h-.1a.1.1 0 0 0 -.1.1 23.4 23.4 0 0 0 -3.9 4.9 13.1 13.1 0 0 0 -1.2 1.9v.6l1.4 2.1a69.3 69.3 0 0 1 2.6 7l.3-.3c.1-3.6.7-8.7.6-12.2a5.8 5.8 0 0 0 .2-1.9c0-.2.4-1.8.4-1.9s-.2-.3-.2-.3z"/><path d="m250 747.2a1.8 1.8 0 0 1 -1.5-.6 18.7 18.7 0 0 1 -3.4 4.8c-.9 1-1.9 2.5-2.8 2.5s-.5-1-.7-1.4a19.8 19.8 0 0 0 -.3-3.5v-1.5c.1-1.7 0-2.5 0-4.2a14.6 14.6 0 0 0 -.7-4c-.4-2.8 1.6-2 1.9-1.6a8 8 0 0 1 .3 1.5c0 .3.3 1.9.3 2v2.7a21.3 21.3 0 0 0 .2 4.4c.1.3-.2 1.2-.1 1.4v.4c.1 0 .2.8.2.8a14.3 14.3 0 0 0 2.7-3.2l1.2-2.1c.1 0 .2-.4.2-.5a8.5 8.5 0 0 1 -.2-3.2c0-.8 1.5-5.4 3.1-5.4a1.6 1.6 0 0 1 1.3.6 15.5 15.5 0 0 1 .1 2.1c-.1 1.4-1.3 3.8-1.8 5v.4c0 .2.3.8.7.8s3.7-2.8 4.9-2.7a.5.5 0 0 1 .6.6c-.2 1.2-5.1 3.9-6.2 3.9z"/><path d="m272.1 746.1a7.2 7.2 0 0 1 -2 3.6c-1.2 1.3-3.7 3.3-5.5 3.3h-.1c-1.6 0-2.6-1-2.9-3.3-.1-.1-1.3 1.2-1.4 1.3s-2.1 2.2-4.3 2.2-1.9-1.1-2.5-1.8v-1.2a16.5 16.5 0 0 1 1.8-7c1.6-3.1 4.2-5.4 7.6-5.4 1.9 0 1.8 2.7 2.2 4 .6-1 1.1-.9 1.6-.7s.2 1-.1 1.4-2.9 4.5-3.1 6.4.4 2.4 1.4 2.4 3.4-2.2 4-2.9a26.9 26.9 0 0 0 2.2-3.2c.3-.4.2-.3.6-.3s.6.3.6.7a.7.7 0 0 1 -.1.5zm-10.2-6.3c-1.8 0-3.6 2-4.9 4.3a15.2 15.2 0 0 0 -1.8 6.1.7.7 0 0 0 .3.7h.6a3.9 3.9 0 0 0 2.4-1l3.2-3.6a9 9 0 0 0 1.3-4.5c0-.6-.1-2-1.1-2z"/><path d="m290.4 746.2a8.7 8.7 0 0 1 -2 3.6 18 18 0 0 1 -2.9 2.6 5.7 5.7 0 0 1 -3.1 1 3.6 3.6 0 0 1 -1.5-.2c-1-.5-1-1.7-1-2.6s.8-2.5 1.4-3.8a24.5 24.5 0 0 0 2.5-6.1h-.3c-1.8 0-3.8 3.6-4.8 4.8l-.6 1.1-.9 1.3-1 1.3-1 1.7c-.7 1-1.4 2.1-2 2.1s-.8-.3-.9-.9a53.8 53.8 0 0 1 3.6-8.2c.3-.5.5-1.1.8-1.7s.5-2.3.2-2.4-1.8 2-2.6 3.2l-1.5 2.9a2.5 2.5 0 0 1 -.9 1.2.9.9 0 0 1 -1.2-.1 2.1 2.1 0 0 1 .1-1.4l.3-.5a3.8 3.8 0 0 0 .5-.8 11.7 11.7 0 0 0 1.7-2.8c.8-1.7 2.4-3.5 3.8-3.5s1.6 1 1.7 1.7a3.1 3.1 0 0 1 -.1 1.7l-.7 2.5c1.6-2.6 4.1-5.2 6.6-5.7a2.3 2.3 0 0 1 1.3 2.2v.2a53.9 53.9 0 0 1 -3 7.4 5.8 5.8 0 0 0 -.9 2.5c0 .2-.1.6.2.8h.6l1.3-.2a16.8 16.8 0 0 0 2.7-2.3 4.6 4.6 0 0 0 .9-1.5 18.2 18.2 0 0 1 1.5-2.3c.2-.2.3-.2.6-.2s.7.4.7.8-.1.4-.1.6z"/><path d="m301.1 735.4h-6.4c-.9 1.3-2.6 6.3-3.1 8.1l-1 2.8s-.2 2.2-.2 3.3a1.8 1.8 0 0 0 1.5 1.7h.1l1.6-.2.7-.2a17.6 17.6 0 0 0 3.1-2.4c.8-1.1 1.4-2.2 2.2-3.3s.2-.3.6-.3.6.3.6.7v.5a9.2 9.2 0 0 1 -2 3.6 10.1 10.1 0 0 1 -2.9 2.4 6.7 6.7 0 0 1 -3.6 1.2c-2.9 0-4-2.2-4-4.7 0-.3.2-2 .2-2.2s2.1-5.7 2.5-6.9 1.2-3 1.5-4.1a6 6 0 0 1 -1.9 0c-.3-.1-1.9-.4-1.9-1.2s.9-.8 1.4-.9 2.3.2 3.2 0l1.6-3 1.1-2.8 1.1-2.2c.3-.5 1.3-2.6 2.2-2.6s1.1.3 1.1.8-1.1 2.2-1.5 3l-3.3 6.8h6.2a1.2 1.2 0 0 1 .9.9c0 .7-1.1 1.1-1.6 1.2z"/><path d="m315.8 743.5c-3.9-.3-7.6.9-11.4.9-.7 0-1.1-.3-1.1-.9a.8.8 0 0 1 .8-.9c1.8-.4 3.9-.4 5.7-.9a25.3 25.3 0 0 1 6.2 0c.4 0 .5.8.5 1s-.3.6-.7.8z"/><path d="m341.3 748.7c-1.1 2-2.4 4.1-3.6 6-2.6 3.8-9.5 5.8-13.9 5.8s-6.3-2-8.3-4.4c-.2-.3-.3-.4-.3-.7s.7-.7 1.2-.7c2.2 1.9 4.6 3.9 7.8 3.9s3.5-.8 5.2-1.2c4.2-1 6.2-2.8 8.3-6.6v-.5h-.3a21 21 0 0 1 -11 2.6c-3.4 0-5.4-2-6.7-4.9a8 8 0 0 1 -.7-2 17.1 17.1 0 0 1 0-3.2c0-1.2.7-2.3.7-2.8-1.6-1.5-3.5-3.5-3.5-5.9s.6-4.1 2.6-6.2c.2-.3 1.5-1.6 1.9-1.6a.6.6 0 0 1 .6.6c0 1.5-3.5 3.6-3.5 7.4 0 1 2 3.6 2.9 3.8s1.8-3.1 2.4-3.8a56.9 56.9 0 0 1 8.5-8.5 13.9 13.9 0 0 1 5.6-1.6c3.3 0 4.3 3.1 4.3 5.9s-2.1 6-4.4 8.6a12.1 12.1 0 0 1 -9.4 4.3c-1.9 0-5.2-1.4-6.3-1.9a4.6 4.6 0 0 0 -.6 2.6c0 4 1.7 7.1 6.1 7.1a19.4 19.4 0 0 0 7.2-1.1 18.7 18.7 0 0 0 5.4-3.3 6.5 6.5 0 0 0 2.2-4c0-.5.7-.5 1.1-.5s1.1.1 1.1.7-2 5.1-2.6 6.1zm-3-22.2h-1.1c-4.7 0-8.9 4.7-11.7 8-.8 1.1-2.9 3.5-3.3 4.8a15 15 0 0 0 6.5 1.7c3.7 0 6.5-2.8 8.6-5.5a9 9 0 0 0 1.5-1.9 10.7 10.7 0 0 0 .9-4.3 3.1 3.1 0 0 0 -1.4-2.8z"/><path d="m363.9 746.1a8.1 8.1 0 0 1 -2 3.6c-1.2 1.3-3.7 3.3-5.6 3.3-1.6 0-2.7-1-2.9-3.3-.1-.1-1.4 1.2-1.5 1.3s-2 2.2-4.2 2.2-1.9-1.1-2.5-1.8v-1.2a15.2 15.2 0 0 1 1.8-7c1.6-3.1 4.2-5.4 7.6-5.4 1.9 0 1.8 2.7 2.1 4 .6-1 1.2-.9 1.6-.7s.2 1-.1 1.4-2.8 4.5-3 6.4.4 2.4 1.4 2.4 3.3-2.2 4-2.9 1-1.6 2.1-3.2.3-.3.7-.3.6.3.6.7a4.3 4.3 0 0 1 -.1.5zm-10.2-6.3c-1.9 0-3.6 2-4.9 4.3a15.2 15.2 0 0 0 -1.8 6.1 1 1 0 0 0 .2.7h.6a3.5 3.5 0 0 0 2.4-1c.5-.4 2.9-3.1 3.3-3.6a9 9 0 0 0 1.3-4.5c0-.6-.1-2-1.1-2z"/><path d="m376.1 746.1a9.2 9.2 0 0 1 -2 3.6c-1.2 1.2-3.5 3.1-5.4 3.3h-.7c-1.2 0-2.6-.5-2.6-2a10.8 10.8 0 0 1 1.4-4.7c.9-1.7 2.3-3.6 3.2-5a14.6 14.6 0 0 1 -3 0c-.4.2-.3.3-.6.8s-1.7 3.2-2.2 3.8-.8 1.8-1.7 1.8-1-.1-.9-.7v-.7a16.7 16.7 0 0 0 1.2-1.9c1-1.7 1.9-3 2.6-4.1s-.4-.3-.5-.5l-.3-.5a4.7 4.7 0 0 1 -.2-1.7c0-1.8 1.9-3.4 3.9-3.4a1.7 1.7 0 0 1 1.5 1.7 3.5 3.5 0 0 1 -.5 2 7.5 7.5 0 0 1 -.9 1.5 4.9 4.9 0 0 0 1.7.1c1-.1 1.3-.9 2.4-.9a1 1 0 0 1 .9 1.1c0 .4-.2.6-.5.9h-.1a41 41 0 0 0 -3.7 4.8 9.7 9.7 0 0 0 -1.9 5c0 .1.4.2.4.3a2.8 2.8 0 0 0 1.1.4c1 0 3.3-2.2 3.9-2.9a26.9 26.9 0 0 0 2.2-3.2c.3-.4.2-.3.6-.3s.6.3.6.7zm-9.9-8.2c0 .4.6.9.7.9s1.4-2 .9-2.7-1.6.8-1.6 1.8z"/><path d="m394.1 724.8a15.3 15.3 0 0 1 -1.1 2.7c-1.2 2.7-4 8.1-5.2 10.8a29.6 29.6 0 0 0 -3 8.3 21.9 21.9 0 0 0 -.3 3.6c0 .2.1.6.1.7s.3.5.6.5h1.6c1 0 3.3-2.2 4-2.9s1-1.6 2.1-3.2.3-.3.6-.3.6.3.6.7v.5a9.2 9.2 0 0 1 -2 3.6c-1.2 1.3-3.5 3.1-5.4 3.3l-1.2.2c-3.5 0-2.8-3.4-2.8-3.9-1.6 1.7-3.5 3.7-5.9 3.7s-2.8-2.4-2.8-4.1c0-3.5 3.9-11.5 8.1-11.5 1.8 0 1.8 1.9 2.7 1.9s.3 0 .5-.3l5.4-11.9c.8-.9 1.6-3.9 2.6-3.9s.9.4.9 1 0 .4-.1.5zm-12.4 14.9a1.8 1.8 0 0 0 -1 .2 11.8 11.8 0 0 0 -4.8 9.2c0 .2.2 1.6.2 1.8s.5.3.7.3c2.8 0 6.7-6.4 6.7-8.8s-.4-2.7-1.8-2.7z"/><path d="m406 746.1a9.2 9.2 0 0 1 -2 3.6c-1.8 1.9-4 3.4-6.7 3.4a6.7 6.7 0 0 1 -3.8-1.1 4.6 4.6 0 0 1 -1.9-3.5 12.5 12.5 0 0 1 2.7-7.8 6.3 6.3 0 0 1 5.1-2.8 2.4 2.4 0 0 1 2.5 2.2 6 6 0 0 1 -1.5 3.9 10.1 10.1 0 0 1 -3.5 2.5 22.2 22.2 0 0 0 -3.2 1.5c-.2.4-.1.6 0 1a2.4 2.4 0 0 0 1.3 1.7 4.9 4.9 0 0 0 2.3.7 8.4 8.4 0 0 0 5.4-3c.6-.7 1-1.6 2.1-3.2s.3-.3.7-.3.6.3.6.7a4.3 4.3 0 0 1 -.1.5zm-6.7-6.4a5.6 5.6 0 0 0 -3.3 1.7 6.2 6.2 0 0 0 -1.9 4c0 .2-.3.6-.1.6a14.2 14.2 0 0 0 3.7-1.9 7.7 7.7 0 0 0 2.4-3.3.4.4 0 0 0 .1-.3 1.4 1.4 0 0 0 -.9-.8z"/></svg>