<svg height="2.9in" viewBox="0 0 612 211.6" width="8.5in" xmlns="http://www.w3.org/2000/svg"><g fill="#58595b"><path d="m171 175.6 6.9-17.9h2.5l7.4 17.9h-2.7l-2.1-5.5h-7.5l-2 5.5zm5.2-7.4h6l-1.8-4.9c-.6-1.6-1-2.8-1.3-3.8a15.4 15.4 0 0 1 -1 3.5z"/><path d="m189.7 175.6v-17.9h7.9a11.8 11.8 0 0 1 3.7.4 4.7 4.7 0 0 1 2 1.7 5.4 5.4 0 0 1 .7 2.7 4.8 4.8 0 0 1 -1.2 3.3 6.4 6.4 0 0 1 -3.8 1.6 5.6 5.6 0 0 1 1.4.9 9.8 9.8 0 0 1 2 2.4l3.1 4.9h-3l-2.4-3.8a22.5 22.5 0 0 0 -1.7-2.4 3.4 3.4 0 0 0 -1.2-1.2l-1.1-.5h-4v8zm2.4-10h5.1a5.7 5.7 0 0 0 2.5-.4 3 3 0 0 0 1.4-1 3.4 3.4 0 0 0 .5-1.7 2.5 2.5 0 0 0 -.9-2 4.3 4.3 0 0 0 -3-.9h-5.6z"/><path d="m211.9 175.6v-15.8h-6v-2.1h14.3v2.1h-6v15.8z"/><path d="m228.3 169.8 2.2-.2a4.4 4.4 0 0 0 .8 2.2 3 3 0 0 0 1.8 1.4 6 6 0 0 0 2.7.6 8.6 8.6 0 0 0 2.4-.4 4 4 0 0 0 1.6-1.2 2.5 2.5 0 0 0 .5-1.5 2.7 2.7 0 0 0 -.5-1.5 4.9 4.9 0 0 0 -1.6-1l-3.2-.9a21.1 21.1 0 0 1 -3.5-1.1 5.3 5.3 0 0 1 -1.9-1.7 4 4 0 0 1 -.6-2.2 4.3 4.3 0 0 1 .7-2.5 4.7 4.7 0 0 1 2.3-1.8 8.8 8.8 0 0 1 3.3-.7 9.5 9.5 0 0 1 3.5.7 4.3 4.3 0 0 1 2.3 1.9 4.7 4.7 0 0 1 .9 2.8l-2.3.2a3.6 3.6 0 0 0 -1.2-2.6 4.8 4.8 0 0 0 -3.1-.9 5.4 5.4 0 0 0 -3.2.8 2.6 2.6 0 0 0 -.9 1.9 2.1 2.1 0 0 0 .6 1.6 9.7 9.7 0 0 0 3.6 1.3 21.9 21.9 0 0 1 4 1.1 5.5 5.5 0 0 1 2.3 1.9 4.9 4.9 0 0 1 -.1 5.2 5 5 0 0 1 -2.3 2 9.5 9.5 0 0 1 -3.5.7 12.1 12.1 0 0 1 -4.1-.7 5.4 5.4 0 0 1 -2.5-2.2 5.1 5.1 0 0 1 -1-3.2z"/><path d="m257.5 157.7h2.4v10.3a12.7 12.7 0 0 1 -.6 4.3 5 5 0 0 1 -2.2 2.6 8.7 8.7 0 0 1 -4.2 1 8.3 8.3 0 0 1 -4.1-.9 5.1 5.1 0 0 1 -2.3-2.5 13.2 13.2 0 0 1 -.7-4.5v-10.3h2.4v10.3a9.4 9.4 0 0 0 .4 3.4 3.1 3.1 0 0 0 1.5 1.7 6.4 6.4 0 0 0 6.3-.5c.8-.8 1.1-2.4 1.1-4.6z"/><path d="m263.9 175.6v-17.9h9.5a7.3 7.3 0 0 1 2.2.9 4.7 4.7 0 0 1 1.4 1.7 4.9 4.9 0 0 1 .5 2.4 5.2 5.2 0 0 1 -1.4 3.9c-1 1.1-2.7 1.6-5.3 1.6h-4.6v7.3zm2.3-9.4h4.7a4.5 4.5 0 0 0 3.2-.9 3 3 0 0 0 1-2.4 3.1 3.1 0 0 0 -.6-1.9 2.5 2.5 0 0 0 -1.5-1.1h-6.8z"/><path d="m280.6 175.6v-17.9h9.4a6.9 6.9 0 0 1 2.3.9 4.7 4.7 0 0 1 1.4 1.7 4.9 4.9 0 0 1 .5 2.4 5.2 5.2 0 0 1 -1.4 3.9c-1 1.1-2.7 1.6-5.3 1.6h-4.6v7.3zm2.3-9.4h4.7a4.5 4.5 0 0 0 3.2-.9 3 3 0 0 0 1-2.4 3.1 3.1 0 0 0 -.6-1.9 3.3 3.3 0 0 0 -1.5-1.1h-6.8z"/><path d="m297.2 175.6v-17.9h2.3v15.8h8.9v2.1z"/><path d="m311.6 175.6v-17.9h2.4v17.9z"/><path d="m318.2 175.6v-17.9h12.9v2.1h-10.5v5.5h9.9v2.1h-9.9v6.1h11v2.1z"/><path d="m334 169.8 2.3-.2a4.4 4.4 0 0 0 .7 2.2 3.7 3.7 0 0 0 1.8 1.4 6.1 6.1 0 0 0 2.8.6 8.6 8.6 0 0 0 2.4-.4 3.6 3.6 0 0 0 1.5-1.2 2.5 2.5 0 0 0 .5-1.5 2.7 2.7 0 0 0 -.5-1.5 3.4 3.4 0 0 0 -1.6-1l-3.2-.9a19.2 19.2 0 0 1 -3.4-1.1 5.6 5.6 0 0 1 -2-1.7 4 4 0 0 1 -.6-2.2 4.8 4.8 0 0 1 3-4.3 8.8 8.8 0 0 1 3.3-.7 9.5 9.5 0 0 1 3.5.7 4.6 4.6 0 0 1 2.4 1.9 6.6 6.6 0 0 1 .9 2.8l-2.3.2a3.6 3.6 0 0 0 -1.3-2.6 4.6 4.6 0 0 0 -3.1-.9 5 5 0 0 0 -3.1.8 2.4 2.4 0 0 0 -1 1.9 1.9 1.9 0 0 0 .7 1.6 9 9 0 0 0 3.6 1.3 22.8 22.8 0 0 1 3.9 1.1 4.5 4.5 0 0 1 2.3 1.9 4.4 4.4 0 0 1 .8 2.5 5 5 0 0 1 -.8 2.7 5.9 5.9 0 0 1 -2.4 2 9.4 9.4 0 0 1 -3.4.7 11.6 11.6 0 0 1 -4.1-.7 5.6 5.6 0 0 1 -2.6-2.2 6.7 6.7 0 0 1 -1-3.2z"/><path d="m357.7 169.8 2.2-.2a4.4 4.4 0 0 0 .8 2.2 3 3 0 0 0 1.8 1.4 6 6 0 0 0 2.7.6 8.6 8.6 0 0 0 2.4-.4 4 4 0 0 0 1.6-1.2 2.5 2.5 0 0 0 .5-1.5 2.7 2.7 0 0 0 -.5-1.5 4.9 4.9 0 0 0 -1.6-1l-3.2-.9a21.1 21.1 0 0 1 -3.5-1.1 5.3 5.3 0 0 1 -1.9-1.7 4 4 0 0 1 -.6-2.2 4.3 4.3 0 0 1 .7-2.5 5.2 5.2 0 0 1 2.3-1.8 8.8 8.8 0 0 1 3.3-.7 9.5 9.5 0 0 1 3.5.7 4.3 4.3 0 0 1 2.3 1.9 4.7 4.7 0 0 1 .9 2.8l-2.3.2a3.6 3.6 0 0 0 -1.2-2.6 4.8 4.8 0 0 0 -3.1-.9 5.4 5.4 0 0 0 -3.2.8 2.6 2.6 0 0 0 -.9 1.9 2.1 2.1 0 0 0 .6 1.6 9.7 9.7 0 0 0 3.6 1.3 21.9 21.9 0 0 1 4 1.1 5.5 5.5 0 0 1 2.3 1.9 4.9 4.9 0 0 1 -.1 5.2 5 5 0 0 1 -2.3 2 9.5 9.5 0 0 1 -3.5.7 12.1 12.1 0 0 1 -4.1-.7 5.4 5.4 0 0 1 -2.5-2.2 5.1 5.1 0 0 1 -1-3.2z"/><path d="m379.7 175.6v-15.8h-5.9v-2.1h14.2v2.1h-5.9v15.8z"/><path d="m389.3 166.8a9.5 9.5 0 0 1 2.4-6.9 8.2 8.2 0 0 1 6.2-2.6 8.9 8.9 0 0 1 4.5 1.2 8 8 0 0 1 3 3.3 10.6 10.6 0 0 1 1 4.8 9.6 9.6 0 0 1 -1.1 4.9 7.1 7.1 0 0 1 -3.1 3.3 9.2 9.2 0 0 1 -4.3 1.1 8.2 8.2 0 0 1 -7.6-4.6 9.9 9.9 0 0 1 -1-4.5zm2.4.1a7.2 7.2 0 0 0 1.8 5.1 6 6 0 0 0 4.4 1.9 6.1 6.1 0 0 0 4.4-1.9 8.1 8.1 0 0 0 1.7-5.4 9.2 9.2 0 0 0 -.7-3.8 5.9 5.9 0 0 0 -5.4-3.4 6.1 6.1 0 0 0 -4.3 1.7c-1.2 1.2-1.9 3.1-1.9 5.8z"/><path d="m409.5 175.6v-17.9h8a11.1 11.1 0 0 1 3.6.4 4.2 4.2 0 0 1 2 1.7 5.6 5.6 0 0 1 .8 2.7 4.4 4.4 0 0 1 -1.3 3.3 6.4 6.4 0 0 1 -3.8 1.6 5.6 5.6 0 0 1 1.4.9 9.8 9.8 0 0 1 2 2.4l3.1 4.9h-3l-2.3-3.8-1.7-2.4-1.2-1.2-1.1-.5h-4.1v8zm2.4-10h5.1a5.7 5.7 0 0 0 2.5-.4 2.6 2.6 0 0 0 1.4-1 2.6 2.6 0 0 0 .5-1.7 2.5 2.5 0 0 0 -.9-2 4 4 0 0 0 -2.9-.9h-5.7z"/><path d="m427.6 175.6v-17.9h13v2.1h-10.6v5.5h9.9v2.1h-9.9v6.1h11v2.1z"/></g><path d="m115.5 104.1c-1.1 4 1.5 16.9-3.1 16.9-1.4 0-3.4-.8-3.5-2.5l-.8-12.6-1.2-1.2c-5.5.2-11.8.1-17.1-1.3-3.1-.8-10.5-2.7-13.5-4.1-3.7 2.7-7.2 7.4-11.3 9.7-7.9 4.2-18.2 9.3-27.5 9.3h-.3a6.8 6.8 0 0 1 -1.2-1.3v-.3c0-2.5 13.9-6.4 16.7-7.7s8.2-3.6 11.1-6.2 6.2-6 6.2-6.1v-1.3c-5.8-3.2-10-8.9-10-15.7 0-.6 0-2.1.2-2.2l3.6-9.3c1.7-4 8.9-6.9 12.7-6.9 7.7 0 11.7.9 17.5 4.6h.3c3.4 0 20.4-30 24.9-30 2.5 0 2.8 1.1 2.8 3.1a9.8 9.8 0 0 1 -.1 1.9c-2.9 17.4-5.5 35.2-5.5 53.1 0 .9 0 2.6 1.5 2.6s4.2-2 6.5-2 1.9.2 1.9 1.2c0 4.8-8.3 6.6-10.8 8.3zm-24.5-32.1c0-3.8-9.9-4.5-12-4.5h-4.7c-5.8.8-8.2 8.3-8.2 13 0 .6.1 3.2.2 3.7 1.7 2.6 4.5 6.4 7.9 6.4l1.3-.2 14.9-16.8.6-1.3zm4.4 4.8c-1.1-.4-2.3 2-2.5 2.5l-11.7 13.6c-.1.1-.1.4-.1.6 0 4.1 17.8 5.7 20.2 5.7l3.8-.2c.8-.1.7-1.3.7-1.8 0-3.9-6.2-18.6-10.4-20.4zm18.5-25.1h-.7c-4 3.4-7.6 9-10.5 13.3a57.5 57.5 0 0 0 -3 5v1.9l3.7 5.6a186 186 0 0 1 7 18.7l.8-.8c.3-9.6 1.8-23.4 1.5-32.8a13.3 13.3 0 0 0 .6-5.3c0-.4 1.2-4.6 1.1-5.1a1.2 1.2 0 0 0 -.5-.5z"/><path d="m154.9 103.6c-1 0-3.3-.2-4-1.5a67.9 67.9 0 0 1 -9.3 12.9c-2.5 2.7-5.1 6.6-7.5 6.6s-1.3-2.7-1.8-3.8a71.3 71.3 0 0 0 -.9-9.4 29.4 29.4 0 0 1 0-4.2c.1-4.5 0-6.5 0-11.1s-1.2-7.1-1.8-10.8c-1.1-7.5 4.1-5.6 5-4.4a33.8 33.8 0 0 1 .7 4 36.5 36.5 0 0 1 .9 5.3c.1.8.1 6.5.1 7.4a56.6 56.6 0 0 0 .6 11.8c.1 1-.6 3.4-.5 3.9s-.1 1-.1 1.1.4 2.2.6 2c2.8-2 6-6.9 7.2-8.5l3.3-5.5a13.1 13.1 0 0 0 .5-1.5c-1-2.2-.8-6.2-.7-8.7s4.3-14.5 8.5-14.5c1.1 0 2.9.5 3.5 1.5a23.5 23.5 0 0 1 .3 5.8c-.2 3.8-3.6 10.2-5 13.6 0 .2-.1.8-.1 1s.9 2.1 1.7 2.1c4.9 0 10-7.6 13.2-7.3a1.6 1.6 0 0 1 1.8 1.7c-.1 3.2-13.1 10.5-16.2 10.5z"/><path d="m214.6 100.7a23 23 0 0 1 -5.4 9.7c-3.2 3.5-10 8.8-15 8.8h-.2c-4.3 0-7.1-2.7-7.8-9-.3-.1-3.6 3.5-3.9 3.6-3.4 1.9-5.5 5.9-11.4 5.9-2.9 0-5.2-3-6.7-4.7v-3.4a43.2 43.2 0 0 1 4.7-18.8c4.3-8.3 11.4-14.7 20.5-14.7 5.2 0 5 7.3 5.8 10.9 1.7-2.6 3.2-2.4 4.4-1.9s.5 2.6-.2 3.8c-2.3 3.4-7.7 12.2-8.3 17.2s1.1 6.4 3.8 6.4 9-5.9 10.7-7.7 2.9-4.4 5.9-8.5c.7-1.1.6-1 1.7-1s1.6.9 1.6 2a7.8 7.8 0 0 1 -.2 1.4zm-27.5-17.1c-5.1 0-9.8 5.4-13.2 11.7s-5 12.2-5 16.3a2.4 2.4 0 0 0 .8 2.1h1.6a10 10 0 0 0 6.4-2.7c1.3-1.2 7.7-8.4 8.8-9.8a25.1 25.1 0 0 0 3.4-12.1c0-1.6-.1-5.5-2.8-5.5z"/><path d="m263.9 100.8a23.4 23.4 0 0 1 -5.4 9.8 43.4 43.4 0 0 1 -7.8 7 15.5 15.5 0 0 1 -8.5 2.6 9.3 9.3 0 0 1 -4.1-.6c-2.5-1.2-2.5-4.4-2.5-6.8s2.2-6.9 3.8-10.2 5.7-11.7 6.7-16.4l-.9-.2c-4.7 0-10.2 9.7-12.8 13-.2.4-.9 1.7-1.7 3a27.4 27.4 0 0 1 -2.5 3.5 17.6 17.6 0 0 0 -2.5 3.5l-2.8 4.6c-1.9 2.8-3.8 5.6-5.5 5.6s-2-.9-2.4-2.3c2.3-7.8 6.3-14.9 9.8-22.3.7-1.3 1.4-3 2.1-4.7 1.1-3.9 1.3-6 .6-6.2s-4.9 5.2-6.9 8.6c-.9 1.4-3.2 5.9-4.1 7.8a7 7 0 0 1 -2.6 3.2c-.8.5-2.4.8-3.1-.2s-.1-3.3.3-3.9l.7-1.2 1.4-2.2c1.8-2.4 2.1-2.8 4.5-7.6s6.6-9.4 10.3-9.4 4.4 2.6 4.7 4.6a10.3 10.3 0 0 1 -.4 4.5l-2 6.8c4.5-7 11.3-14.1 17.9-15.4 2.6 1 3.5 3.4 3.5 5.9v.6a151.1 151.1 0 0 1 -8 20c-1 1.9-2.5 4.4-2.5 6.6 0 .7-.3 1.7.5 2.2h1.7a10.3 10.3 0 0 0 3.4-.7 38.7 38.7 0 0 0 7.4-6.1 27 27 0 0 0 2.5-4 43.4 43.4 0 0 1 4.1-6.4c.4-.5.7-.4 1.4-.4s1.9 1 1.9 2.2a10.4 10.4 0 0 1 -.2 1.6z"/><path d="m292.8 71.6c-1.4.3-16 .1-17.3.3-2.5 3.3-7.1 16.9-8.4 21.7-.3.8-2.4 6.7-2.5 7.5s-.8 5.8-.8 8.9 2.3 4.7 4.2 4.7h.2c.8-.2 4.2-.3 4.4-.4a4.8 4.8 0 0 1 1.9-.5 44.4 44.4 0 0 0 8.3-6.8c2-2.8 3.8-5.8 5.9-8.6.8-1.1.7-1 1.6-1s1.7.9 1.7 2a7.1 7.1 0 0 1 -.1 1.4 24.5 24.5 0 0 1 -5.5 9.7c-2 2.2-4.1 4.7-7.5 6.5a22.2 22.2 0 0 1 -9.9 3c-7.8 0-10.8-5.8-10.8-12.6 0-.7.6-5.3.6-6 .9-3.4 5.8-15.1 6.6-18.6.6-2 3.3-8 4-10.8a22 22 0 0 1 -5.1-.2c-.7-.2-5-1-5-3.1s2.4-2.4 3.7-2.5c3.3-.2 6.3.4 8.6 0 .1-.1 3.4-6.1 4.3-8.2l3.1-7.4 3.1-6.2c.7-1.2 3.3-6.9 5.9-6.9s2.8.9 2.8 2.3-2.9 5.8-4 8c-.4.6-8.8 18.3-8.8 18.3h16.7a3.4 3.4 0 0 1 2.5 2.5c0 1.7-3.1 2.8-4.4 3z"/><path d="m332.3 93.5c-10.4-.7-20.5 2.5-30.6 2.5-1.8 0-2.9-.7-2.9-2.5s.5-2 2-2.5c4.9-1.1 10.7-.9 15.5-2.4a83.7 83.7 0 0 1 16.7 0c.9.2 1.3 2.2 1.3 2.8s-.8 1.7-2 2.1z"/><path d="m401.4 107.7c-3.1 5.4-6.5 10.9-10 16-6.9 10.3-25.6 15.6-37.4 15.6-8.6 0-17.1-5.2-22.5-11.8a2.6 2.6 0 0 1 -.6-1.9c0-1.9 1.8-1.9 3.1-1.9 6.1 5.3 12.6 10.7 21 10.7 4.9 0 9.5-2.1 14.2-3.2 11.4-2.7 16.7-7.8 22.2-18l.4-1.3c-.1-.3-.5-.1-.9.1-8.9 5.2-19.4 6.9-29.6 6.9s-14.6-5.2-18-13.1a28.4 28.4 0 0 1 -1.9-5.6c-.5-2.6-.1-5.8-.1-8.5s1.9-6.2 1.9-7.5c-4.2-4.1-9.3-9.6-9.3-15.9s1.6-11.1 6.8-16.8c.8-.9 4-4.5 5.3-4.5s1.5 1 1.5 1.9c0 3.9-9.3 9.5-9.3 19.9 0 2.6 5.2 9.7 7.6 10.3 2.1-2.3 5.1-8.3 6.7-10.4 5-6.5 16.3-18.4 22.9-22.8 3.3-2.3 11-4.4 15.1-4.4 8.9 0 11.5 8.5 11.5 15.9 0 9.9-5.7 16.1-11.8 23.1a32.7 32.7 0 0 1 -25.4 11.7c-5.1 0-13.9-3.7-16.9-5.2-1.4 1.5-1.7 5.2-1.7 7.1 0 10.7 4.6 19.2 16.4 19.2 6.3 0 13.9-.5 19.6-3.1s10.2-4.9 14.5-8.7c1.6-1.4 5.4-5.5 5.9-10.8.1-1.4 1.9-1.4 3.1-1.4s2.8.2 2.8 1.9-5.6 13.8-7.1 16.5zm-8.1-60h-3.1c-12.7 0-24 12.6-31.5 21.7-2.3 2.8-8 9.3-8.9 12.7a36.8 36.8 0 0 0 17.3 4.7c10 0 17.6-7.5 23.4-14.7a40.7 40.7 0 0 0 4.1-5.2c1.5-2.7 2.4-8.6 2.4-11.7s-1.3-5.4-3.7-7.5z"/><path d="m462.3 100.7a24.5 24.5 0 0 1 -5.5 9.7c-3.2 3.5-9.9 8.8-15 8.8h-.1c-4.4 0-7.2-2.7-7.8-9-.3-.1-3.7 3.5-3.9 3.6-3.5 1.9-5.5 5.9-11.5 5.9-2.8 0-5.2-3-6.7-4.7v-3.4a43.2 43.2 0 0 1 4.7-18.8c4.4-8.3 11.4-14.7 20.5-14.7 5.2 0 5 7.3 5.9 10.9 1.6-2.6 3.1-2.4 4.3-1.9s.5 2.6-.2 3.8c-2.3 3.4-7.7 12.2-8.2 17.2s1 6.4 3.7 6.4 9-5.9 10.8-7.7 2.8-4.4 5.8-8.5c.8-1.1.7-1 1.7-1s1.7.9 1.7 2a7.8 7.8 0 0 1 -.2 1.4zm-27.6-17.1c-5 0-9.8 5.4-13.2 11.7s-5 12.2-5 16.3a2.4 2.4 0 0 0 .8 2.1h1.6a10 10 0 0 0 6.4-2.7c1.3-1.2 7.7-8.4 8.8-9.8a24.2 24.2 0 0 0 3.5-12.1c0-1.6-.1-5.5-2.9-5.5z"/><path d="m495.1 100.7a25.2 25.2 0 0 1 -5.3 9.7c-3.2 3.3-9.6 8.4-14.5 8.8l-2 .2c-3.1 0-6.9-1.3-6.9-5.3s1.3-8.2 3.7-12.7 6.2-9.8 8.7-13.6a24.3 24.3 0 0 1 -8.2 0c-1 .7-.8 1-1.7 2.3s-4.6 8.7-5.8 10.2c-2.5 3.3-2.1 4.9-4.7 4.9-.8 0-2.5-.4-2.3-1.8l.3-2a40.2 40.2 0 0 0 3.2-5.1c2.8-4.5 5.2-8.2 6.9-11.1-.1-.8-1-.8-1.2-1.2l-.9-1.4c-.6-1-.4-3.6-.4-4.8 0-4.9 5.1-9.1 10.3-9.1 2.2 0 4.2 2.4 4.2 4.6s-.4 3.3-1.4 5.5a28 28 0 0 1 -2.5 4.1 19.3 19.3 0 0 0 4.8.1c2.5-.3 3.4-2.3 6.3-2.3s2.3 1.6 2.3 2.9a3 3 0 0 1 -1.2 2.4l-.3.4c-2.4 2.4-8.2 10.3-9.8 12.8-3.1 4.6-5.3 9.3-5.3 13.5 0 .3 1 .5 1 .7s2.4 1.1 3.1 1.1c2.6 0 9-5.9 10.6-7.7s2.8-4.4 5.8-8.5c.9-1.1.7-1 1.8-1s1.6.9 1.6 2a7.8 7.8 0 0 1 -.2 1.4zm-26.6-22.1c0 1.1 1.7 2.2 1.8 2.2s3.8-5.3 2.6-7.3c-3.4-.2-4.4 2.3-4.4 5.1z"/><path d="m543.8 43a65.2 65.2 0 0 1 -2.9 7.3c-3.2 7.3-10.8 22-14.3 29.4s-6.6 14.6-7.9 22.4a61.2 61.2 0 0 0 -.8 9.6c0 .4.1 1.6.1 1.7 1.3 1.7 1 1.5 1.7 1.5s1.5-.4 4.3-.4 9-5.9 10.7-7.7 2.7-4.4 5.9-8.5c.7-1.1.6-1 1.6-1s1.6.9 1.6 2a7.1 7.1 0 0 1 -.1 1.4 23 23 0 0 1 -5.4 9.7c-3.1 3.4-9.5 8.4-14.6 8.8a14.8 14.8 0 0 1 -3.2.5c-9.4 0-7.4-9.2-7.5-10.6-4.3 4.7-9.5 10.1-16 10.1s-7.5-6.5-7.5-11.2c0-9.4 10.6-30.8 21.8-30.8 4.8 0 4.8 4.9 7.4 4.9.5 0 .9.2 1.2-.6l14.7-32.3c2.1-2.3 4.2-10.5 7.1-10.5s2.2 1.3 2.2 2.8a7.6 7.6 0 0 1 -.1 1.5zm-33.4 40.3a5.4 5.4 0 0 0 -2.9.7c-7.9 6.1-13 14.7-13 24.6 0 .5.7 4.5.7 5.1s1.4.6 1.9.6c7.6 0 17.9-17.3 17.9-23.7 0-2.9-1-7.3-4.6-7.3z"/><path d="m575.8 100.7a25.2 25.2 0 0 1 -5.3 9.7c-4.9 5.1-10.9 9-18 9-3.3 0-7.4-.6-10.3-2.8a12.4 12.4 0 0 1 -5.1-9.5 33.8 33.8 0 0 1 7.1-21.1c3.2-4.2 8-7.6 13.9-7.6 3.4 0 6.7 2.6 6.7 5.9a16.3 16.3 0 0 1 -4 10.5 27 27 0 0 1 -9.4 6.9c-1.8.9-6.6 2.3-8.9 3.9-.5 1.1-.1 1.7 0 2.9s1.9 3.6 3.6 4.5a11.6 11.6 0 0 0 6.4 2c5.7-.7 10.4-3.9 14.4-8.2 1.7-1.8 2.7-4.4 5.7-8.5.9-1.1.7-1 1.8-1s1.6.9 1.6 2a7.8 7.8 0 0 1 -.2 1.4zm-18.1-17.3a15.4 15.4 0 0 0 -8.9 4.6c-2.8 2.9-5.2 7.3-5.2 10.7 0 .6-.7 1.5-.1 1.8a44.4 44.4 0 0 0 10-5.4c2.7-2 4.7-4.7 6.5-8.8.1-.1.1-.6.1-.7s-1.4-2.4-2.4-2.2z"/></svg>